<?xml version="1.0" encoding="UTF-8" standalone="no"?>
<!DOCTYPE svg PUBLIC "-//W3C//DTD SVG 1.1//EN"
 "http://www.w3.org/Graphics/SVG/1.1/DTD/svg11.dtd">
<!-- Generated by graphviz version 2.36.0 (20140111.2315)
 -->
<!-- Title: Room.getLongDescription Pages: 1 -->
<svg width="620pt" height="28pt"
 viewBox="0.00 0.00 620.00 28.00" xmlns="http://www.w3.org/2000/svg" xmlns:xlink="http://www.w3.org/1999/xlink">
<g id="graph0" class="graph" transform="scale(1 1) rotate(0) translate(4 24)">
<title>Room.getLongDescription</title>
<polygon fill="white" stroke="none" points="-4,4 -4,-24 616,-24 616,4 -4,4"/>
<!-- Node1 -->
<g id="node1" class="node"><title>Node1</title>
<polygon fill="#bfbfbf" stroke="black" points="0,-0.5 0,-19.5 130,-19.5 130,-0.5 0,-0.5"/>
<text text-anchor="middle" x="65" y="-7.5" font-family="Helvetica,sans-Serif" font-size="10.00">Room.getLongDescription</text>
</g>
<!-- Node2 -->
<g id="node2" class="node"><title>Node2</title>
<g id="a_node2"><a xlink:href="classGameEngine.html#ab620e2e6c8627aba28cc2c33fefe50e3" target="_top" xlink:title="GameEngine.lookAround">
<polygon fill="white" stroke="black" points="166.5,-0.5 166.5,-19.5 291.5,-19.5 291.5,-0.5 166.5,-0.5"/>
<text text-anchor="middle" x="229" y="-7.5" font-family="Helvetica,sans-Serif" font-size="10.00">GameEngine.lookAround</text>
</a>
</g>
</g>
<!-- Node1&#45;&gt;Node2 -->
<g id="edge1" class="edge"><title>Node1&#45;&gt;Node2</title>
<path fill="none" stroke="midnightblue" d="M140.198,-10C148.926,-10 157.759,-10 166.289,-10"/>
<polygon fill="midnightblue" stroke="midnightblue" points="140.027,-6.5001 130.027,-10 140.027,-13.5001 140.027,-6.5001"/>
</g>
<!-- Node3 -->
<g id="node3" class="node"><title>Node3</title>
<g id="a_node3"><a xlink:href="classGameEngine.html#ad7133885f313fa99bca3bb7cb8272f64" target="_top" xlink:title="GameEngine.processCommand">
<polygon fill="white" stroke="black" points="328.5,-0.5 328.5,-19.5 483.5,-19.5 483.5,-0.5 328.5,-0.5"/>
<text text-anchor="middle" x="406" y="-7.5" font-family="Helvetica,sans-Serif" font-size="10.00">GameEngine.processCommand</text>
</a>
</g>
</g>
<!-- Node2&#45;&gt;Node3 -->
<g id="edge2" class="edge"><title>Node2&#45;&gt;Node3</title>
<path fill="none" stroke="midnightblue" d="M301.804,-10C310.514,-10 319.44,-10 328.219,-10"/>
<polygon fill="midnightblue" stroke="midnightblue" points="301.698,-6.5001 291.698,-10 301.698,-13.5001 301.698,-6.5001"/>
</g>
<!-- Node4 -->
<g id="node4" class="node"><title>Node4</title>
<g id="a_node4"><a xlink:href="classGameEngine.html#a0cfc6fc69e60ffe8a436d04de0938349" target="_top" xlink:title="GameEngine.test">
<polygon fill="white" stroke="black" points="520,-0.5 520,-19.5 612,-19.5 612,-0.5 520,-0.5"/>
<text text-anchor="middle" x="566" y="-7.5" font-family="Helvetica,sans-Serif" font-size="10.00">GameEngine.test</text>
</a>
</g>
</g>
<!-- Node3&#45;&gt;Node4 -->
<g id="edge3" class="edge"><title>Node3&#45;&gt;Node4</title>
<path fill="none" stroke="midnightblue" d="M493.868,-10C502.858,-10 511.71,-10 519.953,-10"/>
<polygon fill="midnightblue" stroke="midnightblue" points="493.686,-6.5001 483.686,-10 493.686,-13.5001 493.686,-6.5001"/>
</g>
</g>
</svg>
