<?xml version="1.0" encoding="UTF-8" standalone="no"?>
<!DOCTYPE svg PUBLIC "-//W3C//DTD SVG 1.1//EN"
 "http://www.w3.org/Graphics/SVG/1.1/DTD/svg11.dtd">
<!-- Generated by graphviz version 2.36.0 (20140111.2315)
 -->
<!-- Title: Game Pages: 1 -->
<!--zoomable 922 -->
<svg id="main" version="1.1" xmlns="http://www.w3.org/2000/svg" xmlns:xlink="http://www.w3.org/1999/xlink" xml:space="preserve" onload="init(evt)">
<style type="text/css"><![CDATA[
.edge:hover path { stroke: red; }
.edge:hover polygon { stroke: red; fill: red; }
]]></style>
<script type="text/javascript"><![CDATA[
var edges = document.getElementsByTagName('g');
if (edges && edges.length) {
  for (var i=0;i<edges.length;i++) {
    if (edges[i].id.substr(0,4)=='edge') {
      edges[i].setAttribute('class','edge');
    }
  }
}
]]></script>
        <defs>
                <circle id="rim" cx="0" cy="0" r="7"/>
                <circle id="rim2" cx="0" cy="0" r="3.5"/>
                <g id="zoomPlus">
                        <use xlink:href="#rim" fill="#404040">
                                <set attributeName="fill" to="#808080" begin="zoomplus.mouseover" end="zoomplus.mouseout"/>
                        </use>
                        <path d="M-4,0h8M0,-4v8" fill="none" stroke="white" stroke-width="1.5" pointer-events="none"/>
                </g>
                <g id="zoomMin">
                        <use xlink:href="#rim" fill="#404040">
                                <set attributeName="fill" to="#808080" begin="zoomminus.mouseover" end="zoomminus.mouseout"/>
                        </use>
                        <path d="M-4,0h8" fill="none" stroke="white" stroke-width="1.5" pointer-events="none"/>
                </g>
                <g id="dirArrow">
                        <path fill="none" stroke="white" stroke-width="1.5" d="M0,-3.0v7 M-2.5,-0.5L0,-3.0L2.5,-0.5"/>
                </g>
               <g id="resetDef">
                       <use xlink:href="#rim2" fill="#404040">
                               <set attributeName="fill" to="#808080" begin="reset.mouseover" end="reset.mouseout"/>
                       </use>
               </g>
        </defs>

<script type="text/javascript">
var viewWidth = 413;
var viewHeight = 922;
var sectionId = 'dynsection-0';
</script>
<script xlink:href="svgpan.js"/>
<svg id="graph" class="graph">
<g id="viewport">
<title>Game</title>
<polygon fill="white" stroke="none" points="-4,4 -4,-918 409,-918 409,4 -4,4"/>
<!-- Node1 -->
<g id="node1" class="node"><title>Node1</title>
<polygon fill="#bfbfbf" stroke="black" points="176,-1 176,-69 234,-69 234,-1 176,-1"/>
<text text-anchor="middle" x="205" y="-57" font-family="Helvetica,sans-Serif" font-size="10.00">Game</text>
<polyline fill="none" stroke="black" points="176,-50 234,-50 "/>
<text text-anchor="middle" x="205" y="-38" font-family="Helvetica,sans-Serif" font-size="10.00"> </text>
<polyline fill="none" stroke="black" points="176,-31 234,-31 "/>
<text text-anchor="start" x="184" y="-19" font-family="Helvetica,sans-Serif" font-size="10.00">+ Game()</text>
<text text-anchor="start" x="184" y="-8" font-family="Helvetica,sans-Serif" font-size="10.00">+ main()</text>
</g>
<!-- Node2 -->
<g id="node2" class="node"><title>Node2</title>
<g id="a_node2"><a xlink:href="classGameEngine.html" target="_top" xlink:title="{GameEngine\n|&#45; helpCount\l|+ GameEngine()\l+ setGUI()\l+ processCommand()\l&#45; printWelcome()\l&#45; createRooms()\l&#45; printHelp()\l&#45; printCredits()\l&#45; goRoom()\l&#45; goRoom()\l&#45; goRoom()\l&#45; goBack()\l&#45; lookAround()\l&#45; endGame()\l&#45; test()\l}">
<polygon fill="white" stroke="black" points="157.5,-335 157.5,-535 268.5,-535 268.5,-335 157.5,-335"/>
<text text-anchor="middle" x="213" y="-523" font-family="Helvetica,sans-Serif" font-size="10.00">GameEngine</text>
<polyline fill="none" stroke="black" points="157.5,-516 268.5,-516 "/>
<text text-anchor="start" x="165.5" y="-504" font-family="Helvetica,sans-Serif" font-size="10.00">&#45; helpCount</text>
<polyline fill="none" stroke="black" points="157.5,-497 268.5,-497 "/>
<text text-anchor="start" x="165.5" y="-485" font-family="Helvetica,sans-Serif" font-size="10.00">+ GameEngine()</text>
<text text-anchor="start" x="165.5" y="-474" font-family="Helvetica,sans-Serif" font-size="10.00">+ setGUI()</text>
<text text-anchor="start" x="165.5" y="-463" font-family="Helvetica,sans-Serif" font-size="10.00">+ processCommand()</text>
<text text-anchor="start" x="165.5" y="-452" font-family="Helvetica,sans-Serif" font-size="10.00">&#45; printWelcome()</text>
<text text-anchor="start" x="165.5" y="-441" font-family="Helvetica,sans-Serif" font-size="10.00">&#45; createRooms()</text>
<text text-anchor="start" x="165.5" y="-430" font-family="Helvetica,sans-Serif" font-size="10.00">&#45; printHelp()</text>
<text text-anchor="start" x="165.5" y="-419" font-family="Helvetica,sans-Serif" font-size="10.00">&#45; printCredits()</text>
<text text-anchor="start" x="165.5" y="-408" font-family="Helvetica,sans-Serif" font-size="10.00">&#45; goRoom()</text>
<text text-anchor="start" x="165.5" y="-397" font-family="Helvetica,sans-Serif" font-size="10.00">&#45; goRoom()</text>
<text text-anchor="start" x="165.5" y="-386" font-family="Helvetica,sans-Serif" font-size="10.00">&#45; goRoom()</text>
<text text-anchor="start" x="165.5" y="-375" font-family="Helvetica,sans-Serif" font-size="10.00">&#45; goBack()</text>
<text text-anchor="start" x="165.5" y="-364" font-family="Helvetica,sans-Serif" font-size="10.00">&#45; lookAround()</text>
<text text-anchor="start" x="165.5" y="-353" font-family="Helvetica,sans-Serif" font-size="10.00">&#45; endGame()</text>
<text text-anchor="start" x="165.5" y="-342" font-family="Helvetica,sans-Serif" font-size="10.00">&#45; test()</text>
</a>
</g>
</g>
<!-- Node2&#45;&gt;Node1 -->
<g id="edge1" class="edge"><title>Node2&#45;&gt;Node1</title>
<path fill="none" stroke="#404040" d="M213.567,-334.772C213.543,-265.576 212.673,-171.121 209,-88 208.904,-85.822 208.79,-83.5937 208.663,-81.3438"/>
<polygon fill="none" stroke="#404040" points="208.657,-81.2439 204.279,-75.5142 207.883,-69.2688 212.262,-74.9984 208.657,-81.2439"/>
<text text-anchor="middle" x="231.5" y="-199.5" font-family="Helvetica,sans-Serif" font-size="10.00"> &#45;engine</text>
</g>
<!-- Node7 -->
<g id="node7" class="node"><title>Node7</title>
<g id="a_node7"><a xlink:href="classUserInterface.html" target="_top" xlink:title="{UserInterface\n|&#45; myFrame\l&#45; entryField\l&#45; log\l&#45; image\l|+ UserInterface()\l+ print()\l+ println()\l+ showImage()\l+ enable()\l+ actionPerformed()\l&#45; createGUI()\l&#45; processCommand()\l}">
<polygon fill="white" stroke="black" points="91,-118.5 91,-285.5 199,-285.5 199,-118.5 91,-118.5"/>
<text text-anchor="middle" x="145" y="-273.5" font-family="Helvetica,sans-Serif" font-size="10.00">UserInterface</text>
<polyline fill="none" stroke="black" points="91,-266.5 199,-266.5 "/>
<text text-anchor="start" x="99" y="-254.5" font-family="Helvetica,sans-Serif" font-size="10.00">&#45; myFrame</text>
<text text-anchor="start" x="99" y="-243.5" font-family="Helvetica,sans-Serif" font-size="10.00">&#45; entryField</text>
<text text-anchor="start" x="99" y="-232.5" font-family="Helvetica,sans-Serif" font-size="10.00">&#45; log</text>
<text text-anchor="start" x="99" y="-221.5" font-family="Helvetica,sans-Serif" font-size="10.00">&#45; image</text>
<polyline fill="none" stroke="black" points="91,-214.5 199,-214.5 "/>
<text text-anchor="start" x="99" y="-202.5" font-family="Helvetica,sans-Serif" font-size="10.00">+ UserInterface()</text>
<text text-anchor="start" x="99" y="-191.5" font-family="Helvetica,sans-Serif" font-size="10.00">+ print()</text>
<text text-anchor="start" x="99" y="-180.5" font-family="Helvetica,sans-Serif" font-size="10.00">+ println()</text>
<text text-anchor="start" x="99" y="-169.5" font-family="Helvetica,sans-Serif" font-size="10.00">+ showImage()</text>
<text text-anchor="start" x="99" y="-158.5" font-family="Helvetica,sans-Serif" font-size="10.00">+ enable()</text>
<text text-anchor="start" x="99" y="-147.5" font-family="Helvetica,sans-Serif" font-size="10.00">+ actionPerformed()</text>
<text text-anchor="start" x="99" y="-136.5" font-family="Helvetica,sans-Serif" font-size="10.00">&#45; createGUI()</text>
<text text-anchor="start" x="99" y="-125.5" font-family="Helvetica,sans-Serif" font-size="10.00">&#45; processCommand()</text>
</a>
</g>
</g>
<!-- Node2&#45;&gt;Node7 -->
<g id="edge8" class="edge"><title>Node2&#45;&gt;Node7</title>
<path fill="none" stroke="#404040" d="M157.457,-349.855C149.503,-336.217 143.24,-323.971 141,-316 139.35,-310.127 138.159,-304.014 137.341,-297.807"/>
<polygon fill="none" stroke="#404040" points="137.334,-297.738 132.786,-292.141 136.203,-285.791 140.751,-291.387 137.334,-297.738"/>
<text text-anchor="middle" x="158.5" y="-307.5" font-family="Helvetica,sans-Serif" font-size="10.00"> &#45;engine</text>
</g>
<!-- Node3 -->
<g id="node3" class="node"><title>Node3</title>
<polygon fill="white" stroke="#bfbfbf" points="50,-656.5 50,-713.5 136,-713.5 136,-656.5 50,-656.5"/>
<text text-anchor="middle" x="93" y="-701.5" font-family="Helvetica,sans-Serif" font-size="10.00">Stack&lt; Room &gt;</text>
<polyline fill="none" stroke="#bfbfbf" points="50,-694.5 136,-694.5 "/>
<text text-anchor="middle" x="93" y="-682.5" font-family="Helvetica,sans-Serif" font-size="10.00"> </text>
<polyline fill="none" stroke="#bfbfbf" points="50,-675.5 136,-675.5 "/>
<text text-anchor="middle" x="93" y="-663.5" font-family="Helvetica,sans-Serif" font-size="10.00"> </text>
</g>
<!-- Node3&#45;&gt;Node2 -->
<g id="edge2" class="edge"><title>Node3&#45;&gt;Node2</title>
<path fill="none" stroke="#404040" d="M98.7266,-656.246C105.006,-629.133 116.57,-587.214 134,-554 138.71,-545.026 142.122,-544.256 148,-536 148.781,-534.904 149.563,-533.798 150.348,-532.686"/>
<polygon fill="none" stroke="#404040" points="150.584,-532.346 150.727,-525.136 157.436,-522.495 157.294,-529.705 150.584,-532.346"/>
<text text-anchor="middle" x="171.5" y="-557.5" font-family="Helvetica,sans-Serif" font-size="10.00"> &#45;previousRooms</text>
</g>
<!-- Node4 -->
<g id="node4" class="node"><title>Node4</title>
<g id="a_node4"><a xlink:href="classRoom.html" target="_top" xlink:title="{Room\n|&#45; description\l&#45; imageName\l|+ Room()\l+ Room()\l+ setExit()\l+ addItem()\l+ getContainedItems()\l+ getItem()\l+ hasItem()\l+ getShortDescription()\l+ getLongDescription()\l+ getHumanItemsList()\l+ getExit()\l+ getImageName()\l&#45; getExitString()\l}">
<polygon fill="white" stroke="black" points="154,-585 154,-785 272,-785 272,-585 154,-585"/>
<text text-anchor="middle" x="213" y="-773" font-family="Helvetica,sans-Serif" font-size="10.00">Room</text>
<polyline fill="none" stroke="black" points="154,-766 272,-766 "/>
<text text-anchor="start" x="162" y="-754" font-family="Helvetica,sans-Serif" font-size="10.00">&#45; description</text>
<text text-anchor="start" x="162" y="-743" font-family="Helvetica,sans-Serif" font-size="10.00">&#45; imageName</text>
<polyline fill="none" stroke="black" points="154,-736 272,-736 "/>
<text text-anchor="start" x="162" y="-724" font-family="Helvetica,sans-Serif" font-size="10.00">+ Room()</text>
<text text-anchor="start" x="162" y="-713" font-family="Helvetica,sans-Serif" font-size="10.00">+ Room()</text>
<text text-anchor="start" x="162" y="-702" font-family="Helvetica,sans-Serif" font-size="10.00">+ setExit()</text>
<text text-anchor="start" x="162" y="-691" font-family="Helvetica,sans-Serif" font-size="10.00">+ addItem()</text>
<text text-anchor="start" x="162" y="-680" font-family="Helvetica,sans-Serif" font-size="10.00">+ getContainedItems()</text>
<text text-anchor="start" x="162" y="-669" font-family="Helvetica,sans-Serif" font-size="10.00">+ getItem()</text>
<text text-anchor="start" x="162" y="-658" font-family="Helvetica,sans-Serif" font-size="10.00">+ hasItem()</text>
<text text-anchor="start" x="162" y="-647" font-family="Helvetica,sans-Serif" font-size="10.00">+ getShortDescription()</text>
<text text-anchor="start" x="162" y="-636" font-family="Helvetica,sans-Serif" font-size="10.00">+ getLongDescription()</text>
<text text-anchor="start" x="162" y="-625" font-family="Helvetica,sans-Serif" font-size="10.00">+ getHumanItemsList()</text>
<text text-anchor="start" x="162" y="-614" font-family="Helvetica,sans-Serif" font-size="10.00">+ getExit()</text>
<text text-anchor="start" x="162" y="-603" font-family="Helvetica,sans-Serif" font-size="10.00">+ getImageName()</text>
<text text-anchor="start" x="162" y="-592" font-family="Helvetica,sans-Serif" font-size="10.00">&#45; getExitString()</text>
</a>
</g>
</g>
<!-- Node4&#45;&gt;Node2 -->
<g id="edge3" class="edge"><title>Node4&#45;&gt;Node2</title>
<path fill="none" stroke="#404040" d="M213,-584.915C213,-572.671 213,-560.089 213,-547.674"/>
<polygon fill="none" stroke="#404040" points="213,-547.333 209,-541.333 213,-535.333 217,-541.333 213,-547.333"/>
<text text-anchor="middle" x="244.5" y="-557.5" font-family="Helvetica,sans-Serif" font-size="10.00"> &#45;currentRoom</text>
</g>
<!-- Node5 -->
<g id="node5" class="node"><title>Node5</title>
<polygon fill="white" stroke="#bfbfbf" points="0,-845.5 0,-902.5 128,-902.5 128,-845.5 0,-845.5"/>
<text text-anchor="middle" x="64" y="-890.5" font-family="Helvetica,sans-Serif" font-size="10.00">HashMap&lt; String, Item &gt;</text>
<polyline fill="none" stroke="#bfbfbf" points="0,-883.5 128,-883.5 "/>
<text text-anchor="middle" x="64" y="-871.5" font-family="Helvetica,sans-Serif" font-size="10.00"> </text>
<polyline fill="none" stroke="#bfbfbf" points="0,-864.5 128,-864.5 "/>
<text text-anchor="middle" x="64" y="-852.5" font-family="Helvetica,sans-Serif" font-size="10.00"> </text>
</g>
<!-- Node5&#45;&gt;Node4 -->
<g id="edge4" class="edge"><title>Node5&#45;&gt;Node4</title>
<path fill="none" stroke="#404040" d="M91.7666,-845.374C107.959,-828.738 128.397,-806.81 145,-786 145.46,-785.423 145.921,-784.843 146.381,-784.26"/>
<polygon fill="none" stroke="#404040" points="146.504,-784.102 147.004,-776.908 153.837,-774.602 153.337,-781.796 146.504,-784.102"/>
<text text-anchor="middle" x="165.5" y="-807.5" font-family="Helvetica,sans-Serif" font-size="10.00"> &#45;containedItems</text>
</g>
<!-- Node6 -->
<g id="node6" class="node"><title>Node6</title>
<polygon fill="white" stroke="#bfbfbf" points="146,-845.5 146,-902.5 280,-902.5 280,-845.5 146,-845.5"/>
<text text-anchor="middle" x="213" y="-890.5" font-family="Helvetica,sans-Serif" font-size="10.00">HashMap&lt; String, Room &gt;</text>
<polyline fill="none" stroke="#bfbfbf" points="146,-883.5 280,-883.5 "/>
<text text-anchor="middle" x="213" y="-871.5" font-family="Helvetica,sans-Serif" font-size="10.00"> </text>
<polyline fill="none" stroke="#bfbfbf" points="146,-864.5 280,-864.5 "/>
<text text-anchor="middle" x="213" y="-852.5" font-family="Helvetica,sans-Serif" font-size="10.00"> </text>
</g>
<!-- Node6&#45;&gt;Node4 -->
<g id="edge5" class="edge"><title>Node6&#45;&gt;Node4</title>
<path fill="none" stroke="#404040" d="M213,-845.408C213,-832.137 213,-815.261 213,-797.485"/>
<polygon fill="none" stroke="#404040" points="213,-797.386 209,-791.386 213,-785.386 217,-791.386 213,-797.386"/>
<text text-anchor="middle" x="227" y="-807.5" font-family="Helvetica,sans-Serif" font-size="10.00"> &#45;exits</text>
</g>
<!-- Node7&#45;&gt;Node1 -->
<g id="edge11" class="edge"><title>Node7&#45;&gt;Node1</title>
<path fill="none" stroke="#404040" d="M175.176,-118.017C179.854,-105.151 184.527,-92.302 188.738,-80.7196"/>
<polygon fill="none" stroke="#404040" points="188.841,-80.4383 187.132,-73.4325 192.942,-69.1608 194.65,-76.1665 188.841,-80.4383"/>
<text text-anchor="middle" x="195.5" y="-91.5" font-family="Helvetica,sans-Serif" font-size="10.00"> &#45;gui</text>
</g>
<!-- Node7&#45;&gt;Node2 -->
<g id="edge6" class="edge"><title>Node7&#45;&gt;Node2</title>
<path fill="none" stroke="#404040" d="M174.315,-285.768C176.299,-291.918 178.216,-298.045 180,-304 181.859,-310.204 183.703,-316.594 185.514,-323.057"/>
<polygon fill="none" stroke="#404040" points="185.547,-323.175 190.997,-327.897 188.734,-334.744 183.284,-330.022 185.547,-323.175"/>
<text text-anchor="middle" x="193.5" y="-307.5" font-family="Helvetica,sans-Serif" font-size="10.00"> &#45;gui</text>
</g>
<!-- Node8 -->
<g id="node8" class="node"><title>Node8</title>
<polygon fill="white" stroke="#bfbfbf" points="60.5,-406.5 60.5,-463.5 139.5,-463.5 139.5,-406.5 60.5,-406.5"/>
<text text-anchor="middle" x="100" y="-451.5" font-family="Helvetica,sans-Serif" font-size="10.00">ActionListener</text>
<polyline fill="none" stroke="#bfbfbf" points="60.5,-444.5 139.5,-444.5 "/>
<text text-anchor="middle" x="100" y="-432.5" font-family="Helvetica,sans-Serif" font-size="10.00"> </text>
<polyline fill="none" stroke="#bfbfbf" points="60.5,-425.5 139.5,-425.5 "/>
<text text-anchor="middle" x="100" y="-413.5" font-family="Helvetica,sans-Serif" font-size="10.00"> </text>
</g>
<!-- Node8&#45;&gt;Node7 -->
<g id="edge7" class="edge"><title>Node8&#45;&gt;Node7</title>
<path fill="none" stroke="midnightblue" d="M105.838,-396.096C109.981,-370.11 115.875,-334.884 122,-304 123.189,-298.002 124.469,-291.816 125.793,-285.598"/>
<polygon fill="none" stroke="midnightblue" points="102.333,-395.851 104.229,-406.275 109.247,-396.944 102.333,-395.851"/>
</g>
<!-- Node9 -->
<g id="node9" class="node"><title>Node9</title>
<g id="a_node9"><a xlink:href="classParser.html" target="_top" xlink:title="{Parser\n||+ Parser()\l+ getCommand()\l+ showCommands()\l}">
<polygon fill="white" stroke="black" points="294.5,-645.5 294.5,-724.5 399.5,-724.5 399.5,-645.5 294.5,-645.5"/>
<text text-anchor="middle" x="347" y="-712.5" font-family="Helvetica,sans-Serif" font-size="10.00">Parser</text>
<polyline fill="none" stroke="black" points="294.5,-705.5 399.5,-705.5 "/>
<text text-anchor="middle" x="347" y="-693.5" font-family="Helvetica,sans-Serif" font-size="10.00"> </text>
<polyline fill="none" stroke="black" points="294.5,-686.5 399.5,-686.5 "/>
<text text-anchor="start" x="302.5" y="-674.5" font-family="Helvetica,sans-Serif" font-size="10.00">+ Parser()</text>
<text text-anchor="start" x="302.5" y="-663.5" font-family="Helvetica,sans-Serif" font-size="10.00">+ getCommand()</text>
<text text-anchor="start" x="302.5" y="-652.5" font-family="Helvetica,sans-Serif" font-size="10.00">+ showCommands()</text>
</a>
</g>
</g>
<!-- Node9&#45;&gt;Node2 -->
<g id="edge9" class="edge"><title>Node9&#45;&gt;Node2</title>
<path fill="none" stroke="#404040" d="M327.617,-645.389C314.451,-619.415 296.499,-584.479 280,-554 278.15,-550.582 276.259,-547.114 274.342,-543.617"/>
<polygon fill="none" stroke="#404040" points="274.316,-543.569 267.916,-540.245 268.523,-533.06 274.922,-536.383 274.316,-543.569"/>
<text text-anchor="middle" x="303" y="-557.5" font-family="Helvetica,sans-Serif" font-size="10.00"> &#45;parser</text>
</g>
<!-- Node10 -->
<g id="node10" class="node"><title>Node10</title>
<g id="a_node10"><a xlink:href="classCommandWords.html" target="_top" xlink:title="{CommandWords\n|&#45; knownCommands\l|+ CommandWords()\l+ isCommand()\l+ getCommandList()\l}">
<polygon fill="white" stroke="black" points="298,-834.5 298,-913.5 404,-913.5 404,-834.5 298,-834.5"/>
<text text-anchor="middle" x="351" y="-901.5" font-family="Helvetica,sans-Serif" font-size="10.00">CommandWords</text>
<polyline fill="none" stroke="black" points="298,-894.5 404,-894.5 "/>
<text text-anchor="start" x="306" y="-882.5" font-family="Helvetica,sans-Serif" font-size="10.00">&#45; knownCommands</text>
<polyline fill="none" stroke="black" points="298,-875.5 404,-875.5 "/>
<text text-anchor="start" x="306" y="-863.5" font-family="Helvetica,sans-Serif" font-size="10.00">+ CommandWords()</text>
<text text-anchor="start" x="306" y="-852.5" font-family="Helvetica,sans-Serif" font-size="10.00">+ isCommand()</text>
<text text-anchor="start" x="306" y="-841.5" font-family="Helvetica,sans-Serif" font-size="10.00">+ getCommandList()</text>
</a>
</g>
</g>
<!-- Node10&#45;&gt;Node9 -->
<g id="edge10" class="edge"><title>Node10&#45;&gt;Node9</title>
<path fill="none" stroke="#404040" d="M350.171,-834.253C349.568,-806.046 348.745,-767.573 348.089,-736.889"/>
<polygon fill="none" stroke="#404040" points="348.084,-736.694 343.957,-730.781 347.828,-724.697 351.955,-730.61 348.084,-736.694"/>
<text text-anchor="middle" x="377.5" y="-807.5" font-family="Helvetica,sans-Serif" font-size="10.00"> &#45;commands</text>
</g>
</g>
</svg>
        <g id="navigator" transform="translate(0 0)" fill="#404254">
                <rect fill="#f2f5e9" fill-opacity="0.5" stroke="#606060" stroke-width=".5" x="0" y="0" width="60" height="60"/>
                <use id="zoomplus" xlink:href="#zoomPlus" x="17" y="9" onmousedown="handleZoom(evt,'in')"/>
                <use id="zoomminus" xlink:href="#zoomMin" x="42" y="9" onmousedown="handleZoom(evt,'out')"/>
                <use id="reset" xlink:href="#resetDef" x="30" y="36" onmousedown="handleReset()"/>
                <g id="arrowUp" xlink:href="#dirArrow" transform="translate(30 24)" onmousedown="handlePan(0,-1)">
                  <use xlink:href="#rim" fill="#404040">
                        <set attributeName="fill" to="#808080" begin="arrowUp.mouseover" end="arrowUp.mouseout"/>
                  </use>
                  <path fill="none" stroke="white" stroke-width="1.5" d="M0,-3.0v7 M-2.5,-0.5L0,-3.0L2.5,-0.5"/>
                </g>
                <g id="arrowRight" xlink:href="#dirArrow" transform="rotate(90) translate(36 -43)" onmousedown="handlePan(1,0)">
                  <use xlink:href="#rim" fill="#404040">
                        <set attributeName="fill" to="#808080" begin="arrowRight.mouseover" end="arrowRight.mouseout"/>
                  </use>
                  <path fill="none" stroke="white" stroke-width="1.5" d="M0,-3.0v7 M-2.5,-0.5L0,-3.0L2.5,-0.5"/>
                </g>
                <g id="arrowDown" xlink:href="#dirArrow" transform="rotate(180) translate(-30 -48)" onmousedown="handlePan(0,1)">
                  <use xlink:href="#rim" fill="#404040">
                        <set attributeName="fill" to="#808080" begin="arrowDown.mouseover" end="arrowDown.mouseout"/>
                  </use>
                  <path fill="none" stroke="white" stroke-width="1.5" d="M0,-3.0v7 M-2.5,-0.5L0,-3.0L2.5,-0.5"/>
                </g>
                <g id="arrowLeft" xlink:href="#dirArrow" transform="rotate(270) translate(-36 17)" onmousedown="handlePan(-1,0)">
                  <use xlink:href="#rim" fill="#404040">
                        <set attributeName="fill" to="#808080" begin="arrowLeft.mouseover" end="arrowLeft.mouseout"/>
                  </use>
                  <path fill="none" stroke="white" stroke-width="1.5" d="M0,-3.0v7 M-2.5,-0.5L0,-3.0L2.5,-0.5"/>
                </g>
        </g>
        <svg viewBox="0 0 15 15" width="100%" height="30px" preserveAspectRatio="xMaxYMin meet">
         <g id="arrow_out" transform="scale(0.3 0.3)">
          <a xlink:href="classGame__coll__graph_org.svg" target="_base">
           <rect id="button" ry="5" rx="5" y="6" x="6" height="38" width="38"
                fill="#f2f5e9" fill-opacity="0.5" stroke="#606060" stroke-width="1.0"/>
           <path id="arrow"
             d="M 11.500037,31.436501 C 11.940474,20.09759 22.043105,11.32322 32.158766,21.979434 L 37.068811,17.246167 C 37.068811,17.246167 37.088388,32 37.088388,32 L 22.160133,31.978069 C 22.160133,31.978069 26.997745,27.140456 26.997745,27.140456 C 18.528582,18.264221 13.291696,25.230495 11.500037,31.436501 z"
             style="fill:#404040;"/>
          </a>
         </g>
        </svg>
</svg>
