<?xml version="1.0" encoding="UTF-8" standalone="no"?>
<!DOCTYPE svg PUBLIC "-//W3C//DTD SVG 1.1//EN"
 "http://www.w3.org/Graphics/SVG/1.1/DTD/svg11.dtd">
<!-- Generated by graphviz version 2.36.0 (20140111.2315)
 -->
<!-- Title: Room.getExitString Pages: 1 -->
<svg width="758pt" height="28pt"
 viewBox="0.00 0.00 758.00 28.00" xmlns="http://www.w3.org/2000/svg" xmlns:xlink="http://www.w3.org/1999/xlink">
<g id="graph0" class="graph" transform="scale(1 1) rotate(0) translate(4 24)">
<title>Room.getExitString</title>
<polygon fill="white" stroke="none" points="-4,4 -4,-24 754,-24 754,4 -4,4"/>
<!-- Node1 -->
<g id="node1" class="node"><title>Node1</title>
<polygon fill="#bfbfbf" stroke="black" points="0,-0.5 0,-19.5 102,-19.5 102,-0.5 0,-0.5"/>
<text text-anchor="middle" x="51" y="-7.5" font-family="Helvetica,sans-Serif" font-size="10.00">Room.getExitString</text>
</g>
<!-- Node2 -->
<g id="node2" class="node"><title>Node2</title>
<g id="a_node2"><a xlink:href="classRoom.html#a23a25854d7544fb0b41190a4d6bd1322" target="_top" xlink:title="Room.getLongDescription">
<polygon fill="white" stroke="black" points="138,-0.5 138,-19.5 268,-19.5 268,-0.5 138,-0.5"/>
<text text-anchor="middle" x="203" y="-7.5" font-family="Helvetica,sans-Serif" font-size="10.00">Room.getLongDescription</text>
</a>
</g>
</g>
<!-- Node1&#45;&gt;Node2 -->
<g id="edge1" class="edge"><title>Node1&#45;&gt;Node2</title>
<path fill="none" stroke="midnightblue" d="M112.44,-10C120.826,-10 129.465,-10 137.916,-10"/>
<polygon fill="midnightblue" stroke="midnightblue" points="112.365,-6.5001 102.365,-10 112.365,-13.5001 112.365,-6.5001"/>
</g>
<!-- Node3 -->
<g id="node3" class="node"><title>Node3</title>
<g id="a_node3"><a xlink:href="classGameEngine.html#ab620e2e6c8627aba28cc2c33fefe50e3" target="_top" xlink:title="GameEngine.lookAround">
<polygon fill="white" stroke="black" points="304.5,-0.5 304.5,-19.5 429.5,-19.5 429.5,-0.5 304.5,-0.5"/>
<text text-anchor="middle" x="367" y="-7.5" font-family="Helvetica,sans-Serif" font-size="10.00">GameEngine.lookAround</text>
</a>
</g>
</g>
<!-- Node2&#45;&gt;Node3 -->
<g id="edge2" class="edge"><title>Node2&#45;&gt;Node3</title>
<path fill="none" stroke="midnightblue" d="M278.198,-10C286.926,-10 295.759,-10 304.289,-10"/>
<polygon fill="midnightblue" stroke="midnightblue" points="278.027,-6.5001 268.027,-10 278.027,-13.5001 278.027,-6.5001"/>
</g>
<!-- Node4 -->
<g id="node4" class="node"><title>Node4</title>
<g id="a_node4"><a xlink:href="classGameEngine.html#ad7133885f313fa99bca3bb7cb8272f64" target="_top" xlink:title="GameEngine.processCommand">
<polygon fill="white" stroke="black" points="466.5,-0.5 466.5,-19.5 621.5,-19.5 621.5,-0.5 466.5,-0.5"/>
<text text-anchor="middle" x="544" y="-7.5" font-family="Helvetica,sans-Serif" font-size="10.00">GameEngine.processCommand</text>
</a>
</g>
</g>
<!-- Node3&#45;&gt;Node4 -->
<g id="edge3" class="edge"><title>Node3&#45;&gt;Node4</title>
<path fill="none" stroke="midnightblue" d="M439.804,-10C448.514,-10 457.44,-10 466.219,-10"/>
<polygon fill="midnightblue" stroke="midnightblue" points="439.698,-6.5001 429.698,-10 439.698,-13.5001 439.698,-6.5001"/>
</g>
<!-- Node5 -->
<g id="node5" class="node"><title>Node5</title>
<g id="a_node5"><a xlink:href="classGameEngine.html#a0cfc6fc69e60ffe8a436d04de0938349" target="_top" xlink:title="GameEngine.test">
<polygon fill="white" stroke="black" points="658,-0.5 658,-19.5 750,-19.5 750,-0.5 658,-0.5"/>
<text text-anchor="middle" x="704" y="-7.5" font-family="Helvetica,sans-Serif" font-size="10.00">GameEngine.test</text>
</a>
</g>
</g>
<!-- Node4&#45;&gt;Node5 -->
<g id="edge4" class="edge"><title>Node4&#45;&gt;Node5</title>
<path fill="none" stroke="midnightblue" d="M631.868,-10C640.858,-10 649.71,-10 657.953,-10"/>
<polygon fill="midnightblue" stroke="midnightblue" points="631.686,-6.5001 621.686,-10 631.686,-13.5001 631.686,-6.5001"/>
</g>
</g>
</svg>
