<?xml version="1.0" encoding="UTF-8" standalone="no"?>
<!DOCTYPE svg PUBLIC "-//W3C//DTD SVG 1.1//EN"
 "http://www.w3.org/Graphics/SVG/1.1/DTD/svg11.dtd">
<!-- Generated by graphviz version 2.36.0 (20140111.2315)
 -->
<!-- Title: GameEngine.test Pages: 1 -->
<svg width="788pt" height="256pt"
 viewBox="0.00 0.00 788.00 256.00" xmlns="http://www.w3.org/2000/svg" xmlns:xlink="http://www.w3.org/1999/xlink">
<g id="graph0" class="graph" transform="scale(1 1) rotate(0) translate(4 252)">
<title>GameEngine.test</title>
<polygon fill="white" stroke="none" points="-4,4 -4,-252 784,-252 784,4 -4,4"/>
<!-- Node1 -->
<g id="node1" class="node"><title>Node1</title>
<polygon fill="#bfbfbf" stroke="black" points="0,-114.5 0,-133.5 92,-133.5 92,-114.5 0,-114.5"/>
<text text-anchor="middle" x="46" y="-121.5" font-family="Helvetica,sans-Serif" font-size="10.00">GameEngine.test</text>
</g>
<!-- Node2 -->
<g id="node2" class="node"><title>Node2</title>
<g id="a_node2"><a xlink:href="classGameEngine.html#ad7133885f313fa99bca3bb7cb8272f64" target="_top" xlink:title="GameEngine.processCommand">
<polygon fill="white" stroke="black" points="128.5,-114.5 128.5,-133.5 283.5,-133.5 283.5,-114.5 128.5,-114.5"/>
<text text-anchor="middle" x="206" y="-121.5" font-family="Helvetica,sans-Serif" font-size="10.00">GameEngine.processCommand</text>
</a>
</g>
</g>
<!-- Node1&#45;&gt;Node2 -->
<g id="edge1" class="edge"><title>Node1&#45;&gt;Node2</title>
<path fill="none" stroke="midnightblue" d="M92.2765,-124C100.492,-124 109.307,-124 118.255,-124"/>
<polygon fill="midnightblue" stroke="midnightblue" points="118.39,-127.5 128.39,-124 118.39,-120.5 118.39,-127.5"/>
</g>
<!-- Node3 -->
<g id="node3" class="node"><title>Node3</title>
<g id="a_node3"><a xlink:href="classGameEngine.html#abebbf1bda82aa3ca162f7187a64e41ed" target="_top" xlink:title="GameEngine.endGame">
<polygon fill="white" stroke="black" points="324,-228.5 324,-247.5 442,-247.5 442,-228.5 324,-228.5"/>
<text text-anchor="middle" x="383" y="-235.5" font-family="Helvetica,sans-Serif" font-size="10.00">GameEngine.endGame</text>
</a>
</g>
</g>
<!-- Node2&#45;&gt;Node3 -->
<g id="edge2" class="edge"><title>Node2&#45;&gt;Node3</title>
<path fill="none" stroke="midnightblue" d="M215.712,-133.543C233.513,-152.498 276.097,-195.117 320,-219 324.002,-221.177 328.288,-223.141 332.669,-224.904"/>
<polygon fill="midnightblue" stroke="midnightblue" points="331.741,-228.292 342.335,-228.449 334.151,-221.72 331.741,-228.292"/>
</g>
<!-- Node4 -->
<g id="node4" class="node"><title>Node4</title>
<g id="a_node4"><a xlink:href="classGameEngine.html#ac22dcdb540cb27f39597ee4f03ad167a" target="_top" xlink:title="GameEngine.goBack">
<polygon fill="white" stroke="black" points="328.5,-190.5 328.5,-209.5 437.5,-209.5 437.5,-190.5 328.5,-190.5"/>
<text text-anchor="middle" x="383" y="-197.5" font-family="Helvetica,sans-Serif" font-size="10.00">GameEngine.goBack</text>
</a>
</g>
</g>
<!-- Node2&#45;&gt;Node4 -->
<g id="edge3" class="edge"><title>Node2&#45;&gt;Node4</title>
<path fill="none" stroke="midnightblue" d="M226.838,-133.582C249.273,-144.313 286.986,-162.03 320,-176 328.573,-179.628 337.897,-183.351 346.649,-186.751"/>
<polygon fill="midnightblue" stroke="midnightblue" points="345.626,-190.107 356.216,-190.429 348.138,-183.574 345.626,-190.107"/>
</g>
<!-- Node5 -->
<g id="node5" class="node"><title>Node5</title>
<g id="a_node5"><a xlink:href="classGameEngine.html#a2ec577574f345764435837fc0204b2e0" target="_top" xlink:title="GameEngine.goRoom">
<polygon fill="white" stroke="black" points="490.5,-190.5 490.5,-209.5 603.5,-209.5 603.5,-190.5 490.5,-190.5"/>
<text text-anchor="middle" x="547" y="-197.5" font-family="Helvetica,sans-Serif" font-size="10.00">GameEngine.goRoom</text>
</a>
</g>
</g>
<!-- Node2&#45;&gt;Node5 -->
<g id="edge5" class="edge"><title>Node2&#45;&gt;Node5</title>
<path fill="none" stroke="midnightblue" d="M249.591,-133.548C311.583,-147.446 426.568,-173.225 493.645,-188.263"/>
<polygon fill="midnightblue" stroke="midnightblue" points="493.059,-191.718 503.583,-190.491 494.591,-184.888 493.059,-191.718"/>
</g>
<!-- Node6 -->
<g id="node6" class="node"><title>Node6</title>
<g id="a_node6"><a xlink:href="classGameEngine.html#ab620e2e6c8627aba28cc2c33fefe50e3" target="_top" xlink:title="GameEngine.lookAround">
<polygon fill="white" stroke="black" points="320.5,-114.5 320.5,-133.5 445.5,-133.5 445.5,-114.5 320.5,-114.5"/>
<text text-anchor="middle" x="383" y="-121.5" font-family="Helvetica,sans-Serif" font-size="10.00">GameEngine.lookAround</text>
</a>
</g>
</g>
<!-- Node2&#45;&gt;Node6 -->
<g id="edge6" class="edge"><title>Node2&#45;&gt;Node6</title>
<path fill="none" stroke="midnightblue" d="M283.503,-124C292.361,-124 301.372,-124 310.165,-124"/>
<polygon fill="midnightblue" stroke="midnightblue" points="310.364,-127.5 320.364,-124 310.364,-120.5 310.364,-127.5"/>
</g>
<!-- Node11 -->
<g id="node11" class="node"><title>Node11</title>
<g id="a_node11"><a xlink:href="classUserInterface.html#a79f606b4b1f5d1523e50eea00039ed94" target="_top" xlink:title="UserInterface.println">
<polygon fill="white" stroke="black" points="494.5,-76.5 494.5,-95.5 599.5,-95.5 599.5,-76.5 494.5,-76.5"/>
<text text-anchor="middle" x="547" y="-83.5" font-family="Helvetica,sans-Serif" font-size="10.00">UserInterface.println</text>
</a>
</g>
</g>
<!-- Node2&#45;&gt;Node11 -->
<g id="edge14" class="edge"><title>Node2&#45;&gt;Node11</title>
<path fill="none" stroke="midnightblue" d="M258.057,-114.495C277.407,-111.135 299.67,-107.559 320,-105 375.387,-98.0275 438.743,-92.9504 484.253,-89.8079"/>
<polygon fill="midnightblue" stroke="midnightblue" points="484.521,-93.2978 494.261,-89.1281 484.047,-86.3139 484.521,-93.2978"/>
</g>
<!-- Node12 -->
<g id="node12" class="node"><title>Node12</title>
<g id="a_node12"><a xlink:href="classGameEngine.html#a0cc83a912708431a667e73c9a8aa3698" target="_top" xlink:title="GameEngine.printCredits">
<polygon fill="white" stroke="black" points="320,-38.5 320,-57.5 446,-57.5 446,-38.5 320,-38.5"/>
<text text-anchor="middle" x="383" y="-45.5" font-family="Helvetica,sans-Serif" font-size="10.00">GameEngine.printCredits</text>
</a>
</g>
</g>
<!-- Node2&#45;&gt;Node12 -->
<g id="edge12" class="edge"><title>Node2&#45;&gt;Node12</title>
<path fill="none" stroke="midnightblue" d="M226.838,-114.418C249.273,-103.687 286.986,-85.9703 320,-72 328.573,-68.3724 337.897,-64.6485 346.649,-61.2491"/>
<polygon fill="midnightblue" stroke="midnightblue" points="348.138,-64.4264 356.216,-57.5712 345.626,-57.8926 348.138,-64.4264"/>
</g>
<!-- Node13 -->
<g id="node13" class="node"><title>Node13</title>
<g id="a_node13"><a xlink:href="classGameEngine.html#a8959e384cc77e69ab0ce9da8ba5057cd" target="_top" xlink:title="GameEngine.printHelp">
<polygon fill="white" stroke="black" points="325.5,-0.5 325.5,-19.5 440.5,-19.5 440.5,-0.5 325.5,-0.5"/>
<text text-anchor="middle" x="383" y="-7.5" font-family="Helvetica,sans-Serif" font-size="10.00">GameEngine.printHelp</text>
</a>
</g>
</g>
<!-- Node2&#45;&gt;Node13 -->
<g id="edge13" class="edge"><title>Node2&#45;&gt;Node13</title>
<path fill="none" stroke="midnightblue" d="M215.712,-114.457C233.513,-95.5021 276.097,-52.8827 320,-29 324.002,-26.8229 328.288,-24.8593 332.669,-23.0961"/>
<polygon fill="midnightblue" stroke="midnightblue" points="334.151,-26.2803 342.335,-19.5512 331.741,-19.7083 334.151,-26.2803"/>
</g>
<!-- Node4&#45;&gt;Node5 -->
<g id="edge4" class="edge"><title>Node4&#45;&gt;Node5</title>
<path fill="none" stroke="midnightblue" d="M437.944,-200C451.498,-200 466.194,-200 480.253,-200"/>
<polygon fill="midnightblue" stroke="midnightblue" points="480.353,-203.5 490.353,-200 480.353,-196.5 480.353,-203.5"/>
</g>
<!-- Node7 -->
<g id="node7" class="node"><title>Node7</title>
<g id="a_node7"><a xlink:href="classRoom.html#a23a25854d7544fb0b41190a4d6bd1322" target="_top" xlink:title="Room.getLongDescription">
<polygon fill="white" stroke="black" points="482,-152.5 482,-171.5 612,-171.5 612,-152.5 482,-152.5"/>
<text text-anchor="middle" x="547" y="-159.5" font-family="Helvetica,sans-Serif" font-size="10.00">Room.getLongDescription</text>
</a>
</g>
</g>
<!-- Node6&#45;&gt;Node7 -->
<g id="edge7" class="edge"><title>Node6&#45;&gt;Node7</title>
<path fill="none" stroke="midnightblue" d="M424.879,-133.589C446.353,-138.626 472.86,-144.844 495.597,-150.177"/>
<polygon fill="midnightblue" stroke="midnightblue" points="494.879,-153.604 505.415,-152.48 496.478,-146.789 494.879,-153.604"/>
</g>
<!-- Node10 -->
<g id="node10" class="node"><title>Node10</title>
<g id="a_node10"><a xlink:href="classRoom.html#ad779b367b26018c9f343ca3044c4b54f" target="_top" xlink:title="Room.hasItem">
<polygon fill="white" stroke="black" points="506.5,-114.5 506.5,-133.5 587.5,-133.5 587.5,-114.5 506.5,-114.5"/>
<text text-anchor="middle" x="547" y="-121.5" font-family="Helvetica,sans-Serif" font-size="10.00">Room.hasItem</text>
</a>
</g>
</g>
<!-- Node6&#45;&gt;Node10 -->
<g id="edge10" class="edge"><title>Node6&#45;&gt;Node10</title>
<path fill="none" stroke="midnightblue" d="M445.707,-124C462.431,-124 480.32,-124 496.291,-124"/>
<polygon fill="midnightblue" stroke="midnightblue" points="496.477,-127.5 506.477,-124 496.477,-120.5 496.477,-127.5"/>
</g>
<!-- Node6&#45;&gt;Node11 -->
<g id="edge11" class="edge"><title>Node6&#45;&gt;Node11</title>
<path fill="none" stroke="midnightblue" d="M424.879,-114.411C446.353,-109.374 472.86,-103.156 495.597,-97.8229"/>
<polygon fill="midnightblue" stroke="midnightblue" points="496.478,-101.211 505.415,-95.5201 494.879,-94.3963 496.478,-101.211"/>
</g>
<!-- Node8 -->
<g id="node8" class="node"><title>Node8</title>
<g id="a_node8"><a xlink:href="classRoom.html#ab8a87ad306f77a936873094b479bcde8" target="_top" xlink:title="Room.getHumanItemsList">
<polygon fill="white" stroke="black" points="648.5,-171.5 648.5,-190.5 779.5,-190.5 779.5,-171.5 648.5,-171.5"/>
<text text-anchor="middle" x="714" y="-178.5" font-family="Helvetica,sans-Serif" font-size="10.00">Room.getHumanItemsList</text>
</a>
</g>
</g>
<!-- Node7&#45;&gt;Node8 -->
<g id="edge8" class="edge"><title>Node7&#45;&gt;Node8</title>
<path fill="none" stroke="midnightblue" d="M612.266,-169.4C620.786,-170.381 629.579,-171.394 638.256,-172.393"/>
<polygon fill="midnightblue" stroke="midnightblue" points="638.032,-175.89 648.367,-173.557 638.833,-168.936 638.032,-175.89"/>
</g>
<!-- Node9 -->
<g id="node9" class="node"><title>Node9</title>
<g id="a_node9"><a xlink:href="classRoom.html#a2ccc382c07890a9827be232767eb98a0" target="_top" xlink:title="Room.getExitString">
<polygon fill="white" stroke="black" points="663,-133.5 663,-152.5 765,-152.5 765,-133.5 663,-133.5"/>
<text text-anchor="middle" x="714" y="-140.5" font-family="Helvetica,sans-Serif" font-size="10.00">Room.getExitString</text>
</a>
</g>
</g>
<!-- Node7&#45;&gt;Node9 -->
<g id="edge9" class="edge"><title>Node7&#45;&gt;Node9</title>
<path fill="none" stroke="midnightblue" d="M612.266,-154.6C625.678,-153.055 639.766,-151.433 653.016,-149.907"/>
<polygon fill="midnightblue" stroke="midnightblue" points="653.425,-153.383 662.959,-148.762 652.624,-146.429 653.425,-153.383"/>
</g>
</g>
</svg>
