<?xml version="1.0" encoding="UTF-8" standalone="no"?>
<!DOCTYPE svg PUBLIC "-//W3C//DTD SVG 1.1//EN"
 "http://www.w3.org/Graphics/SVG/1.1/DTD/svg11.dtd">
<!-- Generated by graphviz version 2.36.0 (20140111.2315)
 -->
<!-- Title: Room Pages: 1 -->
<svg width="288pt" height="316pt"
 viewBox="0.00 0.00 288.00 316.00" xmlns="http://www.w3.org/2000/svg" xmlns:xlink="http://www.w3.org/1999/xlink">
<g id="graph0" class="graph" transform="scale(1 1) rotate(0) translate(4 312)">
<title>Room</title>
<polygon fill="white" stroke="none" points="-4,4 -4,-312 284,-312 284,4 -4,4"/>
<!-- Node1 -->
<g id="node1" class="node"><title>Node1</title>
<polygon fill="#bfbfbf" stroke="black" points="79,-1 79,-201 197,-201 197,-1 79,-1"/>
<text text-anchor="middle" x="138" y="-189" font-family="Helvetica,sans-Serif" font-size="10.00">Room</text>
<polyline fill="none" stroke="black" points="79,-182 197,-182 "/>
<text text-anchor="start" x="87" y="-170" font-family="Helvetica,sans-Serif" font-size="10.00">&#45; description</text>
<text text-anchor="start" x="87" y="-159" font-family="Helvetica,sans-Serif" font-size="10.00">&#45; imageName</text>
<polyline fill="none" stroke="black" points="79,-152 197,-152 "/>
<text text-anchor="start" x="87" y="-140" font-family="Helvetica,sans-Serif" font-size="10.00">+ Room()</text>
<text text-anchor="start" x="87" y="-129" font-family="Helvetica,sans-Serif" font-size="10.00">+ Room()</text>
<text text-anchor="start" x="87" y="-118" font-family="Helvetica,sans-Serif" font-size="10.00">+ setExit()</text>
<text text-anchor="start" x="87" y="-107" font-family="Helvetica,sans-Serif" font-size="10.00">+ addItem()</text>
<text text-anchor="start" x="87" y="-96" font-family="Helvetica,sans-Serif" font-size="10.00">+ getContainedItems()</text>
<text text-anchor="start" x="87" y="-85" font-family="Helvetica,sans-Serif" font-size="10.00">+ getItem()</text>
<text text-anchor="start" x="87" y="-74" font-family="Helvetica,sans-Serif" font-size="10.00">+ hasItem()</text>
<text text-anchor="start" x="87" y="-63" font-family="Helvetica,sans-Serif" font-size="10.00">+ getShortDescription()</text>
<text text-anchor="start" x="87" y="-52" font-family="Helvetica,sans-Serif" font-size="10.00">+ getLongDescription()</text>
<text text-anchor="start" x="87" y="-41" font-family="Helvetica,sans-Serif" font-size="10.00">+ getHumanItemsList()</text>
<text text-anchor="start" x="87" y="-30" font-family="Helvetica,sans-Serif" font-size="10.00">+ getExit()</text>
<text text-anchor="start" x="87" y="-19" font-family="Helvetica,sans-Serif" font-size="10.00">+ getImageName()</text>
<text text-anchor="start" x="87" y="-8" font-family="Helvetica,sans-Serif" font-size="10.00">&#45; getExitString()</text>
</g>
<!-- Node2 -->
<g id="node2" class="node"><title>Node2</title>
<polygon fill="white" stroke="#bfbfbf" points="0,-250.5 0,-307.5 128,-307.5 128,-250.5 0,-250.5"/>
<text text-anchor="middle" x="64" y="-295.5" font-family="Helvetica,sans-Serif" font-size="10.00">HashMap&lt; String, Item &gt;</text>
<polyline fill="none" stroke="#bfbfbf" points="0,-288.5 128,-288.5 "/>
<text text-anchor="middle" x="64" y="-276.5" font-family="Helvetica,sans-Serif" font-size="10.00"> </text>
<polyline fill="none" stroke="#bfbfbf" points="0,-269.5 128,-269.5 "/>
<text text-anchor="middle" x="64" y="-257.5" font-family="Helvetica,sans-Serif" font-size="10.00"> </text>
</g>
<!-- Node2&#45;&gt;Node1 -->
<g id="edge1" class="edge"><title>Node2&#45;&gt;Node1</title>
<path fill="none" stroke="#404040" d="M75.7255,-250.112C80.2597,-239.328 85.7639,-226.237 91.6024,-212.351"/>
<polygon fill="none" stroke="#404040" points="91.6932,-212.135 90.3315,-205.053 96.3444,-201.073 97.7061,-208.154 91.6932,-212.135"/>
<text text-anchor="middle" x="124.5" y="-223.5" font-family="Helvetica,sans-Serif" font-size="10.00"> &#45;containedItems</text>
</g>
<!-- Node3 -->
<g id="node3" class="node"><title>Node3</title>
<polygon fill="white" stroke="#bfbfbf" points="146,-250.5 146,-307.5 280,-307.5 280,-250.5 146,-250.5"/>
<text text-anchor="middle" x="213" y="-295.5" font-family="Helvetica,sans-Serif" font-size="10.00">HashMap&lt; String, Room &gt;</text>
<polyline fill="none" stroke="#bfbfbf" points="146,-288.5 280,-288.5 "/>
<text text-anchor="middle" x="213" y="-276.5" font-family="Helvetica,sans-Serif" font-size="10.00"> </text>
<polyline fill="none" stroke="#bfbfbf" points="146,-269.5 280,-269.5 "/>
<text text-anchor="middle" x="213" y="-257.5" font-family="Helvetica,sans-Serif" font-size="10.00"> </text>
</g>
<!-- Node3&#45;&gt;Node1 -->
<g id="edge2" class="edge"><title>Node3&#45;&gt;Node1</title>
<path fill="none" stroke="#404040" d="M201.116,-250.112C196.521,-239.328 190.942,-226.237 185.025,-212.351"/>
<polygon fill="none" stroke="#404040" points="184.923,-212.112 178.891,-208.161 180.219,-201.073 186.251,-205.024 184.923,-212.112"/>
<text text-anchor="middle" x="206" y="-223.5" font-family="Helvetica,sans-Serif" font-size="10.00"> &#45;exits</text>
</g>
</g>
</svg>
