<?xml version="1.0" encoding="UTF-8" standalone="no"?>
<!DOCTYPE svg PUBLIC "-//W3C//DTD SVG 1.1//EN"
 "http://www.w3.org/Graphics/SVG/1.1/DTD/svg11.dtd">
<!-- Generated by graphviz version 2.36.0 (20140111.2315)
 -->
<!-- Title: pkg_commands.Command.hasMessage Pages: 1 -->
<svg width="772pt" height="60pt"
 viewBox="0.00 0.00 772.00 60.00" xmlns="http://www.w3.org/2000/svg" xmlns:xlink="http://www.w3.org/1999/xlink">
<g id="graph0" class="graph" transform="scale(1 1) rotate(0) translate(4 56)">
<title>pkg_commands.Command.hasMessage</title>
<polygon fill="white" stroke="none" points="-4,4 -4,-56 768,-56 768,4 -4,4"/>
<!-- Node1 -->
<g id="node1" class="node"><title>Node1</title>
<polygon fill="#bfbfbf" stroke="black" points="0,-22 0,-52 152,-52 152,-22 0,-22"/>
<text text-anchor="start" x="8" y="-40" font-family="Helvetica,sans-Serif" font-size="10.00">pkg_commands.Command.has</text>
<text text-anchor="middle" x="76" y="-29" font-family="Helvetica,sans-Serif" font-size="10.00">Message</text>
</g>
<!-- Node2 -->
<g id="node2" class="node"><title>Node2</title>
<g id="a_node2"><a xlink:href="classpkg__commands_1_1GoCommand.html#a210afbc5f3ef34d3ad5759d853c8f8c2" target="_top" xlink:title="pkg_commands.GoCommand.go\lRoomNoCheck">
<polygon fill="white" stroke="black" points="188,-22 188,-52 348,-52 348,-22 188,-22"/>
<text text-anchor="start" x="196" y="-40" font-family="Helvetica,sans-Serif" font-size="10.00">pkg_commands.GoCommand.go</text>
<text text-anchor="middle" x="268" y="-29" font-family="Helvetica,sans-Serif" font-size="10.00">RoomNoCheck</text>
</a>
</g>
</g>
<!-- Node1&#45;&gt;Node2 -->
<g id="edge1" class="edge"><title>Node1&#45;&gt;Node2</title>
<path fill="none" stroke="midnightblue" d="M162.345,-37C170.807,-37 179.372,-37 187.769,-37"/>
<polygon fill="midnightblue" stroke="midnightblue" points="162.093,-33.5001 152.093,-37 162.093,-40.5001 162.093,-33.5001"/>
</g>
<!-- Node3 -->
<g id="node3" class="node"><title>Node3</title>
<g id="a_node3"><a xlink:href="classpkg__commands_1_1GoCommand.html#a82e9a64a0fac612f788060a90c83f9b1" target="_top" xlink:title="pkg_commands.GoCommand.execute">
<polygon fill="white" stroke="black" points="580,-27.5 580,-46.5 764,-46.5 764,-27.5 580,-27.5"/>
<text text-anchor="middle" x="672" y="-34.5" font-family="Helvetica,sans-Serif" font-size="10.00">pkg_commands.GoCommand.execute</text>
</a>
</g>
</g>
<!-- Node2&#45;&gt;Node3 -->
<g id="edge2" class="edge"><title>Node2&#45;&gt;Node3</title>
<path fill="none" stroke="midnightblue" d="M358.343,-38.706C367.014,-38.8258 375.676,-38.9276 384,-39 455.108,-39.6183 472.891,-39.5599 544,-39 555.577,-38.9089 567.746,-38.771 579.779,-38.6094"/>
<polygon fill="midnightblue" stroke="midnightblue" points="358.232,-35.2041 348.182,-38.5578 358.13,-42.2033 358.232,-35.2041"/>
</g>
<!-- Node4 -->
<g id="node4" class="node"><title>Node4</title>
<g id="a_node4"><a xlink:href="classpkg__commands_1_1GoCommand.html#acbf1aa81fa5b1aef7cafb8b4e3ace3a9" target="_top" xlink:title="pkg_commands.GoCommand.go\lRoomCheck">
<polygon fill="white" stroke="black" points="384,-0 384,-30 544,-30 544,-0 384,-0"/>
<text text-anchor="start" x="392" y="-18" font-family="Helvetica,sans-Serif" font-size="10.00">pkg_commands.GoCommand.go</text>
<text text-anchor="middle" x="464" y="-7" font-family="Helvetica,sans-Serif" font-size="10.00">RoomCheck</text>
</a>
</g>
</g>
<!-- Node2&#45;&gt;Node4 -->
<g id="edge3" class="edge"><title>Node2&#45;&gt;Node4</title>
<path fill="none" stroke="midnightblue" d="M358.157,-26.8894C366.696,-25.921 375.317,-24.9435 383.752,-23.9869"/>
<polygon fill="midnightblue" stroke="midnightblue" points="357.729,-23.4154 348.187,-28.02 358.518,-30.3709 357.729,-23.4154"/>
</g>
<!-- Node4&#45;&gt;Node3 -->
<g id="edge4" class="edge"><title>Node4&#45;&gt;Node3</title>
<path fill="none" stroke="midnightblue" d="M554,-24.5049C563.233,-25.4909 572.618,-26.4932 581.853,-27.4794"/>
<polygon fill="midnightblue" stroke="midnightblue" points="554.371,-21.0247 544.056,-23.4429 553.628,-27.9851 554.371,-21.0247"/>
</g>
</g>
</svg>
