<?xml version="1.0" encoding="UTF-8" standalone="no"?>
<!DOCTYPE svg PUBLIC "-//W3C//DTD SVG 1.1//EN"
 "http://www.w3.org/Graphics/SVG/1.1/DTD/svg11.dtd">
<!-- Generated by graphviz version 2.36.0 (20140111.2315)
 -->
<!-- Title: pkg_commands.BeamerCommand.charge Pages: 1 -->
<svg width="412pt" height="77pt"
 viewBox="0.00 0.00 412.00 77.00" xmlns="http://www.w3.org/2000/svg" xmlns:xlink="http://www.w3.org/1999/xlink">
<g id="graph0" class="graph" transform="scale(1 1) rotate(0) translate(4 73)">
<title>pkg_commands.BeamerCommand.charge</title>
<polygon fill="white" stroke="none" points="-4,4 -4,-73 408,-73 408,4 -4,4"/>
<!-- Node1 -->
<g id="node1" class="node"><title>Node1</title>
<polygon fill="#bfbfbf" stroke="black" points="0,-27.5 0,-46.5 200,-46.5 200,-27.5 0,-27.5"/>
<text text-anchor="middle" x="100" y="-34.5" font-family="Helvetica,sans-Serif" font-size="10.00">pkg_commands.BeamerCommand.charge</text>
</g>
<!-- Node2 -->
<g id="node2" class="node"><title>Node2</title>
<g id="a_node2"><a xlink:href="classpkg__world_1_1Player.html#a81893b37cd26426863087f353f8be3ab" target="_top" xlink:title="pkg_world.Player.getBeamerRoom">
<polygon fill="white" stroke="black" points="236,-49.5 236,-68.5 404,-68.5 404,-49.5 236,-49.5"/>
<text text-anchor="middle" x="320" y="-56.5" font-family="Helvetica,sans-Serif" font-size="10.00">pkg_world.Player.getBeamerRoom</text>
</a>
</g>
</g>
<!-- Node1&#45;&gt;Node2 -->
<g id="edge1" class="edge"><title>Node1&#45;&gt;Node2</title>
<path fill="none" stroke="midnightblue" d="M195.35,-46.5216C205.448,-47.5406 215.716,-48.5769 225.8,-49.5945"/>
<polygon fill="midnightblue" stroke="midnightblue" points="225.509,-53.0828 235.81,-50.6046 226.212,-46.1182 225.509,-53.0828"/>
</g>
<!-- Node3 -->
<g id="node3" class="node"><title>Node3</title>
<g id="a_node3"><a xlink:href="classpkg__commands_1_1Command.html#ae210ff216fe908b111ba1c988a963d13" target="_top" xlink:title="pkg_commands.Command.set\lMessage">
<polygon fill="white" stroke="black" points="245,-0 245,-30 395,-30 395,-0 245,-0"/>
<text text-anchor="start" x="253" y="-18" font-family="Helvetica,sans-Serif" font-size="10.00">pkg_commands.Command.set</text>
<text text-anchor="middle" x="320" y="-7" font-family="Helvetica,sans-Serif" font-size="10.00">Message</text>
</a>
</g>
</g>
<!-- Node1&#45;&gt;Node3 -->
<g id="edge2" class="edge"><title>Node1&#45;&gt;Node3</title>
<path fill="none" stroke="midnightblue" d="M195.35,-27.4784C208.425,-26.1589 221.787,-24.8105 234.664,-23.511"/>
<polygon fill="midnightblue" stroke="midnightblue" points="235.274,-26.9673 244.872,-22.4808 234.571,-20.0027 235.274,-26.9673"/>
</g>
</g>
</svg>
