<?xml version="1.0" encoding="UTF-8" standalone="no"?>
<!DOCTYPE svg PUBLIC "-//W3C//DTD SVG 1.1//EN"
 "http://www.w3.org/Graphics/SVG/1.1/DTD/svg11.dtd">
<!-- Generated by graphviz version 2.36.0 (20140111.2315)
 -->
<!-- Title: pkg_commands.TestCommand.execute Pages: 1 -->
<svg width="388pt" height="185pt"
 viewBox="0.00 0.00 388.00 185.00" xmlns="http://www.w3.org/2000/svg" xmlns:xlink="http://www.w3.org/1999/xlink">
<g id="graph0" class="graph" transform="scale(1 1) rotate(0) translate(4 181)">
<title>pkg_commands.TestCommand.execute</title>
<polygon fill="white" stroke="none" points="-4,4 -4,-181 384,-181 384,4 -4,4"/>
<!-- Node1 -->
<g id="node1" class="node"><title>Node1</title>
<polygon fill="#bfbfbf" stroke="black" points="0.5,-78.5 0.5,-97.5 191.5,-97.5 191.5,-78.5 0.5,-78.5"/>
<text text-anchor="middle" x="96" y="-85.5" font-family="Helvetica,sans-Serif" font-size="10.00">pkg_commands.TestCommand.execute</text>
</g>
<!-- Node2 -->
<g id="node2" class="node"><title>Node2</title>
<g id="a_node2"><a xlink:href="classpkg__commands_1_1Command.html#ac2a42e2bab264821892daefaf9a18b6c" target="_top" xlink:title="pkg_commands.Command.get\lMessage">
<polygon fill="white" stroke="black" points="229,-147 229,-177 379,-177 379,-147 229,-147"/>
<text text-anchor="start" x="237" y="-165" font-family="Helvetica,sans-Serif" font-size="10.00">pkg_commands.Command.get</text>
<text text-anchor="middle" x="304" y="-154" font-family="Helvetica,sans-Serif" font-size="10.00">Message</text>
</a>
</g>
</g>
<!-- Node1&#45;&gt;Node2 -->
<g id="edge1" class="edge"><title>Node1&#45;&gt;Node2</title>
<path fill="none" stroke="midnightblue" d="M122.015,-97.6641C148.305,-107.748 190.913,-123.888 228,-137 234.26,-139.213 240.832,-141.483 247.375,-143.708"/>
<polygon fill="midnightblue" stroke="midnightblue" points="246.306,-147.041 256.9,-146.925 248.546,-140.409 246.306,-147.041"/>
</g>
<!-- Node3 -->
<g id="node3" class="node"><title>Node3</title>
<g id="a_node3"><a xlink:href="classpkg__commands_1_1Command.html#a41c92d445be73ea9d62320c65efb8434" target="_top" xlink:title="pkg_commands.Command.get\lParameter">
<polygon fill="white" stroke="black" points="229,-98 229,-128 379,-128 379,-98 229,-98"/>
<text text-anchor="start" x="237" y="-116" font-family="Helvetica,sans-Serif" font-size="10.00">pkg_commands.Command.get</text>
<text text-anchor="middle" x="304" y="-105" font-family="Helvetica,sans-Serif" font-size="10.00">Parameter</text>
</a>
</g>
</g>
<!-- Node1&#45;&gt;Node3 -->
<g id="edge2" class="edge"><title>Node1&#45;&gt;Node3</title>
<path fill="none" stroke="midnightblue" d="M175.467,-97.5227C189.558,-99.2327 204.298,-101.022 218.549,-102.751"/>
<polygon fill="midnightblue" stroke="midnightblue" points="218.474,-106.268 228.823,-103.998 219.317,-99.3185 218.474,-106.268"/>
</g>
<!-- Node4 -->
<g id="node4" class="node"><title>Node4</title>
<g id="a_node4"><a xlink:href="classpkg__commands_1_1Command.html#a02af95ab3f1898a66259ab7c177b6998" target="_top" xlink:title="pkg_commands.Command.has\lParameter">
<polygon fill="white" stroke="black" points="228,-49 228,-79 380,-79 380,-49 228,-49"/>
<text text-anchor="start" x="236" y="-67" font-family="Helvetica,sans-Serif" font-size="10.00">pkg_commands.Command.has</text>
<text text-anchor="middle" x="304" y="-56" font-family="Helvetica,sans-Serif" font-size="10.00">Parameter</text>
</a>
</g>
</g>
<!-- Node1&#45;&gt;Node4 -->
<g id="edge3" class="edge"><title>Node1&#45;&gt;Node4</title>
<path fill="none" stroke="midnightblue" d="M178.713,-78.4801C191.476,-76.9931 204.696,-75.4529 217.541,-73.9564"/>
<polygon fill="midnightblue" stroke="midnightblue" points="218.218,-77.4013 227.746,-72.7675 217.408,-70.4483 218.218,-77.4013"/>
</g>
<!-- Node5 -->
<g id="node5" class="node"><title>Node5</title>
<g id="a_node5"><a xlink:href="classpkg__commands_1_1Command.html#ae210ff216fe908b111ba1c988a963d13" target="_top" xlink:title="pkg_commands.Command.set\lMessage">
<polygon fill="white" stroke="black" points="229,-0 229,-30 379,-30 379,-0 229,-0"/>
<text text-anchor="start" x="237" y="-18" font-family="Helvetica,sans-Serif" font-size="10.00">pkg_commands.Command.set</text>
<text text-anchor="middle" x="304" y="-7" font-family="Helvetica,sans-Serif" font-size="10.00">Message</text>
</a>
</g>
</g>
<!-- Node1&#45;&gt;Node5 -->
<g id="edge4" class="edge"><title>Node1&#45;&gt;Node5</title>
<path fill="none" stroke="midnightblue" d="M122.524,-78.395C148.867,-68.5413 191.19,-52.8757 228,-40 234.267,-37.8078 240.844,-35.5514 247.389,-33.3334"/>
<polygon fill="midnightblue" stroke="midnightblue" points="248.558,-36.6329 256.917,-30.1231 246.323,-29.9994 248.558,-36.6329"/>
</g>
</g>
</svg>
