<?xml version="1.0" encoding="UTF-8" standalone="no"?>
<!DOCTYPE svg PUBLIC "-//W3C//DTD SVG 1.1//EN"
 "http://www.w3.org/Graphics/SVG/1.1/DTD/svg11.dtd">
<!-- Generated by graphviz version 2.36.0 (20140111.2315)
 -->
<!-- Title: pkg_commands.GoCommand.execute Pages: 1 -->
<svg width="772pt" height="178pt"
 viewBox="0.00 0.00 772.00 178.00" xmlns="http://www.w3.org/2000/svg" xmlns:xlink="http://www.w3.org/1999/xlink">
<g id="graph0" class="graph" transform="scale(1 1) rotate(0) translate(4 174)">
<title>pkg_commands.GoCommand.execute</title>
<polygon fill="white" stroke="none" points="-4,4 -4,-174 768,-174 768,4 -4,4"/>
<!-- Node1 -->
<g id="node1" class="node"><title>Node1</title>
<polygon fill="#bfbfbf" stroke="black" points="0,-79.5 0,-98.5 184,-98.5 184,-79.5 0,-79.5"/>
<text text-anchor="middle" x="92" y="-86.5" font-family="Helvetica,sans-Serif" font-size="10.00">pkg_commands.GoCommand.execute</text>
</g>
<!-- Node2 -->
<g id="node2" class="node"><title>Node2</title>
<g id="a_node2"><a xlink:href="classpkg__commands_1_1Command.html#a41c92d445be73ea9d62320c65efb8434" target="_top" xlink:title="pkg_commands.Command.get\lParameter">
<polygon fill="white" stroke="black" points="225,-140 225,-170 375,-170 375,-140 225,-140"/>
<text text-anchor="start" x="233" y="-158" font-family="Helvetica,sans-Serif" font-size="10.00">pkg_commands.Command.get</text>
<text text-anchor="middle" x="300" y="-147" font-family="Helvetica,sans-Serif" font-size="10.00">Parameter</text>
</a>
</g>
</g>
<!-- Node1&#45;&gt;Node2 -->
<g id="edge1" class="edge"><title>Node1&#45;&gt;Node2</title>
<path fill="none" stroke="midnightblue" d="M122.954,-98.597C154.124,-108.583 203.682,-124.461 242.287,-136.83"/>
<polygon fill="midnightblue" stroke="midnightblue" points="241.256,-140.175 251.847,-139.893 243.392,-133.509 241.256,-140.175"/>
</g>
<!-- Node3 -->
<g id="node3" class="node"><title>Node3</title>
<g id="a_node3"><a xlink:href="classpkg__commands_1_1GoCommand.html#acbf1aa81fa5b1aef7cafb8b4e3ace3a9" target="_top" xlink:title="pkg_commands.GoCommand.go\lRoomCheck">
<polygon fill="white" stroke="black" points="220,-52 220,-82 380,-82 380,-52 220,-52"/>
<text text-anchor="start" x="228" y="-70" font-family="Helvetica,sans-Serif" font-size="10.00">pkg_commands.GoCommand.go</text>
<text text-anchor="middle" x="300" y="-59" font-family="Helvetica,sans-Serif" font-size="10.00">RoomCheck</text>
</a>
</g>
</g>
<!-- Node1&#45;&gt;Node3 -->
<g id="edge2" class="edge"><title>Node1&#45;&gt;Node3</title>
<path fill="none" stroke="midnightblue" d="M182.156,-79.4784C191.242,-78.5081 200.474,-77.5222 209.563,-76.5516"/>
<polygon fill="midnightblue" stroke="midnightblue" points="210.176,-80.0061 219.747,-75.4639 209.432,-73.0457 210.176,-80.0061"/>
</g>
<!-- Node5 -->
<g id="node5" class="node"><title>Node5</title>
<g id="a_node5"><a xlink:href="classpkg__commands_1_1Command.html#ae210ff216fe908b111ba1c988a963d13" target="_top" xlink:title="pkg_commands.Command.set\lMessage">
<polygon fill="white" stroke="black" points="613,-98 613,-128 763,-128 763,-98 613,-98"/>
<text text-anchor="start" x="621" y="-116" font-family="Helvetica,sans-Serif" font-size="10.00">pkg_commands.Command.set</text>
<text text-anchor="middle" x="688" y="-105" font-family="Helvetica,sans-Serif" font-size="10.00">Message</text>
</a>
</g>
</g>
<!-- Node1&#45;&gt;Node5 -->
<g id="edge8" class="edge"><title>Node1&#45;&gt;Node5</title>
<path fill="none" stroke="midnightblue" d="M184.186,-92.6843C298.192,-97.2906 491.795,-105.113 602.554,-109.588"/>
<polygon fill="midnightblue" stroke="midnightblue" points="602.547,-113.091 612.68,-109.997 602.83,-106.096 602.547,-113.091"/>
</g>
<!-- Node8 -->
<g id="node8" class="node"><title>Node8</title>
<g id="a_node8"><a xlink:href="classpkg__commands_1_1Command.html#a02af95ab3f1898a66259ab7c177b6998" target="_top" xlink:title="pkg_commands.Command.has\lParameter">
<polygon fill="white" stroke="black" points="224,-3 224,-33 376,-33 376,-3 224,-3"/>
<text text-anchor="start" x="232" y="-21" font-family="Helvetica,sans-Serif" font-size="10.00">pkg_commands.Command.has</text>
<text text-anchor="middle" x="300" y="-10" font-family="Helvetica,sans-Serif" font-size="10.00">Parameter</text>
</a>
</g>
</g>
<!-- Node1&#45;&gt;Node8 -->
<g id="edge7" class="edge"><title>Node1&#45;&gt;Node8</title>
<path fill="none" stroke="midnightblue" d="M118.674,-79.3504C144.25,-69.8206 184.69,-54.9762 220,-43 226.744,-40.7128 233.833,-38.3754 240.882,-36.0927"/>
<polygon fill="midnightblue" stroke="midnightblue" points="241.984,-39.415 250.434,-33.0237 239.842,-32.7506 241.984,-39.415"/>
</g>
<!-- Node4 -->
<g id="node4" class="node"><title>Node4</title>
<g id="a_node4"><a xlink:href="classpkg__commands_1_1GoCommand.html#a210afbc5f3ef34d3ad5759d853c8f8c2" target="_top" xlink:title="pkg_commands.GoCommand.go\lRoomNoCheck">
<polygon fill="white" stroke="black" points="416,-50 416,-80 576,-80 576,-50 416,-50"/>
<text text-anchor="start" x="424" y="-68" font-family="Helvetica,sans-Serif" font-size="10.00">pkg_commands.GoCommand.go</text>
<text text-anchor="middle" x="496" y="-57" font-family="Helvetica,sans-Serif" font-size="10.00">RoomNoCheck</text>
</a>
</g>
</g>
<!-- Node3&#45;&gt;Node4 -->
<g id="edge3" class="edge"><title>Node3&#45;&gt;Node4</title>
<path fill="none" stroke="midnightblue" d="M380.187,-66.1836C388.529,-66.0976 397.054,-66.0098 405.502,-65.9227"/>
<polygon fill="midnightblue" stroke="midnightblue" points="405.788,-69.42 415.752,-65.817 405.716,-62.4204 405.788,-69.42"/>
</g>
<!-- Node4&#45;&gt;Node5 -->
<g id="edge4" class="edge"><title>Node4&#45;&gt;Node5</title>
<path fill="none" stroke="midnightblue" d="M556.596,-80.0558C576.049,-84.9703 597.814,-90.4687 617.905,-95.5443"/>
<polygon fill="midnightblue" stroke="midnightblue" points="617.063,-98.9416 627.616,-97.9976 618.777,-92.1548 617.063,-98.9416"/>
</g>
<!-- Node6 -->
<g id="node6" class="node"><title>Node6</title>
<g id="a_node6"><a xlink:href="classpkg__commands_1_1Command.html#ae46bb048d0fa705a5037a5204b530da2" target="_top" xlink:title="pkg_commands.Command.has\lMessage">
<polygon fill="white" stroke="black" points="612,-49 612,-79 764,-79 764,-49 612,-49"/>
<text text-anchor="start" x="620" y="-67" font-family="Helvetica,sans-Serif" font-size="10.00">pkg_commands.Command.has</text>
<text text-anchor="middle" x="688" y="-56" font-family="Helvetica,sans-Serif" font-size="10.00">Message</text>
</a>
</g>
</g>
<!-- Node4&#45;&gt;Node6 -->
<g id="edge5" class="edge"><title>Node4&#45;&gt;Node6</title>
<path fill="none" stroke="midnightblue" d="M576.201,-64.5832C584.599,-64.539 593.165,-64.4939 601.629,-64.4493"/>
<polygon fill="midnightblue" stroke="midnightblue" points="601.902,-67.948 611.884,-64.3953 601.865,-60.9481 601.902,-67.948"/>
</g>
<!-- Node7 -->
<g id="node7" class="node"><title>Node7</title>
<g id="a_node7"><a xlink:href="classpkg__commands_1_1Command.html#ac2a42e2bab264821892daefaf9a18b6c" target="_top" xlink:title="pkg_commands.Command.get\lMessage">
<polygon fill="white" stroke="black" points="613,-0 613,-30 763,-30 763,-0 613,-0"/>
<text text-anchor="start" x="621" y="-18" font-family="Helvetica,sans-Serif" font-size="10.00">pkg_commands.Command.get</text>
<text text-anchor="middle" x="688" y="-7" font-family="Helvetica,sans-Serif" font-size="10.00">Message</text>
</a>
</g>
</g>
<!-- Node4&#45;&gt;Node7 -->
<g id="edge6" class="edge"><title>Node4&#45;&gt;Node7</title>
<path fill="none" stroke="midnightblue" d="M554.006,-49.9984C574.765,-44.5354 598.422,-38.3099 619.971,-32.6391"/>
<polygon fill="midnightblue" stroke="midnightblue" points="620.926,-36.0072 629.706,-30.0774 619.144,-29.2376 620.926,-36.0072"/>
</g>
</g>
</svg>
