<?xml version="1.0" encoding="UTF-8" standalone="no"?>
<!DOCTYPE svg PUBLIC "-//W3C//DTD SVG 1.1//EN"
 "http://www.w3.org/Graphics/SVG/1.1/DTD/svg11.dtd">
<!-- Generated by graphviz version 2.36.0 (20140111.2315)
 -->
<!-- Title: pkg_commands.GoCommand Pages: 1 -->
<svg width="349pt" height="376pt"
 viewBox="0.00 0.00 349.00 376.00" xmlns="http://www.w3.org/2000/svg" xmlns:xlink="http://www.w3.org/1999/xlink">
<g id="graph0" class="graph" transform="scale(1 1) rotate(0) translate(4 372)">
<title>pkg_commands.GoCommand</title>
<polygon fill="white" stroke="none" points="-4,4 -4,-372 345,-372 345,4 -4,4"/>
<!-- Node1 -->
<g id="node1" class="node"><title>Node1</title>
<polygon fill="#bfbfbf" stroke="black" points="95,-117 95,-207 241,-207 241,-117 95,-117"/>
<text text-anchor="middle" x="168" y="-195" font-family="Helvetica,sans-Serif" font-size="10.00">pkg_commands.GoCommand</text>
<polyline fill="none" stroke="black" points="95,-188 241,-188 "/>
<text text-anchor="middle" x="168" y="-176" font-family="Helvetica,sans-Serif" font-size="10.00"> </text>
<polyline fill="none" stroke="black" points="95,-169 241,-169 "/>
<text text-anchor="start" x="103" y="-157" font-family="Helvetica,sans-Serif" font-size="10.00">+ GoCommand()</text>
<text text-anchor="start" x="103" y="-146" font-family="Helvetica,sans-Serif" font-size="10.00">+ execute()</text>
<text text-anchor="start" x="103" y="-135" font-family="Helvetica,sans-Serif" font-size="10.00"># goRoomCheck()</text>
<text text-anchor="start" x="103" y="-124" font-family="Helvetica,sans-Serif" font-size="10.00"># goRoomNoCheck()</text>
</g>
<!-- Node3 -->
<g id="node3" class="node"><title>Node3</title>
<g id="a_node3"><a xlink:href="classpkg__commands_1_1BackCommand.html" target="_top" xlink:title="{pkg_commands.BackCommand\n||+ BackCommand()\l+ execute()\l}">
<polygon fill="white" stroke="black" points="0,-6 0,-74 156,-74 156,-6 0,-6"/>
<text text-anchor="middle" x="78" y="-62" font-family="Helvetica,sans-Serif" font-size="10.00">pkg_commands.BackCommand</text>
<polyline fill="none" stroke="black" points="0,-55 156,-55 "/>
<text text-anchor="middle" x="78" y="-43" font-family="Helvetica,sans-Serif" font-size="10.00"> </text>
<polyline fill="none" stroke="black" points="0,-36 156,-36 "/>
<text text-anchor="start" x="8" y="-24" font-family="Helvetica,sans-Serif" font-size="10.00">+ BackCommand()</text>
<text text-anchor="start" x="8" y="-13" font-family="Helvetica,sans-Serif" font-size="10.00">+ execute()</text>
</a>
</g>
</g>
<!-- Node1&#45;&gt;Node3 -->
<g id="edge2" class="edge"><title>Node1&#45;&gt;Node3</title>
<path fill="none" stroke="midnightblue" d="M128.931,-108.909C120.071,-97.0946 110.898,-84.8644 102.82,-74.0933"/>
<polygon fill="none" stroke="midnightblue" points="126.198,-111.098 134.998,-116.998 131.798,-106.898 126.198,-111.098"/>
</g>
<!-- Node4 -->
<g id="node4" class="node"><title>Node4</title>
<g id="a_node4"><a xlink:href="classpkg__commands_1_1BeamerCommand.html" target="_top" xlink:title="{pkg_commands.BeamerCommand\n||+ BeamerCommand()\l+ execute()\l+ charge()\l}">
<polygon fill="white" stroke="black" points="174.5,-0.5 174.5,-79.5 341.5,-79.5 341.5,-0.5 174.5,-0.5"/>
<text text-anchor="middle" x="258" y="-67.5" font-family="Helvetica,sans-Serif" font-size="10.00">pkg_commands.BeamerCommand</text>
<polyline fill="none" stroke="black" points="174.5,-60.5 341.5,-60.5 "/>
<text text-anchor="middle" x="258" y="-48.5" font-family="Helvetica,sans-Serif" font-size="10.00"> </text>
<polyline fill="none" stroke="black" points="174.5,-41.5 341.5,-41.5 "/>
<text text-anchor="start" x="182.5" y="-29.5" font-family="Helvetica,sans-Serif" font-size="10.00">+ BeamerCommand()</text>
<text text-anchor="start" x="182.5" y="-18.5" font-family="Helvetica,sans-Serif" font-size="10.00">+ execute()</text>
<text text-anchor="start" x="182.5" y="-7.5" font-family="Helvetica,sans-Serif" font-size="10.00">+ charge()</text>
</a>
</g>
</g>
<!-- Node1&#45;&gt;Node4 -->
<g id="edge3" class="edge"><title>Node1&#45;&gt;Node4</title>
<path fill="none" stroke="midnightblue" d="M207.078,-108.896C214.392,-99.1434 221.919,-89.1079 228.867,-79.844"/>
<polygon fill="none" stroke="midnightblue" points="204.202,-106.898 201.002,-116.998 209.802,-111.098 204.202,-106.898"/>
</g>
<!-- Node2 -->
<g id="node2" class="node"><title>Node2</title>
<g id="a_node2"><a xlink:href="classpkg__commands_1_1Command.html" target="_top" xlink:title="{pkg_commands.Command\n||+ getParameter()\l+ setParameter()\l+ hasParameter()\l+ getMessage()\l+ hasMessage()\l+ execute()\l# setMessage()\l}">
<polygon fill="white" stroke="black" points="101,-244.5 101,-367.5 235,-367.5 235,-244.5 101,-244.5"/>
<text text-anchor="middle" x="168" y="-355.5" font-family="Helvetica,sans-Serif" font-size="10.00">pkg_commands.Command</text>
<polyline fill="none" stroke="black" points="101,-348.5 235,-348.5 "/>
<text text-anchor="middle" x="168" y="-336.5" font-family="Helvetica,sans-Serif" font-size="10.00"> </text>
<polyline fill="none" stroke="black" points="101,-329.5 235,-329.5 "/>
<text text-anchor="start" x="109" y="-317.5" font-family="Helvetica,sans-Serif" font-size="10.00">+ getParameter()</text>
<text text-anchor="start" x="109" y="-306.5" font-family="Helvetica,sans-Serif" font-size="10.00">+ setParameter()</text>
<text text-anchor="start" x="109" y="-295.5" font-family="Helvetica,sans-Serif" font-size="10.00">+ hasParameter()</text>
<text text-anchor="start" x="109" y="-284.5" font-family="Helvetica,sans-Serif" font-size="10.00">+ getMessage()</text>
<text text-anchor="start" x="109" y="-273.5" font-family="Helvetica,sans-Serif" font-size="10.00">+ hasMessage()</text>
<text text-anchor="start" x="109" y="-262.5" font-family="Helvetica,sans-Serif" font-size="10.00">+ execute()</text>
<text text-anchor="start" x="109" y="-251.5" font-family="Helvetica,sans-Serif" font-size="10.00"># setMessage()</text>
</a>
</g>
</g>
<!-- Node2&#45;&gt;Node1 -->
<g id="edge1" class="edge"><title>Node2&#45;&gt;Node1</title>
<path fill="none" stroke="midnightblue" d="M168,-234.333C168,-225.055 168,-215.77 168,-207.11"/>
<polygon fill="none" stroke="midnightblue" points="164.5,-234.367 168,-244.367 171.5,-234.367 164.5,-234.367"/>
</g>
</g>
</svg>
