<?xml version="1.0" encoding="UTF-8" standalone="no"?>
<!DOCTYPE svg PUBLIC "-//W3C//DTD SVG 1.1//EN"
 "http://www.w3.org/Graphics/SVG/1.1/DTD/svg11.dtd">
<!-- Generated by graphviz version 2.36.0 (20140111.2315)
 -->
<!-- Title: UnauthorizedException Pages: 1 -->
<svg width="140pt" height="160pt"
 viewBox="0.00 0.00 140.00 160.00" xmlns="http://www.w3.org/2000/svg" xmlns:xlink="http://www.w3.org/1999/xlink">
<g id="graph0" class="graph" transform="scale(1 1) rotate(0) translate(4 156)">
<title>UnauthorizedException</title>
<polygon fill="white" stroke="none" points="-4,4 -4,-156 136,-156 136,4 -4,4"/>
<!-- Node1 -->
<g id="node1" class="node"><title>Node1</title>
<polygon fill="#bfbfbf" stroke="black" points="-0.5,-0.5 -0.5,-57.5 132.5,-57.5 132.5,-0.5 -0.5,-0.5"/>
<text text-anchor="middle" x="66" y="-45.5" font-family="Helvetica,sans-Serif" font-size="10.00">UnauthorizedException</text>
<polyline fill="none" stroke="black" points="-0.5,-38.5 132.5,-38.5 "/>
<text text-anchor="middle" x="66" y="-26.5" font-family="Helvetica,sans-Serif" font-size="10.00"> </text>
<polyline fill="none" stroke="black" points="-0.5,-19.5 132.5,-19.5 "/>
<text text-anchor="start" x="7.5" y="-7.5" font-family="Helvetica,sans-Serif" font-size="10.00">+ UnauthorizedException()</text>
</g>
<!-- Node2 -->
<g id="node2" class="node"><title>Node2</title>
<polygon fill="white" stroke="#bfbfbf" points="36,-94.5 36,-151.5 96,-151.5 96,-94.5 36,-94.5"/>
<text text-anchor="middle" x="66" y="-139.5" font-family="Helvetica,sans-Serif" font-size="10.00">Exception</text>
<polyline fill="none" stroke="#bfbfbf" points="36,-132.5 96,-132.5 "/>
<text text-anchor="middle" x="66" y="-120.5" font-family="Helvetica,sans-Serif" font-size="10.00"> </text>
<polyline fill="none" stroke="#bfbfbf" points="36,-113.5 96,-113.5 "/>
<text text-anchor="middle" x="66" y="-101.5" font-family="Helvetica,sans-Serif" font-size="10.00"> </text>
</g>
<!-- Node2&#45;&gt;Node1 -->
<g id="edge1" class="edge"><title>Node2&#45;&gt;Node1</title>
<path fill="none" stroke="midnightblue" d="M66,-84.2092C66,-75.2929 66,-65.9513 66,-57.5836"/>
<polygon fill="none" stroke="midnightblue" points="62.5001,-84.3969 66,-94.397 69.5001,-84.397 62.5001,-84.3969"/>
</g>
</g>
</svg>
