<?xml version="1.0" encoding="UTF-8" standalone="no"?>
<!DOCTYPE svg PUBLIC "-//W3C//DTD SVG 1.1//EN"
 "http://www.w3.org/Graphics/SVG/1.1/DTD/svg11.dtd">
<!-- Generated by graphviz version 2.36.0 (20140111.2315)
 -->
<!-- Title: GameEngine.processCommand Pages: 1 -->
<svg width="368pt" height="66pt"
 viewBox="0.00 0.00 368.00 66.00" xmlns="http://www.w3.org/2000/svg" xmlns:xlink="http://www.w3.org/1999/xlink">
<g id="graph0" class="graph" transform="scale(1 1) rotate(0) translate(4 62)">
<title>GameEngine.processCommand</title>
<polygon fill="white" stroke="none" points="-4,4 -4,-62 364,-62 364,4 -4,4"/>
<!-- Node1 -->
<g id="node1" class="node"><title>Node1</title>
<polygon fill="#bfbfbf" stroke="black" points="0.5,-19.5 0.5,-38.5 155.5,-38.5 155.5,-19.5 0.5,-19.5"/>
<text text-anchor="middle" x="78" y="-26.5" font-family="Helvetica,sans-Serif" font-size="10.00">GameEngine.processCommand</text>
</g>
<!-- Node2 -->
<g id="node2" class="node"><title>Node2</title>
<g id="a_node2"><a xlink:href="classpkg__world_1_1Player.html#a5ff0ede152d97c0c9cf6603c9a422a77" target="_top" xlink:title="pkg_world.Player.getCurrentRoom">
<polygon fill="white" stroke="black" points="192.5,-38.5 192.5,-57.5 359.5,-57.5 359.5,-38.5 192.5,-38.5"/>
<text text-anchor="middle" x="276" y="-45.5" font-family="Helvetica,sans-Serif" font-size="10.00">pkg_world.Player.getCurrentRoom</text>
</a>
</g>
</g>
<!-- Node1&#45;&gt;Node2 -->
<g id="edge1" class="edge"><title>Node1&#45;&gt;Node2</title>
<path fill="none" stroke="midnightblue" d="M155.621,-36.4275C164.358,-37.2745 173.333,-38.1445 182.25,-39.009"/>
<polygon fill="midnightblue" stroke="midnightblue" points="181.987,-42.4997 192.278,-39.981 182.662,-35.5324 181.987,-42.4997"/>
</g>
<!-- Node3 -->
<g id="node3" class="node"><title>Node3</title>
<g id="a_node3"><a xlink:href="classUserInterface.html#a79f606b4b1f5d1523e50eea00039ed94" target="_top" xlink:title="UserInterface.println">
<polygon fill="white" stroke="black" points="223.5,-0.5 223.5,-19.5 328.5,-19.5 328.5,-0.5 223.5,-0.5"/>
<text text-anchor="middle" x="276" y="-7.5" font-family="Helvetica,sans-Serif" font-size="10.00">UserInterface.println</text>
</a>
</g>
</g>
<!-- Node1&#45;&gt;Node3 -->
<g id="edge2" class="edge"><title>Node1&#45;&gt;Node3</title>
<path fill="none" stroke="midnightblue" d="M155.621,-21.5725C174.647,-19.7281 194.804,-17.7741 213.029,-16.0074"/>
<polygon fill="midnightblue" stroke="midnightblue" points="213.608,-19.4678 223.223,-15.0192 212.932,-12.5004 213.608,-19.4678"/>
</g>
</g>
</svg>
