<?xml version="1.0" encoding="UTF-8" standalone="no"?>
<!DOCTYPE svg PUBLIC "-//W3C//DTD SVG 1.1//EN"
 "http://www.w3.org/Graphics/SVG/1.1/DTD/svg11.dtd">
<!-- Generated by graphviz version 2.36.0 (20140111.2315)
 -->
<!-- Title: pkg_commands.TestCommand Pages: 1 -->
<svg width="160pt" height="272pt"
 viewBox="0.00 0.00 160.00 272.00" xmlns="http://www.w3.org/2000/svg" xmlns:xlink="http://www.w3.org/1999/xlink">
<g id="graph0" class="graph" transform="scale(1 1) rotate(0) translate(4 268)">
<title>pkg_commands.TestCommand</title>
<polygon fill="white" stroke="none" points="-4,4 -4,-268 156,-268 156,4 -4,4"/>
<!-- Node1 -->
<g id="node1" class="node"><title>Node1</title>
<polygon fill="#bfbfbf" stroke="black" points="-0.5,-1 -0.5,-69 152.5,-69 152.5,-1 -0.5,-1"/>
<text text-anchor="middle" x="76" y="-57" font-family="Helvetica,sans-Serif" font-size="10.00">pkg_commands.TestCommand</text>
<polyline fill="none" stroke="black" points="-0.5,-50 152.5,-50 "/>
<text text-anchor="middle" x="76" y="-38" font-family="Helvetica,sans-Serif" font-size="10.00"> </text>
<polyline fill="none" stroke="black" points="-0.5,-31 152.5,-31 "/>
<text text-anchor="start" x="7.5" y="-19" font-family="Helvetica,sans-Serif" font-size="10.00">+ TestCommand()</text>
<text text-anchor="start" x="7.5" y="-8" font-family="Helvetica,sans-Serif" font-size="10.00">+ execute()</text>
</g>
<!-- Node2 -->
<g id="node2" class="node"><title>Node2</title>
<g id="a_node2"><a xlink:href="classpkg__commands_1_1Command.html" target="_top" xlink:title="Class used to handle a command of one or two words. ">
<polygon fill="white" stroke="black" points="9,-107 9,-263 143,-263 143,-107 9,-107"/>
<text text-anchor="middle" x="76" y="-251" font-family="Helvetica,sans-Serif" font-size="10.00">pkg_commands.Command</text>
<polyline fill="none" stroke="black" points="9,-244 143,-244 "/>
<text text-anchor="middle" x="76" y="-232" font-family="Helvetica,sans-Serif" font-size="10.00"> </text>
<polyline fill="none" stroke="black" points="9,-225 143,-225 "/>
<text text-anchor="start" x="17" y="-213" font-family="Helvetica,sans-Serif" font-size="10.00">+ getParameter()</text>
<text text-anchor="start" x="17" y="-202" font-family="Helvetica,sans-Serif" font-size="10.00">+ getSecondParameter()</text>
<text text-anchor="start" x="17" y="-191" font-family="Helvetica,sans-Serif" font-size="10.00">+ setParameter()</text>
<text text-anchor="start" x="17" y="-180" font-family="Helvetica,sans-Serif" font-size="10.00">+ setSecondParameter()</text>
<text text-anchor="start" x="17" y="-169" font-family="Helvetica,sans-Serif" font-size="10.00">+ hasParameter()</text>
<text text-anchor="start" x="17" y="-158" font-family="Helvetica,sans-Serif" font-size="10.00">+ hasSecondParameter()</text>
<text text-anchor="start" x="17" y="-147" font-family="Helvetica,sans-Serif" font-size="10.00">+ getMessage()</text>
<text text-anchor="start" x="17" y="-136" font-family="Helvetica,sans-Serif" font-size="10.00">+ hasMessage()</text>
<text text-anchor="start" x="17" y="-125" font-family="Helvetica,sans-Serif" font-size="10.00">+ execute()</text>
<text text-anchor="start" x="17" y="-114" font-family="Helvetica,sans-Serif" font-size="10.00"># setMessage()</text>
</a>
</g>
</g>
<!-- Node2&#45;&gt;Node1 -->
<g id="edge1" class="edge"><title>Node2&#45;&gt;Node1</title>
<path fill="none" stroke="midnightblue" d="M76,-96.7001C76,-86.9319 76,-77.4833 76,-69.0658"/>
<polygon fill="none" stroke="midnightblue" points="72.5001,-96.9656 76,-106.966 79.5001,-96.9656 72.5001,-96.9656"/>
</g>
</g>
</svg>
