<?xml version="1.0" encoding="UTF-8" standalone="no"?>
<!DOCTYPE svg PUBLIC "-//W3C//DTD SVG 1.1//EN"
 "http://www.w3.org/Graphics/SVG/1.1/DTD/svg11.dtd">
<!-- Generated by graphviz version 2.36.0 (20140111.2315)
 -->
<!-- Title: pkg_commands.CreditsCommand Pages: 1 -->
<svg width="172pt" height="238pt"
 viewBox="0.00 0.00 172.00 238.00" xmlns="http://www.w3.org/2000/svg" xmlns:xlink="http://www.w3.org/1999/xlink">
<g id="graph0" class="graph" transform="scale(1 1) rotate(0) translate(4 234)">
<title>pkg_commands.CreditsCommand</title>
<polygon fill="white" stroke="none" points="-4,4 -4,-234 168,-234 168,4 -4,4"/>
<!-- Node1 -->
<g id="node1" class="node"><title>Node1</title>
<polygon fill="#bfbfbf" stroke="black" points="-0.5,-1 -0.5,-69 164.5,-69 164.5,-1 -0.5,-1"/>
<text text-anchor="middle" x="82" y="-57" font-family="Helvetica,sans-Serif" font-size="10.00">pkg_commands.CreditsCommand</text>
<polyline fill="none" stroke="black" points="-0.5,-50 164.5,-50 "/>
<text text-anchor="middle" x="82" y="-38" font-family="Helvetica,sans-Serif" font-size="10.00"> </text>
<polyline fill="none" stroke="black" points="-0.5,-31 164.5,-31 "/>
<text text-anchor="start" x="7.5" y="-19" font-family="Helvetica,sans-Serif" font-size="10.00">+ CreditsCommand()</text>
<text text-anchor="start" x="7.5" y="-8" font-family="Helvetica,sans-Serif" font-size="10.00">+ execute()</text>
</g>
<!-- Node2 -->
<g id="node2" class="node"><title>Node2</title>
<g id="a_node2"><a xlink:href="classpkg__commands_1_1Command.html" target="_top" xlink:title="{pkg_commands.Command\n||+ getParameter()\l+ setParameter()\l+ hasParameter()\l+ getMessage()\l+ hasMessage()\l+ execute()\l# setMessage()\l}">
<polygon fill="white" stroke="black" points="15,-106.5 15,-229.5 149,-229.5 149,-106.5 15,-106.5"/>
<text text-anchor="middle" x="82" y="-217.5" font-family="Helvetica,sans-Serif" font-size="10.00">pkg_commands.Command</text>
<polyline fill="none" stroke="black" points="15,-210.5 149,-210.5 "/>
<text text-anchor="middle" x="82" y="-198.5" font-family="Helvetica,sans-Serif" font-size="10.00"> </text>
<polyline fill="none" stroke="black" points="15,-191.5 149,-191.5 "/>
<text text-anchor="start" x="23" y="-179.5" font-family="Helvetica,sans-Serif" font-size="10.00">+ getParameter()</text>
<text text-anchor="start" x="23" y="-168.5" font-family="Helvetica,sans-Serif" font-size="10.00">+ setParameter()</text>
<text text-anchor="start" x="23" y="-157.5" font-family="Helvetica,sans-Serif" font-size="10.00">+ hasParameter()</text>
<text text-anchor="start" x="23" y="-146.5" font-family="Helvetica,sans-Serif" font-size="10.00">+ getMessage()</text>
<text text-anchor="start" x="23" y="-135.5" font-family="Helvetica,sans-Serif" font-size="10.00">+ hasMessage()</text>
<text text-anchor="start" x="23" y="-124.5" font-family="Helvetica,sans-Serif" font-size="10.00">+ execute()</text>
<text text-anchor="start" x="23" y="-113.5" font-family="Helvetica,sans-Serif" font-size="10.00"># setMessage()</text>
</a>
</g>
</g>
<!-- Node2&#45;&gt;Node1 -->
<g id="edge1" class="edge"><title>Node2&#45;&gt;Node1</title>
<path fill="none" stroke="midnightblue" d="M82,-96.2108C82,-86.7613 82,-77.4595 82,-69.0991"/>
<polygon fill="none" stroke="midnightblue" points="78.5001,-96.4849 82,-106.485 85.5001,-96.485 78.5001,-96.4849"/>
</g>
</g>
</svg>
