<?xml version="1.0" encoding="UTF-8" standalone="no"?>
<!DOCTYPE svg PUBLIC "-//W3C//DTD SVG 1.1//EN"
 "http://www.w3.org/Graphics/SVG/1.1/DTD/svg11.dtd">
<!-- Generated by graphviz version 2.36.0 (20140111.2315)
 -->
<!-- Title: GameEngine.processCommand Pages: 1 -->
<svg width="320pt" height="66pt"
 viewBox="0.00 0.00 320.00 66.00" xmlns="http://www.w3.org/2000/svg" xmlns:xlink="http://www.w3.org/1999/xlink">
<g id="graph0" class="graph" transform="scale(1 1) rotate(0) translate(4 62)">
<title>GameEngine.processCommand</title>
<polygon fill="white" stroke="none" points="-4,4 -4,-62 316,-62 316,4 -4,4"/>
<!-- Node1 -->
<g id="node1" class="node"><title>Node1</title>
<polygon fill="#bfbfbf" stroke="black" points="0.5,-19.5 0.5,-38.5 155.5,-38.5 155.5,-19.5 0.5,-19.5"/>
<text text-anchor="middle" x="78" y="-26.5" font-family="Helvetica,sans-Serif" font-size="10.00">GameEngine.processCommand</text>
</g>
<!-- Node2 -->
<g id="node2" class="node"><title>Node2</title>
<g id="a_node2"><a xlink:href="classPlayer.html#a3a3107df50fc4e35e8c0f46c3f776ce6" target="_top" xlink:title="Player.getCurrentRoom">
<polygon fill="white" stroke="black" points="192.5,-38.5 192.5,-57.5 311.5,-57.5 311.5,-38.5 192.5,-38.5"/>
<text text-anchor="middle" x="252" y="-45.5" font-family="Helvetica,sans-Serif" font-size="10.00">Player.getCurrentRoom</text>
</a>
</g>
</g>
<!-- Node1&#45;&gt;Node2 -->
<g id="edge1" class="edge"><title>Node1&#45;&gt;Node2</title>
<path fill="none" stroke="midnightblue" d="M155.694,-37.472C164.515,-38.4464 173.468,-39.4355 182.177,-40.3974"/>
<polygon fill="midnightblue" stroke="midnightblue" points="181.941,-43.8926 192.264,-41.5118 182.709,-36.9349 181.941,-43.8926"/>
</g>
<!-- Node3 -->
<g id="node3" class="node"><title>Node3</title>
<g id="a_node3"><a xlink:href="classUserInterface.html#a79f606b4b1f5d1523e50eea00039ed94" target="_top" xlink:title="UserInterface.println">
<polygon fill="white" stroke="black" points="199.5,-0.5 199.5,-19.5 304.5,-19.5 304.5,-0.5 199.5,-0.5"/>
<text text-anchor="middle" x="252" y="-7.5" font-family="Helvetica,sans-Serif" font-size="10.00">UserInterface.println</text>
</a>
</g>
</g>
<!-- Node1&#45;&gt;Node3 -->
<g id="edge2" class="edge"><title>Node1&#45;&gt;Node3</title>
<path fill="none" stroke="midnightblue" d="M155.694,-20.528C166.827,-19.2981 178.172,-18.045 188.968,-16.8524"/>
<polygon fill="midnightblue" stroke="midnightblue" points="189.571,-20.3071 199.126,-15.7302 188.803,-13.3494 189.571,-20.3071"/>
</g>
</g>
</svg>
