<?xml version="1.0" encoding="UTF-8" standalone="no"?>
<!DOCTYPE svg PUBLIC "-//W3C//DTD SVG 1.1//EN"
 "http://www.w3.org/Graphics/SVG/1.1/DTD/svg11.dtd">
<!-- Generated by graphviz version 2.36.0 (20140111.2315)
 -->
<!-- Title: pkg_world.Player.getBeamerRoom Pages: 1 -->
<svg width="654pt" height="28pt"
 viewBox="0.00 0.00 654.00 28.00" xmlns="http://www.w3.org/2000/svg" xmlns:xlink="http://www.w3.org/1999/xlink">
<g id="graph0" class="graph" transform="scale(1 1) rotate(0) translate(4 24)">
<title>pkg_world.Player.getBeamerRoom</title>
<polygon fill="white" stroke="none" points="-4,4 -4,-24 650,-24 650,4 -4,4"/>
<!-- Node1 -->
<g id="node1" class="node"><title>Node1</title>
<polygon fill="#bfbfbf" stroke="black" points="0,-0.5 0,-19.5 168,-19.5 168,-0.5 0,-0.5"/>
<text text-anchor="middle" x="84" y="-7.5" font-family="Helvetica,sans-Serif" font-size="10.00">pkg_world.Player.getBeamerRoom</text>
</g>
<!-- Node2 -->
<g id="node2" class="node"><title>Node2</title>
<g id="a_node2"><a xlink:href="classpkg__commands_1_1BeamerCommand.html#ae71665296a18d581ad1f714c1078e37b" target="_top" xlink:title="pkg_commands.BeamerCommand.charge">
<polygon fill="white" stroke="black" points="204,-0.5 204,-19.5 404,-19.5 404,-0.5 204,-0.5"/>
<text text-anchor="middle" x="304" y="-7.5" font-family="Helvetica,sans-Serif" font-size="10.00">pkg_commands.BeamerCommand.charge</text>
</a>
</g>
</g>
<!-- Node1&#45;&gt;Node2 -->
<g id="edge1" class="edge"><title>Node1&#45;&gt;Node2</title>
<path fill="none" stroke="midnightblue" d="M178.252,-10C186.688,-10 195.253,-10 203.739,-10"/>
<polygon fill="midnightblue" stroke="midnightblue" points="178.038,-6.5001 168.038,-10 178.038,-13.5001 178.038,-6.5001"/>
</g>
<!-- Node3 -->
<g id="node3" class="node"><title>Node3</title>
<g id="a_node3"><a xlink:href="classpkg__commands_1_1BeamerCommand.html#a139dc852e180cabd8af15cfed37dcf0e" target="_top" xlink:title="pkg_commands.BeamerCommand.execute">
<polygon fill="white" stroke="black" points="440.5,-0.5 440.5,-19.5 645.5,-19.5 645.5,-0.5 440.5,-0.5"/>
<text text-anchor="middle" x="543" y="-7.5" font-family="Helvetica,sans-Serif" font-size="10.00">pkg_commands.BeamerCommand.execute</text>
</a>
</g>
</g>
<!-- Node2&#45;&gt;Node3 -->
<g id="edge2" class="edge"><title>Node2&#45;&gt;Node3</title>
<path fill="none" stroke="midnightblue" d="M414.249,-10C422.899,-10 431.615,-10 440.212,-10"/>
<polygon fill="midnightblue" stroke="midnightblue" points="414.136,-6.5001 404.136,-10 414.136,-13.5001 414.136,-6.5001"/>
</g>
</g>
</svg>
