<?xml version="1.0" encoding="UTF-8" standalone="no"?>
<!DOCTYPE svg PUBLIC "-//W3C//DTD SVG 1.1//EN"
 "http://www.w3.org/Graphics/SVG/1.1/DTD/svg11.dtd">
<!-- Generated by graphviz version 2.36.0 (20140111.2315)
 -->
<!-- Title: CreditsCommand Pages: 1 -->
<svg width="116pt" height="238pt"
 viewBox="0.00 0.00 116.00 238.00" xmlns="http://www.w3.org/2000/svg" xmlns:xlink="http://www.w3.org/1999/xlink">
<g id="graph0" class="graph" transform="scale(1 1) rotate(0) translate(4 234)">
<title>CreditsCommand</title>
<polygon fill="white" stroke="none" points="-4,4 -4,-234 112,-234 112,4 -4,4"/>
<!-- Node1 -->
<g id="node1" class="node"><title>Node1</title>
<polygon fill="#bfbfbf" stroke="black" points="0,-1 0,-69 108,-69 108,-1 0,-1"/>
<text text-anchor="middle" x="54" y="-57" font-family="Helvetica,sans-Serif" font-size="10.00">CreditsCommand</text>
<polyline fill="none" stroke="black" points="0,-50 108,-50 "/>
<text text-anchor="middle" x="54" y="-38" font-family="Helvetica,sans-Serif" font-size="10.00"> </text>
<polyline fill="none" stroke="black" points="0,-31 108,-31 "/>
<text text-anchor="start" x="8" y="-19" font-family="Helvetica,sans-Serif" font-size="10.00">+ CreditsCommand()</text>
<text text-anchor="start" x="8" y="-8" font-family="Helvetica,sans-Serif" font-size="10.00">+ execute()</text>
</g>
<!-- Node2 -->
<g id="node2" class="node"><title>Node2</title>
<polygon fill="white" stroke="#bfbfbf" points="8,-106.5 8,-229.5 100,-229.5 100,-106.5 8,-106.5"/>
<text text-anchor="middle" x="54" y="-217.5" font-family="Helvetica,sans-Serif" font-size="10.00">Command</text>
<polyline fill="none" stroke="#bfbfbf" points="8,-210.5 100,-210.5 "/>
<text text-anchor="middle" x="54" y="-198.5" font-family="Helvetica,sans-Serif" font-size="10.00"> </text>
<polyline fill="none" stroke="#bfbfbf" points="8,-191.5 100,-191.5 "/>
<text text-anchor="start" x="16" y="-179.5" font-family="Helvetica,sans-Serif" font-size="10.00">+ getParameter()</text>
<text text-anchor="start" x="16" y="-168.5" font-family="Helvetica,sans-Serif" font-size="10.00">+ setParameter()</text>
<text text-anchor="start" x="16" y="-157.5" font-family="Helvetica,sans-Serif" font-size="10.00">+ hasParameter()</text>
<text text-anchor="start" x="16" y="-146.5" font-family="Helvetica,sans-Serif" font-size="10.00">+ getMessage()</text>
<text text-anchor="start" x="16" y="-135.5" font-family="Helvetica,sans-Serif" font-size="10.00">+ hasMessage()</text>
<text text-anchor="start" x="16" y="-124.5" font-family="Helvetica,sans-Serif" font-size="10.00">+ execute()</text>
<text text-anchor="start" x="16" y="-113.5" font-family="Helvetica,sans-Serif" font-size="10.00"># setMessage()</text>
</g>
<!-- Node2&#45;&gt;Node1 -->
<g id="edge1" class="edge"><title>Node2&#45;&gt;Node1</title>
<path fill="none" stroke="midnightblue" d="M54,-96.2108C54,-86.7613 54,-77.4595 54,-69.0991"/>
<polygon fill="none" stroke="midnightblue" points="50.5001,-96.4849 54,-106.485 57.5001,-96.485 50.5001,-96.4849"/>
</g>
</g>
</svg>
