<?xml version="1.0" encoding="UTF-8" standalone="no"?>
<!DOCTYPE svg PUBLIC "-//W3C//DTD SVG 1.1//EN"
 "http://www.w3.org/Graphics/SVG/1.1/DTD/svg11.dtd">
<!-- Generated by graphviz version 2.36.0 (20140111.2315)
 -->
<!-- Title: LookCommand Pages: 1 -->
<svg width="104pt" height="238pt"
 viewBox="0.00 0.00 104.00 238.00" xmlns="http://www.w3.org/2000/svg" xmlns:xlink="http://www.w3.org/1999/xlink">
<g id="graph0" class="graph" transform="scale(1 1) rotate(0) translate(4 234)">
<title>LookCommand</title>
<polygon fill="white" stroke="none" points="-4,4 -4,-234 100,-234 100,4 -4,4"/>
<!-- Node1 -->
<g id="node1" class="node"><title>Node1</title>
<polygon fill="#bfbfbf" stroke="black" points="-1,-1 -1,-69 97,-69 97,-1 -1,-1"/>
<text text-anchor="middle" x="48" y="-57" font-family="Helvetica,sans-Serif" font-size="10.00">LookCommand</text>
<polyline fill="none" stroke="black" points="-1,-50 97,-50 "/>
<text text-anchor="middle" x="48" y="-38" font-family="Helvetica,sans-Serif" font-size="10.00"> </text>
<polyline fill="none" stroke="black" points="-1,-31 97,-31 "/>
<text text-anchor="start" x="7" y="-19" font-family="Helvetica,sans-Serif" font-size="10.00">+ LookCommand()</text>
<text text-anchor="start" x="7" y="-8" font-family="Helvetica,sans-Serif" font-size="10.00">+ execute()</text>
</g>
<!-- Node2 -->
<g id="node2" class="node"><title>Node2</title>
<polygon fill="white" stroke="#bfbfbf" points="2,-106.5 2,-229.5 94,-229.5 94,-106.5 2,-106.5"/>
<text text-anchor="middle" x="48" y="-217.5" font-family="Helvetica,sans-Serif" font-size="10.00">Command</text>
<polyline fill="none" stroke="#bfbfbf" points="2,-210.5 94,-210.5 "/>
<text text-anchor="middle" x="48" y="-198.5" font-family="Helvetica,sans-Serif" font-size="10.00"> </text>
<polyline fill="none" stroke="#bfbfbf" points="2,-191.5 94,-191.5 "/>
<text text-anchor="start" x="10" y="-179.5" font-family="Helvetica,sans-Serif" font-size="10.00">+ getParameter()</text>
<text text-anchor="start" x="10" y="-168.5" font-family="Helvetica,sans-Serif" font-size="10.00">+ setParameter()</text>
<text text-anchor="start" x="10" y="-157.5" font-family="Helvetica,sans-Serif" font-size="10.00">+ hasParameter()</text>
<text text-anchor="start" x="10" y="-146.5" font-family="Helvetica,sans-Serif" font-size="10.00">+ getMessage()</text>
<text text-anchor="start" x="10" y="-135.5" font-family="Helvetica,sans-Serif" font-size="10.00">+ hasMessage()</text>
<text text-anchor="start" x="10" y="-124.5" font-family="Helvetica,sans-Serif" font-size="10.00">+ execute()</text>
<text text-anchor="start" x="10" y="-113.5" font-family="Helvetica,sans-Serif" font-size="10.00"># setMessage()</text>
</g>
<!-- Node2&#45;&gt;Node1 -->
<g id="edge1" class="edge"><title>Node2&#45;&gt;Node1</title>
<path fill="none" stroke="midnightblue" d="M48,-96.2108C48,-86.7613 48,-77.4595 48,-69.0991"/>
<polygon fill="none" stroke="midnightblue" points="44.5001,-96.4849 48,-106.485 51.5001,-96.485 44.5001,-96.4849"/>
</g>
</g>
</svg>
