<?xml version="1.0" encoding="UTF-8" standalone="no"?>
<!DOCTYPE svg PUBLIC "-//W3C//DTD SVG 1.1//EN"
 "http://www.w3.org/Graphics/SVG/1.1/DTD/svg11.dtd">
<!-- Generated by graphviz version 2.36.0 (20140111.2315)
 -->
<!-- Title: pkg_commands.Command.setMessage Pages: 1 -->
<svg width="868pt" height="495pt"
 viewBox="0.00 0.00 868.00 495.00" xmlns="http://www.w3.org/2000/svg" xmlns:xlink="http://www.w3.org/1999/xlink">
<g id="graph0" class="graph" transform="scale(1 1) rotate(0) translate(4 491)">
<title>pkg_commands.Command.setMessage</title>
<polygon fill="white" stroke="none" points="-4,4 -4,-491 864,-491 864,4 -4,4"/>
<!-- Node1 -->
<g id="node1" class="node"><title>Node1</title>
<polygon fill="#bfbfbf" stroke="black" points="0,-234 0,-264 150,-264 150,-234 0,-234"/>
<text text-anchor="start" x="8" y="-252" font-family="Helvetica,sans-Serif" font-size="10.00">pkg_commands.Command.set</text>
<text text-anchor="middle" x="75" y="-241" font-family="Helvetica,sans-Serif" font-size="10.00">Message</text>
</g>
<!-- Node2 -->
<g id="node2" class="node"><title>Node2</title>
<g id="a_node2"><a xlink:href="classpkg__commands_1_1BeamerCommand.html#ae71665296a18d581ad1f714c1078e37b" target="_top" xlink:title="pkg_commands.BeamerCommand.charge">
<polygon fill="white" stroke="black" points="192,-467.5 192,-486.5 392,-486.5 392,-467.5 192,-467.5"/>
<text text-anchor="middle" x="292" y="-474.5" font-family="Helvetica,sans-Serif" font-size="10.00">pkg_commands.BeamerCommand.charge</text>
</a>
</g>
</g>
<!-- Node1&#45;&gt;Node2 -->
<g id="edge1" class="edge"><title>Node1&#45;&gt;Node2</title>
<path fill="none" stroke="midnightblue" d="M81.5093,-273.826C92.7864,-318.426 122.937,-411.762 186,-458 191.154,-461.779 196.826,-464.885 202.783,-467.43"/>
<polygon fill="midnightblue" stroke="midnightblue" points="84.9069,-272.985 79.1538,-264.088 78.1032,-274.631 84.9069,-272.985"/>
</g>
<!-- Node4 -->
<g id="node4" class="node"><title>Node4</title>
<g id="a_node4"><a xlink:href="classpkg__commands_1_1CreditsCommand.html#aad2b955c6c8a4c3536e6b937165b7790" target="_top" xlink:title="pkg_commands.CreditsCommand.execute">
<polygon fill="white" stroke="black" points="190.5,-429.5 190.5,-448.5 393.5,-448.5 393.5,-429.5 190.5,-429.5"/>
<text text-anchor="middle" x="292" y="-436.5" font-family="Helvetica,sans-Serif" font-size="10.00">pkg_commands.CreditsCommand.execute</text>
</a>
</g>
</g>
<!-- Node1&#45;&gt;Node4 -->
<g id="edge3" class="edge"><title>Node1&#45;&gt;Node4</title>
<path fill="none" stroke="midnightblue" d="M84.5663,-273.861C99.0609,-311.938 132.211,-384.056 186,-420 191.699,-423.808 197.944,-426.913 204.458,-429.437"/>
<polygon fill="midnightblue" stroke="midnightblue" points="87.7069,-272.26 80.9711,-264.082 81.1369,-274.675 87.7069,-272.26"/>
</g>
<!-- Node5 -->
<g id="node5" class="node"><title>Node5</title>
<g id="a_node5"><a xlink:href="classpkg__commands_1_1InventoryCommand.html#a16ce9e3db461ecb7c4a50d2bdef65022" target="_top" xlink:title="pkg_commands.InventoryCommand.execute">
<polygon fill="white" stroke="black" points="186,-391.5 186,-410.5 398,-410.5 398,-391.5 186,-391.5"/>
<text text-anchor="middle" x="292" y="-398.5" font-family="Helvetica,sans-Serif" font-size="10.00">pkg_commands.InventoryCommand.execute</text>
</a>
</g>
</g>
<!-- Node1&#45;&gt;Node5 -->
<g id="edge4" class="edge"><title>Node1&#45;&gt;Node5</title>
<path fill="none" stroke="midnightblue" d="M88.7766,-273.091C106.354,-303.69 140.999,-355.67 186,-382 192.556,-385.836 199.705,-388.93 207.089,-391.422"/>
<polygon fill="midnightblue" stroke="midnightblue" points="91.814,-271.352 83.8769,-264.334 85.7051,-274.77 91.814,-271.352"/>
</g>
<!-- Node6 -->
<g id="node6" class="node"><title>Node6</title>
<g id="a_node6"><a xlink:href="classpkg__commands_1_1LookCommand.html#af336146fae1e14bf434d85a5acbcdcd7" target="_top" xlink:title="pkg_commands.LookCommand.execute">
<polygon fill="white" stroke="black" points="196,-353.5 196,-372.5 388,-372.5 388,-353.5 196,-353.5"/>
<text text-anchor="middle" x="292" y="-360.5" font-family="Helvetica,sans-Serif" font-size="10.00">pkg_commands.LookCommand.execute</text>
</a>
</g>
</g>
<!-- Node1&#45;&gt;Node6 -->
<g id="edge5" class="edge"><title>Node1&#45;&gt;Node6</title>
<path fill="none" stroke="midnightblue" d="M95.6563,-271.956C115.954,-294.074 149.702,-326.659 186,-344 194.191,-347.913 203.093,-351.024 212.134,-353.497"/>
<polygon fill="midnightblue" stroke="midnightblue" points="98.0925,-269.431 88.807,-264.329 92.8842,-274.108 98.0925,-269.431"/>
</g>
<!-- Node7 -->
<g id="node7" class="node"><title>Node7</title>
<g id="a_node7"><a xlink:href="classpkg__commands_1_1TakeCommand.html#a17789062aaf2ab5747c7eeac118875cd" target="_top" xlink:title="pkg_commands.TakeCommand.execute">
<polygon fill="white" stroke="black" points="195.5,-315.5 195.5,-334.5 388.5,-334.5 388.5,-315.5 195.5,-315.5"/>
<text text-anchor="middle" x="292" y="-322.5" font-family="Helvetica,sans-Serif" font-size="10.00">pkg_commands.TakeCommand.execute</text>
</a>
</g>
</g>
<!-- Node1&#45;&gt;Node7 -->
<g id="edge6" class="edge"><title>Node1&#45;&gt;Node7</title>
<path fill="none" stroke="midnightblue" d="M108.608,-269.196C129.914,-281.547 158.745,-296.709 186,-306 197.31,-309.856 209.586,-312.974 221.623,-315.483"/>
<polygon fill="midnightblue" stroke="midnightblue" points="110.357,-266.163 99.9647,-264.1 106.801,-272.194 110.357,-266.163"/>
</g>
<!-- Node8 -->
<g id="node8" class="node"><title>Node8</title>
<g id="a_node8"><a xlink:href="classpkg__commands_1_1DropCommand.html#a742e37b2d2dd4e111130811ee2f4dd0b" target="_top" xlink:title="pkg_commands.DropCommand.execute">
<polygon fill="white" stroke="black" points="196,-277.5 196,-296.5 388,-296.5 388,-277.5 196,-277.5"/>
<text text-anchor="middle" x="292" y="-284.5" font-family="Helvetica,sans-Serif" font-size="10.00">pkg_commands.DropCommand.execute</text>
</a>
</g>
</g>
<!-- Node1&#45;&gt;Node8 -->
<g id="edge7" class="edge"><title>Node1&#45;&gt;Node8</title>
<path fill="none" stroke="midnightblue" d="M160.447,-263.926C186.233,-268.483 213.875,-273.369 237.055,-277.466"/>
<polygon fill="midnightblue" stroke="midnightblue" points="160.748,-260.425 150.292,-262.131 159.53,-267.318 160.748,-260.425"/>
</g>
<!-- Node9 -->
<g id="node9" class="node"><title>Node9</title>
<g id="a_node9"><a xlink:href="classpkg__commands_1_1TalkCommand.html#a413573388e24a2d442f9814695f7e47c" target="_top" xlink:title="pkg_commands.TalkCommand.execute">
<polygon fill="white" stroke="black" points="197,-239.5 197,-258.5 387,-258.5 387,-239.5 197,-239.5"/>
<text text-anchor="middle" x="292" y="-246.5" font-family="Helvetica,sans-Serif" font-size="10.00">pkg_commands.TalkCommand.execute</text>
</a>
</g>
</g>
<!-- Node1&#45;&gt;Node9 -->
<g id="edge8" class="edge"><title>Node1&#45;&gt;Node9</title>
<path fill="none" stroke="midnightblue" d="M160.293,-249C172.33,-249 184.775,-249 196.984,-249"/>
<polygon fill="midnightblue" stroke="midnightblue" points="160.292,-245.5 150.292,-249 160.292,-252.5 160.292,-245.5"/>
</g>
<!-- Node10 -->
<g id="node10" class="node"><title>Node10</title>
<g id="a_node10"><a xlink:href="classpkg__commands_1_1EatCommand.html#a2a600f09891aa076b3f630293de965f4" target="_top" xlink:title="pkg_commands.EatCommand.execute">
<polygon fill="white" stroke="black" points="199,-201.5 199,-220.5 385,-220.5 385,-201.5 199,-201.5"/>
<text text-anchor="middle" x="292" y="-208.5" font-family="Helvetica,sans-Serif" font-size="10.00">pkg_commands.EatCommand.execute</text>
</a>
</g>
</g>
<!-- Node1&#45;&gt;Node10 -->
<g id="edge9" class="edge"><title>Node1&#45;&gt;Node10</title>
<path fill="none" stroke="midnightblue" d="M160.447,-234.074C186.233,-229.517 213.875,-224.631 237.055,-220.534"/>
<polygon fill="midnightblue" stroke="midnightblue" points="159.53,-230.682 150.292,-235.869 160.748,-237.575 159.53,-230.682"/>
</g>
<!-- Node11 -->
<g id="node11" class="node"><title>Node11</title>
<g id="a_node11"><a xlink:href="classpkg__commands_1_1GiveCommand.html#a3a3cca7fae9b86d8ff85cc166564843d" target="_top" xlink:title="pkg_commands.GiveCommand.execute">
<polygon fill="white" stroke="black" points="196.5,-163.5 196.5,-182.5 387.5,-182.5 387.5,-163.5 196.5,-163.5"/>
<text text-anchor="middle" x="292" y="-170.5" font-family="Helvetica,sans-Serif" font-size="10.00">pkg_commands.GiveCommand.execute</text>
</a>
</g>
</g>
<!-- Node1&#45;&gt;Node11 -->
<g id="edge10" class="edge"><title>Node1&#45;&gt;Node11</title>
<path fill="none" stroke="midnightblue" d="M108.608,-228.804C129.914,-216.453 158.745,-201.291 186,-192 197.31,-188.144 209.586,-185.026 221.623,-182.517"/>
<polygon fill="midnightblue" stroke="midnightblue" points="106.801,-225.806 99.9647,-233.9 110.357,-231.837 106.801,-225.806"/>
</g>
<!-- Node12 -->
<g id="node12" class="node"><title>Node12</title>
<g id="a_node12"><a xlink:href="classpkg__commands_1_1GoCommand.html#a82e9a64a0fac612f788060a90c83f9b1" target="_top" xlink:title="pkg_commands.GoCommand.execute">
<polygon fill="white" stroke="black" points="676,-49.5 676,-68.5 860,-68.5 860,-49.5 676,-49.5"/>
<text text-anchor="middle" x="768" y="-56.5" font-family="Helvetica,sans-Serif" font-size="10.00">pkg_commands.GoCommand.execute</text>
</a>
</g>
</g>
<!-- Node1&#45;&gt;Node12 -->
<g id="edge11" class="edge"><title>Node1&#45;&gt;Node12</title>
<path fill="none" stroke="midnightblue" d="M95.256,-226.283C115.467,-204.059 149.353,-171.128 186,-154 197.798,-148.486 559.293,-91.5024 706.014,-68.5259"/>
<polygon fill="midnightblue" stroke="midnightblue" points="92.4787,-224.14 88.4486,-233.938 97.7095,-228.791 92.4787,-224.14"/>
</g>
<!-- Node13 -->
<g id="node13" class="node"><title>Node13</title>
<g id="a_node13"><a xlink:href="classpkg__commands_1_1TestCommand.html#a1ff07c27a46910d20c2e4569888892ca" target="_top" xlink:title="pkg_commands.TestCommand.execute">
<polygon fill="white" stroke="black" points="196.5,-87.5 196.5,-106.5 387.5,-106.5 387.5,-87.5 196.5,-87.5"/>
<text text-anchor="middle" x="292" y="-94.5" font-family="Helvetica,sans-Serif" font-size="10.00">pkg_commands.TestCommand.execute</text>
</a>
</g>
</g>
<!-- Node1&#45;&gt;Node13 -->
<g id="edge12" class="edge"><title>Node1&#45;&gt;Node13</title>
<path fill="none" stroke="midnightblue" d="M89.9958,-224.825C108.249,-195.55 142.986,-146.948 186,-121 196.568,-114.625 208.665,-109.942 220.802,-106.502"/>
<polygon fill="midnightblue" stroke="midnightblue" points="86.8662,-223.235 84.6589,-233.597 92.8465,-226.873 86.8662,-223.235"/>
</g>
<!-- Node14 -->
<g id="node14" class="node"><title>Node14</title>
<g id="a_node14"><a xlink:href="classpkg__commands_1_1HelpCommand.html#a332d3e57539dfc82f8c539f8b3e24dd6" target="_top" xlink:title="pkg_commands.HelpCommand.execute">
<polygon fill="white" stroke="black" points="196.5,-49.5 196.5,-68.5 387.5,-68.5 387.5,-49.5 196.5,-49.5"/>
<text text-anchor="middle" x="292" y="-56.5" font-family="Helvetica,sans-Serif" font-size="10.00">pkg_commands.HelpCommand.execute</text>
</a>
</g>
</g>
<!-- Node1&#45;&gt;Node14 -->
<g id="edge13" class="edge"><title>Node1&#45;&gt;Node14</title>
<path fill="none" stroke="midnightblue" d="M84.5663,-224.139C99.0609,-186.062 132.211,-113.944 186,-78 191.699,-74.1917 197.944,-71.0874 204.458,-68.563"/>
<polygon fill="midnightblue" stroke="midnightblue" points="81.1369,-223.325 80.9711,-233.918 87.7069,-225.74 81.1369,-223.325"/>
</g>
<!-- Node15 -->
<g id="node15" class="node"><title>Node15</title>
<g id="a_node15"><a xlink:href="classpkg__commands_1_1GoCommand.html#a210afbc5f3ef34d3ad5759d853c8f8c2" target="_top" xlink:title="pkg_commands.GoCommand.go\lRoomNoCheck">
<polygon fill="white" stroke="black" points="212,-0 212,-30 372,-30 372,-0 212,-0"/>
<text text-anchor="start" x="220" y="-18" font-family="Helvetica,sans-Serif" font-size="10.00">pkg_commands.GoCommand.go</text>
<text text-anchor="middle" x="292" y="-7" font-family="Helvetica,sans-Serif" font-size="10.00">RoomNoCheck</text>
</a>
</g>
</g>
<!-- Node1&#45;&gt;Node15 -->
<g id="edge14" class="edge"><title>Node1&#45;&gt;Node15</title>
<path fill="none" stroke="midnightblue" d="M81.9208,-223.906C93.7234,-179.608 124.506,-87.7292 186,-40 193.698,-34.0255 202.6,-29.4466 211.901,-25.9429"/>
<polygon fill="midnightblue" stroke="midnightblue" points="78.4668,-223.286 79.3819,-233.841 85.2488,-225.019 78.4668,-223.286"/>
</g>
<!-- Node3 -->
<g id="node3" class="node"><title>Node3</title>
<g id="a_node3"><a xlink:href="classpkg__commands_1_1BeamerCommand.html#a139dc852e180cabd8af15cfed37dcf0e" target="_top" xlink:title="pkg_commands.BeamerCommand.execute">
<polygon fill="white" stroke="black" points="434.5,-467.5 434.5,-486.5 639.5,-486.5 639.5,-467.5 434.5,-467.5"/>
<text text-anchor="middle" x="537" y="-474.5" font-family="Helvetica,sans-Serif" font-size="10.00">pkg_commands.BeamerCommand.execute</text>
</a>
</g>
</g>
<!-- Node2&#45;&gt;Node3 -->
<g id="edge2" class="edge"><title>Node2&#45;&gt;Node3</title>
<path fill="none" stroke="midnightblue" d="M402.355,-477C413.011,-477 423.794,-477 434.369,-477"/>
<polygon fill="midnightblue" stroke="midnightblue" points="402.188,-473.5 392.188,-477 402.188,-480.5 402.188,-473.5"/>
</g>
<!-- Node15&#45;&gt;Node12 -->
<g id="edge15" class="edge"><title>Node15&#45;&gt;Node12</title>
<path fill="none" stroke="midnightblue" d="M382.202,-31.6882C399.346,-34.4685 417.193,-37.0707 434,-39 515.561,-48.3626 608.896,-53.4888 675.96,-56.1995"/>
<polygon fill="midnightblue" stroke="midnightblue" points="382.639,-28.2131 372.202,-30.0343 381.497,-35.1192 382.639,-28.2131"/>
</g>
<!-- Node16 -->
<g id="node16" class="node"><title>Node16</title>
<g id="a_node16"><a xlink:href="classpkg__commands_1_1GoCommand.html#acbf1aa81fa5b1aef7cafb8b4e3ace3a9" target="_top" xlink:title="pkg_commands.GoCommand.go\lRoomCheck">
<polygon fill="white" stroke="black" points="457,-0 457,-30 617,-30 617,-0 457,-0"/>
<text text-anchor="start" x="465" y="-18" font-family="Helvetica,sans-Serif" font-size="10.00">pkg_commands.GoCommand.go</text>
<text text-anchor="middle" x="537" y="-7" font-family="Helvetica,sans-Serif" font-size="10.00">RoomCheck</text>
</a>
</g>
</g>
<!-- Node15&#45;&gt;Node16 -->
<g id="edge16" class="edge"><title>Node15&#45;&gt;Node16</title>
<path fill="none" stroke="midnightblue" d="M382.549,-15C406.917,-15 433.131,-15 456.877,-15"/>
<polygon fill="midnightblue" stroke="midnightblue" points="382.231,-11.5001 372.231,-15 382.231,-18.5001 382.231,-11.5001"/>
</g>
<!-- Node16&#45;&gt;Node12 -->
<g id="edge17" class="edge"><title>Node16&#45;&gt;Node12</title>
<path fill="none" stroke="midnightblue" d="M626.12,-31.9314C657.106,-37.885 690.817,-44.3623 717.492,-49.4876"/>
<polygon fill="midnightblue" stroke="midnightblue" points="626.649,-28.4691 616.168,-30.0192 625.328,-35.3433 626.649,-28.4691"/>
</g>
</g>
</svg>
