<?xml version="1.0" encoding="UTF-8" standalone="no"?>
<!DOCTYPE svg PUBLIC "-//W3C//DTD SVG 1.1//EN"
 "http://www.w3.org/Graphics/SVG/1.1/DTD/svg11.dtd">
<!-- Generated by graphviz version 2.36.0 (20140111.2315)
 -->
<!-- Title: pkg_commands.Command Pages: 1 -->
<svg width="2251pt" height="420pt"
 viewBox="0.00 0.00 2251.00 420.00" xmlns="http://www.w3.org/2000/svg" xmlns:xlink="http://www.w3.org/1999/xlink">
<g id="graph0" class="graph" transform="scale(1 1) rotate(0) translate(4 416)">
<title>pkg_commands.Command</title>
<polygon fill="white" stroke="none" points="-4,4 -4,-416 2247,-416 2247,4 -4,4"/>
<!-- Node1 -->
<g id="node1" class="node"><title>Node1</title>
<polygon fill="#bfbfbf" stroke="black" points="1051,-255 1051,-411 1185,-411 1185,-255 1051,-255"/>
<text text-anchor="middle" x="1118" y="-399" font-family="Helvetica,sans-Serif" font-size="10.00">pkg_commands.Command</text>
<polyline fill="none" stroke="black" points="1051,-392 1185,-392 "/>
<text text-anchor="middle" x="1118" y="-380" font-family="Helvetica,sans-Serif" font-size="10.00"> </text>
<polyline fill="none" stroke="black" points="1051,-373 1185,-373 "/>
<text text-anchor="start" x="1059" y="-361" font-family="Helvetica,sans-Serif" font-size="10.00">+ getParameter()</text>
<text text-anchor="start" x="1059" y="-350" font-family="Helvetica,sans-Serif" font-size="10.00">+ getSecondParameter()</text>
<text text-anchor="start" x="1059" y="-339" font-family="Helvetica,sans-Serif" font-size="10.00">+ setParameter()</text>
<text text-anchor="start" x="1059" y="-328" font-family="Helvetica,sans-Serif" font-size="10.00">+ setSecondParameter()</text>
<text text-anchor="start" x="1059" y="-317" font-family="Helvetica,sans-Serif" font-size="10.00">+ hasParameter()</text>
<text text-anchor="start" x="1059" y="-306" font-family="Helvetica,sans-Serif" font-size="10.00">+ hasSecondParameter()</text>
<text text-anchor="start" x="1059" y="-295" font-family="Helvetica,sans-Serif" font-size="10.00">+ getMessage()</text>
<text text-anchor="start" x="1059" y="-284" font-family="Helvetica,sans-Serif" font-size="10.00">+ hasMessage()</text>
<text text-anchor="start" x="1059" y="-273" font-family="Helvetica,sans-Serif" font-size="10.00">+ execute()</text>
<text text-anchor="start" x="1059" y="-262" font-family="Helvetica,sans-Serif" font-size="10.00"># setMessage()</text>
</g>
<!-- Node2 -->
<g id="node2" class="node"><title>Node2</title>
<g id="a_node2"><a xlink:href="classpkg__commands_1_1CreditsCommand.html" target="_top" xlink:title="class CreditsCommand used to print the credits of the game ">
<polygon fill="white" stroke="black" points="-0.5,-133 -0.5,-201 164.5,-201 164.5,-133 -0.5,-133"/>
<text text-anchor="middle" x="82" y="-189" font-family="Helvetica,sans-Serif" font-size="10.00">pkg_commands.CreditsCommand</text>
<polyline fill="none" stroke="black" points="-0.5,-182 164.5,-182 "/>
<text text-anchor="middle" x="82" y="-170" font-family="Helvetica,sans-Serif" font-size="10.00"> </text>
<polyline fill="none" stroke="black" points="-0.5,-163 164.5,-163 "/>
<text text-anchor="start" x="7.5" y="-151" font-family="Helvetica,sans-Serif" font-size="10.00">+ CreditsCommand()</text>
<text text-anchor="start" x="7.5" y="-140" font-family="Helvetica,sans-Serif" font-size="10.00">+ execute()</text>
</a>
</g>
</g>
<!-- Node1&#45;&gt;Node2 -->
<g id="edge1" class="edge"><title>Node1&#45;&gt;Node2</title>
<path fill="none" stroke="midnightblue" d="M1040.48,-332.388C876.497,-331.119 484.073,-316.984 174,-218 160.839,-213.799 147.383,-207.685 134.969,-201.165"/>
<polygon fill="none" stroke="midnightblue" points="1040.93,-335.891 1050.95,-332.454 1040.97,-328.891 1040.93,-335.891"/>
</g>
<!-- Node3 -->
<g id="node3" class="node"><title>Node3</title>
<g id="a_node3"><a xlink:href="classpkg__commands_1_1DropCommand.html" target="_top" xlink:title="class DropCommand used to make the player drop an Item ">
<polygon fill="white" stroke="black" points="182.5,-133 182.5,-201 337.5,-201 337.5,-133 182.5,-133"/>
<text text-anchor="middle" x="260" y="-189" font-family="Helvetica,sans-Serif" font-size="10.00">pkg_commands.DropCommand</text>
<polyline fill="none" stroke="black" points="182.5,-182 337.5,-182 "/>
<text text-anchor="middle" x="260" y="-170" font-family="Helvetica,sans-Serif" font-size="10.00"> </text>
<polyline fill="none" stroke="black" points="182.5,-163 337.5,-163 "/>
<text text-anchor="start" x="190.5" y="-151" font-family="Helvetica,sans-Serif" font-size="10.00">+ DropCommand()</text>
<text text-anchor="start" x="190.5" y="-140" font-family="Helvetica,sans-Serif" font-size="10.00">+ execute()</text>
</a>
</g>
</g>
<!-- Node1&#45;&gt;Node3 -->
<g id="edge2" class="edge"><title>Node1&#45;&gt;Node3</title>
<path fill="none" stroke="midnightblue" d="M1040.47,-330.045C898.882,-324.418 590.637,-302.599 347,-218 334.657,-213.714 322.079,-207.648 310.463,-201.213"/>
<polygon fill="none" stroke="midnightblue" points="1040.65,-333.554 1050.78,-330.438 1040.92,-326.56 1040.65,-333.554"/>
</g>
<!-- Node4 -->
<g id="node4" class="node"><title>Node4</title>
<g id="a_node4"><a xlink:href="classpkg__commands_1_1EatCommand.html" target="_top" xlink:title="class EatCommand used to make the player eat an object. ">
<polygon fill="white" stroke="black" points="355.5,-133 355.5,-201 504.5,-201 504.5,-133 355.5,-133"/>
<text text-anchor="middle" x="430" y="-189" font-family="Helvetica,sans-Serif" font-size="10.00">pkg_commands.EatCommand</text>
<polyline fill="none" stroke="black" points="355.5,-182 504.5,-182 "/>
<text text-anchor="middle" x="430" y="-170" font-family="Helvetica,sans-Serif" font-size="10.00"> </text>
<polyline fill="none" stroke="black" points="355.5,-163 504.5,-163 "/>
<text text-anchor="start" x="363.5" y="-151" font-family="Helvetica,sans-Serif" font-size="10.00">+ EatCommand()</text>
<text text-anchor="start" x="363.5" y="-140" font-family="Helvetica,sans-Serif" font-size="10.00">+ execute()</text>
</a>
</g>
</g>
<!-- Node1&#45;&gt;Node4 -->
<g id="edge3" class="edge"><title>Node1&#45;&gt;Node4</title>
<path fill="none" stroke="midnightblue" d="M1040.73,-326.107C923.553,-315.262 695.353,-286.62 514,-218 502.254,-213.556 490.28,-207.503 479.191,-201.143"/>
<polygon fill="none" stroke="midnightblue" points="1040.42,-329.592 1050.69,-327.01 1041.05,-322.621 1040.42,-329.592"/>
</g>
<!-- Node5 -->
<g id="node5" class="node"><title>Node5</title>
<g id="a_node5"><a xlink:href="classpkg__commands_1_1GiveCommand.html" target="_top" xlink:title="class GiveCommand used to make the Player give an Item ">
<polygon fill="white" stroke="black" points="523,-133 523,-201 677,-201 677,-133 523,-133"/>
<text text-anchor="middle" x="600" y="-189" font-family="Helvetica,sans-Serif" font-size="10.00">pkg_commands.GiveCommand</text>
<polyline fill="none" stroke="black" points="523,-182 677,-182 "/>
<text text-anchor="middle" x="600" y="-170" font-family="Helvetica,sans-Serif" font-size="10.00"> </text>
<polyline fill="none" stroke="black" points="523,-163 677,-163 "/>
<text text-anchor="start" x="531" y="-151" font-family="Helvetica,sans-Serif" font-size="10.00">+ GiveCommand()</text>
<text text-anchor="start" x="531" y="-140" font-family="Helvetica,sans-Serif" font-size="10.00">+ execute()</text>
</a>
</g>
</g>
<!-- Node1&#45;&gt;Node5 -->
<g id="edge4" class="edge"><title>Node1&#45;&gt;Node5</title>
<path fill="none" stroke="midnightblue" d="M1040.78,-318.147C952.749,-300.877 805.568,-267.473 686,-218 674.669,-213.312 663.009,-207.378 652.073,-201.25"/>
<polygon fill="none" stroke="midnightblue" points="1040.21,-321.601 1050.69,-320.072 1041.54,-314.729 1040.21,-321.601"/>
</g>
<!-- Node6 -->
<g id="node6" class="node"><title>Node6</title>
<g id="a_node6"><a xlink:href="classpkg__commands_1_1GoCommand.html" target="_top" xlink:title="class GoCommand used to make the player go to a given Room. ">
<polygon fill="white" stroke="black" points="695,-116.5 695,-217.5 841,-217.5 841,-116.5 695,-116.5"/>
<text text-anchor="middle" x="768" y="-205.5" font-family="Helvetica,sans-Serif" font-size="10.00">pkg_commands.GoCommand</text>
<polyline fill="none" stroke="black" points="695,-198.5 841,-198.5 "/>
<text text-anchor="middle" x="768" y="-186.5" font-family="Helvetica,sans-Serif" font-size="10.00"> </text>
<polyline fill="none" stroke="black" points="695,-179.5 841,-179.5 "/>
<text text-anchor="start" x="703" y="-167.5" font-family="Helvetica,sans-Serif" font-size="10.00">+ GoCommand()</text>
<text text-anchor="start" x="703" y="-156.5" font-family="Helvetica,sans-Serif" font-size="10.00">+ execute()</text>
<text text-anchor="start" x="703" y="-145.5" font-family="Helvetica,sans-Serif" font-size="10.00"># goRoomCheck()</text>
<text text-anchor="start" x="703" y="-134.5" font-family="Helvetica,sans-Serif" font-size="10.00"># goRoomNoCheck()</text>
<text text-anchor="start" x="703" y="-123.5" font-family="Helvetica,sans-Serif" font-size="10.00"># getRandomRoom()</text>
</a>
</g>
</g>
<!-- Node1&#45;&gt;Node6 -->
<g id="edge5" class="edge"><title>Node1&#45;&gt;Node6</title>
<path fill="none" stroke="midnightblue" d="M1041.4,-302.861C987.048,-281.361 912.889,-250.332 850,-218 847.034,-216.475 844.031,-214.884 841.015,-213.245"/>
<polygon fill="none" stroke="midnightblue" points="1040.38,-306.221 1050.96,-306.629 1042.94,-299.708 1040.38,-306.221"/>
</g>
<!-- Node9 -->
<g id="node9" class="node"><title>Node9</title>
<g id="a_node9"><a xlink:href="classpkg__commands_1_1HelpCommand.html" target="_top" xlink:title="class HelpCommand used to print the help ">
<polygon fill="white" stroke="black" points="859,-133 859,-201 1013,-201 1013,-133 859,-133"/>
<text text-anchor="middle" x="936" y="-189" font-family="Helvetica,sans-Serif" font-size="10.00">pkg_commands.HelpCommand</text>
<polyline fill="none" stroke="black" points="859,-182 1013,-182 "/>
<text text-anchor="middle" x="936" y="-170" font-family="Helvetica,sans-Serif" font-size="10.00"> </text>
<polyline fill="none" stroke="black" points="859,-163 1013,-163 "/>
<text text-anchor="start" x="867" y="-151" font-family="Helvetica,sans-Serif" font-size="10.00">+ HelpCommand()</text>
<text text-anchor="start" x="867" y="-140" font-family="Helvetica,sans-Serif" font-size="10.00">+ execute()</text>
</a>
</g>
</g>
<!-- Node1&#45;&gt;Node9 -->
<g id="edge8" class="edge"><title>Node1&#45;&gt;Node9</title>
<path fill="none" stroke="midnightblue" d="M1043.25,-264.639C1018.88,-242.688 992.918,-219.289 972.638,-201.014"/>
<polygon fill="none" stroke="midnightblue" points="1040.98,-267.304 1050.75,-271.398 1045.66,-262.104 1040.98,-267.304"/>
</g>
<!-- Node10 -->
<g id="node10" class="node"><title>Node10</title>
<g id="a_node10"><a xlink:href="classpkg__commands_1_1InventoryCommand.html" target="_top" xlink:title="class InventoryCommand used to print the player&#39;s inventory ">
<polygon fill="white" stroke="black" points="1031,-133 1031,-201 1205,-201 1205,-133 1031,-133"/>
<text text-anchor="middle" x="1118" y="-189" font-family="Helvetica,sans-Serif" font-size="10.00">pkg_commands.InventoryCommand</text>
<polyline fill="none" stroke="black" points="1031,-182 1205,-182 "/>
<text text-anchor="middle" x="1118" y="-170" font-family="Helvetica,sans-Serif" font-size="10.00"> </text>
<polyline fill="none" stroke="black" points="1031,-163 1205,-163 "/>
<text text-anchor="start" x="1039" y="-151" font-family="Helvetica,sans-Serif" font-size="10.00">+ InventoryCommand()</text>
<text text-anchor="start" x="1039" y="-140" font-family="Helvetica,sans-Serif" font-size="10.00">+ execute()</text>
</a>
</g>
</g>
<!-- Node1&#45;&gt;Node10 -->
<g id="edge9" class="edge"><title>Node1&#45;&gt;Node10</title>
<path fill="none" stroke="midnightblue" d="M1118,-244.582C1118,-229.05 1118,-213.778 1118,-201.009"/>
<polygon fill="none" stroke="midnightblue" points="1114.5,-244.802 1118,-254.802 1121.5,-244.802 1114.5,-244.802"/>
</g>
<!-- Node11 -->
<g id="node11" class="node"><title>Node11</title>
<g id="a_node11"><a xlink:href="classpkg__commands_1_1LookCommand.html" target="_top" xlink:title="class LookCommand used to show information about the current Room or a given Item ...">
<polygon fill="white" stroke="black" points="1223.5,-133 1223.5,-201 1378.5,-201 1378.5,-133 1223.5,-133"/>
<text text-anchor="middle" x="1301" y="-189" font-family="Helvetica,sans-Serif" font-size="10.00">pkg_commands.LookCommand</text>
<polyline fill="none" stroke="black" points="1223.5,-182 1378.5,-182 "/>
<text text-anchor="middle" x="1301" y="-170" font-family="Helvetica,sans-Serif" font-size="10.00"> </text>
<polyline fill="none" stroke="black" points="1223.5,-163 1378.5,-163 "/>
<text text-anchor="start" x="1231.5" y="-151" font-family="Helvetica,sans-Serif" font-size="10.00">+ LookCommand()</text>
<text text-anchor="start" x="1231.5" y="-140" font-family="Helvetica,sans-Serif" font-size="10.00">+ execute()</text>
</a>
</g>
</g>
<!-- Node1&#45;&gt;Node11 -->
<g id="edge10" class="edge"><title>Node1&#45;&gt;Node11</title>
<path fill="none" stroke="midnightblue" d="M1192.66,-265.09C1217.22,-243.086 1243.45,-219.579 1263.94,-201.208"/>
<polygon fill="none" stroke="midnightblue" points="1190.21,-262.583 1185.1,-271.864 1194.89,-267.796 1190.21,-262.583"/>
</g>
<!-- Node12 -->
<g id="node12" class="node"><title>Node12</title>
<g id="a_node12"><a xlink:href="classpkg__commands_1_1QuitCommand.html" target="_top" xlink:title="class QuitCommand used to quit the game ">
<polygon fill="white" stroke="black" points="1397,-133 1397,-201 1549,-201 1549,-133 1397,-133"/>
<text text-anchor="middle" x="1473" y="-189" font-family="Helvetica,sans-Serif" font-size="10.00">pkg_commands.QuitCommand</text>
<polyline fill="none" stroke="black" points="1397,-182 1549,-182 "/>
<text text-anchor="middle" x="1473" y="-170" font-family="Helvetica,sans-Serif" font-size="10.00"> </text>
<polyline fill="none" stroke="black" points="1397,-163 1549,-163 "/>
<text text-anchor="start" x="1405" y="-151" font-family="Helvetica,sans-Serif" font-size="10.00">+ QuitCommand()</text>
<text text-anchor="start" x="1405" y="-140" font-family="Helvetica,sans-Serif" font-size="10.00">+ execute()</text>
</a>
</g>
</g>
<!-- Node1&#45;&gt;Node12 -->
<g id="edge11" class="edge"><title>Node1&#45;&gt;Node12</title>
<path fill="none" stroke="midnightblue" d="M1194.69,-302.489C1249.15,-280.814 1323.56,-249.729 1387,-218 1397.35,-212.824 1408.17,-206.933 1418.51,-201.055"/>
<polygon fill="none" stroke="midnightblue" points="1193.11,-299.35 1185.11,-306.289 1195.69,-305.857 1193.11,-299.35"/>
</g>
<!-- Node13 -->
<g id="node13" class="node"><title>Node13</title>
<g id="a_node13"><a xlink:href="classpkg__commands_1_1TakeCommand.html" target="_top" xlink:title="class TakeCommand used to make the Player take an Item ">
<polygon fill="white" stroke="black" points="1567.5,-133 1567.5,-201 1722.5,-201 1722.5,-133 1567.5,-133"/>
<text text-anchor="middle" x="1645" y="-189" font-family="Helvetica,sans-Serif" font-size="10.00">pkg_commands.TakeCommand</text>
<polyline fill="none" stroke="black" points="1567.5,-182 1722.5,-182 "/>
<text text-anchor="middle" x="1645" y="-170" font-family="Helvetica,sans-Serif" font-size="10.00"> </text>
<polyline fill="none" stroke="black" points="1567.5,-163 1722.5,-163 "/>
<text text-anchor="start" x="1575.5" y="-151" font-family="Helvetica,sans-Serif" font-size="10.00">+ TakeCommand()</text>
<text text-anchor="start" x="1575.5" y="-140" font-family="Helvetica,sans-Serif" font-size="10.00">+ execute()</text>
</a>
</g>
</g>
<!-- Node1&#45;&gt;Node13 -->
<g id="edge12" class="edge"><title>Node1&#45;&gt;Node13</title>
<path fill="none" stroke="midnightblue" d="M1195.07,-318.544C1284.51,-301.456 1435.42,-268.039 1558,-218 1569.61,-213.26 1581.58,-207.23 1592.77,-201.013"/>
<polygon fill="none" stroke="midnightblue" points="1194.18,-315.15 1185.01,-320.447 1195.48,-322.028 1194.18,-315.15"/>
</g>
<!-- Node14 -->
<g id="node14" class="node"><title>Node14</title>
<g id="a_node14"><a xlink:href="classpkg__commands_1_1TalkCommand.html" target="_top" xlink:title="class TalkCommand used to talk to a Character ">
<polygon fill="white" stroke="black" points="1741,-133 1741,-201 1893,-201 1893,-133 1741,-133"/>
<text text-anchor="middle" x="1817" y="-189" font-family="Helvetica,sans-Serif" font-size="10.00">pkg_commands.TalkCommand</text>
<polyline fill="none" stroke="black" points="1741,-182 1893,-182 "/>
<text text-anchor="middle" x="1817" y="-170" font-family="Helvetica,sans-Serif" font-size="10.00"> </text>
<polyline fill="none" stroke="black" points="1741,-163 1893,-163 "/>
<text text-anchor="start" x="1749" y="-151" font-family="Helvetica,sans-Serif" font-size="10.00">+ TalkCommand()</text>
<text text-anchor="start" x="1749" y="-140" font-family="Helvetica,sans-Serif" font-size="10.00">+ execute()</text>
</a>
</g>
</g>
<!-- Node1&#45;&gt;Node14 -->
<g id="edge13" class="edge"><title>Node1&#45;&gt;Node14</title>
<path fill="none" stroke="midnightblue" d="M1195.38,-326.142C1313.9,-315.295 1546.1,-286.597 1731,-218 1742.98,-213.555 1755.22,-207.502 1766.57,-201.141"/>
<polygon fill="none" stroke="midnightblue" points="1194.95,-322.665 1185.31,-327.045 1195.58,-329.637 1194.95,-322.665"/>
</g>
<!-- Node15 -->
<g id="node15" class="node"><title>Node15</title>
<g id="a_node15"><a xlink:href="classpkg__commands_1_1TestCommand.html" target="_top" xlink:title="class TestCommand used to test series of commands ">
<polygon fill="white" stroke="black" points="1911.5,-133 1911.5,-201 2064.5,-201 2064.5,-133 1911.5,-133"/>
<text text-anchor="middle" x="1988" y="-189" font-family="Helvetica,sans-Serif" font-size="10.00">pkg_commands.TestCommand</text>
<polyline fill="none" stroke="black" points="1911.5,-182 2064.5,-182 "/>
<text text-anchor="middle" x="1988" y="-170" font-family="Helvetica,sans-Serif" font-size="10.00"> </text>
<polyline fill="none" stroke="black" points="1911.5,-163 2064.5,-163 "/>
<text text-anchor="start" x="1919.5" y="-151" font-family="Helvetica,sans-Serif" font-size="10.00">+ TestCommand()</text>
<text text-anchor="start" x="1919.5" y="-140" font-family="Helvetica,sans-Serif" font-size="10.00">+ execute()</text>
</a>
</g>
</g>
<!-- Node1&#45;&gt;Node15 -->
<g id="edge14" class="edge"><title>Node1&#45;&gt;Node15</title>
<path fill="none" stroke="midnightblue" d="M1195.07,-330.445C1338.28,-325.471 1653.41,-304.681 1902,-218 1914.23,-213.735 1926.68,-207.678 1938.16,-201.244"/>
<polygon fill="none" stroke="midnightblue" points="1194.94,-326.947 1185.06,-330.776 1195.17,-333.943 1194.94,-326.947"/>
</g>
<!-- Node16 -->
<g id="node16" class="node"><title>Node16</title>
<g id="a_node16"><a xlink:href="classpkg__commands_1_1ThrowCommand.html" target="_top" xlink:title="class ThrowCommand used to make the player throw an Item ">
<polygon fill="white" stroke="black" points="2082.5,-133 2082.5,-201 2243.5,-201 2243.5,-133 2082.5,-133"/>
<text text-anchor="middle" x="2163" y="-189" font-family="Helvetica,sans-Serif" font-size="10.00">pkg_commands.ThrowCommand</text>
<polyline fill="none" stroke="black" points="2082.5,-182 2243.5,-182 "/>
<text text-anchor="middle" x="2163" y="-170" font-family="Helvetica,sans-Serif" font-size="10.00"> </text>
<polyline fill="none" stroke="black" points="2082.5,-163 2243.5,-163 "/>
<text text-anchor="start" x="2090.5" y="-151" font-family="Helvetica,sans-Serif" font-size="10.00">+ ThrowCommand()</text>
<text text-anchor="start" x="2090.5" y="-140" font-family="Helvetica,sans-Serif" font-size="10.00">+ execute()</text>
</a>
</g>
</g>
<!-- Node1&#45;&gt;Node16 -->
<g id="edge15" class="edge"><title>Node1&#45;&gt;Node16</title>
<path fill="none" stroke="midnightblue" d="M1195.07,-332.769C1360.25,-332.283 1758.87,-319.649 2073,-218 2085.92,-213.818 2099.11,-207.712 2111.26,-201.193"/>
<polygon fill="none" stroke="midnightblue" points="1195,-329.269 1185.01,-332.784 1195.01,-336.269 1195,-329.269"/>
</g>
<!-- Node7 -->
<g id="node7" class="node"><title>Node7</title>
<g id="a_node7"><a xlink:href="classpkg__commands_1_1BackCommand.html" target="_top" xlink:title="class BackCommand used to go back in a previous Room. ">
<polygon fill="white" stroke="black" points="600,-6 600,-74 756,-74 756,-6 600,-6"/>
<text text-anchor="middle" x="678" y="-62" font-family="Helvetica,sans-Serif" font-size="10.00">pkg_commands.BackCommand</text>
<polyline fill="none" stroke="black" points="600,-55 756,-55 "/>
<text text-anchor="middle" x="678" y="-43" font-family="Helvetica,sans-Serif" font-size="10.00"> </text>
<polyline fill="none" stroke="black" points="600,-36 756,-36 "/>
<text text-anchor="start" x="608" y="-24" font-family="Helvetica,sans-Serif" font-size="10.00">+ BackCommand()</text>
<text text-anchor="start" x="608" y="-13" font-family="Helvetica,sans-Serif" font-size="10.00">+ execute()</text>
</a>
</g>
</g>
<!-- Node6&#45;&gt;Node7 -->
<g id="edge6" class="edge"><title>Node6&#45;&gt;Node7</title>
<path fill="none" stroke="midnightblue" d="M726.138,-107.859C717.795,-96.2713 709.308,-84.4832 701.83,-74.0979"/>
<polygon fill="none" stroke="midnightblue" points="723.488,-110.167 732.171,-116.238 729.168,-106.077 723.488,-110.167"/>
</g>
<!-- Node8 -->
<g id="node8" class="node"><title>Node8</title>
<g id="a_node8"><a xlink:href="classpkg__commands_1_1BeamerCommand.html" target="_top" xlink:title="class BeamerCommand used to teleport into a remembered room ">
<polygon fill="white" stroke="black" points="774.5,-0.5 774.5,-79.5 941.5,-79.5 941.5,-0.5 774.5,-0.5"/>
<text text-anchor="middle" x="858" y="-67.5" font-family="Helvetica,sans-Serif" font-size="10.00">pkg_commands.BeamerCommand</text>
<polyline fill="none" stroke="black" points="774.5,-60.5 941.5,-60.5 "/>
<text text-anchor="middle" x="858" y="-48.5" font-family="Helvetica,sans-Serif" font-size="10.00"> </text>
<polyline fill="none" stroke="black" points="774.5,-41.5 941.5,-41.5 "/>
<text text-anchor="start" x="782.5" y="-29.5" font-family="Helvetica,sans-Serif" font-size="10.00">+ BeamerCommand()</text>
<text text-anchor="start" x="782.5" y="-18.5" font-family="Helvetica,sans-Serif" font-size="10.00">+ execute()</text>
<text text-anchor="start" x="782.5" y="-7.5" font-family="Helvetica,sans-Serif" font-size="10.00">+ charge()</text>
</a>
</g>
</g>
<!-- Node6&#45;&gt;Node8 -->
<g id="edge7" class="edge"><title>Node6&#45;&gt;Node8</title>
<path fill="none" stroke="midnightblue" d="M809.817,-107.92C816.679,-98.3898 823.64,-88.7217 830.058,-79.8082"/>
<polygon fill="none" stroke="midnightblue" points="806.832,-106.077 803.829,-116.238 812.512,-110.167 806.832,-106.077"/>
</g>
</g>
</svg>
