<?xml version="1.0" encoding="UTF-8" standalone="no"?>
<!DOCTYPE svg PUBLIC "-//W3C//DTD SVG 1.1//EN"
 "http://www.w3.org/Graphics/SVG/1.1/DTD/svg11.dtd">
<!-- Generated by graphviz version 2.36.0 (20140111.2315)
 -->
<!-- Title: GoCommand Pages: 1 -->
<svg width="235pt" height="376pt"
 viewBox="0.00 0.00 235.00 376.00" xmlns="http://www.w3.org/2000/svg" xmlns:xlink="http://www.w3.org/1999/xlink">
<g id="graph0" class="graph" transform="scale(1 1) rotate(0) translate(4 372)">
<title>GoCommand</title>
<polygon fill="white" stroke="none" points="-4,4 -4,-372 231,-372 231,4 -4,4"/>
<!-- Node1 -->
<g id="node1" class="node"><title>Node1</title>
<polygon fill="#bfbfbf" stroke="black" points="55.5,-117 55.5,-207 164.5,-207 164.5,-117 55.5,-117"/>
<text text-anchor="middle" x="110" y="-195" font-family="Helvetica,sans-Serif" font-size="10.00">GoCommand</text>
<polyline fill="none" stroke="black" points="55.5,-188 164.5,-188 "/>
<text text-anchor="middle" x="110" y="-176" font-family="Helvetica,sans-Serif" font-size="10.00"> </text>
<polyline fill="none" stroke="black" points="55.5,-169 164.5,-169 "/>
<text text-anchor="start" x="63.5" y="-157" font-family="Helvetica,sans-Serif" font-size="10.00">+ GoCommand()</text>
<text text-anchor="start" x="63.5" y="-146" font-family="Helvetica,sans-Serif" font-size="10.00">+ execute()</text>
<text text-anchor="start" x="63.5" y="-135" font-family="Helvetica,sans-Serif" font-size="10.00"># goRoomCheck()</text>
<text text-anchor="start" x="63.5" y="-124" font-family="Helvetica,sans-Serif" font-size="10.00"># goRoomNoCheck()</text>
</g>
<!-- Node3 -->
<g id="node3" class="node"><title>Node3</title>
<g id="a_node3"><a xlink:href="classBackCommand.html" target="_top" xlink:title="{BackCommand\n||+ BackCommand()\l+ execute()\l}">
<polygon fill="white" stroke="black" points="-0.5,-6 -0.5,-74 98.5,-74 98.5,-6 -0.5,-6"/>
<text text-anchor="middle" x="49" y="-62" font-family="Helvetica,sans-Serif" font-size="10.00">BackCommand</text>
<polyline fill="none" stroke="black" points="-0.5,-55 98.5,-55 "/>
<text text-anchor="middle" x="49" y="-43" font-family="Helvetica,sans-Serif" font-size="10.00"> </text>
<polyline fill="none" stroke="black" points="-0.5,-36 98.5,-36 "/>
<text text-anchor="start" x="7.5" y="-24" font-family="Helvetica,sans-Serif" font-size="10.00">+ BackCommand()</text>
<text text-anchor="start" x="7.5" y="-13" font-family="Helvetica,sans-Serif" font-size="10.00">+ execute()</text>
</a>
</g>
</g>
<!-- Node1&#45;&gt;Node3 -->
<g id="edge2" class="edge"><title>Node1&#45;&gt;Node3</title>
<path fill="none" stroke="midnightblue" d="M83,-107.885C77.1567,-96.3902 71.1398,-84.5537 65.8224,-74.0933"/>
<polygon fill="none" stroke="midnightblue" points="79.9807,-109.669 87.6322,-116.998 86.2207,-106.497 79.9807,-109.669"/>
</g>
<!-- Node4 -->
<g id="node4" class="node"><title>Node4</title>
<g id="a_node4"><a xlink:href="classBeamerCommand.html" target="_top" xlink:title="{BeamerCommand\n||+ BeamerCommand()\l+ execute()\l+ charge()\l}">
<polygon fill="white" stroke="black" points="117,-0.5 117,-79.5 227,-79.5 227,-0.5 117,-0.5"/>
<text text-anchor="middle" x="172" y="-67.5" font-family="Helvetica,sans-Serif" font-size="10.00">BeamerCommand</text>
<polyline fill="none" stroke="black" points="117,-60.5 227,-60.5 "/>
<text text-anchor="middle" x="172" y="-48.5" font-family="Helvetica,sans-Serif" font-size="10.00"> </text>
<polyline fill="none" stroke="black" points="117,-41.5 227,-41.5 "/>
<text text-anchor="start" x="125" y="-29.5" font-family="Helvetica,sans-Serif" font-size="10.00">+ BeamerCommand()</text>
<text text-anchor="start" x="125" y="-18.5" font-family="Helvetica,sans-Serif" font-size="10.00">+ execute()</text>
<text text-anchor="start" x="125" y="-7.5" font-family="Helvetica,sans-Serif" font-size="10.00">+ charge()</text>
</a>
</g>
</g>
<!-- Node1&#45;&gt;Node4 -->
<g id="edge3" class="edge"><title>Node1&#45;&gt;Node4</title>
<path fill="none" stroke="midnightblue" d="M137.374,-108.017C142.27,-98.5419 147.288,-88.83 151.931,-79.844"/>
<polygon fill="none" stroke="midnightblue" points="134.215,-106.507 132.734,-116.998 140.434,-109.72 134.215,-106.507"/>
</g>
<!-- Node2 -->
<g id="node2" class="node"><title>Node2</title>
<polygon fill="white" stroke="#bfbfbf" points="64,-244.5 64,-367.5 156,-367.5 156,-244.5 64,-244.5"/>
<text text-anchor="middle" x="110" y="-355.5" font-family="Helvetica,sans-Serif" font-size="10.00">Command</text>
<polyline fill="none" stroke="#bfbfbf" points="64,-348.5 156,-348.5 "/>
<text text-anchor="middle" x="110" y="-336.5" font-family="Helvetica,sans-Serif" font-size="10.00"> </text>
<polyline fill="none" stroke="#bfbfbf" points="64,-329.5 156,-329.5 "/>
<text text-anchor="start" x="72" y="-317.5" font-family="Helvetica,sans-Serif" font-size="10.00">+ getParameter()</text>
<text text-anchor="start" x="72" y="-306.5" font-family="Helvetica,sans-Serif" font-size="10.00">+ setParameter()</text>
<text text-anchor="start" x="72" y="-295.5" font-family="Helvetica,sans-Serif" font-size="10.00">+ hasParameter()</text>
<text text-anchor="start" x="72" y="-284.5" font-family="Helvetica,sans-Serif" font-size="10.00">+ getMessage()</text>
<text text-anchor="start" x="72" y="-273.5" font-family="Helvetica,sans-Serif" font-size="10.00">+ hasMessage()</text>
<text text-anchor="start" x="72" y="-262.5" font-family="Helvetica,sans-Serif" font-size="10.00">+ execute()</text>
<text text-anchor="start" x="72" y="-251.5" font-family="Helvetica,sans-Serif" font-size="10.00"># setMessage()</text>
</g>
<!-- Node2&#45;&gt;Node1 -->
<g id="edge1" class="edge"><title>Node2&#45;&gt;Node1</title>
<path fill="none" stroke="midnightblue" d="M110,-234.333C110,-225.055 110,-215.77 110,-207.11"/>
<polygon fill="none" stroke="midnightblue" points="106.5,-234.367 110,-244.367 113.5,-234.367 106.5,-234.367"/>
</g>
</g>
</svg>
