<?xml version="1.0" encoding="UTF-8" standalone="no"?>
<!DOCTYPE svg PUBLIC "-//W3C//DTD SVG 1.1//EN"
 "http://www.w3.org/Graphics/SVG/1.1/DTD/svg11.dtd">
<!-- Generated by graphviz version 2.36.0 (20140111.2315)
 -->
<!-- Title: pkg_commands.GoCommand.execute Pages: 1 -->
<!--zoomable 262 -->
<svg id="main" version="1.1" xmlns="http://www.w3.org/2000/svg" xmlns:xlink="http://www.w3.org/1999/xlink" xml:space="preserve" onload="init(evt)">
<style type="text/css"><![CDATA[
.edge:hover path { stroke: red; }
.edge:hover polygon { stroke: red; fill: red; }
]]></style>
<script type="text/javascript"><![CDATA[
var edges = document.getElementsByTagName('g');
if (edges && edges.length) {
  for (var i=0;i<edges.length;i++) {
    if (edges[i].id.substr(0,4)=='edge') {
      edges[i].setAttribute('class','edge');
    }
  }
}
]]></script>
        <defs>
                <circle id="rim" cx="0" cy="0" r="7"/>
                <circle id="rim2" cx="0" cy="0" r="3.5"/>
                <g id="zoomPlus">
                        <use xlink:href="#rim" fill="#404040">
                                <set attributeName="fill" to="#808080" begin="zoomplus.mouseover" end="zoomplus.mouseout"/>
                        </use>
                        <path d="M-4,0h8M0,-4v8" fill="none" stroke="white" stroke-width="1.5" pointer-events="none"/>
                </g>
                <g id="zoomMin">
                        <use xlink:href="#rim" fill="#404040">
                                <set attributeName="fill" to="#808080" begin="zoomminus.mouseover" end="zoomminus.mouseout"/>
                        </use>
                        <path d="M-4,0h8" fill="none" stroke="white" stroke-width="1.5" pointer-events="none"/>
                </g>
                <g id="dirArrow">
                        <path fill="none" stroke="white" stroke-width="1.5" d="M0,-3.0v7 M-2.5,-0.5L0,-3.0L2.5,-0.5"/>
                </g>
               <g id="resetDef">
                       <use xlink:href="#rim2" fill="#404040">
                               <set attributeName="fill" to="#808080" begin="reset.mouseover" end="reset.mouseout"/>
                       </use>
               </g>
        </defs>

<script type="text/javascript">
var viewWidth = 776;
var viewHeight = 262;
var sectionId = 'dynsection-2';
</script>
<script xlink:href="svgpan.js"/>
<svg id="graph" class="graph">
<g id="viewport">
<title>pkg_commands.GoCommand.execute</title>
<polygon fill="white" stroke="none" points="-4,4 -4,-258 772,-258 772,4 -4,4"/>
<!-- Node1 -->
<g id="node1" class="node"><title>Node1</title>
<polygon fill="#bfbfbf" stroke="black" points="0,-109.5 0,-128.5 184,-128.5 184,-109.5 0,-109.5"/>
<text text-anchor="middle" x="92" y="-116.5" font-family="Helvetica,sans-Serif" font-size="10.00">pkg_commands.GoCommand.execute</text>
</g>
<!-- Node2 -->
<g id="node2" class="node"><title>Node2</title>
<g id="a_node2"><a xlink:href="classpkg__commands_1_1Command.html#a41c92d445be73ea9d62320c65efb8434" target="_top" xlink:title="Parameter field getter. ">
<polygon fill="white" stroke="black" points="227,-224 227,-254 377,-254 377,-224 227,-224"/>
<text text-anchor="start" x="235" y="-242" font-family="Helvetica,sans-Serif" font-size="10.00">pkg_commands.Command.get</text>
<text text-anchor="middle" x="302" y="-231" font-family="Helvetica,sans-Serif" font-size="10.00">Parameter</text>
</a>
</g>
</g>
<!-- Node1&#45;&gt;Node2 -->
<g id="edge1" class="edge"><title>Node1&#45;&gt;Node2</title>
<path fill="none" stroke="midnightblue" d="M103.362,-128.754C124.007,-147.707 172.394,-189.77 220,-214 224.476,-216.278 229.198,-218.393 234.02,-220.348"/>
<polygon fill="midnightblue" stroke="midnightblue" points="232.79,-223.625 243.381,-223.911 235.28,-217.082 232.79,-223.625"/>
</g>
<!-- Node3 -->
<g id="node3" class="node"><title>Node3</title>
<g id="a_node3"><a xlink:href="classpkg__commands_1_1GoCommand.html#ae9ef6c18b0cbd0e0104261bdedf9a9d7" target="_top" xlink:title="Get a random room from the GameEngin list or Room. ">
<polygon fill="white" stroke="black" points="220.5,-175 220.5,-205 383.5,-205 383.5,-175 220.5,-175"/>
<text text-anchor="start" x="228.5" y="-193" font-family="Helvetica,sans-Serif" font-size="10.00">pkg_commands.GoCommand.get</text>
<text text-anchor="middle" x="302" y="-182" font-family="Helvetica,sans-Serif" font-size="10.00">RandomRoom</text>
</a>
</g>
</g>
<!-- Node1&#45;&gt;Node3 -->
<g id="edge2" class="edge"><title>Node1&#45;&gt;Node3</title>
<path fill="none" stroke="midnightblue" d="M118.175,-128.524C143.709,-138.087 184.425,-153.075 220,-165 226.811,-167.283 233.97,-169.605 241.096,-171.867"/>
<polygon fill="midnightblue" stroke="midnightblue" points="240.168,-175.244 250.757,-174.905 242.268,-168.566 240.168,-175.244"/>
</g>
<!-- Node4 -->
<g id="node4" class="node"><title>Node4</title>
<g id="a_node4"><a xlink:href="classpkg__commands_1_1GoCommand.html#acbf1aa81fa5b1aef7cafb8b4e3ace3a9" target="_top" xlink:title="Check if the wanted Room is connected to the current Room and go to this room. ">
<polygon fill="white" stroke="black" points="222,-126 222,-156 382,-156 382,-126 222,-126"/>
<text text-anchor="start" x="230" y="-144" font-family="Helvetica,sans-Serif" font-size="10.00">pkg_commands.GoCommand.go</text>
<text text-anchor="middle" x="302" y="-133" font-family="Helvetica,sans-Serif" font-size="10.00">RoomCheck</text>
</a>
</g>
</g>
<!-- Node1&#45;&gt;Node4 -->
<g id="edge3" class="edge"><title>Node1&#45;&gt;Node4</title>
<path fill="none" stroke="midnightblue" d="M183.022,-128.522C192.536,-129.528 202.21,-130.551 211.716,-131.556"/>
<polygon fill="midnightblue" stroke="midnightblue" points="211.637,-135.068 221.949,-132.639 212.373,-128.106 211.637,-135.068"/>
</g>
<!-- Node5 -->
<g id="node5" class="node"><title>Node5</title>
<g id="a_node5"><a xlink:href="classpkg__commands_1_1GoCommand.html#a210afbc5f3ef34d3ad5759d853c8f8c2" target="_top" xlink:title="Go to the Room without checking. ">
<polygon fill="white" stroke="black" points="420,-93 420,-123 580,-123 580,-93 420,-93"/>
<text text-anchor="start" x="428" y="-111" font-family="Helvetica,sans-Serif" font-size="10.00">pkg_commands.GoCommand.go</text>
<text text-anchor="middle" x="500" y="-100" font-family="Helvetica,sans-Serif" font-size="10.00">RoomNoCheck</text>
</a>
</g>
</g>
<!-- Node1&#45;&gt;Node5 -->
<g id="edge8" class="edge"><title>Node1&#45;&gt;Node5</title>
<path fill="none" stroke="midnightblue" d="M184.114,-116.531C251.495,-114.706 342.792,-112.232 409.73,-110.419"/>
<polygon fill="midnightblue" stroke="midnightblue" points="409.939,-113.914 419.84,-110.145 409.749,-106.917 409.939,-113.914"/>
</g>
<!-- Node6 -->
<g id="node6" class="node"><title>Node6</title>
<g id="a_node6"><a xlink:href="classpkg__commands_1_1Command.html#ae210ff216fe908b111ba1c988a963d13" target="_top" xlink:title="Message field setter. ">
<polygon fill="white" stroke="black" points="617,-44 617,-74 767,-74 767,-44 617,-44"/>
<text text-anchor="start" x="625" y="-62" font-family="Helvetica,sans-Serif" font-size="10.00">pkg_commands.Command.set</text>
<text text-anchor="middle" x="692" y="-51" font-family="Helvetica,sans-Serif" font-size="10.00">Message</text>
</a>
</g>
</g>
<!-- Node1&#45;&gt;Node6 -->
<g id="edge10" class="edge"><title>Node1&#45;&gt;Node6</title>
<path fill="none" stroke="midnightblue" d="M178.682,-109.483C244.626,-102.242 338.046,-92.1656 420,-84 482.499,-77.7728 553.163,-71.2718 606.66,-66.4604"/>
<polygon fill="midnightblue" stroke="midnightblue" points="607.136,-69.9319 616.783,-65.5517 606.51,-62.9599 607.136,-69.9319"/>
</g>
<!-- Node9 -->
<g id="node9" class="node"><title>Node9</title>
<g id="a_node9"><a xlink:href="classpkg__commands_1_1Command.html#a02af95ab3f1898a66259ab7c177b6998" target="_top" xlink:title="Return true if the parameter is null. ">
<polygon fill="white" stroke="black" points="226,-0 226,-30 378,-30 378,-0 226,-0"/>
<text text-anchor="start" x="234" y="-18" font-family="Helvetica,sans-Serif" font-size="10.00">pkg_commands.Command.has</text>
<text text-anchor="middle" x="302" y="-7" font-family="Helvetica,sans-Serif" font-size="10.00">Parameter</text>
</a>
</g>
</g>
<!-- Node1&#45;&gt;Node9 -->
<g id="edge9" class="edge"><title>Node1&#45;&gt;Node9</title>
<path fill="none" stroke="midnightblue" d="M107.411,-109.49C130.509,-94.5056 177.541,-65.0482 220,-45 228.365,-41.0502 237.402,-37.262 246.301,-33.7868"/>
<polygon fill="midnightblue" stroke="midnightblue" points="247.765,-36.9747 255.866,-30.146 245.275,-30.4327 247.765,-36.9747"/>
</g>
<!-- Node4&#45;&gt;Node5 -->
<g id="edge4" class="edge"><title>Node4&#45;&gt;Node5</title>
<path fill="none" stroke="midnightblue" d="M382.156,-127.673C391.284,-126.136 400.64,-124.561 409.889,-123.003"/>
<polygon fill="midnightblue" stroke="midnightblue" points="410.587,-126.435 419.867,-121.323 409.425,-119.532 410.587,-126.435"/>
</g>
<!-- Node5&#45;&gt;Node6 -->
<g id="edge5" class="edge"><title>Node5&#45;&gt;Node6</title>
<path fill="none" stroke="midnightblue" d="M559.297,-92.9654C579.45,-87.7682 602.206,-81.8994 623.064,-76.5204"/>
<polygon fill="midnightblue" stroke="midnightblue" points="624.004,-79.8926 632.813,-74.0062 622.256,-73.1144 624.004,-79.8926"/>
</g>
<!-- Node7 -->
<g id="node7" class="node"><title>Node7</title>
<g id="a_node7"><a xlink:href="classpkg__commands_1_1Command.html#ae46bb048d0fa705a5037a5204b530da2" target="_top" xlink:title="Return true if the message is equal to null or &quot;&quot;. ">
<polygon fill="white" stroke="black" points="616,-142 616,-172 768,-172 768,-142 616,-142"/>
<text text-anchor="start" x="624" y="-160" font-family="Helvetica,sans-Serif" font-size="10.00">pkg_commands.Command.has</text>
<text text-anchor="middle" x="692" y="-149" font-family="Helvetica,sans-Serif" font-size="10.00">Message</text>
</a>
</g>
</g>
<!-- Node5&#45;&gt;Node7 -->
<g id="edge6" class="edge"><title>Node5&#45;&gt;Node7</title>
<path fill="none" stroke="midnightblue" d="M559.297,-123.035C579.45,-128.232 602.206,-134.101 623.064,-139.48"/>
<polygon fill="midnightblue" stroke="midnightblue" points="622.256,-142.886 632.813,-141.994 624.004,-136.107 622.256,-142.886"/>
</g>
<!-- Node8 -->
<g id="node8" class="node"><title>Node8</title>
<g id="a_node8"><a xlink:href="classpkg__commands_1_1Command.html#ac2a42e2bab264821892daefaf9a18b6c" target="_top" xlink:title="Message field getter. ">
<polygon fill="white" stroke="black" points="617,-93 617,-123 767,-123 767,-93 617,-93"/>
<text text-anchor="start" x="625" y="-111" font-family="Helvetica,sans-Serif" font-size="10.00">pkg_commands.Command.get</text>
<text text-anchor="middle" x="692" y="-100" font-family="Helvetica,sans-Serif" font-size="10.00">Message</text>
</a>
</g>
</g>
<!-- Node5&#45;&gt;Node8 -->
<g id="edge7" class="edge"><title>Node5&#45;&gt;Node8</title>
<path fill="none" stroke="midnightblue" d="M580.201,-108C588.91,-108 597.802,-108 606.572,-108"/>
<polygon fill="midnightblue" stroke="midnightblue" points="606.792,-111.5 616.792,-108 606.792,-104.5 606.792,-111.5"/>
</g>
</g>
</svg>
        <g id="navigator" transform="translate(0 0)" fill="#404254">
                <rect fill="#f2f5e9" fill-opacity="0.5" stroke="#606060" stroke-width=".5" x="0" y="0" width="60" height="60"/>
                <use id="zoomplus" xlink:href="#zoomPlus" x="17" y="9" onmousedown="handleZoom(evt,'in')"/>
                <use id="zoomminus" xlink:href="#zoomMin" x="42" y="9" onmousedown="handleZoom(evt,'out')"/>
                <use id="reset" xlink:href="#resetDef" x="30" y="36" onmousedown="handleReset()"/>
                <g id="arrowUp" xlink:href="#dirArrow" transform="translate(30 24)" onmousedown="handlePan(0,-1)">
                  <use xlink:href="#rim" fill="#404040">
                        <set attributeName="fill" to="#808080" begin="arrowUp.mouseover" end="arrowUp.mouseout"/>
                  </use>
                  <path fill="none" stroke="white" stroke-width="1.5" d="M0,-3.0v7 M-2.5,-0.5L0,-3.0L2.5,-0.5"/>
                </g>
                <g id="arrowRight" xlink:href="#dirArrow" transform="rotate(90) translate(36 -43)" onmousedown="handlePan(1,0)">
                  <use xlink:href="#rim" fill="#404040">
                        <set attributeName="fill" to="#808080" begin="arrowRight.mouseover" end="arrowRight.mouseout"/>
                  </use>
                  <path fill="none" stroke="white" stroke-width="1.5" d="M0,-3.0v7 M-2.5,-0.5L0,-3.0L2.5,-0.5"/>
                </g>
                <g id="arrowDown" xlink:href="#dirArrow" transform="rotate(180) translate(-30 -48)" onmousedown="handlePan(0,1)">
                  <use xlink:href="#rim" fill="#404040">
                        <set attributeName="fill" to="#808080" begin="arrowDown.mouseover" end="arrowDown.mouseout"/>
                  </use>
                  <path fill="none" stroke="white" stroke-width="1.5" d="M0,-3.0v7 M-2.5,-0.5L0,-3.0L2.5,-0.5"/>
                </g>
                <g id="arrowLeft" xlink:href="#dirArrow" transform="rotate(270) translate(-36 17)" onmousedown="handlePan(-1,0)">
                  <use xlink:href="#rim" fill="#404040">
                        <set attributeName="fill" to="#808080" begin="arrowLeft.mouseover" end="arrowLeft.mouseout"/>
                  </use>
                  <path fill="none" stroke="white" stroke-width="1.5" d="M0,-3.0v7 M-2.5,-0.5L0,-3.0L2.5,-0.5"/>
                </g>
        </g>
        <svg viewBox="0 0 15 15" width="100%" height="30px" preserveAspectRatio="xMaxYMin meet">
         <g id="arrow_out" transform="scale(0.3 0.3)">
          <a xlink:href="classpkg__commands_1_1GoCommand_a82e9a64a0fac612f788060a90c83f9b1_cgraph_org.svg" target="_base">
           <rect id="button" ry="5" rx="5" y="6" x="6" height="38" width="38"
                fill="#f2f5e9" fill-opacity="0.5" stroke="#606060" stroke-width="1.0"/>
           <path id="arrow"
             d="M 11.500037,31.436501 C 11.940474,20.09759 22.043105,11.32322 32.158766,21.979434 L 37.068811,17.246167 C 37.068811,17.246167 37.088388,32 37.088388,32 L 22.160133,31.978069 C 22.160133,31.978069 26.997745,27.140456 26.997745,27.140456 C 18.528582,18.264221 13.291696,25.230495 11.500037,31.436501 z"
             style="fill:#404040;"/>
          </a>
         </g>
        </svg>
</svg>
