<?xml version="1.0" encoding="UTF-8" standalone="no"?>
<!DOCTYPE svg PUBLIC "-//W3C//DTD SVG 1.1//EN"
 "http://www.w3.org/Graphics/SVG/1.1/DTD/svg11.dtd">
<!-- Generated by graphviz version 2.36.0 (20140111.2315)
 -->
<!-- Title: pkg_commands.Command.hasParameter Pages: 1 -->
<svg width="402pt" height="332pt"
 viewBox="0.00 0.00 402.00 332.00" xmlns="http://www.w3.org/2000/svg" xmlns:xlink="http://www.w3.org/1999/xlink">
<g id="graph0" class="graph" transform="scale(1 1) rotate(0) translate(4 328)">
<title>pkg_commands.Command.hasParameter</title>
<polygon fill="white" stroke="none" points="-4,4 -4,-328 398,-328 398,4 -4,4"/>
<!-- Node1 -->
<g id="node1" class="node"><title>Node1</title>
<polygon fill="#bfbfbf" stroke="black" points="0,-147 0,-177 152,-177 152,-147 0,-147"/>
<text text-anchor="start" x="8" y="-165" font-family="Helvetica,sans-Serif" font-size="10.00">pkg_commands.Command.has</text>
<text text-anchor="middle" x="76" y="-154" font-family="Helvetica,sans-Serif" font-size="10.00">Parameter</text>
</g>
<!-- Node2 -->
<g id="node2" class="node"><title>Node2</title>
<g id="a_node2"><a xlink:href="classpkg__commands_1_1LookCommand.html#af336146fae1e14bf434d85a5acbcdcd7" target="_top" xlink:title="pkg_commands.LookCommand.execute">
<polygon fill="white" stroke="black" points="195,-304.5 195,-323.5 387,-323.5 387,-304.5 195,-304.5"/>
<text text-anchor="middle" x="291" y="-311.5" font-family="Helvetica,sans-Serif" font-size="10.00">pkg_commands.LookCommand.execute</text>
</a>
</g>
</g>
<!-- Node1&#45;&gt;Node2 -->
<g id="edge1" class="edge"><title>Node1&#45;&gt;Node2</title>
<path fill="none" stroke="midnightblue" d="M89.9702,-186.056C107.791,-216.617 142.842,-268.557 188,-295 194.606,-298.868 201.83,-301.976 209.285,-304.469"/>
<polygon fill="midnightblue" stroke="midnightblue" points="92.984,-184.276 85.0006,-177.31 86.8979,-187.734 92.984,-184.276"/>
</g>
<!-- Node3 -->
<g id="node3" class="node"><title>Node3</title>
<g id="a_node3"><a xlink:href="classpkg__commands_1_1TalkCommand.html#a413573388e24a2d442f9814695f7e47c" target="_top" xlink:title="pkg_commands.TalkCommand.execute">
<polygon fill="white" stroke="black" points="196,-266.5 196,-285.5 386,-285.5 386,-266.5 196,-266.5"/>
<text text-anchor="middle" x="291" y="-273.5" font-family="Helvetica,sans-Serif" font-size="10.00">pkg_commands.TalkCommand.execute</text>
</a>
</g>
</g>
<!-- Node1&#45;&gt;Node3 -->
<g id="edge2" class="edge"><title>Node1&#45;&gt;Node3</title>
<path fill="none" stroke="midnightblue" d="M96.8975,-184.913C117.428,-206.997 151.519,-239.556 188,-257 196.125,-260.885 204.968,-263.978 213.937,-266.439"/>
<polygon fill="midnightblue" stroke="midnightblue" points="99.2871,-182.338 89.968,-177.298 94.1098,-187.049 99.2871,-182.338"/>
</g>
<!-- Node4 -->
<g id="node4" class="node"><title>Node4</title>
<g id="a_node4"><a xlink:href="classpkg__commands_1_1DropCommand.html#a742e37b2d2dd4e111130811ee2f4dd0b" target="_top" xlink:title="pkg_commands.DropCommand.execute">
<polygon fill="white" stroke="black" points="195,-228.5 195,-247.5 387,-247.5 387,-228.5 195,-228.5"/>
<text text-anchor="middle" x="291" y="-235.5" font-family="Helvetica,sans-Serif" font-size="10.00">pkg_commands.DropCommand.execute</text>
</a>
</g>
</g>
<!-- Node1&#45;&gt;Node4 -->
<g id="edge3" class="edge"><title>Node1&#45;&gt;Node4</title>
<path fill="none" stroke="midnightblue" d="M109.945,-182.137C131.46,-194.464 160.557,-209.622 188,-219 199.25,-222.844 211.479,-225.969 223.434,-228.49"/>
<polygon fill="midnightblue" stroke="midnightblue" points="111.618,-179.061 101.215,-177.052 108.095,-185.109 111.618,-179.061"/>
</g>
<!-- Node5 -->
<g id="node5" class="node"><title>Node5</title>
<g id="a_node5"><a xlink:href="classpkg__commands_1_1TakeCommand.html#a17789062aaf2ab5747c7eeac118875cd" target="_top" xlink:title="pkg_commands.TakeCommand.execute">
<polygon fill="white" stroke="black" points="194.5,-190.5 194.5,-209.5 387.5,-209.5 387.5,-190.5 194.5,-190.5"/>
<text text-anchor="middle" x="291" y="-197.5" font-family="Helvetica,sans-Serif" font-size="10.00">pkg_commands.TakeCommand.execute</text>
</a>
</g>
</g>
<!-- Node1&#45;&gt;Node5 -->
<g id="edge4" class="edge"><title>Node1&#45;&gt;Node5</title>
<path fill="none" stroke="midnightblue" d="M162.023,-177.168C187.209,-181.662 214.066,-186.453 236.641,-190.481"/>
<polygon fill="midnightblue" stroke="midnightblue" points="162.555,-173.708 152.096,-175.397 161.326,-180.599 162.555,-173.708"/>
</g>
<!-- Node6 -->
<g id="node6" class="node"><title>Node6</title>
<g id="a_node6"><a xlink:href="classpkg__commands_1_1EatCommand.html#a2a600f09891aa076b3f630293de965f4" target="_top" xlink:title="pkg_commands.EatCommand.execute">
<polygon fill="white" stroke="black" points="198,-152.5 198,-171.5 384,-171.5 384,-152.5 198,-152.5"/>
<text text-anchor="middle" x="291" y="-159.5" font-family="Helvetica,sans-Serif" font-size="10.00">pkg_commands.EatCommand.execute</text>
</a>
</g>
</g>
<!-- Node1&#45;&gt;Node6 -->
<g id="edge5" class="edge"><title>Node1&#45;&gt;Node6</title>
<path fill="none" stroke="midnightblue" d="M162.23,-162C173.882,-162 185.889,-162 197.66,-162"/>
<polygon fill="midnightblue" stroke="midnightblue" points="162.096,-158.5 152.096,-162 162.096,-165.5 162.096,-158.5"/>
</g>
<!-- Node7 -->
<g id="node7" class="node"><title>Node7</title>
<g id="a_node7"><a xlink:href="classpkg__commands_1_1GiveCommand.html#a3a3cca7fae9b86d8ff85cc166564843d" target="_top" xlink:title="pkg_commands.GiveCommand.execute">
<polygon fill="white" stroke="black" points="195.5,-114.5 195.5,-133.5 386.5,-133.5 386.5,-114.5 195.5,-114.5"/>
<text text-anchor="middle" x="291" y="-121.5" font-family="Helvetica,sans-Serif" font-size="10.00">pkg_commands.GiveCommand.execute</text>
</a>
</g>
</g>
<!-- Node1&#45;&gt;Node7 -->
<g id="edge6" class="edge"><title>Node1&#45;&gt;Node7</title>
<path fill="none" stroke="midnightblue" d="M162.023,-146.832C187.209,-142.338 214.066,-137.547 236.641,-133.519"/>
<polygon fill="midnightblue" stroke="midnightblue" points="161.326,-143.401 152.096,-148.603 162.555,-150.292 161.326,-143.401"/>
</g>
<!-- Node8 -->
<g id="node8" class="node"><title>Node8</title>
<g id="a_node8"><a xlink:href="classpkg__commands_1_1BeamerCommand.html#a139dc852e180cabd8af15cfed37dcf0e" target="_top" xlink:title="pkg_commands.BeamerCommand.execute">
<polygon fill="white" stroke="black" points="188.5,-76.5 188.5,-95.5 393.5,-95.5 393.5,-76.5 188.5,-76.5"/>
<text text-anchor="middle" x="291" y="-83.5" font-family="Helvetica,sans-Serif" font-size="10.00">pkg_commands.BeamerCommand.execute</text>
</a>
</g>
</g>
<!-- Node1&#45;&gt;Node8 -->
<g id="edge7" class="edge"><title>Node1&#45;&gt;Node8</title>
<path fill="none" stroke="midnightblue" d="M109.945,-141.863C131.46,-129.536 160.557,-114.378 188,-105 199.25,-101.156 211.479,-98.0307 223.434,-95.5097"/>
<polygon fill="midnightblue" stroke="midnightblue" points="108.095,-138.891 101.215,-146.948 111.618,-144.939 108.095,-138.891"/>
</g>
<!-- Node9 -->
<g id="node9" class="node"><title>Node9</title>
<g id="a_node9"><a xlink:href="classpkg__commands_1_1TestCommand.html#a1ff07c27a46910d20c2e4569888892ca" target="_top" xlink:title="pkg_commands.TestCommand.execute">
<polygon fill="white" stroke="black" points="195.5,-38.5 195.5,-57.5 386.5,-57.5 386.5,-38.5 195.5,-38.5"/>
<text text-anchor="middle" x="291" y="-45.5" font-family="Helvetica,sans-Serif" font-size="10.00">pkg_commands.TestCommand.execute</text>
</a>
</g>
</g>
<!-- Node1&#45;&gt;Node9 -->
<g id="edge8" class="edge"><title>Node1&#45;&gt;Node9</title>
<path fill="none" stroke="midnightblue" d="M96.8975,-139.087C117.428,-117.003 151.519,-84.444 188,-67 196.125,-63.1148 204.968,-60.0224 213.937,-57.5614"/>
<polygon fill="midnightblue" stroke="midnightblue" points="94.1098,-136.951 89.968,-146.702 99.2871,-141.662 94.1098,-136.951"/>
</g>
<!-- Node10 -->
<g id="node10" class="node"><title>Node10</title>
<g id="a_node10"><a xlink:href="classpkg__commands_1_1GoCommand.html#a82e9a64a0fac612f788060a90c83f9b1" target="_top" xlink:title="pkg_commands.GoCommand.execute">
<polygon fill="white" stroke="black" points="199,-0.5 199,-19.5 383,-19.5 383,-0.5 199,-0.5"/>
<text text-anchor="middle" x="291" y="-7.5" font-family="Helvetica,sans-Serif" font-size="10.00">pkg_commands.GoCommand.execute</text>
</a>
</g>
</g>
<!-- Node1&#45;&gt;Node10 -->
<g id="edge9" class="edge"><title>Node1&#45;&gt;Node10</title>
<path fill="none" stroke="midnightblue" d="M89.9702,-137.944C107.791,-107.383 142.842,-55.4434 188,-29 194.606,-25.1316 201.83,-22.024 209.285,-19.5311"/>
<polygon fill="midnightblue" stroke="midnightblue" points="86.8979,-136.266 85.0006,-146.69 92.984,-139.724 86.8979,-136.266"/>
</g>
</g>
</svg>
