<?xml version="1.0" encoding="UTF-8" standalone="no"?>
<!DOCTYPE svg PUBLIC "-//W3C//DTD SVG 1.1//EN"
 "http://www.w3.org/Graphics/SVG/1.1/DTD/svg11.dtd">
<!-- Generated by graphviz version 2.36.0 (20140111.2315)
 -->
<!-- Title: pkg_commands.Command.hasParameter Pages: 1 -->
<svg width="402pt" height="256pt"
 viewBox="0.00 0.00 402.00 256.00" xmlns="http://www.w3.org/2000/svg" xmlns:xlink="http://www.w3.org/1999/xlink">
<g id="graph0" class="graph" transform="scale(1 1) rotate(0) translate(4 252)">
<title>pkg_commands.Command.hasParameter</title>
<polygon fill="white" stroke="none" points="-4,4 -4,-252 398,-252 398,4 -4,4"/>
<!-- Node1 -->
<g id="node1" class="node"><title>Node1</title>
<polygon fill="#bfbfbf" stroke="black" points="0,-109 0,-139 152,-139 152,-109 0,-109"/>
<text text-anchor="start" x="8" y="-127" font-family="Helvetica,sans-Serif" font-size="10.00">pkg_commands.Command.has</text>
<text text-anchor="middle" x="76" y="-116" font-family="Helvetica,sans-Serif" font-size="10.00">Parameter</text>
</g>
<!-- Node2 -->
<g id="node2" class="node"><title>Node2</title>
<g id="a_node2"><a xlink:href="classpkg__commands_1_1LookCommand.html#af336146fae1e14bf434d85a5acbcdcd7" target="_top" xlink:title="pkg_commands.LookCommand.execute">
<polygon fill="white" stroke="black" points="195,-228.5 195,-247.5 387,-247.5 387,-228.5 195,-228.5"/>
<text text-anchor="middle" x="291" y="-235.5" font-family="Helvetica,sans-Serif" font-size="10.00">pkg_commands.LookCommand.execute</text>
</a>
</g>
</g>
<!-- Node1&#45;&gt;Node2 -->
<g id="edge1" class="edge"><title>Node1&#45;&gt;Node2</title>
<path fill="none" stroke="midnightblue" d="M96.8975,-146.913C117.428,-168.997 151.519,-201.556 188,-219 196.125,-222.885 204.968,-225.978 213.937,-228.439"/>
<polygon fill="midnightblue" stroke="midnightblue" points="99.2871,-144.338 89.968,-139.298 94.1098,-149.049 99.2871,-144.338"/>
</g>
<!-- Node3 -->
<g id="node3" class="node"><title>Node3</title>
<g id="a_node3"><a xlink:href="classpkg__commands_1_1DropCommand.html#a742e37b2d2dd4e111130811ee2f4dd0b" target="_top" xlink:title="pkg_commands.DropCommand.execute">
<polygon fill="white" stroke="black" points="195,-190.5 195,-209.5 387,-209.5 387,-190.5 195,-190.5"/>
<text text-anchor="middle" x="291" y="-197.5" font-family="Helvetica,sans-Serif" font-size="10.00">pkg_commands.DropCommand.execute</text>
</a>
</g>
</g>
<!-- Node1&#45;&gt;Node3 -->
<g id="edge2" class="edge"><title>Node1&#45;&gt;Node3</title>
<path fill="none" stroke="midnightblue" d="M109.945,-144.137C131.46,-156.464 160.557,-171.622 188,-181 199.25,-184.844 211.479,-187.969 223.434,-190.49"/>
<polygon fill="midnightblue" stroke="midnightblue" points="111.618,-141.061 101.215,-139.052 108.095,-147.109 111.618,-141.061"/>
</g>
<!-- Node4 -->
<g id="node4" class="node"><title>Node4</title>
<g id="a_node4"><a xlink:href="classpkg__commands_1_1TakeCommand.html#a17789062aaf2ab5747c7eeac118875cd" target="_top" xlink:title="pkg_commands.TakeCommand.execute">
<polygon fill="white" stroke="black" points="194.5,-152.5 194.5,-171.5 387.5,-171.5 387.5,-152.5 194.5,-152.5"/>
<text text-anchor="middle" x="291" y="-159.5" font-family="Helvetica,sans-Serif" font-size="10.00">pkg_commands.TakeCommand.execute</text>
</a>
</g>
</g>
<!-- Node1&#45;&gt;Node4 -->
<g id="edge3" class="edge"><title>Node1&#45;&gt;Node4</title>
<path fill="none" stroke="midnightblue" d="M162.023,-139.168C187.209,-143.662 214.066,-148.453 236.641,-152.481"/>
<polygon fill="midnightblue" stroke="midnightblue" points="162.555,-135.708 152.096,-137.397 161.326,-142.599 162.555,-135.708"/>
</g>
<!-- Node5 -->
<g id="node5" class="node"><title>Node5</title>
<g id="a_node5"><a xlink:href="classpkg__commands_1_1GoCommand.html#a82e9a64a0fac612f788060a90c83f9b1" target="_top" xlink:title="pkg_commands.GoCommand.execute">
<polygon fill="white" stroke="black" points="199,-114.5 199,-133.5 383,-133.5 383,-114.5 199,-114.5"/>
<text text-anchor="middle" x="291" y="-121.5" font-family="Helvetica,sans-Serif" font-size="10.00">pkg_commands.GoCommand.execute</text>
</a>
</g>
</g>
<!-- Node1&#45;&gt;Node5 -->
<g id="edge4" class="edge"><title>Node1&#45;&gt;Node5</title>
<path fill="none" stroke="midnightblue" d="M162.118,-124C174.173,-124 186.609,-124 198.773,-124"/>
<polygon fill="midnightblue" stroke="midnightblue" points="162.096,-120.5 152.096,-124 162.096,-127.5 162.096,-120.5"/>
</g>
<!-- Node6 -->
<g id="node6" class="node"><title>Node6</title>
<g id="a_node6"><a xlink:href="classpkg__commands_1_1EatCommand.html#a2a600f09891aa076b3f630293de965f4" target="_top" xlink:title="pkg_commands.EatCommand.execute">
<polygon fill="white" stroke="black" points="198,-76.5 198,-95.5 384,-95.5 384,-76.5 198,-76.5"/>
<text text-anchor="middle" x="291" y="-83.5" font-family="Helvetica,sans-Serif" font-size="10.00">pkg_commands.EatCommand.execute</text>
</a>
</g>
</g>
<!-- Node1&#45;&gt;Node6 -->
<g id="edge5" class="edge"><title>Node1&#45;&gt;Node6</title>
<path fill="none" stroke="midnightblue" d="M162.023,-108.832C187.209,-104.338 214.066,-99.5468 236.641,-95.5195"/>
<polygon fill="midnightblue" stroke="midnightblue" points="161.326,-105.401 152.096,-110.603 162.555,-112.292 161.326,-105.401"/>
</g>
<!-- Node7 -->
<g id="node7" class="node"><title>Node7</title>
<g id="a_node7"><a xlink:href="classpkg__commands_1_1BeamerCommand.html#a139dc852e180cabd8af15cfed37dcf0e" target="_top" xlink:title="pkg_commands.BeamerCommand.execute">
<polygon fill="white" stroke="black" points="188.5,-38.5 188.5,-57.5 393.5,-57.5 393.5,-38.5 188.5,-38.5"/>
<text text-anchor="middle" x="291" y="-45.5" font-family="Helvetica,sans-Serif" font-size="10.00">pkg_commands.BeamerCommand.execute</text>
</a>
</g>
</g>
<!-- Node1&#45;&gt;Node7 -->
<g id="edge6" class="edge"><title>Node1&#45;&gt;Node7</title>
<path fill="none" stroke="midnightblue" d="M109.945,-103.863C131.46,-91.5357 160.557,-76.378 188,-67 199.25,-63.1557 211.479,-60.0307 223.434,-57.5097"/>
<polygon fill="midnightblue" stroke="midnightblue" points="108.095,-100.891 101.215,-108.948 111.618,-106.939 108.095,-100.891"/>
</g>
<!-- Node8 -->
<g id="node8" class="node"><title>Node8</title>
<g id="a_node8"><a xlink:href="classpkg__commands_1_1TestCommand.html#a1ff07c27a46910d20c2e4569888892ca" target="_top" xlink:title="pkg_commands.TestCommand.execute">
<polygon fill="white" stroke="black" points="195.5,-0.5 195.5,-19.5 386.5,-19.5 386.5,-0.5 195.5,-0.5"/>
<text text-anchor="middle" x="291" y="-7.5" font-family="Helvetica,sans-Serif" font-size="10.00">pkg_commands.TestCommand.execute</text>
</a>
</g>
</g>
<!-- Node1&#45;&gt;Node8 -->
<g id="edge7" class="edge"><title>Node1&#45;&gt;Node8</title>
<path fill="none" stroke="midnightblue" d="M96.8975,-101.087C117.428,-79.0035 151.519,-46.444 188,-29 196.125,-25.1148 204.968,-22.0224 213.937,-19.5614"/>
<polygon fill="midnightblue" stroke="midnightblue" points="94.1098,-98.9505 89.968,-108.702 99.2871,-103.662 94.1098,-98.9505"/>
</g>
</g>
</svg>
