<?xml version="1.0" encoding="UTF-8" standalone="no"?>
<!DOCTYPE svg PUBLIC "-//W3C//DTD SVG 1.1//EN"
 "http://www.w3.org/Graphics/SVG/1.1/DTD/svg11.dtd">
<!-- Generated by graphviz version 2.36.0 (20140111.2315)
 -->
<!-- Title: pkg_commands.GoCommand Pages: 1 -->
<svg width="154pt" height="304pt"
 viewBox="0.00 0.00 154.00 304.00" xmlns="http://www.w3.org/2000/svg" xmlns:xlink="http://www.w3.org/1999/xlink">
<g id="graph0" class="graph" transform="scale(1 1) rotate(0) translate(4 300)">
<title>pkg_commands.GoCommand</title>
<polygon fill="white" stroke="none" points="-4,4 -4,-300 150,-300 150,4 -4,4"/>
<!-- Node1 -->
<g id="node1" class="node"><title>Node1</title>
<polygon fill="#bfbfbf" stroke="black" points="0,-0.5 0,-101.5 146,-101.5 146,-0.5 0,-0.5"/>
<text text-anchor="middle" x="73" y="-89.5" font-family="Helvetica,sans-Serif" font-size="10.00">pkg_commands.GoCommand</text>
<polyline fill="none" stroke="black" points="0,-82.5 146,-82.5 "/>
<text text-anchor="middle" x="73" y="-70.5" font-family="Helvetica,sans-Serif" font-size="10.00"> </text>
<polyline fill="none" stroke="black" points="0,-63.5 146,-63.5 "/>
<text text-anchor="start" x="8" y="-51.5" font-family="Helvetica,sans-Serif" font-size="10.00">+ GoCommand()</text>
<text text-anchor="start" x="8" y="-40.5" font-family="Helvetica,sans-Serif" font-size="10.00">+ execute()</text>
<text text-anchor="start" x="8" y="-29.5" font-family="Helvetica,sans-Serif" font-size="10.00"># goRoomCheck()</text>
<text text-anchor="start" x="8" y="-18.5" font-family="Helvetica,sans-Serif" font-size="10.00"># goRoomNoCheck()</text>
<text text-anchor="start" x="8" y="-7.5" font-family="Helvetica,sans-Serif" font-size="10.00"># getRandomRoom()</text>
</g>
<!-- Node2 -->
<g id="node2" class="node"><title>Node2</title>
<g id="a_node2"><a xlink:href="classpkg__commands_1_1Command.html" target="_top" xlink:title="{pkg_commands.Command\n||+ getParameter()\l+ getSecondParameter()\l+ setParameter()\l+ setSecondParameter()\l+ hasParameter()\l+ hasSecondParameter()\l+ getMessage()\l+ hasMessage()\l+ execute()\l# setMessage()\l}">
<polygon fill="white" stroke="black" points="6,-139 6,-295 140,-295 140,-139 6,-139"/>
<text text-anchor="middle" x="73" y="-283" font-family="Helvetica,sans-Serif" font-size="10.00">pkg_commands.Command</text>
<polyline fill="none" stroke="black" points="6,-276 140,-276 "/>
<text text-anchor="middle" x="73" y="-264" font-family="Helvetica,sans-Serif" font-size="10.00"> </text>
<polyline fill="none" stroke="black" points="6,-257 140,-257 "/>
<text text-anchor="start" x="14" y="-245" font-family="Helvetica,sans-Serif" font-size="10.00">+ getParameter()</text>
<text text-anchor="start" x="14" y="-234" font-family="Helvetica,sans-Serif" font-size="10.00">+ getSecondParameter()</text>
<text text-anchor="start" x="14" y="-223" font-family="Helvetica,sans-Serif" font-size="10.00">+ setParameter()</text>
<text text-anchor="start" x="14" y="-212" font-family="Helvetica,sans-Serif" font-size="10.00">+ setSecondParameter()</text>
<text text-anchor="start" x="14" y="-201" font-family="Helvetica,sans-Serif" font-size="10.00">+ hasParameter()</text>
<text text-anchor="start" x="14" y="-190" font-family="Helvetica,sans-Serif" font-size="10.00">+ hasSecondParameter()</text>
<text text-anchor="start" x="14" y="-179" font-family="Helvetica,sans-Serif" font-size="10.00">+ getMessage()</text>
<text text-anchor="start" x="14" y="-168" font-family="Helvetica,sans-Serif" font-size="10.00">+ hasMessage()</text>
<text text-anchor="start" x="14" y="-157" font-family="Helvetica,sans-Serif" font-size="10.00">+ execute()</text>
<text text-anchor="start" x="14" y="-146" font-family="Helvetica,sans-Serif" font-size="10.00"># setMessage()</text>
</a>
</g>
</g>
<!-- Node2&#45;&gt;Node1 -->
<g id="edge1" class="edge"><title>Node2&#45;&gt;Node1</title>
<path fill="none" stroke="midnightblue" d="M73,-128.73C73,-119.459 73,-110.278 73,-101.664"/>
<polygon fill="none" stroke="midnightblue" points="69.5001,-128.802 73,-138.802 76.5001,-128.802 69.5001,-128.802"/>
</g>
</g>
</svg>
