<?xml version="1.0" encoding="UTF-8" standalone="no"?>
<!DOCTYPE svg PUBLIC "-//W3C//DTD SVG 1.1//EN"
 "http://www.w3.org/Graphics/SVG/1.1/DTD/svg11.dtd">
<!-- Generated by graphviz version 2.36.0 (20140111.2315)
 -->
<!-- Title: pkg_game.GameEngine.processCommand Pages: 1 -->
<svg width="370pt" height="66pt"
 viewBox="0.00 0.00 370.00 66.00" xmlns="http://www.w3.org/2000/svg" xmlns:xlink="http://www.w3.org/1999/xlink">
<g id="graph0" class="graph" transform="scale(1 1) rotate(0) translate(4 62)">
<title>pkg_game.GameEngine.processCommand</title>
<polygon fill="white" stroke="none" points="-4,4 -4,-62 366,-62 366,4 -4,4"/>
<!-- Node1 -->
<g id="node1" class="node"><title>Node1</title>
<polygon fill="#bfbfbf" stroke="black" points="0,-14 0,-44 158,-44 158,-14 0,-14"/>
<text text-anchor="start" x="8" y="-32" font-family="Helvetica,sans-Serif" font-size="10.00">pkg_game.GameEngine.process</text>
<text text-anchor="middle" x="79" y="-21" font-family="Helvetica,sans-Serif" font-size="10.00">Command</text>
</g>
<!-- Node2 -->
<g id="node2" class="node"><title>Node2</title>
<g id="a_node2"><a xlink:href="classpkg__world_1_1Player.html#a5ff0ede152d97c0c9cf6603c9a422a77" target="_top" xlink:title="currentRoom field getter. ">
<polygon fill="white" stroke="black" points="194.5,-38.5 194.5,-57.5 361.5,-57.5 361.5,-38.5 194.5,-38.5"/>
<text text-anchor="middle" x="278" y="-45.5" font-family="Helvetica,sans-Serif" font-size="10.00">pkg_world.Player.getCurrentRoom</text>
</a>
</g>
</g>
<!-- Node1&#45;&gt;Node2 -->
<g id="edge1" class="edge"><title>Node1&#45;&gt;Node2</title>
<path fill="none" stroke="midnightblue" d="M158.143,-36.5366C166.713,-37.3632 175.498,-38.2105 184.224,-39.052"/>
<polygon fill="midnightblue" stroke="midnightblue" points="184.133,-42.5594 194.423,-40.0357 184.805,-35.5917 184.133,-42.5594"/>
</g>
<!-- Node3 -->
<g id="node3" class="node"><title>Node3</title>
<g id="a_node3"><a xlink:href="classpkg__game_1_1UserInterface.html#ac4d82f989416d7cc64a6e2fba2f4ed75" target="_top" xlink:title="Print the given text plus a newline in the text area. ">
<polygon fill="white" stroke="black" points="201.5,-0.5 201.5,-19.5 354.5,-19.5 354.5,-0.5 201.5,-0.5"/>
<text text-anchor="middle" x="278" y="-7.5" font-family="Helvetica,sans-Serif" font-size="10.00">pkg_game.UserInterface.println</text>
</a>
</g>
</g>
<!-- Node1&#45;&gt;Node3 -->
<g id="edge2" class="edge"><title>Node1&#45;&gt;Node3</title>
<path fill="none" stroke="midnightblue" d="M158.143,-21.4634C168.999,-20.4163 180.201,-19.336 191.188,-18.2763"/>
<polygon fill="midnightblue" stroke="midnightblue" points="191.584,-21.7544 201.202,-17.3104 190.912,-14.7867 191.584,-21.7544"/>
</g>
</g>
</svg>
