<?xml version="1.0" encoding="UTF-8" standalone="no"?>
<!DOCTYPE svg PUBLIC "-//W3C//DTD SVG 1.1//EN"
 "http://www.w3.org/Graphics/SVG/1.1/DTD/svg11.dtd">
<!-- Generated by graphviz version 2.36.0 (20140111.2315)
 -->
<!-- Title: pkg_commands.Command Pages: 1 -->
<svg width="2072pt" height="420pt"
 viewBox="0.00 0.00 2072.00 420.00" xmlns="http://www.w3.org/2000/svg" xmlns:xlink="http://www.w3.org/1999/xlink">
<g id="graph0" class="graph" transform="scale(1 1) rotate(0) translate(4 416)">
<title>pkg_commands.Command</title>
<polygon fill="white" stroke="none" points="-4,4 -4,-416 2068,-416 2068,4 -4,4"/>
<!-- Node1 -->
<g id="node1" class="node"><title>Node1</title>
<polygon fill="#bfbfbf" stroke="black" points="960,-255 960,-411 1094,-411 1094,-255 960,-255"/>
<text text-anchor="middle" x="1027" y="-399" font-family="Helvetica,sans-Serif" font-size="10.00">pkg_commands.Command</text>
<polyline fill="none" stroke="black" points="960,-392 1094,-392 "/>
<text text-anchor="middle" x="1027" y="-380" font-family="Helvetica,sans-Serif" font-size="10.00"> </text>
<polyline fill="none" stroke="black" points="960,-373 1094,-373 "/>
<text text-anchor="start" x="968" y="-361" font-family="Helvetica,sans-Serif" font-size="10.00">+ getParameter()</text>
<text text-anchor="start" x="968" y="-350" font-family="Helvetica,sans-Serif" font-size="10.00">+ getSecondParameter()</text>
<text text-anchor="start" x="968" y="-339" font-family="Helvetica,sans-Serif" font-size="10.00">+ setParameter()</text>
<text text-anchor="start" x="968" y="-328" font-family="Helvetica,sans-Serif" font-size="10.00">+ setSecondParameter()</text>
<text text-anchor="start" x="968" y="-317" font-family="Helvetica,sans-Serif" font-size="10.00">+ hasParameter()</text>
<text text-anchor="start" x="968" y="-306" font-family="Helvetica,sans-Serif" font-size="10.00">+ hasSecondParameter()</text>
<text text-anchor="start" x="968" y="-295" font-family="Helvetica,sans-Serif" font-size="10.00">+ getMessage()</text>
<text text-anchor="start" x="968" y="-284" font-family="Helvetica,sans-Serif" font-size="10.00">+ hasMessage()</text>
<text text-anchor="start" x="968" y="-273" font-family="Helvetica,sans-Serif" font-size="10.00">+ execute()</text>
<text text-anchor="start" x="968" y="-262" font-family="Helvetica,sans-Serif" font-size="10.00"># setMessage()</text>
</g>
<!-- Node2 -->
<g id="node2" class="node"><title>Node2</title>
<g id="a_node2"><a xlink:href="classpkg__commands_1_1CreditsCommand.html" target="_top" xlink:title="{pkg_commands.CreditsCommand\n||+ CreditsCommand()\l+ execute()\l}">
<polygon fill="white" stroke="black" points="-0.5,-133 -0.5,-201 164.5,-201 164.5,-133 -0.5,-133"/>
<text text-anchor="middle" x="82" y="-189" font-family="Helvetica,sans-Serif" font-size="10.00">pkg_commands.CreditsCommand</text>
<polyline fill="none" stroke="black" points="-0.5,-182 164.5,-182 "/>
<text text-anchor="middle" x="82" y="-170" font-family="Helvetica,sans-Serif" font-size="10.00"> </text>
<polyline fill="none" stroke="black" points="-0.5,-163 164.5,-163 "/>
<text text-anchor="start" x="7.5" y="-151" font-family="Helvetica,sans-Serif" font-size="10.00">+ CreditsCommand()</text>
<text text-anchor="start" x="7.5" y="-140" font-family="Helvetica,sans-Serif" font-size="10.00">+ execute()</text>
</a>
</g>
</g>
<!-- Node1&#45;&gt;Node2 -->
<g id="edge1" class="edge"><title>Node1&#45;&gt;Node2</title>
<path fill="none" stroke="midnightblue" d="M949.723,-331C797.483,-327.018 449.616,-307.913 174,-218 160.865,-213.715 147.421,-207.568 135.009,-201.041"/>
<polygon fill="none" stroke="midnightblue" points="949.821,-334.503 959.904,-331.251 949.993,-327.505 949.821,-334.503"/>
</g>
<!-- Node3 -->
<g id="node3" class="node"><title>Node3</title>
<g id="a_node3"><a xlink:href="classpkg__commands_1_1DropCommand.html" target="_top" xlink:title="{pkg_commands.DropCommand\n||+ DropCommand()\l+ execute()\l}">
<polygon fill="white" stroke="black" points="182.5,-133 182.5,-201 337.5,-201 337.5,-133 182.5,-133"/>
<text text-anchor="middle" x="260" y="-189" font-family="Helvetica,sans-Serif" font-size="10.00">pkg_commands.DropCommand</text>
<polyline fill="none" stroke="black" points="182.5,-182 337.5,-182 "/>
<text text-anchor="middle" x="260" y="-170" font-family="Helvetica,sans-Serif" font-size="10.00"> </text>
<polyline fill="none" stroke="black" points="182.5,-163 337.5,-163 "/>
<text text-anchor="start" x="190.5" y="-151" font-family="Helvetica,sans-Serif" font-size="10.00">+ DropCommand()</text>
<text text-anchor="start" x="190.5" y="-140" font-family="Helvetica,sans-Serif" font-size="10.00">+ execute()</text>
</a>
</g>
</g>
<!-- Node1&#45;&gt;Node3 -->
<g id="edge2" class="edge"><title>Node1&#45;&gt;Node3</title>
<path fill="none" stroke="midnightblue" d="M949.725,-327.956C821.188,-319.286 556.848,-293.144 347,-218 334.699,-213.595 322.139,-207.48 310.526,-201.034"/>
<polygon fill="none" stroke="midnightblue" points="949.657,-331.459 959.865,-328.622 950.116,-324.474 949.657,-331.459"/>
</g>
<!-- Node4 -->
<g id="node4" class="node"><title>Node4</title>
<g id="a_node4"><a xlink:href="classpkg__commands_1_1EatCommand.html" target="_top" xlink:title="{pkg_commands.EatCommand\n||+ EatCommand()\l+ execute()\l}">
<polygon fill="white" stroke="black" points="355.5,-133 355.5,-201 504.5,-201 504.5,-133 355.5,-133"/>
<text text-anchor="middle" x="430" y="-189" font-family="Helvetica,sans-Serif" font-size="10.00">pkg_commands.EatCommand</text>
<polyline fill="none" stroke="black" points="355.5,-182 504.5,-182 "/>
<text text-anchor="middle" x="430" y="-170" font-family="Helvetica,sans-Serif" font-size="10.00"> </text>
<polyline fill="none" stroke="black" points="355.5,-163 504.5,-163 "/>
<text text-anchor="start" x="363.5" y="-151" font-family="Helvetica,sans-Serif" font-size="10.00">+ EatCommand()</text>
<text text-anchor="start" x="363.5" y="-140" font-family="Helvetica,sans-Serif" font-size="10.00">+ execute()</text>
</a>
</g>
</g>
<!-- Node1&#45;&gt;Node4 -->
<g id="edge3" class="edge"><title>Node1&#45;&gt;Node4</title>
<path fill="none" stroke="midnightblue" d="M949.866,-322.654C847.477,-308.514 662.339,-276.869 514,-218 502.485,-213.43 490.706,-207.401 479.751,-201.116"/>
<polygon fill="none" stroke="midnightblue" points="949.434,-326.127 959.814,-324.008 950.378,-319.191 949.434,-326.127"/>
</g>
<!-- Node5 -->
<g id="node5" class="node"><title>Node5</title>
<g id="a_node5"><a xlink:href="classpkg__commands_1_1GiveCommand.html" target="_top" xlink:title="{pkg_commands.GiveCommand\n||+ GiveCommand()\l+ execute()\l}">
<polygon fill="white" stroke="black" points="523,-133 523,-201 677,-201 677,-133 523,-133"/>
<text text-anchor="middle" x="600" y="-189" font-family="Helvetica,sans-Serif" font-size="10.00">pkg_commands.GiveCommand</text>
<polyline fill="none" stroke="black" points="523,-182 677,-182 "/>
<text text-anchor="middle" x="600" y="-170" font-family="Helvetica,sans-Serif" font-size="10.00"> </text>
<polyline fill="none" stroke="black" points="523,-163 677,-163 "/>
<text text-anchor="start" x="531" y="-151" font-family="Helvetica,sans-Serif" font-size="10.00">+ GiveCommand()</text>
<text text-anchor="start" x="531" y="-140" font-family="Helvetica,sans-Serif" font-size="10.00">+ execute()</text>
</a>
</g>
</g>
<!-- Node1&#45;&gt;Node5 -->
<g id="edge4" class="edge"><title>Node1&#45;&gt;Node5</title>
<path fill="none" stroke="midnightblue" d="M950.113,-311.18C879.865,-291.022 773.868,-257.728 686,-218 675.142,-213.091 663.889,-207.195 653.243,-201.202"/>
<polygon fill="none" stroke="midnightblue" points="949.206,-314.561 959.782,-313.936 951.125,-307.829 949.206,-314.561"/>
</g>
<!-- Node6 -->
<g id="node6" class="node"><title>Node6</title>
<g id="a_node6"><a xlink:href="classpkg__commands_1_1GoCommand.html" target="_top" xlink:title="{pkg_commands.GoCommand\n||+ GoCommand()\l+ execute()\l# goRoomCheck()\l# goRoomNoCheck()\l# getRandomRoom()\l}">
<polygon fill="white" stroke="black" points="695,-116.5 695,-217.5 841,-217.5 841,-116.5 695,-116.5"/>
<text text-anchor="middle" x="768" y="-205.5" font-family="Helvetica,sans-Serif" font-size="10.00">pkg_commands.GoCommand</text>
<polyline fill="none" stroke="black" points="695,-198.5 841,-198.5 "/>
<text text-anchor="middle" x="768" y="-186.5" font-family="Helvetica,sans-Serif" font-size="10.00"> </text>
<polyline fill="none" stroke="black" points="695,-179.5 841,-179.5 "/>
<text text-anchor="start" x="703" y="-167.5" font-family="Helvetica,sans-Serif" font-size="10.00">+ GoCommand()</text>
<text text-anchor="start" x="703" y="-156.5" font-family="Helvetica,sans-Serif" font-size="10.00">+ execute()</text>
<text text-anchor="start" x="703" y="-145.5" font-family="Helvetica,sans-Serif" font-size="10.00"># goRoomCheck()</text>
<text text-anchor="start" x="703" y="-134.5" font-family="Helvetica,sans-Serif" font-size="10.00"># goRoomNoCheck()</text>
<text text-anchor="start" x="703" y="-123.5" font-family="Helvetica,sans-Serif" font-size="10.00"># getRandomRoom()</text>
</a>
</g>
</g>
<!-- Node1&#45;&gt;Node6 -->
<g id="edge5" class="edge"><title>Node1&#45;&gt;Node6</title>
<path fill="none" stroke="midnightblue" d="M951.277,-284.052C916.544,-262.059 875.536,-236.092 841.126,-214.304"/>
<polygon fill="none" stroke="midnightblue" points="949.643,-287.16 959.964,-289.553 953.388,-281.246 949.643,-287.16"/>
</g>
<!-- Node9 -->
<g id="node9" class="node"><title>Node9</title>
<g id="a_node9"><a xlink:href="classpkg__commands_1_1HelpCommand.html" target="_top" xlink:title="{pkg_commands.HelpCommand\n||+ HelpCommand()\l+ execute()\l}">
<polygon fill="white" stroke="black" points="859,-133 859,-201 1013,-201 1013,-133 859,-133"/>
<text text-anchor="middle" x="936" y="-189" font-family="Helvetica,sans-Serif" font-size="10.00">pkg_commands.HelpCommand</text>
<polyline fill="none" stroke="black" points="859,-182 1013,-182 "/>
<text text-anchor="middle" x="936" y="-170" font-family="Helvetica,sans-Serif" font-size="10.00"> </text>
<polyline fill="none" stroke="black" points="859,-163 1013,-163 "/>
<text text-anchor="start" x="867" y="-151" font-family="Helvetica,sans-Serif" font-size="10.00">+ HelpCommand()</text>
<text text-anchor="start" x="867" y="-140" font-family="Helvetica,sans-Serif" font-size="10.00">+ execute()</text>
</a>
</g>
</g>
<!-- Node1&#45;&gt;Node9 -->
<g id="edge8" class="edge"><title>Node1&#45;&gt;Node9</title>
<path fill="none" stroke="midnightblue" d="M979.233,-245.914C970.361,-229.924 961.604,-214.143 954.316,-201.009"/>
<polygon fill="none" stroke="midnightblue" points="976.252,-247.756 984.165,-254.802 982.373,-244.36 976.252,-247.756"/>
</g>
<!-- Node10 -->
<g id="node10" class="node"><title>Node10</title>
<g id="a_node10"><a xlink:href="classpkg__commands_1_1InventoryCommand.html" target="_top" xlink:title="{pkg_commands.InventoryCommand\n||+ InventoryCommand()\l+ execute()\l}">
<polygon fill="white" stroke="black" points="1031,-133 1031,-201 1205,-201 1205,-133 1031,-133"/>
<text text-anchor="middle" x="1118" y="-189" font-family="Helvetica,sans-Serif" font-size="10.00">pkg_commands.InventoryCommand</text>
<polyline fill="none" stroke="black" points="1031,-182 1205,-182 "/>
<text text-anchor="middle" x="1118" y="-170" font-family="Helvetica,sans-Serif" font-size="10.00"> </text>
<polyline fill="none" stroke="black" points="1031,-163 1205,-163 "/>
<text text-anchor="start" x="1039" y="-151" font-family="Helvetica,sans-Serif" font-size="10.00">+ InventoryCommand()</text>
<text text-anchor="start" x="1039" y="-140" font-family="Helvetica,sans-Serif" font-size="10.00">+ execute()</text>
</a>
</g>
</g>
<!-- Node1&#45;&gt;Node10 -->
<g id="edge9" class="edge"><title>Node1&#45;&gt;Node10</title>
<path fill="none" stroke="midnightblue" d="M1074.77,-245.914C1083.64,-229.924 1092.4,-214.143 1099.68,-201.009"/>
<polygon fill="none" stroke="midnightblue" points="1071.63,-244.36 1069.84,-254.802 1077.75,-247.756 1071.63,-244.36"/>
</g>
<!-- Node11 -->
<g id="node11" class="node"><title>Node11</title>
<g id="a_node11"><a xlink:href="classpkg__commands_1_1LookCommand.html" target="_top" xlink:title="{pkg_commands.LookCommand\n||+ LookCommand()\l+ execute()\l}">
<polygon fill="white" stroke="black" points="1223.5,-133 1223.5,-201 1378.5,-201 1378.5,-133 1223.5,-133"/>
<text text-anchor="middle" x="1301" y="-189" font-family="Helvetica,sans-Serif" font-size="10.00">pkg_commands.LookCommand</text>
<polyline fill="none" stroke="black" points="1223.5,-182 1378.5,-182 "/>
<text text-anchor="middle" x="1301" y="-170" font-family="Helvetica,sans-Serif" font-size="10.00"> </text>
<polyline fill="none" stroke="black" points="1223.5,-163 1378.5,-163 "/>
<text text-anchor="start" x="1231.5" y="-151" font-family="Helvetica,sans-Serif" font-size="10.00">+ LookCommand()</text>
<text text-anchor="start" x="1231.5" y="-140" font-family="Helvetica,sans-Serif" font-size="10.00">+ execute()</text>
</a>
</g>
</g>
<!-- Node1&#45;&gt;Node11 -->
<g id="edge10" class="edge"><title>Node1&#45;&gt;Node11</title>
<path fill="none" stroke="midnightblue" d="M1102.64,-286.724C1147.97,-259.595 1204.59,-225.706 1245.72,-201.088"/>
<polygon fill="none" stroke="midnightblue" points="1100.81,-283.742 1094.03,-291.881 1104.41,-289.748 1100.81,-283.742"/>
</g>
<!-- Node12 -->
<g id="node12" class="node"><title>Node12</title>
<g id="a_node12"><a xlink:href="classpkg__commands_1_1QuitCommand.html" target="_top" xlink:title="{pkg_commands.QuitCommand\n||+ QuitCommand()\l+ execute()\l}">
<polygon fill="white" stroke="black" points="1397,-133 1397,-201 1549,-201 1549,-133 1397,-133"/>
<text text-anchor="middle" x="1473" y="-189" font-family="Helvetica,sans-Serif" font-size="10.00">pkg_commands.QuitCommand</text>
<polyline fill="none" stroke="black" points="1397,-182 1549,-182 "/>
<text text-anchor="middle" x="1473" y="-170" font-family="Helvetica,sans-Serif" font-size="10.00"> </text>
<polyline fill="none" stroke="black" points="1397,-163 1549,-163 "/>
<text text-anchor="start" x="1405" y="-151" font-family="Helvetica,sans-Serif" font-size="10.00">+ QuitCommand()</text>
<text text-anchor="start" x="1405" y="-140" font-family="Helvetica,sans-Serif" font-size="10.00">+ execute()</text>
</a>
</g>
</g>
<!-- Node1&#45;&gt;Node12 -->
<g id="edge11" class="edge"><title>Node1&#45;&gt;Node12</title>
<path fill="none" stroke="midnightblue" d="M1104.04,-312.89C1178.17,-293.278 1292.62,-259.769 1387,-218 1398.06,-213.107 1409.49,-207.152 1420.28,-201.081"/>
<polygon fill="none" stroke="midnightblue" points="1103.08,-309.522 1094.3,-315.447 1104.86,-316.292 1103.08,-309.522"/>
</g>
<!-- Node13 -->
<g id="node13" class="node"><title>Node13</title>
<g id="a_node13"><a xlink:href="classpkg__commands_1_1TakeCommand.html" target="_top" xlink:title="{pkg_commands.TakeCommand\n||+ TakeCommand()\l+ execute()\l}">
<polygon fill="white" stroke="black" points="1567.5,-133 1567.5,-201 1722.5,-201 1722.5,-133 1567.5,-133"/>
<text text-anchor="middle" x="1645" y="-189" font-family="Helvetica,sans-Serif" font-size="10.00">pkg_commands.TakeCommand</text>
<polyline fill="none" stroke="black" points="1567.5,-182 1722.5,-182 "/>
<text text-anchor="middle" x="1645" y="-170" font-family="Helvetica,sans-Serif" font-size="10.00"> </text>
<polyline fill="none" stroke="black" points="1567.5,-163 1722.5,-163 "/>
<text text-anchor="start" x="1575.5" y="-151" font-family="Helvetica,sans-Serif" font-size="10.00">+ TakeCommand()</text>
<text text-anchor="start" x="1575.5" y="-140" font-family="Helvetica,sans-Serif" font-size="10.00">+ execute()</text>
</a>
</g>
</g>
<!-- Node1&#45;&gt;Node13 -->
<g id="edge12" class="edge"><title>Node1&#45;&gt;Node13</title>
<path fill="none" stroke="midnightblue" d="M1104.53,-323.016C1209.9,-309.103 1402.96,-277.52 1558,-218 1569.87,-213.442 1582.05,-207.418 1593.39,-201.134"/>
<polygon fill="none" stroke="midnightblue" points="1103.76,-319.586 1094.3,-324.347 1104.67,-326.527 1103.76,-319.586"/>
</g>
<!-- Node14 -->
<g id="node14" class="node"><title>Node14</title>
<g id="a_node14"><a xlink:href="classpkg__commands_1_1TalkCommand.html" target="_top" xlink:title="{pkg_commands.TalkCommand\n||+ TalkCommand()\l+ execute()\l}">
<polygon fill="white" stroke="black" points="1741,-133 1741,-201 1893,-201 1893,-133 1741,-133"/>
<text text-anchor="middle" x="1817" y="-189" font-family="Helvetica,sans-Serif" font-size="10.00">pkg_commands.TalkCommand</text>
<polyline fill="none" stroke="black" points="1741,-182 1893,-182 "/>
<text text-anchor="middle" x="1817" y="-170" font-family="Helvetica,sans-Serif" font-size="10.00"> </text>
<polyline fill="none" stroke="black" points="1741,-163 1893,-163 "/>
<text text-anchor="start" x="1749" y="-151" font-family="Helvetica,sans-Serif" font-size="10.00">+ TalkCommand()</text>
<text text-anchor="start" x="1749" y="-140" font-family="Helvetica,sans-Serif" font-size="10.00">+ execute()</text>
</a>
</g>
</g>
<!-- Node1&#45;&gt;Node14 -->
<g id="edge13" class="edge"><title>Node1&#45;&gt;Node14</title>
<path fill="none" stroke="midnightblue" d="M1104.05,-328.693C1236.04,-321.035 1512.29,-296.25 1731,-218 1743.2,-213.637 1755.63,-207.538 1767.11,-201.096"/>
<polygon fill="none" stroke="midnightblue" points="1103.82,-325.2 1094.03,-329.257 1104.22,-332.189 1103.82,-325.2"/>
</g>
<!-- Node15 -->
<g id="node15" class="node"><title>Node15</title>
<g id="a_node15"><a xlink:href="classpkg__commands_1_1TestCommand.html" target="_top" xlink:title="{pkg_commands.TestCommand\n||+ TestCommand()\l+ execute()\l}">
<polygon fill="white" stroke="black" points="1911.5,-133 1911.5,-201 2064.5,-201 2064.5,-133 1911.5,-133"/>
<text text-anchor="middle" x="1988" y="-189" font-family="Helvetica,sans-Serif" font-size="10.00">pkg_commands.TestCommand</text>
<polyline fill="none" stroke="black" points="1911.5,-182 2064.5,-182 "/>
<text text-anchor="middle" x="1988" y="-170" font-family="Helvetica,sans-Serif" font-size="10.00"> </text>
<polyline fill="none" stroke="black" points="1911.5,-163 2064.5,-163 "/>
<text text-anchor="start" x="1919.5" y="-151" font-family="Helvetica,sans-Serif" font-size="10.00">+ TestCommand()</text>
<text text-anchor="start" x="1919.5" y="-140" font-family="Helvetica,sans-Serif" font-size="10.00">+ execute()</text>
</a>
</g>
</g>
<!-- Node1&#45;&gt;Node15 -->
<g id="edge14" class="edge"><title>Node1&#45;&gt;Node15</title>
<path fill="none" stroke="midnightblue" d="M1104.44,-332.06C1259.92,-330.002 1619.36,-314.21 1902,-218 1914.43,-213.77 1927.05,-207.645 1938.67,-201.123"/>
<polygon fill="none" stroke="midnightblue" points="1104.01,-328.565 1094.05,-332.181 1104.09,-335.564 1104.01,-328.565"/>
</g>
<!-- Node7 -->
<g id="node7" class="node"><title>Node7</title>
<g id="a_node7"><a xlink:href="classpkg__commands_1_1BackCommand.html" target="_top" xlink:title="{pkg_commands.BackCommand\n||+ BackCommand()\l+ execute()\l}">
<polygon fill="white" stroke="black" points="600,-6 600,-74 756,-74 756,-6 600,-6"/>
<text text-anchor="middle" x="678" y="-62" font-family="Helvetica,sans-Serif" font-size="10.00">pkg_commands.BackCommand</text>
<polyline fill="none" stroke="black" points="600,-55 756,-55 "/>
<text text-anchor="middle" x="678" y="-43" font-family="Helvetica,sans-Serif" font-size="10.00"> </text>
<polyline fill="none" stroke="black" points="600,-36 756,-36 "/>
<text text-anchor="start" x="608" y="-24" font-family="Helvetica,sans-Serif" font-size="10.00">+ BackCommand()</text>
<text text-anchor="start" x="608" y="-13" font-family="Helvetica,sans-Serif" font-size="10.00">+ execute()</text>
</a>
</g>
</g>
<!-- Node6&#45;&gt;Node7 -->
<g id="edge6" class="edge"><title>Node6&#45;&gt;Node7</title>
<path fill="none" stroke="midnightblue" d="M726.138,-107.859C717.795,-96.2713 709.308,-84.4832 701.83,-74.0979"/>
<polygon fill="none" stroke="midnightblue" points="723.488,-110.167 732.171,-116.238 729.168,-106.077 723.488,-110.167"/>
</g>
<!-- Node8 -->
<g id="node8" class="node"><title>Node8</title>
<g id="a_node8"><a xlink:href="classpkg__commands_1_1BeamerCommand.html" target="_top" xlink:title="{pkg_commands.BeamerCommand\n||+ BeamerCommand()\l+ execute()\l+ charge()\l}">
<polygon fill="white" stroke="black" points="774.5,-0.5 774.5,-79.5 941.5,-79.5 941.5,-0.5 774.5,-0.5"/>
<text text-anchor="middle" x="858" y="-67.5" font-family="Helvetica,sans-Serif" font-size="10.00">pkg_commands.BeamerCommand</text>
<polyline fill="none" stroke="black" points="774.5,-60.5 941.5,-60.5 "/>
<text text-anchor="middle" x="858" y="-48.5" font-family="Helvetica,sans-Serif" font-size="10.00"> </text>
<polyline fill="none" stroke="black" points="774.5,-41.5 941.5,-41.5 "/>
<text text-anchor="start" x="782.5" y="-29.5" font-family="Helvetica,sans-Serif" font-size="10.00">+ BeamerCommand()</text>
<text text-anchor="start" x="782.5" y="-18.5" font-family="Helvetica,sans-Serif" font-size="10.00">+ execute()</text>
<text text-anchor="start" x="782.5" y="-7.5" font-family="Helvetica,sans-Serif" font-size="10.00">+ charge()</text>
</a>
</g>
</g>
<!-- Node6&#45;&gt;Node8 -->
<g id="edge7" class="edge"><title>Node6&#45;&gt;Node8</title>
<path fill="none" stroke="midnightblue" d="M809.817,-107.92C816.679,-98.3898 823.64,-88.7217 830.058,-79.8082"/>
<polygon fill="none" stroke="midnightblue" points="806.832,-106.077 803.829,-116.238 812.512,-110.167 806.832,-106.077"/>
</g>
</g>
</svg>
