<?xml version="1.0" encoding="UTF-8" standalone="no"?>
<!DOCTYPE svg PUBLIC "-//W3C//DTD SVG 1.1//EN"
 "http://www.w3.org/Graphics/SVG/1.1/DTD/svg11.dtd">
<!-- Generated by graphviz version 2.36.0 (20140111.2315)
 -->
<!-- Title: pkg_commands.LookCommand.execute Pages: 1 -->
<svg width="388pt" height="136pt"
 viewBox="0.00 0.00 388.00 136.00" xmlns="http://www.w3.org/2000/svg" xmlns:xlink="http://www.w3.org/1999/xlink">
<g id="graph0" class="graph" transform="scale(1 1) rotate(0) translate(4 132)">
<title>pkg_commands.LookCommand.execute</title>
<polygon fill="white" stroke="none" points="-4,4 -4,-132 384,-132 384,4 -4,4"/>
<!-- Node1 -->
<g id="node1" class="node"><title>Node1</title>
<polygon fill="#bfbfbf" stroke="black" points="0,-54.5 0,-73.5 192,-73.5 192,-54.5 0,-54.5"/>
<text text-anchor="middle" x="96" y="-61.5" font-family="Helvetica,sans-Serif" font-size="10.00">pkg_commands.LookCommand.execute</text>
</g>
<!-- Node2 -->
<g id="node2" class="node"><title>Node2</title>
<g id="a_node2"><a xlink:href="classpkg__commands_1_1Command.html#a41c92d445be73ea9d62320c65efb8434" target="_top" xlink:title="pkg_commands.Command.get\lParameter">
<polygon fill="white" stroke="black" points="229,-98 229,-128 379,-128 379,-98 229,-98"/>
<text text-anchor="start" x="237" y="-116" font-family="Helvetica,sans-Serif" font-size="10.00">pkg_commands.Command.get</text>
<text text-anchor="middle" x="304" y="-105" font-family="Helvetica,sans-Serif" font-size="10.00">Parameter</text>
</a>
</g>
</g>
<!-- Node1&#45;&gt;Node2 -->
<g id="edge1" class="edge"><title>Node1&#45;&gt;Node2</title>
<path fill="none" stroke="midnightblue" d="M137.208,-73.564C163.516,-79.8218 198.662,-88.1817 229.823,-95.5937"/>
<polygon fill="midnightblue" stroke="midnightblue" points="229.245,-99.0539 239.783,-97.963 230.865,-92.2439 229.245,-99.0539"/>
</g>
<!-- Node3 -->
<g id="node3" class="node"><title>Node3</title>
<g id="a_node3"><a xlink:href="classpkg__commands_1_1Command.html#a02af95ab3f1898a66259ab7c177b6998" target="_top" xlink:title="pkg_commands.Command.has\lParameter">
<polygon fill="white" stroke="black" points="228,-49 228,-79 380,-79 380,-49 228,-49"/>
<text text-anchor="start" x="236" y="-67" font-family="Helvetica,sans-Serif" font-size="10.00">pkg_commands.Command.has</text>
<text text-anchor="middle" x="304" y="-56" font-family="Helvetica,sans-Serif" font-size="10.00">Parameter</text>
</a>
</g>
</g>
<!-- Node1&#45;&gt;Node3 -->
<g id="edge2" class="edge"><title>Node1&#45;&gt;Node3</title>
<path fill="none" stroke="midnightblue" d="M192.161,-64C200.705,-64 209.322,-64 217.773,-64"/>
<polygon fill="midnightblue" stroke="midnightblue" points="217.985,-67.5001 227.985,-64 217.985,-60.5001 217.985,-67.5001"/>
</g>
<!-- Node4 -->
<g id="node4" class="node"><title>Node4</title>
<g id="a_node4"><a xlink:href="classpkg__commands_1_1Command.html#ae210ff216fe908b111ba1c988a963d13" target="_top" xlink:title="pkg_commands.Command.set\lMessage">
<polygon fill="white" stroke="black" points="229,-0 229,-30 379,-30 379,-0 229,-0"/>
<text text-anchor="start" x="237" y="-18" font-family="Helvetica,sans-Serif" font-size="10.00">pkg_commands.Command.set</text>
<text text-anchor="middle" x="304" y="-7" font-family="Helvetica,sans-Serif" font-size="10.00">Message</text>
</a>
</g>
</g>
<!-- Node1&#45;&gt;Node4 -->
<g id="edge3" class="edge"><title>Node1&#45;&gt;Node4</title>
<path fill="none" stroke="midnightblue" d="M137.208,-54.436C163.516,-48.1782 198.662,-39.8183 229.823,-32.4063"/>
<polygon fill="midnightblue" stroke="midnightblue" points="230.865,-35.7561 239.783,-30.037 229.245,-28.9461 230.865,-35.7561"/>
</g>
</g>
</svg>
