<?xml version="1.0" encoding="UTF-8" standalone="no"?>
<!DOCTYPE svg PUBLIC "-//W3C//DTD SVG 1.1//EN"
 "http://www.w3.org/Graphics/SVG/1.1/DTD/svg11.dtd">
<!-- Generated by graphviz version 2.36.0 (20140111.2315)
 -->
<!-- Title: BeamerCommand.execute Pages: 1 -->
<svg width="464pt" height="28pt"
 viewBox="0.00 0.00 464.00 28.00" xmlns="http://www.w3.org/2000/svg" xmlns:xlink="http://www.w3.org/1999/xlink">
<g id="graph0" class="graph" transform="scale(1 1) rotate(0) translate(4 24)">
<title>BeamerCommand.execute</title>
<polygon fill="white" stroke="none" points="-4,4 -4,-24 460,-24 460,4 -4,4"/>
<!-- Node1 -->
<g id="node1" class="node"><title>Node1</title>
<polygon fill="#bfbfbf" stroke="black" points="0.5,-0.5 0.5,-19.5 133.5,-19.5 133.5,-0.5 0.5,-0.5"/>
<text text-anchor="middle" x="67" y="-7.5" font-family="Helvetica,sans-Serif" font-size="10.00">BeamerCommand.execute</text>
</g>
<!-- Node2 -->
<g id="node2" class="node"><title>Node2</title>
<g id="a_node2"><a xlink:href="classBeamerCommand.html#a130a572b2ec0532c92ea5033a098b1ac" target="_top" xlink:title="BeamerCommand.charge">
<polygon fill="white" stroke="black" points="170,-0.5 170,-19.5 298,-19.5 298,-0.5 170,-0.5"/>
<text text-anchor="middle" x="234" y="-7.5" font-family="Helvetica,sans-Serif" font-size="10.00">BeamerCommand.charge</text>
</a>
</g>
</g>
<!-- Node1&#45;&gt;Node2 -->
<g id="edge1" class="edge"><title>Node1&#45;&gt;Node2</title>
<path fill="none" stroke="midnightblue" d="M133.686,-10C142.277,-10 151.122,-10 159.827,-10"/>
<polygon fill="midnightblue" stroke="midnightblue" points="159.958,-13.5001 169.958,-10 159.958,-6.5001 159.958,-13.5001"/>
</g>
<!-- Node3 -->
<g id="node3" class="node"><title>Node3</title>
<g id="a_node3"><a xlink:href="classPlayer.html#a9114998742351bf793e093cb198993ca" target="_top" xlink:title="Player.getBeamerRoom">
<polygon fill="white" stroke="black" points="334.5,-0.5 334.5,-19.5 455.5,-19.5 455.5,-0.5 334.5,-0.5"/>
<text text-anchor="middle" x="395" y="-7.5" font-family="Helvetica,sans-Serif" font-size="10.00">Player.getBeamerRoom</text>
</a>
</g>
</g>
<!-- Node2&#45;&gt;Node3 -->
<g id="edge2" class="edge"><title>Node2&#45;&gt;Node3</title>
<path fill="none" stroke="midnightblue" d="M298.298,-10C306.825,-10 315.613,-10 324.244,-10"/>
<polygon fill="midnightblue" stroke="midnightblue" points="324.281,-13.5001 334.281,-10 324.281,-6.5001 324.281,-13.5001"/>
</g>
</g>
</svg>
