<?xml version="1.0" encoding="UTF-8" standalone="no"?>
<!DOCTYPE svg PUBLIC "-//W3C//DTD SVG 1.1//EN"
 "http://www.w3.org/Graphics/SVG/1.1/DTD/svg11.dtd">
<!-- Generated by graphviz version 2.36.0 (20140111.2315)
 -->
<!-- Title: pkg_commands.Command Pages: 1 -->
<svg width="1729pt" height="376pt"
 viewBox="0.00 0.00 1729.00 376.00" xmlns="http://www.w3.org/2000/svg" xmlns:xlink="http://www.w3.org/1999/xlink">
<g id="graph0" class="graph" transform="scale(1 1) rotate(0) translate(4 372)">
<title>pkg_commands.Command</title>
<polygon fill="white" stroke="none" points="-4,4 -4,-372 1725,-372 1725,4 -4,4"/>
<!-- Node1 -->
<g id="node1" class="node"><title>Node1</title>
<polygon fill="#bfbfbf" stroke="black" points="788,-244.5 788,-367.5 922,-367.5 922,-244.5 788,-244.5"/>
<text text-anchor="middle" x="855" y="-355.5" font-family="Helvetica,sans-Serif" font-size="10.00">pkg_commands.Command</text>
<polyline fill="none" stroke="black" points="788,-348.5 922,-348.5 "/>
<text text-anchor="middle" x="855" y="-336.5" font-family="Helvetica,sans-Serif" font-size="10.00"> </text>
<polyline fill="none" stroke="black" points="788,-329.5 922,-329.5 "/>
<text text-anchor="start" x="796" y="-317.5" font-family="Helvetica,sans-Serif" font-size="10.00">+ getParameter()</text>
<text text-anchor="start" x="796" y="-306.5" font-family="Helvetica,sans-Serif" font-size="10.00">+ setParameter()</text>
<text text-anchor="start" x="796" y="-295.5" font-family="Helvetica,sans-Serif" font-size="10.00">+ hasParameter()</text>
<text text-anchor="start" x="796" y="-284.5" font-family="Helvetica,sans-Serif" font-size="10.00">+ getMessage()</text>
<text text-anchor="start" x="796" y="-273.5" font-family="Helvetica,sans-Serif" font-size="10.00">+ hasMessage()</text>
<text text-anchor="start" x="796" y="-262.5" font-family="Helvetica,sans-Serif" font-size="10.00">+ execute()</text>
<text text-anchor="start" x="796" y="-251.5" font-family="Helvetica,sans-Serif" font-size="10.00"># setMessage()</text>
</g>
<!-- Node2 -->
<g id="node2" class="node"><title>Node2</title>
<g id="a_node2"><a xlink:href="classpkg__commands_1_1CreditsCommand.html" target="_top" xlink:title="{pkg_commands.CreditsCommand\n||+ CreditsCommand()\l+ execute()\l}">
<polygon fill="white" stroke="black" points="-0.5,-128 -0.5,-196 164.5,-196 164.5,-128 -0.5,-128"/>
<text text-anchor="middle" x="82" y="-184" font-family="Helvetica,sans-Serif" font-size="10.00">pkg_commands.CreditsCommand</text>
<polyline fill="none" stroke="black" points="-0.5,-177 164.5,-177 "/>
<text text-anchor="middle" x="82" y="-165" font-family="Helvetica,sans-Serif" font-size="10.00"> </text>
<polyline fill="none" stroke="black" points="-0.5,-158 164.5,-158 "/>
<text text-anchor="start" x="7.5" y="-146" font-family="Helvetica,sans-Serif" font-size="10.00">+ CreditsCommand()</text>
<text text-anchor="start" x="7.5" y="-135" font-family="Helvetica,sans-Serif" font-size="10.00">+ execute()</text>
</a>
</g>
</g>
<!-- Node1&#45;&gt;Node2 -->
<g id="edge1" class="edge"><title>Node1&#45;&gt;Node2</title>
<path fill="none" stroke="midnightblue" d="M777.644,-301.843C649.507,-294.887 386.281,-273.248 174,-208 163.633,-204.813 152.982,-200.59 142.773,-196.006"/>
<polygon fill="none" stroke="midnightblue" points="777.583,-305.344 787.754,-302.376 777.952,-298.354 777.583,-305.344"/>
</g>
<!-- Node3 -->
<g id="node3" class="node"><title>Node3</title>
<g id="a_node3"><a xlink:href="classpkg__commands_1_1DropCommand.html" target="_top" xlink:title="{pkg_commands.DropCommand\n||+ DropCommand()\l+ execute()\l}">
<polygon fill="white" stroke="black" points="182.5,-128 182.5,-196 337.5,-196 337.5,-128 182.5,-128"/>
<text text-anchor="middle" x="260" y="-184" font-family="Helvetica,sans-Serif" font-size="10.00">pkg_commands.DropCommand</text>
<polyline fill="none" stroke="black" points="182.5,-177 337.5,-177 "/>
<text text-anchor="middle" x="260" y="-165" font-family="Helvetica,sans-Serif" font-size="10.00"> </text>
<polyline fill="none" stroke="black" points="182.5,-158 337.5,-158 "/>
<text text-anchor="start" x="190.5" y="-146" font-family="Helvetica,sans-Serif" font-size="10.00">+ DropCommand()</text>
<text text-anchor="start" x="190.5" y="-135" font-family="Helvetica,sans-Serif" font-size="10.00">+ execute()</text>
</a>
</g>
</g>
<!-- Node1&#45;&gt;Node3 -->
<g id="edge2" class="edge"><title>Node1&#45;&gt;Node3</title>
<path fill="none" stroke="midnightblue" d="M777.514,-297.243C676.319,-285.535 494.668,-259.077 347,-208 337.518,-204.72 327.786,-200.562 318.422,-196.105"/>
<polygon fill="none" stroke="midnightblue" points="777.319,-300.743 787.651,-298.398 778.111,-293.788 777.319,-300.743"/>
</g>
<!-- Node4 -->
<g id="node4" class="node"><title>Node4</title>
<g id="a_node4"><a xlink:href="classpkg__commands_1_1EatCommand.html" target="_top" xlink:title="{pkg_commands.EatCommand\n||+ EatCommand()\l+ execute()\l}">
<polygon fill="white" stroke="black" points="355.5,-128 355.5,-196 504.5,-196 504.5,-128 355.5,-128"/>
<text text-anchor="middle" x="430" y="-184" font-family="Helvetica,sans-Serif" font-size="10.00">pkg_commands.EatCommand</text>
<polyline fill="none" stroke="black" points="355.5,-177 504.5,-177 "/>
<text text-anchor="middle" x="430" y="-165" font-family="Helvetica,sans-Serif" font-size="10.00"> </text>
<polyline fill="none" stroke="black" points="355.5,-158 504.5,-158 "/>
<text text-anchor="start" x="363.5" y="-146" font-family="Helvetica,sans-Serif" font-size="10.00">+ EatCommand()</text>
<text text-anchor="start" x="363.5" y="-135" font-family="Helvetica,sans-Serif" font-size="10.00">+ execute()</text>
</a>
</g>
</g>
<!-- Node1&#45;&gt;Node4 -->
<g id="edge3" class="edge"><title>Node1&#45;&gt;Node4</title>
<path fill="none" stroke="midnightblue" d="M777.812,-288.06C707.65,-271.493 601.963,-243.591 514,-208 505.412,-204.525 496.561,-200.417 487.974,-196.119"/>
<polygon fill="none" stroke="midnightblue" points="777.365,-291.55 787.899,-290.422 778.96,-284.734 777.365,-291.55"/>
</g>
<!-- Node5 -->
<g id="node5" class="node"><title>Node5</title>
<g id="a_node5"><a xlink:href="classpkg__commands_1_1GoCommand.html" target="_top" xlink:title="{pkg_commands.GoCommand\n||+ GoCommand()\l+ execute()\l# goRoomCheck()\l# goRoomNoCheck()\l}">
<polygon fill="white" stroke="black" points="523,-117 523,-207 669,-207 669,-117 523,-117"/>
<text text-anchor="middle" x="596" y="-195" font-family="Helvetica,sans-Serif" font-size="10.00">pkg_commands.GoCommand</text>
<polyline fill="none" stroke="black" points="523,-188 669,-188 "/>
<text text-anchor="middle" x="596" y="-176" font-family="Helvetica,sans-Serif" font-size="10.00"> </text>
<polyline fill="none" stroke="black" points="523,-169 669,-169 "/>
<text text-anchor="start" x="531" y="-157" font-family="Helvetica,sans-Serif" font-size="10.00">+ GoCommand()</text>
<text text-anchor="start" x="531" y="-146" font-family="Helvetica,sans-Serif" font-size="10.00">+ execute()</text>
<text text-anchor="start" x="531" y="-135" font-family="Helvetica,sans-Serif" font-size="10.00"># goRoomCheck()</text>
<text text-anchor="start" x="531" y="-124" font-family="Helvetica,sans-Serif" font-size="10.00"># goRoomNoCheck()</text>
</a>
</g>
</g>
<!-- Node1&#45;&gt;Node5 -->
<g id="edge4" class="edge"><title>Node1&#45;&gt;Node5</title>
<path fill="none" stroke="midnightblue" d="M778.674,-263.184C747.461,-246.08 710.997,-226.096 678,-208 675.152,-206.438 672.249,-204.846 669.316,-203.237"/>
<polygon fill="none" stroke="midnightblue" points="777.304,-266.424 787.756,-268.16 780.668,-260.286 777.304,-266.424"/>
</g>
<!-- Node8 -->
<g id="node8" class="node"><title>Node8</title>
<g id="a_node8"><a xlink:href="classpkg__commands_1_1HelpCommand.html" target="_top" xlink:title="{pkg_commands.HelpCommand\n||+ HelpCommand()\l+ execute()\l}">
<polygon fill="white" stroke="black" points="687,-128 687,-196 841,-196 841,-128 687,-128"/>
<text text-anchor="middle" x="764" y="-184" font-family="Helvetica,sans-Serif" font-size="10.00">pkg_commands.HelpCommand</text>
<polyline fill="none" stroke="black" points="687,-177 841,-177 "/>
<text text-anchor="middle" x="764" y="-165" font-family="Helvetica,sans-Serif" font-size="10.00"> </text>
<polyline fill="none" stroke="black" points="687,-158 841,-158 "/>
<text text-anchor="start" x="695" y="-146" font-family="Helvetica,sans-Serif" font-size="10.00">+ HelpCommand()</text>
<text text-anchor="start" x="695" y="-135" font-family="Helvetica,sans-Serif" font-size="10.00">+ execute()</text>
</a>
</g>
</g>
<!-- Node1&#45;&gt;Node8 -->
<g id="edge7" class="edge"><title>Node1&#45;&gt;Node8</title>
<path fill="none" stroke="midnightblue" d="M810.632,-235.767C801.749,-221.905 792.808,-207.953 785.165,-196.027"/>
<polygon fill="none" stroke="midnightblue" points="807.801,-237.836 816.144,-244.367 813.695,-234.059 807.801,-237.836"/>
</g>
<!-- Node9 -->
<g id="node9" class="node"><title>Node9</title>
<g id="a_node9"><a xlink:href="classpkg__commands_1_1InventoryCommand.html" target="_top" xlink:title="{pkg_commands.InventoryCommand\n||+ InventoryCommand()\l+ execute()\l}">
<polygon fill="white" stroke="black" points="859,-128 859,-196 1033,-196 1033,-128 859,-128"/>
<text text-anchor="middle" x="946" y="-184" font-family="Helvetica,sans-Serif" font-size="10.00">pkg_commands.InventoryCommand</text>
<polyline fill="none" stroke="black" points="859,-177 1033,-177 "/>
<text text-anchor="middle" x="946" y="-165" font-family="Helvetica,sans-Serif" font-size="10.00"> </text>
<polyline fill="none" stroke="black" points="859,-158 1033,-158 "/>
<text text-anchor="start" x="867" y="-146" font-family="Helvetica,sans-Serif" font-size="10.00">+ InventoryCommand()</text>
<text text-anchor="start" x="867" y="-135" font-family="Helvetica,sans-Serif" font-size="10.00">+ execute()</text>
</a>
</g>
</g>
<!-- Node1&#45;&gt;Node9 -->
<g id="edge8" class="edge"><title>Node1&#45;&gt;Node9</title>
<path fill="none" stroke="midnightblue" d="M899.368,-235.767C908.251,-221.905 917.192,-207.953 924.835,-196.027"/>
<polygon fill="none" stroke="midnightblue" points="896.305,-234.059 893.856,-244.367 902.199,-237.836 896.305,-234.059"/>
</g>
<!-- Node10 -->
<g id="node10" class="node"><title>Node10</title>
<g id="a_node10"><a xlink:href="classpkg__commands_1_1LookCommand.html" target="_top" xlink:title="{pkg_commands.LookCommand\n||+ LookCommand()\l+ execute()\l}">
<polygon fill="white" stroke="black" points="1051.5,-128 1051.5,-196 1206.5,-196 1206.5,-128 1051.5,-128"/>
<text text-anchor="middle" x="1129" y="-184" font-family="Helvetica,sans-Serif" font-size="10.00">pkg_commands.LookCommand</text>
<polyline fill="none" stroke="black" points="1051.5,-177 1206.5,-177 "/>
<text text-anchor="middle" x="1129" y="-165" font-family="Helvetica,sans-Serif" font-size="10.00"> </text>
<polyline fill="none" stroke="black" points="1051.5,-158 1206.5,-158 "/>
<text text-anchor="start" x="1059.5" y="-146" font-family="Helvetica,sans-Serif" font-size="10.00">+ LookCommand()</text>
<text text-anchor="start" x="1059.5" y="-135" font-family="Helvetica,sans-Serif" font-size="10.00">+ execute()</text>
</a>
</g>
</g>
<!-- Node1&#45;&gt;Node10 -->
<g id="edge9" class="edge"><title>Node1&#45;&gt;Node10</title>
<path fill="none" stroke="midnightblue" d="M931.135,-265.543C973.255,-243.715 1025.01,-216.894 1065.02,-196.158"/>
<polygon fill="none" stroke="midnightblue" points="929.296,-262.554 922.028,-270.263 932.517,-268.769 929.296,-262.554"/>
</g>
<!-- Node11 -->
<g id="node11" class="node"><title>Node11</title>
<g id="a_node11"><a xlink:href="classpkg__commands_1_1QuitCommand.html" target="_top" xlink:title="{pkg_commands.QuitCommand\n||+ QuitCommand()\l+ execute()\l}">
<polygon fill="white" stroke="black" points="1225,-128 1225,-196 1377,-196 1377,-128 1225,-128"/>
<text text-anchor="middle" x="1301" y="-184" font-family="Helvetica,sans-Serif" font-size="10.00">pkg_commands.QuitCommand</text>
<polyline fill="none" stroke="black" points="1225,-177 1377,-177 "/>
<text text-anchor="middle" x="1301" y="-165" font-family="Helvetica,sans-Serif" font-size="10.00"> </text>
<polyline fill="none" stroke="black" points="1225,-158 1377,-158 "/>
<text text-anchor="start" x="1233" y="-146" font-family="Helvetica,sans-Serif" font-size="10.00">+ QuitCommand()</text>
<text text-anchor="start" x="1233" y="-135" font-family="Helvetica,sans-Serif" font-size="10.00">+ execute()</text>
</a>
</g>
</g>
<!-- Node1&#45;&gt;Node11 -->
<g id="edge10" class="edge"><title>Node1&#45;&gt;Node11</title>
<path fill="none" stroke="midnightblue" d="M932.254,-289.334C1006.23,-273.139 1120.28,-245.025 1215,-208 1223.79,-204.564 1232.85,-200.479 1241.64,-196.191"/>
<polygon fill="none" stroke="midnightblue" points="931.117,-285.999 922.087,-291.54 932.602,-292.84 931.117,-285.999"/>
</g>
<!-- Node12 -->
<g id="node12" class="node"><title>Node12</title>
<g id="a_node12"><a xlink:href="classpkg__commands_1_1TakeCommand.html" target="_top" xlink:title="{pkg_commands.TakeCommand\n||+ TakeCommand()\l+ execute()\l}">
<polygon fill="white" stroke="black" points="1395.5,-128 1395.5,-196 1550.5,-196 1550.5,-128 1395.5,-128"/>
<text text-anchor="middle" x="1473" y="-184" font-family="Helvetica,sans-Serif" font-size="10.00">pkg_commands.TakeCommand</text>
<polyline fill="none" stroke="black" points="1395.5,-177 1550.5,-177 "/>
<text text-anchor="middle" x="1473" y="-165" font-family="Helvetica,sans-Serif" font-size="10.00"> </text>
<polyline fill="none" stroke="black" points="1395.5,-158 1550.5,-158 "/>
<text text-anchor="start" x="1403.5" y="-146" font-family="Helvetica,sans-Serif" font-size="10.00">+ TakeCommand()</text>
<text text-anchor="start" x="1403.5" y="-135" font-family="Helvetica,sans-Serif" font-size="10.00">+ execute()</text>
</a>
</g>
</g>
<!-- Node1&#45;&gt;Node12 -->
<g id="edge11" class="edge"><title>Node1&#45;&gt;Node12</title>
<path fill="none" stroke="midnightblue" d="M932.62,-298.095C1037.7,-287.124 1230.01,-261.26 1386,-208 1395.49,-204.758 1405.23,-200.621 1414.6,-196.172"/>
<polygon fill="none" stroke="midnightblue" points="932.008,-294.64 922.417,-299.142 932.722,-301.603 932.008,-294.64"/>
</g>
<!-- Node13 -->
<g id="node13" class="node"><title>Node13</title>
<g id="a_node13"><a xlink:href="classpkg__commands_1_1TestCommand.html" target="_top" xlink:title="{pkg_commands.TestCommand\n||+ TestCommand()\l+ execute()\l}">
<polygon fill="white" stroke="black" points="1568.5,-128 1568.5,-196 1721.5,-196 1721.5,-128 1568.5,-128"/>
<text text-anchor="middle" x="1645" y="-184" font-family="Helvetica,sans-Serif" font-size="10.00">pkg_commands.TestCommand</text>
<polyline fill="none" stroke="black" points="1568.5,-177 1721.5,-177 "/>
<text text-anchor="middle" x="1645" y="-165" font-family="Helvetica,sans-Serif" font-size="10.00"> </text>
<polyline fill="none" stroke="black" points="1568.5,-158 1721.5,-158 "/>
<text text-anchor="start" x="1576.5" y="-146" font-family="Helvetica,sans-Serif" font-size="10.00">+ TestCommand()</text>
<text text-anchor="start" x="1576.5" y="-135" font-family="Helvetica,sans-Serif" font-size="10.00">+ execute()</text>
</a>
</g>
</g>
<!-- Node1&#45;&gt;Node13 -->
<g id="edge12" class="edge"><title>Node1&#45;&gt;Node13</title>
<path fill="none" stroke="midnightblue" d="M932.585,-302.989C1064.37,-297.676 1339.03,-278.34 1559,-208 1568.79,-204.869 1578.8,-200.675 1588.36,-196.103"/>
<polygon fill="none" stroke="midnightblue" points="932.055,-299.507 922.197,-303.39 932.325,-306.501 932.055,-299.507"/>
</g>
<!-- Node6 -->
<g id="node6" class="node"><title>Node6</title>
<g id="a_node6"><a xlink:href="classpkg__commands_1_1BackCommand.html" target="_top" xlink:title="{pkg_commands.BackCommand\n||+ BackCommand()\l+ execute()\l}">
<polygon fill="white" stroke="black" points="428,-6 428,-74 584,-74 584,-6 428,-6"/>
<text text-anchor="middle" x="506" y="-62" font-family="Helvetica,sans-Serif" font-size="10.00">pkg_commands.BackCommand</text>
<polyline fill="none" stroke="black" points="428,-55 584,-55 "/>
<text text-anchor="middle" x="506" y="-43" font-family="Helvetica,sans-Serif" font-size="10.00"> </text>
<polyline fill="none" stroke="black" points="428,-36 584,-36 "/>
<text text-anchor="start" x="436" y="-24" font-family="Helvetica,sans-Serif" font-size="10.00">+ BackCommand()</text>
<text text-anchor="start" x="436" y="-13" font-family="Helvetica,sans-Serif" font-size="10.00">+ execute()</text>
</a>
</g>
</g>
<!-- Node5&#45;&gt;Node6 -->
<g id="edge5" class="edge"><title>Node5&#45;&gt;Node6</title>
<path fill="none" stroke="midnightblue" d="M556.931,-108.909C548.071,-97.0946 538.898,-84.8644 530.82,-74.0933"/>
<polygon fill="none" stroke="midnightblue" points="554.198,-111.098 562.998,-116.998 559.798,-106.898 554.198,-111.098"/>
</g>
<!-- Node7 -->
<g id="node7" class="node"><title>Node7</title>
<g id="a_node7"><a xlink:href="classpkg__commands_1_1BeamerCommand.html" target="_top" xlink:title="{pkg_commands.BeamerCommand\n||+ BeamerCommand()\l+ execute()\l+ charge()\l}">
<polygon fill="white" stroke="black" points="602.5,-0.5 602.5,-79.5 769.5,-79.5 769.5,-0.5 602.5,-0.5"/>
<text text-anchor="middle" x="686" y="-67.5" font-family="Helvetica,sans-Serif" font-size="10.00">pkg_commands.BeamerCommand</text>
<polyline fill="none" stroke="black" points="602.5,-60.5 769.5,-60.5 "/>
<text text-anchor="middle" x="686" y="-48.5" font-family="Helvetica,sans-Serif" font-size="10.00"> </text>
<polyline fill="none" stroke="black" points="602.5,-41.5 769.5,-41.5 "/>
<text text-anchor="start" x="610.5" y="-29.5" font-family="Helvetica,sans-Serif" font-size="10.00">+ BeamerCommand()</text>
<text text-anchor="start" x="610.5" y="-18.5" font-family="Helvetica,sans-Serif" font-size="10.00">+ execute()</text>
<text text-anchor="start" x="610.5" y="-7.5" font-family="Helvetica,sans-Serif" font-size="10.00">+ charge()</text>
</a>
</g>
</g>
<!-- Node5&#45;&gt;Node7 -->
<g id="edge6" class="edge"><title>Node5&#45;&gt;Node7</title>
<path fill="none" stroke="midnightblue" d="M635.078,-108.896C642.392,-99.1434 649.919,-89.1079 656.867,-79.844"/>
<polygon fill="none" stroke="midnightblue" points="632.202,-106.898 629.002,-116.998 637.802,-111.098 632.202,-106.898"/>
</g>
</g>
</svg>
