<?xml version="1.0" encoding="UTF-8" standalone="no"?>
<!DOCTYPE svg PUBLIC "-//W3C//DTD SVG 1.1//EN"
 "http://www.w3.org/Graphics/SVG/1.1/DTD/svg11.dtd">
<!-- Generated by graphviz version 2.36.0 (20140111.2315)
 -->
<!-- Title: pkg_commands.InventoryCommand Pages: 1 -->
<svg width="182pt" height="272pt"
 viewBox="0.00 0.00 182.00 272.00" xmlns="http://www.w3.org/2000/svg" xmlns:xlink="http://www.w3.org/1999/xlink">
<g id="graph0" class="graph" transform="scale(1 1) rotate(0) translate(4 268)">
<title>pkg_commands.InventoryCommand</title>
<polygon fill="white" stroke="none" points="-4,4 -4,-268 178,-268 178,4 -4,4"/>
<!-- Node1 -->
<g id="node1" class="node"><title>Node1</title>
<polygon fill="#bfbfbf" stroke="black" points="0,-1 0,-69 174,-69 174,-1 0,-1"/>
<text text-anchor="middle" x="87" y="-57" font-family="Helvetica,sans-Serif" font-size="10.00">pkg_commands.InventoryCommand</text>
<polyline fill="none" stroke="black" points="0,-50 174,-50 "/>
<text text-anchor="middle" x="87" y="-38" font-family="Helvetica,sans-Serif" font-size="10.00"> </text>
<polyline fill="none" stroke="black" points="0,-31 174,-31 "/>
<text text-anchor="start" x="8" y="-19" font-family="Helvetica,sans-Serif" font-size="10.00">+ InventoryCommand()</text>
<text text-anchor="start" x="8" y="-8" font-family="Helvetica,sans-Serif" font-size="10.00">+ execute()</text>
</g>
<!-- Node2 -->
<g id="node2" class="node"><title>Node2</title>
<g id="a_node2"><a xlink:href="classpkg__commands_1_1Command.html" target="_top" xlink:title="{pkg_commands.Command\n||+ getParameter()\l+ getSecondParameter()\l+ setParameter()\l+ setSecondParameter()\l+ hasParameter()\l+ hasSecondParameter()\l+ getMessage()\l+ hasMessage()\l+ execute()\l# setMessage()\l}">
<polygon fill="white" stroke="black" points="20,-107 20,-263 154,-263 154,-107 20,-107"/>
<text text-anchor="middle" x="87" y="-251" font-family="Helvetica,sans-Serif" font-size="10.00">pkg_commands.Command</text>
<polyline fill="none" stroke="black" points="20,-244 154,-244 "/>
<text text-anchor="middle" x="87" y="-232" font-family="Helvetica,sans-Serif" font-size="10.00"> </text>
<polyline fill="none" stroke="black" points="20,-225 154,-225 "/>
<text text-anchor="start" x="28" y="-213" font-family="Helvetica,sans-Serif" font-size="10.00">+ getParameter()</text>
<text text-anchor="start" x="28" y="-202" font-family="Helvetica,sans-Serif" font-size="10.00">+ getSecondParameter()</text>
<text text-anchor="start" x="28" y="-191" font-family="Helvetica,sans-Serif" font-size="10.00">+ setParameter()</text>
<text text-anchor="start" x="28" y="-180" font-family="Helvetica,sans-Serif" font-size="10.00">+ setSecondParameter()</text>
<text text-anchor="start" x="28" y="-169" font-family="Helvetica,sans-Serif" font-size="10.00">+ hasParameter()</text>
<text text-anchor="start" x="28" y="-158" font-family="Helvetica,sans-Serif" font-size="10.00">+ hasSecondParameter()</text>
<text text-anchor="start" x="28" y="-147" font-family="Helvetica,sans-Serif" font-size="10.00">+ getMessage()</text>
<text text-anchor="start" x="28" y="-136" font-family="Helvetica,sans-Serif" font-size="10.00">+ hasMessage()</text>
<text text-anchor="start" x="28" y="-125" font-family="Helvetica,sans-Serif" font-size="10.00">+ execute()</text>
<text text-anchor="start" x="28" y="-114" font-family="Helvetica,sans-Serif" font-size="10.00"># setMessage()</text>
</a>
</g>
</g>
<!-- Node2&#45;&gt;Node1 -->
<g id="edge1" class="edge"><title>Node2&#45;&gt;Node1</title>
<path fill="none" stroke="midnightblue" d="M87,-96.7001C87,-86.9319 87,-77.4833 87,-69.0658"/>
<polygon fill="none" stroke="midnightblue" points="83.5001,-96.9656 87,-106.966 90.5001,-96.9656 83.5001,-96.9656"/>
</g>
</g>
</svg>
