<?xml version="1.0" encoding="UTF-8" standalone="no"?>
<!DOCTYPE svg PUBLIC "-//W3C//DTD SVG 1.1//EN"
 "http://www.w3.org/Graphics/SVG/1.1/DTD/svg11.dtd">
<!-- Generated by graphviz version 2.36.0 (20140111.2315)
 -->
<!-- Title: pkg_commands.Command.setMessage Pages: 1 -->
<svg width="868pt" height="533pt"
 viewBox="0.00 0.00 868.00 533.00" xmlns="http://www.w3.org/2000/svg" xmlns:xlink="http://www.w3.org/1999/xlink">
<g id="graph0" class="graph" transform="scale(1 1) rotate(0) translate(4 529)">
<title>pkg_commands.Command.setMessage</title>
<polygon fill="white" stroke="none" points="-4,4 -4,-529 864,-529 864,4 -4,4"/>
<!-- Node1 -->
<g id="node1" class="node"><title>Node1</title>
<polygon fill="#bfbfbf" stroke="black" points="0,-253 0,-283 150,-283 150,-253 0,-253"/>
<text text-anchor="start" x="8" y="-271" font-family="Helvetica,sans-Serif" font-size="10.00">pkg_commands.Command.set</text>
<text text-anchor="middle" x="75" y="-260" font-family="Helvetica,sans-Serif" font-size="10.00">Message</text>
</g>
<!-- Node2 -->
<g id="node2" class="node"><title>Node2</title>
<g id="a_node2"><a xlink:href="classpkg__commands_1_1BeamerCommand.html#ae71665296a18d581ad1f714c1078e37b" target="_top" xlink:title="Remember the current room. ">
<polygon fill="white" stroke="black" points="192,-505.5 192,-524.5 392,-524.5 392,-505.5 192,-505.5"/>
<text text-anchor="middle" x="292" y="-512.5" font-family="Helvetica,sans-Serif" font-size="10.00">pkg_commands.BeamerCommand.charge</text>
</a>
</g>
</g>
<!-- Node1&#45;&gt;Node2 -->
<g id="edge1" class="edge"><title>Node1&#45;&gt;Node2</title>
<path fill="none" stroke="midnightblue" d="M80.4443,-293.323C90.2564,-341.174 118.493,-444.665 186,-496 190.94,-499.756 196.385,-502.855 202.118,-505.404"/>
<polygon fill="midnightblue" stroke="midnightblue" points="83.8213,-292.353 78.4769,-283.205 76.95,-293.689 83.8213,-292.353"/>
</g>
<!-- Node4 -->
<g id="node4" class="node"><title>Node4</title>
<g id="a_node4"><a xlink:href="classpkg__commands_1_1CreditsCommand.html#aad2b955c6c8a4c3536e6b937165b7790" target="_top" xlink:title="Save the credits into the message field. ">
<polygon fill="white" stroke="black" points="190.5,-467.5 190.5,-486.5 393.5,-486.5 393.5,-467.5 190.5,-467.5"/>
<text text-anchor="middle" x="292" y="-474.5" font-family="Helvetica,sans-Serif" font-size="10.00">pkg_commands.CreditsCommand.execute</text>
</a>
</g>
</g>
<!-- Node1&#45;&gt;Node4 -->
<g id="edge3" class="edge"><title>Node1&#45;&gt;Node4</title>
<path fill="none" stroke="midnightblue" d="M82.9136,-292.902C95.7989,-334.349 127.618,-416.977 186,-458 191.381,-461.781 197.289,-464.879 203.473,-467.41"/>
<polygon fill="midnightblue" stroke="midnightblue" points="86.1916,-291.647 79.974,-283.069 79.4849,-293.652 86.1916,-291.647"/>
</g>
<!-- Node5 -->
<g id="node5" class="node"><title>Node5</title>
<g id="a_node5"><a xlink:href="classpkg__commands_1_1InventoryCommand.html#a16ce9e3db461ecb7c4a50d2bdef65022" target="_top" xlink:title="Save the inventory into the message field. ">
<polygon fill="white" stroke="black" points="186,-429.5 186,-448.5 398,-448.5 398,-429.5 186,-429.5"/>
<text text-anchor="middle" x="292" y="-436.5" font-family="Helvetica,sans-Serif" font-size="10.00">pkg_commands.InventoryCommand.execute</text>
</a>
</g>
</g>
<!-- Node1&#45;&gt;Node5 -->
<g id="edge4" class="edge"><title>Node1&#45;&gt;Node5</title>
<path fill="none" stroke="midnightblue" d="M86.3937,-292.38C102.419,-326.796 136.568,-388.892 186,-420 192.115,-423.848 198.803,-426.965 205.749,-429.483"/>
<polygon fill="midnightblue" stroke="midnightblue" points="89.4872,-290.726 82.1806,-283.053 83.1079,-293.607 89.4872,-290.726"/>
</g>
<!-- Node6 -->
<g id="node6" class="node"><title>Node6</title>
<g id="a_node6"><a xlink:href="classpkg__commands_1_1LookCommand.html#af336146fae1e14bf434d85a5acbcdcd7" target="_top" xlink:title="Saves the information about the current Room or a given Item in the message field. ">
<polygon fill="white" stroke="black" points="196,-391.5 196,-410.5 388,-410.5 388,-391.5 196,-391.5"/>
<text text-anchor="middle" x="292" y="-398.5" font-family="Helvetica,sans-Serif" font-size="10.00">pkg_commands.LookCommand.execute</text>
</a>
</g>
</g>
<!-- Node1&#45;&gt;Node6 -->
<g id="edge5" class="edge"><title>Node1&#45;&gt;Node6</title>
<path fill="none" stroke="midnightblue" d="M91.6121,-291.422C110.613,-317.919 145.255,-360.207 186,-382 193.269,-385.888 201.184,-388.998 209.3,-391.484"/>
<polygon fill="midnightblue" stroke="midnightblue" points="94.3842,-289.279 85.7819,-283.095 88.6498,-293.294 94.3842,-289.279"/>
</g>
<!-- Node7 -->
<g id="node7" class="node"><title>Node7</title>
<g id="a_node7"><a xlink:href="classpkg__commands_1_1TakeCommand.html#a17789062aaf2ab5747c7eeac118875cd" target="_top" xlink:title="Make the player take an Item. ">
<polygon fill="white" stroke="black" points="195.5,-353.5 195.5,-372.5 388.5,-372.5 388.5,-353.5 195.5,-353.5"/>
<text text-anchor="middle" x="292" y="-360.5" font-family="Helvetica,sans-Serif" font-size="10.00">pkg_commands.TakeCommand.execute</text>
</a>
</g>
</g>
<!-- Node1&#45;&gt;Node7 -->
<g id="edge6" class="edge"><title>Node1&#45;&gt;Node7</title>
<path fill="none" stroke="midnightblue" d="M100.75,-289.742C121.932,-307.152 153.993,-330.776 186,-344 195.417,-347.891 205.634,-350.987 215.873,-353.45"/>
<polygon fill="midnightblue" stroke="midnightblue" points="102.829,-286.917 92.9161,-283.176 98.3322,-292.282 102.829,-286.917"/>
</g>
<!-- Node8 -->
<g id="node8" class="node"><title>Node8</title>
<g id="a_node8"><a xlink:href="classpkg__commands_1_1DropCommand.html#a742e37b2d2dd4e111130811ee2f4dd0b" target="_top" xlink:title="Drop the Item through it&#39;s name in the parameter field. ">
<polygon fill="white" stroke="black" points="196,-315.5 196,-334.5 388,-334.5 388,-315.5 196,-315.5"/>
<text text-anchor="middle" x="292" y="-322.5" font-family="Helvetica,sans-Serif" font-size="10.00">pkg_commands.DropCommand.execute</text>
</a>
</g>
</g>
<!-- Node1&#45;&gt;Node8 -->
<g id="edge7" class="edge"><title>Node1&#45;&gt;Node8</title>
<path fill="none" stroke="midnightblue" d="M124.383,-286.513C143.391,-293.311 165.526,-300.645 186,-306 199.89,-309.633 214.993,-312.807 229.302,-315.468"/>
<polygon fill="midnightblue" stroke="midnightblue" points="125.347,-283.14 114.753,-283.021 122.96,-289.72 125.347,-283.14"/>
</g>
<!-- Node9 -->
<g id="node9" class="node"><title>Node9</title>
<g id="a_node9"><a xlink:href="classpkg__commands_1_1TalkCommand.html#a413573388e24a2d442f9814695f7e47c" target="_top" xlink:title="Make the player talk to a Character. ">
<polygon fill="white" stroke="black" points="197,-277.5 197,-296.5 387,-296.5 387,-277.5 197,-277.5"/>
<text text-anchor="middle" x="292" y="-284.5" font-family="Helvetica,sans-Serif" font-size="10.00">pkg_commands.TalkCommand.execute</text>
</a>
</g>
</g>
<!-- Node1&#45;&gt;Node9 -->
<g id="edge8" class="edge"><title>Node1&#45;&gt;Node9</title>
<path fill="none" stroke="midnightblue" d="M160.293,-275.449C172.33,-276.513 184.775,-277.613 196.984,-278.692"/>
<polygon fill="midnightblue" stroke="midnightblue" points="160.561,-271.959 150.292,-274.565 159.945,-278.932 160.561,-271.959"/>
</g>
<!-- Node10 -->
<g id="node10" class="node"><title>Node10</title>
<g id="a_node10"><a xlink:href="classpkg__commands_1_1EatCommand.html#a2a600f09891aa076b3f630293de965f4" target="_top" xlink:title="Make the player eat an object. ">
<polygon fill="white" stroke="black" points="199,-239.5 199,-258.5 385,-258.5 385,-239.5 199,-239.5"/>
<text text-anchor="middle" x="292" y="-246.5" font-family="Helvetica,sans-Serif" font-size="10.00">pkg_commands.EatCommand.execute</text>
</a>
</g>
</g>
<!-- Node1&#45;&gt;Node10 -->
<g id="edge9" class="edge"><title>Node1&#45;&gt;Node10</title>
<path fill="none" stroke="midnightblue" d="M160.325,-260.548C172.973,-259.43 186.071,-258.273 198.872,-257.142"/>
<polygon fill="midnightblue" stroke="midnightblue" points="159.945,-257.068 150.292,-261.435 160.561,-264.041 159.945,-257.068"/>
</g>
<!-- Node11 -->
<g id="node11" class="node"><title>Node11</title>
<g id="a_node11"><a xlink:href="classpkg__commands_1_1ThrowCommand.html#a38d936bcebcf45936324caf0f417b012" target="_top" xlink:title="Throw the Item through it&#39;s name in the parameter field. ">
<polygon fill="white" stroke="black" points="193,-201.5 193,-220.5 391,-220.5 391,-201.5 193,-201.5"/>
<text text-anchor="middle" x="292" y="-208.5" font-family="Helvetica,sans-Serif" font-size="10.00">pkg_commands.ThrowCommand.execute</text>
</a>
</g>
</g>
<!-- Node1&#45;&gt;Node11 -->
<g id="edge10" class="edge"><title>Node1&#45;&gt;Node11</title>
<path fill="none" stroke="midnightblue" d="M124.383,-249.487C143.391,-242.689 165.526,-235.355 186,-230 199.89,-226.367 214.993,-223.193 229.302,-220.532"/>
<polygon fill="midnightblue" stroke="midnightblue" points="122.96,-246.28 114.753,-252.979 125.347,-252.86 122.96,-246.28"/>
</g>
<!-- Node12 -->
<g id="node12" class="node"><title>Node12</title>
<g id="a_node12"><a xlink:href="classpkg__commands_1_1GiveCommand.html#a3a3cca7fae9b86d8ff85cc166564843d" target="_top" xlink:title="Make the player give an Item to a Character. ">
<polygon fill="white" stroke="black" points="196.5,-163.5 196.5,-182.5 387.5,-182.5 387.5,-163.5 196.5,-163.5"/>
<text text-anchor="middle" x="292" y="-170.5" font-family="Helvetica,sans-Serif" font-size="10.00">pkg_commands.GiveCommand.execute</text>
</a>
</g>
</g>
<!-- Node1&#45;&gt;Node12 -->
<g id="edge11" class="edge"><title>Node1&#45;&gt;Node12</title>
<path fill="none" stroke="midnightblue" d="M100.75,-246.258C121.932,-228.848 153.993,-205.224 186,-192 195.417,-188.109 205.634,-185.013 215.873,-182.55"/>
<polygon fill="midnightblue" stroke="midnightblue" points="98.3322,-243.718 92.9161,-252.824 102.829,-249.083 98.3322,-243.718"/>
</g>
<!-- Node13 -->
<g id="node13" class="node"><title>Node13</title>
<g id="a_node13"><a xlink:href="classpkg__commands_1_1TestCommand.html#a1ff07c27a46910d20c2e4569888892ca" target="_top" xlink:title="Test series of Commands stored in a .test file and store the messages in the message field...">
<polygon fill="white" stroke="black" points="196.5,-125.5 196.5,-144.5 387.5,-144.5 387.5,-125.5 196.5,-125.5"/>
<text text-anchor="middle" x="292" y="-132.5" font-family="Helvetica,sans-Serif" font-size="10.00">pkg_commands.TestCommand.execute</text>
</a>
</g>
</g>
<!-- Node1&#45;&gt;Node13 -->
<g id="edge12" class="edge"><title>Node1&#45;&gt;Node13</title>
<path fill="none" stroke="midnightblue" d="M91.6121,-244.578C110.613,-218.081 145.255,-175.793 186,-154 193.269,-150.112 201.184,-147.002 209.3,-144.516"/>
<polygon fill="midnightblue" stroke="midnightblue" points="88.6498,-242.706 85.7819,-252.905 94.3842,-246.721 88.6498,-242.706"/>
</g>
<!-- Node14 -->
<g id="node14" class="node"><title>Node14</title>
<g id="a_node14"><a xlink:href="classpkg__commands_1_1GoCommand.html#a82e9a64a0fac612f788060a90c83f9b1" target="_top" xlink:title="Make the player go to the Room through it&#39;s direction in the parameter field. ">
<polygon fill="white" stroke="black" points="676,-49.5 676,-68.5 860,-68.5 860,-49.5 676,-49.5"/>
<text text-anchor="middle" x="768" y="-56.5" font-family="Helvetica,sans-Serif" font-size="10.00">pkg_commands.GoCommand.execute</text>
</a>
</g>
</g>
<!-- Node1&#45;&gt;Node14 -->
<g id="edge13" class="edge"><title>Node1&#45;&gt;Node14</title>
<path fill="none" stroke="midnightblue" d="M86.0646,-243.073C101.687,-207.986 135.346,-145.075 186,-116 227.424,-92.2234 522.851,-72.5574 675.762,-63.8396"/>
<polygon fill="midnightblue" stroke="midnightblue" points="82.7066,-242.022 81.9666,-252.591 89.136,-244.79 82.7066,-242.022"/>
</g>
<!-- Node15 -->
<g id="node15" class="node"><title>Node15</title>
<g id="a_node15"><a xlink:href="classpkg__commands_1_1HelpCommand.html#a332d3e57539dfc82f8c539f8b3e24dd6" target="_top" xlink:title="Saves user&#39;s help in the parameter field. ">
<polygon fill="white" stroke="black" points="196.5,-49.5 196.5,-68.5 387.5,-68.5 387.5,-49.5 196.5,-49.5"/>
<text text-anchor="middle" x="292" y="-56.5" font-family="Helvetica,sans-Serif" font-size="10.00">pkg_commands.HelpCommand.execute</text>
</a>
</g>
</g>
<!-- Node1&#45;&gt;Node15 -->
<g id="edge14" class="edge"><title>Node1&#45;&gt;Node15</title>
<path fill="none" stroke="midnightblue" d="M83.5122,-243.431C97.1095,-203.281 129.736,-123.983 186,-83 194.615,-76.7245 204.6,-72.0538 214.916,-68.5843"/>
<polygon fill="midnightblue" stroke="midnightblue" points="80.1728,-242.382 80.3909,-252.975 86.826,-244.558 80.1728,-242.382"/>
</g>
<!-- Node16 -->
<g id="node16" class="node"><title>Node16</title>
<g id="a_node16"><a xlink:href="classpkg__commands_1_1GoCommand.html#a210afbc5f3ef34d3ad5759d853c8f8c2" target="_top" xlink:title="Go to the Room without checking. ">
<polygon fill="white" stroke="black" points="212,-0 212,-30 372,-30 372,-0 212,-0"/>
<text text-anchor="start" x="220" y="-18" font-family="Helvetica,sans-Serif" font-size="10.00">pkg_commands.GoCommand.go</text>
<text text-anchor="middle" x="292" y="-7" font-family="Helvetica,sans-Serif" font-size="10.00">RoomNoCheck</text>
</a>
</g>
</g>
<!-- Node1&#45;&gt;Node16 -->
<g id="edge15" class="edge"><title>Node1&#45;&gt;Node16</title>
<path fill="none" stroke="midnightblue" d="M80.7786,-242.667C91.1,-195.234 120.082,-93.035 186,-40 193.665,-33.8331 202.602,-29.1441 211.967,-25.5863"/>
<polygon fill="midnightblue" stroke="midnightblue" points="77.3004,-242.204 78.6977,-252.706 84.1547,-243.624 77.3004,-242.204"/>
</g>
<!-- Node3 -->
<g id="node3" class="node"><title>Node3</title>
<g id="a_node3"><a xlink:href="classpkg__commands_1_1BeamerCommand.html#a139dc852e180cabd8af15cfed37dcf0e" target="_top" xlink:title="Teleport to the remembered room or remember a room. ">
<polygon fill="white" stroke="black" points="434.5,-505.5 434.5,-524.5 639.5,-524.5 639.5,-505.5 434.5,-505.5"/>
<text text-anchor="middle" x="537" y="-512.5" font-family="Helvetica,sans-Serif" font-size="10.00">pkg_commands.BeamerCommand.execute</text>
</a>
</g>
</g>
<!-- Node2&#45;&gt;Node3 -->
<g id="edge2" class="edge"><title>Node2&#45;&gt;Node3</title>
<path fill="none" stroke="midnightblue" d="M402.355,-515C413.011,-515 423.794,-515 434.369,-515"/>
<polygon fill="midnightblue" stroke="midnightblue" points="402.188,-511.5 392.188,-515 402.188,-518.5 402.188,-511.5"/>
</g>
<!-- Node16&#45;&gt;Node14 -->
<g id="edge16" class="edge"><title>Node16&#45;&gt;Node14</title>
<path fill="none" stroke="midnightblue" d="M382.202,-31.6882C399.346,-34.4685 417.193,-37.0707 434,-39 515.561,-48.3626 608.896,-53.4888 675.96,-56.1995"/>
<polygon fill="midnightblue" stroke="midnightblue" points="382.639,-28.2131 372.202,-30.0343 381.497,-35.1192 382.639,-28.2131"/>
</g>
<!-- Node17 -->
<g id="node17" class="node"><title>Node17</title>
<g id="a_node17"><a xlink:href="classpkg__commands_1_1GoCommand.html#acbf1aa81fa5b1aef7cafb8b4e3ace3a9" target="_top" xlink:title="Check if the wanted Room is connected to the current Room and go to this room. ">
<polygon fill="white" stroke="black" points="457,-0 457,-30 617,-30 617,-0 457,-0"/>
<text text-anchor="start" x="465" y="-18" font-family="Helvetica,sans-Serif" font-size="10.00">pkg_commands.GoCommand.go</text>
<text text-anchor="middle" x="537" y="-7" font-family="Helvetica,sans-Serif" font-size="10.00">RoomCheck</text>
</a>
</g>
</g>
<!-- Node16&#45;&gt;Node17 -->
<g id="edge17" class="edge"><title>Node16&#45;&gt;Node17</title>
<path fill="none" stroke="midnightblue" d="M382.549,-15C406.917,-15 433.131,-15 456.877,-15"/>
<polygon fill="midnightblue" stroke="midnightblue" points="382.231,-11.5001 372.231,-15 382.231,-18.5001 382.231,-11.5001"/>
</g>
<!-- Node17&#45;&gt;Node14 -->
<g id="edge18" class="edge"><title>Node17&#45;&gt;Node14</title>
<path fill="none" stroke="midnightblue" d="M626.12,-31.9314C657.106,-37.885 690.817,-44.3623 717.492,-49.4876"/>
<polygon fill="midnightblue" stroke="midnightblue" points="626.649,-28.4691 616.168,-30.0192 625.328,-35.3433 626.649,-28.4691"/>
</g>
</g>
</svg>
