<?xml version="1.0" encoding="UTF-8" standalone="no"?>
<!DOCTYPE svg PUBLIC "-//W3C//DTD SVG 1.1//EN"
 "http://www.w3.org/Graphics/SVG/1.1/DTD/svg11.dtd">
<!-- Generated by graphviz version 2.36.0 (20140111.2315)
 -->
<!-- Title: pkg_commands.ThrowCommand.execute Pages: 1 -->
<svg width="394pt" height="136pt"
 viewBox="0.00 0.00 394.00 136.00" xmlns="http://www.w3.org/2000/svg" xmlns:xlink="http://www.w3.org/1999/xlink">
<g id="graph0" class="graph" transform="scale(1 1) rotate(0) translate(4 132)">
<title>pkg_commands.ThrowCommand.execute</title>
<polygon fill="white" stroke="none" points="-4,4 -4,-132 390,-132 390,4 -4,4"/>
<!-- Node1 -->
<g id="node1" class="node"><title>Node1</title>
<polygon fill="#bfbfbf" stroke="black" points="0,-54.5 0,-73.5 198,-73.5 198,-54.5 0,-54.5"/>
<text text-anchor="middle" x="99" y="-61.5" font-family="Helvetica,sans-Serif" font-size="10.00">pkg_commands.ThrowCommand.execute</text>
</g>
<!-- Node2 -->
<g id="node2" class="node"><title>Node2</title>
<g id="a_node2"><a xlink:href="classpkg__commands_1_1Command.html#a41c92d445be73ea9d62320c65efb8434" target="_top" xlink:title="Parameter field getter. ">
<polygon fill="white" stroke="black" points="235,-98 235,-128 385,-128 385,-98 235,-98"/>
<text text-anchor="start" x="243" y="-116" font-family="Helvetica,sans-Serif" font-size="10.00">pkg_commands.Command.get</text>
<text text-anchor="middle" x="310" y="-105" font-family="Helvetica,sans-Serif" font-size="10.00">Parameter</text>
</a>
</g>
</g>
<!-- Node1&#45;&gt;Node2 -->
<g id="edge1" class="edge"><title>Node1&#45;&gt;Node2</title>
<path fill="none" stroke="midnightblue" d="M140.793,-73.564C167.485,-79.8218 203.142,-88.1817 234.757,-95.5937"/>
<polygon fill="midnightblue" stroke="midnightblue" points="234.328,-99.088 244.863,-97.963 235.926,-92.2728 234.328,-99.088"/>
</g>
<!-- Node3 -->
<g id="node3" class="node"><title>Node3</title>
<g id="a_node3"><a xlink:href="classpkg__commands_1_1Command.html#a02af95ab3f1898a66259ab7c177b6998" target="_top" xlink:title="Return true if the parameter is null. ">
<polygon fill="white" stroke="black" points="234,-49 234,-79 386,-79 386,-49 234,-49"/>
<text text-anchor="start" x="242" y="-67" font-family="Helvetica,sans-Serif" font-size="10.00">pkg_commands.Command.has</text>
<text text-anchor="middle" x="310" y="-56" font-family="Helvetica,sans-Serif" font-size="10.00">Parameter</text>
</a>
</g>
</g>
<!-- Node1&#45;&gt;Node3 -->
<g id="edge2" class="edge"><title>Node1&#45;&gt;Node3</title>
<path fill="none" stroke="midnightblue" d="M198.074,-64C206.595,-64 215.172,-64 223.579,-64"/>
<polygon fill="midnightblue" stroke="midnightblue" points="223.734,-67.5001 233.734,-64 223.734,-60.5001 223.734,-67.5001"/>
</g>
<!-- Node4 -->
<g id="node4" class="node"><title>Node4</title>
<g id="a_node4"><a xlink:href="classpkg__commands_1_1Command.html#ae210ff216fe908b111ba1c988a963d13" target="_top" xlink:title="Message field setter. ">
<polygon fill="white" stroke="black" points="235,-0 235,-30 385,-30 385,-0 235,-0"/>
<text text-anchor="start" x="243" y="-18" font-family="Helvetica,sans-Serif" font-size="10.00">pkg_commands.Command.set</text>
<text text-anchor="middle" x="310" y="-7" font-family="Helvetica,sans-Serif" font-size="10.00">Message</text>
</a>
</g>
</g>
<!-- Node1&#45;&gt;Node4 -->
<g id="edge3" class="edge"><title>Node1&#45;&gt;Node4</title>
<path fill="none" stroke="midnightblue" d="M140.793,-54.436C167.485,-48.1782 203.142,-39.8183 234.757,-32.4063"/>
<polygon fill="midnightblue" stroke="midnightblue" points="235.926,-35.7272 244.863,-30.037 234.328,-28.912 235.926,-35.7272"/>
</g>
</g>
</svg>
