<?xml version="1.0" encoding="UTF-8" standalone="no"?>
<!DOCTYPE svg PUBLIC "-//W3C//DTD SVG 1.1//EN"
 "http://www.w3.org/Graphics/SVG/1.1/DTD/svg11.dtd">
<!-- Generated by graphviz version 2.36.0 (20140111.2315)
 -->
<!-- Title: pkg_commands.Command.setMessage Pages: 1 -->
<svg width="868pt" height="419pt"
 viewBox="0.00 0.00 868.00 419.00" xmlns="http://www.w3.org/2000/svg" xmlns:xlink="http://www.w3.org/1999/xlink">
<g id="graph0" class="graph" transform="scale(1 1) rotate(0) translate(4 415)">
<title>pkg_commands.Command.setMessage</title>
<polygon fill="white" stroke="none" points="-4,4 -4,-415 864,-415 864,4 -4,4"/>
<!-- Node1 -->
<g id="node1" class="node"><title>Node1</title>
<polygon fill="#bfbfbf" stroke="black" points="0,-196 0,-226 150,-226 150,-196 0,-196"/>
<text text-anchor="start" x="8" y="-214" font-family="Helvetica,sans-Serif" font-size="10.00">pkg_commands.Command.set</text>
<text text-anchor="middle" x="75" y="-203" font-family="Helvetica,sans-Serif" font-size="10.00">Message</text>
</g>
<!-- Node2 -->
<g id="node2" class="node"><title>Node2</title>
<g id="a_node2"><a xlink:href="classpkg__commands_1_1BeamerCommand.html#ae71665296a18d581ad1f714c1078e37b" target="_top" xlink:title="pkg_commands.BeamerCommand.charge">
<polygon fill="white" stroke="black" points="192,-391.5 192,-410.5 392,-410.5 392,-391.5 192,-391.5"/>
<text text-anchor="middle" x="292" y="-398.5" font-family="Helvetica,sans-Serif" font-size="10.00">pkg_commands.BeamerCommand.charge</text>
</a>
</g>
</g>
<!-- Node1&#45;&gt;Node2 -->
<g id="edge1" class="edge"><title>Node1&#45;&gt;Node2</title>
<path fill="none" stroke="midnightblue" d="M84.5663,-235.861C99.0609,-273.938 132.211,-346.056 186,-382 191.699,-385.808 197.944,-388.913 204.458,-391.437"/>
<polygon fill="midnightblue" stroke="midnightblue" points="87.7069,-234.26 80.9711,-226.082 81.1369,-236.675 87.7069,-234.26"/>
</g>
<!-- Node4 -->
<g id="node4" class="node"><title>Node4</title>
<g id="a_node4"><a xlink:href="classpkg__commands_1_1CreditsCommand.html#aad2b955c6c8a4c3536e6b937165b7790" target="_top" xlink:title="pkg_commands.CreditsCommand.execute">
<polygon fill="white" stroke="black" points="190.5,-353.5 190.5,-372.5 393.5,-372.5 393.5,-353.5 190.5,-353.5"/>
<text text-anchor="middle" x="292" y="-360.5" font-family="Helvetica,sans-Serif" font-size="10.00">pkg_commands.CreditsCommand.execute</text>
</a>
</g>
</g>
<!-- Node1&#45;&gt;Node4 -->
<g id="edge3" class="edge"><title>Node1&#45;&gt;Node4</title>
<path fill="none" stroke="midnightblue" d="M88.7766,-235.091C106.354,-265.69 140.999,-317.67 186,-344 192.556,-347.836 199.705,-350.93 207.089,-353.422"/>
<polygon fill="midnightblue" stroke="midnightblue" points="91.814,-233.352 83.8769,-226.334 85.7051,-236.77 91.814,-233.352"/>
</g>
<!-- Node5 -->
<g id="node5" class="node"><title>Node5</title>
<g id="a_node5"><a xlink:href="classpkg__commands_1_1InventoryCommand.html#a16ce9e3db461ecb7c4a50d2bdef65022" target="_top" xlink:title="pkg_commands.InventoryCommand.execute">
<polygon fill="white" stroke="black" points="186,-315.5 186,-334.5 398,-334.5 398,-315.5 186,-315.5"/>
<text text-anchor="middle" x="292" y="-322.5" font-family="Helvetica,sans-Serif" font-size="10.00">pkg_commands.InventoryCommand.execute</text>
</a>
</g>
</g>
<!-- Node1&#45;&gt;Node5 -->
<g id="edge4" class="edge"><title>Node1&#45;&gt;Node5</title>
<path fill="none" stroke="midnightblue" d="M95.6563,-233.956C115.954,-256.074 149.702,-288.659 186,-306 194.191,-309.913 203.093,-313.024 212.134,-315.497"/>
<polygon fill="midnightblue" stroke="midnightblue" points="98.0925,-231.431 88.807,-226.329 92.8842,-236.108 98.0925,-231.431"/>
</g>
<!-- Node6 -->
<g id="node6" class="node"><title>Node6</title>
<g id="a_node6"><a xlink:href="classpkg__commands_1_1LookCommand.html#af336146fae1e14bf434d85a5acbcdcd7" target="_top" xlink:title="pkg_commands.LookCommand.execute">
<polygon fill="white" stroke="black" points="196,-277.5 196,-296.5 388,-296.5 388,-277.5 196,-277.5"/>
<text text-anchor="middle" x="292" y="-284.5" font-family="Helvetica,sans-Serif" font-size="10.00">pkg_commands.LookCommand.execute</text>
</a>
</g>
</g>
<!-- Node1&#45;&gt;Node6 -->
<g id="edge5" class="edge"><title>Node1&#45;&gt;Node6</title>
<path fill="none" stroke="midnightblue" d="M108.608,-231.196C129.914,-243.547 158.745,-258.709 186,-268 197.31,-271.856 209.586,-274.974 221.623,-277.483"/>
<polygon fill="midnightblue" stroke="midnightblue" points="110.357,-228.163 99.9647,-226.1 106.801,-234.194 110.357,-228.163"/>
</g>
<!-- Node7 -->
<g id="node7" class="node"><title>Node7</title>
<g id="a_node7"><a xlink:href="classpkg__commands_1_1TakeCommand.html#a17789062aaf2ab5747c7eeac118875cd" target="_top" xlink:title="pkg_commands.TakeCommand.execute">
<polygon fill="white" stroke="black" points="195.5,-239.5 195.5,-258.5 388.5,-258.5 388.5,-239.5 195.5,-239.5"/>
<text text-anchor="middle" x="292" y="-246.5" font-family="Helvetica,sans-Serif" font-size="10.00">pkg_commands.TakeCommand.execute</text>
</a>
</g>
</g>
<!-- Node1&#45;&gt;Node7 -->
<g id="edge6" class="edge"><title>Node1&#45;&gt;Node7</title>
<path fill="none" stroke="midnightblue" d="M160.447,-225.926C186.233,-230.483 213.875,-235.369 237.055,-239.466"/>
<polygon fill="midnightblue" stroke="midnightblue" points="160.748,-222.425 150.292,-224.131 159.53,-229.318 160.748,-222.425"/>
</g>
<!-- Node8 -->
<g id="node8" class="node"><title>Node8</title>
<g id="a_node8"><a xlink:href="classpkg__commands_1_1DropCommand.html#a742e37b2d2dd4e111130811ee2f4dd0b" target="_top" xlink:title="pkg_commands.DropCommand.execute">
<polygon fill="white" stroke="black" points="196,-201.5 196,-220.5 388,-220.5 388,-201.5 196,-201.5"/>
<text text-anchor="middle" x="292" y="-208.5" font-family="Helvetica,sans-Serif" font-size="10.00">pkg_commands.DropCommand.execute</text>
</a>
</g>
</g>
<!-- Node1&#45;&gt;Node8 -->
<g id="edge7" class="edge"><title>Node1&#45;&gt;Node8</title>
<path fill="none" stroke="midnightblue" d="M160.401,-211C172.032,-211 184.041,-211 195.849,-211"/>
<polygon fill="midnightblue" stroke="midnightblue" points="160.292,-207.5 150.292,-211 160.292,-214.5 160.292,-207.5"/>
</g>
<!-- Node9 -->
<g id="node9" class="node"><title>Node9</title>
<g id="a_node9"><a xlink:href="classpkg__commands_1_1EatCommand.html#a2a600f09891aa076b3f630293de965f4" target="_top" xlink:title="pkg_commands.EatCommand.execute">
<polygon fill="white" stroke="black" points="199,-163.5 199,-182.5 385,-182.5 385,-163.5 199,-163.5"/>
<text text-anchor="middle" x="292" y="-170.5" font-family="Helvetica,sans-Serif" font-size="10.00">pkg_commands.EatCommand.execute</text>
</a>
</g>
</g>
<!-- Node1&#45;&gt;Node9 -->
<g id="edge8" class="edge"><title>Node1&#45;&gt;Node9</title>
<path fill="none" stroke="midnightblue" d="M160.447,-196.074C186.233,-191.517 213.875,-186.631 237.055,-182.534"/>
<polygon fill="midnightblue" stroke="midnightblue" points="159.53,-192.682 150.292,-197.869 160.748,-199.575 159.53,-192.682"/>
</g>
<!-- Node10 -->
<g id="node10" class="node"><title>Node10</title>
<g id="a_node10"><a xlink:href="classpkg__commands_1_1GoCommand.html#a82e9a64a0fac612f788060a90c83f9b1" target="_top" xlink:title="pkg_commands.GoCommand.execute">
<polygon fill="white" stroke="black" points="676,-84.5 676,-103.5 860,-103.5 860,-84.5 676,-84.5"/>
<text text-anchor="middle" x="768" y="-91.5" font-family="Helvetica,sans-Serif" font-size="10.00">pkg_commands.GoCommand.execute</text>
</a>
</g>
</g>
<!-- Node1&#45;&gt;Node10 -->
<g id="edge9" class="edge"><title>Node1&#45;&gt;Node10</title>
<path fill="none" stroke="midnightblue" d="M107.552,-190.586C128.842,-177.856 158.051,-162.355 186,-154 275.323,-127.297 536.069,-107.999 675.903,-99.2453"/>
<polygon fill="midnightblue" stroke="midnightblue" points="105.652,-187.645 98.94,-195.843 109.299,-193.62 105.652,-187.645"/>
</g>
<!-- Node11 -->
<g id="node11" class="node"><title>Node11</title>
<g id="a_node11"><a xlink:href="classpkg__commands_1_1TestCommand.html#a1ff07c27a46910d20c2e4569888892ca" target="_top" xlink:title="pkg_commands.TestCommand.execute">
<polygon fill="white" stroke="black" points="196.5,-87.5 196.5,-106.5 387.5,-106.5 387.5,-87.5 196.5,-87.5"/>
<text text-anchor="middle" x="292" y="-94.5" font-family="Helvetica,sans-Serif" font-size="10.00">pkg_commands.TestCommand.execute</text>
</a>
</g>
</g>
<!-- Node1&#45;&gt;Node11 -->
<g id="edge10" class="edge"><title>Node1&#45;&gt;Node11</title>
<path fill="none" stroke="midnightblue" d="M97.1168,-188.574C117.823,-167.928 151.261,-138.005 186,-121 198.932,-114.67 213.584,-109.976 227.751,-106.507"/>
<polygon fill="midnightblue" stroke="midnightblue" points="94.6045,-186.137 90.0854,-195.72 99.594,-191.047 94.6045,-186.137"/>
</g>
<!-- Node12 -->
<g id="node12" class="node"><title>Node12</title>
<g id="a_node12"><a xlink:href="classpkg__commands_1_1HelpCommand.html#a332d3e57539dfc82f8c539f8b3e24dd6" target="_top" xlink:title="pkg_commands.HelpCommand.execute">
<polygon fill="white" stroke="black" points="196.5,-49.5 196.5,-68.5 387.5,-68.5 387.5,-49.5 196.5,-49.5"/>
<text text-anchor="middle" x="292" y="-56.5" font-family="Helvetica,sans-Serif" font-size="10.00">pkg_commands.HelpCommand.execute</text>
</a>
</g>
</g>
<!-- Node1&#45;&gt;Node12 -->
<g id="edge11" class="edge"><title>Node1&#45;&gt;Node12</title>
<path fill="none" stroke="midnightblue" d="M88.7766,-186.909C106.354,-156.31 140.999,-104.33 186,-78 192.556,-74.1643 199.705,-71.0699 207.089,-68.5777"/>
<polygon fill="midnightblue" stroke="midnightblue" points="85.7051,-185.23 83.8769,-195.666 91.814,-188.648 85.7051,-185.23"/>
</g>
<!-- Node13 -->
<g id="node13" class="node"><title>Node13</title>
<g id="a_node13"><a xlink:href="classpkg__commands_1_1GoCommand.html#a210afbc5f3ef34d3ad5759d853c8f8c2" target="_top" xlink:title="pkg_commands.GoCommand.go\lRoomNoCheck">
<polygon fill="white" stroke="black" points="212,-0 212,-30 372,-30 372,-0 212,-0"/>
<text text-anchor="start" x="220" y="-18" font-family="Helvetica,sans-Serif" font-size="10.00">pkg_commands.GoCommand.go</text>
<text text-anchor="middle" x="292" y="-7" font-family="Helvetica,sans-Serif" font-size="10.00">RoomNoCheck</text>
</a>
</g>
</g>
<!-- Node1&#45;&gt;Node13 -->
<g id="edge12" class="edge"><title>Node1&#45;&gt;Node13</title>
<path fill="none" stroke="midnightblue" d="M84.9205,-186.211C99.7988,-148.535 133.346,-77.3087 186,-40 193.798,-34.4748 202.656,-30.1589 211.842,-26.7896"/>
<polygon fill="midnightblue" stroke="midnightblue" points="81.5213,-185.301 81.2188,-195.891 88.0596,-187.801 81.5213,-185.301"/>
</g>
<!-- Node3 -->
<g id="node3" class="node"><title>Node3</title>
<g id="a_node3"><a xlink:href="classpkg__commands_1_1BeamerCommand.html#a139dc852e180cabd8af15cfed37dcf0e" target="_top" xlink:title="pkg_commands.BeamerCommand.execute">
<polygon fill="white" stroke="black" points="434.5,-391.5 434.5,-410.5 639.5,-410.5 639.5,-391.5 434.5,-391.5"/>
<text text-anchor="middle" x="537" y="-398.5" font-family="Helvetica,sans-Serif" font-size="10.00">pkg_commands.BeamerCommand.execute</text>
</a>
</g>
</g>
<!-- Node2&#45;&gt;Node3 -->
<g id="edge2" class="edge"><title>Node2&#45;&gt;Node3</title>
<path fill="none" stroke="midnightblue" d="M402.355,-401C413.011,-401 423.794,-401 434.369,-401"/>
<polygon fill="midnightblue" stroke="midnightblue" points="402.188,-397.5 392.188,-401 402.188,-404.5 402.188,-397.5"/>
</g>
<!-- Node14 -->
<g id="node14" class="node"><title>Node14</title>
<g id="a_node14"><a xlink:href="classpkg__commands_1_1GoCommand.html#acbf1aa81fa5b1aef7cafb8b4e3ace3a9" target="_top" xlink:title="pkg_commands.GoCommand.go\lRoomCheck">
<polygon fill="white" stroke="black" points="457,-38 457,-68 617,-68 617,-38 457,-38"/>
<text text-anchor="start" x="465" y="-56" font-family="Helvetica,sans-Serif" font-size="10.00">pkg_commands.GoCommand.go</text>
<text text-anchor="middle" x="537" y="-45" font-family="Helvetica,sans-Serif" font-size="10.00">RoomCheck</text>
</a>
</g>
</g>
<!-- Node13&#45;&gt;Node14 -->
<g id="edge13" class="edge"><title>Node13&#45;&gt;Node14</title>
<path fill="none" stroke="midnightblue" d="M382.223,-28.9525C406.683,-32.7776 433.025,-36.8969 456.877,-40.6268"/>
<polygon fill="midnightblue" stroke="midnightblue" points="382.652,-25.4772 372.231,-27.39 381.57,-32.3931 382.652,-25.4772"/>
</g>
<!-- Node14&#45;&gt;Node10 -->
<g id="edge14" class="edge"><title>Node14&#45;&gt;Node10</title>
<path fill="none" stroke="midnightblue" d="M627.356,-68.9981C656.575,-74.2295 688.092,-79.8724 713.777,-84.4711"/>
<polygon fill="midnightblue" stroke="midnightblue" points="627.59,-65.4845 617.129,-67.1673 626.356,-72.375 627.59,-65.4845"/>
</g>
</g>
</svg>
