<?xml version="1.0" encoding="UTF-8" standalone="no"?>
<!DOCTYPE svg PUBLIC "-//W3C//DTD SVG 1.1//EN"
 "http://www.w3.org/Graphics/SVG/1.1/DTD/svg11.dtd">
<!-- Generated by graphviz version 2.36.0 (20140111.2315)
 -->
<!-- Title: pkg_world.pkg_items.ItemList Pages: 1 -->
<svg width="154pt" height="172pt"
 viewBox="0.00 0.00 154.00 172.00" xmlns="http://www.w3.org/2000/svg" xmlns:xlink="http://www.w3.org/1999/xlink">
<g id="graph0" class="graph" transform="scale(1 1) rotate(0) translate(4 168)">
<title>pkg_world.pkg_items.ItemList</title>
<polygon fill="white" stroke="none" points="-4,4 -4,-168 150,-168 150,4 -4,4"/>
<!-- Node1 -->
<g id="node1" class="node"><title>Node1</title>
<polygon fill="#bfbfbf" stroke="black" points="-0.5,-0.5 -0.5,-57.5 146.5,-57.5 146.5,-0.5 -0.5,-0.5"/>
<text text-anchor="middle" x="73" y="-45.5" font-family="Helvetica,sans-Serif" font-size="10.00">pkg_world.pkg_items.ItemList</text>
<polyline fill="none" stroke="black" points="-0.5,-38.5 146.5,-38.5 "/>
<text text-anchor="middle" x="73" y="-26.5" font-family="Helvetica,sans-Serif" font-size="10.00"> </text>
<polyline fill="none" stroke="black" points="-0.5,-19.5 146.5,-19.5 "/>
<text text-anchor="start" x="7.5" y="-7.5" font-family="Helvetica,sans-Serif" font-size="10.00">+ transfer()</text>
</g>
<!-- Node2 -->
<g id="node2" class="node"><title>Node2</title>
<polygon fill="white" stroke="#bfbfbf" points="22.5,-95 22.5,-163 123.5,-163 123.5,-95 22.5,-95"/>
<text text-anchor="start" x="30.5" y="-151" font-family="Helvetica,sans-Serif" font-size="10.00">java::util::HashMap</text>
<text text-anchor="middle" x="73" y="-140" font-family="Helvetica,sans-Serif" font-size="10.00">&lt; String, Item &gt;</text>
<polyline fill="none" stroke="#bfbfbf" points="22.5,-133 123.5,-133 "/>
<text text-anchor="middle" x="73" y="-121" font-family="Helvetica,sans-Serif" font-size="10.00"> </text>
<polyline fill="none" stroke="#bfbfbf" points="22.5,-114 123.5,-114 "/>
<text text-anchor="middle" x="73" y="-102" font-family="Helvetica,sans-Serif" font-size="10.00"> </text>
</g>
<!-- Node2&#45;&gt;Node1 -->
<g id="edge1" class="edge"><title>Node2&#45;&gt;Node1</title>
<path fill="none" stroke="midnightblue" d="M73,-84.6379C73,-75.4553 73,-66.005 73,-57.6001"/>
<polygon fill="none" stroke="midnightblue" points="69.5001,-84.8216 73,-94.8217 76.5001,-84.8217 69.5001,-84.8216"/>
</g>
</g>
</svg>
