<?xml version="1.0" encoding="UTF-8" standalone="no"?>
<!DOCTYPE svg PUBLIC "-//W3C//DTD SVG 1.1//EN"
 "http://www.w3.org/Graphics/SVG/1.1/DTD/svg11.dtd">
<!-- Generated by graphviz version 2.36.0 (20140111.2315)
 -->
<!-- Title: GoCommand.goRoomNoCheck Pages: 1 -->
<svg width="492pt" height="28pt"
 viewBox="0.00 0.00 492.00 28.00" xmlns="http://www.w3.org/2000/svg" xmlns:xlink="http://www.w3.org/1999/xlink">
<g id="graph0" class="graph" transform="scale(1 1) rotate(0) translate(4 24)">
<title>GoCommand.goRoomNoCheck</title>
<polygon fill="white" stroke="none" points="-4,4 -4,-24 488,-24 488,4 -4,4"/>
<!-- Node1 -->
<g id="node1" class="node"><title>Node1</title>
<polygon fill="#bfbfbf" stroke="black" points="0.5,-0.5 0.5,-19.5 155.5,-19.5 155.5,-0.5 0.5,-0.5"/>
<text text-anchor="middle" x="78" y="-7.5" font-family="Helvetica,sans-Serif" font-size="10.00">GoCommand.goRoomNoCheck</text>
</g>
<!-- Node2 -->
<g id="node2" class="node"><title>Node2</title>
<g id="a_node2"><a xlink:href="classGoCommand.html#a1fce2ad8ed1faf41fa300064585b3616" target="_top" xlink:title="GoCommand.goRoomCheck">
<polygon fill="white" stroke="black" points="192.5,-0.5 192.5,-19.5 335.5,-19.5 335.5,-0.5 192.5,-0.5"/>
<text text-anchor="middle" x="264" y="-7.5" font-family="Helvetica,sans-Serif" font-size="10.00">GoCommand.goRoomCheck</text>
</a>
</g>
</g>
<!-- Node1&#45;&gt;Node2 -->
<g id="edge1" class="edge"><title>Node1&#45;&gt;Node2</title>
<path fill="none" stroke="midnightblue" d="M165.714,-10C174.623,-10 183.6,-10 192.306,-10"/>
<polygon fill="midnightblue" stroke="midnightblue" points="165.7,-6.5001 155.7,-10 165.7,-13.5001 165.7,-6.5001"/>
</g>
<!-- Node3 -->
<g id="node3" class="node"><title>Node3</title>
<g id="a_node3"><a xlink:href="classGoCommand.html#a77a61c2a3b89dca45b51e06f3bcb3ba7" target="_top" xlink:title="GoCommand.execute">
<polygon fill="white" stroke="black" points="372,-0.5 372,-19.5 484,-19.5 484,-0.5 372,-0.5"/>
<text text-anchor="middle" x="428" y="-7.5" font-family="Helvetica,sans-Serif" font-size="10.00">GoCommand.execute</text>
</a>
</g>
</g>
<!-- Node2&#45;&gt;Node3 -->
<g id="edge2" class="edge"><title>Node2&#45;&gt;Node3</title>
<path fill="none" stroke="midnightblue" d="M345.85,-10C354.617,-10 363.387,-10 371.748,-10"/>
<polygon fill="midnightblue" stroke="midnightblue" points="345.584,-6.5001 335.584,-10 345.584,-13.5001 345.584,-6.5001"/>
</g>
</g>
</svg>
