<?xml version="1.0" encoding="UTF-8" standalone="no"?>
<!DOCTYPE svg PUBLIC "-//W3C//DTD SVG 1.1//EN"
 "http://www.w3.org/Graphics/SVG/1.1/DTD/svg11.dtd">
<!-- Generated by graphviz version 2.36.0 (20140111.2315)
 -->
<!-- Title: UserInterface Pages: 1 -->
<svg width="110pt" height="216pt"
 viewBox="0.00 0.00 110.00 216.00" xmlns="http://www.w3.org/2000/svg" xmlns:xlink="http://www.w3.org/1999/xlink">
<g id="graph0" class="graph" transform="scale(1 1) rotate(0) translate(4 212)">
<title>UserInterface</title>
<polygon fill="white" stroke="none" points="-4,4 -4,-212 106,-212 106,4 -4,4"/>
<!-- Node1 -->
<g id="node1" class="node"><title>Node1</title>
<polygon fill="#bfbfbf" stroke="black" points="-0.5,-1 -0.5,-113 102.5,-113 102.5,-1 -0.5,-1"/>
<text text-anchor="middle" x="51" y="-101" font-family="Helvetica,sans-Serif" font-size="10.00">UserInterface</text>
<polyline fill="none" stroke="black" points="-0.5,-94 102.5,-94 "/>
<text text-anchor="middle" x="51" y="-82" font-family="Helvetica,sans-Serif" font-size="10.00"> </text>
<polyline fill="none" stroke="black" points="-0.5,-75 102.5,-75 "/>
<text text-anchor="start" x="7.5" y="-63" font-family="Helvetica,sans-Serif" font-size="10.00">+ UserInterface()</text>
<text text-anchor="start" x="7.5" y="-52" font-family="Helvetica,sans-Serif" font-size="10.00">+ print()</text>
<text text-anchor="start" x="7.5" y="-41" font-family="Helvetica,sans-Serif" font-size="10.00">+ println()</text>
<text text-anchor="start" x="7.5" y="-30" font-family="Helvetica,sans-Serif" font-size="10.00">+ showImage()</text>
<text text-anchor="start" x="7.5" y="-19" font-family="Helvetica,sans-Serif" font-size="10.00">+ enable()</text>
<text text-anchor="start" x="7.5" y="-8" font-family="Helvetica,sans-Serif" font-size="10.00">+ actionPerformed()</text>
</g>
<!-- Node2 -->
<g id="node2" class="node"><title>Node2</title>
<polygon fill="white" stroke="#bfbfbf" points="11.5,-150.5 11.5,-207.5 90.5,-207.5 90.5,-150.5 11.5,-150.5"/>
<text text-anchor="middle" x="51" y="-195.5" font-family="Helvetica,sans-Serif" font-size="10.00">ActionListener</text>
<polyline fill="none" stroke="#bfbfbf" points="11.5,-188.5 90.5,-188.5 "/>
<text text-anchor="middle" x="51" y="-176.5" font-family="Helvetica,sans-Serif" font-size="10.00"> </text>
<polyline fill="none" stroke="#bfbfbf" points="11.5,-169.5 90.5,-169.5 "/>
<text text-anchor="middle" x="51" y="-157.5" font-family="Helvetica,sans-Serif" font-size="10.00"> </text>
</g>
<!-- Node2&#45;&gt;Node1 -->
<g id="edge1" class="edge"><title>Node2&#45;&gt;Node1</title>
<path fill="none" stroke="midnightblue" d="M51,-140.398C51,-131.802 51,-122.49 51,-113.324"/>
<polygon fill="none" stroke="midnightblue" points="47.5001,-140.47 51,-150.47 54.5001,-140.47 47.5001,-140.47"/>
</g>
</g>
</svg>
