<?xml version="1.0" encoding="UTF-8" standalone="no"?>
<!DOCTYPE svg PUBLIC "-//W3C//DTD SVG 1.1//EN"
 "http://www.w3.org/Graphics/SVG/1.1/DTD/svg11.dtd">
<!-- Generated by graphviz version 2.36.0 (20140111.2315)
 -->
<!-- Title: pkg_commands.Command.getMessage Pages: 1 -->
<svg width="802pt" height="115pt"
 viewBox="0.00 0.00 802.00 115.00" xmlns="http://www.w3.org/2000/svg" xmlns:xlink="http://www.w3.org/1999/xlink">
<g id="graph0" class="graph" transform="scale(1 1) rotate(0) translate(4 111)">
<title>pkg_commands.Command.getMessage</title>
<polygon fill="white" stroke="none" points="-4,4 -4,-111 798,-111 798,4 -4,4"/>
<!-- Node1 -->
<g id="node1" class="node"><title>Node1</title>
<polygon fill="#bfbfbf" stroke="black" points="0,-44 0,-74 150,-74 150,-44 0,-44"/>
<text text-anchor="start" x="8" y="-62" font-family="Helvetica,sans-Serif" font-size="10.00">pkg_commands.Command.get</text>
<text text-anchor="middle" x="75" y="-51" font-family="Helvetica,sans-Serif" font-size="10.00">Message</text>
</g>
<!-- Node2 -->
<g id="node2" class="node"><title>Node2</title>
<g id="a_node2"><a xlink:href="classpkg__commands_1_1TestCommand.html#a1ff07c27a46910d20c2e4569888892ca" target="_top" xlink:title="pkg_commands.TestCommand.execute">
<polygon fill="white" stroke="black" points="186.5,-87.5 186.5,-106.5 377.5,-106.5 377.5,-87.5 186.5,-87.5"/>
<text text-anchor="middle" x="282" y="-94.5" font-family="Helvetica,sans-Serif" font-size="10.00">pkg_commands.TestCommand.execute</text>
</a>
</g>
</g>
<!-- Node1&#45;&gt;Node2 -->
<g id="edge1" class="edge"><title>Node1&#45;&gt;Node2</title>
<path fill="none" stroke="midnightblue" d="M160.014,-74.5734C183.587,-78.943 208.509,-83.5626 229.567,-87.4662"/>
<polygon fill="midnightblue" stroke="midnightblue" points="160.48,-71.1002 150.01,-72.7189 159.204,-77.9829 160.48,-71.1002"/>
</g>
<!-- Node3 -->
<g id="node3" class="node"><title>Node3</title>
<g id="a_node3"><a xlink:href="classpkg__commands_1_1HelpCommand.html#a332d3e57539dfc82f8c539f8b3e24dd6" target="_top" xlink:title="pkg_commands.HelpCommand.execute">
<polygon fill="white" stroke="black" points="186.5,-49.5 186.5,-68.5 377.5,-68.5 377.5,-49.5 186.5,-49.5"/>
<text text-anchor="middle" x="282" y="-56.5" font-family="Helvetica,sans-Serif" font-size="10.00">pkg_commands.HelpCommand.execute</text>
</a>
</g>
</g>
<!-- Node1&#45;&gt;Node3 -->
<g id="edge2" class="edge"><title>Node1&#45;&gt;Node3</title>
<path fill="none" stroke="midnightblue" d="M160.091,-59C168.764,-59 177.618,-59 186.395,-59"/>
<polygon fill="midnightblue" stroke="midnightblue" points="160.01,-55.5001 150.01,-59 160.01,-62.5001 160.01,-55.5001"/>
</g>
<!-- Node4 -->
<g id="node4" class="node"><title>Node4</title>
<g id="a_node4"><a xlink:href="classpkg__commands_1_1GoCommand.html#a210afbc5f3ef34d3ad5759d853c8f8c2" target="_top" xlink:title="pkg_commands.GoCommand.go\lRoomNoCheck">
<polygon fill="white" stroke="black" points="202,-0 202,-30 362,-30 362,-0 202,-0"/>
<text text-anchor="start" x="210" y="-18" font-family="Helvetica,sans-Serif" font-size="10.00">pkg_commands.GoCommand.go</text>
<text text-anchor="middle" x="282" y="-7" font-family="Helvetica,sans-Serif" font-size="10.00">RoomNoCheck</text>
</a>
</g>
</g>
<!-- Node1&#45;&gt;Node4 -->
<g id="edge3" class="edge"><title>Node1&#45;&gt;Node4</title>
<path fill="none" stroke="midnightblue" d="M155.95,-41.8399C174.116,-37.941 193.276,-33.8286 210.992,-30.0262"/>
<polygon fill="midnightblue" stroke="midnightblue" points="155.019,-38.4601 145.976,-43.9808 156.488,-45.3042 155.019,-38.4601"/>
</g>
<!-- Node5 -->
<g id="node5" class="node"><title>Node5</title>
<g id="a_node5"><a xlink:href="classpkg__commands_1_1GoCommand.html#acbf1aa81fa5b1aef7cafb8b4e3ace3a9" target="_top" xlink:title="pkg_commands.GoCommand.go\lRoomCheck">
<polygon fill="white" stroke="black" points="414,-0 414,-30 574,-30 574,-0 414,-0"/>
<text text-anchor="start" x="422" y="-18" font-family="Helvetica,sans-Serif" font-size="10.00">pkg_commands.GoCommand.go</text>
<text text-anchor="middle" x="494" y="-7" font-family="Helvetica,sans-Serif" font-size="10.00">RoomCheck</text>
</a>
</g>
</g>
<!-- Node4&#45;&gt;Node5 -->
<g id="edge4" class="edge"><title>Node4&#45;&gt;Node5</title>
<path fill="none" stroke="midnightblue" d="M372.135,-15C386.038,-15 400.321,-15 413.979,-15"/>
<polygon fill="midnightblue" stroke="midnightblue" points="372.093,-11.5001 362.093,-15 372.093,-18.5001 372.093,-11.5001"/>
</g>
<!-- Node6 -->
<g id="node6" class="node"><title>Node6</title>
<g id="a_node6"><a xlink:href="classpkg__commands_1_1GoCommand.html#a82e9a64a0fac612f788060a90c83f9b1" target="_top" xlink:title="pkg_commands.GoCommand.execute">
<polygon fill="white" stroke="black" points="610,-5.5 610,-24.5 794,-24.5 794,-5.5 610,-5.5"/>
<text text-anchor="middle" x="702" y="-12.5" font-family="Helvetica,sans-Serif" font-size="10.00">pkg_commands.GoCommand.execute</text>
</a>
</g>
</g>
<!-- Node5&#45;&gt;Node6 -->
<g id="edge5" class="edge"><title>Node5&#45;&gt;Node6</title>
<path fill="none" stroke="midnightblue" d="M584.284,-15C592.733,-15 601.307,-15 609.774,-15"/>
<polygon fill="midnightblue" stroke="midnightblue" points="584.056,-11.5001 574.056,-15 584.056,-18.5001 584.056,-11.5001"/>
</g>
</g>
</svg>
