<?xml version="1.0" encoding="UTF-8" standalone="no"?>
<!DOCTYPE svg PUBLIC "-//W3C//DTD SVG 1.1//EN"
 "http://www.w3.org/Graphics/SVG/1.1/DTD/svg11.dtd">
<!-- Generated by graphviz version 2.36.0 (20140111.2315)
 -->
<!-- Title: pkg_commands.GoCommand.goRoomNoCheck Pages: 1 -->
<svg width="584pt" height="60pt"
 viewBox="0.00 0.00 584.00 60.00" xmlns="http://www.w3.org/2000/svg" xmlns:xlink="http://www.w3.org/1999/xlink">
<g id="graph0" class="graph" transform="scale(1 1) rotate(0) translate(4 56)">
<title>pkg_commands.GoCommand.goRoomNoCheck</title>
<polygon fill="white" stroke="none" points="-4,4 -4,-56 580,-56 580,4 -4,4"/>
<!-- Node1 -->
<g id="node1" class="node"><title>Node1</title>
<polygon fill="#bfbfbf" stroke="black" points="0,-22 0,-52 160,-52 160,-22 0,-22"/>
<text text-anchor="start" x="8" y="-40" font-family="Helvetica,sans-Serif" font-size="10.00">pkg_commands.GoCommand.go</text>
<text text-anchor="middle" x="80" y="-29" font-family="Helvetica,sans-Serif" font-size="10.00">RoomNoCheck</text>
</g>
<!-- Node2 -->
<g id="node2" class="node"><title>Node2</title>
<g id="a_node2"><a xlink:href="classpkg__commands_1_1GoCommand.html#a82e9a64a0fac612f788060a90c83f9b1" target="_top" xlink:title="pkg_commands.GoCommand.execute">
<polygon fill="white" stroke="black" points="392,-27.5 392,-46.5 576,-46.5 576,-27.5 392,-27.5"/>
<text text-anchor="middle" x="484" y="-34.5" font-family="Helvetica,sans-Serif" font-size="10.00">pkg_commands.GoCommand.execute</text>
</a>
</g>
</g>
<!-- Node1&#45;&gt;Node2 -->
<g id="edge1" class="edge"><title>Node1&#45;&gt;Node2</title>
<path fill="none" stroke="midnightblue" d="M170.343,-38.706C179.014,-38.8258 187.676,-38.9276 196,-39 267.108,-39.6183 284.891,-39.5599 356,-39 367.577,-38.9089 379.746,-38.771 391.779,-38.6094"/>
<polygon fill="midnightblue" stroke="midnightblue" points="170.232,-35.2041 160.182,-38.5578 170.13,-42.2033 170.232,-35.2041"/>
</g>
<!-- Node3 -->
<g id="node3" class="node"><title>Node3</title>
<g id="a_node3"><a xlink:href="classpkg__commands_1_1GoCommand.html#acbf1aa81fa5b1aef7cafb8b4e3ace3a9" target="_top" xlink:title="pkg_commands.GoCommand.go\lRoomCheck">
<polygon fill="white" stroke="black" points="196,-0 196,-30 356,-30 356,-0 196,-0"/>
<text text-anchor="start" x="204" y="-18" font-family="Helvetica,sans-Serif" font-size="10.00">pkg_commands.GoCommand.go</text>
<text text-anchor="middle" x="276" y="-7" font-family="Helvetica,sans-Serif" font-size="10.00">RoomCheck</text>
</a>
</g>
</g>
<!-- Node1&#45;&gt;Node3 -->
<g id="edge2" class="edge"><title>Node1&#45;&gt;Node3</title>
<path fill="none" stroke="midnightblue" d="M170.157,-26.8894C178.696,-25.921 187.317,-24.9435 195.752,-23.9869"/>
<polygon fill="midnightblue" stroke="midnightblue" points="169.729,-23.4154 160.187,-28.02 170.518,-30.3709 169.729,-23.4154"/>
</g>
<!-- Node3&#45;&gt;Node2 -->
<g id="edge3" class="edge"><title>Node3&#45;&gt;Node2</title>
<path fill="none" stroke="midnightblue" d="M366,-24.5049C375.233,-25.4909 384.618,-26.4932 393.853,-27.4794"/>
<polygon fill="midnightblue" stroke="midnightblue" points="366.371,-21.0247 356.056,-23.4429 365.628,-27.9851 366.371,-21.0247"/>
</g>
</g>
</svg>
