<?xml version="1.0" encoding="UTF-8" standalone="no"?>
<!DOCTYPE svg PUBLIC "-//W3C//DTD SVG 1.1//EN"
 "http://www.w3.org/Graphics/SVG/1.1/DTD/svg11.dtd">
<!-- Generated by graphviz version 2.36.0 (20140111.2315)
 -->
<!-- Title: pkg_commands.HelpCommand.execute Pages: 1 -->
<svg width="414pt" height="126pt"
 viewBox="0.00 0.00 414.00 126.00" xmlns="http://www.w3.org/2000/svg" xmlns:xlink="http://www.w3.org/1999/xlink">
<g id="graph0" class="graph" transform="scale(1 1) rotate(0) translate(4 122)">
<title>pkg_commands.HelpCommand.execute</title>
<polygon fill="white" stroke="none" points="-4,4 -4,-122 410,-122 410,4 -4,4"/>
<!-- Node1 -->
<g id="node1" class="node"><title>Node1</title>
<polygon fill="#bfbfbf" stroke="black" points="0.5,-44.5 0.5,-63.5 191.5,-63.5 191.5,-44.5 0.5,-44.5"/>
<text text-anchor="middle" x="96" y="-51.5" font-family="Helvetica,sans-Serif" font-size="10.00">pkg_commands.HelpCommand.execute</text>
</g>
<!-- Node2 -->
<g id="node2" class="node"><title>Node2</title>
<g id="a_node2"><a xlink:href="classpkg__commands_1_1Command.html#ac2a42e2bab264821892daefaf9a18b6c" target="_top" xlink:title="Message field getter. ">
<polygon fill="white" stroke="black" points="242,-88 242,-118 392,-118 392,-88 242,-88"/>
<text text-anchor="start" x="250" y="-106" font-family="Helvetica,sans-Serif" font-size="10.00">pkg_commands.Command.get</text>
<text text-anchor="middle" x="317" y="-95" font-family="Helvetica,sans-Serif" font-size="10.00">Message</text>
</a>
</g>
</g>
<!-- Node1&#45;&gt;Node2 -->
<g id="edge1" class="edge"><title>Node1&#45;&gt;Node2</title>
<path fill="none" stroke="midnightblue" d="M139.485,-63.5058C167.554,-69.786 205.168,-78.2021 238.462,-85.6513"/>
<polygon fill="midnightblue" stroke="midnightblue" points="238.118,-89.1607 248.641,-87.9287 239.646,-82.3296 238.118,-89.1607"/>
</g>
<!-- Node3 -->
<g id="node3" class="node"><title>Node3</title>
<g id="a_node3"><a xlink:href="classpkg__commands_1_1Command.html#ae210ff216fe908b111ba1c988a963d13" target="_top" xlink:title="Message field setter. ">
<polygon fill="white" stroke="black" points="242,-39 242,-69 392,-69 392,-39 242,-39"/>
<text text-anchor="start" x="250" y="-57" font-family="Helvetica,sans-Serif" font-size="10.00">pkg_commands.Command.set</text>
<text text-anchor="middle" x="317" y="-46" font-family="Helvetica,sans-Serif" font-size="10.00">Message</text>
</a>
</g>
</g>
<!-- Node1&#45;&gt;Node3 -->
<g id="edge2" class="edge"><title>Node1&#45;&gt;Node3</title>
<path fill="none" stroke="midnightblue" d="M191.783,-54C205.009,-54 218.527,-54 231.546,-54"/>
<polygon fill="midnightblue" stroke="midnightblue" points="231.865,-57.5001 241.865,-54 231.865,-50.5001 231.865,-57.5001"/>
</g>
<!-- Node4 -->
<g id="node4" class="node"><title>Node4</title>
<g id="a_node4"><a xlink:href="classpkg__parsing_1_1Parser.html#a31545cdbdb409aaeb727289c0ea7be1b" target="_top" xlink:title="Getter for the knownCommands field of the commands field. ">
<polygon fill="white" stroke="black" points="228.5,-0.5 228.5,-19.5 405.5,-19.5 405.5,-0.5 228.5,-0.5"/>
<text text-anchor="middle" x="317" y="-7.5" font-family="Helvetica,sans-Serif" font-size="10.00">pkg_parsing.Parser.showCommands</text>
</a>
</g>
</g>
<!-- Node1&#45;&gt;Node4 -->
<g id="edge3" class="edge"><title>Node1&#45;&gt;Node4</title>
<path fill="none" stroke="midnightblue" d="M144.52,-44.4527C177.953,-37.7355 222.881,-28.7089 258.362,-21.5802"/>
<polygon fill="midnightblue" stroke="midnightblue" points="259.458,-24.93 268.573,-19.5287 258.079,-18.0671 259.458,-24.93"/>
</g>
</g>
</svg>
