<?xml version="1.0" encoding="UTF-8" standalone="no"?>
<!DOCTYPE svg PUBLIC "-//W3C//DTD SVG 1.1//EN"
 "http://www.w3.org/Graphics/SVG/1.1/DTD/svg11.dtd">
<!-- Generated by graphviz version 2.36.0 (20140111.2315)
 -->
<!-- Title: pkg_commands.GiveCommand.execute Pages: 1 -->
<svg width="388pt" height="381pt"
 viewBox="0.00 0.00 388.00 381.00" xmlns="http://www.w3.org/2000/svg" xmlns:xlink="http://www.w3.org/1999/xlink">
<g id="graph0" class="graph" transform="scale(1 1) rotate(0) translate(4 377)">
<title>pkg_commands.GiveCommand.execute</title>
<polygon fill="white" stroke="none" points="-4,4 -4,-377 384,-377 384,4 -4,4"/>
<!-- Node1 -->
<g id="node1" class="node"><title>Node1</title>
<polygon fill="#bfbfbf" stroke="black" points="0.5,-176.5 0.5,-195.5 191.5,-195.5 191.5,-176.5 0.5,-176.5"/>
<text text-anchor="middle" x="96" y="-183.5" font-family="Helvetica,sans-Serif" font-size="10.00">pkg_commands.GiveCommand.execute</text>
</g>
<!-- Node2 -->
<g id="node2" class="node"><title>Node2</title>
<g id="a_node2"><a xlink:href="classpkg__commands_1_1Command.html#a41c92d445be73ea9d62320c65efb8434" target="_top" xlink:title="Parameter field getter. ">
<polygon fill="white" stroke="black" points="229,-343 229,-373 379,-373 379,-343 229,-343"/>
<text text-anchor="start" x="237" y="-361" font-family="Helvetica,sans-Serif" font-size="10.00">pkg_commands.Command.get</text>
<text text-anchor="middle" x="304" y="-350" font-family="Helvetica,sans-Serif" font-size="10.00">Parameter</text>
</a>
</g>
</g>
<!-- Node1&#45;&gt;Node2 -->
<g id="edge1" class="edge"><title>Node1&#45;&gt;Node2</title>
<path fill="none" stroke="midnightblue" d="M103.065,-195.818C119.725,-221.99 168.901,-294.084 228,-333 231.106,-335.045 234.394,-336.937 237.792,-338.686"/>
<polygon fill="midnightblue" stroke="midnightblue" points="236.449,-341.922 246.99,-342.987 239.414,-335.581 236.449,-341.922"/>
</g>
<!-- Node3 -->
<g id="node3" class="node"><title>Node3</title>
<g id="a_node3"><a xlink:href="classpkg__commands_1_1Command.html#a20d3ebdc0683a87b43be2a92a1cad111" target="_top" xlink:title="Second Parameter field getter. ">
<polygon fill="white" stroke="black" points="229,-294 229,-324 379,-324 379,-294 229,-294"/>
<text text-anchor="start" x="237" y="-312" font-family="Helvetica,sans-Serif" font-size="10.00">pkg_commands.Command.get</text>
<text text-anchor="middle" x="304" y="-301" font-family="Helvetica,sans-Serif" font-size="10.00">SecondParameter</text>
</a>
</g>
</g>
<!-- Node1&#45;&gt;Node3 -->
<g id="edge2" class="edge"><title>Node1&#45;&gt;Node3</title>
<path fill="none" stroke="midnightblue" d="M107.41,-195.668C128.604,-214.903 178.925,-258.325 228,-284 232.188,-286.191 236.607,-288.245 241.118,-290.159"/>
<polygon fill="midnightblue" stroke="midnightblue" points="239.878,-293.433 250.463,-293.891 242.474,-286.932 239.878,-293.433"/>
</g>
<!-- Node4 -->
<g id="node4" class="node"><title>Node4</title>
<g id="a_node4"><a xlink:href="classpkg__commands_1_1Command.html#a02af95ab3f1898a66259ab7c177b6998" target="_top" xlink:title="Return true if the parameter is null. ">
<polygon fill="white" stroke="black" points="228,-245 228,-275 380,-275 380,-245 228,-245"/>
<text text-anchor="start" x="236" y="-263" font-family="Helvetica,sans-Serif" font-size="10.00">pkg_commands.Command.has</text>
<text text-anchor="middle" x="304" y="-252" font-family="Helvetica,sans-Serif" font-size="10.00">Parameter</text>
</a>
</g>
</g>
<!-- Node1&#45;&gt;Node4 -->
<g id="edge3" class="edge"><title>Node1&#45;&gt;Node4</title>
<path fill="none" stroke="midnightblue" d="M122.015,-195.664C148.305,-205.748 190.913,-221.888 228,-235 234.26,-237.213 240.832,-239.483 247.375,-241.708"/>
<polygon fill="midnightblue" stroke="midnightblue" points="246.306,-245.041 256.9,-244.925 248.546,-238.409 246.306,-245.041"/>
</g>
<!-- Node5 -->
<g id="node5" class="node"><title>Node5</title>
<g id="a_node5"><a xlink:href="classpkg__commands_1_1Command.html#add688a76d80576c34f23927da19b9e2d" target="_top" xlink:title="Return true if the second parameter is null. ">
<polygon fill="white" stroke="black" points="228,-196 228,-226 380,-226 380,-196 228,-196"/>
<text text-anchor="start" x="236" y="-214" font-family="Helvetica,sans-Serif" font-size="10.00">pkg_commands.Command.has</text>
<text text-anchor="middle" x="304" y="-203" font-family="Helvetica,sans-Serif" font-size="10.00">SecondParameter</text>
</a>
</g>
</g>
<!-- Node1&#45;&gt;Node5 -->
<g id="edge4" class="edge"><title>Node1&#45;&gt;Node5</title>
<path fill="none" stroke="midnightblue" d="M175.467,-195.523C189.283,-197.199 203.724,-198.952 217.715,-200.65"/>
<polygon fill="midnightblue" stroke="midnightblue" points="217.46,-204.144 227.808,-201.875 218.303,-197.195 217.46,-204.144"/>
</g>
<!-- Node6 -->
<g id="node6" class="node"><title>Node6</title>
<g id="a_node6"><a xlink:href="classpkg__world_1_1pkg__characters_1_1Character.html#ae18c62b235802dd5bfacf662f0a1d17d" target="_top" xlink:title="pkg_world.pkg_characters.\lCharacter.isSatisfied">
<polygon fill="white" stroke="black" points="237,-147 237,-177 371,-177 371,-147 237,-147"/>
<text text-anchor="start" x="245" y="-165" font-family="Helvetica,sans-Serif" font-size="10.00">pkg_world.pkg_characters.</text>
<text text-anchor="middle" x="304" y="-154" font-family="Helvetica,sans-Serif" font-size="10.00">Character.isSatisfied</text>
</a>
</g>
</g>
<!-- Node1&#45;&gt;Node6 -->
<g id="edge5" class="edge"><title>Node1&#45;&gt;Node6</title>
<path fill="none" stroke="midnightblue" d="M178.713,-176.48C194.562,-174.634 211.114,-172.705 226.779,-170.88"/>
<polygon fill="midnightblue" stroke="midnightblue" points="227.4,-174.331 236.928,-169.698 226.59,-167.379 227.4,-174.331"/>
</g>
<!-- Node7 -->
<g id="node7" class="node"><title>Node7</title>
<g id="a_node7"><a xlink:href="classpkg__commands_1_1Command.html#ae210ff216fe908b111ba1c988a963d13" target="_top" xlink:title="Message field setter. ">
<polygon fill="white" stroke="black" points="229,-98 229,-128 379,-128 379,-98 229,-98"/>
<text text-anchor="start" x="237" y="-116" font-family="Helvetica,sans-Serif" font-size="10.00">pkg_commands.Command.set</text>
<text text-anchor="middle" x="304" y="-105" font-family="Helvetica,sans-Serif" font-size="10.00">Message</text>
</a>
</g>
</g>
<!-- Node1&#45;&gt;Node7 -->
<g id="edge6" class="edge"><title>Node1&#45;&gt;Node7</title>
<path fill="none" stroke="midnightblue" d="M122.524,-176.395C148.867,-166.541 191.19,-150.876 228,-138 234.267,-135.808 240.844,-133.551 247.389,-131.333"/>
<polygon fill="midnightblue" stroke="midnightblue" points="248.558,-134.633 256.917,-128.123 246.323,-127.999 248.558,-134.633"/>
</g>
<!-- Node8 -->
<g id="node8" class="node"><title>Node8</title>
<g id="a_node8"><a xlink:href="classpkg__world_1_1pkg__characters_1_1Character.html#a0fb83fcff9b37c94eac3fb35868bebb2" target="_top" xlink:title="Try to give him an Item. ">
<polygon fill="white" stroke="black" points="237,-49 237,-79 371,-79 371,-49 237,-49"/>
<text text-anchor="start" x="245" y="-67" font-family="Helvetica,sans-Serif" font-size="10.00">pkg_world.pkg_characters.</text>
<text text-anchor="middle" x="304" y="-56" font-family="Helvetica,sans-Serif" font-size="10.00">Character.takeItem</text>
</a>
</g>
</g>
<!-- Node1&#45;&gt;Node8 -->
<g id="edge7" class="edge"><title>Node1&#45;&gt;Node8</title>
<path fill="none" stroke="midnightblue" d="M107.43,-176.439C128.66,-157.415 179.041,-114.461 228,-89 232.193,-86.8192 236.616,-84.7727 241.13,-82.8639"/>
<polygon fill="midnightblue" stroke="midnightblue" points="242.484,-86.0919 250.48,-79.1402 239.894,-79.5886 242.484,-86.0919"/>
</g>
<!-- Node9 -->
<g id="node9" class="node"><title>Node9</title>
<g id="a_node9"><a xlink:href="classpkg__world_1_1pkg__characters_1_1Character.html#a816f8f79ef1e8c9635f0cdeb180b9f3f" target="_top" xlink:title="Returns true if the given Item is wanted by the creature/character. ">
<polygon fill="white" stroke="black" points="237,-0 237,-30 371,-30 371,-0 237,-0"/>
<text text-anchor="start" x="245" y="-18" font-family="Helvetica,sans-Serif" font-size="10.00">pkg_world.pkg_characters.</text>
<text text-anchor="middle" x="304" y="-7" font-family="Helvetica,sans-Serif" font-size="10.00">Character.wantsItem</text>
</a>
</g>
</g>
<!-- Node1&#45;&gt;Node9 -->
<g id="edge8" class="edge"><title>Node1&#45;&gt;Node9</title>
<path fill="none" stroke="midnightblue" d="M103.083,-176.251C119.786,-150.261 169.059,-78.6688 228,-40 231.109,-37.9601 234.4,-36.072 237.8,-34.3264"/>
<polygon fill="midnightblue" stroke="midnightblue" points="239.421,-37.4324 247.003,-30.032 236.461,-31.0891 239.421,-37.4324"/>
</g>
</g>
</svg>
