<?xml version="1.0" encoding="UTF-8" standalone="no"?>
<!DOCTYPE svg PUBLIC "-//W3C//DTD SVG 1.1//EN"
 "http://www.w3.org/Graphics/SVG/1.1/DTD/svg11.dtd">
<!-- Generated by graphviz version 2.36.0 (20140111.2315)
 -->
<!-- Title: pkg_commands.InventoryCommand.execute Pages: 1 -->
<svg width="406pt" height="77pt"
 viewBox="0.00 0.00 406.00 77.00" xmlns="http://www.w3.org/2000/svg" xmlns:xlink="http://www.w3.org/1999/xlink">
<g id="graph0" class="graph" transform="scale(1 1) rotate(0) translate(4 73)">
<title>pkg_commands.InventoryCommand.execute</title>
<polygon fill="white" stroke="none" points="-4,4 -4,-73 402,-73 402,4 -4,4"/>
<!-- Node1 -->
<g id="node1" class="node"><title>Node1</title>
<polygon fill="#bfbfbf" stroke="black" points="0,-27.5 0,-46.5 212,-46.5 212,-27.5 0,-27.5"/>
<text text-anchor="middle" x="106" y="-34.5" font-family="Helvetica,sans-Serif" font-size="10.00">pkg_commands.InventoryCommand.execute</text>
</g>
<!-- Node2 -->
<g id="node2" class="node"><title>Node2</title>
<g id="a_node2"><a xlink:href="classpkg__world_1_1Player.html#a2a6e491f41e159bbac42022e55df2d52" target="_top" xlink:title="Return a String containing information about the items carried by the player. ">
<polygon fill="white" stroke="black" points="248.5,-49.5 248.5,-68.5 397.5,-68.5 397.5,-49.5 248.5,-49.5"/>
<text text-anchor="middle" x="323" y="-56.5" font-family="Helvetica,sans-Serif" font-size="10.00">pkg_world.Player.getInventory</text>
</a>
</g>
</g>
<!-- Node1&#45;&gt;Node2 -->
<g id="edge1" class="edge"><title>Node1&#45;&gt;Node2</title>
<path fill="none" stroke="midnightblue" d="M200.052,-46.5216C212.642,-47.8099 225.501,-49.1257 237.922,-50.3967"/>
<polygon fill="midnightblue" stroke="midnightblue" points="237.933,-53.916 248.237,-51.4522 238.645,-46.9523 237.933,-53.916"/>
</g>
<!-- Node3 -->
<g id="node3" class="node"><title>Node3</title>
<g id="a_node3"><a xlink:href="classpkg__commands_1_1Command.html#ae210ff216fe908b111ba1c988a963d13" target="_top" xlink:title="Message field setter. ">
<polygon fill="white" stroke="black" points="248,-0 248,-30 398,-30 398,-0 248,-0"/>
<text text-anchor="start" x="256" y="-18" font-family="Helvetica,sans-Serif" font-size="10.00">pkg_commands.Command.set</text>
<text text-anchor="middle" x="323" y="-7" font-family="Helvetica,sans-Serif" font-size="10.00">Message</text>
</a>
</g>
</g>
<!-- Node1&#45;&gt;Node3 -->
<g id="edge2" class="edge"><title>Node1&#45;&gt;Node3</title>
<path fill="none" stroke="midnightblue" d="M200.052,-27.4784C212.553,-26.1992 225.32,-24.8928 237.66,-23.6302"/>
<polygon fill="midnightblue" stroke="midnightblue" points="238.318,-27.0812 247.909,-22.5814 237.605,-20.1176 238.318,-27.0812"/>
</g>
</g>
</svg>
