<?xml version="1.0" encoding="UTF-8" standalone="no"?>
<!DOCTYPE svg PUBLIC "-//W3C//DTD SVG 1.1//EN"
 "http://www.w3.org/Graphics/SVG/1.1/DTD/svg11.dtd">
<!-- Generated by graphviz version 2.36.0 (20140111.2315)
 -->
<!-- Title: pkg_world.Player.threwSnowball Pages: 1 -->
<svg width="360pt" height="66pt"
 viewBox="0.00 0.00 360.00 66.00" xmlns="http://www.w3.org/2000/svg" xmlns:xlink="http://www.w3.org/1999/xlink">
<g id="graph0" class="graph" transform="scale(1 1) rotate(0) translate(4 62)">
<title>pkg_world.Player.threwSnowball</title>
<polygon fill="white" stroke="none" points="-4,4 -4,-62 356,-62 356,4 -4,4"/>
<!-- Node1 -->
<g id="node1" class="node"><title>Node1</title>
<polygon fill="#bfbfbf" stroke="black" points="0,-19.5 0,-38.5 158,-38.5 158,-19.5 0,-19.5"/>
<text text-anchor="middle" x="79" y="-26.5" font-family="Helvetica,sans-Serif" font-size="10.00">pkg_world.Player.threwSnowball</text>
</g>
<!-- Node2 -->
<g id="node2" class="node"><title>Node2</title>
<g id="a_node2"><a xlink:href="classpkg__world_1_1Player.html#a8a48bf28cae733a412a0114802a1e4fb" target="_top" xlink:title="Player class constructor. ">
<polygon fill="white" stroke="black" points="212,-38.5 212,-57.5 334,-57.5 334,-38.5 212,-38.5"/>
<text text-anchor="middle" x="273" y="-45.5" font-family="Helvetica,sans-Serif" font-size="10.00">pkg_world.Player.Player</text>
</a>
</g>
</g>
<!-- Node1&#45;&gt;Node2 -->
<g id="edge1" class="edge"><title>Node1&#45;&gt;Node2</title>
<path fill="none" stroke="midnightblue" d="M168.271,-37.7351C183.053,-39.198 198.081,-40.6851 211.941,-42.0567"/>
<polygon fill="midnightblue" stroke="midnightblue" points="168.39,-34.2299 158.094,-36.728 167.7,-41.1959 168.39,-34.2299"/>
</g>
<!-- Node3 -->
<g id="node3" class="node"><title>Node3</title>
<g id="a_node3"><a xlink:href="classpkg__world_1_1Player.html#af27044cbbd51c6a1e7658e797563ca22" target="_top" xlink:title="Set the threwSnowball field to true. ">
<polygon fill="white" stroke="black" points="194,-0.5 194,-19.5 352,-19.5 352,-0.5 194,-0.5"/>
<text text-anchor="middle" x="273" y="-7.5" font-family="Helvetica,sans-Serif" font-size="10.00">pkg_world.Player.throwSnowball</text>
</a>
</g>
</g>
<!-- Node1&#45;&gt;Node3 -->
<g id="edge2" class="edge"><title>Node1&#45;&gt;Node3</title>
<path fill="none" stroke="midnightblue" d="M168.153,-20.2766C176.769,-19.4239 185.47,-18.5629 193.975,-17.7212"/>
<polygon fill="midnightblue" stroke="midnightblue" points="167.7,-16.8041 158.094,-21.272 168.39,-23.7701 167.7,-16.8041"/>
</g>
</g>
</svg>
