<?xml version="1.0" encoding="UTF-8" standalone="no"?>
<!DOCTYPE svg PUBLIC "-//W3C//DTD SVG 1.1//EN"
 "http://www.w3.org/Graphics/SVG/1.1/DTD/svg11.dtd">
<!-- Generated by graphviz version 2.36.0 (20140111.2315)
 -->
<!-- Title: pkg_commands.BeamerCommand.execute Pages: 1 -->
<svg width="654pt" height="148pt"
 viewBox="0.00 0.00 654.00 148.00" xmlns="http://www.w3.org/2000/svg" xmlns:xlink="http://www.w3.org/1999/xlink">
<g id="graph0" class="graph" transform="scale(1 1) rotate(0) translate(4 144)">
<title>pkg_commands.BeamerCommand.execute</title>
<polygon fill="white" stroke="none" points="-4,4 -4,-144 650,-144 650,4 -4,4"/>
<!-- Node1 -->
<g id="node1" class="node"><title>Node1</title>
<polygon fill="#bfbfbf" stroke="black" points="0.5,-54.5 0.5,-73.5 205.5,-73.5 205.5,-54.5 0.5,-54.5"/>
<text text-anchor="middle" x="103" y="-61.5" font-family="Helvetica,sans-Serif" font-size="10.00">pkg_commands.BeamerCommand.execute</text>
</g>
<!-- Node2 -->
<g id="node2" class="node"><title>Node2</title>
<g id="a_node2"><a xlink:href="classpkg__commands_1_1BeamerCommand.html#ae71665296a18d581ad1f714c1078e37b" target="_top" xlink:title="pkg_commands.BeamerCommand.charge">
<polygon fill="white" stroke="black" points="242,-98.5 242,-117.5 442,-117.5 442,-98.5 242,-98.5"/>
<text text-anchor="middle" x="342" y="-105.5" font-family="Helvetica,sans-Serif" font-size="10.00">pkg_commands.BeamerCommand.charge</text>
</a>
</g>
</g>
<!-- Node1&#45;&gt;Node2 -->
<g id="edge1" class="edge"><title>Node1&#45;&gt;Node2</title>
<path fill="none" stroke="midnightblue" d="M155.425,-73.5473C191.917,-80.3222 241.063,-89.4463 279.611,-96.6029"/>
<polygon fill="midnightblue" stroke="midnightblue" points="279.204,-100.087 289.675,-98.4713 280.482,-93.2047 279.204,-100.087"/>
</g>
<!-- Node5 -->
<g id="node5" class="node"><title>Node5</title>
<g id="a_node5"><a xlink:href="classpkg__commands_1_1Command.html#a41c92d445be73ea9d62320c65efb8434" target="_top" xlink:title="pkg_commands.Command.get\lParameter">
<polygon fill="white" stroke="black" points="267,-49 267,-79 417,-79 417,-49 267,-49"/>
<text text-anchor="start" x="275" y="-67" font-family="Helvetica,sans-Serif" font-size="10.00">pkg_commands.Command.get</text>
<text text-anchor="middle" x="342" y="-56" font-family="Helvetica,sans-Serif" font-size="10.00">Parameter</text>
</a>
</g>
</g>
<!-- Node1&#45;&gt;Node5 -->
<g id="edge4" class="edge"><title>Node1&#45;&gt;Node5</title>
<path fill="none" stroke="midnightblue" d="M205.541,-64C222.604,-64 240.146,-64 256.712,-64"/>
<polygon fill="midnightblue" stroke="midnightblue" points="256.888,-67.5001 266.888,-64 256.888,-60.5001 256.888,-67.5001"/>
</g>
<!-- Node6 -->
<g id="node6" class="node"><title>Node6</title>
<g id="a_node6"><a xlink:href="classpkg__commands_1_1Command.html#a02af95ab3f1898a66259ab7c177b6998" target="_top" xlink:title="pkg_commands.Command.has\lParameter">
<polygon fill="white" stroke="black" points="266,-0 266,-30 418,-30 418,-0 266,-0"/>
<text text-anchor="start" x="274" y="-18" font-family="Helvetica,sans-Serif" font-size="10.00">pkg_commands.Command.has</text>
<text text-anchor="middle" x="342" y="-7" font-family="Helvetica,sans-Serif" font-size="10.00">Parameter</text>
</a>
</g>
</g>
<!-- Node1&#45;&gt;Node6 -->
<g id="edge5" class="edge"><title>Node1&#45;&gt;Node6</title>
<path fill="none" stroke="midnightblue" d="M149.977,-54.4942C180.615,-48.1598 221.762,-39.6527 258.02,-32.1562"/>
<polygon fill="midnightblue" stroke="midnightblue" points="259.02,-35.5236 268.104,-30.0713 257.603,-28.6685 259.02,-35.5236"/>
</g>
<!-- Node3 -->
<g id="node3" class="node"><title>Node3</title>
<g id="a_node3"><a xlink:href="classpkg__world_1_1Player.html#a81893b37cd26426863087f353f8be3ab" target="_top" xlink:title="pkg_world.Player.getBeamerRoom">
<polygon fill="white" stroke="black" points="478,-120.5 478,-139.5 646,-139.5 646,-120.5 478,-120.5"/>
<text text-anchor="middle" x="562" y="-127.5" font-family="Helvetica,sans-Serif" font-size="10.00">pkg_world.Player.getBeamerRoom</text>
</a>
</g>
</g>
<!-- Node2&#45;&gt;Node3 -->
<g id="edge2" class="edge"><title>Node2&#45;&gt;Node3</title>
<path fill="none" stroke="midnightblue" d="M437.35,-117.522C447.448,-118.541 457.716,-119.577 467.8,-120.595"/>
<polygon fill="midnightblue" stroke="midnightblue" points="467.509,-124.083 477.81,-121.605 468.212,-117.118 467.509,-124.083"/>
</g>
<!-- Node4 -->
<g id="node4" class="node"><title>Node4</title>
<g id="a_node4"><a xlink:href="classpkg__commands_1_1Command.html#ae210ff216fe908b111ba1c988a963d13" target="_top" xlink:title="pkg_commands.Command.set\lMessage">
<polygon fill="white" stroke="black" points="487,-71 487,-101 637,-101 637,-71 487,-71"/>
<text text-anchor="start" x="495" y="-89" font-family="Helvetica,sans-Serif" font-size="10.00">pkg_commands.Command.set</text>
<text text-anchor="middle" x="562" y="-78" font-family="Helvetica,sans-Serif" font-size="10.00">Message</text>
</a>
</g>
</g>
<!-- Node2&#45;&gt;Node4 -->
<g id="edge3" class="edge"><title>Node2&#45;&gt;Node4</title>
<path fill="none" stroke="midnightblue" d="M437.35,-98.4784C450.425,-97.1589 463.787,-95.8105 476.664,-94.511"/>
<polygon fill="midnightblue" stroke="midnightblue" points="477.274,-97.9673 486.872,-93.4808 476.571,-91.0027 477.274,-97.9673"/>
</g>
</g>
</svg>
