<?xml version="1.0" encoding="UTF-8" standalone="no"?>
<!DOCTYPE svg PUBLIC "-//W3C//DTD SVG 1.1//EN"
 "http://www.w3.org/Graphics/SVG/1.1/DTD/svg11.dtd">
<!-- Generated by graphviz version 2.36.0 (20140111.2315)
 -->
<!-- Title: BackCommand Pages: 1 -->
<svg width="116pt" height="366pt"
 viewBox="0.00 0.00 116.00 366.00" xmlns="http://www.w3.org/2000/svg" xmlns:xlink="http://www.w3.org/1999/xlink">
<g id="graph0" class="graph" transform="scale(1 1) rotate(0) translate(4 362)">
<title>BackCommand</title>
<polygon fill="white" stroke="none" points="-4,4 -4,-362 112,-362 112,4 -4,4"/>
<!-- Node1 -->
<g id="node1" class="node"><title>Node1</title>
<polygon fill="#bfbfbf" stroke="black" points="4.5,-1 4.5,-69 103.5,-69 103.5,-1 4.5,-1"/>
<text text-anchor="middle" x="54" y="-57" font-family="Helvetica,sans-Serif" font-size="10.00">BackCommand</text>
<polyline fill="none" stroke="black" points="4.5,-50 103.5,-50 "/>
<text text-anchor="middle" x="54" y="-38" font-family="Helvetica,sans-Serif" font-size="10.00"> </text>
<polyline fill="none" stroke="black" points="4.5,-31 103.5,-31 "/>
<text text-anchor="start" x="12.5" y="-19" font-family="Helvetica,sans-Serif" font-size="10.00">+ BackCommand()</text>
<text text-anchor="start" x="12.5" y="-8" font-family="Helvetica,sans-Serif" font-size="10.00">+ execute()</text>
</g>
<!-- Node2 -->
<g id="node2" class="node"><title>Node2</title>
<g id="a_node2"><a xlink:href="classGoCommand.html" target="_top" xlink:title="{GoCommand\n||+ GoCommand()\l+ execute()\l# goRoomCheck()\l# goRoomNoCheck()\l}">
<polygon fill="white" stroke="black" points="-0.5,-107 -0.5,-197 108.5,-197 108.5,-107 -0.5,-107"/>
<text text-anchor="middle" x="54" y="-185" font-family="Helvetica,sans-Serif" font-size="10.00">GoCommand</text>
<polyline fill="none" stroke="black" points="-0.5,-178 108.5,-178 "/>
<text text-anchor="middle" x="54" y="-166" font-family="Helvetica,sans-Serif" font-size="10.00"> </text>
<polyline fill="none" stroke="black" points="-0.5,-159 108.5,-159 "/>
<text text-anchor="start" x="7.5" y="-147" font-family="Helvetica,sans-Serif" font-size="10.00">+ GoCommand()</text>
<text text-anchor="start" x="7.5" y="-136" font-family="Helvetica,sans-Serif" font-size="10.00">+ execute()</text>
<text text-anchor="start" x="7.5" y="-125" font-family="Helvetica,sans-Serif" font-size="10.00"># goRoomCheck()</text>
<text text-anchor="start" x="7.5" y="-114" font-family="Helvetica,sans-Serif" font-size="10.00"># goRoomNoCheck()</text>
</a>
</g>
</g>
<!-- Node2&#45;&gt;Node1 -->
<g id="edge1" class="edge"><title>Node2&#45;&gt;Node1</title>
<path fill="none" stroke="midnightblue" d="M54,-96.7309C54,-87.3035 54,-77.7599 54,-69.1181"/>
<polygon fill="none" stroke="midnightblue" points="50.5001,-96.8669 54,-106.867 57.5001,-96.8669 50.5001,-96.8669"/>
</g>
<!-- Node3 -->
<g id="node3" class="node"><title>Node3</title>
<polygon fill="white" stroke="#bfbfbf" points="8,-234.5 8,-357.5 100,-357.5 100,-234.5 8,-234.5"/>
<text text-anchor="middle" x="54" y="-345.5" font-family="Helvetica,sans-Serif" font-size="10.00">Command</text>
<polyline fill="none" stroke="#bfbfbf" points="8,-338.5 100,-338.5 "/>
<text text-anchor="middle" x="54" y="-326.5" font-family="Helvetica,sans-Serif" font-size="10.00"> </text>
<polyline fill="none" stroke="#bfbfbf" points="8,-319.5 100,-319.5 "/>
<text text-anchor="start" x="16" y="-307.5" font-family="Helvetica,sans-Serif" font-size="10.00">+ getParameter()</text>
<text text-anchor="start" x="16" y="-296.5" font-family="Helvetica,sans-Serif" font-size="10.00">+ setParameter()</text>
<text text-anchor="start" x="16" y="-285.5" font-family="Helvetica,sans-Serif" font-size="10.00">+ hasParameter()</text>
<text text-anchor="start" x="16" y="-274.5" font-family="Helvetica,sans-Serif" font-size="10.00">+ getMessage()</text>
<text text-anchor="start" x="16" y="-263.5" font-family="Helvetica,sans-Serif" font-size="10.00">+ hasMessage()</text>
<text text-anchor="start" x="16" y="-252.5" font-family="Helvetica,sans-Serif" font-size="10.00">+ execute()</text>
<text text-anchor="start" x="16" y="-241.5" font-family="Helvetica,sans-Serif" font-size="10.00"># setMessage()</text>
</g>
<!-- Node3&#45;&gt;Node2 -->
<g id="edge2" class="edge"><title>Node3&#45;&gt;Node2</title>
<path fill="none" stroke="midnightblue" d="M54,-224.333C54,-215.055 54,-205.77 54,-197.11"/>
<polygon fill="none" stroke="midnightblue" points="50.5001,-224.367 54,-234.367 57.5001,-224.367 50.5001,-224.367"/>
</g>
</g>
</svg>
