<?xml version="1.0" encoding="UTF-8" standalone="no"?>
<!DOCTYPE svg PUBLIC "-//W3C//DTD SVG 1.1//EN"
 "http://www.w3.org/Graphics/SVG/1.1/DTD/svg11.dtd">
<!-- Generated by graphviz version 2.36.0 (20140111.2315)
 -->
<!-- Title: Graphical Class Hierarchy Pages: 1 -->
<svg width="214pt" height="66pt"
 viewBox="0.00 0.00 214.00 66.00" xmlns="http://www.w3.org/2000/svg" xmlns:xlink="http://www.w3.org/1999/xlink">
<g id="graph0" class="graph" transform="scale(1 1) rotate(0) translate(4 62)">
<title>Graphical Class Hierarchy</title>
<polygon fill="white" stroke="none" points="-4,4 -4,-62 210,-62 210,4 -4,4"/>
<!-- Node1 -->
<g id="node1" class="node"><title>Node1</title>
<g id="a_node1"><a xlink:href="classGoCommand.html" target="_top" xlink:title="GoCommand">
<polygon fill="white" stroke="black" points="0,-19.5 0,-38.5 74,-38.5 74,-19.5 0,-19.5"/>
<text text-anchor="middle" x="37" y="-26.5" font-family="Helvetica,sans-Serif" font-size="10.00">GoCommand</text>
</a>
</g>
</g>
<!-- Node2 -->
<g id="node2" class="node"><title>Node2</title>
<g id="a_node2"><a xlink:href="classBackCommand.html" target="_top" xlink:title="BackCommand">
<polygon fill="white" stroke="black" points="116,-38.5 116,-57.5 200,-57.5 200,-38.5 116,-38.5"/>
<text text-anchor="middle" x="158" y="-45.5" font-family="Helvetica,sans-Serif" font-size="10.00">BackCommand</text>
</a>
</g>
</g>
<!-- Node1&#45;&gt;Node2 -->
<g id="edge1" class="edge"><title>Node1&#45;&gt;Node2</title>
<path fill="none" stroke="midnightblue" d="M84.1682,-36.3714C94.5499,-38.029 105.503,-39.7777 115.672,-41.4014"/>
<polygon fill="midnightblue" stroke="midnightblue" points="84.4536,-32.8727 74.0269,-34.7522 83.3499,-39.7852 84.4536,-32.8727"/>
</g>
<!-- Node3 -->
<g id="node3" class="node"><title>Node3</title>
<g id="a_node3"><a xlink:href="classBeamerCommand.html" target="_top" xlink:title="BeamerCommand">
<polygon fill="white" stroke="black" points="110.5,-0.5 110.5,-19.5 205.5,-19.5 205.5,-0.5 110.5,-0.5"/>
<text text-anchor="middle" x="158" y="-7.5" font-family="Helvetica,sans-Serif" font-size="10.00">BeamerCommand</text>
</a>
</g>
</g>
<!-- Node1&#45;&gt;Node3 -->
<g id="edge2" class="edge"><title>Node1&#45;&gt;Node3</title>
<path fill="none" stroke="midnightblue" d="M84.1648,-21.6291C92.6731,-20.2707 101.565,-18.851 110.095,-17.4891"/>
<polygon fill="midnightblue" stroke="midnightblue" points="83.3499,-18.2148 74.0269,-23.2478 84.4536,-25.1273 83.3499,-18.2148"/>
</g>
</g>
</svg>
