<?xml version="1.0" encoding="UTF-8" standalone="no"?>
<!DOCTYPE svg PUBLIC "-//W3C//DTD SVG 1.1//EN"
 "http://www.w3.org/Graphics/SVG/1.1/DTD/svg11.dtd">
<!-- Generated by graphviz version 2.36.0 (20140111.2315)
 -->
<!-- Title: Graphical Class Hierarchy Pages: 1 -->
<svg width="556pt" height="484pt"
 viewBox="0.00 0.00 556.00 484.00" xmlns="http://www.w3.org/2000/svg" xmlns:xlink="http://www.w3.org/1999/xlink">
<g id="graph0" class="graph" transform="scale(1 1) rotate(0) translate(4 480)">
<title>Graphical Class Hierarchy</title>
<polygon fill="white" stroke="none" points="-4,4 -4,-480 552,-480 552,4 -4,4"/>
<!-- Node1 -->
<g id="node1" class="node"><title>Node1</title>
<g id="a_node1"><a xlink:href="classpkg__commands_1_1Command.html" target="_top" xlink:title="Class used to handle a command of one or two words. ">
<polygon fill="white" stroke="black" points="0,-228.5 0,-247.5 134,-247.5 134,-228.5 0,-228.5"/>
<text text-anchor="middle" x="67" y="-235.5" font-family="Helvetica,sans-Serif" font-size="10.00">pkg_commands.Command</text>
</a>
</g>
</g>
<!-- Node2 -->
<g id="node2" class="node"><title>Node2</title>
<g id="a_node2"><a xlink:href="classpkg__commands_1_1CreditsCommand.html" target="_top" xlink:title="class CreditsCommand used to print the credits of the game ">
<polygon fill="white" stroke="black" points="174.5,-456.5 174.5,-475.5 339.5,-475.5 339.5,-456.5 174.5,-456.5"/>
<text text-anchor="middle" x="257" y="-463.5" font-family="Helvetica,sans-Serif" font-size="10.00">pkg_commands.CreditsCommand</text>
</a>
</g>
</g>
<!-- Node1&#45;&gt;Node2 -->
<g id="edge1" class="edge"><title>Node1&#45;&gt;Node2</title>
<path fill="none" stroke="midnightblue" d="M71.6822,-257.796C80.5625,-299.702 107.24,-397.573 170,-447 174.805,-450.784 180.208,-453.85 185.905,-456.329"/>
<polygon fill="midnightblue" stroke="midnightblue" points="75.0684,-256.88 69.6744,-247.761 68.2045,-258.253 75.0684,-256.88"/>
</g>
<!-- Node3 -->
<g id="node3" class="node"><title>Node3</title>
<g id="a_node3"><a xlink:href="classpkg__commands_1_1DropCommand.html" target="_top" xlink:title="class DropCommand used to make the player drop an Item ">
<polygon fill="white" stroke="black" points="179.5,-418.5 179.5,-437.5 334.5,-437.5 334.5,-418.5 179.5,-418.5"/>
<text text-anchor="middle" x="257" y="-425.5" font-family="Helvetica,sans-Serif" font-size="10.00">pkg_commands.DropCommand</text>
</a>
</g>
</g>
<!-- Node1&#45;&gt;Node3 -->
<g id="edge2" class="edge"><title>Node1&#45;&gt;Node3</title>
<path fill="none" stroke="midnightblue" d="M73.8238,-257.365C85.6773,-293.291 116.149,-370.131 170,-409 175.331,-412.848 181.298,-415.939 187.536,-418.42"/>
<polygon fill="midnightblue" stroke="midnightblue" points="77.0927,-256.094 70.7376,-247.617 70.4192,-258.207 77.0927,-256.094"/>
</g>
<!-- Node4 -->
<g id="node4" class="node"><title>Node4</title>
<g id="a_node4"><a xlink:href="classpkg__commands_1_1EatCommand.html" target="_top" xlink:title="class EatCommand used to make the player eat an object. ">
<polygon fill="white" stroke="black" points="182.5,-380.5 182.5,-399.5 331.5,-399.5 331.5,-380.5 182.5,-380.5"/>
<text text-anchor="middle" x="257" y="-387.5" font-family="Helvetica,sans-Serif" font-size="10.00">pkg_commands.EatCommand</text>
</a>
</g>
</g>
<!-- Node1&#45;&gt;Node4 -->
<g id="edge3" class="edge"><title>Node1&#45;&gt;Node4</title>
<path fill="none" stroke="midnightblue" d="M76.8825,-256.689C91.8042,-285.949 124.769,-342.2 170,-371 176.062,-374.86 182.797,-377.943 189.753,-380.404"/>
<polygon fill="midnightblue" stroke="midnightblue" points="79.9359,-254.967 72.3665,-247.554 73.6608,-258.07 79.9359,-254.967"/>
</g>
<!-- Node5 -->
<g id="node5" class="node"><title>Node5</title>
<g id="a_node5"><a xlink:href="classpkg__commands_1_1GiveCommand.html" target="_top" xlink:title="class GiveCommand used to make the Player give an Item ">
<polygon fill="white" stroke="black" points="180,-342.5 180,-361.5 334,-361.5 334,-342.5 180,-342.5"/>
<text text-anchor="middle" x="257" y="-349.5" font-family="Helvetica,sans-Serif" font-size="10.00">pkg_commands.GiveCommand</text>
</a>
</g>
</g>
<!-- Node1&#45;&gt;Node5 -->
<g id="edge4" class="edge"><title>Node1&#45;&gt;Node5</title>
<path fill="none" stroke="midnightblue" d="M81.7539,-255.62C99.6706,-277.301 133.094,-313.615 170,-333 177.445,-336.911 185.661,-340.018 193.972,-342.487"/>
<polygon fill="midnightblue" stroke="midnightblue" points="84.2659,-253.16 75.2629,-247.575 78.8179,-257.555 84.2659,-253.16"/>
</g>
<!-- Node6 -->
<g id="node6" class="node"><title>Node6</title>
<g id="a_node6"><a xlink:href="classpkg__commands_1_1GoCommand.html" target="_top" xlink:title="class GoCommand used to make the player go to a given Room. ">
<polygon fill="white" stroke="black" points="184,-304.5 184,-323.5 330,-323.5 330,-304.5 184,-304.5"/>
<text text-anchor="middle" x="257" y="-311.5" font-family="Helvetica,sans-Serif" font-size="10.00">pkg_commands.GoCommand</text>
</a>
</g>
</g>
<!-- Node1&#45;&gt;Node6 -->
<g id="edge5" class="edge"><title>Node1&#45;&gt;Node6</title>
<path fill="none" stroke="midnightblue" d="M90.3083,-252.992C110.374,-265.849 141.062,-283.991 170,-295 179.861,-298.751 190.654,-301.861 201.16,-304.402"/>
<polygon fill="midnightblue" stroke="midnightblue" points="92.1701,-250.028 81.8809,-247.501 88.3488,-255.893 92.1701,-250.028"/>
</g>
<!-- Node9 -->
<g id="node9" class="node"><title>Node9</title>
<g id="a_node9"><a xlink:href="classpkg__commands_1_1HelpCommand.html" target="_top" xlink:title="class HelpCommand used to print the help ">
<polygon fill="white" stroke="black" points="180,-266.5 180,-285.5 334,-285.5 334,-266.5 180,-266.5"/>
<text text-anchor="middle" x="257" y="-273.5" font-family="Helvetica,sans-Serif" font-size="10.00">pkg_commands.HelpCommand</text>
</a>
</g>
</g>
<!-- Node1&#45;&gt;Node9 -->
<g id="edge8" class="edge"><title>Node1&#45;&gt;Node9</title>
<path fill="none" stroke="midnightblue" d="M125.437,-249.61C152.174,-255.014 183.588,-261.364 208.901,-266.48"/>
<polygon fill="midnightblue" stroke="midnightblue" points="125.936,-246.14 115.44,-247.589 124.549,-253.001 125.936,-246.14"/>
</g>
<!-- Node10 -->
<g id="node10" class="node"><title>Node10</title>
<g id="a_node10"><a xlink:href="classpkg__commands_1_1InventoryCommand.html" target="_top" xlink:title="class InventoryCommand used to print the player&#39;s inventory ">
<polygon fill="white" stroke="black" points="170,-228.5 170,-247.5 344,-247.5 344,-228.5 170,-228.5"/>
<text text-anchor="middle" x="257" y="-235.5" font-family="Helvetica,sans-Serif" font-size="10.00">pkg_commands.InventoryCommand</text>
</a>
</g>
</g>
<!-- Node1&#45;&gt;Node10 -->
<g id="edge9" class="edge"><title>Node1&#45;&gt;Node10</title>
<path fill="none" stroke="midnightblue" d="M144.154,-238C152.56,-238 161.164,-238 169.683,-238"/>
<polygon fill="midnightblue" stroke="midnightblue" points="144.017,-234.5 134.017,-238 144.017,-241.5 144.017,-234.5"/>
</g>
<!-- Node11 -->
<g id="node11" class="node"><title>Node11</title>
<g id="a_node11"><a xlink:href="classpkg__commands_1_1LookCommand.html" target="_top" xlink:title="class LookCommand used to show information about the current Room or a given Item ...">
<polygon fill="white" stroke="black" points="179.5,-190.5 179.5,-209.5 334.5,-209.5 334.5,-190.5 179.5,-190.5"/>
<text text-anchor="middle" x="257" y="-197.5" font-family="Helvetica,sans-Serif" font-size="10.00">pkg_commands.LookCommand</text>
</a>
</g>
</g>
<!-- Node1&#45;&gt;Node11 -->
<g id="edge10" class="edge"><title>Node1&#45;&gt;Node11</title>
<path fill="none" stroke="midnightblue" d="M125.437,-226.39C152.174,-220.986 183.588,-214.636 208.901,-209.52"/>
<polygon fill="midnightblue" stroke="midnightblue" points="124.549,-222.999 115.44,-228.411 125.936,-229.86 124.549,-222.999"/>
</g>
<!-- Node12 -->
<g id="node12" class="node"><title>Node12</title>
<g id="a_node12"><a xlink:href="classpkg__commands_1_1QuitCommand.html" target="_top" xlink:title="class QuitCommand used to quit the game ">
<polygon fill="white" stroke="black" points="181,-152.5 181,-171.5 333,-171.5 333,-152.5 181,-152.5"/>
<text text-anchor="middle" x="257" y="-159.5" font-family="Helvetica,sans-Serif" font-size="10.00">pkg_commands.QuitCommand</text>
</a>
</g>
</g>
<!-- Node1&#45;&gt;Node12 -->
<g id="edge11" class="edge"><title>Node1&#45;&gt;Node12</title>
<path fill="none" stroke="midnightblue" d="M90.3083,-223.008C110.374,-210.151 141.062,-192.009 170,-181 179.861,-177.249 190.654,-174.139 201.16,-171.598"/>
<polygon fill="midnightblue" stroke="midnightblue" points="88.3488,-220.107 81.8809,-228.499 92.1701,-225.972 88.3488,-220.107"/>
</g>
<!-- Node13 -->
<g id="node13" class="node"><title>Node13</title>
<g id="a_node13"><a xlink:href="classpkg__commands_1_1TakeCommand.html" target="_top" xlink:title="class TakeCommand used to make the Player take an Item ">
<polygon fill="white" stroke="black" points="179.5,-114.5 179.5,-133.5 334.5,-133.5 334.5,-114.5 179.5,-114.5"/>
<text text-anchor="middle" x="257" y="-121.5" font-family="Helvetica,sans-Serif" font-size="10.00">pkg_commands.TakeCommand</text>
</a>
</g>
</g>
<!-- Node1&#45;&gt;Node13 -->
<g id="edge12" class="edge"><title>Node1&#45;&gt;Node13</title>
<path fill="none" stroke="midnightblue" d="M81.7539,-220.38C99.6706,-198.699 133.094,-162.385 170,-143 177.445,-139.089 185.661,-135.982 193.972,-133.513"/>
<polygon fill="midnightblue" stroke="midnightblue" points="78.8179,-218.445 75.2629,-228.425 84.2659,-222.84 78.8179,-218.445"/>
</g>
<!-- Node14 -->
<g id="node14" class="node"><title>Node14</title>
<g id="a_node14"><a xlink:href="classpkg__commands_1_1TalkCommand.html" target="_top" xlink:title="class TalkCommand used to talk to a Character ">
<polygon fill="white" stroke="black" points="181,-76.5 181,-95.5 333,-95.5 333,-76.5 181,-76.5"/>
<text text-anchor="middle" x="257" y="-83.5" font-family="Helvetica,sans-Serif" font-size="10.00">pkg_commands.TalkCommand</text>
</a>
</g>
</g>
<!-- Node1&#45;&gt;Node14 -->
<g id="edge13" class="edge"><title>Node1&#45;&gt;Node14</title>
<path fill="none" stroke="midnightblue" d="M76.8825,-219.311C91.8042,-190.051 124.769,-133.8 170,-105 176.062,-101.14 182.797,-98.057 189.753,-95.5957"/>
<polygon fill="midnightblue" stroke="midnightblue" points="73.6608,-217.93 72.3665,-228.446 79.9359,-221.033 73.6608,-217.93"/>
</g>
<!-- Node15 -->
<g id="node15" class="node"><title>Node15</title>
<g id="a_node15"><a xlink:href="classpkg__commands_1_1TestCommand.html" target="_top" xlink:title="class TestCommand used to test series of commands ">
<polygon fill="white" stroke="black" points="180.5,-38.5 180.5,-57.5 333.5,-57.5 333.5,-38.5 180.5,-38.5"/>
<text text-anchor="middle" x="257" y="-45.5" font-family="Helvetica,sans-Serif" font-size="10.00">pkg_commands.TestCommand</text>
</a>
</g>
</g>
<!-- Node1&#45;&gt;Node15 -->
<g id="edge14" class="edge"><title>Node1&#45;&gt;Node15</title>
<path fill="none" stroke="midnightblue" d="M73.8238,-218.635C85.6773,-182.709 116.149,-105.869 170,-67 175.331,-63.1519 181.298,-60.0605 187.536,-57.5802"/>
<polygon fill="midnightblue" stroke="midnightblue" points="70.4192,-217.793 70.7376,-228.383 77.0927,-219.906 70.4192,-217.793"/>
</g>
<!-- Node16 -->
<g id="node16" class="node"><title>Node16</title>
<g id="a_node16"><a xlink:href="classpkg__commands_1_1ThrowCommand.html" target="_top" xlink:title="class ThrowCommand used to make the player throw an Item ">
<polygon fill="white" stroke="black" points="176.5,-0.5 176.5,-19.5 337.5,-19.5 337.5,-0.5 176.5,-0.5"/>
<text text-anchor="middle" x="257" y="-7.5" font-family="Helvetica,sans-Serif" font-size="10.00">pkg_commands.ThrowCommand</text>
</a>
</g>
</g>
<!-- Node1&#45;&gt;Node16 -->
<g id="edge15" class="edge"><title>Node1&#45;&gt;Node16</title>
<path fill="none" stroke="midnightblue" d="M71.6822,-218.204C80.5625,-176.298 107.24,-78.4265 170,-29 174.805,-25.2158 180.208,-22.1503 185.905,-19.6713"/>
<polygon fill="midnightblue" stroke="midnightblue" points="68.2045,-217.747 69.6744,-228.239 75.0684,-219.12 68.2045,-217.747"/>
</g>
<!-- Node7 -->
<g id="node7" class="node"><title>Node7</title>
<g id="a_node7"><a xlink:href="classpkg__commands_1_1BackCommand.html" target="_top" xlink:title="class BackCommand used to go back in a previous Room. ">
<polygon fill="white" stroke="black" points="386,-323.5 386,-342.5 542,-342.5 542,-323.5 386,-323.5"/>
<text text-anchor="middle" x="464" y="-330.5" font-family="Helvetica,sans-Serif" font-size="10.00">pkg_commands.BackCommand</text>
</a>
</g>
</g>
<!-- Node6&#45;&gt;Node7 -->
<g id="edge6" class="edge"><title>Node6&#45;&gt;Node7</title>
<path fill="none" stroke="midnightblue" d="M340.518,-321.648C355.473,-323.034 371.018,-324.475 385.813,-325.846"/>
<polygon fill="midnightblue" stroke="midnightblue" points="340.556,-318.137 330.275,-320.699 339.91,-325.107 340.556,-318.137"/>
</g>
<!-- Node8 -->
<g id="node8" class="node"><title>Node8</title>
<g id="a_node8"><a xlink:href="classpkg__commands_1_1BeamerCommand.html" target="_top" xlink:title="class BeamerCommand used to teleport into a remembered room ">
<polygon fill="white" stroke="black" points="380.5,-285.5 380.5,-304.5 547.5,-304.5 547.5,-285.5 380.5,-285.5"/>
<text text-anchor="middle" x="464" y="-292.5" font-family="Helvetica,sans-Serif" font-size="10.00">pkg_commands.BeamerCommand</text>
</a>
</g>
</g>
<!-- Node6&#45;&gt;Node8 -->
<g id="edge7" class="edge"><title>Node6&#45;&gt;Node8</title>
<path fill="none" stroke="midnightblue" d="M340.618,-306.343C353.654,-305.135 367.136,-303.885 380.177,-302.676"/>
<polygon fill="midnightblue" stroke="midnightblue" points="339.91,-302.893 330.275,-307.301 340.556,-309.863 339.91,-302.893"/>
</g>
</g>
</svg>
