<?xml version="1.0" encoding="UTF-8" standalone="no"?>
<!DOCTYPE svg PUBLIC "-//W3C//DTD SVG 1.1//EN"
 "http://www.w3.org/Graphics/SVG/1.1/DTD/svg11.dtd">
<!-- Generated by graphviz version 2.36.0 (20140111.2315)
 -->
<!-- Title: Graphical Class Hierarchy Pages: 1 -->
<svg width="556pt" height="446pt"
 viewBox="0.00 0.00 556.00 446.00" xmlns="http://www.w3.org/2000/svg" xmlns:xlink="http://www.w3.org/1999/xlink">
<g id="graph0" class="graph" transform="scale(1 1) rotate(0) translate(4 442)">
<title>Graphical Class Hierarchy</title>
<polygon fill="white" stroke="none" points="-4,4 -4,-442 552,-442 552,4 -4,4"/>
<!-- Node1 -->
<g id="node1" class="node"><title>Node1</title>
<g id="a_node1"><a xlink:href="classpkg__commands_1_1Command.html" target="_top" xlink:title="pkg_commands.Command">
<polygon fill="white" stroke="black" points="0,-209.5 0,-228.5 134,-228.5 134,-209.5 0,-209.5"/>
<text text-anchor="middle" x="67" y="-216.5" font-family="Helvetica,sans-Serif" font-size="10.00">pkg_commands.Command</text>
</a>
</g>
</g>
<!-- Node2 -->
<g id="node2" class="node"><title>Node2</title>
<g id="a_node2"><a xlink:href="classpkg__commands_1_1CreditsCommand.html" target="_top" xlink:title="pkg_commands.CreditsCommand">
<polygon fill="white" stroke="black" points="174.5,-418.5 174.5,-437.5 339.5,-437.5 339.5,-418.5 174.5,-418.5"/>
<text text-anchor="middle" x="257" y="-425.5" font-family="Helvetica,sans-Serif" font-size="10.00">pkg_commands.CreditsCommand</text>
</a>
</g>
</g>
<!-- Node1&#45;&gt;Node2 -->
<g id="edge1" class="edge"><title>Node1&#45;&gt;Node2</title>
<path fill="none" stroke="midnightblue" d="M72.6673,-238.604C83.0177,-277.594 111.726,-364.904 170,-409 175.121,-412.875 180.877,-415.99 186.921,-418.49"/>
<polygon fill="midnightblue" stroke="midnightblue" points="76.0228,-237.596 70.1766,-228.76 69.2366,-239.314 76.0228,-237.596"/>
</g>
<!-- Node3 -->
<g id="node3" class="node"><title>Node3</title>
<g id="a_node3"><a xlink:href="classpkg__commands_1_1DropCommand.html" target="_top" xlink:title="pkg_commands.DropCommand">
<polygon fill="white" stroke="black" points="179.5,-380.5 179.5,-399.5 334.5,-399.5 334.5,-380.5 179.5,-380.5"/>
<text text-anchor="middle" x="257" y="-387.5" font-family="Helvetica,sans-Serif" font-size="10.00">pkg_commands.DropCommand</text>
</a>
</g>
</g>
<!-- Node1&#45;&gt;Node3 -->
<g id="edge2" class="edge"><title>Node1&#45;&gt;Node3</title>
<path fill="none" stroke="midnightblue" d="M75.1934,-238.043C88.5696,-270.725 120.487,-337.228 170,-371 175.684,-374.877 182.028,-377.978 188.623,-380.457"/>
<polygon fill="midnightblue" stroke="midnightblue" points="78.4335,-236.718 71.5033,-228.704 71.9234,-239.291 78.4335,-236.718"/>
</g>
<!-- Node4 -->
<g id="node4" class="node"><title>Node4</title>
<g id="a_node4"><a xlink:href="classpkg__commands_1_1EatCommand.html" target="_top" xlink:title="pkg_commands.EatCommand">
<polygon fill="white" stroke="black" points="182.5,-342.5 182.5,-361.5 331.5,-361.5 331.5,-342.5 182.5,-342.5"/>
<text text-anchor="middle" x="257" y="-349.5" font-family="Helvetica,sans-Serif" font-size="10.00">pkg_commands.EatCommand</text>
</a>
</g>
</g>
<!-- Node1&#45;&gt;Node4 -->
<g id="edge3" class="edge"><title>Node1&#45;&gt;Node4</title>
<path fill="none" stroke="midnightblue" d="M79.2081,-237.554C95.7342,-263.225 129.141,-309.105 170,-333 176.6,-336.859 183.902,-339.936 191.381,-342.389"/>
<polygon fill="midnightblue" stroke="midnightblue" points="81.9951,-235.41 73.7205,-228.793 76.0627,-239.126 81.9951,-235.41"/>
</g>
<!-- Node5 -->
<g id="node5" class="node"><title>Node5</title>
<g id="a_node5"><a xlink:href="classpkg__commands_1_1GiveCommand.html" target="_top" xlink:title="pkg_commands.GiveCommand">
<polygon fill="white" stroke="black" points="180,-304.5 180,-323.5 334,-323.5 334,-304.5 180,-304.5"/>
<text text-anchor="middle" x="257" y="-311.5" font-family="Helvetica,sans-Serif" font-size="10.00">pkg_commands.GiveCommand</text>
</a>
</g>
</g>
<!-- Node1&#45;&gt;Node5 -->
<g id="edge4" class="edge"><title>Node1&#45;&gt;Node5</title>
<path fill="none" stroke="midnightblue" d="M85.1154,-235.397C104.267,-252.82 136.963,-279.893 170,-295 178.482,-298.879 187.805,-301.988 197.087,-304.474"/>
<polygon fill="midnightblue" stroke="midnightblue" points="87.4856,-232.821 77.7751,-228.584 82.7234,-237.952 87.4856,-232.821"/>
</g>
<!-- Node6 -->
<g id="node6" class="node"><title>Node6</title>
<g id="a_node6"><a xlink:href="classpkg__commands_1_1GoCommand.html" target="_top" xlink:title="pkg_commands.GoCommand">
<polygon fill="white" stroke="black" points="184,-266.5 184,-285.5 330,-285.5 330,-266.5 184,-266.5"/>
<text text-anchor="middle" x="257" y="-273.5" font-family="Helvetica,sans-Serif" font-size="10.00">pkg_commands.GoCommand</text>
</a>
</g>
</g>
<!-- Node1&#45;&gt;Node6 -->
<g id="edge5" class="edge"><title>Node1&#45;&gt;Node6</title>
<path fill="none" stroke="midnightblue" d="M100.277,-232.34C120.15,-240.222 146.278,-249.998 170,-257 181.879,-260.506 194.85,-263.696 207.034,-266.418"/>
<polygon fill="midnightblue" stroke="midnightblue" points="101.366,-229.006 90.7817,-228.529 98.7587,-235.502 101.366,-229.006"/>
</g>
<!-- Node9 -->
<g id="node9" class="node"><title>Node9</title>
<g id="a_node9"><a xlink:href="classpkg__commands_1_1HelpCommand.html" target="_top" xlink:title="pkg_commands.HelpCommand">
<polygon fill="white" stroke="black" points="180,-228.5 180,-247.5 334,-247.5 334,-228.5 180,-228.5"/>
<text text-anchor="middle" x="257" y="-235.5" font-family="Helvetica,sans-Serif" font-size="10.00">pkg_commands.HelpCommand</text>
</a>
</g>
</g>
<!-- Node1&#45;&gt;Node9 -->
<g id="edge8" class="edge"><title>Node1&#45;&gt;Node9</title>
<path fill="none" stroke="midnightblue" d="M144.223,-226.703C155.97,-227.891 168.103,-229.117 179.849,-230.304"/>
<polygon fill="midnightblue" stroke="midnightblue" points="144.319,-223.195 134.017,-225.672 143.615,-230.16 144.319,-223.195"/>
</g>
<!-- Node10 -->
<g id="node10" class="node"><title>Node10</title>
<g id="a_node10"><a xlink:href="classpkg__commands_1_1InventoryCommand.html" target="_top" xlink:title="pkg_commands.InventoryCommand">
<polygon fill="white" stroke="black" points="170,-190.5 170,-209.5 344,-209.5 344,-190.5 170,-190.5"/>
<text text-anchor="middle" x="257" y="-197.5" font-family="Helvetica,sans-Serif" font-size="10.00">pkg_commands.InventoryCommand</text>
</a>
</g>
</g>
<!-- Node1&#45;&gt;Node10 -->
<g id="edge9" class="edge"><title>Node1&#45;&gt;Node10</title>
<path fill="none" stroke="midnightblue" d="M144.154,-211.304C152.56,-210.454 161.164,-209.584 169.683,-208.723"/>
<polygon fill="midnightblue" stroke="midnightblue" points="143.615,-207.84 134.017,-212.328 144.319,-214.805 143.615,-207.84"/>
</g>
<!-- Node11 -->
<g id="node11" class="node"><title>Node11</title>
<g id="a_node11"><a xlink:href="classpkg__commands_1_1LookCommand.html" target="_top" xlink:title="pkg_commands.LookCommand">
<polygon fill="white" stroke="black" points="179.5,-152.5 179.5,-171.5 334.5,-171.5 334.5,-152.5 179.5,-152.5"/>
<text text-anchor="middle" x="257" y="-159.5" font-family="Helvetica,sans-Serif" font-size="10.00">pkg_commands.LookCommand</text>
</a>
</g>
</g>
<!-- Node1&#45;&gt;Node11 -->
<g id="edge10" class="edge"><title>Node1&#45;&gt;Node11</title>
<path fill="none" stroke="midnightblue" d="M100.277,-205.66C120.15,-197.778 146.278,-188.002 170,-181 181.879,-177.494 194.85,-174.304 207.034,-171.582"/>
<polygon fill="midnightblue" stroke="midnightblue" points="98.7587,-202.498 90.7817,-209.471 101.366,-208.994 98.7587,-202.498"/>
</g>
<!-- Node12 -->
<g id="node12" class="node"><title>Node12</title>
<g id="a_node12"><a xlink:href="classpkg__commands_1_1QuitCommand.html" target="_top" xlink:title="pkg_commands.QuitCommand">
<polygon fill="white" stroke="black" points="181,-114.5 181,-133.5 333,-133.5 333,-114.5 181,-114.5"/>
<text text-anchor="middle" x="257" y="-121.5" font-family="Helvetica,sans-Serif" font-size="10.00">pkg_commands.QuitCommand</text>
</a>
</g>
</g>
<!-- Node1&#45;&gt;Node12 -->
<g id="edge11" class="edge"><title>Node1&#45;&gt;Node12</title>
<path fill="none" stroke="midnightblue" d="M85.1154,-202.603C104.267,-185.18 136.963,-158.107 170,-143 178.482,-139.121 187.805,-136.012 197.087,-133.526"/>
<polygon fill="midnightblue" stroke="midnightblue" points="82.7234,-200.048 77.7751,-209.416 87.4856,-205.179 82.7234,-200.048"/>
</g>
<!-- Node13 -->
<g id="node13" class="node"><title>Node13</title>
<g id="a_node13"><a xlink:href="classpkg__commands_1_1TakeCommand.html" target="_top" xlink:title="pkg_commands.TakeCommand">
<polygon fill="white" stroke="black" points="179.5,-76.5 179.5,-95.5 334.5,-95.5 334.5,-76.5 179.5,-76.5"/>
<text text-anchor="middle" x="257" y="-83.5" font-family="Helvetica,sans-Serif" font-size="10.00">pkg_commands.TakeCommand</text>
</a>
</g>
</g>
<!-- Node1&#45;&gt;Node13 -->
<g id="edge12" class="edge"><title>Node1&#45;&gt;Node13</title>
<path fill="none" stroke="midnightblue" d="M79.2081,-200.446C95.7342,-174.775 129.141,-128.895 170,-105 176.6,-101.141 183.902,-98.0639 191.381,-95.6115"/>
<polygon fill="midnightblue" stroke="midnightblue" points="76.0627,-198.874 73.7205,-209.207 81.9951,-202.59 76.0627,-198.874"/>
</g>
<!-- Node14 -->
<g id="node14" class="node"><title>Node14</title>
<g id="a_node14"><a xlink:href="classpkg__commands_1_1TalkCommand.html" target="_top" xlink:title="pkg_commands.TalkCommand">
<polygon fill="white" stroke="black" points="181,-38.5 181,-57.5 333,-57.5 333,-38.5 181,-38.5"/>
<text text-anchor="middle" x="257" y="-45.5" font-family="Helvetica,sans-Serif" font-size="10.00">pkg_commands.TalkCommand</text>
</a>
</g>
</g>
<!-- Node1&#45;&gt;Node14 -->
<g id="edge13" class="edge"><title>Node1&#45;&gt;Node14</title>
<path fill="none" stroke="midnightblue" d="M75.1934,-199.957C88.5696,-167.275 120.487,-100.772 170,-67 175.684,-63.1228 182.028,-60.0216 188.623,-57.5433"/>
<polygon fill="midnightblue" stroke="midnightblue" points="71.9234,-198.709 71.5033,-209.296 78.4335,-201.282 71.9234,-198.709"/>
</g>
<!-- Node15 -->
<g id="node15" class="node"><title>Node15</title>
<g id="a_node15"><a xlink:href="classpkg__commands_1_1TestCommand.html" target="_top" xlink:title="pkg_commands.TestCommand">
<polygon fill="white" stroke="black" points="180.5,-0.5 180.5,-19.5 333.5,-19.5 333.5,-0.5 180.5,-0.5"/>
<text text-anchor="middle" x="257" y="-7.5" font-family="Helvetica,sans-Serif" font-size="10.00">pkg_commands.TestCommand</text>
</a>
</g>
</g>
<!-- Node1&#45;&gt;Node15 -->
<g id="edge14" class="edge"><title>Node1&#45;&gt;Node15</title>
<path fill="none" stroke="midnightblue" d="M72.6673,-199.396C83.0177,-160.406 111.726,-73.0959 170,-29 175.121,-25.1249 180.877,-22.0098 186.921,-19.5098"/>
<polygon fill="midnightblue" stroke="midnightblue" points="69.2366,-198.686 70.1766,-209.24 76.0228,-200.404 69.2366,-198.686"/>
</g>
<!-- Node7 -->
<g id="node7" class="node"><title>Node7</title>
<g id="a_node7"><a xlink:href="classpkg__commands_1_1BackCommand.html" target="_top" xlink:title="pkg_commands.BackCommand">
<polygon fill="white" stroke="black" points="386,-285.5 386,-304.5 542,-304.5 542,-285.5 386,-285.5"/>
<text text-anchor="middle" x="464" y="-292.5" font-family="Helvetica,sans-Serif" font-size="10.00">pkg_commands.BackCommand</text>
</a>
</g>
</g>
<!-- Node6&#45;&gt;Node7 -->
<g id="edge6" class="edge"><title>Node6&#45;&gt;Node7</title>
<path fill="none" stroke="midnightblue" d="M340.518,-283.648C355.473,-285.034 371.018,-286.475 385.813,-287.846"/>
<polygon fill="midnightblue" stroke="midnightblue" points="340.556,-280.137 330.275,-282.699 339.91,-287.107 340.556,-280.137"/>
</g>
<!-- Node8 -->
<g id="node8" class="node"><title>Node8</title>
<g id="a_node8"><a xlink:href="classpkg__commands_1_1BeamerCommand.html" target="_top" xlink:title="pkg_commands.BeamerCommand">
<polygon fill="white" stroke="black" points="380.5,-247.5 380.5,-266.5 547.5,-266.5 547.5,-247.5 380.5,-247.5"/>
<text text-anchor="middle" x="464" y="-254.5" font-family="Helvetica,sans-Serif" font-size="10.00">pkg_commands.BeamerCommand</text>
</a>
</g>
</g>
<!-- Node6&#45;&gt;Node8 -->
<g id="edge7" class="edge"><title>Node6&#45;&gt;Node8</title>
<path fill="none" stroke="midnightblue" d="M340.618,-268.343C353.654,-267.135 367.136,-265.885 380.177,-264.676"/>
<polygon fill="midnightblue" stroke="midnightblue" points="339.91,-264.893 330.275,-269.301 340.556,-271.863 339.91,-264.893"/>
</g>
</g>
</svg>
