<?xml version="1.0" encoding="UTF-8" standalone="no"?>
<!DOCTYPE svg PUBLIC "-//W3C//DTD SVG 1.1//EN"
 "http://www.w3.org/Graphics/SVG/1.1/DTD/svg11.dtd">
<!-- Generated by graphviz version 2.36.0 (20140111.2315)
 -->
<!-- Title: Graphical Class Hierarchy Pages: 1 -->
<svg width="232pt" height="104pt"
 viewBox="0.00 0.00 232.00 104.00" xmlns="http://www.w3.org/2000/svg" xmlns:xlink="http://www.w3.org/1999/xlink">
<g id="graph0" class="graph" transform="scale(1 1) rotate(0) translate(4 100)">
<title>Graphical Class Hierarchy</title>
<polygon fill="white" stroke="none" points="-4,4 -4,-100 228,-100 228,4 -4,4"/>
<!-- Node1 -->
<g id="node1" class="node"><title>Node1</title>
<polygon fill="white" stroke="#bfbfbf" points="0,-38.5 0,-57.5 60,-57.5 60,-38.5 0,-38.5"/>
<text text-anchor="middle" x="30" y="-45.5" font-family="Helvetica,sans-Serif" font-size="10.00">Exception</text>
</g>
<!-- Node2 -->
<g id="node2" class="node"><title>Node2</title>
<g id="a_node2"><a xlink:href="classIllegalArgumentException.html" target="_top" xlink:title="IllegalArgumentException">
<polygon fill="white" stroke="black" points="96,-76.5 96,-95.5 224,-95.5 224,-76.5 96,-76.5"/>
<text text-anchor="middle" x="160" y="-83.5" font-family="Helvetica,sans-Serif" font-size="10.00">IllegalArgumentException</text>
</a>
</g>
</g>
<!-- Node1&#45;&gt;Node2 -->
<g id="edge1" class="edge"><title>Node1&#45;&gt;Node2</title>
<path fill="none" stroke="midnightblue" d="M69.8103,-59.5218C88.0758,-64.9444 109.598,-71.3339 126.925,-76.4777"/>
<polygon fill="midnightblue" stroke="midnightblue" points="70.6278,-56.1136 60.0452,-56.6228 68.6355,-62.8241 70.6278,-56.1136"/>
</g>
<!-- Node3 -->
<g id="node3" class="node"><title>Node3</title>
<g id="a_node3"><a xlink:href="classNoArgumentException.html" target="_top" xlink:title="NoArgumentException">
<polygon fill="white" stroke="black" points="102.5,-38.5 102.5,-57.5 217.5,-57.5 217.5,-38.5 102.5,-38.5"/>
<text text-anchor="middle" x="160" y="-45.5" font-family="Helvetica,sans-Serif" font-size="10.00">NoArgumentException</text>
</a>
</g>
</g>
<!-- Node1&#45;&gt;Node3 -->
<g id="edge2" class="edge"><title>Node1&#45;&gt;Node3</title>
<path fill="none" stroke="midnightblue" d="M70.2054,-48C80.3473,-48 91.4719,-48 102.313,-48"/>
<polygon fill="midnightblue" stroke="midnightblue" points="70.0452,-44.5001 60.0452,-48 70.0451,-51.5001 70.0452,-44.5001"/>
</g>
<!-- Node4 -->
<g id="node4" class="node"><title>Node4</title>
<g id="a_node4"><a xlink:href="classUnauthorizedException.html" target="_top" xlink:title="UnauthorizedException">
<polygon fill="white" stroke="black" points="101,-0.5 101,-19.5 219,-19.5 219,-0.5 101,-0.5"/>
<text text-anchor="middle" x="160" y="-7.5" font-family="Helvetica,sans-Serif" font-size="10.00">UnauthorizedException</text>
</a>
</g>
</g>
<!-- Node1&#45;&gt;Node4 -->
<g id="edge3" class="edge"><title>Node1&#45;&gt;Node4</title>
<path fill="none" stroke="midnightblue" d="M69.8103,-36.4782C88.0758,-31.0556 109.598,-24.6661 126.925,-19.5223"/>
<polygon fill="midnightblue" stroke="midnightblue" points="68.6355,-33.1759 60.0452,-39.3772 70.6278,-39.8864 68.6355,-33.1759"/>
</g>
</g>
</svg>
