<?xml version="1.0" encoding="UTF-8" standalone="no"?>
<!DOCTYPE svg PUBLIC "-//W3C//DTD SVG 1.1//EN"
 "http://www.w3.org/Graphics/SVG/1.1/DTD/svg11.dtd">
<!-- Generated by graphviz version 2.36.0 (20140111.2315)
 -->
<!-- Title: Graphical Class Hierarchy Pages: 1 -->
<svg width="260pt" height="136pt"
 viewBox="0.00 0.00 260.00 136.00" xmlns="http://www.w3.org/2000/svg" xmlns:xlink="http://www.w3.org/1999/xlink">
<g id="graph0" class="graph" transform="scale(1 1) rotate(0) translate(4 132)">
<title>Graphical Class Hierarchy</title>
<polygon fill="white" stroke="none" points="-4,4 -4,-132 256,-132 256,4 -4,4"/>
<!-- Node1 -->
<g id="node1" class="node"><title>Node1</title>
<polygon fill="white" stroke="#bfbfbf" points="0,-54.5 0,-73.5 60,-73.5 60,-54.5 0,-54.5"/>
<text text-anchor="middle" x="30" y="-61.5" font-family="Helvetica,sans-Serif" font-size="10.00">Exception</text>
</g>
<!-- Node2 -->
<g id="node2" class="node"><title>Node2</title>
<g id="a_node2"><a xlink:href="classpkg__exceptions_1_1IllegalArgumentException.html" target="_top" xlink:title="pkg_exceptions.IllegalArgument\lException">
<polygon fill="white" stroke="black" points="96.5,-98 96.5,-128 251.5,-128 251.5,-98 96.5,-98"/>
<text text-anchor="start" x="104.5" y="-116" font-family="Helvetica,sans-Serif" font-size="10.00">pkg_exceptions.IllegalArgument</text>
<text text-anchor="middle" x="174" y="-105" font-family="Helvetica,sans-Serif" font-size="10.00">Exception</text>
</a>
</g>
</g>
<!-- Node1&#45;&gt;Node2 -->
<g id="edge1" class="edge"><title>Node1&#45;&gt;Node2</title>
<path fill="none" stroke="midnightblue" d="M65.6536,-77.0852C75.4379,-80.7007 86.1122,-84.5709 96,-88 105.561,-91.3157 115.835,-94.7439 125.664,-97.959"/>
<polygon fill="midnightblue" stroke="midnightblue" points="66.8211,-73.7852 56.2282,-73.5804 64.3813,-80.3463 66.8211,-73.7852"/>
</g>
<!-- Node3 -->
<g id="node3" class="node"><title>Node3</title>
<g id="a_node3"><a xlink:href="classpkg__exceptions_1_1NoArgumentException.html" target="_top" xlink:title="pkg_exceptions.NoArgument\lException">
<polygon fill="white" stroke="black" points="102.5,-49 102.5,-79 245.5,-79 245.5,-49 102.5,-49"/>
<text text-anchor="start" x="110.5" y="-67" font-family="Helvetica,sans-Serif" font-size="10.00">pkg_exceptions.NoArgument</text>
<text text-anchor="middle" x="174" y="-56" font-family="Helvetica,sans-Serif" font-size="10.00">Exception</text>
</a>
</g>
</g>
<!-- Node1&#45;&gt;Node3 -->
<g id="edge2" class="edge"><title>Node1&#45;&gt;Node3</title>
<path fill="none" stroke="midnightblue" d="M70.0965,-64C80.1258,-64 91.2273,-64 102.319,-64"/>
<polygon fill="midnightblue" stroke="midnightblue" points="70.0785,-60.5001 60.0785,-64 70.0784,-67.5001 70.0785,-60.5001"/>
</g>
<!-- Node4 -->
<g id="node4" class="node"><title>Node4</title>
<g id="a_node4"><a xlink:href="classpkg__exceptions_1_1UnauthorizedException.html" target="_top" xlink:title="pkg_exceptions.Unauthorized\lException">
<polygon fill="white" stroke="black" points="101,-0 101,-30 247,-30 247,-0 101,-0"/>
<text text-anchor="start" x="109" y="-18" font-family="Helvetica,sans-Serif" font-size="10.00">pkg_exceptions.Unauthorized</text>
<text text-anchor="middle" x="174" y="-7" font-family="Helvetica,sans-Serif" font-size="10.00">Exception</text>
</a>
</g>
</g>
<!-- Node1&#45;&gt;Node4 -->
<g id="edge3" class="edge"><title>Node1&#45;&gt;Node4</title>
<path fill="none" stroke="midnightblue" d="M65.6536,-50.9148C75.4379,-47.2993 86.1122,-43.4291 96,-40 105.561,-36.6843 115.835,-33.2561 125.664,-30.041"/>
<polygon fill="midnightblue" stroke="midnightblue" points="64.3813,-47.6537 56.2282,-54.4196 66.8211,-54.2148 64.3813,-47.6537"/>
</g>
</g>
</svg>
