<?xml version="1.0" encoding="UTF-8" standalone="no"?>
<!DOCTYPE svg PUBLIC "-//W3C//DTD SVG 1.1//EN"
 "http://www.w3.org/Graphics/SVG/1.1/DTD/svg11.dtd">
<!-- Generated by graphviz version 2.36.0 (20140111.2315)
 -->
<!-- Title: pkg_commands.BeamerCommand.teleport Pages: 1 -->
<svg width="596pt" height="136pt"
 viewBox="0.00 0.00 596.00 136.00" xmlns="http://www.w3.org/2000/svg" xmlns:xlink="http://www.w3.org/1999/xlink">
<g id="graph0" class="graph" transform="scale(1 1) rotate(0) translate(4 132)">
<title>pkg_commands.BeamerCommand.teleport</title>
<polygon fill="white" stroke="none" points="-4,4 -4,-132 592,-132 592,4 -4,4"/>
<!-- Node1 -->
<g id="node1" class="node"><title>Node1</title>
<polygon fill="#bfbfbf" stroke="black" points="0.5,-78.5 0.5,-97.5 203.5,-97.5 203.5,-78.5 0.5,-78.5"/>
<text text-anchor="middle" x="102" y="-85.5" font-family="Helvetica,sans-Serif" font-size="10.00">pkg_commands.BeamerCommand.teleport</text>
</g>
<!-- Node2 -->
<g id="node2" class="node"><title>Node2</title>
<g id="a_node2"><a xlink:href="classpkg__commands_1_1GoCommand.html#a210afbc5f3ef34d3ad5759d853c8f8c2" target="_top" xlink:title="Go to the Room without checking. ">
<polygon fill="white" stroke="black" points="240,-50 240,-80 400,-80 400,-50 240,-50"/>
<text text-anchor="start" x="248" y="-68" font-family="Helvetica,sans-Serif" font-size="10.00">pkg_commands.GoCommand.go</text>
<text text-anchor="middle" x="320" y="-57" font-family="Helvetica,sans-Serif" font-size="10.00">RoomNoCheck</text>
</a>
</g>
</g>
<!-- Node1&#45;&gt;Node2 -->
<g id="edge1" class="edge"><title>Node1&#45;&gt;Node2</title>
<path fill="none" stroke="midnightblue" d="M192.415,-78.479C204.655,-77.1756 217.225,-75.8372 229.467,-74.5336"/>
<polygon fill="midnightblue" stroke="midnightblue" points="230.087,-77.9874 239.66,-73.4482 229.346,-71.0268 230.087,-77.9874"/>
</g>
<!-- Node3 -->
<g id="node3" class="node"><title>Node3</title>
<g id="a_node3"><a xlink:href="classpkg__commands_1_1Command.html#ae210ff216fe908b111ba1c988a963d13" target="_top" xlink:title="Message field setter. ">
<polygon fill="white" stroke="black" points="437,-98 437,-128 587,-128 587,-98 437,-98"/>
<text text-anchor="start" x="445" y="-116" font-family="Helvetica,sans-Serif" font-size="10.00">pkg_commands.Command.set</text>
<text text-anchor="middle" x="512" y="-105" font-family="Helvetica,sans-Serif" font-size="10.00">Message</text>
</a>
</g>
</g>
<!-- Node1&#45;&gt;Node3 -->
<g id="edge5" class="edge"><title>Node1&#45;&gt;Node3</title>
<path fill="none" stroke="midnightblue" d="M203.592,-94.1637C272.13,-98.3634 361.839,-103.86 426.64,-107.831"/>
<polygon fill="midnightblue" stroke="midnightblue" points="426.624,-111.336 436.819,-108.455 427.052,-104.349 426.624,-111.336"/>
</g>
<!-- Node2&#45;&gt;Node3 -->
<g id="edge2" class="edge"><title>Node2&#45;&gt;Node3</title>
<path fill="none" stroke="midnightblue" d="M380.596,-80.0558C400.049,-84.9703 421.814,-90.4687 441.905,-95.5443"/>
<polygon fill="midnightblue" stroke="midnightblue" points="441.063,-98.9416 451.616,-97.9976 442.777,-92.1548 441.063,-98.9416"/>
</g>
<!-- Node4 -->
<g id="node4" class="node"><title>Node4</title>
<g id="a_node4"><a xlink:href="classpkg__commands_1_1Command.html#ae46bb048d0fa705a5037a5204b530da2" target="_top" xlink:title="Return true if the message is equal to null or &quot;&quot;. ">
<polygon fill="white" stroke="black" points="436,-49 436,-79 588,-79 588,-49 436,-49"/>
<text text-anchor="start" x="444" y="-67" font-family="Helvetica,sans-Serif" font-size="10.00">pkg_commands.Command.has</text>
<text text-anchor="middle" x="512" y="-56" font-family="Helvetica,sans-Serif" font-size="10.00">Message</text>
</a>
</g>
</g>
<!-- Node2&#45;&gt;Node4 -->
<g id="edge3" class="edge"><title>Node2&#45;&gt;Node4</title>
<path fill="none" stroke="midnightblue" d="M400.201,-64.5832C408.599,-64.539 417.165,-64.4939 425.629,-64.4493"/>
<polygon fill="midnightblue" stroke="midnightblue" points="425.902,-67.948 435.884,-64.3953 425.865,-60.9481 425.902,-67.948"/>
</g>
<!-- Node5 -->
<g id="node5" class="node"><title>Node5</title>
<g id="a_node5"><a xlink:href="classpkg__commands_1_1Command.html#ac2a42e2bab264821892daefaf9a18b6c" target="_top" xlink:title="Message field getter. ">
<polygon fill="white" stroke="black" points="437,-0 437,-30 587,-30 587,-0 437,-0"/>
<text text-anchor="start" x="445" y="-18" font-family="Helvetica,sans-Serif" font-size="10.00">pkg_commands.Command.get</text>
<text text-anchor="middle" x="512" y="-7" font-family="Helvetica,sans-Serif" font-size="10.00">Message</text>
</a>
</g>
</g>
<!-- Node2&#45;&gt;Node5 -->
<g id="edge4" class="edge"><title>Node2&#45;&gt;Node5</title>
<path fill="none" stroke="midnightblue" d="M378.006,-49.9984C398.765,-44.5354 422.422,-38.3099 443.971,-32.6391"/>
<polygon fill="midnightblue" stroke="midnightblue" points="444.926,-36.0072 453.706,-30.0774 443.144,-29.2376 444.926,-36.0072"/>
</g>
</g>
</svg>
