<?xml version="1.0" encoding="UTF-8" standalone="no"?>
<!DOCTYPE svg PUBLIC "-//W3C//DTD SVG 1.1//EN"
 "http://www.w3.org/Graphics/SVG/1.1/DTD/svg11.dtd">
<!-- Generated by graphviz version 2.36.0 (20140111.2315)
 -->
<!-- Title: EatCommand.execute Pages: 1 -->
<svg width="284pt" height="104pt"
 viewBox="0.00 0.00 284.00 104.00" xmlns="http://www.w3.org/2000/svg" xmlns:xlink="http://www.w3.org/1999/xlink">
<g id="graph0" class="graph" transform="scale(1 1) rotate(0) translate(4 100)">
<title>EatCommand.execute</title>
<polygon fill="white" stroke="none" points="-4,4 -4,-100 280,-100 280,4 -4,4"/>
<!-- Node1 -->
<g id="node1" class="node"><title>Node1</title>
<polygon fill="#bfbfbf" stroke="black" points="0,-38.5 0,-57.5 114,-57.5 114,-38.5 0,-38.5"/>
<text text-anchor="middle" x="57" y="-45.5" font-family="Helvetica,sans-Serif" font-size="10.00">EatCommand.execute</text>
</g>
<!-- Node2 -->
<g id="node2" class="node"><title>Node2</title>
<g id="a_node2"><a xlink:href="classCommand.html#a1ced3739d546770ba1389e6ce228255e" target="_top" xlink:title="Parameter field getter. ">
<polygon fill="white" stroke="black" points="151.5,-76.5 151.5,-95.5 274.5,-95.5 274.5,-76.5 151.5,-76.5"/>
<text text-anchor="middle" x="213" y="-83.5" font-family="Helvetica,sans-Serif" font-size="10.00">Command.getParameter</text>
</a>
</g>
</g>
<!-- Node1&#45;&gt;Node2 -->
<g id="edge1" class="edge"><title>Node1&#45;&gt;Node2</title>
<path fill="none" stroke="midnightblue" d="M96.8607,-57.589C117.091,-62.5809 142.021,-68.7324 163.504,-74.0334"/>
<polygon fill="midnightblue" stroke="midnightblue" points="162.871,-77.4823 173.419,-76.4799 164.548,-70.6861 162.871,-77.4823"/>
</g>
<!-- Node3 -->
<g id="node3" class="node"><title>Node3</title>
<g id="a_node3"><a xlink:href="classCommand.html#a9b042558156d6749566e0fd9d48d3bfe" target="_top" xlink:title="Return true if the parameter is null. ">
<polygon fill="white" stroke="black" points="150.5,-38.5 150.5,-57.5 275.5,-57.5 275.5,-38.5 150.5,-38.5"/>
<text text-anchor="middle" x="213" y="-45.5" font-family="Helvetica,sans-Serif" font-size="10.00">Command.hasParameter</text>
</a>
</g>
</g>
<!-- Node1&#45;&gt;Node3 -->
<g id="edge2" class="edge"><title>Node1&#45;&gt;Node3</title>
<path fill="none" stroke="midnightblue" d="M114.033,-48C122.502,-48 131.336,-48 140.083,-48"/>
<polygon fill="midnightblue" stroke="midnightblue" points="140.283,-51.5001 150.283,-48 140.283,-44.5001 140.283,-51.5001"/>
</g>
<!-- Node4 -->
<g id="node4" class="node"><title>Node4</title>
<g id="a_node4"><a xlink:href="classCommand.html#a715709d8f0ab65879d79ad1725c96f17" target="_top" xlink:title="Message field setter. ">
<polygon fill="white" stroke="black" points="154,-0.5 154,-19.5 272,-19.5 272,-0.5 154,-0.5"/>
<text text-anchor="middle" x="213" y="-7.5" font-family="Helvetica,sans-Serif" font-size="10.00">Command.setMessage</text>
</a>
</g>
</g>
<!-- Node1&#45;&gt;Node4 -->
<g id="edge3" class="edge"><title>Node1&#45;&gt;Node4</title>
<path fill="none" stroke="midnightblue" d="M96.8607,-38.411C117.091,-33.4191 142.021,-27.2676 163.504,-21.9666"/>
<polygon fill="midnightblue" stroke="midnightblue" points="164.548,-25.3139 173.419,-19.5201 162.871,-18.5177 164.548,-25.3139"/>
</g>
</g>
</svg>
