<?xml version="1.0" encoding="UTF-8" standalone="no"?>
<!DOCTYPE svg PUBLIC "-//W3C//DTD SVG 1.1//EN"
 "http://www.w3.org/Graphics/SVG/1.1/DTD/svg11.dtd">
<!-- Generated by graphviz version 2.36.0 (20140111.2315)
 -->
<!-- Title: pkg_game.UserInterface Pages: 1 -->
<svg width="130pt" height="314pt"
 viewBox="0.00 0.00 130.00 314.00" xmlns="http://www.w3.org/2000/svg" xmlns:xlink="http://www.w3.org/1999/xlink">
<g id="graph0" class="graph" transform="scale(1 1) rotate(0) translate(4 310)">
<title>pkg_game.UserInterface</title>
<polygon fill="white" stroke="none" points="-4,4 -4,-310 126,-310 126,4 -4,4"/>
<!-- Node1 -->
<g id="node1" class="node"><title>Node1</title>
<polygon fill="#bfbfbf" stroke="black" points="-1,-0.5 -1,-211.5 123,-211.5 123,-0.5 -1,-0.5"/>
<text text-anchor="middle" x="61" y="-199.5" font-family="Helvetica,sans-Serif" font-size="10.00">pkg_game.UserInterface</text>
<polyline fill="none" stroke="black" points="-1,-192.5 123,-192.5 "/>
<text text-anchor="start" x="7" y="-180.5" font-family="Helvetica,sans-Serif" font-size="10.00">&#45; engine</text>
<text text-anchor="start" x="7" y="-169.5" font-family="Helvetica,sans-Serif" font-size="10.00">&#45; myFrame</text>
<text text-anchor="start" x="7" y="-158.5" font-family="Helvetica,sans-Serif" font-size="10.00">&#45; entryField</text>
<text text-anchor="start" x="7" y="-147.5" font-family="Helvetica,sans-Serif" font-size="10.00">&#45; log</text>
<text text-anchor="start" x="7" y="-136.5" font-family="Helvetica,sans-Serif" font-size="10.00">&#45; image</text>
<text text-anchor="start" x="7" y="-125.5" font-family="Helvetica,sans-Serif" font-size="10.00">&#45; commandsLeftLabel</text>
<text text-anchor="start" x="7" y="-114.5" font-family="Helvetica,sans-Serif" font-size="10.00">&#45; buttons</text>
<polyline fill="none" stroke="black" points="-1,-107.5 123,-107.5 "/>
<text text-anchor="start" x="7" y="-95.5" font-family="Helvetica,sans-Serif" font-size="10.00">+ UserInterface()</text>
<text text-anchor="start" x="7" y="-84.5" font-family="Helvetica,sans-Serif" font-size="10.00">+ setCommandsLeft()</text>
<text text-anchor="start" x="7" y="-73.5" font-family="Helvetica,sans-Serif" font-size="10.00">+ print()</text>
<text text-anchor="start" x="7" y="-62.5" font-family="Helvetica,sans-Serif" font-size="10.00">+ println()</text>
<text text-anchor="start" x="7" y="-51.5" font-family="Helvetica,sans-Serif" font-size="10.00">+ showImage()</text>
<text text-anchor="start" x="7" y="-40.5" font-family="Helvetica,sans-Serif" font-size="10.00">+ enable()</text>
<text text-anchor="start" x="7" y="-29.5" font-family="Helvetica,sans-Serif" font-size="10.00">+ actionPerformed()</text>
<text text-anchor="start" x="7" y="-18.5" font-family="Helvetica,sans-Serif" font-size="10.00">&#45; createGUI()</text>
<text text-anchor="start" x="7" y="-7.5" font-family="Helvetica,sans-Serif" font-size="10.00">&#45; processCommand()</text>
</g>
<!-- Node2 -->
<g id="node2" class="node"><title>Node2</title>
<polygon fill="white" stroke="#bfbfbf" points="21.5,-248.5 21.5,-305.5 100.5,-305.5 100.5,-248.5 21.5,-248.5"/>
<text text-anchor="middle" x="61" y="-293.5" font-family="Helvetica,sans-Serif" font-size="10.00">ActionListener</text>
<polyline fill="none" stroke="#bfbfbf" points="21.5,-286.5 100.5,-286.5 "/>
<text text-anchor="middle" x="61" y="-274.5" font-family="Helvetica,sans-Serif" font-size="10.00"> </text>
<polyline fill="none" stroke="#bfbfbf" points="21.5,-267.5 100.5,-267.5 "/>
<text text-anchor="middle" x="61" y="-255.5" font-family="Helvetica,sans-Serif" font-size="10.00"> </text>
</g>
<!-- Node2&#45;&gt;Node1 -->
<g id="edge1" class="edge"><title>Node2&#45;&gt;Node1</title>
<path fill="none" stroke="midnightblue" d="M61,-238.233C61,-230.038 61,-220.987 61,-211.584"/>
<polygon fill="none" stroke="midnightblue" points="57.5001,-238.471 61,-248.471 64.5001,-238.471 57.5001,-238.471"/>
</g>
</g>
</svg>
