<?xml version="1.0" encoding="UTF-8" standalone="no"?>
<!DOCTYPE svg PUBLIC "-//W3C//DTD SVG 1.1//EN"
 "http://www.w3.org/Graphics/SVG/1.1/DTD/svg11.dtd">
<!-- Generated by graphviz version 2.36.0 (20140111.2315)
 -->
<!-- Title: pkg_commands.Command.getParameter Pages: 1 -->
<svg width="400pt" height="256pt"
 viewBox="0.00 0.00 400.00 256.00" xmlns="http://www.w3.org/2000/svg" xmlns:xlink="http://www.w3.org/1999/xlink">
<g id="graph0" class="graph" transform="scale(1 1) rotate(0) translate(4 252)">
<title>pkg_commands.Command.getParameter</title>
<polygon fill="white" stroke="none" points="-4,4 -4,-252 396,-252 396,4 -4,4"/>
<!-- Node1 -->
<g id="node1" class="node"><title>Node1</title>
<polygon fill="#bfbfbf" stroke="black" points="0,-109 0,-139 150,-139 150,-109 0,-109"/>
<text text-anchor="start" x="8" y="-127" font-family="Helvetica,sans-Serif" font-size="10.00">pkg_commands.Command.get</text>
<text text-anchor="middle" x="75" y="-116" font-family="Helvetica,sans-Serif" font-size="10.00">Parameter</text>
</g>
<!-- Node2 -->
<g id="node2" class="node"><title>Node2</title>
<g id="a_node2"><a xlink:href="classpkg__commands_1_1LookCommand.html#af336146fae1e14bf434d85a5acbcdcd7" target="_top" xlink:title="Saves the information about the current Room or a given Item in the message field. ">
<polygon fill="white" stroke="black" points="193,-228.5 193,-247.5 385,-247.5 385,-228.5 193,-228.5"/>
<text text-anchor="middle" x="289" y="-235.5" font-family="Helvetica,sans-Serif" font-size="10.00">pkg_commands.LookCommand.execute</text>
</a>
</g>
</g>
<!-- Node1&#45;&gt;Node2 -->
<g id="edge1" class="edge"><title>Node1&#45;&gt;Node2</title>
<path fill="none" stroke="midnightblue" d="M95.6754,-146.917C115.988,-169.004 149.747,-201.565 186,-219 194.117,-222.903 202.954,-226.007 211.92,-228.474"/>
<polygon fill="midnightblue" stroke="midnightblue" points="98.112,-144.392 88.8206,-139.301 92.909,-149.075 98.112,-144.392"/>
</g>
<!-- Node3 -->
<g id="node3" class="node"><title>Node3</title>
<g id="a_node3"><a xlink:href="classpkg__commands_1_1DropCommand.html#a742e37b2d2dd4e111130811ee2f4dd0b" target="_top" xlink:title="Drop the Item through it&#39;s name in the parameter field. ">
<polygon fill="white" stroke="black" points="193,-190.5 193,-209.5 385,-209.5 385,-190.5 193,-190.5"/>
<text text-anchor="middle" x="289" y="-197.5" font-family="Helvetica,sans-Serif" font-size="10.00">pkg_commands.DropCommand.execute</text>
</a>
</g>
</g>
<!-- Node1&#45;&gt;Node3 -->
<g id="edge2" class="edge"><title>Node1&#45;&gt;Node3</title>
<path fill="none" stroke="midnightblue" d="M108.625,-144.148C129.937,-156.48 158.769,-171.639 186,-181 197.158,-184.836 209.283,-187.953 221.15,-190.467"/>
<polygon fill="midnightblue" stroke="midnightblue" points="110.372,-141.115 99.978,-139.061 106.822,-147.148 110.372,-141.115"/>
</g>
<!-- Node4 -->
<g id="node4" class="node"><title>Node4</title>
<g id="a_node4"><a xlink:href="classpkg__commands_1_1TakeCommand.html#a17789062aaf2ab5747c7eeac118875cd" target="_top" xlink:title="Make the player take an Item. ">
<polygon fill="white" stroke="black" points="192.5,-152.5 192.5,-171.5 385.5,-171.5 385.5,-152.5 192.5,-152.5"/>
<text text-anchor="middle" x="289" y="-159.5" font-family="Helvetica,sans-Serif" font-size="10.00">pkg_commands.TakeCommand.execute</text>
</a>
</g>
</g>
<!-- Node1&#45;&gt;Node4 -->
<g id="edge3" class="edge"><title>Node1&#45;&gt;Node4</title>
<path fill="none" stroke="midnightblue" d="M160.09,-139.073C185.323,-143.596 212.288,-148.429 234.922,-152.486"/>
<polygon fill="midnightblue" stroke="midnightblue" points="160.608,-135.61 150.147,-137.291 159.373,-142.5 160.608,-135.61"/>
</g>
<!-- Node5 -->
<g id="node5" class="node"><title>Node5</title>
<g id="a_node5"><a xlink:href="classpkg__commands_1_1GoCommand.html#a82e9a64a0fac612f788060a90c83f9b1" target="_top" xlink:title="Make the player go to the Room through it&#39;s direction in the parameter field. ">
<polygon fill="white" stroke="black" points="197,-114.5 197,-133.5 381,-133.5 381,-114.5 197,-114.5"/>
<text text-anchor="middle" x="289" y="-121.5" font-family="Helvetica,sans-Serif" font-size="10.00">pkg_commands.GoCommand.execute</text>
</a>
</g>
</g>
<!-- Node1&#45;&gt;Node5 -->
<g id="edge4" class="edge"><title>Node1&#45;&gt;Node5</title>
<path fill="none" stroke="midnightblue" d="M160.502,-124C172.415,-124 184.705,-124 196.738,-124"/>
<polygon fill="midnightblue" stroke="midnightblue" points="160.147,-120.5 150.147,-124 160.147,-127.5 160.147,-120.5"/>
</g>
<!-- Node6 -->
<g id="node6" class="node"><title>Node6</title>
<g id="a_node6"><a xlink:href="classpkg__commands_1_1EatCommand.html#a2a600f09891aa076b3f630293de965f4" target="_top" xlink:title="Make the player eat an object. ">
<polygon fill="white" stroke="black" points="196,-76.5 196,-95.5 382,-95.5 382,-76.5 196,-76.5"/>
<text text-anchor="middle" x="289" y="-83.5" font-family="Helvetica,sans-Serif" font-size="10.00">pkg_commands.EatCommand.execute</text>
</a>
</g>
</g>
<!-- Node1&#45;&gt;Node6 -->
<g id="edge5" class="edge"><title>Node1&#45;&gt;Node6</title>
<path fill="none" stroke="midnightblue" d="M160.09,-108.927C185.323,-104.404 212.288,-99.5711 234.922,-95.5139"/>
<polygon fill="midnightblue" stroke="midnightblue" points="159.373,-105.5 150.147,-110.709 160.608,-112.39 159.373,-105.5"/>
</g>
<!-- Node7 -->
<g id="node7" class="node"><title>Node7</title>
<g id="a_node7"><a xlink:href="classpkg__commands_1_1BeamerCommand.html#a139dc852e180cabd8af15cfed37dcf0e" target="_top" xlink:title="Teleport to the remembered room or remember a room. ">
<polygon fill="white" stroke="black" points="186.5,-38.5 186.5,-57.5 391.5,-57.5 391.5,-38.5 186.5,-38.5"/>
<text text-anchor="middle" x="289" y="-45.5" font-family="Helvetica,sans-Serif" font-size="10.00">pkg_commands.BeamerCommand.execute</text>
</a>
</g>
</g>
<!-- Node1&#45;&gt;Node7 -->
<g id="edge6" class="edge"><title>Node1&#45;&gt;Node7</title>
<path fill="none" stroke="midnightblue" d="M108.625,-103.852C129.937,-91.5199 158.769,-76.3615 186,-67 197.158,-63.1642 209.283,-60.0475 221.15,-57.5329"/>
<polygon fill="midnightblue" stroke="midnightblue" points="106.822,-100.852 99.978,-108.939 110.372,-106.885 106.822,-100.852"/>
</g>
<!-- Node8 -->
<g id="node8" class="node"><title>Node8</title>
<g id="a_node8"><a xlink:href="classpkg__commands_1_1TestCommand.html#a1ff07c27a46910d20c2e4569888892ca" target="_top" xlink:title="Test series of Commands stored in a .test file and store the messages in the message field...">
<polygon fill="white" stroke="black" points="193.5,-0.5 193.5,-19.5 384.5,-19.5 384.5,-0.5 193.5,-0.5"/>
<text text-anchor="middle" x="289" y="-7.5" font-family="Helvetica,sans-Serif" font-size="10.00">pkg_commands.TestCommand.execute</text>
</a>
</g>
</g>
<!-- Node1&#45;&gt;Node8 -->
<g id="edge7" class="edge"><title>Node1&#45;&gt;Node8</title>
<path fill="none" stroke="midnightblue" d="M95.6754,-101.083C115.988,-78.9964 149.747,-46.4346 186,-29 194.117,-25.0966 202.954,-21.9932 211.92,-19.5261"/>
<polygon fill="midnightblue" stroke="midnightblue" points="92.909,-98.9252 88.8206,-108.699 98.112,-103.608 92.909,-98.9252"/>
</g>
</g>
</svg>
