<?xml version="1.0" encoding="UTF-8" standalone="no"?>
<!DOCTYPE svg PUBLIC "-//W3C//DTD SVG 1.1//EN"
 "http://www.w3.org/Graphics/SVG/1.1/DTD/svg11.dtd">
<!-- Generated by graphviz version 2.36.0 (20140111.2315)
 -->
<!-- Title: CommandWords Pages: 1 -->
<svg width="160pt" height="206pt"
 viewBox="0.00 0.00 160.00 206.00" xmlns="http://www.w3.org/2000/svg" xmlns:xlink="http://www.w3.org/1999/xlink">
<g id="graph0" class="graph" transform="scale(1 1) rotate(0) translate(4 202)">
<title>CommandWords</title>
<polygon fill="white" stroke="none" points="-4,4 -4,-202 156,-202 156,4 -4,4"/>
<!-- Node1 -->
<g id="node1" class="node"><title>Node1</title>
<polygon fill="#bfbfbf" stroke="black" points="23,-1 23,-91 129,-91 129,-1 23,-1"/>
<text text-anchor="middle" x="76" y="-79" font-family="Helvetica,sans-Serif" font-size="10.00">CommandWords</text>
<polyline fill="none" stroke="black" points="23,-72 129,-72 "/>
<text text-anchor="middle" x="76" y="-60" font-family="Helvetica,sans-Serif" font-size="10.00"> </text>
<polyline fill="none" stroke="black" points="23,-53 129,-53 "/>
<text text-anchor="start" x="31" y="-41" font-family="Helvetica,sans-Serif" font-size="10.00">+ CommandWords()</text>
<text text-anchor="start" x="31" y="-30" font-family="Helvetica,sans-Serif" font-size="10.00">+ isCommand()</text>
<text text-anchor="start" x="31" y="-19" font-family="Helvetica,sans-Serif" font-size="10.00">+ getCommandList()</text>
<text text-anchor="start" x="31" y="-8" font-family="Helvetica,sans-Serif" font-size="10.00">+ getCommand()</text>
</g>
<!-- Node2 -->
<g id="node2" class="node"><title>Node2</title>
<polygon fill="white" stroke="#bfbfbf" points="-0.5,-140.5 -0.5,-197.5 152.5,-197.5 152.5,-140.5 -0.5,-140.5"/>
<text text-anchor="middle" x="76" y="-185.5" font-family="Helvetica,sans-Serif" font-size="10.00">HashMap&lt; String, Command &gt;</text>
<polyline fill="none" stroke="#bfbfbf" points="-0.5,-178.5 152.5,-178.5 "/>
<text text-anchor="middle" x="76" y="-166.5" font-family="Helvetica,sans-Serif" font-size="10.00"> </text>
<polyline fill="none" stroke="#bfbfbf" points="-0.5,-159.5 152.5,-159.5 "/>
<text text-anchor="middle" x="76" y="-147.5" font-family="Helvetica,sans-Serif" font-size="10.00"> </text>
</g>
<!-- Node2&#45;&gt;Node1 -->
<g id="edge1" class="edge"><title>Node2&#45;&gt;Node1</title>
<path fill="none" stroke="#404040" d="M76,-140.24C76,-129.242 76,-116.179 76,-103.364"/>
<polygon fill="none" stroke="#404040" points="76.0001,-103.23 72,-97.2296 76,-91.2295 80,-97.2295 76.0001,-103.23"/>
<text text-anchor="middle" x="103.5" y="-113.5" font-family="Helvetica,sans-Serif" font-size="10.00"> &#45;commands</text>
</g>
</g>
</svg>
