<?xml version="1.0" encoding="UTF-8" standalone="no"?>
<!DOCTYPE svg PUBLIC "-//W3C//DTD SVG 1.1//EN"
 "http://www.w3.org/Graphics/SVG/1.1/DTD/svg11.dtd">
<!-- Generated by graphviz version 2.36.0 (20140111.2315)
 -->
<!-- Title: pkg_game.UserInterface Pages: 1 -->
<svg width="760pt" height="880pt"
 viewBox="0.00 0.00 760.00 880.00" xmlns="http://www.w3.org/2000/svg" xmlns:xlink="http://www.w3.org/1999/xlink">
<g id="graph0" class="graph" transform="scale(1 1) rotate(0) translate(4 876)">
<title>pkg_game.UserInterface</title>
<polygon fill="white" stroke="none" points="-4,4 -4,-876 756,-876 756,4 -4,4"/>
<!-- Node1 -->
<g id="node1" class="node"><title>Node1</title>
<polygon fill="#bfbfbf" stroke="black" points="559,-190.5 559,-379.5 683,-379.5 683,-190.5 559,-190.5"/>
<text text-anchor="middle" x="621" y="-367.5" font-family="Helvetica,sans-Serif" font-size="10.00">pkg_game.UserInterface</text>
<polyline fill="none" stroke="black" points="559,-360.5 683,-360.5 "/>
<text text-anchor="start" x="567" y="-348.5" font-family="Helvetica,sans-Serif" font-size="10.00">&#45; myFrame</text>
<text text-anchor="start" x="567" y="-337.5" font-family="Helvetica,sans-Serif" font-size="10.00">&#45; entryField</text>
<text text-anchor="start" x="567" y="-326.5" font-family="Helvetica,sans-Serif" font-size="10.00">&#45; log</text>
<text text-anchor="start" x="567" y="-315.5" font-family="Helvetica,sans-Serif" font-size="10.00">&#45; image</text>
<text text-anchor="start" x="567" y="-304.5" font-family="Helvetica,sans-Serif" font-size="10.00">&#45; commandsLeftLabel</text>
<polyline fill="none" stroke="black" points="559,-297.5 683,-297.5 "/>
<text text-anchor="start" x="567" y="-285.5" font-family="Helvetica,sans-Serif" font-size="10.00">+ UserInterface()</text>
<text text-anchor="start" x="567" y="-274.5" font-family="Helvetica,sans-Serif" font-size="10.00">+ setCommandsLeft()</text>
<text text-anchor="start" x="567" y="-263.5" font-family="Helvetica,sans-Serif" font-size="10.00">+ print()</text>
<text text-anchor="start" x="567" y="-252.5" font-family="Helvetica,sans-Serif" font-size="10.00">+ println()</text>
<text text-anchor="start" x="567" y="-241.5" font-family="Helvetica,sans-Serif" font-size="10.00">+ showImage()</text>
<text text-anchor="start" x="567" y="-230.5" font-family="Helvetica,sans-Serif" font-size="10.00">+ enable()</text>
<text text-anchor="start" x="567" y="-219.5" font-family="Helvetica,sans-Serif" font-size="10.00">+ actionPerformed()</text>
<text text-anchor="start" x="567" y="-208.5" font-family="Helvetica,sans-Serif" font-size="10.00">&#45; createGUI()</text>
<text text-anchor="start" x="567" y="-197.5" font-family="Helvetica,sans-Serif" font-size="10.00">&#45; processCommand()</text>
</g>
<!-- Node3 -->
<g id="node3" class="node"><title>Node3</title>
<g id="a_node3"><a xlink:href="classpkg__game_1_1GameEngine.html" target="_top" xlink:title="Class handling the gameplay for the game. ">
<polygon fill="white" stroke="black" points="406.5,-1 406.5,-135 527.5,-135 527.5,-1 406.5,-1"/>
<text text-anchor="middle" x="467" y="-123" font-family="Helvetica,sans-Serif" font-size="10.00">pkg_game.GameEngine</text>
<polyline fill="none" stroke="black" points="406.5,-116 527.5,-116 "/>
<text text-anchor="start" x="414.5" y="-104" font-family="Helvetica,sans-Serif" font-size="10.00">&#45; helpCount</text>
<text text-anchor="start" x="414.5" y="-93" font-family="Helvetica,sans-Serif" font-size="10.00">&#45; commandCountDown</text>
<polyline fill="none" stroke="black" points="406.5,-86 527.5,-86 "/>
<text text-anchor="start" x="414.5" y="-74" font-family="Helvetica,sans-Serif" font-size="10.00">+ GameEngine()</text>
<text text-anchor="start" x="414.5" y="-63" font-family="Helvetica,sans-Serif" font-size="10.00">+ setGUI()</text>
<text text-anchor="start" x="414.5" y="-52" font-family="Helvetica,sans-Serif" font-size="10.00">+ processCommand()</text>
<text text-anchor="start" x="414.5" y="-41" font-family="Helvetica,sans-Serif" font-size="10.00">+ getRooms()</text>
<text text-anchor="start" x="414.5" y="-30" font-family="Helvetica,sans-Serif" font-size="10.00">&#45; printWelcome()</text>
<text text-anchor="start" x="414.5" y="-19" font-family="Helvetica,sans-Serif" font-size="10.00">&#45; createRooms()</text>
<text text-anchor="start" x="414.5" y="-8" font-family="Helvetica,sans-Serif" font-size="10.00">&#45; endGame()</text>
</a>
</g>
</g>
<!-- Node1&#45;&gt;Node3 -->
<g id="edge3" class="edge"><title>Node1&#45;&gt;Node3</title>
<path fill="none" stroke="#404040" d="M599.315,-190.427C594.144,-177.565 587.79,-165.012 580,-154 568.611,-137.902 553.244,-123.537 537.516,-111.403"/>
<polygon fill="none" stroke="#404040" points="537.353,-111.282 530.15,-110.926 527.709,-104.141 534.911,-104.497 537.353,-111.282"/>
<text text-anchor="middle" x="595.5" y="-157.5" font-family="Helvetica,sans-Serif" font-size="10.00"> &#45;gui</text>
</g>
<!-- Node2 -->
<g id="node2" class="node"><title>Node2</title>
<polygon fill="white" stroke="#bfbfbf" points="672.5,-516.5 672.5,-573.5 751.5,-573.5 751.5,-516.5 672.5,-516.5"/>
<text text-anchor="middle" x="712" y="-561.5" font-family="Helvetica,sans-Serif" font-size="10.00">ActionListener</text>
<polyline fill="none" stroke="#bfbfbf" points="672.5,-554.5 751.5,-554.5 "/>
<text text-anchor="middle" x="712" y="-542.5" font-family="Helvetica,sans-Serif" font-size="10.00"> </text>
<polyline fill="none" stroke="#bfbfbf" points="672.5,-535.5 751.5,-535.5 "/>
<text text-anchor="middle" x="712" y="-523.5" font-family="Helvetica,sans-Serif" font-size="10.00"> </text>
</g>
<!-- Node2&#45;&gt;Node1 -->
<g id="edge1" class="edge"><title>Node2&#45;&gt;Node1</title>
<path fill="none" stroke="midnightblue" d="M698.831,-506.663C687.138,-473.512 669.553,-423.655 654.054,-379.714"/>
<polygon fill="none" stroke="midnightblue" points="695.634,-508.123 702.261,-516.389 702.236,-505.795 695.634,-508.123"/>
</g>
<!-- Node3&#45;&gt;Node1 -->
<g id="edge2" class="edge"><title>Node3&#45;&gt;Node1</title>
<path fill="none" stroke="#404040" d="M518.945,-135.038C523.751,-141.405 528.502,-147.8 533,-154 539.288,-162.667 545.719,-171.736 552.1,-180.879"/>
<polygon fill="none" stroke="#404040" points="552.154,-180.956 558.861,-183.604 558.997,-190.814 552.289,-188.166 552.154,-180.956"/>
<text text-anchor="middle" x="558.5" y="-157.5" font-family="Helvetica,sans-Serif" font-size="10.00"> &#45;engine</text>
</g>
<!-- Node4 -->
<g id="node4" class="node"><title>Node4</title>
<polygon fill="white" stroke="#bfbfbf" points="81,-251 81,-319 235,-319 235,-251 81,-251"/>
<text text-anchor="start" x="89" y="-307" font-family="Helvetica,sans-Serif" font-size="10.00">HashSet&lt; pkg_world.pkg</text>
<text text-anchor="middle" x="158" y="-296" font-family="Helvetica,sans-Serif" font-size="10.00">_characters.MovingCharacter &gt;</text>
<polyline fill="none" stroke="#bfbfbf" points="81,-289 235,-289 "/>
<text text-anchor="middle" x="158" y="-277" font-family="Helvetica,sans-Serif" font-size="10.00"> </text>
<polyline fill="none" stroke="#bfbfbf" points="81,-270 235,-270 "/>
<text text-anchor="middle" x="158" y="-258" font-family="Helvetica,sans-Serif" font-size="10.00"> </text>
</g>
<!-- Node4&#45;&gt;Node3 -->
<g id="edge4" class="edge"><title>Node4&#45;&gt;Node3</title>
<path fill="none" stroke="#404040" d="M181.215,-250.936C197.149,-229.917 219.738,-203.156 244,-184 289.955,-147.717 349.131,-117.831 394.975,-97.6274"/>
<polygon fill="none" stroke="#404040" points="395.02,-97.6077 398.931,-91.5493 406.028,-92.8292 402.117,-98.8876 395.02,-97.6077"/>
<text text-anchor="middle" x="327" y="-157.5" font-family="Helvetica,sans-Serif" font-size="10.00"> &#45;movingCharacters</text>
</g>
<!-- Node5 -->
<g id="node5" class="node"><title>Node5</title>
<g id="a_node5"><a xlink:href="classpkg__world_1_1Player.html" target="_top" xlink:title="class Player used to handle the user&#39;s player. ">
<polygon fill="white" stroke="black" points="253,-185 253,-385 375,-385 375,-185 253,-185"/>
<text text-anchor="middle" x="314" y="-373" font-family="Helvetica,sans-Serif" font-size="10.00">pkg_world.Player</text>
<polyline fill="none" stroke="black" points="253,-366 375,-366 "/>
<text text-anchor="start" x="261" y="-354" font-family="Helvetica,sans-Serif" font-size="10.00">&#45; name</text>
<text text-anchor="start" x="261" y="-343" font-family="Helvetica,sans-Serif" font-size="10.00">&#45; backpackWeight</text>
<text text-anchor="start" x="261" y="-332" font-family="Helvetica,sans-Serif" font-size="10.00">&#45; maxWeight</text>
<text text-anchor="start" x="261" y="-321" font-family="Helvetica,sans-Serif" font-size="10.00">&#45; threwSnowball</text>
<polyline fill="none" stroke="black" points="253,-314 375,-314 "/>
<text text-anchor="start" x="261" y="-302" font-family="Helvetica,sans-Serif" font-size="10.00">+ Player()</text>
<text text-anchor="start" x="261" y="-291" font-family="Helvetica,sans-Serif" font-size="10.00">+ getName()</text>
<text text-anchor="start" x="261" y="-280" font-family="Helvetica,sans-Serif" font-size="10.00">+ getMaxWeight()</text>
<text text-anchor="start" x="261" y="-269" font-family="Helvetica,sans-Serif" font-size="10.00">+ setMaxWeight()</text>
<text text-anchor="start" x="261" y="-258" font-family="Helvetica,sans-Serif" font-size="10.00">+ getCurrentRoom()</text>
<text text-anchor="start" x="261" y="-247" font-family="Helvetica,sans-Serif" font-size="10.00">+ goRoom()</text>
<text text-anchor="start" x="261" y="-236" font-family="Helvetica,sans-Serif" font-size="10.00">+ getPreviousRoom()</text>
<text text-anchor="start" x="261" y="-225" font-family="Helvetica,sans-Serif" font-size="10.00">+ pushPreviousRooms()</text>
<text text-anchor="start" x="261" y="-214" font-family="Helvetica,sans-Serif" font-size="10.00">+ pushForward()</text>
<text text-anchor="start" x="261" y="-203" font-family="Helvetica,sans-Serif" font-size="10.00">+ popPreviousRooms()</text>
<text text-anchor="start" x="261" y="-192" font-family="Helvetica,sans-Serif" font-size="10.00">and 12 more...</text>
</a>
</g>
</g>
<!-- Node5&#45;&gt;Node3 -->
<g id="edge5" class="edge"><title>Node5&#45;&gt;Node3</title>
<path fill="none" stroke="#404040" d="M375.009,-196.686C378.044,-192.393 381.053,-188.145 384,-184 392.98,-171.366 402.563,-157.991 411.909,-145.005"/>
<polygon fill="none" stroke="#404040" points="411.981,-144.904 412.243,-137.698 418.996,-135.168 418.734,-142.374 411.981,-144.904"/>
<text text-anchor="middle" x="421.5" y="-157.5" font-family="Helvetica,sans-Serif" font-size="10.00"> &#45;player</text>
</g>
<!-- Node6 -->
<g id="node6" class="node"><title>Node6</title>
<g id="a_node6"><a xlink:href="classpkg__world_1_1Room.html" target="_top" xlink:title="Class used to handle a game&#39;s room. ">
<polygon fill="white" stroke="black" points="257,-445 257,-645 371,-645 371,-445 257,-445"/>
<text text-anchor="middle" x="314" y="-633" font-family="Helvetica,sans-Serif" font-size="10.00">pkg_world.Room</text>
<polyline fill="none" stroke="black" points="257,-626 371,-626 "/>
<text text-anchor="start" x="265" y="-614" font-family="Helvetica,sans-Serif" font-size="10.00">&#45; description</text>
<text text-anchor="start" x="265" y="-603" font-family="Helvetica,sans-Serif" font-size="10.00">&#45; imageName</text>
<polyline fill="none" stroke="black" points="257,-596 371,-596 "/>
<text text-anchor="start" x="265" y="-584" font-family="Helvetica,sans-Serif" font-size="10.00">+ Room()</text>
<text text-anchor="start" x="265" y="-573" font-family="Helvetica,sans-Serif" font-size="10.00">+ Room()</text>
<text text-anchor="start" x="265" y="-562" font-family="Helvetica,sans-Serif" font-size="10.00">+ setExit()</text>
<text text-anchor="start" x="265" y="-551" font-family="Helvetica,sans-Serif" font-size="10.00">+ getContainedItems()</text>
<text text-anchor="start" x="265" y="-540" font-family="Helvetica,sans-Serif" font-size="10.00">+ getItem()</text>
<text text-anchor="start" x="265" y="-529" font-family="Helvetica,sans-Serif" font-size="10.00">+ getCharacter()</text>
<text text-anchor="start" x="265" y="-518" font-family="Helvetica,sans-Serif" font-size="10.00">+ hasItem()</text>
<text text-anchor="start" x="265" y="-507" font-family="Helvetica,sans-Serif" font-size="10.00">+ hasCharacter()</text>
<text text-anchor="start" x="265" y="-496" font-family="Helvetica,sans-Serif" font-size="10.00">+ addItem()</text>
<text text-anchor="start" x="265" y="-485" font-family="Helvetica,sans-Serif" font-size="10.00">+ addCharacter()</text>
<text text-anchor="start" x="265" y="-474" font-family="Helvetica,sans-Serif" font-size="10.00">and 10 more...</text>
<text text-anchor="start" x="265" y="-463" font-family="Helvetica,sans-Serif" font-size="10.00">&#45; getHumanList()</text>
<text text-anchor="start" x="265" y="-452" font-family="Helvetica,sans-Serif" font-size="10.00">&#45; getExitString()</text>
</a>
</g>
</g>
<!-- Node6&#45;&gt;Node5 -->
<g id="edge6" class="edge"><title>Node6&#45;&gt;Node5</title>
<path fill="none" stroke="#404040" d="M314,-444.988C314,-429.361 314,-413.113 314,-397.23"/>
<polygon fill="none" stroke="#404040" points="314,-397.173 310,-391.173 314,-385.173 318,-391.173 314,-397.173"/>
<text text-anchor="middle" x="346.5" y="-418" font-family="Helvetica,sans-Serif" font-size="10.00"> &#45;beamerRoom</text>
<text text-anchor="middle" x="346.5" y="-407" font-family="Helvetica,sans-Serif" font-size="10.00">&#45;currentRoom</text>
</g>
<!-- Node7 -->
<g id="node7" class="node"><title>Node7</title>
<polygon fill="white" stroke="#bfbfbf" points="-0.5,-695 -0.5,-763 114.5,-763 114.5,-695 -0.5,-695"/>
<text text-anchor="start" x="7.5" y="-751" font-family="Helvetica,sans-Serif" font-size="10.00">HashMap&lt; String, pkg</text>
<text text-anchor="middle" x="57" y="-740" font-family="Helvetica,sans-Serif" font-size="10.00">_world.Room &gt;</text>
<polyline fill="none" stroke="#bfbfbf" points="-0.5,-733 114.5,-733 "/>
<text text-anchor="middle" x="57" y="-721" font-family="Helvetica,sans-Serif" font-size="10.00"> </text>
<polyline fill="none" stroke="#bfbfbf" points="-0.5,-714 114.5,-714 "/>
<text text-anchor="middle" x="57" y="-702" font-family="Helvetica,sans-Serif" font-size="10.00"> </text>
</g>
<!-- Node7&#45;&gt;Node6 -->
<g id="edge7" class="edge"><title>Node7&#45;&gt;Node6</title>
<path fill="none" stroke="#404040" d="M114.601,-698.403C117.769,-696.89 120.917,-695.413 124,-694 155.888,-679.385 164.228,-676.508 197,-664 216.562,-656.534 226.371,-659.648 246.767,-645.905"/>
<polygon fill="none" stroke="#404040" points="246.952,-645.767 249.381,-638.978 256.583,-638.608 254.154,-645.398 246.952,-645.767"/>
<text text-anchor="middle" x="211" y="-667.5" font-family="Helvetica,sans-Serif" font-size="10.00"> &#45;exits</text>
</g>
<!-- Node8 -->
<g id="node8" class="node"><title>Node8</title>
<g id="a_node8"><a xlink:href="classpkg__world_1_1pkg__items_1_1ItemList.html" target="_top" xlink:title="class ItemList used to handle a list of Item (inventory). ">
<polygon fill="white" stroke="black" points="336.5,-700.5 336.5,-757.5 483.5,-757.5 483.5,-700.5 336.5,-700.5"/>
<text text-anchor="middle" x="410" y="-745.5" font-family="Helvetica,sans-Serif" font-size="10.00">pkg_world.pkg_items.ItemList</text>
<polyline fill="none" stroke="black" points="336.5,-738.5 483.5,-738.5 "/>
<text text-anchor="middle" x="410" y="-726.5" font-family="Helvetica,sans-Serif" font-size="10.00"> </text>
<polyline fill="none" stroke="black" points="336.5,-719.5 483.5,-719.5 "/>
<text text-anchor="start" x="344.5" y="-707.5" font-family="Helvetica,sans-Serif" font-size="10.00">+ transfer()</text>
</a>
</g>
</g>
<!-- Node8&#45;&gt;Node5 -->
<g id="edge11" class="edge"><title>Node8&#45;&gt;Node5</title>
<path fill="none" stroke="#404040" d="M411.983,-700.255C415.145,-643.147 417.812,-509.012 383,-404 382.02,-401.043 380.959,-398.08 379.828,-395.118"/>
<polygon fill="none" stroke="#404040" points="379.704,-394.817 373.723,-390.788 375.142,-383.718 381.122,-387.747 379.704,-394.817"/>
<text text-anchor="middle" x="438.5" y="-542.5" font-family="Helvetica,sans-Serif" font-size="10.00"> &#45;backpack</text>
</g>
<!-- Node8&#45;&gt;Node6 -->
<g id="edge8" class="edge"><title>Node8&#45;&gt;Node6</title>
<path fill="none" stroke="#404040" d="M361.808,-700.432C353.074,-693.475 344.884,-685.295 339,-676 335.181,-669.966 331.92,-663.482 329.139,-656.746"/>
<polygon fill="none" stroke="#404040" points="329.038,-656.47 323.213,-652.218 324.898,-645.207 330.722,-649.458 329.038,-656.47"/>
<text text-anchor="middle" x="375.5" y="-667.5" font-family="Helvetica,sans-Serif" font-size="10.00"> &#45;containedItems</text>
</g>
<!-- Node9 -->
<g id="node9" class="node"><title>Node9</title>
<polygon fill="white" stroke="#bfbfbf" points="359.5,-803 359.5,-871 460.5,-871 460.5,-803 359.5,-803"/>
<text text-anchor="start" x="367.5" y="-859" font-family="Helvetica,sans-Serif" font-size="10.00">java::util::HashMap</text>
<text text-anchor="middle" x="410" y="-848" font-family="Helvetica,sans-Serif" font-size="10.00">&lt; String, Item &gt;</text>
<polyline fill="none" stroke="#bfbfbf" points="359.5,-841 460.5,-841 "/>
<text text-anchor="middle" x="410" y="-829" font-family="Helvetica,sans-Serif" font-size="10.00"> </text>
<polyline fill="none" stroke="#bfbfbf" points="359.5,-822 460.5,-822 "/>
<text text-anchor="middle" x="410" y="-810" font-family="Helvetica,sans-Serif" font-size="10.00"> </text>
</g>
<!-- Node9&#45;&gt;Node8 -->
<g id="edge9" class="edge"><title>Node9&#45;&gt;Node8</title>
<path fill="none" stroke="midnightblue" d="M410,-792.639C410,-780.87 410,-768.444 410,-757.791"/>
<polygon fill="none" stroke="midnightblue" points="406.5,-792.752 410,-802.752 413.5,-792.752 406.5,-792.752"/>
</g>
<!-- Node10 -->
<g id="node10" class="node"><title>Node10</title>
<polygon fill="white" stroke="#bfbfbf" points="133,-695 133,-763 303,-763 303,-695 133,-695"/>
<text text-anchor="start" x="141" y="-751" font-family="Helvetica,sans-Serif" font-size="10.00">HashMap&lt; String, pkg</text>
<text text-anchor="middle" x="218" y="-740" font-family="Helvetica,sans-Serif" font-size="10.00">_world.pkg_characters.Character &gt;</text>
<polyline fill="none" stroke="#bfbfbf" points="133,-733 303,-733 "/>
<text text-anchor="middle" x="218" y="-721" font-family="Helvetica,sans-Serif" font-size="10.00"> </text>
<polyline fill="none" stroke="#bfbfbf" points="133,-714 303,-714 "/>
<text text-anchor="middle" x="218" y="-702" font-family="Helvetica,sans-Serif" font-size="10.00"> </text>
</g>
<!-- Node10&#45;&gt;Node6 -->
<g id="edge10" class="edge"><title>Node10&#45;&gt;Node6</title>
<path fill="none" stroke="#404040" d="M222.74,-694.754C224.99,-684.542 228.265,-673.498 233,-664 237.646,-654.68 241.789,-654.359 248,-646 248.558,-645.249 249.117,-644.493 249.677,-643.733"/>
<polygon fill="none" stroke="#404040" points="249.934,-643.377 250.21,-636.172 256.968,-633.655 256.692,-640.861 249.934,-643.377"/>
<text text-anchor="middle" x="281.5" y="-667.5" font-family="Helvetica,sans-Serif" font-size="10.00"> &#45;containedCharacters</text>
</g>
<!-- Node11 -->
<g id="node11" class="node"><title>Node11</title>
<polygon fill="white" stroke="#bfbfbf" points="105,-516.5 105,-573.5 239,-573.5 239,-516.5 105,-516.5"/>
<text text-anchor="middle" x="172" y="-561.5" font-family="Helvetica,sans-Serif" font-size="10.00">Stack&lt; pkg_world.Room &gt;</text>
<polyline fill="none" stroke="#bfbfbf" points="105,-554.5 239,-554.5 "/>
<text text-anchor="middle" x="172" y="-542.5" font-family="Helvetica,sans-Serif" font-size="10.00"> </text>
<polyline fill="none" stroke="#bfbfbf" points="105,-535.5 239,-535.5 "/>
<text text-anchor="middle" x="172" y="-523.5" font-family="Helvetica,sans-Serif" font-size="10.00"> </text>
</g>
<!-- Node11&#45;&gt;Node5 -->
<g id="edge12" class="edge"><title>Node11&#45;&gt;Node5</title>
<path fill="none" stroke="#404040" d="M182.881,-516.241C194.513,-487.508 214.122,-441.642 235,-404 238.61,-397.492 242.467,-390.878 246.462,-384.273"/>
<polygon fill="none" stroke="#404040" points="246.546,-384.136 246.287,-376.93 252.84,-373.919 253.099,-381.126 246.546,-384.136"/>
<text text-anchor="middle" x="272.5" y="-412.5" font-family="Helvetica,sans-Serif" font-size="10.00"> &#45;previousRooms</text>
</g>
<!-- Node12 -->
<g id="node12" class="node"><title>Node12</title>
<polygon fill="white" stroke="#bfbfbf" points="393.5,-256.5 393.5,-313.5 540.5,-313.5 540.5,-256.5 393.5,-256.5"/>
<text text-anchor="middle" x="467" y="-301.5" font-family="Helvetica,sans-Serif" font-size="10.00">ArrayList&lt; pkg_world.Room &gt;</text>
<polyline fill="none" stroke="#bfbfbf" points="393.5,-294.5 540.5,-294.5 "/>
<text text-anchor="middle" x="467" y="-282.5" font-family="Helvetica,sans-Serif" font-size="10.00"> </text>
<polyline fill="none" stroke="#bfbfbf" points="393.5,-275.5 540.5,-275.5 "/>
<text text-anchor="middle" x="467" y="-263.5" font-family="Helvetica,sans-Serif" font-size="10.00"> </text>
</g>
<!-- Node12&#45;&gt;Node3 -->
<g id="edge13" class="edge"><title>Node12&#45;&gt;Node3</title>
<path fill="none" stroke="#404040" d="M467,-256.333C467,-228.906 467,-185.596 467,-147.526"/>
<polygon fill="none" stroke="#404040" points="467,-147.376 463,-141.376 467,-135.376 471,-141.376 467,-147.376"/>
<text text-anchor="middle" x="498" y="-157.5" font-family="Helvetica,sans-Serif" font-size="10.00"> &#45;gameRooms</text>
</g>
<!-- Node13 -->
<g id="node13" class="node"><title>Node13</title>
<polygon fill="white" stroke="#bfbfbf" points="512,-516.5 512,-573.5 654,-573.5 654,-516.5 512,-516.5"/>
<text text-anchor="middle" x="583" y="-561.5" font-family="Helvetica,sans-Serif" font-size="10.00">HashMap&lt; JButton, String &gt;</text>
<polyline fill="none" stroke="#bfbfbf" points="512,-554.5 654,-554.5 "/>
<text text-anchor="middle" x="583" y="-542.5" font-family="Helvetica,sans-Serif" font-size="10.00"> </text>
<polyline fill="none" stroke="#bfbfbf" points="512,-535.5 654,-535.5 "/>
<text text-anchor="middle" x="583" y="-523.5" font-family="Helvetica,sans-Serif" font-size="10.00"> </text>
</g>
<!-- Node13&#45;&gt;Node1 -->
<g id="edge14" class="edge"><title>Node13&#45;&gt;Node1</title>
<path fill="none" stroke="#404040" d="M587.067,-516.389C591.461,-486.557 598.733,-437.181 605.421,-391.775"/>
<polygon fill="none" stroke="#404040" points="605.448,-391.586 602.366,-385.067 607.197,-379.714 610.28,-386.233 605.448,-391.586"/>
<text text-anchor="middle" x="623.5" y="-412.5" font-family="Helvetica,sans-Serif" font-size="10.00"> &#45;buttons</text>
</g>
</g>
</svg>
