<?xml version="1.0" encoding="UTF-8" standalone="no"?>
<!DOCTYPE svg PUBLIC "-//W3C//DTD SVG 1.1//EN"
 "http://www.w3.org/Graphics/SVG/1.1/DTD/svg11.dtd">
<!-- Generated by graphviz version 2.36.0 (20140111.2315)
 -->
<!-- Title: GameEngine.goRoom Pages: 1 -->
<svg width="592pt" height="104pt"
 viewBox="0.00 0.00 592.00 104.00" xmlns="http://www.w3.org/2000/svg" xmlns:xlink="http://www.w3.org/1999/xlink">
<g id="graph0" class="graph" transform="scale(1 1) rotate(0) translate(4 100)">
<title>GameEngine.goRoom</title>
<polygon fill="white" stroke="none" points="-4,4 -4,-100 588,-100 588,4 -4,4"/>
<!-- Node1 -->
<g id="node1" class="node"><title>Node1</title>
<polygon fill="#bfbfbf" stroke="black" points="0.5,-38.5 0.5,-57.5 113.5,-57.5 113.5,-38.5 0.5,-38.5"/>
<text text-anchor="middle" x="57" y="-45.5" font-family="Helvetica,sans-Serif" font-size="10.00">GameEngine.goRoom</text>
</g>
<!-- Node2 -->
<g id="node2" class="node"><title>Node2</title>
<g id="a_node2"><a xlink:href="classGameEngine.html#ac22dcdb540cb27f39597ee4f03ad167a" target="_top" xlink:title="GameEngine.goBack">
<polygon fill="white" stroke="black" points="152.5,-76.5 152.5,-95.5 261.5,-95.5 261.5,-76.5 152.5,-76.5"/>
<text text-anchor="middle" x="207" y="-83.5" font-family="Helvetica,sans-Serif" font-size="10.00">GameEngine.goBack</text>
</a>
</g>
</g>
<!-- Node1&#45;&gt;Node2 -->
<g id="edge1" class="edge"><title>Node1&#45;&gt;Node2</title>
<path fill="none" stroke="midnightblue" d="M105.173,-60.1121C125.786,-65.4044 149.609,-71.5213 168.922,-76.4799"/>
<polygon fill="midnightblue" stroke="midnightblue" points="105.903,-56.6859 95.3466,-57.589 104.162,-63.466 105.903,-56.6859"/>
</g>
<!-- Node3 -->
<g id="node3" class="node"><title>Node3</title>
<g id="a_node3"><a xlink:href="classGameEngine.html#ad7133885f313fa99bca3bb7cb8272f64" target="_top" xlink:title="GameEngine.processCommand">
<polygon fill="white" stroke="black" points="300.5,-57.5 300.5,-76.5 455.5,-76.5 455.5,-57.5 300.5,-57.5"/>
<text text-anchor="middle" x="378" y="-64.5" font-family="Helvetica,sans-Serif" font-size="10.00">GameEngine.processCommand</text>
</a>
</g>
</g>
<!-- Node1&#45;&gt;Node3 -->
<g id="edge5" class="edge"><title>Node1&#45;&gt;Node3</title>
<path fill="none" stroke="midnightblue" d="M123.867,-51.9231C175.146,-54.9773 246.414,-59.2221 300.268,-62.4298"/>
<polygon fill="midnightblue" stroke="midnightblue" points="123.756,-48.4104 113.566,-51.3095 123.34,-55.398 123.756,-48.4104"/>
</g>
<!-- Node5 -->
<g id="node5" class="node"><title>Node5</title>
<g id="a_node5"><a xlink:href="classGameEngine.html#a09acb51b95ec98aed78d928f91e61a3d" target="_top" xlink:title="GameEngine.goRoom">
<polygon fill="white" stroke="black" points="150.5,-0.5 150.5,-19.5 263.5,-19.5 263.5,-0.5 150.5,-0.5"/>
<text text-anchor="middle" x="207" y="-7.5" font-family="Helvetica,sans-Serif" font-size="10.00">GameEngine.goRoom</text>
</a>
</g>
</g>
<!-- Node1&#45;&gt;Node5 -->
<g id="edge4" class="edge"><title>Node1&#45;&gt;Node5</title>
<path fill="none" stroke="midnightblue" d="M105.173,-35.8879C125.786,-30.5956 149.609,-24.4787 168.922,-19.5201"/>
<polygon fill="midnightblue" stroke="midnightblue" points="104.162,-32.534 95.3466,-38.411 105.903,-39.3141 104.162,-32.534"/>
</g>
<!-- Node2&#45;&gt;Node3 -->
<g id="edge2" class="edge"><title>Node2&#45;&gt;Node3</title>
<path fill="none" stroke="midnightblue" d="M271.9,-78.8159C281.233,-77.7667 290.922,-76.6774 300.474,-75.6035"/>
<polygon fill="midnightblue" stroke="midnightblue" points="271.484,-75.3406 261.937,-79.936 272.266,-82.2968 271.484,-75.3406"/>
</g>
<!-- Node4 -->
<g id="node4" class="node"><title>Node4</title>
<g id="a_node4"><a xlink:href="classGameEngine.html#a0cfc6fc69e60ffe8a436d04de0938349" target="_top" xlink:title="GameEngine.test">
<polygon fill="white" stroke="black" points="492,-57.5 492,-76.5 584,-76.5 584,-57.5 492,-57.5"/>
<text text-anchor="middle" x="538" y="-64.5" font-family="Helvetica,sans-Serif" font-size="10.00">GameEngine.test</text>
</a>
</g>
</g>
<!-- Node3&#45;&gt;Node4 -->
<g id="edge3" class="edge"><title>Node3&#45;&gt;Node4</title>
<path fill="none" stroke="midnightblue" d="M465.868,-67C474.858,-67 483.71,-67 491.953,-67"/>
<polygon fill="midnightblue" stroke="midnightblue" points="465.686,-63.5001 455.686,-67 465.686,-70.5001 465.686,-63.5001"/>
</g>
</g>
</svg>
