<?xml version="1.0" encoding="UTF-8" standalone="no"?>
<!DOCTYPE svg PUBLIC "-//W3C//DTD SVG 1.1//EN"
 "http://www.w3.org/Graphics/SVG/1.1/DTD/svg11.dtd">
<!-- Generated by graphviz version 2.36.0 (20140111.2315)
 -->
<!-- Title: Game Pages: 1 -->
<svg width="434pt" height="1222pt"
 viewBox="0.00 0.00 434.00 1222.00" xmlns="http://www.w3.org/2000/svg" xmlns:xlink="http://www.w3.org/1999/xlink">
<g id="graph0" class="graph" transform="scale(1 1) rotate(0) translate(4 1218)">
<title>Game</title>
<polygon fill="white" stroke="none" points="-4,4 -4,-1218 430,-1218 430,4 -4,4"/>
<!-- Node1 -->
<g id="node1" class="node"><title>Node1</title>
<polygon fill="#bfbfbf" stroke="black" points="115,-1 115,-69 173,-69 173,-1 115,-1"/>
<text text-anchor="middle" x="144" y="-57" font-family="Helvetica,sans-Serif" font-size="10.00">Game</text>
<polyline fill="none" stroke="black" points="115,-50 173,-50 "/>
<text text-anchor="middle" x="144" y="-38" font-family="Helvetica,sans-Serif" font-size="10.00"> </text>
<polyline fill="none" stroke="black" points="115,-31 173,-31 "/>
<text text-anchor="start" x="123" y="-19" font-family="Helvetica,sans-Serif" font-size="10.00">+ Game()</text>
<text text-anchor="start" x="123" y="-8" font-family="Helvetica,sans-Serif" font-size="10.00">+ main()</text>
</g>
<!-- Node2 -->
<g id="node2" class="node"><title>Node2</title>
<g id="a_node2"><a xlink:href="classGameEngine.html" target="_top" xlink:title="Class handling the gameplay for the game. ">
<polygon fill="white" stroke="black" points="96.5,-356.5 96.5,-479.5 213.5,-479.5 213.5,-356.5 96.5,-356.5"/>
<text text-anchor="middle" x="155" y="-467.5" font-family="Helvetica,sans-Serif" font-size="10.00">GameEngine</text>
<polyline fill="none" stroke="black" points="96.5,-460.5 213.5,-460.5 "/>
<text text-anchor="start" x="104.5" y="-448.5" font-family="Helvetica,sans-Serif" font-size="10.00">&#45; helpCount</text>
<text text-anchor="start" x="104.5" y="-437.5" font-family="Helvetica,sans-Serif" font-size="10.00">&#45; commandCountDown</text>
<polyline fill="none" stroke="black" points="96.5,-430.5 213.5,-430.5 "/>
<text text-anchor="start" x="104.5" y="-418.5" font-family="Helvetica,sans-Serif" font-size="10.00">+ GameEngine()</text>
<text text-anchor="start" x="104.5" y="-407.5" font-family="Helvetica,sans-Serif" font-size="10.00">+ setGUI()</text>
<text text-anchor="start" x="104.5" y="-396.5" font-family="Helvetica,sans-Serif" font-size="10.00">+ processCommand()</text>
<text text-anchor="start" x="104.5" y="-385.5" font-family="Helvetica,sans-Serif" font-size="10.00">&#45; printWelcome()</text>
<text text-anchor="start" x="104.5" y="-374.5" font-family="Helvetica,sans-Serif" font-size="10.00">&#45; createRooms()</text>
<text text-anchor="start" x="104.5" y="-363.5" font-family="Helvetica,sans-Serif" font-size="10.00">&#45; endGame()</text>
</a>
</g>
</g>
<!-- Node2&#45;&gt;Node1 -->
<g id="edge1" class="edge"><title>Node2&#45;&gt;Node1</title>
<path fill="none" stroke="#404040" d="M155.886,-356.29C156.428,-290.215 156.089,-181.486 150,-88 149.858,-85.8165 149.689,-83.5837 149.501,-81.3302"/>
<polygon fill="none" stroke="#404040" points="149.487,-81.1884 144.93,-75.6 148.335,-69.2438 152.893,-74.8321 149.487,-81.1884"/>
<text text-anchor="middle" x="174.5" y="-210.5" font-family="Helvetica,sans-Serif" font-size="10.00"> &#45;engine</text>
</g>
<!-- Node4 -->
<g id="node4" class="node"><title>Node4</title>
<g id="a_node4"><a xlink:href="classUserInterface.html" target="_top" xlink:title="Class handling the game&#39;s user interface. ">
<polygon fill="white" stroke="black" points="28,-118.5 28,-307.5 140,-307.5 140,-118.5 28,-118.5"/>
<text text-anchor="middle" x="84" y="-295.5" font-family="Helvetica,sans-Serif" font-size="10.00">UserInterface</text>
<polyline fill="none" stroke="black" points="28,-288.5 140,-288.5 "/>
<text text-anchor="start" x="36" y="-276.5" font-family="Helvetica,sans-Serif" font-size="10.00">&#45; myFrame</text>
<text text-anchor="start" x="36" y="-265.5" font-family="Helvetica,sans-Serif" font-size="10.00">&#45; entryField</text>
<text text-anchor="start" x="36" y="-254.5" font-family="Helvetica,sans-Serif" font-size="10.00">&#45; log</text>
<text text-anchor="start" x="36" y="-243.5" font-family="Helvetica,sans-Serif" font-size="10.00">&#45; image</text>
<text text-anchor="start" x="36" y="-232.5" font-family="Helvetica,sans-Serif" font-size="10.00">&#45; commandsLeftLabel</text>
<polyline fill="none" stroke="black" points="28,-225.5 140,-225.5 "/>
<text text-anchor="start" x="36" y="-213.5" font-family="Helvetica,sans-Serif" font-size="10.00">+ UserInterface()</text>
<text text-anchor="start" x="36" y="-202.5" font-family="Helvetica,sans-Serif" font-size="10.00">+ setCommandsLeft()</text>
<text text-anchor="start" x="36" y="-191.5" font-family="Helvetica,sans-Serif" font-size="10.00">+ print()</text>
<text text-anchor="start" x="36" y="-180.5" font-family="Helvetica,sans-Serif" font-size="10.00">+ println()</text>
<text text-anchor="start" x="36" y="-169.5" font-family="Helvetica,sans-Serif" font-size="10.00">+ showImage()</text>
<text text-anchor="start" x="36" y="-158.5" font-family="Helvetica,sans-Serif" font-size="10.00">+ enable()</text>
<text text-anchor="start" x="36" y="-147.5" font-family="Helvetica,sans-Serif" font-size="10.00">+ actionPerformed()</text>
<text text-anchor="start" x="36" y="-136.5" font-family="Helvetica,sans-Serif" font-size="10.00">&#45; createGUI()</text>
<text text-anchor="start" x="36" y="-125.5" font-family="Helvetica,sans-Serif" font-size="10.00">&#45; processCommand()</text>
</a>
</g>
</g>
<!-- Node2&#45;&gt;Node4 -->
<g id="edge5" class="edge"><title>Node2&#45;&gt;Node4</title>
<path fill="none" stroke="#404040" d="M96.4383,-359.685C91.8542,-352.801 87.8898,-345.527 85,-338 82.7666,-332.183 81.0254,-326.095 79.6937,-319.874"/>
<polygon fill="none" stroke="#404040" points="79.6478,-319.606 74.6896,-314.37 77.6159,-307.779 82.5741,-313.015 79.6478,-319.606"/>
<text text-anchor="middle" x="102.5" y="-329.5" font-family="Helvetica,sans-Serif" font-size="10.00"> &#45;engine</text>
</g>
<!-- Node3 -->
<g id="node3" class="node"><title>Node3</title>
<polygon fill="white" stroke="#bfbfbf" points="51,-594.5 51,-651.5 151,-651.5 151,-594.5 51,-594.5"/>
<text text-anchor="middle" x="101" y="-639.5" font-family="Helvetica,sans-Serif" font-size="10.00">ArrayList&lt; Room &gt;</text>
<polyline fill="none" stroke="#bfbfbf" points="51,-632.5 151,-632.5 "/>
<text text-anchor="middle" x="101" y="-620.5" font-family="Helvetica,sans-Serif" font-size="10.00"> </text>
<polyline fill="none" stroke="#bfbfbf" points="51,-613.5 151,-613.5 "/>
<text text-anchor="middle" x="101" y="-601.5" font-family="Helvetica,sans-Serif" font-size="10.00"> </text>
</g>
<!-- Node3&#45;&gt;Node2 -->
<g id="edge2" class="edge"><title>Node3&#45;&gt;Node2</title>
<path fill="none" stroke="#404040" d="M103.893,-594.014C106.951,-568.611 112.652,-530.299 122,-498 122.651,-495.751 123.347,-493.48 124.079,-491.198"/>
<polygon fill="none" stroke="#404040" points="124.114,-491.097 122.28,-484.123 128.012,-479.747 129.846,-486.721 124.114,-491.097"/>
<text text-anchor="middle" x="154.5" y="-501.5" font-family="Helvetica,sans-Serif" font-size="10.00"> ~gameRooms</text>
</g>
<!-- Node4&#45;&gt;Node1 -->
<g id="edge13" class="edge"><title>Node4&#45;&gt;Node1</title>
<path fill="none" stroke="#404040" d="M115.932,-118.332C120.377,-105.293 124.766,-92.4209 128.704,-80.8668"/>
<polygon fill="none" stroke="#404040" points="128.758,-80.7098 126.908,-73.74 132.63,-69.3516 134.48,-76.3214 128.758,-80.7098"/>
<text text-anchor="middle" x="136.5" y="-91.5" font-family="Helvetica,sans-Serif" font-size="10.00"> &#45;gui</text>
</g>
<!-- Node4&#45;&gt;Node2 -->
<g id="edge3" class="edge"><title>Node4&#45;&gt;Node2</title>
<path fill="none" stroke="#404040" d="M116.79,-307.753C121.168,-320.27 125.602,-332.945 129.822,-345.012"/>
<polygon fill="none" stroke="#404040" points="129.832,-345.041 135.589,-349.384 133.794,-356.368 128.037,-352.025 129.832,-345.041"/>
<text text-anchor="middle" x="135.5" y="-329.5" font-family="Helvetica,sans-Serif" font-size="10.00"> &#45;gui</text>
</g>
<!-- Node5 -->
<g id="node5" class="node"><title>Node5</title>
<polygon fill="white" stroke="#bfbfbf" points="-0.5,-389.5 -0.5,-446.5 78.5,-446.5 78.5,-389.5 -0.5,-389.5"/>
<text text-anchor="middle" x="39" y="-434.5" font-family="Helvetica,sans-Serif" font-size="10.00">ActionListener</text>
<polyline fill="none" stroke="#bfbfbf" points="-0.5,-427.5 78.5,-427.5 "/>
<text text-anchor="middle" x="39" y="-415.5" font-family="Helvetica,sans-Serif" font-size="10.00"> </text>
<polyline fill="none" stroke="#bfbfbf" points="-0.5,-408.5 78.5,-408.5 "/>
<text text-anchor="middle" x="39" y="-396.5" font-family="Helvetica,sans-Serif" font-size="10.00"> </text>
</g>
<!-- Node5&#45;&gt;Node4 -->
<g id="edge4" class="edge"><title>Node5&#45;&gt;Node4</title>
<path fill="none" stroke="midnightblue" d="M47.3318,-379.414C51.8412,-359.072 57.6307,-332.955 63.2709,-307.511"/>
<polygon fill="none" stroke="midnightblue" points="43.9099,-378.679 45.1627,-389.199 50.744,-380.194 43.9099,-378.679"/>
</g>
<!-- Node6 -->
<g id="node6" class="node"><title>Node6</title>
<g id="a_node6"><a xlink:href="classPlayer.html" target="_top" xlink:title="class Player used to handle the user&#39;s player. ">
<polygon fill="white" stroke="black" points="169,-528.5 169,-717.5 291,-717.5 291,-528.5 169,-528.5"/>
<text text-anchor="middle" x="230" y="-705.5" font-family="Helvetica,sans-Serif" font-size="10.00">Player</text>
<polyline fill="none" stroke="black" points="169,-698.5 291,-698.5 "/>
<text text-anchor="start" x="177" y="-686.5" font-family="Helvetica,sans-Serif" font-size="10.00">&#45; name</text>
<text text-anchor="start" x="177" y="-675.5" font-family="Helvetica,sans-Serif" font-size="10.00">&#45; backpackWeight</text>
<text text-anchor="start" x="177" y="-664.5" font-family="Helvetica,sans-Serif" font-size="10.00">&#45; maxWeight</text>
<polyline fill="none" stroke="black" points="169,-657.5 291,-657.5 "/>
<text text-anchor="start" x="177" y="-645.5" font-family="Helvetica,sans-Serif" font-size="10.00">+ Player()</text>
<text text-anchor="start" x="177" y="-634.5" font-family="Helvetica,sans-Serif" font-size="10.00">+ getName()</text>
<text text-anchor="start" x="177" y="-623.5" font-family="Helvetica,sans-Serif" font-size="10.00">+ getMaxWeight()</text>
<text text-anchor="start" x="177" y="-612.5" font-family="Helvetica,sans-Serif" font-size="10.00">+ setMaxWeight()</text>
<text text-anchor="start" x="177" y="-601.5" font-family="Helvetica,sans-Serif" font-size="10.00">+ getCurrentRoom()</text>
<text text-anchor="start" x="177" y="-590.5" font-family="Helvetica,sans-Serif" font-size="10.00">+ goRoom()</text>
<text text-anchor="start" x="177" y="-579.5" font-family="Helvetica,sans-Serif" font-size="10.00">+ getPreviousRoom()</text>
<text text-anchor="start" x="177" y="-568.5" font-family="Helvetica,sans-Serif" font-size="10.00">+ pushPreviousRooms()</text>
<text text-anchor="start" x="177" y="-557.5" font-family="Helvetica,sans-Serif" font-size="10.00">+ pushForward()</text>
<text text-anchor="start" x="177" y="-546.5" font-family="Helvetica,sans-Serif" font-size="10.00">+ popPreviousRooms()</text>
<text text-anchor="start" x="177" y="-535.5" font-family="Helvetica,sans-Serif" font-size="10.00">and 10 more...</text>
</a>
</g>
</g>
<!-- Node6&#45;&gt;Node2 -->
<g id="edge6" class="edge"><title>Node6&#45;&gt;Node2</title>
<path fill="none" stroke="#404040" d="M198.107,-528.38C194.435,-518.101 190.686,-507.812 187,-498 186.126,-495.673 185.229,-493.312 184.315,-490.93"/>
<polygon fill="none" stroke="#404040" points="184.295,-490.876 178.393,-486.733 179.948,-479.691 185.85,-483.835 184.295,-490.876"/>
<text text-anchor="middle" x="207.5" y="-501.5" font-family="Helvetica,sans-Serif" font-size="10.00"> &#45;player</text>
</g>
<!-- Node7 -->
<g id="node7" class="node"><title>Node7</title>
<polygon fill="white" stroke="#bfbfbf" points="97,-859.5 97,-916.5 183,-916.5 183,-859.5 97,-859.5"/>
<text text-anchor="middle" x="140" y="-904.5" font-family="Helvetica,sans-Serif" font-size="10.00">Stack&lt; Room &gt;</text>
<polyline fill="none" stroke="#bfbfbf" points="97,-897.5 183,-897.5 "/>
<text text-anchor="middle" x="140" y="-885.5" font-family="Helvetica,sans-Serif" font-size="10.00"> </text>
<polyline fill="none" stroke="#bfbfbf" points="97,-878.5 183,-878.5 "/>
<text text-anchor="middle" x="140" y="-866.5" font-family="Helvetica,sans-Serif" font-size="10.00"> </text>
</g>
<!-- Node7&#45;&gt;Node6 -->
<g id="edge7" class="edge"><title>Node7&#45;&gt;Node6</title>
<path fill="none" stroke="#404040" d="M133.908,-859.218C128.425,-827.871 123.62,-776.04 141,-736 145.632,-725.33 152.275,-726.697 160,-718 160.279,-717.686 160.557,-717.371 160.836,-717.056"/>
<polygon fill="none" stroke="#404040" points="161.096,-716.753 161.97,-709.595 168.913,-707.648 168.04,-714.806 161.096,-716.753"/>
<text text-anchor="middle" x="178.5" y="-744.5" font-family="Helvetica,sans-Serif" font-size="10.00"> &#45;previousRooms</text>
</g>
<!-- Node8 -->
<g id="node8" class="node"><title>Node8</title>
<g id="a_node8"><a xlink:href="classRoom.html" target="_top" xlink:title="Class used to handle a game&#39;s room. ">
<polygon fill="white" stroke="black" points="297,-777 297,-999 415,-999 415,-777 297,-777"/>
<text text-anchor="middle" x="356" y="-987" font-family="Helvetica,sans-Serif" font-size="10.00">Room</text>
<polyline fill="none" stroke="black" points="297,-980 415,-980 "/>
<text text-anchor="start" x="305" y="-968" font-family="Helvetica,sans-Serif" font-size="10.00">&#45; description</text>
<text text-anchor="start" x="305" y="-957" font-family="Helvetica,sans-Serif" font-size="10.00">&#45; imageName</text>
<polyline fill="none" stroke="black" points="297,-950 415,-950 "/>
<text text-anchor="start" x="305" y="-938" font-family="Helvetica,sans-Serif" font-size="10.00">+ Room()</text>
<text text-anchor="start" x="305" y="-927" font-family="Helvetica,sans-Serif" font-size="10.00">+ Room()</text>
<text text-anchor="start" x="305" y="-916" font-family="Helvetica,sans-Serif" font-size="10.00">+ setExit()</text>
<text text-anchor="start" x="305" y="-905" font-family="Helvetica,sans-Serif" font-size="10.00">+ getContainedItems()</text>
<text text-anchor="start" x="305" y="-894" font-family="Helvetica,sans-Serif" font-size="10.00">+ getItem()</text>
<text text-anchor="start" x="305" y="-883" font-family="Helvetica,sans-Serif" font-size="10.00">+ hasItem()</text>
<text text-anchor="start" x="305" y="-872" font-family="Helvetica,sans-Serif" font-size="10.00">+ addItem()</text>
<text text-anchor="start" x="305" y="-861" font-family="Helvetica,sans-Serif" font-size="10.00">+ removeItem()</text>
<text text-anchor="start" x="305" y="-850" font-family="Helvetica,sans-Serif" font-size="10.00">+ getShortDescription()</text>
<text text-anchor="start" x="305" y="-839" font-family="Helvetica,sans-Serif" font-size="10.00">+ getLongDescription()</text>
<text text-anchor="start" x="305" y="-828" font-family="Helvetica,sans-Serif" font-size="10.00">+ getHumanItemsList()</text>
<text text-anchor="start" x="305" y="-817" font-family="Helvetica,sans-Serif" font-size="10.00">+ getExit()</text>
<text text-anchor="start" x="305" y="-806" font-family="Helvetica,sans-Serif" font-size="10.00">+ isExit()</text>
<text text-anchor="start" x="305" y="-795" font-family="Helvetica,sans-Serif" font-size="10.00">+ getImageName()</text>
<text text-anchor="start" x="305" y="-784" font-family="Helvetica,sans-Serif" font-size="10.00">&#45; getExitString()</text>
</a>
</g>
</g>
<!-- Node8&#45;&gt;Node6 -->
<g id="edge8" class="edge"><title>Node8&#45;&gt;Node6</title>
<path fill="none" stroke="#404040" d="M303.295,-776.988C295.624,-760.977 287.744,-744.529 280.126,-728.628"/>
<polygon fill="none" stroke="#404040" points="280.085,-728.541 273.885,-724.859 274.9,-717.719 281.1,-721.402 280.085,-728.541"/>
<text text-anchor="middle" x="325.5" y="-750" font-family="Helvetica,sans-Serif" font-size="10.00"> &#45;beamerRoom</text>
<text text-anchor="middle" x="325.5" y="-739" font-family="Helvetica,sans-Serif" font-size="10.00">&#45;currentRoom</text>
</g>
<!-- Node9 -->
<g id="node9" class="node"><title>Node9</title>
<g id="a_node9"><a xlink:href="classItemList.html" target="_top" xlink:title="class ItemList used to handle a list of Item (inventory). ">
<polygon fill="white" stroke="black" points="202.5,-1048.5 202.5,-1105.5 267.5,-1105.5 267.5,-1048.5 202.5,-1048.5"/>
<text text-anchor="middle" x="235" y="-1093.5" font-family="Helvetica,sans-Serif" font-size="10.00">ItemList</text>
<polyline fill="none" stroke="black" points="202.5,-1086.5 267.5,-1086.5 "/>
<text text-anchor="middle" x="235" y="-1074.5" font-family="Helvetica,sans-Serif" font-size="10.00"> </text>
<polyline fill="none" stroke="black" points="202.5,-1067.5 267.5,-1067.5 "/>
<text text-anchor="start" x="210.5" y="-1055.5" font-family="Helvetica,sans-Serif" font-size="10.00">+ transfer()</text>
</a>
</g>
</g>
<!-- Node9&#45;&gt;Node6 -->
<g id="edge12" class="edge"><title>Node9&#45;&gt;Node6</title>
<path fill="none" stroke="#404040" d="M234.695,-1048.41C234.01,-986.549 232.324,-834.055 231.17,-729.76"/>
<polygon fill="none" stroke="#404040" points="231.168,-729.606 227.102,-723.65 231.035,-717.606 235.102,-723.562 231.168,-729.606"/>
<text text-anchor="middle" x="259.5" y="-885.5" font-family="Helvetica,sans-Serif" font-size="10.00"> &#45;backpack</text>
</g>
<!-- Node9&#45;&gt;Node8 -->
<g id="edge9" class="edge"><title>Node9&#45;&gt;Node8</title>
<path fill="none" stroke="#404040" d="M252.854,-1048.41C263.012,-1032.71 276.435,-1011.96 290.225,-990.652"/>
<polygon fill="none" stroke="#404040" points="290.274,-990.576 290.175,-983.366 296.793,-980.501 296.892,-987.712 290.274,-990.576"/>
<text text-anchor="middle" x="306.5" y="-1021.5" font-family="Helvetica,sans-Serif" font-size="10.00"> &#45;containedItems</text>
</g>
<!-- Node10 -->
<g id="node10" class="node"><title>Node10</title>
<polygon fill="white" stroke="#bfbfbf" points="184.5,-1145 184.5,-1213 285.5,-1213 285.5,-1145 184.5,-1145"/>
<text text-anchor="start" x="192.5" y="-1201" font-family="Helvetica,sans-Serif" font-size="10.00">java::util::HashMap</text>
<text text-anchor="middle" x="235" y="-1190" font-family="Helvetica,sans-Serif" font-size="10.00">&lt; String, Item &gt;</text>
<polyline fill="none" stroke="#bfbfbf" points="184.5,-1183 285.5,-1183 "/>
<text text-anchor="middle" x="235" y="-1171" font-family="Helvetica,sans-Serif" font-size="10.00"> </text>
<polyline fill="none" stroke="#bfbfbf" points="184.5,-1164 285.5,-1164 "/>
<text text-anchor="middle" x="235" y="-1152" font-family="Helvetica,sans-Serif" font-size="10.00"> </text>
</g>
<!-- Node10&#45;&gt;Node9 -->
<g id="edge10" class="edge"><title>Node10&#45;&gt;Node9</title>
<path fill="none" stroke="midnightblue" d="M235,-1134.86C235,-1124.95 235,-1114.68 235,-1105.64"/>
<polygon fill="none" stroke="midnightblue" points="231.5,-1134.98 235,-1144.98 238.5,-1134.98 231.5,-1134.98"/>
</g>
<!-- Node11 -->
<g id="node11" class="node"><title>Node11</title>
<polygon fill="white" stroke="#bfbfbf" points="292,-1048.5 292,-1105.5 426,-1105.5 426,-1048.5 292,-1048.5"/>
<text text-anchor="middle" x="359" y="-1093.5" font-family="Helvetica,sans-Serif" font-size="10.00">HashMap&lt; String, Room &gt;</text>
<polyline fill="none" stroke="#bfbfbf" points="292,-1086.5 426,-1086.5 "/>
<text text-anchor="middle" x="359" y="-1074.5" font-family="Helvetica,sans-Serif" font-size="10.00"> </text>
<polyline fill="none" stroke="#bfbfbf" points="292,-1067.5 426,-1067.5 "/>
<text text-anchor="middle" x="359" y="-1055.5" font-family="Helvetica,sans-Serif" font-size="10.00"> </text>
</g>
<!-- Node11&#45;&gt;Node8 -->
<g id="edge11" class="edge"><title>Node11&#45;&gt;Node8</title>
<path fill="none" stroke="#404040" d="M358.557,-1048.41C358.388,-1037.88 358.183,-1025.08 357.963,-1011.36"/>
<polygon fill="none" stroke="#404040" points="357.959,-1011.1 353.863,-1005.17 357.766,-999.105 361.862,-1005.04 357.959,-1011.1"/>
<text text-anchor="middle" x="372" y="-1021.5" font-family="Helvetica,sans-Serif" font-size="10.00"> &#45;exits</text>
</g>
</g>
</svg>
