<?xml version="1.0" encoding="UTF-8" standalone="no"?>
<!DOCTYPE svg PUBLIC "-//W3C//DTD SVG 1.1//EN"
 "http://www.w3.org/Graphics/SVG/1.1/DTD/svg11.dtd">
<!-- Generated by graphviz version 2.36.0 (20140111.2315)
 -->
<!-- Title: pkg_parsing.Parser Pages: 1 -->
<svg width="154pt" height="336pt"
 viewBox="0.00 0.00 154.00 336.00" xmlns="http://www.w3.org/2000/svg" xmlns:xlink="http://www.w3.org/1999/xlink">
<g id="graph0" class="graph" transform="scale(1 1) rotate(0) translate(4 332)">
<title>pkg_parsing.Parser</title>
<polygon fill="white" stroke="none" points="-4,4 -4,-332 150,-332 150,4 -4,4"/>
<!-- Node1 -->
<g id="node1" class="node"><title>Node1</title>
<polygon fill="#bfbfbf" stroke="black" points="20.5,-1 20.5,-69 125.5,-69 125.5,-1 20.5,-1"/>
<text text-anchor="middle" x="73" y="-57" font-family="Helvetica,sans-Serif" font-size="10.00">pkg_parsing.Parser</text>
<polyline fill="none" stroke="black" points="20.5,-50 125.5,-50 "/>
<text text-anchor="middle" x="73" y="-38" font-family="Helvetica,sans-Serif" font-size="10.00"> </text>
<polyline fill="none" stroke="black" points="20.5,-31 125.5,-31 "/>
<text text-anchor="start" x="28.5" y="-19" font-family="Helvetica,sans-Serif" font-size="10.00">+ getCommand()</text>
<text text-anchor="start" x="28.5" y="-8" font-family="Helvetica,sans-Serif" font-size="10.00">+ showCommands()</text>
</g>
<!-- Node2 -->
<g id="node2" class="node"><title>Node2</title>
<g id="a_node2"><a xlink:href="classpkg__parsing_1_1CommandWords.html" target="_top" xlink:title="Class used to verify the commands given by the user. ">
<polygon fill="white" stroke="black" points="0,-119 0,-209 146,-209 146,-119 0,-119"/>
<text text-anchor="middle" x="73" y="-197" font-family="Helvetica,sans-Serif" font-size="10.00">pkg_parsing.CommandWords</text>
<polyline fill="none" stroke="black" points="0,-190 146,-190 "/>
<text text-anchor="middle" x="73" y="-178" font-family="Helvetica,sans-Serif" font-size="10.00"> </text>
<polyline fill="none" stroke="black" points="0,-171 146,-171 "/>
<text text-anchor="start" x="8" y="-159" font-family="Helvetica,sans-Serif" font-size="10.00">+ CommandWords()</text>
<text text-anchor="start" x="8" y="-148" font-family="Helvetica,sans-Serif" font-size="10.00">+ isCommand()</text>
<text text-anchor="start" x="8" y="-137" font-family="Helvetica,sans-Serif" font-size="10.00">+ getCommandList()</text>
<text text-anchor="start" x="8" y="-126" font-family="Helvetica,sans-Serif" font-size="10.00">+ getCommand()</text>
</a>
</g>
</g>
<!-- Node2&#45;&gt;Node1 -->
<g id="edge1" class="edge"><title>Node2&#45;&gt;Node1</title>
<path fill="none" stroke="#404040" d="M73,-118.938C73,-106.815 73,-93.6456 73,-81.446"/>
<polygon fill="none" stroke="#404040" points="73.0001,-81.1682 69,-75.1682 73,-69.1682 77,-75.1682 73.0001,-81.1682"/>
<text text-anchor="middle" x="100.5" y="-91.5" font-family="Helvetica,sans-Serif" font-size="10.00"> &#45;commands</text>
</g>
<!-- Node3 -->
<g id="node3" class="node"><title>Node3</title>
<polygon fill="white" stroke="#bfbfbf" points="9.5,-259 9.5,-327 136.5,-327 136.5,-259 9.5,-259"/>
<text text-anchor="start" x="17.5" y="-315" font-family="Helvetica,sans-Serif" font-size="10.00">HashMap&lt; String, pkg</text>
<text text-anchor="middle" x="73" y="-304" font-family="Helvetica,sans-Serif" font-size="10.00">_commands.Command &gt;</text>
<polyline fill="none" stroke="#bfbfbf" points="9.5,-297 136.5,-297 "/>
<text text-anchor="middle" x="73" y="-285" font-family="Helvetica,sans-Serif" font-size="10.00"> </text>
<polyline fill="none" stroke="#bfbfbf" points="9.5,-278 136.5,-278 "/>
<text text-anchor="middle" x="73" y="-266" font-family="Helvetica,sans-Serif" font-size="10.00"> </text>
</g>
<!-- Node3&#45;&gt;Node2 -->
<g id="edge2" class="edge"><title>Node3&#45;&gt;Node2</title>
<path fill="none" stroke="#404040" d="M73,-258.964C73,-247.49 73,-234.278 73,-221.454"/>
<polygon fill="none" stroke="#404040" points="73.0001,-221.347 69,-215.347 73,-209.347 77,-215.347 73.0001,-221.347"/>
<text text-anchor="middle" x="100.5" y="-231.5" font-family="Helvetica,sans-Serif" font-size="10.00"> &#45;commands</text>
</g>
</g>
</svg>
