<?xml version="1.0" encoding="UTF-8" standalone="no"?>
<!DOCTYPE svg PUBLIC "-//W3C//DTD SVG 1.1//EN"
 "http://www.w3.org/Graphics/SVG/1.1/DTD/svg11.dtd">
<!-- Generated by graphviz version 2.36.0 (20140111.2315)
 -->
<!-- Title: BeamerCommand.teleport Pages: 1 -->
<svg width="488pt" height="104pt"
 viewBox="0.00 0.00 488.00 104.00" xmlns="http://www.w3.org/2000/svg" xmlns:xlink="http://www.w3.org/1999/xlink">
<g id="graph0" class="graph" transform="scale(1 1) rotate(0) translate(4 100)">
<title>BeamerCommand.teleport</title>
<polygon fill="white" stroke="none" points="-4,4 -4,-100 484,-100 484,4 -4,4"/>
<!-- Node1 -->
<g id="node1" class="node"><title>Node1</title>
<polygon fill="#bfbfbf" stroke="black" points="0.5,-57.5 0.5,-76.5 131.5,-76.5 131.5,-57.5 0.5,-57.5"/>
<text text-anchor="middle" x="66" y="-64.5" font-family="Helvetica,sans-Serif" font-size="10.00">BeamerCommand.teleport</text>
</g>
<!-- Node2 -->
<g id="node2" class="node"><title>Node2</title>
<g id="a_node2"><a xlink:href="classGoCommand.html#a3149bf695c19b78c39cfc4dadece7846" target="_top" xlink:title="Go to the Room without checking. ">
<polygon fill="white" stroke="black" points="168.5,-38.5 168.5,-57.5 323.5,-57.5 323.5,-38.5 168.5,-38.5"/>
<text text-anchor="middle" x="246" y="-45.5" font-family="Helvetica,sans-Serif" font-size="10.00">GoCommand.goRoomNoCheck</text>
</a>
</g>
</g>
<!-- Node1&#45;&gt;Node2 -->
<g id="edge1" class="edge"><title>Node1&#45;&gt;Node2</title>
<path fill="none" stroke="midnightblue" d="M131.514,-60.1137C140.188,-59.1878 149.199,-58.2259 158.181,-57.2672"/>
<polygon fill="midnightblue" stroke="midnightblue" points="158.717,-60.7299 168.289,-56.1882 157.974,-53.7695 158.717,-60.7299"/>
</g>
<!-- Node3 -->
<g id="node3" class="node"><title>Node3</title>
<g id="a_node3"><a xlink:href="classCommand.html#a715709d8f0ab65879d79ad1725c96f17" target="_top" xlink:title="Message field setter. ">
<polygon fill="white" stroke="black" points="361,-76.5 361,-95.5 479,-95.5 479,-76.5 361,-76.5"/>
<text text-anchor="middle" x="420" y="-83.5" font-family="Helvetica,sans-Serif" font-size="10.00">Command.setMessage</text>
</a>
</g>
</g>
<!-- Node1&#45;&gt;Node3 -->
<g id="edge5" class="edge"><title>Node1&#45;&gt;Node3</title>
<path fill="none" stroke="midnightblue" d="M131.562,-70.4849C193.699,-73.8389 287.317,-78.8921 350.685,-82.3125"/>
<polygon fill="midnightblue" stroke="midnightblue" points="350.802,-85.8239 360.976,-82.868 351.179,-78.834 350.802,-85.8239"/>
</g>
<!-- Node2&#45;&gt;Node3 -->
<g id="edge2" class="edge"><title>Node2&#45;&gt;Node3</title>
<path fill="none" stroke="midnightblue" d="M290.403,-57.589C313.407,-62.6713 341.851,-68.9554 366.134,-74.3203"/>
<polygon fill="midnightblue" stroke="midnightblue" points="365.39,-77.7402 375.909,-76.4799 366.9,-70.905 365.39,-77.7402"/>
</g>
<!-- Node4 -->
<g id="node4" class="node"><title>Node4</title>
<g id="a_node4"><a xlink:href="classCommand.html#a3d232d33894a20dc81b7627d84f14183" target="_top" xlink:title="Return true if the message is equal to null or &quot;&quot;. ">
<polygon fill="white" stroke="black" points="360,-38.5 360,-57.5 480,-57.5 480,-38.5 360,-38.5"/>
<text text-anchor="middle" x="420" y="-45.5" font-family="Helvetica,sans-Serif" font-size="10.00">Command.hasMessage</text>
</a>
</g>
</g>
<!-- Node2&#45;&gt;Node4 -->
<g id="edge3" class="edge"><title>Node2&#45;&gt;Node4</title>
<path fill="none" stroke="midnightblue" d="M323.694,-48C332.292,-48 341.015,-48 349.515,-48"/>
<polygon fill="midnightblue" stroke="midnightblue" points="349.749,-51.5001 359.749,-48 349.749,-44.5001 349.749,-51.5001"/>
</g>
<!-- Node5 -->
<g id="node5" class="node"><title>Node5</title>
<g id="a_node5"><a xlink:href="classCommand.html#ac3d4abebefb2aea0ce9757bf9c356882" target="_top" xlink:title="Message field getter. ">
<polygon fill="white" stroke="black" points="361,-0.5 361,-19.5 479,-19.5 479,-0.5 361,-0.5"/>
<text text-anchor="middle" x="420" y="-7.5" font-family="Helvetica,sans-Serif" font-size="10.00">Command.getMessage</text>
</a>
</g>
</g>
<!-- Node2&#45;&gt;Node5 -->
<g id="edge4" class="edge"><title>Node2&#45;&gt;Node5</title>
<path fill="none" stroke="midnightblue" d="M290.403,-38.411C313.407,-33.3287 341.851,-27.0446 366.134,-21.6797"/>
<polygon fill="midnightblue" stroke="midnightblue" points="366.9,-25.095 375.909,-19.5201 365.39,-18.2598 366.9,-25.095"/>
</g>
</g>
</svg>
