<?xml version="1.0" encoding="UTF-8" standalone="no"?>
<!DOCTYPE svg PUBLIC "-//W3C//DTD SVG 1.1//EN"
 "http://www.w3.org/Graphics/SVG/1.1/DTD/svg11.dtd">
<!-- Generated by graphviz version 2.36.0 (20140111.2315)
 -->
<!-- Title: pkg_commands.Command.setMessage Pages: 1 -->
<svg width="888pt" height="607pt"
 viewBox="0.00 0.00 888.00 607.49" xmlns="http://www.w3.org/2000/svg" xmlns:xlink="http://www.w3.org/1999/xlink">
<g id="graph0" class="graph" transform="scale(1 1) rotate(0) translate(4 603.49)">
<title>pkg_commands.Command.setMessage</title>
<polygon fill="white" stroke="none" points="-4,4 -4,-603.49 884,-603.49 884,4 -4,4"/>
<!-- Node1 -->
<g id="node1" class="node"><title>Node1</title>
<polygon fill="#bfbfbf" stroke="black" points="0,-302.624 0,-332.624 150,-332.624 150,-302.624 0,-302.624"/>
<text text-anchor="start" x="8" y="-320.624" font-family="Helvetica,sans-Serif" font-size="10.00">pkg_commands.Command.set</text>
<text text-anchor="middle" x="75" y="-309.624" font-family="Helvetica,sans-Serif" font-size="10.00">Message</text>
</g>
<!-- Node2 -->
<g id="node2" class="node"><title>Node2</title>
<g id="a_node2"><a xlink:href="classpkg__commands_1_1BeamerCommand.html#ae71665296a18d581ad1f714c1078e37b" target="_top" xlink:title="Remember the current room. ">
<polygon fill="white" stroke="black" points="436,-384.124 436,-403.124 636,-403.124 636,-384.124 436,-384.124"/>
<text text-anchor="middle" x="536" y="-391.124" font-family="Helvetica,sans-Serif" font-size="10.00">pkg_commands.BeamerCommand.charge</text>
</a>
</g>
</g>
<!-- Node1&#45;&gt;Node2 -->
<g id="edge1" class="edge"><title>Node1&#45;&gt;Node2</title>
<path fill="none" stroke="midnightblue" d="M78.4774,-342.919C85.1131,-395.156 108.445,-514.264 186,-564.624 265.024,-615.937 313.063,-605.409 398,-564.624 471.041,-529.55 517.379,-434.462 530.885,-403.508"/>
<polygon fill="midnightblue" stroke="midnightblue" points="81.9364,-342.364 77.3013,-332.836 74.9835,-343.175 81.9364,-342.364"/>
</g>
<!-- Node4 -->
<g id="node4" class="node"><title>Node4</title>
<g id="a_node4"><a xlink:href="classpkg__commands_1_1InventoryCommand.html#a16ce9e3db461ecb7c4a50d2bdef65022" target="_top" xlink:title="Save the inventory into the message field. ">
<polygon fill="white" stroke="black" points="186,-536.124 186,-555.124 398,-555.124 398,-536.124 186,-536.124"/>
<text text-anchor="middle" x="292" y="-543.124" font-family="Helvetica,sans-Serif" font-size="10.00">pkg_commands.InventoryCommand.execute</text>
</a>
</g>
</g>
<!-- Node1&#45;&gt;Node4 -->
<g id="edge3" class="edge"><title>Node1&#45;&gt;Node4</title>
<path fill="none" stroke="midnightblue" d="M81.5093,-342.449C92.7864,-387.05 122.937,-480.385 186,-526.624 191.154,-530.403 196.826,-533.508 202.783,-536.053"/>
<polygon fill="midnightblue" stroke="midnightblue" points="84.9069,-341.608 79.1538,-332.712 78.1032,-343.254 84.9069,-341.608"/>
</g>
<!-- Node5 -->
<g id="node5" class="node"><title>Node5</title>
<g id="a_node5"><a xlink:href="classpkg__commands_1_1CreditsCommand.html#aad2b955c6c8a4c3536e6b937165b7790" target="_top" xlink:title="Save the credits into the message field. ">
<polygon fill="white" stroke="black" points="190.5,-498.124 190.5,-517.124 393.5,-517.124 393.5,-498.124 190.5,-498.124"/>
<text text-anchor="middle" x="292" y="-505.124" font-family="Helvetica,sans-Serif" font-size="10.00">pkg_commands.CreditsCommand.execute</text>
</a>
</g>
</g>
<!-- Node1&#45;&gt;Node5 -->
<g id="edge4" class="edge"><title>Node1&#45;&gt;Node5</title>
<path fill="none" stroke="midnightblue" d="M84.5663,-342.484C99.0609,-380.561 132.211,-452.68 186,-488.624 191.699,-492.432 197.944,-495.536 204.458,-498.061"/>
<polygon fill="midnightblue" stroke="midnightblue" points="87.7069,-340.883 80.9711,-332.705 81.1369,-343.299 87.7069,-340.883"/>
</g>
<!-- Node6 -->
<g id="node6" class="node"><title>Node6</title>
<g id="a_node6"><a xlink:href="classpkg__commands_1_1LookCommand.html#af336146fae1e14bf434d85a5acbcdcd7" target="_top" xlink:title="Saves the information about the current Room or a given Item in the message field. ">
<polygon fill="white" stroke="black" points="196,-460.124 196,-479.124 388,-479.124 388,-460.124 196,-460.124"/>
<text text-anchor="middle" x="292" y="-467.124" font-family="Helvetica,sans-Serif" font-size="10.00">pkg_commands.LookCommand.execute</text>
</a>
</g>
</g>
<!-- Node1&#45;&gt;Node6 -->
<g id="edge5" class="edge"><title>Node1&#45;&gt;Node6</title>
<path fill="none" stroke="midnightblue" d="M88.7766,-341.715C106.354,-372.313 140.999,-424.293 186,-450.624 192.556,-454.459 199.705,-457.554 207.089,-460.046"/>
<polygon fill="midnightblue" stroke="midnightblue" points="91.814,-339.975 83.8769,-332.957 85.7051,-343.393 91.814,-339.975"/>
</g>
<!-- Node7 -->
<g id="node7" class="node"><title>Node7</title>
<g id="a_node7"><a xlink:href="classpkg__commands_1_1DropCommand.html#a742e37b2d2dd4e111130811ee2f4dd0b" target="_top" xlink:title="Drop the Item through it&#39;s name in the parameter field. ">
<polygon fill="white" stroke="black" points="196,-422.124 196,-441.124 388,-441.124 388,-422.124 196,-422.124"/>
<text text-anchor="middle" x="292" y="-429.124" font-family="Helvetica,sans-Serif" font-size="10.00">pkg_commands.DropCommand.execute</text>
</a>
</g>
</g>
<!-- Node1&#45;&gt;Node7 -->
<g id="edge6" class="edge"><title>Node1&#45;&gt;Node7</title>
<path fill="none" stroke="midnightblue" d="M95.6563,-340.58C115.954,-362.698 149.702,-395.282 186,-412.624 194.191,-416.537 203.093,-419.648 212.134,-422.121"/>
<polygon fill="midnightblue" stroke="midnightblue" points="98.0925,-338.055 88.807,-332.953 92.8842,-342.731 98.0925,-338.055"/>
</g>
<!-- Node8 -->
<g id="node8" class="node"><title>Node8</title>
<g id="a_node8"><a xlink:href="classpkg__commands_1_1TakeCommand.html#a17789062aaf2ab5747c7eeac118875cd" target="_top" xlink:title="Make the player take an Item. ">
<polygon fill="white" stroke="black" points="195.5,-384.124 195.5,-403.124 388.5,-403.124 388.5,-384.124 195.5,-384.124"/>
<text text-anchor="middle" x="292" y="-391.124" font-family="Helvetica,sans-Serif" font-size="10.00">pkg_commands.TakeCommand.execute</text>
</a>
</g>
</g>
<!-- Node1&#45;&gt;Node8 -->
<g id="edge7" class="edge"><title>Node1&#45;&gt;Node8</title>
<path fill="none" stroke="midnightblue" d="M108.608,-337.819C129.914,-350.171 158.745,-365.332 186,-374.624 197.31,-378.479 209.586,-381.598 221.623,-384.107"/>
<polygon fill="midnightblue" stroke="midnightblue" points="110.357,-334.787 99.9647,-332.723 106.801,-340.817 110.357,-334.787"/>
</g>
<!-- Node9 -->
<g id="node9" class="node"><title>Node9</title>
<g id="a_node9"><a xlink:href="classpkg__commands_1_1TalkCommand.html#a413573388e24a2d442f9814695f7e47c" target="_top" xlink:title="Make the player talk to a Character. ">
<polygon fill="white" stroke="black" points="197,-346.124 197,-365.124 387,-365.124 387,-346.124 197,-346.124"/>
<text text-anchor="middle" x="292" y="-353.124" font-family="Helvetica,sans-Serif" font-size="10.00">pkg_commands.TalkCommand.execute</text>
</a>
</g>
</g>
<!-- Node1&#45;&gt;Node9 -->
<g id="edge8" class="edge"><title>Node1&#45;&gt;Node9</title>
<path fill="none" stroke="midnightblue" d="M160.447,-332.549C186.233,-337.107 213.875,-341.992 237.055,-346.089"/>
<polygon fill="midnightblue" stroke="midnightblue" points="160.748,-329.048 150.292,-330.754 159.53,-335.941 160.748,-329.048"/>
</g>
<!-- Node10 -->
<g id="node10" class="node"><title>Node10</title>
<g id="a_node10"><a xlink:href="classpkg__commands_1_1EatCommand.html#a2a600f09891aa076b3f630293de965f4" target="_top" xlink:title="Make the player eat an object. ">
<polygon fill="white" stroke="black" points="199,-308.124 199,-327.124 385,-327.124 385,-308.124 199,-308.124"/>
<text text-anchor="middle" x="292" y="-315.124" font-family="Helvetica,sans-Serif" font-size="10.00">pkg_commands.EatCommand.execute</text>
</a>
</g>
</g>
<!-- Node1&#45;&gt;Node10 -->
<g id="edge9" class="edge"><title>Node1&#45;&gt;Node10</title>
<path fill="none" stroke="midnightblue" d="M160.325,-317.624C172.973,-317.624 186.071,-317.624 198.872,-317.624"/>
<polygon fill="midnightblue" stroke="midnightblue" points="160.292,-314.124 150.292,-317.624 160.292,-321.124 160.292,-314.124"/>
</g>
<!-- Node11 -->
<g id="node11" class="node"><title>Node11</title>
<g id="a_node11"><a xlink:href="classpkg__commands_1_1ThrowCommand.html#a38d936bcebcf45936324caf0f417b012" target="_top" xlink:title="Throw the Item through it&#39;s name in the parameter field. ">
<polygon fill="white" stroke="black" points="193,-270.124 193,-289.124 391,-289.124 391,-270.124 193,-270.124"/>
<text text-anchor="middle" x="292" y="-277.124" font-family="Helvetica,sans-Serif" font-size="10.00">pkg_commands.ThrowCommand.execute</text>
</a>
</g>
</g>
<!-- Node1&#45;&gt;Node11 -->
<g id="edge10" class="edge"><title>Node1&#45;&gt;Node11</title>
<path fill="none" stroke="midnightblue" d="M160.447,-302.698C186.233,-298.141 213.875,-293.255 237.055,-289.158"/>
<polygon fill="midnightblue" stroke="midnightblue" points="159.53,-299.306 150.292,-304.493 160.748,-306.199 159.53,-299.306"/>
</g>
<!-- Node12 -->
<g id="node12" class="node"><title>Node12</title>
<g id="a_node12"><a xlink:href="classpkg__commands_1_1GiveCommand.html#a3a3cca7fae9b86d8ff85cc166564843d" target="_top" xlink:title="Make the player give an Item to a Character. ">
<polygon fill="white" stroke="black" points="196.5,-232.124 196.5,-251.124 387.5,-251.124 387.5,-232.124 196.5,-232.124"/>
<text text-anchor="middle" x="292" y="-239.124" font-family="Helvetica,sans-Serif" font-size="10.00">pkg_commands.GiveCommand.execute</text>
</a>
</g>
</g>
<!-- Node1&#45;&gt;Node12 -->
<g id="edge11" class="edge"><title>Node1&#45;&gt;Node12</title>
<path fill="none" stroke="midnightblue" d="M108.608,-297.428C129.914,-285.077 158.745,-269.915 186,-260.624 197.31,-256.768 209.586,-253.649 221.623,-251.141"/>
<polygon fill="midnightblue" stroke="midnightblue" points="106.801,-294.43 99.9647,-302.524 110.357,-300.46 106.801,-294.43"/>
</g>
<!-- Node13 -->
<g id="node13" class="node"><title>Node13</title>
<g id="a_node13"><a xlink:href="classpkg__commands_1_1TestCommand.html#a1ff07c27a46910d20c2e4569888892ca" target="_top" xlink:title="Test series of Commands stored in a .test file and store the messages in the message field...">
<polygon fill="white" stroke="black" points="196.5,-194.124 196.5,-213.124 387.5,-213.124 387.5,-194.124 196.5,-194.124"/>
<text text-anchor="middle" x="292" y="-201.124" font-family="Helvetica,sans-Serif" font-size="10.00">pkg_commands.TestCommand.execute</text>
</a>
</g>
</g>
<!-- Node1&#45;&gt;Node13 -->
<g id="edge12" class="edge"><title>Node1&#45;&gt;Node13</title>
<path fill="none" stroke="midnightblue" d="M95.6563,-294.667C115.954,-272.549 149.702,-239.965 186,-222.624 194.191,-218.711 203.093,-215.599 212.134,-213.126"/>
<polygon fill="midnightblue" stroke="midnightblue" points="92.8842,-292.516 88.807,-302.294 98.0925,-297.193 92.8842,-292.516"/>
</g>
<!-- Node14 -->
<g id="node14" class="node"><title>Node14</title>
<g id="a_node14"><a xlink:href="classpkg__commands_1_1GoCommand.html#a82e9a64a0fac612f788060a90c83f9b1" target="_top" xlink:title="Make the player go to the Room through it&#39;s direction in the parameter field. ">
<polygon fill="white" stroke="black" points="685,-74.1235 685,-93.1235 869,-93.1235 869,-74.1235 685,-74.1235"/>
<text text-anchor="middle" x="777" y="-81.1235" font-family="Helvetica,sans-Serif" font-size="10.00">pkg_commands.GoCommand.execute</text>
</a>
</g>
</g>
<!-- Node1&#45;&gt;Node14 -->
<g id="edge13" class="edge"><title>Node1&#45;&gt;Node14</title>
<path fill="none" stroke="midnightblue" d="M77.9299,-292.259C83.5724,-238.173 105.198,-112.094 186,-58.6235 372.599,64.8567 669.858,-40.3771 753.468,-74.0979"/>
<polygon fill="midnightblue" stroke="midnightblue" points="74.4313,-292.081 76.9772,-302.365 81.4004,-292.738 74.4313,-292.081"/>
</g>
<!-- Node15 -->
<g id="node15" class="node"><title>Node15</title>
<g id="a_node15"><a xlink:href="classpkg__commands_1_1HelpCommand.html#a332d3e57539dfc82f8c539f8b3e24dd6" target="_top" xlink:title="Saves user&#39;s help in the parameter field. ">
<polygon fill="white" stroke="black" points="196.5,-118.124 196.5,-137.124 387.5,-137.124 387.5,-118.124 196.5,-118.124"/>
<text text-anchor="middle" x="292" y="-125.124" font-family="Helvetica,sans-Serif" font-size="10.00">pkg_commands.HelpCommand.execute</text>
</a>
</g>
</g>
<!-- Node1&#45;&gt;Node15 -->
<g id="edge14" class="edge"><title>Node1&#45;&gt;Node15</title>
<path fill="none" stroke="midnightblue" d="M85.3138,-292.942C100.523,-256.143 134.28,-187.399 186,-151.624 195.15,-145.294 205.719,-140.61 216.553,-137.149"/>
<polygon fill="midnightblue" stroke="midnightblue" points="81.9865,-291.836 81.5163,-302.421 88.4844,-294.44 81.9865,-291.836"/>
</g>
<!-- Node16 -->
<g id="node16" class="node"><title>Node16</title>
<g id="a_node16"><a xlink:href="classpkg__commands_1_1GoCommand.html#a210afbc5f3ef34d3ad5759d853c8f8c2" target="_top" xlink:title="Go to the Room without checking. ">
<polygon fill="white" stroke="black" points="212,-68.6235 212,-98.6235 372,-98.6235 372,-68.6235 212,-68.6235"/>
<text text-anchor="start" x="220" y="-86.6235" font-family="Helvetica,sans-Serif" font-size="10.00">pkg_commands.GoCommand.go</text>
<text text-anchor="middle" x="292" y="-75.6235" font-family="Helvetica,sans-Serif" font-size="10.00">RoomNoCheck</text>
</a>
</g>
</g>
<!-- Node1&#45;&gt;Node16 -->
<g id="edge15" class="edge"><title>Node1&#45;&gt;Node16</title>
<path fill="none" stroke="midnightblue" d="M81.9208,-292.529C93.7234,-248.231 124.506,-156.353 186,-108.624 193.698,-102.649 202.6,-98.0701 211.901,-94.5664"/>
<polygon fill="midnightblue" stroke="midnightblue" points="78.4668,-291.909 79.3819,-302.465 85.2488,-293.643 78.4668,-291.909"/>
</g>
<!-- Node17 -->
<g id="node17" class="node"><title>Node17</title>
<g id="a_node17"><a xlink:href="classpkg__commands_1_1BeamerCommand.html#a2b6c04242d443d4ff36f255b06ce14be" target="_top" xlink:title="Teleport the player to the remembered room. ">
<polygon fill="white" stroke="black" points="434.5,-156.124 434.5,-175.124 637.5,-175.124 637.5,-156.124 434.5,-156.124"/>
<text text-anchor="middle" x="536" y="-163.124" font-family="Helvetica,sans-Serif" font-size="10.00">pkg_commands.BeamerCommand.teleport</text>
</a>
</g>
</g>
<!-- Node1&#45;&gt;Node17 -->
<g id="edge21" class="edge"><title>Node1&#45;&gt;Node17</title>
<path fill="none" stroke="midnightblue" d="M87.7712,-293.633C104.651,-262.213 138.962,-208.345 186,-184.624 281.899,-136.262 412.025,-145.693 483.204,-156.119"/>
<polygon fill="midnightblue" stroke="midnightblue" points="84.6134,-292.119 83.0976,-302.605 90.8216,-295.353 84.6134,-292.119"/>
</g>
<!-- Node3 -->
<g id="node3" class="node"><title>Node3</title>
<g id="a_node3"><a xlink:href="classpkg__commands_1_1BeamerCommand.html#a139dc852e180cabd8af15cfed37dcf0e" target="_top" xlink:title="Teleport to the remembered room or remember a room. ">
<polygon fill="white" stroke="black" points="674.5,-175.124 674.5,-194.124 879.5,-194.124 879.5,-175.124 674.5,-175.124"/>
<text text-anchor="middle" x="777" y="-182.124" font-family="Helvetica,sans-Serif" font-size="10.00">pkg_commands.BeamerCommand.execute</text>
</a>
</g>
</g>
<!-- Node2&#45;&gt;Node3 -->
<g id="edge2" class="edge"><title>Node2&#45;&gt;Node3</title>
<path fill="none" stroke="midnightblue" d="M555.56,-377.393C602.96,-335.943 727.387,-227.134 765.046,-194.203"/>
<polygon fill="midnightblue" stroke="midnightblue" points="553.114,-374.883 547.89,-384.1 557.722,-380.152 553.114,-374.883"/>
</g>
<!-- Node16&#45;&gt;Node14 -->
<g id="edge18" class="edge"><title>Node16&#45;&gt;Node14</title>
<path fill="none" stroke="midnightblue" d="M376.942,-100.297C395.647,-103.345 415.438,-106.055 434,-107.624 524.345,-115.258 547.669,-115.42 638,-107.624 669.86,-104.874 705.401,-98.6164 732.435,-93.1804"/>
<polygon fill="midnightblue" stroke="midnightblue" points="377.416,-96.8277 366.974,-98.6255 376.258,-103.731 377.416,-96.8277"/>
</g>
<!-- Node16&#45;&gt;Node17 -->
<g id="edge16" class="edge"><title>Node16&#45;&gt;Node17</title>
<path fill="none" stroke="midnightblue" d="M381.651,-101.221C387.303,-103.41 392.804,-105.866 398,-108.624 417.173,-118.797 414.825,-131.454 434,-141.624 445.942,-147.957 459.555,-152.639 472.836,-156.094"/>
<polygon fill="midnightblue" stroke="midnightblue" points="382.618,-97.8495 372.023,-97.7846 380.265,-104.442 382.618,-97.8495"/>
</g>
<!-- Node18 -->
<g id="node18" class="node"><title>Node18</title>
<g id="a_node18"><a xlink:href="classpkg__commands_1_1GoCommand.html#acbf1aa81fa5b1aef7cafb8b4e3ace3a9" target="_top" xlink:title="Check if the wanted Room is connected to the current Room and go to this room. ">
<polygon fill="white" stroke="black" points="456,-68.6235 456,-98.6235 616,-98.6235 616,-68.6235 456,-68.6235"/>
<text text-anchor="start" x="464" y="-86.6235" font-family="Helvetica,sans-Serif" font-size="10.00">pkg_commands.GoCommand.go</text>
<text text-anchor="middle" x="536" y="-75.6235" font-family="Helvetica,sans-Serif" font-size="10.00">RoomCheck</text>
</a>
</g>
</g>
<!-- Node16&#45;&gt;Node18 -->
<g id="edge19" class="edge"><title>Node16&#45;&gt;Node18</title>
<path fill="none" stroke="midnightblue" d="M382.455,-83.6235C406.574,-83.6235 432.492,-83.6235 455.996,-83.6235"/>
<polygon fill="midnightblue" stroke="midnightblue" points="382.24,-80.1236 372.24,-83.6235 382.24,-87.1236 382.24,-80.1236"/>
</g>
<!-- Node17&#45;&gt;Node3 -->
<g id="edge17" class="edge"><title>Node17&#45;&gt;Node3</title>
<path fill="none" stroke="midnightblue" d="M647.655,-174.42C656.538,-175.127 665.487,-175.838 674.303,-176.539"/>
<polygon fill="midnightblue" stroke="midnightblue" points="647.911,-170.93 637.665,-173.626 647.356,-177.908 647.911,-170.93"/>
</g>
<!-- Node18&#45;&gt;Node14 -->
<g id="edge20" class="edge"><title>Node18&#45;&gt;Node14</title>
<path fill="none" stroke="midnightblue" d="M626.443,-83.6235C645.566,-83.6235 665.787,-83.6235 684.969,-83.6235"/>
<polygon fill="midnightblue" stroke="midnightblue" points="626.252,-80.1236 616.252,-83.6235 626.252,-87.1236 626.252,-80.1236"/>
</g>
</g>
</svg>
