<?xml version="1.0" encoding="UTF-8" standalone="no"?>
<!DOCTYPE svg PUBLIC "-//W3C//DTD SVG 1.1//EN"
 "http://www.w3.org/Graphics/SVG/1.1/DTD/svg11.dtd">
<!-- Generated by graphviz version 2.36.0 (20140111.2315)
 -->
<!-- Title: pkg_commands.Command.getParameter Pages: 1 -->
<svg width="400pt" height="332pt"
 viewBox="0.00 0.00 400.00 332.00" xmlns="http://www.w3.org/2000/svg" xmlns:xlink="http://www.w3.org/1999/xlink">
<g id="graph0" class="graph" transform="scale(1 1) rotate(0) translate(4 328)">
<title>pkg_commands.Command.getParameter</title>
<polygon fill="white" stroke="none" points="-4,4 -4,-328 396,-328 396,4 -4,4"/>
<!-- Node1 -->
<g id="node1" class="node"><title>Node1</title>
<polygon fill="#bfbfbf" stroke="black" points="0,-147 0,-177 150,-177 150,-147 0,-147"/>
<text text-anchor="start" x="8" y="-165" font-family="Helvetica,sans-Serif" font-size="10.00">pkg_commands.Command.get</text>
<text text-anchor="middle" x="75" y="-154" font-family="Helvetica,sans-Serif" font-size="10.00">Parameter</text>
</g>
<!-- Node2 -->
<g id="node2" class="node"><title>Node2</title>
<g id="a_node2"><a xlink:href="classpkg__commands_1_1LookCommand.html#af336146fae1e14bf434d85a5acbcdcd7" target="_top" xlink:title="Saves the information about the current Room or a given Item in the message field. ">
<polygon fill="white" stroke="black" points="193,-304.5 193,-323.5 385,-323.5 385,-304.5 193,-304.5"/>
<text text-anchor="middle" x="289" y="-311.5" font-family="Helvetica,sans-Serif" font-size="10.00">pkg_commands.LookCommand.execute</text>
</a>
</g>
</g>
<!-- Node1&#45;&gt;Node2 -->
<g id="edge1" class="edge"><title>Node1&#45;&gt;Node2</title>
<path fill="none" stroke="midnightblue" d="M88.7975,-186.056C106.397,-216.615 141.067,-268.554 186,-295 192.598,-298.883 199.816,-302.001 207.267,-304.5"/>
<polygon fill="midnightblue" stroke="midnightblue" points="91.8362,-184.319 83.891,-177.31 85.7313,-187.743 91.8362,-184.319"/>
</g>
<!-- Node3 -->
<g id="node3" class="node"><title>Node3</title>
<g id="a_node3"><a xlink:href="classpkg__commands_1_1TalkCommand.html#a413573388e24a2d442f9814695f7e47c" target="_top" xlink:title="Make the player talk to a Character. ">
<polygon fill="white" stroke="black" points="194,-266.5 194,-285.5 384,-285.5 384,-266.5 194,-266.5"/>
<text text-anchor="middle" x="289" y="-273.5" font-family="Helvetica,sans-Serif" font-size="10.00">pkg_commands.TalkCommand.execute</text>
</a>
</g>
</g>
<!-- Node1&#45;&gt;Node3 -->
<g id="edge2" class="edge"><title>Node1&#45;&gt;Node3</title>
<path fill="none" stroke="midnightblue" d="M95.6754,-184.917C115.988,-207.004 149.747,-239.565 186,-257 194.117,-260.903 202.954,-264.007 211.92,-266.474"/>
<polygon fill="midnightblue" stroke="midnightblue" points="98.112,-182.392 88.8206,-177.301 92.909,-187.075 98.112,-182.392"/>
</g>
<!-- Node4 -->
<g id="node4" class="node"><title>Node4</title>
<g id="a_node4"><a xlink:href="classpkg__commands_1_1DropCommand.html#a742e37b2d2dd4e111130811ee2f4dd0b" target="_top" xlink:title="Drop the Item through it&#39;s name in the parameter field. ">
<polygon fill="white" stroke="black" points="193,-228.5 193,-247.5 385,-247.5 385,-228.5 193,-228.5"/>
<text text-anchor="middle" x="289" y="-235.5" font-family="Helvetica,sans-Serif" font-size="10.00">pkg_commands.DropCommand.execute</text>
</a>
</g>
</g>
<!-- Node1&#45;&gt;Node4 -->
<g id="edge3" class="edge"><title>Node1&#45;&gt;Node4</title>
<path fill="none" stroke="midnightblue" d="M108.625,-182.148C129.937,-194.48 158.769,-209.639 186,-219 197.158,-222.836 209.283,-225.953 221.15,-228.467"/>
<polygon fill="midnightblue" stroke="midnightblue" points="110.372,-179.115 99.978,-177.061 106.822,-185.148 110.372,-179.115"/>
</g>
<!-- Node5 -->
<g id="node5" class="node"><title>Node5</title>
<g id="a_node5"><a xlink:href="classpkg__commands_1_1TakeCommand.html#a17789062aaf2ab5747c7eeac118875cd" target="_top" xlink:title="Make the player take an Item. ">
<polygon fill="white" stroke="black" points="192.5,-190.5 192.5,-209.5 385.5,-209.5 385.5,-190.5 192.5,-190.5"/>
<text text-anchor="middle" x="289" y="-197.5" font-family="Helvetica,sans-Serif" font-size="10.00">pkg_commands.TakeCommand.execute</text>
</a>
</g>
</g>
<!-- Node1&#45;&gt;Node5 -->
<g id="edge4" class="edge"><title>Node1&#45;&gt;Node5</title>
<path fill="none" stroke="midnightblue" d="M160.09,-177.073C185.323,-181.596 212.288,-186.429 234.922,-190.486"/>
<polygon fill="midnightblue" stroke="midnightblue" points="160.608,-173.61 150.147,-175.291 159.373,-180.5 160.608,-173.61"/>
</g>
<!-- Node6 -->
<g id="node6" class="node"><title>Node6</title>
<g id="a_node6"><a xlink:href="classpkg__commands_1_1EatCommand.html#a2a600f09891aa076b3f630293de965f4" target="_top" xlink:title="Make the player eat an object. ">
<polygon fill="white" stroke="black" points="196,-152.5 196,-171.5 382,-171.5 382,-152.5 196,-152.5"/>
<text text-anchor="middle" x="289" y="-159.5" font-family="Helvetica,sans-Serif" font-size="10.00">pkg_commands.EatCommand.execute</text>
</a>
</g>
</g>
<!-- Node1&#45;&gt;Node6 -->
<g id="edge5" class="edge"><title>Node1&#45;&gt;Node6</title>
<path fill="none" stroke="midnightblue" d="M160.336,-162C172.056,-162 184.145,-162 195.996,-162"/>
<polygon fill="midnightblue" stroke="midnightblue" points="160.147,-158.5 150.147,-162 160.147,-165.5 160.147,-158.5"/>
</g>
<!-- Node7 -->
<g id="node7" class="node"><title>Node7</title>
<g id="a_node7"><a xlink:href="classpkg__commands_1_1GiveCommand.html#a3a3cca7fae9b86d8ff85cc166564843d" target="_top" xlink:title="Make the player give an Item to a Character. ">
<polygon fill="white" stroke="black" points="193.5,-114.5 193.5,-133.5 384.5,-133.5 384.5,-114.5 193.5,-114.5"/>
<text text-anchor="middle" x="289" y="-121.5" font-family="Helvetica,sans-Serif" font-size="10.00">pkg_commands.GiveCommand.execute</text>
</a>
</g>
</g>
<!-- Node1&#45;&gt;Node7 -->
<g id="edge6" class="edge"><title>Node1&#45;&gt;Node7</title>
<path fill="none" stroke="midnightblue" d="M160.09,-146.927C185.323,-142.404 212.288,-137.571 234.922,-133.514"/>
<polygon fill="midnightblue" stroke="midnightblue" points="159.373,-143.5 150.147,-148.709 160.608,-150.39 159.373,-143.5"/>
</g>
<!-- Node8 -->
<g id="node8" class="node"><title>Node8</title>
<g id="a_node8"><a xlink:href="classpkg__commands_1_1BeamerCommand.html#a139dc852e180cabd8af15cfed37dcf0e" target="_top" xlink:title="Teleport to the remembered room or remember a room. ">
<polygon fill="white" stroke="black" points="186.5,-76.5 186.5,-95.5 391.5,-95.5 391.5,-76.5 186.5,-76.5"/>
<text text-anchor="middle" x="289" y="-83.5" font-family="Helvetica,sans-Serif" font-size="10.00">pkg_commands.BeamerCommand.execute</text>
</a>
</g>
</g>
<!-- Node1&#45;&gt;Node8 -->
<g id="edge7" class="edge"><title>Node1&#45;&gt;Node8</title>
<path fill="none" stroke="midnightblue" d="M108.625,-141.852C129.937,-129.52 158.769,-114.361 186,-105 197.158,-101.164 209.283,-98.0475 221.15,-95.5329"/>
<polygon fill="midnightblue" stroke="midnightblue" points="106.822,-138.852 99.978,-146.939 110.372,-144.885 106.822,-138.852"/>
</g>
<!-- Node9 -->
<g id="node9" class="node"><title>Node9</title>
<g id="a_node9"><a xlink:href="classpkg__commands_1_1TestCommand.html#a1ff07c27a46910d20c2e4569888892ca" target="_top" xlink:title="Test series of Commands stored in a .test file and store the messages in the message field...">
<polygon fill="white" stroke="black" points="193.5,-38.5 193.5,-57.5 384.5,-57.5 384.5,-38.5 193.5,-38.5"/>
<text text-anchor="middle" x="289" y="-45.5" font-family="Helvetica,sans-Serif" font-size="10.00">pkg_commands.TestCommand.execute</text>
</a>
</g>
</g>
<!-- Node1&#45;&gt;Node9 -->
<g id="edge8" class="edge"><title>Node1&#45;&gt;Node9</title>
<path fill="none" stroke="midnightblue" d="M95.6754,-139.083C115.988,-116.996 149.747,-84.4346 186,-67 194.117,-63.0966 202.954,-59.9932 211.92,-57.5261"/>
<polygon fill="midnightblue" stroke="midnightblue" points="92.909,-136.925 88.8206,-146.699 98.112,-141.608 92.909,-136.925"/>
</g>
<!-- Node10 -->
<g id="node10" class="node"><title>Node10</title>
<g id="a_node10"><a xlink:href="classpkg__commands_1_1GoCommand.html#a82e9a64a0fac612f788060a90c83f9b1" target="_top" xlink:title="Make the player go to the Room through it&#39;s direction in the parameter field. ">
<polygon fill="white" stroke="black" points="197,-0.5 197,-19.5 381,-19.5 381,-0.5 197,-0.5"/>
<text text-anchor="middle" x="289" y="-7.5" font-family="Helvetica,sans-Serif" font-size="10.00">pkg_commands.GoCommand.execute</text>
</a>
</g>
</g>
<!-- Node1&#45;&gt;Node10 -->
<g id="edge9" class="edge"><title>Node1&#45;&gt;Node10</title>
<path fill="none" stroke="midnightblue" d="M88.7975,-137.944C106.397,-107.385 141.067,-55.4459 186,-29 192.598,-25.1169 199.816,-21.9995 207.267,-19.5005"/>
<polygon fill="midnightblue" stroke="midnightblue" points="85.7313,-136.257 83.891,-146.69 91.8362,-139.681 85.7313,-136.257"/>
</g>
</g>
</svg>
