<?xml version="1.0" encoding="UTF-8" standalone="no"?>
<!DOCTYPE svg PUBLIC "-//W3C//DTD SVG 1.1//EN"
 "http://www.w3.org/Graphics/SVG/1.1/DTD/svg11.dtd">
<!-- Generated by graphviz version 2.36.0 (20140111.2315)
 -->
<!-- Title: GameEngine Pages: 1 -->
<!--zoomable 804 -->
<svg id="main" version="1.1" xmlns="http://www.w3.org/2000/svg" xmlns:xlink="http://www.w3.org/1999/xlink" xml:space="preserve" onload="init(evt)">
<style type="text/css"><![CDATA[
.edge:hover path { stroke: red; }
.edge:hover polygon { stroke: red; fill: red; }
]]></style>
<script type="text/javascript"><![CDATA[
var edges = document.getElementsByTagName('g');
if (edges && edges.length) {
  for (var i=0;i<edges.length;i++) {
    if (edges[i].id.substr(0,4)=='edge') {
      edges[i].setAttribute('class','edge');
    }
  }
}
]]></script>
        <defs>
                <circle id="rim" cx="0" cy="0" r="7"/>
                <circle id="rim2" cx="0" cy="0" r="3.5"/>
                <g id="zoomPlus">
                        <use xlink:href="#rim" fill="#404040">
                                <set attributeName="fill" to="#808080" begin="zoomplus.mouseover" end="zoomplus.mouseout"/>
                        </use>
                        <path d="M-4,0h8M0,-4v8" fill="none" stroke="white" stroke-width="1.5" pointer-events="none"/>
                </g>
                <g id="zoomMin">
                        <use xlink:href="#rim" fill="#404040">
                                <set attributeName="fill" to="#808080" begin="zoomminus.mouseover" end="zoomminus.mouseout"/>
                        </use>
                        <path d="M-4,0h8" fill="none" stroke="white" stroke-width="1.5" pointer-events="none"/>
                </g>
                <g id="dirArrow">
                        <path fill="none" stroke="white" stroke-width="1.5" d="M0,-3.0v7 M-2.5,-0.5L0,-3.0L2.5,-0.5"/>
                </g>
               <g id="resetDef">
                       <use xlink:href="#rim2" fill="#404040">
                               <set attributeName="fill" to="#808080" begin="reset.mouseover" end="reset.mouseout"/>
                       </use>
               </g>
        </defs>

<script type="text/javascript">
var viewWidth = 412;
var viewHeight = 804;
var sectionId = 'dynsection-0';
</script>
<script xlink:href="svgpan.js"/>
<svg id="graph" class="graph">
<g id="viewport">
<title>GameEngine</title>
<polygon fill="white" stroke="none" points="-4,4 -4,-800 408,-800 408,4 -4,4"/>
<!-- Node1 -->
<g id="node1" class="node"><title>Node1</title>
<polygon fill="#bfbfbf" stroke="black" points="157.5,-217 157.5,-417 268.5,-417 268.5,-217 157.5,-217"/>
<text text-anchor="middle" x="213" y="-405" font-family="Helvetica,sans-Serif" font-size="10.00">GameEngine</text>
<polyline fill="none" stroke="black" points="157.5,-398 268.5,-398 "/>
<text text-anchor="start" x="165.5" y="-386" font-family="Helvetica,sans-Serif" font-size="10.00">&#45; helpCount</text>
<polyline fill="none" stroke="black" points="157.5,-379 268.5,-379 "/>
<text text-anchor="start" x="165.5" y="-367" font-family="Helvetica,sans-Serif" font-size="10.00">+ GameEngine()</text>
<text text-anchor="start" x="165.5" y="-356" font-family="Helvetica,sans-Serif" font-size="10.00">+ setGUI()</text>
<text text-anchor="start" x="165.5" y="-345" font-family="Helvetica,sans-Serif" font-size="10.00">+ processCommand()</text>
<text text-anchor="start" x="165.5" y="-334" font-family="Helvetica,sans-Serif" font-size="10.00">&#45; printWelcome()</text>
<text text-anchor="start" x="165.5" y="-323" font-family="Helvetica,sans-Serif" font-size="10.00">&#45; createRooms()</text>
<text text-anchor="start" x="165.5" y="-312" font-family="Helvetica,sans-Serif" font-size="10.00">&#45; printHelp()</text>
<text text-anchor="start" x="165.5" y="-301" font-family="Helvetica,sans-Serif" font-size="10.00">&#45; printCredits()</text>
<text text-anchor="start" x="165.5" y="-290" font-family="Helvetica,sans-Serif" font-size="10.00">&#45; goRoom()</text>
<text text-anchor="start" x="165.5" y="-279" font-family="Helvetica,sans-Serif" font-size="10.00">&#45; goRoom()</text>
<text text-anchor="start" x="165.5" y="-268" font-family="Helvetica,sans-Serif" font-size="10.00">&#45; goRoom()</text>
<text text-anchor="start" x="165.5" y="-257" font-family="Helvetica,sans-Serif" font-size="10.00">&#45; goBack()</text>
<text text-anchor="start" x="165.5" y="-246" font-family="Helvetica,sans-Serif" font-size="10.00">&#45; lookAround()</text>
<text text-anchor="start" x="165.5" y="-235" font-family="Helvetica,sans-Serif" font-size="10.00">&#45; endGame()</text>
<text text-anchor="start" x="165.5" y="-224" font-family="Helvetica,sans-Serif" font-size="10.00">&#45; test()</text>
</g>
<!-- Node6 -->
<g id="node6" class="node"><title>Node6</title>
<g id="a_node6"><a xlink:href="classUserInterface.html" target="_top" xlink:title="{UserInterface\n|&#45; myFrame\l&#45; entryField\l&#45; log\l&#45; image\l|+ UserInterface()\l+ print()\l+ println()\l+ showImage()\l+ enable()\l+ actionPerformed()\l&#45; createGUI()\l&#45; processCommand()\l}">
<polygon fill="white" stroke="black" points="101,-0.5 101,-167.5 209,-167.5 209,-0.5 101,-0.5"/>
<text text-anchor="middle" x="155" y="-155.5" font-family="Helvetica,sans-Serif" font-size="10.00">UserInterface</text>
<polyline fill="none" stroke="black" points="101,-148.5 209,-148.5 "/>
<text text-anchor="start" x="109" y="-136.5" font-family="Helvetica,sans-Serif" font-size="10.00">&#45; myFrame</text>
<text text-anchor="start" x="109" y="-125.5" font-family="Helvetica,sans-Serif" font-size="10.00">&#45; entryField</text>
<text text-anchor="start" x="109" y="-114.5" font-family="Helvetica,sans-Serif" font-size="10.00">&#45; log</text>
<text text-anchor="start" x="109" y="-103.5" font-family="Helvetica,sans-Serif" font-size="10.00">&#45; image</text>
<polyline fill="none" stroke="black" points="101,-96.5 209,-96.5 "/>
<text text-anchor="start" x="109" y="-84.5" font-family="Helvetica,sans-Serif" font-size="10.00">+ UserInterface()</text>
<text text-anchor="start" x="109" y="-73.5" font-family="Helvetica,sans-Serif" font-size="10.00">+ print()</text>
<text text-anchor="start" x="109" y="-62.5" font-family="Helvetica,sans-Serif" font-size="10.00">+ println()</text>
<text text-anchor="start" x="109" y="-51.5" font-family="Helvetica,sans-Serif" font-size="10.00">+ showImage()</text>
<text text-anchor="start" x="109" y="-40.5" font-family="Helvetica,sans-Serif" font-size="10.00">+ enable()</text>
<text text-anchor="start" x="109" y="-29.5" font-family="Helvetica,sans-Serif" font-size="10.00">+ actionPerformed()</text>
<text text-anchor="start" x="109" y="-18.5" font-family="Helvetica,sans-Serif" font-size="10.00">&#45; createGUI()</text>
<text text-anchor="start" x="109" y="-7.5" font-family="Helvetica,sans-Serif" font-size="10.00">&#45; processCommand()</text>
</a>
</g>
</g>
<!-- Node1&#45;&gt;Node6 -->
<g id="edge7" class="edge"><title>Node1&#45;&gt;Node6</title>
<path fill="none" stroke="#404040" d="M157.661,-216.857C155.448,-210.588 153.526,-204.274 152,-198 150.559,-192.074 149.512,-185.921 148.784,-179.684"/>
<polygon fill="none" stroke="#404040" points="148.776,-179.581 144.282,-173.941 147.76,-167.624 152.253,-173.264 148.776,-179.581"/>
<text text-anchor="middle" x="169.5" y="-189.5" font-family="Helvetica,sans-Serif" font-size="10.00"> &#45;engine</text>
</g>
<!-- Node2 -->
<g id="node2" class="node"><title>Node2</title>
<polygon fill="white" stroke="#bfbfbf" points="50,-538.5 50,-595.5 136,-595.5 136,-538.5 50,-538.5"/>
<text text-anchor="middle" x="93" y="-583.5" font-family="Helvetica,sans-Serif" font-size="10.00">Stack&lt; Room &gt;</text>
<polyline fill="none" stroke="#bfbfbf" points="50,-576.5 136,-576.5 "/>
<text text-anchor="middle" x="93" y="-564.5" font-family="Helvetica,sans-Serif" font-size="10.00"> </text>
<polyline fill="none" stroke="#bfbfbf" points="50,-557.5 136,-557.5 "/>
<text text-anchor="middle" x="93" y="-545.5" font-family="Helvetica,sans-Serif" font-size="10.00"> </text>
</g>
<!-- Node2&#45;&gt;Node1 -->
<g id="edge1" class="edge"><title>Node2&#45;&gt;Node1</title>
<path fill="none" stroke="#404040" d="M98.7266,-538.246C105.006,-511.133 116.57,-469.214 134,-436 138.71,-427.026 142.122,-426.256 148,-418 148.781,-416.904 149.563,-415.798 150.348,-414.686"/>
<polygon fill="none" stroke="#404040" points="150.584,-414.346 150.727,-407.136 157.436,-404.495 157.294,-411.705 150.584,-414.346"/>
<text text-anchor="middle" x="171.5" y="-439.5" font-family="Helvetica,sans-Serif" font-size="10.00"> &#45;previousRooms</text>
</g>
<!-- Node3 -->
<g id="node3" class="node"><title>Node3</title>
<g id="a_node3"><a xlink:href="classRoom.html" target="_top" xlink:title="{Room\n|&#45; description\l&#45; imageName\l|+ Room()\l+ Room()\l+ setExit()\l+ addItem()\l+ getContainedItems()\l+ getItem()\l+ hasItem()\l+ getShortDescription()\l+ getLongDescription()\l+ getHumanItemsList()\l+ getExit()\l+ getImageName()\l&#45; getExitString()\l}">
<polygon fill="white" stroke="black" points="154,-467 154,-667 272,-667 272,-467 154,-467"/>
<text text-anchor="middle" x="213" y="-655" font-family="Helvetica,sans-Serif" font-size="10.00">Room</text>
<polyline fill="none" stroke="black" points="154,-648 272,-648 "/>
<text text-anchor="start" x="162" y="-636" font-family="Helvetica,sans-Serif" font-size="10.00">&#45; description</text>
<text text-anchor="start" x="162" y="-625" font-family="Helvetica,sans-Serif" font-size="10.00">&#45; imageName</text>
<polyline fill="none" stroke="black" points="154,-618 272,-618 "/>
<text text-anchor="start" x="162" y="-606" font-family="Helvetica,sans-Serif" font-size="10.00">+ Room()</text>
<text text-anchor="start" x="162" y="-595" font-family="Helvetica,sans-Serif" font-size="10.00">+ Room()</text>
<text text-anchor="start" x="162" y="-584" font-family="Helvetica,sans-Serif" font-size="10.00">+ setExit()</text>
<text text-anchor="start" x="162" y="-573" font-family="Helvetica,sans-Serif" font-size="10.00">+ addItem()</text>
<text text-anchor="start" x="162" y="-562" font-family="Helvetica,sans-Serif" font-size="10.00">+ getContainedItems()</text>
<text text-anchor="start" x="162" y="-551" font-family="Helvetica,sans-Serif" font-size="10.00">+ getItem()</text>
<text text-anchor="start" x="162" y="-540" font-family="Helvetica,sans-Serif" font-size="10.00">+ hasItem()</text>
<text text-anchor="start" x="162" y="-529" font-family="Helvetica,sans-Serif" font-size="10.00">+ getShortDescription()</text>
<text text-anchor="start" x="162" y="-518" font-family="Helvetica,sans-Serif" font-size="10.00">+ getLongDescription()</text>
<text text-anchor="start" x="162" y="-507" font-family="Helvetica,sans-Serif" font-size="10.00">+ getHumanItemsList()</text>
<text text-anchor="start" x="162" y="-496" font-family="Helvetica,sans-Serif" font-size="10.00">+ getExit()</text>
<text text-anchor="start" x="162" y="-485" font-family="Helvetica,sans-Serif" font-size="10.00">+ getImageName()</text>
<text text-anchor="start" x="162" y="-474" font-family="Helvetica,sans-Serif" font-size="10.00">&#45; getExitString()</text>
</a>
</g>
</g>
<!-- Node3&#45;&gt;Node1 -->
<g id="edge2" class="edge"><title>Node3&#45;&gt;Node1</title>
<path fill="none" stroke="#404040" d="M213,-466.915C213,-454.671 213,-442.089 213,-429.674"/>
<polygon fill="none" stroke="#404040" points="213,-429.333 209,-423.333 213,-417.333 217,-423.333 213,-429.333"/>
<text text-anchor="middle" x="244.5" y="-439.5" font-family="Helvetica,sans-Serif" font-size="10.00"> &#45;currentRoom</text>
</g>
<!-- Node4 -->
<g id="node4" class="node"><title>Node4</title>
<polygon fill="white" stroke="#bfbfbf" points="0,-727.5 0,-784.5 128,-784.5 128,-727.5 0,-727.5"/>
<text text-anchor="middle" x="64" y="-772.5" font-family="Helvetica,sans-Serif" font-size="10.00">HashMap&lt; String, Item &gt;</text>
<polyline fill="none" stroke="#bfbfbf" points="0,-765.5 128,-765.5 "/>
<text text-anchor="middle" x="64" y="-753.5" font-family="Helvetica,sans-Serif" font-size="10.00"> </text>
<polyline fill="none" stroke="#bfbfbf" points="0,-746.5 128,-746.5 "/>
<text text-anchor="middle" x="64" y="-734.5" font-family="Helvetica,sans-Serif" font-size="10.00"> </text>
</g>
<!-- Node4&#45;&gt;Node3 -->
<g id="edge3" class="edge"><title>Node4&#45;&gt;Node3</title>
<path fill="none" stroke="#404040" d="M91.7666,-727.374C107.959,-710.738 128.397,-688.81 145,-668 145.46,-667.423 145.921,-666.843 146.381,-666.26"/>
<polygon fill="none" stroke="#404040" points="146.504,-666.102 147.004,-658.908 153.837,-656.602 153.337,-663.796 146.504,-666.102"/>
<text text-anchor="middle" x="165.5" y="-689.5" font-family="Helvetica,sans-Serif" font-size="10.00"> &#45;containedItems</text>
</g>
<!-- Node5 -->
<g id="node5" class="node"><title>Node5</title>
<polygon fill="white" stroke="#bfbfbf" points="146,-727.5 146,-784.5 280,-784.5 280,-727.5 146,-727.5"/>
<text text-anchor="middle" x="213" y="-772.5" font-family="Helvetica,sans-Serif" font-size="10.00">HashMap&lt; String, Room &gt;</text>
<polyline fill="none" stroke="#bfbfbf" points="146,-765.5 280,-765.5 "/>
<text text-anchor="middle" x="213" y="-753.5" font-family="Helvetica,sans-Serif" font-size="10.00"> </text>
<polyline fill="none" stroke="#bfbfbf" points="146,-746.5 280,-746.5 "/>
<text text-anchor="middle" x="213" y="-734.5" font-family="Helvetica,sans-Serif" font-size="10.00"> </text>
</g>
<!-- Node5&#45;&gt;Node3 -->
<g id="edge4" class="edge"><title>Node5&#45;&gt;Node3</title>
<path fill="none" stroke="#404040" d="M213,-727.408C213,-714.137 213,-697.261 213,-679.485"/>
<polygon fill="none" stroke="#404040" points="213,-679.386 209,-673.386 213,-667.386 217,-673.386 213,-679.386"/>
<text text-anchor="middle" x="227" y="-689.5" font-family="Helvetica,sans-Serif" font-size="10.00"> &#45;exits</text>
</g>
<!-- Node6&#45;&gt;Node1 -->
<g id="edge5" class="edge"><title>Node6&#45;&gt;Node1</title>
<path fill="none" stroke="#404040" d="M185.747,-167.589C187.649,-173.781 189.427,-179.966 191,-186 192.624,-192.23 194.157,-198.66 195.599,-205.171"/>
<polygon fill="none" stroke="#404040" points="195.608,-205.213 200.765,-210.253 198.096,-216.952 192.939,-211.912 195.608,-205.213"/>
<text text-anchor="middle" x="203.5" y="-189.5" font-family="Helvetica,sans-Serif" font-size="10.00"> &#45;gui</text>
</g>
<!-- Node7 -->
<g id="node7" class="node"><title>Node7</title>
<polygon fill="white" stroke="#bfbfbf" points="60.5,-288.5 60.5,-345.5 139.5,-345.5 139.5,-288.5 60.5,-288.5"/>
<text text-anchor="middle" x="100" y="-333.5" font-family="Helvetica,sans-Serif" font-size="10.00">ActionListener</text>
<polyline fill="none" stroke="#bfbfbf" points="60.5,-326.5 139.5,-326.5 "/>
<text text-anchor="middle" x="100" y="-314.5" font-family="Helvetica,sans-Serif" font-size="10.00"> </text>
<polyline fill="none" stroke="#bfbfbf" points="60.5,-307.5 139.5,-307.5 "/>
<text text-anchor="middle" x="100" y="-295.5" font-family="Helvetica,sans-Serif" font-size="10.00"> </text>
</g>
<!-- Node7&#45;&gt;Node6 -->
<g id="edge6" class="edge"><title>Node7&#45;&gt;Node6</title>
<path fill="none" stroke="midnightblue" d="M109.019,-278.121C116.143,-248.198 126.348,-205.337 135.335,-167.591"/>
<polygon fill="none" stroke="midnightblue" points="105.546,-277.597 106.634,-288.136 112.355,-279.219 105.546,-277.597"/>
</g>
<!-- Node8 -->
<g id="node8" class="node"><title>Node8</title>
<g id="a_node8"><a xlink:href="classParser.html" target="_top" xlink:title="{Parser\n||+ Parser()\l+ getCommand()\l+ showCommands()\l}">
<polygon fill="white" stroke="black" points="294.5,-527.5 294.5,-606.5 399.5,-606.5 399.5,-527.5 294.5,-527.5"/>
<text text-anchor="middle" x="347" y="-594.5" font-family="Helvetica,sans-Serif" font-size="10.00">Parser</text>
<polyline fill="none" stroke="black" points="294.5,-587.5 399.5,-587.5 "/>
<text text-anchor="middle" x="347" y="-575.5" font-family="Helvetica,sans-Serif" font-size="10.00"> </text>
<polyline fill="none" stroke="black" points="294.5,-568.5 399.5,-568.5 "/>
<text text-anchor="start" x="302.5" y="-556.5" font-family="Helvetica,sans-Serif" font-size="10.00">+ Parser()</text>
<text text-anchor="start" x="302.5" y="-545.5" font-family="Helvetica,sans-Serif" font-size="10.00">+ getCommand()</text>
<text text-anchor="start" x="302.5" y="-534.5" font-family="Helvetica,sans-Serif" font-size="10.00">+ showCommands()</text>
</a>
</g>
</g>
<!-- Node8&#45;&gt;Node1 -->
<g id="edge8" class="edge"><title>Node8&#45;&gt;Node1</title>
<path fill="none" stroke="#404040" d="M327.617,-527.389C314.451,-501.415 296.499,-466.479 280,-436 278.15,-432.582 276.259,-429.114 274.342,-425.617"/>
<polygon fill="none" stroke="#404040" points="274.316,-425.569 267.916,-422.245 268.523,-415.06 274.922,-418.383 274.316,-425.569"/>
<text text-anchor="middle" x="303" y="-439.5" font-family="Helvetica,sans-Serif" font-size="10.00"> &#45;parser</text>
</g>
<!-- Node9 -->
<g id="node9" class="node"><title>Node9</title>
<g id="a_node9"><a xlink:href="classCommandWords.html" target="_top" xlink:title="{CommandWords\n|&#45; knownCommands\l|+ CommandWords()\l+ isCommand()\l+ getCommandList()\l}">
<polygon fill="white" stroke="black" points="298,-716.5 298,-795.5 404,-795.5 404,-716.5 298,-716.5"/>
<text text-anchor="middle" x="351" y="-783.5" font-family="Helvetica,sans-Serif" font-size="10.00">CommandWords</text>
<polyline fill="none" stroke="black" points="298,-776.5 404,-776.5 "/>
<text text-anchor="start" x="306" y="-764.5" font-family="Helvetica,sans-Serif" font-size="10.00">&#45; knownCommands</text>
<polyline fill="none" stroke="black" points="298,-757.5 404,-757.5 "/>
<text text-anchor="start" x="306" y="-745.5" font-family="Helvetica,sans-Serif" font-size="10.00">+ CommandWords()</text>
<text text-anchor="start" x="306" y="-734.5" font-family="Helvetica,sans-Serif" font-size="10.00">+ isCommand()</text>
<text text-anchor="start" x="306" y="-723.5" font-family="Helvetica,sans-Serif" font-size="10.00">+ getCommandList()</text>
</a>
</g>
</g>
<!-- Node9&#45;&gt;Node8 -->
<g id="edge9" class="edge"><title>Node9&#45;&gt;Node8</title>
<path fill="none" stroke="#404040" d="M350.171,-716.253C349.568,-688.046 348.745,-649.573 348.089,-618.889"/>
<polygon fill="none" stroke="#404040" points="348.084,-618.694 343.957,-612.781 347.828,-606.697 351.955,-612.61 348.084,-618.694"/>
<text text-anchor="middle" x="376.5" y="-689.5" font-family="Helvetica,sans-Serif" font-size="10.00"> &#45;commands</text>
</g>
</g>
</svg>
        <g id="navigator" transform="translate(0 0)" fill="#404254">
                <rect fill="#f2f5e9" fill-opacity="0.5" stroke="#606060" stroke-width=".5" x="0" y="0" width="60" height="60"/>
                <use id="zoomplus" xlink:href="#zoomPlus" x="17" y="9" onmousedown="handleZoom(evt,'in')"/>
                <use id="zoomminus" xlink:href="#zoomMin" x="42" y="9" onmousedown="handleZoom(evt,'out')"/>
                <use id="reset" xlink:href="#resetDef" x="30" y="36" onmousedown="handleReset()"/>
                <g id="arrowUp" xlink:href="#dirArrow" transform="translate(30 24)" onmousedown="handlePan(0,-1)">
                  <use xlink:href="#rim" fill="#404040">
                        <set attributeName="fill" to="#808080" begin="arrowUp.mouseover" end="arrowUp.mouseout"/>
                  </use>
                  <path fill="none" stroke="white" stroke-width="1.5" d="M0,-3.0v7 M-2.5,-0.5L0,-3.0L2.5,-0.5"/>
                </g>
                <g id="arrowRight" xlink:href="#dirArrow" transform="rotate(90) translate(36 -43)" onmousedown="handlePan(1,0)">
                  <use xlink:href="#rim" fill="#404040">
                        <set attributeName="fill" to="#808080" begin="arrowRight.mouseover" end="arrowRight.mouseout"/>
                  </use>
                  <path fill="none" stroke="white" stroke-width="1.5" d="M0,-3.0v7 M-2.5,-0.5L0,-3.0L2.5,-0.5"/>
                </g>
                <g id="arrowDown" xlink:href="#dirArrow" transform="rotate(180) translate(-30 -48)" onmousedown="handlePan(0,1)">
                  <use xlink:href="#rim" fill="#404040">
                        <set attributeName="fill" to="#808080" begin="arrowDown.mouseover" end="arrowDown.mouseout"/>
                  </use>
                  <path fill="none" stroke="white" stroke-width="1.5" d="M0,-3.0v7 M-2.5,-0.5L0,-3.0L2.5,-0.5"/>
                </g>
                <g id="arrowLeft" xlink:href="#dirArrow" transform="rotate(270) translate(-36 17)" onmousedown="handlePan(-1,0)">
                  <use xlink:href="#rim" fill="#404040">
                        <set attributeName="fill" to="#808080" begin="arrowLeft.mouseover" end="arrowLeft.mouseout"/>
                  </use>
                  <path fill="none" stroke="white" stroke-width="1.5" d="M0,-3.0v7 M-2.5,-0.5L0,-3.0L2.5,-0.5"/>
                </g>
        </g>
        <svg viewBox="0 0 15 15" width="100%" height="30px" preserveAspectRatio="xMaxYMin meet">
         <g id="arrow_out" transform="scale(0.3 0.3)">
          <a xlink:href="classGameEngine__coll__graph_org.svg" target="_base">
           <rect id="button" ry="5" rx="5" y="6" x="6" height="38" width="38"
                fill="#f2f5e9" fill-opacity="0.5" stroke="#606060" stroke-width="1.0"/>
           <path id="arrow"
             d="M 11.500037,31.436501 C 11.940474,20.09759 22.043105,11.32322 32.158766,21.979434 L 37.068811,17.246167 C 37.068811,17.246167 37.088388,32 37.088388,32 L 22.160133,31.978069 C 22.160133,31.978069 26.997745,27.140456 26.997745,27.140456 C 18.528582,18.264221 13.291696,25.230495 11.500037,31.436501 z"
             style="fill:#404040;"/>
          </a>
         </g>
        </svg>
</svg>
