<?xml version="1.0" encoding="UTF-8" standalone="no"?>
<!DOCTYPE svg PUBLIC "-//W3C//DTD SVG 1.1//EN"
 "http://www.w3.org/Graphics/SVG/1.1/DTD/svg11.dtd">
<!-- Generated by graphviz version 2.36.0 (20140111.2315)
 -->
<!-- Title: pkg_world.Room.getLongDescription Pages: 1 -->
<svg width="614pt" height="104pt"
 viewBox="0.00 0.00 614.00 104.00" xmlns="http://www.w3.org/2000/svg" xmlns:xlink="http://www.w3.org/1999/xlink">
<g id="graph0" class="graph" transform="scale(1 1) rotate(0) translate(4 100)">
<title>pkg_world.Room.getLongDescription</title>
<polygon fill="white" stroke="none" points="-4,4 -4,-100 610,-100 610,4 -4,4"/>
<!-- Node1 -->
<g id="node1" class="node"><title>Node1</title>
<polygon fill="#bfbfbf" stroke="black" points="0.5,-38.5 0.5,-57.5 177.5,-57.5 177.5,-38.5 0.5,-38.5"/>
<text text-anchor="middle" x="89" y="-45.5" font-family="Helvetica,sans-Serif" font-size="10.00">pkg_world.Room.getLongDescription</text>
</g>
<!-- Node2 -->
<g id="node2" class="node"><title>Node2</title>
<g id="a_node2"><a xlink:href="classpkg__world_1_1Room.html#ac712fe83b1f0d11c82ebea83f893d0f2" target="_top" xlink:title="Return the available exits in a human readable format. ">
<polygon fill="white" stroke="black" points="240.5,-76.5 240.5,-95.5 389.5,-95.5 389.5,-76.5 240.5,-76.5"/>
<text text-anchor="middle" x="315" y="-83.5" font-family="Helvetica,sans-Serif" font-size="10.00">pkg_world.Room.getExitString</text>
</a>
</g>
</g>
<!-- Node1&#45;&gt;Node2 -->
<g id="edge1" class="edge"><title>Node1&#45;&gt;Node2</title>
<path fill="none" stroke="midnightblue" d="M146.236,-57.54C176.991,-62.7574 215.278,-69.2525 247.507,-74.72"/>
<polygon fill="midnightblue" stroke="midnightblue" points="247.297,-78.2342 257.741,-76.4561 248.468,-71.3328 247.297,-78.2342"/>
</g>
<!-- Node3 -->
<g id="node3" class="node"><title>Node3</title>
<g id="a_node3"><a xlink:href="classpkg__world_1_1Room.html#a1ddbdc5022f7f494ac6250ca3f42672c" target="_top" xlink:title="Return a human readable list of the characters in the room. ">
<polygon fill="white" stroke="black" points="214,-38.5 214,-57.5 416,-57.5 416,-38.5 214,-38.5"/>
<text text-anchor="middle" x="315" y="-45.5" font-family="Helvetica,sans-Serif" font-size="10.00">pkg_world.Room.getHumanCharactersList</text>
</a>
</g>
</g>
<!-- Node1&#45;&gt;Node3 -->
<g id="edge2" class="edge"><title>Node1&#45;&gt;Node3</title>
<path fill="none" stroke="midnightblue" d="M177.567,-48C186.122,-48 194.876,-48 203.618,-48"/>
<polygon fill="midnightblue" stroke="midnightblue" points="203.861,-51.5001 213.861,-48 203.861,-44.5001 203.861,-51.5001"/>
</g>
<!-- Node5 -->
<g id="node5" class="node"><title>Node5</title>
<g id="a_node5"><a xlink:href="classpkg__world_1_1Room.html#a3ea436ad00d00484b429992ef94535ac" target="_top" xlink:title="Return a human readable list of the items in the room. ">
<polygon fill="white" stroke="black" points="225.5,-0.5 225.5,-19.5 404.5,-19.5 404.5,-0.5 225.5,-0.5"/>
<text text-anchor="middle" x="315" y="-7.5" font-family="Helvetica,sans-Serif" font-size="10.00">pkg_world.Room.getHumanItemsList</text>
</a>
</g>
</g>
<!-- Node1&#45;&gt;Node5 -->
<g id="edge4" class="edge"><title>Node1&#45;&gt;Node5</title>
<path fill="none" stroke="midnightblue" d="M146.236,-38.46C176.991,-33.2426 215.278,-26.7475 247.507,-21.28"/>
<polygon fill="midnightblue" stroke="midnightblue" points="248.468,-24.6672 257.741,-19.5439 247.297,-17.7658 248.468,-24.6672"/>
</g>
<!-- Node4 -->
<g id="node4" class="node"><title>Node4</title>
<g id="a_node4"><a xlink:href="classpkg__world_1_1Room.html#a178f912d90e1eb358fe60f7e5e708058" target="_top" xlink:title="Return a human readable list of the given Set. ">
<polygon fill="white" stroke="black" points="452,-19.5 452,-38.5 606,-38.5 606,-19.5 452,-19.5"/>
<text text-anchor="middle" x="529" y="-26.5" font-family="Helvetica,sans-Serif" font-size="10.00">pkg_world.Room.getHumanList</text>
</a>
</g>
</g>
<!-- Node3&#45;&gt;Node4 -->
<g id="edge3" class="edge"><title>Node3&#45;&gt;Node4</title>
<path fill="none" stroke="midnightblue" d="M416.102,-39.0286C424.639,-38.2635 433.227,-37.4938 441.643,-36.7395"/>
<polygon fill="midnightblue" stroke="midnightblue" points="442.162,-40.2072 451.809,-35.8284 441.537,-33.2351 442.162,-40.2072"/>
</g>
<!-- Node5&#45;&gt;Node4 -->
<g id="edge5" class="edge"><title>Node5&#45;&gt;Node4</title>
<path fill="none" stroke="midnightblue" d="M404.679,-17.9476C416.912,-19.044 429.461,-20.1686 441.651,-21.2611"/>
<polygon fill="midnightblue" stroke="midnightblue" points="441.518,-24.7632 451.791,-22.1699 442.143,-17.7912 441.518,-24.7632"/>
</g>
</g>
</svg>
