<?xml version="1.0" encoding="UTF-8" standalone="no"?>
<!DOCTYPE svg PUBLIC "-//W3C//DTD SVG 1.1//EN"
 "http://www.w3.org/Graphics/SVG/1.1/DTD/svg11.dtd">
<!-- Generated by graphviz version 2.36.0 (20140111.2315)
 -->
<!-- Title: GameEngine.lookAround Pages: 1 -->
<svg width="468pt" height="123pt"
 viewBox="0.00 0.00 468.00 123.00" xmlns="http://www.w3.org/2000/svg" xmlns:xlink="http://www.w3.org/1999/xlink">
<g id="graph0" class="graph" transform="scale(1 1) rotate(0) translate(4 119)">
<title>GameEngine.lookAround</title>
<polygon fill="white" stroke="none" points="-4,4 -4,-119 464,-119 464,4 -4,4"/>
<!-- Node1 -->
<g id="node1" class="node"><title>Node1</title>
<polygon fill="#bfbfbf" stroke="black" points="0.5,-38.5 0.5,-57.5 125.5,-57.5 125.5,-38.5 0.5,-38.5"/>
<text text-anchor="middle" x="63" y="-45.5" font-family="Helvetica,sans-Serif" font-size="10.00">GameEngine.lookAround</text>
</g>
<!-- Node2 -->
<g id="node2" class="node"><title>Node2</title>
<g id="a_node2"><a xlink:href="classRoom.html#a23a25854d7544fb0b41190a4d6bd1322" target="_top" xlink:title="Room.getLongDescription">
<polygon fill="white" stroke="black" points="162,-76.5 162,-95.5 292,-95.5 292,-76.5 162,-76.5"/>
<text text-anchor="middle" x="227" y="-83.5" font-family="Helvetica,sans-Serif" font-size="10.00">Room.getLongDescription</text>
</a>
</g>
</g>
<!-- Node1&#45;&gt;Node2 -->
<g id="edge1" class="edge"><title>Node1&#45;&gt;Node2</title>
<path fill="none" stroke="midnightblue" d="M104.879,-57.589C126.353,-62.6261 152.86,-68.8438 175.597,-74.1771"/>
<polygon fill="midnightblue" stroke="midnightblue" points="174.879,-77.6037 185.415,-76.4799 176.478,-70.7887 174.879,-77.6037"/>
</g>
<!-- Node5 -->
<g id="node5" class="node"><title>Node5</title>
<g id="a_node5"><a xlink:href="classRoom.html#ad779b367b26018c9f343ca3044c4b54f" target="_top" xlink:title="Room.hasItem">
<polygon fill="white" stroke="black" points="186.5,-38.5 186.5,-57.5 267.5,-57.5 267.5,-38.5 186.5,-38.5"/>
<text text-anchor="middle" x="227" y="-45.5" font-family="Helvetica,sans-Serif" font-size="10.00">Room.hasItem</text>
</a>
</g>
</g>
<!-- Node1&#45;&gt;Node5 -->
<g id="edge4" class="edge"><title>Node1&#45;&gt;Node5</title>
<path fill="none" stroke="midnightblue" d="M125.707,-48C142.431,-48 160.32,-48 176.291,-48"/>
<polygon fill="midnightblue" stroke="midnightblue" points="176.477,-51.5001 186.477,-48 176.477,-44.5001 176.477,-51.5001"/>
</g>
<!-- Node6 -->
<g id="node6" class="node"><title>Node6</title>
<g id="a_node6"><a xlink:href="classUserInterface.html#a79f606b4b1f5d1523e50eea00039ed94" target="_top" xlink:title="UserInterface.println">
<polygon fill="white" stroke="black" points="174.5,-0.5 174.5,-19.5 279.5,-19.5 279.5,-0.5 174.5,-0.5"/>
<text text-anchor="middle" x="227" y="-7.5" font-family="Helvetica,sans-Serif" font-size="10.00">UserInterface.println</text>
</a>
</g>
</g>
<!-- Node1&#45;&gt;Node6 -->
<g id="edge5" class="edge"><title>Node1&#45;&gt;Node6</title>
<path fill="none" stroke="midnightblue" d="M104.879,-38.411C126.353,-33.3739 152.86,-27.1562 175.597,-21.8229"/>
<polygon fill="midnightblue" stroke="midnightblue" points="176.478,-25.2113 185.415,-19.5201 174.879,-18.3963 176.478,-25.2113"/>
</g>
<!-- Node3 -->
<g id="node3" class="node"><title>Node3</title>
<g id="a_node3"><a xlink:href="classRoom.html#ab8a87ad306f77a936873094b479bcde8" target="_top" xlink:title="Room.getHumanItemsList">
<polygon fill="white" stroke="black" points="328.5,-95.5 328.5,-114.5 459.5,-114.5 459.5,-95.5 328.5,-95.5"/>
<text text-anchor="middle" x="394" y="-102.5" font-family="Helvetica,sans-Serif" font-size="10.00">Room.getHumanItemsList</text>
</a>
</g>
</g>
<!-- Node2&#45;&gt;Node3 -->
<g id="edge2" class="edge"><title>Node2&#45;&gt;Node3</title>
<path fill="none" stroke="midnightblue" d="M292.266,-93.4003C300.786,-94.3814 309.579,-95.3939 318.256,-96.3931"/>
<polygon fill="midnightblue" stroke="midnightblue" points="318.032,-99.8903 328.367,-97.5574 318.833,-92.9363 318.032,-99.8903"/>
</g>
<!-- Node4 -->
<g id="node4" class="node"><title>Node4</title>
<g id="a_node4"><a xlink:href="classRoom.html#a2ccc382c07890a9827be232767eb98a0" target="_top" xlink:title="Room.getExitString">
<polygon fill="white" stroke="black" points="343,-57.5 343,-76.5 445,-76.5 445,-57.5 343,-57.5"/>
<text text-anchor="middle" x="394" y="-64.5" font-family="Helvetica,sans-Serif" font-size="10.00">Room.getExitString</text>
</a>
</g>
</g>
<!-- Node2&#45;&gt;Node4 -->
<g id="edge3" class="edge"><title>Node2&#45;&gt;Node4</title>
<path fill="none" stroke="midnightblue" d="M292.266,-78.5997C305.678,-77.0553 319.766,-75.433 333.016,-73.9073"/>
<polygon fill="midnightblue" stroke="midnightblue" points="333.425,-77.3833 342.959,-72.7623 332.624,-70.4293 333.425,-77.3833"/>
</g>
</g>
</svg>
