<?xml version="1.0" encoding="UTF-8" standalone="no"?>
<!DOCTYPE svg PUBLIC "-//W3C//DTD SVG 1.1//EN"
 "http://www.w3.org/Graphics/SVG/1.1/DTD/svg11.dtd">
<!-- Generated by graphviz version 2.36.0 (20140111.2315)
 -->
<!-- Title: pkg_commands.Command.hasMessage Pages: 1 -->
<svg width="838pt" height="115pt"
 viewBox="0.00 0.00 838.00 115.00" xmlns="http://www.w3.org/2000/svg" xmlns:xlink="http://www.w3.org/1999/xlink">
<g id="graph0" class="graph" transform="scale(1 1) rotate(0) translate(4 111)">
<title>pkg_commands.Command.hasMessage</title>
<polygon fill="white" stroke="none" points="-4,4 -4,-111 834,-111 834,4 -4,4"/>
<!-- Node1 -->
<g id="node1" class="node"><title>Node1</title>
<polygon fill="#bfbfbf" stroke="black" points="0,-44 0,-74 152,-74 152,-44 0,-44"/>
<text text-anchor="start" x="8" y="-62" font-family="Helvetica,sans-Serif" font-size="10.00">pkg_commands.Command.has</text>
<text text-anchor="middle" x="76" y="-51" font-family="Helvetica,sans-Serif" font-size="10.00">Message</text>
</g>
<!-- Node2 -->
<g id="node2" class="node"><title>Node2</title>
<g id="a_node2"><a xlink:href="classpkg__commands_1_1GoCommand.html#a210afbc5f3ef34d3ad5759d853c8f8c2" target="_top" xlink:title="Go to the Room without checking. ">
<polygon fill="white" stroke="black" points="188,-44 188,-74 348,-74 348,-44 188,-44"/>
<text text-anchor="start" x="196" y="-62" font-family="Helvetica,sans-Serif" font-size="10.00">pkg_commands.GoCommand.go</text>
<text text-anchor="middle" x="268" y="-51" font-family="Helvetica,sans-Serif" font-size="10.00">RoomNoCheck</text>
</a>
</g>
</g>
<!-- Node1&#45;&gt;Node2 -->
<g id="edge1" class="edge"><title>Node1&#45;&gt;Node2</title>
<path fill="none" stroke="midnightblue" d="M162.345,-59C170.807,-59 179.372,-59 187.769,-59"/>
<polygon fill="midnightblue" stroke="midnightblue" points="162.093,-55.5001 152.093,-59 162.093,-62.5001 162.093,-55.5001"/>
</g>
<!-- Node3 -->
<g id="node3" class="node"><title>Node3</title>
<g id="a_node3"><a xlink:href="classpkg__commands_1_1BeamerCommand.html#a2b6c04242d443d4ff36f255b06ce14be" target="_top" xlink:title="Teleport the player to the remembered room. ">
<polygon fill="white" stroke="black" points="384.5,-87.5 384.5,-106.5 587.5,-106.5 587.5,-87.5 384.5,-87.5"/>
<text text-anchor="middle" x="486" y="-94.5" font-family="Helvetica,sans-Serif" font-size="10.00">pkg_commands.BeamerCommand.teleport</text>
</a>
</g>
</g>
<!-- Node2&#45;&gt;Node3 -->
<g id="edge2" class="edge"><title>Node2&#45;&gt;Node3</title>
<path fill="none" stroke="midnightblue" d="M358.281,-74.7068C382.877,-79.034 408.81,-83.5962 430.764,-87.4585"/>
<polygon fill="midnightblue" stroke="midnightblue" points="358.659,-71.2197 348.204,-72.934 357.446,-78.1138 358.659,-71.2197"/>
</g>
<!-- Node5 -->
<g id="node5" class="node"><title>Node5</title>
<g id="a_node5"><a xlink:href="classpkg__commands_1_1GoCommand.html#a82e9a64a0fac612f788060a90c83f9b1" target="_top" xlink:title="Make the player go to the Room through it&#39;s direction in the parameter field. ">
<polygon fill="white" stroke="black" points="635,-27.5 635,-46.5 819,-46.5 819,-27.5 635,-27.5"/>
<text text-anchor="middle" x="727" y="-34.5" font-family="Helvetica,sans-Serif" font-size="10.00">pkg_commands.GoCommand.execute</text>
</a>
</g>
</g>
<!-- Node2&#45;&gt;Node5 -->
<g id="edge4" class="edge"><title>Node2&#45;&gt;Node5</title>
<path fill="none" stroke="midnightblue" d="M358.118,-54.7099C437.953,-50.8666 554.521,-45.255 634.943,-41.3835"/>
<polygon fill="midnightblue" stroke="midnightblue" points="357.902,-51.2161 348.082,-55.193 358.238,-58.208 357.902,-51.2161"/>
</g>
<!-- Node6 -->
<g id="node6" class="node"><title>Node6</title>
<g id="a_node6"><a xlink:href="classpkg__commands_1_1GoCommand.html#acbf1aa81fa5b1aef7cafb8b4e3ace3a9" target="_top" xlink:title="Check if the wanted Room is connected to the current Room and go to this room. ">
<polygon fill="white" stroke="black" points="406,-0 406,-30 566,-30 566,-0 406,-0"/>
<text text-anchor="start" x="414" y="-18" font-family="Helvetica,sans-Serif" font-size="10.00">pkg_commands.GoCommand.go</text>
<text text-anchor="middle" x="486" y="-7" font-family="Helvetica,sans-Serif" font-size="10.00">RoomCheck</text>
</a>
</g>
</g>
<!-- Node2&#45;&gt;Node6 -->
<g id="edge5" class="edge"><title>Node2&#45;&gt;Node6</title>
<path fill="none" stroke="midnightblue" d="M352.709,-41.9482C372.007,-38.0171 392.396,-33.8638 411.235,-30.0262"/>
<polygon fill="midnightblue" stroke="midnightblue" points="351.831,-38.5551 342.731,-43.9808 353.228,-45.4142 351.831,-38.5551"/>
</g>
<!-- Node4 -->
<g id="node4" class="node"><title>Node4</title>
<g id="a_node4"><a xlink:href="classpkg__commands_1_1BeamerCommand.html#a139dc852e180cabd8af15cfed37dcf0e" target="_top" xlink:title="Teleport to the remembered room or remember a room. ">
<polygon fill="white" stroke="black" points="624.5,-87.5 624.5,-106.5 829.5,-106.5 829.5,-87.5 624.5,-87.5"/>
<text text-anchor="middle" x="727" y="-94.5" font-family="Helvetica,sans-Serif" font-size="10.00">pkg_commands.BeamerCommand.execute</text>
</a>
</g>
</g>
<!-- Node3&#45;&gt;Node4 -->
<g id="edge3" class="edge"><title>Node3&#45;&gt;Node4</title>
<path fill="none" stroke="midnightblue" d="M597.942,-97C606.731,-97 615.581,-97 624.303,-97"/>
<polygon fill="midnightblue" stroke="midnightblue" points="597.665,-93.5001 587.665,-97 597.665,-100.5 597.665,-93.5001"/>
</g>
<!-- Node6&#45;&gt;Node5 -->
<g id="edge6" class="edge"><title>Node6&#45;&gt;Node5</title>
<path fill="none" stroke="midnightblue" d="M576.443,-23.2333C595.566,-24.9935 615.787,-26.8549 634.969,-28.6206"/>
<polygon fill="midnightblue" stroke="midnightblue" points="576.53,-19.7266 566.252,-22.2951 575.889,-26.6971 576.53,-19.7266"/>
</g>
</g>
</svg>
