<?xml version="1.0" encoding="UTF-8" standalone="no"?>
<!DOCTYPE svg PUBLIC "-//W3C//DTD SVG 1.1//EN"
 "http://www.w3.org/Graphics/SVG/1.1/DTD/svg11.dtd">
<!-- Generated by graphviz version 2.36.0 (20140111.2315)
 -->
<!-- Title: pkg_world.Room.getHumanList Pages: 1 -->
<svg width="614pt" height="66pt"
 viewBox="0.00 0.00 614.00 66.00" xmlns="http://www.w3.org/2000/svg" xmlns:xlink="http://www.w3.org/1999/xlink">
<g id="graph0" class="graph" transform="scale(1 1) rotate(0) translate(4 62)">
<title>pkg_world.Room.getHumanList</title>
<polygon fill="white" stroke="none" points="-4,4 -4,-62 610,-62 610,4 -4,4"/>
<!-- Node1 -->
<g id="node1" class="node"><title>Node1</title>
<polygon fill="#bfbfbf" stroke="black" points="0,-19.5 0,-38.5 154,-38.5 154,-19.5 0,-19.5"/>
<text text-anchor="middle" x="77" y="-26.5" font-family="Helvetica,sans-Serif" font-size="10.00">pkg_world.Room.getHumanList</text>
</g>
<!-- Node2 -->
<g id="node2" class="node"><title>Node2</title>
<g id="a_node2"><a xlink:href="classpkg__world_1_1Room.html#a1ddbdc5022f7f494ac6250ca3f42672c" target="_top" xlink:title="Return a human readable list of the characters in the room. ">
<polygon fill="white" stroke="black" points="190,-38.5 190,-57.5 392,-57.5 392,-38.5 190,-38.5"/>
<text text-anchor="middle" x="291" y="-45.5" font-family="Helvetica,sans-Serif" font-size="10.00">pkg_world.Room.getHumanCharactersList</text>
</a>
</g>
</g>
<!-- Node1&#45;&gt;Node2 -->
<g id="edge1" class="edge"><title>Node1&#45;&gt;Node2</title>
<path fill="none" stroke="midnightblue" d="M164.336,-36.7376C172.696,-37.4869 181.224,-38.2512 189.704,-39.0112"/>
<polygon fill="midnightblue" stroke="midnightblue" points="164.51,-33.2393 154.237,-35.8326 163.885,-40.2114 164.51,-33.2393"/>
</g>
<!-- Node4 -->
<g id="node4" class="node"><title>Node4</title>
<g id="a_node4"><a xlink:href="classpkg__world_1_1Room.html#a3ea436ad00d00484b429992ef94535ac" target="_top" xlink:title="Return a human readable list of the items in the room. ">
<polygon fill="white" stroke="black" points="201.5,-0.5 201.5,-19.5 380.5,-19.5 380.5,-0.5 201.5,-0.5"/>
<text text-anchor="middle" x="291" y="-7.5" font-family="Helvetica,sans-Serif" font-size="10.00">pkg_world.Room.getHumanItemsList</text>
</a>
</g>
</g>
<!-- Node1&#45;&gt;Node4 -->
<g id="edge3" class="edge"><title>Node1&#45;&gt;Node4</title>
<path fill="none" stroke="midnightblue" d="M164.401,-21.2565C176.62,-20.1614 189.198,-19.0341 201.456,-17.9355"/>
<polygon fill="midnightblue" stroke="midnightblue" points="163.885,-17.7886 154.237,-22.1674 164.51,-24.7607 163.885,-17.7886"/>
</g>
<!-- Node3 -->
<g id="node3" class="node"><title>Node3</title>
<g id="a_node3"><a xlink:href="classpkg__world_1_1Room.html#acc8ee9123c9a77428c1e66fbba34aeac" target="_top" xlink:title="Return the description of the room, the available exits plus the items in the room if any...">
<polygon fill="white" stroke="black" points="428.5,-19.5 428.5,-38.5 605.5,-38.5 605.5,-19.5 428.5,-19.5"/>
<text text-anchor="middle" x="517" y="-26.5" font-family="Helvetica,sans-Serif" font-size="10.00">pkg_world.Room.getLongDescription</text>
</a>
</g>
</g>
<!-- Node2&#45;&gt;Node3 -->
<g id="edge2" class="edge"><title>Node2&#45;&gt;Node3</title>
<path fill="none" stroke="midnightblue" d="M402.361,-38.639C411.027,-37.904 419.706,-37.1678 428.19,-36.4482"/>
<polygon fill="midnightblue" stroke="midnightblue" points="401.875,-35.1676 392.207,-39.5003 402.467,-42.1425 401.875,-35.1676"/>
</g>
<!-- Node4&#45;&gt;Node3 -->
<g id="edge4" class="edge"><title>Node4&#45;&gt;Node3</title>
<path fill="none" stroke="midnightblue" d="M390.588,-18.3624C403.205,-19.4326 416.053,-20.5224 428.479,-21.5763"/>
<polygon fill="midnightblue" stroke="midnightblue" points="390.791,-14.8671 380.531,-17.5093 390.199,-21.8421 390.791,-14.8671"/>
</g>
</g>
</svg>
