<?xml version="1.0" encoding="UTF-8" standalone="no"?>
<!DOCTYPE svg PUBLIC "-//W3C//DTD SVG 1.1//EN"
 "http://www.w3.org/Graphics/SVG/1.1/DTD/svg11.dtd">
<!-- Generated by graphviz version 2.36.0 (20140111.2315)
 -->
<!-- Title: Command Pages: 1 -->
<svg width="1180pt" height="400pt"
 viewBox="0.00 0.00 1180.00 400.00" xmlns="http://www.w3.org/2000/svg" xmlns:xlink="http://www.w3.org/1999/xlink">
<g id="graph0" class="graph" transform="scale(1 1) rotate(0) translate(4 396)">
<title>Command</title>
<polygon fill="white" stroke="none" points="-4,4 -4,-396 1176,-396 1176,4 -4,4"/>
<!-- Node1 -->
<g id="node1" class="node"><title>Node1</title>
<polygon fill="#bfbfbf" stroke="black" points="544,-257 544,-391 636,-391 636,-257 544,-257"/>
<text text-anchor="middle" x="590" y="-379" font-family="Helvetica,sans-Serif" font-size="10.00">Command</text>
<polyline fill="none" stroke="black" points="544,-372 636,-372 "/>
<text text-anchor="start" x="552" y="-360" font-family="Helvetica,sans-Serif" font-size="10.00">&#45; parameter</text>
<text text-anchor="start" x="552" y="-349" font-family="Helvetica,sans-Serif" font-size="10.00">&#45; message</text>
<polyline fill="none" stroke="black" points="544,-342 636,-342 "/>
<text text-anchor="start" x="552" y="-330" font-family="Helvetica,sans-Serif" font-size="10.00">+ getParameter()</text>
<text text-anchor="start" x="552" y="-319" font-family="Helvetica,sans-Serif" font-size="10.00">+ setParameter()</text>
<text text-anchor="start" x="552" y="-308" font-family="Helvetica,sans-Serif" font-size="10.00">+ hasParameter()</text>
<text text-anchor="start" x="552" y="-297" font-family="Helvetica,sans-Serif" font-size="10.00">+ getMessage()</text>
<text text-anchor="start" x="552" y="-286" font-family="Helvetica,sans-Serif" font-size="10.00">+ hasMessage()</text>
<text text-anchor="start" x="552" y="-275" font-family="Helvetica,sans-Serif" font-size="10.00">+ execute()</text>
<text text-anchor="start" x="552" y="-264" font-family="Helvetica,sans-Serif" font-size="10.00"># setMessage()</text>
</g>
<!-- Node2 -->
<g id="node2" class="node"><title>Node2</title>
<g id="a_node2"><a xlink:href="classCreditsCommand.html" target="_top" xlink:title="class CreditsCommand used to print the credits of the game ">
<polygon fill="white" stroke="black" points="0,-140 0,-208 108,-208 108,-140 0,-140"/>
<text text-anchor="middle" x="54" y="-196" font-family="Helvetica,sans-Serif" font-size="10.00">CreditsCommand</text>
<polyline fill="none" stroke="black" points="0,-189 108,-189 "/>
<text text-anchor="middle" x="54" y="-177" font-family="Helvetica,sans-Serif" font-size="10.00"> </text>
<polyline fill="none" stroke="black" points="0,-170 108,-170 "/>
<text text-anchor="start" x="8" y="-158" font-family="Helvetica,sans-Serif" font-size="10.00">+ CreditsCommand()</text>
<text text-anchor="start" x="8" y="-147" font-family="Helvetica,sans-Serif" font-size="10.00">+ execute()</text>
</a>
</g>
</g>
<!-- Node1&#45;&gt;Node2 -->
<g id="edge1" class="edge"><title>Node1&#45;&gt;Node2</title>
<path fill="none" stroke="midnightblue" d="M533.647,-318.15C442.608,-308.711 259.038,-282.976 117,-220 109.75,-216.786 102.496,-212.663 95.6243,-208.221"/>
<polygon fill="none" stroke="midnightblue" points="533.451,-321.648 543.752,-319.169 534.154,-314.683 533.451,-321.648"/>
</g>
<!-- Node3 -->
<g id="node3" class="node"><title>Node3</title>
<g id="a_node3"><a xlink:href="classDropCommand.html" target="_top" xlink:title="class DropCommand used to make the player drop an Item ">
<polygon fill="white" stroke="black" points="126,-140 126,-208 224,-208 224,-140 126,-140"/>
<text text-anchor="middle" x="175" y="-196" font-family="Helvetica,sans-Serif" font-size="10.00">DropCommand</text>
<polyline fill="none" stroke="black" points="126,-189 224,-189 "/>
<text text-anchor="middle" x="175" y="-177" font-family="Helvetica,sans-Serif" font-size="10.00"> </text>
<polyline fill="none" stroke="black" points="126,-170 224,-170 "/>
<text text-anchor="start" x="134" y="-158" font-family="Helvetica,sans-Serif" font-size="10.00">+ DropCommand()</text>
<text text-anchor="start" x="134" y="-147" font-family="Helvetica,sans-Serif" font-size="10.00">+ execute()</text>
</a>
</g>
</g>
<!-- Node1&#45;&gt;Node3 -->
<g id="edge2" class="edge"><title>Node1&#45;&gt;Node3</title>
<path fill="none" stroke="midnightblue" d="M533.712,-313.6C461.234,-299.993 332.748,-270.715 233,-220 226.411,-216.65 219.83,-212.508 213.592,-208.105"/>
<polygon fill="none" stroke="midnightblue" points="533.52,-317.123 543.989,-315.494 534.79,-310.239 533.52,-317.123"/>
</g>
<!-- Node4 -->
<g id="node4" class="node"><title>Node4</title>
<g id="a_node4"><a xlink:href="classEatCommand.html" target="_top" xlink:title="class EatCommand used to make the player eat an object. ">
<polygon fill="white" stroke="black" points="242,-140 242,-208 334,-208 334,-140 242,-140"/>
<text text-anchor="middle" x="288" y="-196" font-family="Helvetica,sans-Serif" font-size="10.00">EatCommand</text>
<polyline fill="none" stroke="black" points="242,-189 334,-189 "/>
<text text-anchor="middle" x="288" y="-177" font-family="Helvetica,sans-Serif" font-size="10.00"> </text>
<polyline fill="none" stroke="black" points="242,-170 334,-170 "/>
<text text-anchor="start" x="250" y="-158" font-family="Helvetica,sans-Serif" font-size="10.00">+ EatCommand()</text>
<text text-anchor="start" x="250" y="-147" font-family="Helvetica,sans-Serif" font-size="10.00">+ execute()</text>
</a>
</g>
</g>
<!-- Node1&#45;&gt;Node4 -->
<g id="edge3" class="edge"><title>Node1&#45;&gt;Node4</title>
<path fill="none" stroke="midnightblue" d="M534.151,-304.692C482.857,-286.718 405.679,-256.698 344,-220 338.105,-216.492 332.158,-212.415 326.454,-208.174"/>
<polygon fill="none" stroke="midnightblue" points="533.14,-308.046 543.734,-308.016 535.433,-301.432 533.14,-308.046"/>
</g>
<!-- Node5 -->
<g id="node5" class="node"><title>Node5</title>
<g id="a_node5"><a xlink:href="classGoCommand.html" target="_top" xlink:title="class GoCommand used to make the player go to a given Room. ">
<polygon fill="white" stroke="black" points="352.5,-129 352.5,-219 461.5,-219 461.5,-129 352.5,-129"/>
<text text-anchor="middle" x="407" y="-207" font-family="Helvetica,sans-Serif" font-size="10.00">GoCommand</text>
<polyline fill="none" stroke="black" points="352.5,-200 461.5,-200 "/>
<text text-anchor="middle" x="407" y="-188" font-family="Helvetica,sans-Serif" font-size="10.00"> </text>
<polyline fill="none" stroke="black" points="352.5,-181 461.5,-181 "/>
<text text-anchor="start" x="360.5" y="-169" font-family="Helvetica,sans-Serif" font-size="10.00">+ GoCommand()</text>
<text text-anchor="start" x="360.5" y="-158" font-family="Helvetica,sans-Serif" font-size="10.00">+ execute()</text>
<text text-anchor="start" x="360.5" y="-147" font-family="Helvetica,sans-Serif" font-size="10.00"># goRoomCheck()</text>
<text text-anchor="start" x="360.5" y="-136" font-family="Helvetica,sans-Serif" font-size="10.00"># goRoomNoCheck()</text>
</a>
</g>
</g>
<!-- Node1&#45;&gt;Node5 -->
<g id="edge4" class="edge"><title>Node1&#45;&gt;Node5</title>
<path fill="none" stroke="midnightblue" d="M536.032,-279.354C512.582,-260.388 485.152,-238.205 461.627,-219.179"/>
<polygon fill="none" stroke="midnightblue" points="533.845,-282.086 543.821,-285.653 538.247,-276.644 533.845,-282.086"/>
</g>
<!-- Node8 -->
<g id="node8" class="node"><title>Node8</title>
<g id="a_node8"><a xlink:href="classHelpCommand.html" target="_top" xlink:title="class HelpCommand used to print the help ">
<polygon fill="white" stroke="black" points="479.5,-140 479.5,-208 576.5,-208 576.5,-140 479.5,-140"/>
<text text-anchor="middle" x="528" y="-196" font-family="Helvetica,sans-Serif" font-size="10.00">HelpCommand</text>
<polyline fill="none" stroke="black" points="479.5,-189 576.5,-189 "/>
<text text-anchor="start" x="487.5" y="-177" font-family="Helvetica,sans-Serif" font-size="10.00">&#45; helpCount</text>
<polyline fill="none" stroke="black" points="479.5,-170 576.5,-170 "/>
<text text-anchor="start" x="487.5" y="-158" font-family="Helvetica,sans-Serif" font-size="10.00">+ HelpCommand()</text>
<text text-anchor="start" x="487.5" y="-147" font-family="Helvetica,sans-Serif" font-size="10.00">+ execute()</text>
</a>
</g>
</g>
<!-- Node1&#45;&gt;Node8 -->
<g id="edge7" class="edge"><title>Node1&#45;&gt;Node8</title>
<path fill="none" stroke="midnightblue" d="M558.296,-247.32C552.558,-233.623 546.853,-220.003 541.966,-208.338"/>
<polygon fill="none" stroke="midnightblue" points="555.172,-248.921 562.264,-256.792 561.628,-246.216 555.172,-248.921"/>
</g>
<!-- Node9 -->
<g id="node9" class="node"><title>Node9</title>
<g id="a_node9"><a xlink:href="classInventoryCommand.html" target="_top" xlink:title="class InventoryCommand used to print the player&#39;s inventory ">
<polygon fill="white" stroke="black" points="594.5,-140 594.5,-208 711.5,-208 711.5,-140 594.5,-140"/>
<text text-anchor="middle" x="653" y="-196" font-family="Helvetica,sans-Serif" font-size="10.00">InventoryCommand</text>
<polyline fill="none" stroke="black" points="594.5,-189 711.5,-189 "/>
<text text-anchor="middle" x="653" y="-177" font-family="Helvetica,sans-Serif" font-size="10.00"> </text>
<polyline fill="none" stroke="black" points="594.5,-170 711.5,-170 "/>
<text text-anchor="start" x="602.5" y="-158" font-family="Helvetica,sans-Serif" font-size="10.00">+ InventoryCommand()</text>
<text text-anchor="start" x="602.5" y="-147" font-family="Helvetica,sans-Serif" font-size="10.00">+ execute()</text>
</a>
</g>
</g>
<!-- Node1&#45;&gt;Node9 -->
<g id="edge8" class="edge"><title>Node1&#45;&gt;Node9</title>
<path fill="none" stroke="midnightblue" d="M622.215,-247.32C628.046,-233.623 633.843,-220.003 638.809,-208.338"/>
<polygon fill="none" stroke="midnightblue" points="618.88,-246.22 618.183,-256.792 625.32,-248.962 618.88,-246.22"/>
</g>
<!-- Node10 -->
<g id="node10" class="node"><title>Node10</title>
<g id="a_node10"><a xlink:href="classLookCommand.html" target="_top" xlink:title="class LookCommand used to show information about the current Room or a given Item ...">
<polygon fill="white" stroke="black" points="730,-134.5 730,-213.5 828,-213.5 828,-134.5 730,-134.5"/>
<text text-anchor="middle" x="779" y="-201.5" font-family="Helvetica,sans-Serif" font-size="10.00">LookCommand</text>
<polyline fill="none" stroke="black" points="730,-194.5 828,-194.5 "/>
<text text-anchor="middle" x="779" y="-182.5" font-family="Helvetica,sans-Serif" font-size="10.00"> </text>
<polyline fill="none" stroke="black" points="730,-175.5 828,-175.5 "/>
<text text-anchor="start" x="738" y="-163.5" font-family="Helvetica,sans-Serif" font-size="10.00">+ LookCommand()</text>
<text text-anchor="start" x="738" y="-152.5" font-family="Helvetica,sans-Serif" font-size="10.00">+ execute()</text>
<text text-anchor="start" x="738" y="-141.5" font-family="Helvetica,sans-Serif" font-size="10.00">&#45; showItem()</text>
</a>
</g>
</g>
<!-- Node1&#45;&gt;Node10 -->
<g id="edge9" class="edge"><title>Node1&#45;&gt;Node10</title>
<path fill="none" stroke="midnightblue" d="M644.423,-280.383C671.402,-259.256 703.731,-233.941 729.94,-213.418"/>
<polygon fill="none" stroke="midnightblue" points="641.95,-277.874 636.235,-286.795 646.266,-283.385 641.95,-277.874"/>
</g>
<!-- Node11 -->
<g id="node11" class="node"><title>Node11</title>
<g id="a_node11"><a xlink:href="classQuitCommand.html" target="_top" xlink:title="class QuitCommand used to quit the game ">
<polygon fill="white" stroke="black" points="846.5,-140 846.5,-208 941.5,-208 941.5,-140 846.5,-140"/>
<text text-anchor="middle" x="894" y="-196" font-family="Helvetica,sans-Serif" font-size="10.00">QuitCommand</text>
<polyline fill="none" stroke="black" points="846.5,-189 941.5,-189 "/>
<text text-anchor="middle" x="894" y="-177" font-family="Helvetica,sans-Serif" font-size="10.00"> </text>
<polyline fill="none" stroke="black" points="846.5,-170 941.5,-170 "/>
<text text-anchor="start" x="854.5" y="-158" font-family="Helvetica,sans-Serif" font-size="10.00">+ QuitCommand()</text>
<text text-anchor="start" x="854.5" y="-147" font-family="Helvetica,sans-Serif" font-size="10.00">+ execute()</text>
</a>
</g>
</g>
<!-- Node1&#45;&gt;Node11 -->
<g id="edge10" class="edge"><title>Node1&#45;&gt;Node11</title>
<path fill="none" stroke="midnightblue" d="M645.704,-304.446C696.898,-286.301 774.01,-256.17 836,-220 842.054,-216.467 848.184,-212.376 854.078,-208.128"/>
<polygon fill="none" stroke="midnightblue" points="644.416,-301.188 636.14,-307.803 646.735,-307.793 644.416,-301.188"/>
</g>
<!-- Node12 -->
<g id="node12" class="node"><title>Node12</title>
<g id="a_node12"><a xlink:href="classTakeCommand.html" target="_top" xlink:title="class TakeCommand used to make the Player take an Item ">
<polygon fill="white" stroke="black" points="960,-140 960,-208 1058,-208 1058,-140 960,-140"/>
<text text-anchor="middle" x="1009" y="-196" font-family="Helvetica,sans-Serif" font-size="10.00">TakeCommand</text>
<polyline fill="none" stroke="black" points="960,-189 1058,-189 "/>
<text text-anchor="middle" x="1009" y="-177" font-family="Helvetica,sans-Serif" font-size="10.00"> </text>
<polyline fill="none" stroke="black" points="960,-170 1058,-170 "/>
<text text-anchor="start" x="968" y="-158" font-family="Helvetica,sans-Serif" font-size="10.00">+ TakeCommand()</text>
<text text-anchor="start" x="968" y="-147" font-family="Helvetica,sans-Serif" font-size="10.00">+ execute()</text>
</a>
</g>
</g>
<!-- Node1&#45;&gt;Node12 -->
<g id="edge11" class="edge"><title>Node1&#45;&gt;Node12</title>
<path fill="none" stroke="midnightblue" d="M645.949,-313.698C718.83,-300.107 848.866,-270.754 950,-220 956.678,-216.649 963.359,-212.506 969.698,-208.103"/>
<polygon fill="none" stroke="midnightblue" points="645.259,-310.266 636.054,-315.511 646.521,-317.151 645.259,-310.266"/>
</g>
<!-- Node13 -->
<g id="node13" class="node"><title>Node13</title>
<g id="a_node13"><a xlink:href="classTestCommand.html" target="_top" xlink:title="class TestCommand used to test series of commands ">
<polygon fill="white" stroke="black" points="1076,-140 1076,-208 1172,-208 1172,-140 1076,-140"/>
<text text-anchor="middle" x="1124" y="-196" font-family="Helvetica,sans-Serif" font-size="10.00">TestCommand</text>
<polyline fill="none" stroke="black" points="1076,-189 1172,-189 "/>
<text text-anchor="middle" x="1124" y="-177" font-family="Helvetica,sans-Serif" font-size="10.00"> </text>
<polyline fill="none" stroke="black" points="1076,-170 1172,-170 "/>
<text text-anchor="start" x="1084" y="-158" font-family="Helvetica,sans-Serif" font-size="10.00">+ TestCommand()</text>
<text text-anchor="start" x="1084" y="-147" font-family="Helvetica,sans-Serif" font-size="10.00">+ execute()</text>
</a>
</g>
</g>
<!-- Node1&#45;&gt;Node13 -->
<g id="edge12" class="edge"><title>Node1&#45;&gt;Node13</title>
<path fill="none" stroke="midnightblue" d="M646.29,-318.934C738.073,-310.563 923.971,-286.254 1066,-220 1072.93,-216.767 1079.8,-212.578 1086.25,-208.058"/>
<polygon fill="none" stroke="midnightblue" points="645.759,-315.467 636.106,-319.832 646.374,-322.44 645.759,-315.467"/>
</g>
<!-- Node6 -->
<g id="node6" class="node"><title>Node6</title>
<g id="a_node6"><a xlink:href="classBackCommand.html" target="_top" xlink:title="class BackCommand used to go back in a previous Room. ">
<polygon fill="white" stroke="black" points="295.5,-12 295.5,-80 394.5,-80 394.5,-12 295.5,-12"/>
<text text-anchor="middle" x="345" y="-68" font-family="Helvetica,sans-Serif" font-size="10.00">BackCommand</text>
<polyline fill="none" stroke="black" points="295.5,-61 394.5,-61 "/>
<text text-anchor="middle" x="345" y="-49" font-family="Helvetica,sans-Serif" font-size="10.00"> </text>
<polyline fill="none" stroke="black" points="295.5,-42 394.5,-42 "/>
<text text-anchor="start" x="303.5" y="-30" font-family="Helvetica,sans-Serif" font-size="10.00">+ BackCommand()</text>
<text text-anchor="start" x="303.5" y="-19" font-family="Helvetica,sans-Serif" font-size="10.00">+ execute()</text>
</a>
</g>
</g>
<!-- Node5&#45;&gt;Node6 -->
<g id="edge5" class="edge"><title>Node5&#45;&gt;Node6</title>
<path fill="none" stroke="midnightblue" d="M380.798,-119.75C374.181,-106.304 367.266,-92.2507 361.297,-80.1205"/>
<polygon fill="none" stroke="midnightblue" points="377.76,-121.504 385.315,-128.931 384.041,-118.413 377.76,-121.504"/>
</g>
<!-- Node7 -->
<g id="node7" class="node"><title>Node7</title>
<g id="a_node7"><a xlink:href="classBeamerCommand.html" target="_top" xlink:title="class BeamerCommand used to teleport into a remembered room ">
<polygon fill="white" stroke="black" points="413,-1 413,-91 523,-91 523,-1 413,-1"/>
<text text-anchor="middle" x="468" y="-79" font-family="Helvetica,sans-Serif" font-size="10.00">BeamerCommand</text>
<polyline fill="none" stroke="black" points="413,-72 523,-72 "/>
<text text-anchor="middle" x="468" y="-60" font-family="Helvetica,sans-Serif" font-size="10.00"> </text>
<polyline fill="none" stroke="black" points="413,-53 523,-53 "/>
<text text-anchor="start" x="421" y="-41" font-family="Helvetica,sans-Serif" font-size="10.00">+ BeamerCommand()</text>
<text text-anchor="start" x="421" y="-30" font-family="Helvetica,sans-Serif" font-size="10.00">+ execute()</text>
<text text-anchor="start" x="421" y="-19" font-family="Helvetica,sans-Serif" font-size="10.00">+ charge()</text>
<text text-anchor="start" x="421" y="-8" font-family="Helvetica,sans-Serif" font-size="10.00">&#45; teleport()</text>
</a>
</g>
</g>
<!-- Node5&#45;&gt;Node7 -->
<g id="edge6" class="edge"><title>Node5&#45;&gt;Node7</title>
<path fill="none" stroke="midnightblue" d="M432.703,-119.908C437.322,-110.367 442.092,-100.515 446.574,-91.2568"/>
<polygon fill="none" stroke="midnightblue" points="429.542,-118.405 428.335,-128.931 435.843,-121.456 429.542,-118.405"/>
</g>
</g>
</svg>
