<?xml version="1.0" encoding="UTF-8" standalone="no"?>
<!DOCTYPE svg PUBLIC "-//W3C//DTD SVG 1.1//EN"
 "http://www.w3.org/Graphics/SVG/1.1/DTD/svg11.dtd">
<!-- Generated by graphviz version 2.36.0 (20140111.2315)
 -->
<!-- Title: GoCommand Pages: 1 -->
<svg width="116pt" height="272pt"
 viewBox="0.00 0.00 116.00 272.00" xmlns="http://www.w3.org/2000/svg" xmlns:xlink="http://www.w3.org/1999/xlink">
<g id="graph0" class="graph" transform="scale(1 1) rotate(0) translate(4 268)">
<title>GoCommand</title>
<polygon fill="white" stroke="none" points="-4,4 -4,-268 112,-268 112,4 -4,4"/>
<!-- Node1 -->
<g id="node1" class="node"><title>Node1</title>
<polygon fill="#bfbfbf" stroke="black" points="-0.5,-1 -0.5,-91 108.5,-91 108.5,-1 -0.5,-1"/>
<text text-anchor="middle" x="54" y="-79" font-family="Helvetica,sans-Serif" font-size="10.00">GoCommand</text>
<polyline fill="none" stroke="black" points="-0.5,-72 108.5,-72 "/>
<text text-anchor="middle" x="54" y="-60" font-family="Helvetica,sans-Serif" font-size="10.00"> </text>
<polyline fill="none" stroke="black" points="-0.5,-53 108.5,-53 "/>
<text text-anchor="start" x="7.5" y="-41" font-family="Helvetica,sans-Serif" font-size="10.00">+ GoCommand()</text>
<text text-anchor="start" x="7.5" y="-30" font-family="Helvetica,sans-Serif" font-size="10.00">+ execute()</text>
<text text-anchor="start" x="7.5" y="-19" font-family="Helvetica,sans-Serif" font-size="10.00"># goRoomCheck()</text>
<text text-anchor="start" x="7.5" y="-8" font-family="Helvetica,sans-Serif" font-size="10.00"># goRoomNoCheck()</text>
</g>
<!-- Node2 -->
<g id="node2" class="node"><title>Node2</title>
<g id="a_node2"><a xlink:href="classCommand.html" target="_top" xlink:title="Class used to handle a command of one or two words. ">
<polygon fill="white" stroke="black" points="8,-129 8,-263 100,-263 100,-129 8,-129"/>
<text text-anchor="middle" x="54" y="-251" font-family="Helvetica,sans-Serif" font-size="10.00">Command</text>
<polyline fill="none" stroke="black" points="8,-244 100,-244 "/>
<text text-anchor="start" x="16" y="-232" font-family="Helvetica,sans-Serif" font-size="10.00">&#45; parameter</text>
<text text-anchor="start" x="16" y="-221" font-family="Helvetica,sans-Serif" font-size="10.00">&#45; message</text>
<polyline fill="none" stroke="black" points="8,-214 100,-214 "/>
<text text-anchor="start" x="16" y="-202" font-family="Helvetica,sans-Serif" font-size="10.00">+ getParameter()</text>
<text text-anchor="start" x="16" y="-191" font-family="Helvetica,sans-Serif" font-size="10.00">+ setParameter()</text>
<text text-anchor="start" x="16" y="-180" font-family="Helvetica,sans-Serif" font-size="10.00">+ hasParameter()</text>
<text text-anchor="start" x="16" y="-169" font-family="Helvetica,sans-Serif" font-size="10.00">+ getMessage()</text>
<text text-anchor="start" x="16" y="-158" font-family="Helvetica,sans-Serif" font-size="10.00">+ hasMessage()</text>
<text text-anchor="start" x="16" y="-147" font-family="Helvetica,sans-Serif" font-size="10.00">+ execute()</text>
<text text-anchor="start" x="16" y="-136" font-family="Helvetica,sans-Serif" font-size="10.00"># setMessage()</text>
</a>
</g>
</g>
<!-- Node2&#45;&gt;Node1 -->
<g id="edge1" class="edge"><title>Node2&#45;&gt;Node1</title>
<path fill="none" stroke="midnightblue" d="M54,-118.574C54,-109.149 54,-99.777 54,-91.0698"/>
<polygon fill="none" stroke="midnightblue" points="50.5001,-118.792 54,-128.792 57.5001,-118.792 50.5001,-118.792"/>
</g>
</g>
</svg>
