<?xml version="1.0" encoding="UTF-8" standalone="no"?>
<!DOCTYPE svg PUBLIC "-//W3C//DTD SVG 1.1//EN"
 "http://www.w3.org/Graphics/SVG/1.1/DTD/svg11.dtd">
<!-- Generated by graphviz version 2.36.0 (20140111.2315)
 -->
<!-- Title: pkg_commands.GoCommand Pages: 1 -->
<svg width="349pt" height="454pt"
 viewBox="0.00 0.00 349.00 454.00" xmlns="http://www.w3.org/2000/svg" xmlns:xlink="http://www.w3.org/1999/xlink">
<g id="graph0" class="graph" transform="scale(1 1) rotate(0) translate(4 450)">
<title>pkg_commands.GoCommand</title>
<polygon fill="white" stroke="none" points="-4,4 -4,-450 345,-450 345,4 -4,4"/>
<!-- Node1 -->
<g id="node1" class="node"><title>Node1</title>
<polygon fill="#bfbfbf" stroke="black" points="95,-128.5 95,-229.5 241,-229.5 241,-128.5 95,-128.5"/>
<text text-anchor="middle" x="168" y="-217.5" font-family="Helvetica,sans-Serif" font-size="10.00">pkg_commands.GoCommand</text>
<polyline fill="none" stroke="black" points="95,-210.5 241,-210.5 "/>
<text text-anchor="middle" x="168" y="-198.5" font-family="Helvetica,sans-Serif" font-size="10.00"> </text>
<polyline fill="none" stroke="black" points="95,-191.5 241,-191.5 "/>
<text text-anchor="start" x="103" y="-179.5" font-family="Helvetica,sans-Serif" font-size="10.00">+ GoCommand()</text>
<text text-anchor="start" x="103" y="-168.5" font-family="Helvetica,sans-Serif" font-size="10.00">+ execute()</text>
<text text-anchor="start" x="103" y="-157.5" font-family="Helvetica,sans-Serif" font-size="10.00"># goRoomCheck()</text>
<text text-anchor="start" x="103" y="-146.5" font-family="Helvetica,sans-Serif" font-size="10.00"># goRoomNoCheck()</text>
<text text-anchor="start" x="103" y="-135.5" font-family="Helvetica,sans-Serif" font-size="10.00"># getRandomRoom()</text>
</g>
<!-- Node3 -->
<g id="node3" class="node"><title>Node3</title>
<g id="a_node3"><a xlink:href="classpkg__commands_1_1BackCommand.html" target="_top" xlink:title="class BackCommand used to go back in a previous Room. ">
<polygon fill="white" stroke="black" points="0,-12 0,-80 156,-80 156,-12 0,-12"/>
<text text-anchor="middle" x="78" y="-68" font-family="Helvetica,sans-Serif" font-size="10.00">pkg_commands.BackCommand</text>
<polyline fill="none" stroke="black" points="0,-61 156,-61 "/>
<text text-anchor="middle" x="78" y="-49" font-family="Helvetica,sans-Serif" font-size="10.00"> </text>
<polyline fill="none" stroke="black" points="0,-42 156,-42 "/>
<text text-anchor="start" x="8" y="-30" font-family="Helvetica,sans-Serif" font-size="10.00">+ BackCommand()</text>
<text text-anchor="start" x="8" y="-19" font-family="Helvetica,sans-Serif" font-size="10.00">+ execute()</text>
</a>
</g>
</g>
<!-- Node1&#45;&gt;Node3 -->
<g id="edge2" class="edge"><title>Node1&#45;&gt;Node3</title>
<path fill="none" stroke="midnightblue" d="M128.208,-120.081C118.86,-106.474 109.208,-92.4244 100.894,-80.3242"/>
<polygon fill="none" stroke="midnightblue" points="125.427,-122.214 133.975,-128.475 131.197,-118.25 125.427,-122.214"/>
</g>
<!-- Node4 -->
<g id="node4" class="node"><title>Node4</title>
<g id="a_node4"><a xlink:href="classpkg__commands_1_1BeamerCommand.html" target="_top" xlink:title="class BeamerCommand used to teleport into a remembered room ">
<polygon fill="white" stroke="black" points="174.5,-1 174.5,-91 341.5,-91 341.5,-1 174.5,-1"/>
<text text-anchor="middle" x="258" y="-79" font-family="Helvetica,sans-Serif" font-size="10.00">pkg_commands.BeamerCommand</text>
<polyline fill="none" stroke="black" points="174.5,-72 341.5,-72 "/>
<text text-anchor="middle" x="258" y="-60" font-family="Helvetica,sans-Serif" font-size="10.00"> </text>
<polyline fill="none" stroke="black" points="174.5,-53 341.5,-53 "/>
<text text-anchor="start" x="182.5" y="-41" font-family="Helvetica,sans-Serif" font-size="10.00">+ BeamerCommand()</text>
<text text-anchor="start" x="182.5" y="-30" font-family="Helvetica,sans-Serif" font-size="10.00">+ execute()</text>
<text text-anchor="start" x="182.5" y="-19" font-family="Helvetica,sans-Serif" font-size="10.00">+ charge()</text>
<text text-anchor="start" x="182.5" y="-8" font-family="Helvetica,sans-Serif" font-size="10.00">&#45; teleport()</text>
</a>
</g>
</g>
<!-- Node1&#45;&gt;Node4 -->
<g id="edge3" class="edge"><title>Node1&#45;&gt;Node4</title>
<path fill="none" stroke="midnightblue" d="M207.847,-120.001C214.533,-110.268 221.374,-100.311 227.767,-91.0055"/>
<polygon fill="none" stroke="midnightblue" points="204.803,-118.25 202.025,-128.475 210.573,-122.214 204.803,-118.25"/>
</g>
<!-- Node2 -->
<g id="node2" class="node"><title>Node2</title>
<g id="a_node2"><a xlink:href="classpkg__commands_1_1Command.html" target="_top" xlink:title="Class used to handle a command of one or two words. ">
<polygon fill="white" stroke="black" points="101,-267 101,-445 235,-445 235,-267 101,-267"/>
<text text-anchor="middle" x="168" y="-433" font-family="Helvetica,sans-Serif" font-size="10.00">pkg_commands.Command</text>
<polyline fill="none" stroke="black" points="101,-426 235,-426 "/>
<text text-anchor="start" x="109" y="-414" font-family="Helvetica,sans-Serif" font-size="10.00">&#45; parameter</text>
<text text-anchor="start" x="109" y="-403" font-family="Helvetica,sans-Serif" font-size="10.00">&#45; secondParameter</text>
<text text-anchor="start" x="109" y="-392" font-family="Helvetica,sans-Serif" font-size="10.00">&#45; message</text>
<polyline fill="none" stroke="black" points="101,-385 235,-385 "/>
<text text-anchor="start" x="109" y="-373" font-family="Helvetica,sans-Serif" font-size="10.00">+ getParameter()</text>
<text text-anchor="start" x="109" y="-362" font-family="Helvetica,sans-Serif" font-size="10.00">+ getSecondParameter()</text>
<text text-anchor="start" x="109" y="-351" font-family="Helvetica,sans-Serif" font-size="10.00">+ setParameter()</text>
<text text-anchor="start" x="109" y="-340" font-family="Helvetica,sans-Serif" font-size="10.00">+ setSecondParameter()</text>
<text text-anchor="start" x="109" y="-329" font-family="Helvetica,sans-Serif" font-size="10.00">+ hasParameter()</text>
<text text-anchor="start" x="109" y="-318" font-family="Helvetica,sans-Serif" font-size="10.00">+ hasSecondParameter()</text>
<text text-anchor="start" x="109" y="-307" font-family="Helvetica,sans-Serif" font-size="10.00">+ getMessage()</text>
<text text-anchor="start" x="109" y="-296" font-family="Helvetica,sans-Serif" font-size="10.00">+ hasMessage()</text>
<text text-anchor="start" x="109" y="-285" font-family="Helvetica,sans-Serif" font-size="10.00">+ execute()</text>
<text text-anchor="start" x="109" y="-274" font-family="Helvetica,sans-Serif" font-size="10.00"># setMessage()</text>
</a>
</g>
</g>
<!-- Node2&#45;&gt;Node1 -->
<g id="edge1" class="edge"><title>Node2&#45;&gt;Node1</title>
<path fill="none" stroke="midnightblue" d="M168,-256.837C168,-247.523 168,-238.373 168,-229.817"/>
<polygon fill="none" stroke="midnightblue" points="164.5,-256.987 168,-266.987 171.5,-256.987 164.5,-256.987"/>
</g>
</g>
</svg>
