<?xml version="1.0" encoding="UTF-8" standalone="no"?>
<!DOCTYPE svg PUBLIC "-//W3C//DTD SVG 1.1//EN"
 "http://www.w3.org/Graphics/SVG/1.1/DTD/svg11.dtd">
<!-- Generated by graphviz version 2.36.0 (20140111.2315)
 -->
<!-- Title: pkg_commands.Command.hasMessage Pages: 1 -->
<svg width="838pt" height="77pt"
 viewBox="0.00 0.00 838.00 77.00" xmlns="http://www.w3.org/2000/svg" xmlns:xlink="http://www.w3.org/1999/xlink">
<g id="graph0" class="graph" transform="scale(1 1) rotate(0) translate(4 73)">
<title>pkg_commands.Command.hasMessage</title>
<polygon fill="white" stroke="none" points="-4,4 -4,-73 834,-73 834,4 -4,4"/>
<!-- Node1 -->
<g id="node1" class="node"><title>Node1</title>
<polygon fill="#bfbfbf" stroke="black" points="0,-22 0,-52 152,-52 152,-22 0,-22"/>
<text text-anchor="start" x="8" y="-40" font-family="Helvetica,sans-Serif" font-size="10.00">pkg_commands.Command.has</text>
<text text-anchor="middle" x="76" y="-29" font-family="Helvetica,sans-Serif" font-size="10.00">Message</text>
</g>
<!-- Node2 -->
<g id="node2" class="node"><title>Node2</title>
<g id="a_node2"><a xlink:href="classpkg__commands_1_1GoCommand.html#a210afbc5f3ef34d3ad5759d853c8f8c2" target="_top" xlink:title="Go to the Room without checking. ">
<polygon fill="white" stroke="black" points="188,-22 188,-52 348,-52 348,-22 188,-22"/>
<text text-anchor="start" x="196" y="-40" font-family="Helvetica,sans-Serif" font-size="10.00">pkg_commands.GoCommand.go</text>
<text text-anchor="middle" x="268" y="-29" font-family="Helvetica,sans-Serif" font-size="10.00">RoomNoCheck</text>
</a>
</g>
</g>
<!-- Node1&#45;&gt;Node2 -->
<g id="edge1" class="edge"><title>Node1&#45;&gt;Node2</title>
<path fill="none" stroke="midnightblue" d="M162.345,-37C170.807,-37 179.372,-37 187.769,-37"/>
<polygon fill="midnightblue" stroke="midnightblue" points="162.093,-33.5001 152.093,-37 162.093,-40.5001 162.093,-33.5001"/>
</g>
<!-- Node3 -->
<g id="node3" class="node"><title>Node3</title>
<g id="a_node3"><a xlink:href="classpkg__commands_1_1BeamerCommand.html#a2b6c04242d443d4ff36f255b06ce14be" target="_top" xlink:title="Teleport the player to the remembered room. ">
<polygon fill="white" stroke="black" points="384.5,-49.5 384.5,-68.5 587.5,-68.5 587.5,-49.5 384.5,-49.5"/>
<text text-anchor="middle" x="486" y="-56.5" font-family="Helvetica,sans-Serif" font-size="10.00">pkg_commands.BeamerCommand.teleport</text>
</a>
</g>
</g>
<!-- Node2&#45;&gt;Node3 -->
<g id="edge2" class="edge"><title>Node2&#45;&gt;Node3</title>
<path fill="none" stroke="midnightblue" d="M358.212,-46.0864C369.206,-47.2061 380.468,-48.3532 391.523,-49.4792"/>
<polygon fill="midnightblue" stroke="midnightblue" points="358.507,-42.5984 348.204,-45.0671 357.798,-49.5624 358.507,-42.5984"/>
</g>
<!-- Node5 -->
<g id="node5" class="node"><title>Node5</title>
<g id="a_node5"><a xlink:href="classpkg__commands_1_1GoCommand.html#acbf1aa81fa5b1aef7cafb8b4e3ace3a9" target="_top" xlink:title="Check if the wanted Room is connected to the current Room and go to this room. ">
<polygon fill="white" stroke="black" points="406,-0 406,-30 566,-30 566,-0 406,-0"/>
<text text-anchor="start" x="414" y="-18" font-family="Helvetica,sans-Serif" font-size="10.00">pkg_commands.GoCommand.go</text>
<text text-anchor="middle" x="486" y="-7" font-family="Helvetica,sans-Serif" font-size="10.00">RoomCheck</text>
</a>
</g>
</g>
<!-- Node2&#45;&gt;Node5 -->
<g id="edge4" class="edge"><title>Node2&#45;&gt;Node5</title>
<path fill="none" stroke="midnightblue" d="M358.436,-27.8908C374.147,-26.2906 390.398,-24.6354 405.806,-23.0661"/>
<polygon fill="midnightblue" stroke="midnightblue" points="357.798,-24.4376 348.204,-28.9329 358.507,-31.4016 357.798,-24.4376"/>
</g>
<!-- Node4 -->
<g id="node4" class="node"><title>Node4</title>
<g id="a_node4"><a xlink:href="classpkg__commands_1_1BeamerCommand.html#a139dc852e180cabd8af15cfed37dcf0e" target="_top" xlink:title="Teleport to the remembered room or remember a room. ">
<polygon fill="white" stroke="black" points="624.5,-49.5 624.5,-68.5 829.5,-68.5 829.5,-49.5 624.5,-49.5"/>
<text text-anchor="middle" x="727" y="-56.5" font-family="Helvetica,sans-Serif" font-size="10.00">pkg_commands.BeamerCommand.execute</text>
</a>
</g>
</g>
<!-- Node3&#45;&gt;Node4 -->
<g id="edge3" class="edge"><title>Node3&#45;&gt;Node4</title>
<path fill="none" stroke="midnightblue" d="M597.942,-59C606.731,-59 615.581,-59 624.303,-59"/>
<polygon fill="midnightblue" stroke="midnightblue" points="597.665,-55.5001 587.665,-59 597.665,-62.5001 597.665,-55.5001"/>
</g>
<!-- Node6 -->
<g id="node6" class="node"><title>Node6</title>
<g id="a_node6"><a xlink:href="classpkg__commands_1_1GoCommand.html#a82e9a64a0fac612f788060a90c83f9b1" target="_top" xlink:title="Make the player go to the Room through it&#39;s direction in the parameter field. ">
<polygon fill="white" stroke="black" points="635,-5.5 635,-24.5 819,-24.5 819,-5.5 635,-5.5"/>
<text text-anchor="middle" x="727" y="-12.5" font-family="Helvetica,sans-Serif" font-size="10.00">pkg_commands.GoCommand.execute</text>
</a>
</g>
</g>
<!-- Node5&#45;&gt;Node6 -->
<g id="edge5" class="edge"><title>Node5&#45;&gt;Node6</title>
<path fill="none" stroke="midnightblue" d="M576.443,-15C595.566,-15 615.787,-15 634.969,-15"/>
<polygon fill="midnightblue" stroke="midnightblue" points="576.252,-11.5001 566.252,-15 576.252,-18.5001 576.252,-11.5001"/>
</g>
</g>
</svg>
