<?xml version="1.0" encoding="UTF-8" standalone="no"?>
<!DOCTYPE svg PUBLIC "-//W3C//DTD SVG 1.1//EN"
 "http://www.w3.org/Graphics/SVG/1.1/DTD/svg11.dtd">
<!-- Generated by graphviz version 2.36.0 (20140111.2315)
 -->
<!-- Title: pkg_commands.Command.setMessage Pages: 1 -->
<svg width="888pt" height="566pt"
 viewBox="0.00 0.00 888.00 565.78" xmlns="http://www.w3.org/2000/svg" xmlns:xlink="http://www.w3.org/1999/xlink">
<g id="graph0" class="graph" transform="scale(1 1) rotate(0) translate(4 561.783)">
<title>pkg_commands.Command.setMessage</title>
<polygon fill="white" stroke="none" points="-4,4 -4,-561.783 884,-561.783 884,4 -4,4"/>
<!-- Node1 -->
<g id="node1" class="node"><title>Node1</title>
<polygon fill="#bfbfbf" stroke="black" points="0,-282.257 0,-312.257 150,-312.257 150,-282.257 0,-282.257"/>
<text text-anchor="start" x="8" y="-300.257" font-family="Helvetica,sans-Serif" font-size="10.00">pkg_commands.Command.set</text>
<text text-anchor="middle" x="75" y="-289.257" font-family="Helvetica,sans-Serif" font-size="10.00">Message</text>
</g>
<!-- Node2 -->
<g id="node2" class="node"><title>Node2</title>
<g id="a_node2"><a xlink:href="classpkg__commands_1_1BeamerCommand.html#ae71665296a18d581ad1f714c1078e37b" target="_top" xlink:title="Remember the current room. ">
<polygon fill="white" stroke="black" points="436,-382.757 436,-401.757 636,-401.757 636,-382.757 436,-382.757"/>
<text text-anchor="middle" x="536" y="-389.757" font-family="Helvetica,sans-Serif" font-size="10.00">pkg_commands.BeamerCommand.charge</text>
</a>
</g>
</g>
<!-- Node1&#45;&gt;Node2 -->
<g id="edge1" class="edge"><title>Node1&#45;&gt;Node2</title>
<path fill="none" stroke="midnightblue" d="M79.4855,-322.689C87.7714,-372.023 113.677,-479.85 186,-525.257 265.798,-575.358 310.685,-560.668 398,-525.257 461.896,-499.343 512.402,-427.739 529.096,-401.798"/>
<polygon fill="midnightblue" stroke="midnightblue" points="82.9028,-321.888 77.8954,-312.552 75.9873,-322.973 82.9028,-321.888"/>
</g>
<!-- Node4 -->
<g id="node4" class="node"><title>Node4</title>
<g id="a_node4"><a xlink:href="classpkg__commands_1_1InventoryCommand.html#a16ce9e3db461ecb7c4a50d2bdef65022" target="_top" xlink:title="Save the inventory into the message field. ">
<polygon fill="white" stroke="black" points="186,-496.757 186,-515.757 398,-515.757 398,-496.757 186,-496.757"/>
<text text-anchor="middle" x="292" y="-503.757" font-family="Helvetica,sans-Serif" font-size="10.00">pkg_commands.InventoryCommand.execute</text>
</a>
</g>
</g>
<!-- Node1&#45;&gt;Node4 -->
<g id="edge3" class="edge"><title>Node1&#45;&gt;Node4</title>
<path fill="none" stroke="midnightblue" d="M82.9136,-322.159C95.7989,-363.606 127.618,-446.234 186,-487.257 191.381,-491.038 197.289,-494.136 203.473,-496.667"/>
<polygon fill="midnightblue" stroke="midnightblue" points="86.1916,-320.904 79.974,-312.326 79.4849,-322.909 86.1916,-320.904"/>
</g>
<!-- Node5 -->
<g id="node5" class="node"><title>Node5</title>
<g id="a_node5"><a xlink:href="classpkg__commands_1_1CreditsCommand.html#aad2b955c6c8a4c3536e6b937165b7790" target="_top" xlink:title="Save the credits into the message field. ">
<polygon fill="white" stroke="black" points="190.5,-458.757 190.5,-477.757 393.5,-477.757 393.5,-458.757 190.5,-458.757"/>
<text text-anchor="middle" x="292" y="-465.757" font-family="Helvetica,sans-Serif" font-size="10.00">pkg_commands.CreditsCommand.execute</text>
</a>
</g>
</g>
<!-- Node1&#45;&gt;Node5 -->
<g id="edge4" class="edge"><title>Node1&#45;&gt;Node5</title>
<path fill="none" stroke="midnightblue" d="M86.3937,-321.637C102.419,-356.053 136.568,-418.149 186,-449.257 192.115,-453.105 198.803,-456.222 205.749,-458.74"/>
<polygon fill="midnightblue" stroke="midnightblue" points="89.4872,-319.982 82.1806,-312.31 83.1079,-322.864 89.4872,-319.982"/>
</g>
<!-- Node6 -->
<g id="node6" class="node"><title>Node6</title>
<g id="a_node6"><a xlink:href="classpkg__commands_1_1LookCommand.html#af336146fae1e14bf434d85a5acbcdcd7" target="_top" xlink:title="Saves the information about the current Room or a given Item in the message field. ">
<polygon fill="white" stroke="black" points="196,-420.757 196,-439.757 388,-439.757 388,-420.757 196,-420.757"/>
<text text-anchor="middle" x="292" y="-427.757" font-family="Helvetica,sans-Serif" font-size="10.00">pkg_commands.LookCommand.execute</text>
</a>
</g>
</g>
<!-- Node1&#45;&gt;Node6 -->
<g id="edge5" class="edge"><title>Node1&#45;&gt;Node6</title>
<path fill="none" stroke="midnightblue" d="M91.6121,-320.679C110.613,-347.176 145.255,-389.464 186,-411.257 193.269,-415.145 201.184,-418.255 209.3,-420.741"/>
<polygon fill="midnightblue" stroke="midnightblue" points="94.3842,-318.536 85.7819,-312.351 88.6498,-322.551 94.3842,-318.536"/>
</g>
<!-- Node7 -->
<g id="node7" class="node"><title>Node7</title>
<g id="a_node7"><a xlink:href="classpkg__commands_1_1DropCommand.html#a742e37b2d2dd4e111130811ee2f4dd0b" target="_top" xlink:title="Drop the Item through it&#39;s name in the parameter field. ">
<polygon fill="white" stroke="black" points="196,-382.757 196,-401.757 388,-401.757 388,-382.757 196,-382.757"/>
<text text-anchor="middle" x="292" y="-389.757" font-family="Helvetica,sans-Serif" font-size="10.00">pkg_commands.DropCommand.execute</text>
</a>
</g>
</g>
<!-- Node1&#45;&gt;Node7 -->
<g id="edge6" class="edge"><title>Node1&#45;&gt;Node7</title>
<path fill="none" stroke="midnightblue" d="M100.75,-318.999C121.932,-336.409 153.993,-360.033 186,-373.257 195.417,-377.148 205.634,-380.244 215.873,-382.707"/>
<polygon fill="midnightblue" stroke="midnightblue" points="102.829,-316.174 92.9161,-312.433 98.3322,-321.539 102.829,-316.174"/>
</g>
<!-- Node8 -->
<g id="node8" class="node"><title>Node8</title>
<g id="a_node8"><a xlink:href="classpkg__commands_1_1TalkCommand.html#a413573388e24a2d442f9814695f7e47c" target="_top" xlink:title="Make the player talk to a Character. ">
<polygon fill="white" stroke="black" points="197,-344.757 197,-363.757 387,-363.757 387,-344.757 197,-344.757"/>
<text text-anchor="middle" x="292" y="-351.757" font-family="Helvetica,sans-Serif" font-size="10.00">pkg_commands.TalkCommand.execute</text>
</a>
</g>
</g>
<!-- Node1&#45;&gt;Node8 -->
<g id="edge7" class="edge"><title>Node1&#45;&gt;Node8</title>
<path fill="none" stroke="midnightblue" d="M124.383,-315.77C143.391,-322.568 165.526,-329.902 186,-335.257 199.89,-338.89 214.993,-342.064 229.302,-344.725"/>
<polygon fill="midnightblue" stroke="midnightblue" points="125.347,-312.397 114.753,-312.278 122.96,-318.977 125.347,-312.397"/>
</g>
<!-- Node9 -->
<g id="node9" class="node"><title>Node9</title>
<g id="a_node9"><a xlink:href="classpkg__commands_1_1TakeCommand.html#a17789062aaf2ab5747c7eeac118875cd" target="_top" xlink:title="Make the player take an Item. ">
<polygon fill="white" stroke="black" points="195.5,-306.757 195.5,-325.757 388.5,-325.757 388.5,-306.757 195.5,-306.757"/>
<text text-anchor="middle" x="292" y="-313.757" font-family="Helvetica,sans-Serif" font-size="10.00">pkg_commands.TakeCommand.execute</text>
</a>
</g>
</g>
<!-- Node1&#45;&gt;Node9 -->
<g id="edge8" class="edge"><title>Node1&#45;&gt;Node9</title>
<path fill="none" stroke="midnightblue" d="M160.316,-304.708C171.849,-305.727 183.756,-306.78 195.47,-307.815"/>
<polygon fill="midnightblue" stroke="midnightblue" points="160.561,-301.216 150.292,-303.822 159.945,-308.189 160.561,-301.216"/>
</g>
<!-- Node10 -->
<g id="node10" class="node"><title>Node10</title>
<g id="a_node10"><a xlink:href="classpkg__commands_1_1EatCommand.html#a2a600f09891aa076b3f630293de965f4" target="_top" xlink:title="Make the player eat an object. ">
<polygon fill="white" stroke="black" points="199,-268.757 199,-287.757 385,-287.757 385,-268.757 199,-268.757"/>
<text text-anchor="middle" x="292" y="-275.757" font-family="Helvetica,sans-Serif" font-size="10.00">pkg_commands.EatCommand.execute</text>
</a>
</g>
</g>
<!-- Node1&#45;&gt;Node10 -->
<g id="edge9" class="edge"><title>Node1&#45;&gt;Node10</title>
<path fill="none" stroke="midnightblue" d="M160.325,-289.805C172.973,-288.687 186.071,-287.53 198.872,-286.398"/>
<polygon fill="midnightblue" stroke="midnightblue" points="159.945,-286.325 150.292,-290.692 160.561,-293.298 159.945,-286.325"/>
</g>
<!-- Node11 -->
<g id="node11" class="node"><title>Node11</title>
<g id="a_node11"><a xlink:href="classpkg__commands_1_1GiveCommand.html#a3a3cca7fae9b86d8ff85cc166564843d" target="_top" xlink:title="Make the player give an Item to a Character. ">
<polygon fill="white" stroke="black" points="196.5,-230.757 196.5,-249.757 387.5,-249.757 387.5,-230.757 196.5,-230.757"/>
<text text-anchor="middle" x="292" y="-237.757" font-family="Helvetica,sans-Serif" font-size="10.00">pkg_commands.GiveCommand.execute</text>
</a>
</g>
</g>
<!-- Node1&#45;&gt;Node11 -->
<g id="edge10" class="edge"><title>Node1&#45;&gt;Node11</title>
<path fill="none" stroke="midnightblue" d="M124.383,-278.744C143.391,-271.946 165.526,-264.612 186,-259.257 199.89,-255.624 214.993,-252.449 229.302,-249.789"/>
<polygon fill="midnightblue" stroke="midnightblue" points="122.96,-275.536 114.753,-282.236 125.347,-282.117 122.96,-275.536"/>
</g>
<!-- Node12 -->
<g id="node12" class="node"><title>Node12</title>
<g id="a_node12"><a xlink:href="classpkg__commands_1_1GoCommand.html#a82e9a64a0fac612f788060a90c83f9b1" target="_top" xlink:title="Make the player go to the Room through it&#39;s direction in the parameter field. ">
<polygon fill="white" stroke="black" points="685,-72.7569 685,-91.7569 869,-91.7569 869,-72.7569 685,-72.7569"/>
<text text-anchor="middle" x="777" y="-79.7569" font-family="Helvetica,sans-Serif" font-size="10.00">pkg_commands.GoCommand.execute</text>
</a>
</g>
</g>
<!-- Node1&#45;&gt;Node12 -->
<g id="edge11" class="edge"><title>Node1&#45;&gt;Node12</title>
<path fill="none" stroke="midnightblue" d="M78.823,-271.968C86.0515,-220.812 110.35,-105.802 186,-57.2569 373.886,63.3091 669.008,-39.3158 753.005,-72.6746"/>
<polygon fill="midnightblue" stroke="midnightblue" points="75.3184,-271.777 77.494,-282.146 82.2594,-272.683 75.3184,-271.777"/>
</g>
<!-- Node13 -->
<g id="node13" class="node"><title>Node13</title>
<g id="a_node13"><a xlink:href="classpkg__commands_1_1TestCommand.html#a1ff07c27a46910d20c2e4569888892ca" target="_top" xlink:title="Test series of Commands stored in a .test file and store the messages in the message field...">
<polygon fill="white" stroke="black" points="196.5,-154.757 196.5,-173.757 387.5,-173.757 387.5,-154.757 196.5,-154.757"/>
<text text-anchor="middle" x="292" y="-161.757" font-family="Helvetica,sans-Serif" font-size="10.00">pkg_commands.TestCommand.execute</text>
</a>
</g>
</g>
<!-- Node1&#45;&gt;Node13 -->
<g id="edge12" class="edge"><title>Node1&#45;&gt;Node13</title>
<path fill="none" stroke="midnightblue" d="M93.2266,-273.647C112.839,-248.542 147.225,-209.58 186,-188.257 197.552,-181.905 210.704,-177.231 223.699,-173.793"/>
<polygon fill="midnightblue" stroke="midnightblue" points="90.213,-271.826 86.9227,-281.897 95.7752,-276.076 90.213,-271.826"/>
</g>
<!-- Node14 -->
<g id="node14" class="node"><title>Node14</title>
<g id="a_node14"><a xlink:href="classpkg__commands_1_1HelpCommand.html#a332d3e57539dfc82f8c539f8b3e24dd6" target="_top" xlink:title="Saves user&#39;s help in the parameter field. ">
<polygon fill="white" stroke="black" points="196.5,-116.757 196.5,-135.757 387.5,-135.757 387.5,-116.757 196.5,-116.757"/>
<text text-anchor="middle" x="292" y="-123.757" font-family="Helvetica,sans-Serif" font-size="10.00">pkg_commands.HelpCommand.execute</text>
</a>
</g>
</g>
<!-- Node1&#45;&gt;Node14 -->
<g id="edge13" class="edge"><title>Node1&#45;&gt;Node14</title>
<path fill="none" stroke="midnightblue" d="M86.3937,-272.877C102.419,-238.461 136.568,-176.365 186,-145.257 192.115,-141.409 198.803,-138.292 205.749,-135.774"/>
<polygon fill="midnightblue" stroke="midnightblue" points="83.1079,-271.65 82.1806,-282.204 89.4872,-274.531 83.1079,-271.65"/>
</g>
<!-- Node15 -->
<g id="node15" class="node"><title>Node15</title>
<g id="a_node15"><a xlink:href="classpkg__commands_1_1GoCommand.html#a210afbc5f3ef34d3ad5759d853c8f8c2" target="_top" xlink:title="Go to the Room without checking. ">
<polygon fill="white" stroke="black" points="212,-67.2569 212,-97.2569 372,-97.2569 372,-67.2569 212,-67.2569"/>
<text text-anchor="start" x="220" y="-85.2569" font-family="Helvetica,sans-Serif" font-size="10.00">pkg_commands.GoCommand.go</text>
<text text-anchor="middle" x="292" y="-74.2569" font-family="Helvetica,sans-Serif" font-size="10.00">RoomNoCheck</text>
</a>
</g>
</g>
<!-- Node1&#45;&gt;Node15 -->
<g id="edge14" class="edge"><title>Node1&#45;&gt;Node15</title>
<path fill="none" stroke="midnightblue" d="M83.2595,-272.395C96.573,-231.356 128.903,-149.757 186,-107.257 193.741,-101.495 202.617,-97.0391 211.858,-93.5977"/>
<polygon fill="midnightblue" stroke="midnightblue" points="79.857,-271.549 80.2112,-282.138 86.5376,-273.64 79.857,-271.549"/>
</g>
<!-- Node16 -->
<g id="node16" class="node"><title>Node16</title>
<g id="a_node16"><a xlink:href="classpkg__commands_1_1BeamerCommand.html#a2b6c04242d443d4ff36f255b06ce14be" target="_top" xlink:title="Teleport the player to the remembered room. ">
<polygon fill="white" stroke="black" points="434.5,-192.757 434.5,-211.757 637.5,-211.757 637.5,-192.757 434.5,-192.757"/>
<text text-anchor="middle" x="536" y="-199.757" font-family="Helvetica,sans-Serif" font-size="10.00">pkg_commands.BeamerCommand.teleport</text>
</a>
</g>
</g>
<!-- Node1&#45;&gt;Node16 -->
<g id="edge20" class="edge"><title>Node1&#45;&gt;Node16</title>
<path fill="none" stroke="midnightblue" d="M99.2479,-275.415C120.163,-257.275 152.65,-232.661 186,-221.257 266.382,-193.77 363.223,-190.664 434.48,-193.494"/>
<polygon fill="midnightblue" stroke="midnightblue" points="96.7056,-272.992 91.5558,-282.251 101.356,-278.225 96.7056,-272.992"/>
</g>
<!-- Node3 -->
<g id="node3" class="node"><title>Node3</title>
<g id="a_node3"><a xlink:href="classpkg__commands_1_1BeamerCommand.html#a139dc852e180cabd8af15cfed37dcf0e" target="_top" xlink:title="Teleport to the remembered room or remember a room. ">
<polygon fill="white" stroke="black" points="674.5,-211.757 674.5,-230.757 879.5,-230.757 879.5,-211.757 674.5,-211.757"/>
<text text-anchor="middle" x="777" y="-218.757" font-family="Helvetica,sans-Serif" font-size="10.00">pkg_commands.BeamerCommand.execute</text>
</a>
</g>
</g>
<!-- Node2&#45;&gt;Node3 -->
<g id="edge2" class="edge"><title>Node2&#45;&gt;Node3</title>
<path fill="none" stroke="midnightblue" d="M558.781,-376.673C607.322,-341.943 723.204,-259.032 762.614,-230.834"/>
<polygon fill="midnightblue" stroke="midnightblue" points="556.631,-373.908 550.534,-382.573 560.704,-379.601 556.631,-373.908"/>
</g>
<!-- Node15&#45;&gt;Node12 -->
<g id="edge17" class="edge"><title>Node15&#45;&gt;Node12</title>
<path fill="none" stroke="midnightblue" d="M376.942,-98.9304C395.647,-101.978 415.438,-104.688 434,-106.257 524.345,-113.891 547.669,-114.053 638,-106.257 669.86,-103.507 705.401,-97.2497 732.435,-91.8138"/>
<polygon fill="midnightblue" stroke="midnightblue" points="377.416,-95.4611 366.974,-97.2589 376.258,-102.365 377.416,-95.4611"/>
</g>
<!-- Node15&#45;&gt;Node16 -->
<g id="edge15" class="edge"><title>Node15&#45;&gt;Node16</title>
<path fill="none" stroke="midnightblue" d="M381.651,-99.8542C387.303,-102.043 392.804,-104.5 398,-107.257 417.173,-117.431 416.672,-127.186 434,-140.257 461.596,-161.072 496.469,-181.269 517.184,-192.694"/>
<polygon fill="midnightblue" stroke="midnightblue" points="382.618,-96.4828 372.023,-96.418 380.265,-103.076 382.618,-96.4828"/>
</g>
<!-- Node17 -->
<g id="node17" class="node"><title>Node17</title>
<g id="a_node17"><a xlink:href="classpkg__commands_1_1GoCommand.html#acbf1aa81fa5b1aef7cafb8b4e3ace3a9" target="_top" xlink:title="Check if the wanted Room is connected to the current Room and go to this room. ">
<polygon fill="white" stroke="black" points="456,-67.2569 456,-97.2569 616,-97.2569 616,-67.2569 456,-67.2569"/>
<text text-anchor="start" x="464" y="-85.2569" font-family="Helvetica,sans-Serif" font-size="10.00">pkg_commands.GoCommand.go</text>
<text text-anchor="middle" x="536" y="-74.2569" font-family="Helvetica,sans-Serif" font-size="10.00">RoomCheck</text>
</a>
</g>
</g>
<!-- Node15&#45;&gt;Node17 -->
<g id="edge18" class="edge"><title>Node15&#45;&gt;Node17</title>
<path fill="none" stroke="midnightblue" d="M382.455,-82.2569C406.574,-82.2569 432.492,-82.2569 455.996,-82.2569"/>
<polygon fill="midnightblue" stroke="midnightblue" points="382.24,-78.757 372.24,-82.2569 382.24,-85.757 382.24,-78.757"/>
</g>
<!-- Node16&#45;&gt;Node3 -->
<g id="edge16" class="edge"><title>Node16&#45;&gt;Node3</title>
<path fill="none" stroke="midnightblue" d="M647.655,-211.054C656.538,-211.76 665.487,-212.471 674.303,-213.172"/>
<polygon fill="midnightblue" stroke="midnightblue" points="647.911,-207.563 637.665,-210.26 647.356,-214.541 647.911,-207.563"/>
</g>
<!-- Node17&#45;&gt;Node12 -->
<g id="edge19" class="edge"><title>Node17&#45;&gt;Node12</title>
<path fill="none" stroke="midnightblue" d="M626.443,-82.2569C645.566,-82.2569 665.787,-82.2569 684.969,-82.2569"/>
<polygon fill="midnightblue" stroke="midnightblue" points="626.252,-78.757 616.252,-82.2569 626.252,-85.757 626.252,-78.757"/>
</g>
</g>
</svg>
