<?xml version="1.0" encoding="UTF-8" standalone="no"?>
<!DOCTYPE svg PUBLIC "-//W3C//DTD SVG 1.1//EN"
 "http://www.w3.org/Graphics/SVG/1.1/DTD/svg11.dtd">
<!-- Generated by graphviz version 2.36.0 (20140111.2315)
 -->
<!-- Title: pkg_game.UserInterface Pages: 1 -->
<svg width="760pt" height="868pt"
 viewBox="0.00 0.00 760.00 868.00" xmlns="http://www.w3.org/2000/svg" xmlns:xlink="http://www.w3.org/1999/xlink">
<g id="graph0" class="graph" transform="scale(1 1) rotate(0) translate(4 864)">
<title>pkg_game.UserInterface</title>
<polygon fill="white" stroke="none" points="-4,4 -4,-864 756,-864 756,4 -4,4"/>
<!-- Node1 -->
<g id="node1" class="node"><title>Node1</title>
<polygon fill="#bfbfbf" stroke="black" points="559,-184.5 559,-373.5 683,-373.5 683,-184.5 559,-184.5"/>
<text text-anchor="middle" x="621" y="-361.5" font-family="Helvetica,sans-Serif" font-size="10.00">pkg_game.UserInterface</text>
<polyline fill="none" stroke="black" points="559,-354.5 683,-354.5 "/>
<text text-anchor="start" x="567" y="-342.5" font-family="Helvetica,sans-Serif" font-size="10.00">&#45; myFrame</text>
<text text-anchor="start" x="567" y="-331.5" font-family="Helvetica,sans-Serif" font-size="10.00">&#45; entryField</text>
<text text-anchor="start" x="567" y="-320.5" font-family="Helvetica,sans-Serif" font-size="10.00">&#45; log</text>
<text text-anchor="start" x="567" y="-309.5" font-family="Helvetica,sans-Serif" font-size="10.00">&#45; image</text>
<text text-anchor="start" x="567" y="-298.5" font-family="Helvetica,sans-Serif" font-size="10.00">&#45; commandsLeftLabel</text>
<polyline fill="none" stroke="black" points="559,-291.5 683,-291.5 "/>
<text text-anchor="start" x="567" y="-279.5" font-family="Helvetica,sans-Serif" font-size="10.00">+ UserInterface()</text>
<text text-anchor="start" x="567" y="-268.5" font-family="Helvetica,sans-Serif" font-size="10.00">+ setCommandsLeft()</text>
<text text-anchor="start" x="567" y="-257.5" font-family="Helvetica,sans-Serif" font-size="10.00">+ print()</text>
<text text-anchor="start" x="567" y="-246.5" font-family="Helvetica,sans-Serif" font-size="10.00">+ println()</text>
<text text-anchor="start" x="567" y="-235.5" font-family="Helvetica,sans-Serif" font-size="10.00">+ showImage()</text>
<text text-anchor="start" x="567" y="-224.5" font-family="Helvetica,sans-Serif" font-size="10.00">+ enable()</text>
<text text-anchor="start" x="567" y="-213.5" font-family="Helvetica,sans-Serif" font-size="10.00">+ actionPerformed()</text>
<text text-anchor="start" x="567" y="-202.5" font-family="Helvetica,sans-Serif" font-size="10.00">&#45; createGUI()</text>
<text text-anchor="start" x="567" y="-191.5" font-family="Helvetica,sans-Serif" font-size="10.00">&#45; processCommand()</text>
</g>
<!-- Node3 -->
<g id="node3" class="node"><title>Node3</title>
<g id="a_node3"><a xlink:href="classpkg__game_1_1GameEngine.html" target="_top" xlink:title="Class handling the gameplay for the game. ">
<polygon fill="white" stroke="black" points="406.5,-1 406.5,-135 527.5,-135 527.5,-1 406.5,-1"/>
<text text-anchor="middle" x="467" y="-123" font-family="Helvetica,sans-Serif" font-size="10.00">pkg_game.GameEngine</text>
<polyline fill="none" stroke="black" points="406.5,-116 527.5,-116 "/>
<text text-anchor="start" x="414.5" y="-104" font-family="Helvetica,sans-Serif" font-size="10.00">&#45; helpCount</text>
<text text-anchor="start" x="414.5" y="-93" font-family="Helvetica,sans-Serif" font-size="10.00">&#45; commandCountDown</text>
<polyline fill="none" stroke="black" points="406.5,-86 527.5,-86 "/>
<text text-anchor="start" x="414.5" y="-74" font-family="Helvetica,sans-Serif" font-size="10.00">+ GameEngine()</text>
<text text-anchor="start" x="414.5" y="-63" font-family="Helvetica,sans-Serif" font-size="10.00">+ setGUI()</text>
<text text-anchor="start" x="414.5" y="-52" font-family="Helvetica,sans-Serif" font-size="10.00">+ processCommand()</text>
<text text-anchor="start" x="414.5" y="-41" font-family="Helvetica,sans-Serif" font-size="10.00">+ getRooms()</text>
<text text-anchor="start" x="414.5" y="-30" font-family="Helvetica,sans-Serif" font-size="10.00">&#45; printWelcome()</text>
<text text-anchor="start" x="414.5" y="-19" font-family="Helvetica,sans-Serif" font-size="10.00">&#45; createRooms()</text>
<text text-anchor="start" x="414.5" y="-8" font-family="Helvetica,sans-Serif" font-size="10.00">&#45; endGame()</text>
</a>
</g>
</g>
<!-- Node1&#45;&gt;Node3 -->
<g id="edge3" class="edge"><title>Node1&#45;&gt;Node3</title>
<path fill="none" stroke="#404040" d="M596.924,-184.234C592.204,-173.552 586.611,-163.21 580,-154 568.501,-137.981 553.092,-123.645 537.359,-111.515"/>
<polygon fill="none" stroke="#404040" points="537.197,-111.394 529.994,-111.037 527.554,-104.251 534.756,-104.608 537.197,-111.394"/>
<text text-anchor="middle" x="597.5" y="-157.5" font-family="Helvetica,sans-Serif" font-size="10.00"> &#45;gui</text>
</g>
<!-- Node2 -->
<g id="node2" class="node"><title>Node2</title>
<polygon fill="white" stroke="#bfbfbf" points="672.5,-504.5 672.5,-561.5 751.5,-561.5 751.5,-504.5 672.5,-504.5"/>
<text text-anchor="middle" x="712" y="-549.5" font-family="Helvetica,sans-Serif" font-size="10.00">ActionListener</text>
<polyline fill="none" stroke="#bfbfbf" points="672.5,-542.5 751.5,-542.5 "/>
<text text-anchor="middle" x="712" y="-530.5" font-family="Helvetica,sans-Serif" font-size="10.00"> </text>
<polyline fill="none" stroke="#bfbfbf" points="672.5,-523.5 751.5,-523.5 "/>
<text text-anchor="middle" x="712" y="-511.5" font-family="Helvetica,sans-Serif" font-size="10.00"> </text>
</g>
<!-- Node2&#45;&gt;Node1 -->
<g id="edge1" class="edge"><title>Node2&#45;&gt;Node1</title>
<path fill="none" stroke="midnightblue" d="M698.382,-494.288C686.884,-462.448 669.926,-415.488 654.813,-373.637"/>
<polygon fill="none" stroke="midnightblue" points="695.225,-495.852 701.914,-504.069 701.809,-493.474 695.225,-495.852"/>
</g>
<!-- Node3&#45;&gt;Node1 -->
<g id="edge2" class="edge"><title>Node3&#45;&gt;Node1</title>
<path fill="none" stroke="#404040" d="M518.8,-135.144C523.637,-141.49 528.433,-147.85 533,-154 539.174,-162.315 545.523,-170.994 551.848,-179.731"/>
<polygon fill="none" stroke="#404040" points="551.948,-179.869 558.702,-182.395 558.968,-189.602 552.214,-187.075 551.948,-179.869"/>
<text text-anchor="middle" x="558.5" y="-157.5" font-family="Helvetica,sans-Serif" font-size="10.00"> &#45;engine</text>
</g>
<!-- Node4 -->
<g id="node4" class="node"><title>Node4</title>
<polygon fill="white" stroke="#bfbfbf" points="81,-245 81,-313 235,-313 235,-245 81,-245"/>
<text text-anchor="start" x="89" y="-301" font-family="Helvetica,sans-Serif" font-size="10.00">HashSet&lt; pkg_world.pkg</text>
<text text-anchor="middle" x="158" y="-290" font-family="Helvetica,sans-Serif" font-size="10.00">_characters.MovingCharacter &gt;</text>
<polyline fill="none" stroke="#bfbfbf" points="81,-283 235,-283 "/>
<text text-anchor="middle" x="158" y="-271" font-family="Helvetica,sans-Serif" font-size="10.00"> </text>
<polyline fill="none" stroke="#bfbfbf" points="81,-264 235,-264 "/>
<text text-anchor="middle" x="158" y="-252" font-family="Helvetica,sans-Serif" font-size="10.00"> </text>
</g>
<!-- Node4&#45;&gt;Node3 -->
<g id="edge4" class="edge"><title>Node4&#45;&gt;Node3</title>
<path fill="none" stroke="#404040" d="M183.394,-244.798C199.34,-225.437 221.161,-201.47 244,-184 290.507,-148.427 349.655,-118.505 395.348,-98.1078"/>
<polygon fill="none" stroke="#404040" points="395.379,-98.0943 399.259,-92.0156 406.362,-93.2587 402.482,-99.3374 395.379,-98.0943"/>
<text text-anchor="middle" x="327" y="-157.5" font-family="Helvetica,sans-Serif" font-size="10.00"> &#45;movingCharacters</text>
</g>
<!-- Node5 -->
<g id="node5" class="node"><title>Node5</title>
<g id="a_node5"><a xlink:href="classpkg__world_1_1Player.html" target="_top" xlink:title="class Player used to handle the user&#39;s player. ">
<polygon fill="white" stroke="black" points="253,-184.5 253,-373.5 375,-373.5 375,-184.5 253,-184.5"/>
<text text-anchor="middle" x="314" y="-361.5" font-family="Helvetica,sans-Serif" font-size="10.00">pkg_world.Player</text>
<polyline fill="none" stroke="black" points="253,-354.5 375,-354.5 "/>
<text text-anchor="start" x="261" y="-342.5" font-family="Helvetica,sans-Serif" font-size="10.00">&#45; name</text>
<text text-anchor="start" x="261" y="-331.5" font-family="Helvetica,sans-Serif" font-size="10.00">&#45; backpackWeight</text>
<text text-anchor="start" x="261" y="-320.5" font-family="Helvetica,sans-Serif" font-size="10.00">&#45; maxWeight</text>
<polyline fill="none" stroke="black" points="253,-313.5 375,-313.5 "/>
<text text-anchor="start" x="261" y="-301.5" font-family="Helvetica,sans-Serif" font-size="10.00">+ Player()</text>
<text text-anchor="start" x="261" y="-290.5" font-family="Helvetica,sans-Serif" font-size="10.00">+ getName()</text>
<text text-anchor="start" x="261" y="-279.5" font-family="Helvetica,sans-Serif" font-size="10.00">+ getMaxWeight()</text>
<text text-anchor="start" x="261" y="-268.5" font-family="Helvetica,sans-Serif" font-size="10.00">+ setMaxWeight()</text>
<text text-anchor="start" x="261" y="-257.5" font-family="Helvetica,sans-Serif" font-size="10.00">+ getCurrentRoom()</text>
<text text-anchor="start" x="261" y="-246.5" font-family="Helvetica,sans-Serif" font-size="10.00">+ goRoom()</text>
<text text-anchor="start" x="261" y="-235.5" font-family="Helvetica,sans-Serif" font-size="10.00">+ getPreviousRoom()</text>
<text text-anchor="start" x="261" y="-224.5" font-family="Helvetica,sans-Serif" font-size="10.00">+ pushPreviousRooms()</text>
<text text-anchor="start" x="261" y="-213.5" font-family="Helvetica,sans-Serif" font-size="10.00">+ pushForward()</text>
<text text-anchor="start" x="261" y="-202.5" font-family="Helvetica,sans-Serif" font-size="10.00">+ popPreviousRooms()</text>
<text text-anchor="start" x="261" y="-191.5" font-family="Helvetica,sans-Serif" font-size="10.00">and 10 more...</text>
</a>
</g>
</g>
<!-- Node5&#45;&gt;Node3 -->
<g id="edge5" class="edge"><title>Node5&#45;&gt;Node3</title>
<path fill="none" stroke="#404040" d="M375.129,-194.497C387.123,-178.113 399.642,-161.011 411.442,-144.893"/>
<polygon fill="none" stroke="#404040" points="411.596,-144.683 411.912,-137.479 418.684,-135 418.368,-142.204 411.596,-144.683"/>
<text text-anchor="middle" x="421.5" y="-157.5" font-family="Helvetica,sans-Serif" font-size="10.00"> &#45;player</text>
</g>
<!-- Node6 -->
<g id="node6" class="node"><title>Node6</title>
<g id="a_node6"><a xlink:href="classpkg__world_1_1Room.html" target="_top" xlink:title="Class used to handle a game&#39;s room. ">
<polygon fill="white" stroke="black" points="257,-433 257,-633 371,-633 371,-433 257,-433"/>
<text text-anchor="middle" x="314" y="-621" font-family="Helvetica,sans-Serif" font-size="10.00">pkg_world.Room</text>
<polyline fill="none" stroke="black" points="257,-614 371,-614 "/>
<text text-anchor="start" x="265" y="-602" font-family="Helvetica,sans-Serif" font-size="10.00">&#45; description</text>
<text text-anchor="start" x="265" y="-591" font-family="Helvetica,sans-Serif" font-size="10.00">&#45; imageName</text>
<polyline fill="none" stroke="black" points="257,-584 371,-584 "/>
<text text-anchor="start" x="265" y="-572" font-family="Helvetica,sans-Serif" font-size="10.00">+ Room()</text>
<text text-anchor="start" x="265" y="-561" font-family="Helvetica,sans-Serif" font-size="10.00">+ Room()</text>
<text text-anchor="start" x="265" y="-550" font-family="Helvetica,sans-Serif" font-size="10.00">+ setExit()</text>
<text text-anchor="start" x="265" y="-539" font-family="Helvetica,sans-Serif" font-size="10.00">+ getContainedItems()</text>
<text text-anchor="start" x="265" y="-528" font-family="Helvetica,sans-Serif" font-size="10.00">+ getItem()</text>
<text text-anchor="start" x="265" y="-517" font-family="Helvetica,sans-Serif" font-size="10.00">+ getCharacter()</text>
<text text-anchor="start" x="265" y="-506" font-family="Helvetica,sans-Serif" font-size="10.00">+ hasItem()</text>
<text text-anchor="start" x="265" y="-495" font-family="Helvetica,sans-Serif" font-size="10.00">+ hasCharacter()</text>
<text text-anchor="start" x="265" y="-484" font-family="Helvetica,sans-Serif" font-size="10.00">+ addItem()</text>
<text text-anchor="start" x="265" y="-473" font-family="Helvetica,sans-Serif" font-size="10.00">+ addCharacter()</text>
<text text-anchor="start" x="265" y="-462" font-family="Helvetica,sans-Serif" font-size="10.00">and 10 more...</text>
<text text-anchor="start" x="265" y="-451" font-family="Helvetica,sans-Serif" font-size="10.00">&#45; getHumanList()</text>
<text text-anchor="start" x="265" y="-440" font-family="Helvetica,sans-Serif" font-size="10.00">&#45; getExitString()</text>
</a>
</g>
</g>
<!-- Node6&#45;&gt;Node5 -->
<g id="edge6" class="edge"><title>Node6&#45;&gt;Node5</title>
<path fill="none" stroke="#404040" d="M314,-432.765C314,-417.441 314,-401.563 314,-386.096"/>
<polygon fill="none" stroke="#404040" points="314,-385.798 310,-379.798 314,-373.798 318,-379.798 314,-385.798"/>
<text text-anchor="middle" x="346.5" y="-406" font-family="Helvetica,sans-Serif" font-size="10.00"> &#45;beamerRoom</text>
<text text-anchor="middle" x="346.5" y="-395" font-family="Helvetica,sans-Serif" font-size="10.00">&#45;currentRoom</text>
</g>
<!-- Node7 -->
<g id="node7" class="node"><title>Node7</title>
<polygon fill="white" stroke="#bfbfbf" points="-0.5,-683 -0.5,-751 114.5,-751 114.5,-683 -0.5,-683"/>
<text text-anchor="start" x="7.5" y="-739" font-family="Helvetica,sans-Serif" font-size="10.00">HashMap&lt; String, pkg</text>
<text text-anchor="middle" x="57" y="-728" font-family="Helvetica,sans-Serif" font-size="10.00">_world.Room &gt;</text>
<polyline fill="none" stroke="#bfbfbf" points="-0.5,-721 114.5,-721 "/>
<text text-anchor="middle" x="57" y="-709" font-family="Helvetica,sans-Serif" font-size="10.00"> </text>
<polyline fill="none" stroke="#bfbfbf" points="-0.5,-702 114.5,-702 "/>
<text text-anchor="middle" x="57" y="-690" font-family="Helvetica,sans-Serif" font-size="10.00"> </text>
</g>
<!-- Node7&#45;&gt;Node6 -->
<g id="edge7" class="edge"><title>Node7&#45;&gt;Node6</title>
<path fill="none" stroke="#404040" d="M114.601,-686.403C117.769,-684.89 120.917,-683.413 124,-682 155.888,-667.385 164.228,-664.508 197,-652 216.562,-644.534 226.371,-647.648 246.767,-633.905"/>
<polygon fill="none" stroke="#404040" points="246.952,-633.767 249.381,-626.978 256.583,-626.608 254.154,-633.398 246.952,-633.767"/>
<text text-anchor="middle" x="211" y="-655.5" font-family="Helvetica,sans-Serif" font-size="10.00"> &#45;exits</text>
</g>
<!-- Node8 -->
<g id="node8" class="node"><title>Node8</title>
<g id="a_node8"><a xlink:href="classpkg__world_1_1pkg__items_1_1ItemList.html" target="_top" xlink:title="class ItemList used to handle a list of Item (inventory). ">
<polygon fill="white" stroke="black" points="336.5,-688.5 336.5,-745.5 483.5,-745.5 483.5,-688.5 336.5,-688.5"/>
<text text-anchor="middle" x="410" y="-733.5" font-family="Helvetica,sans-Serif" font-size="10.00">pkg_world.pkg_items.ItemList</text>
<polyline fill="none" stroke="black" points="336.5,-726.5 483.5,-726.5 "/>
<text text-anchor="middle" x="410" y="-714.5" font-family="Helvetica,sans-Serif" font-size="10.00"> </text>
<polyline fill="none" stroke="black" points="336.5,-707.5 483.5,-707.5 "/>
<text text-anchor="start" x="344.5" y="-695.5" font-family="Helvetica,sans-Serif" font-size="10.00">+ transfer()</text>
</a>
</g>
</g>
<!-- Node8&#45;&gt;Node5 -->
<g id="edge11" class="edge"><title>Node8&#45;&gt;Node5</title>
<path fill="none" stroke="#404040" d="M412.181,-688.187C415.711,-630.956 419.019,-496.605 383,-392 382.008,-389.119 380.932,-386.233 379.783,-383.352"/>
<polygon fill="none" stroke="#404040" points="379.761,-383.301 373.714,-379.371 375.016,-372.279 381.063,-376.208 379.761,-383.301"/>
<text text-anchor="middle" x="439.5" y="-530.5" font-family="Helvetica,sans-Serif" font-size="10.00"> &#45;backpack</text>
</g>
<!-- Node8&#45;&gt;Node6 -->
<g id="edge8" class="edge"><title>Node8&#45;&gt;Node6</title>
<path fill="none" stroke="#404040" d="M361.808,-688.432C353.074,-681.475 344.884,-673.295 339,-664 335.181,-657.966 331.92,-651.482 329.139,-644.746"/>
<polygon fill="none" stroke="#404040" points="329.038,-644.47 323.213,-640.218 324.898,-633.207 330.722,-637.458 329.038,-644.47"/>
<text text-anchor="middle" x="375.5" y="-655.5" font-family="Helvetica,sans-Serif" font-size="10.00"> &#45;containedItems</text>
</g>
<!-- Node9 -->
<g id="node9" class="node"><title>Node9</title>
<polygon fill="white" stroke="#bfbfbf" points="359.5,-791 359.5,-859 460.5,-859 460.5,-791 359.5,-791"/>
<text text-anchor="start" x="367.5" y="-847" font-family="Helvetica,sans-Serif" font-size="10.00">java::util::HashMap</text>
<text text-anchor="middle" x="410" y="-836" font-family="Helvetica,sans-Serif" font-size="10.00">&lt; String, Item &gt;</text>
<polyline fill="none" stroke="#bfbfbf" points="359.5,-829 460.5,-829 "/>
<text text-anchor="middle" x="410" y="-817" font-family="Helvetica,sans-Serif" font-size="10.00"> </text>
<polyline fill="none" stroke="#bfbfbf" points="359.5,-810 460.5,-810 "/>
<text text-anchor="middle" x="410" y="-798" font-family="Helvetica,sans-Serif" font-size="10.00"> </text>
</g>
<!-- Node9&#45;&gt;Node8 -->
<g id="edge9" class="edge"><title>Node9&#45;&gt;Node8</title>
<path fill="none" stroke="midnightblue" d="M410,-780.639C410,-768.87 410,-756.444 410,-745.791"/>
<polygon fill="none" stroke="midnightblue" points="406.5,-780.752 410,-790.752 413.5,-780.752 406.5,-780.752"/>
</g>
<!-- Node10 -->
<g id="node10" class="node"><title>Node10</title>
<polygon fill="white" stroke="#bfbfbf" points="133,-683 133,-751 303,-751 303,-683 133,-683"/>
<text text-anchor="start" x="141" y="-739" font-family="Helvetica,sans-Serif" font-size="10.00">HashMap&lt; String, pkg</text>
<text text-anchor="middle" x="218" y="-728" font-family="Helvetica,sans-Serif" font-size="10.00">_world.pkg_characters.Character &gt;</text>
<polyline fill="none" stroke="#bfbfbf" points="133,-721 303,-721 "/>
<text text-anchor="middle" x="218" y="-709" font-family="Helvetica,sans-Serif" font-size="10.00"> </text>
<polyline fill="none" stroke="#bfbfbf" points="133,-702 303,-702 "/>
<text text-anchor="middle" x="218" y="-690" font-family="Helvetica,sans-Serif" font-size="10.00"> </text>
</g>
<!-- Node10&#45;&gt;Node6 -->
<g id="edge10" class="edge"><title>Node10&#45;&gt;Node6</title>
<path fill="none" stroke="#404040" d="M222.74,-682.754C224.99,-672.542 228.265,-661.498 233,-652 237.646,-642.68 241.789,-642.359 248,-634 248.558,-633.249 249.117,-632.493 249.677,-631.733"/>
<polygon fill="none" stroke="#404040" points="249.934,-631.377 250.21,-624.172 256.968,-621.655 256.692,-628.861 249.934,-631.377"/>
<text text-anchor="middle" x="281.5" y="-655.5" font-family="Helvetica,sans-Serif" font-size="10.00"> &#45;containedCharacters</text>
</g>
<!-- Node11 -->
<g id="node11" class="node"><title>Node11</title>
<polygon fill="white" stroke="#bfbfbf" points="105,-504.5 105,-561.5 239,-561.5 239,-504.5 105,-504.5"/>
<text text-anchor="middle" x="172" y="-549.5" font-family="Helvetica,sans-Serif" font-size="10.00">Stack&lt; pkg_world.Room &gt;</text>
<polyline fill="none" stroke="#bfbfbf" points="105,-542.5 239,-542.5 "/>
<text text-anchor="middle" x="172" y="-530.5" font-family="Helvetica,sans-Serif" font-size="10.00"> </text>
<polyline fill="none" stroke="#bfbfbf" points="105,-523.5 239,-523.5 "/>
<text text-anchor="middle" x="172" y="-511.5" font-family="Helvetica,sans-Serif" font-size="10.00"> </text>
</g>
<!-- Node11&#45;&gt;Node5 -->
<g id="edge12" class="edge"><title>Node11&#45;&gt;Node5</title>
<path fill="none" stroke="#404040" d="M182.588,-504.403C194.055,-475.603 213.599,-429.501 235,-392 238.513,-385.844 242.279,-379.604 246.19,-373.383"/>
<polygon fill="none" stroke="#404040" points="246.406,-373.046 246.283,-365.836 252.891,-362.949 253.014,-370.159 246.406,-373.046"/>
<text text-anchor="middle" x="272.5" y="-400.5" font-family="Helvetica,sans-Serif" font-size="10.00"> &#45;previousRooms</text>
</g>
<!-- Node12 -->
<g id="node12" class="node"><title>Node12</title>
<polygon fill="white" stroke="#bfbfbf" points="393.5,-250.5 393.5,-307.5 540.5,-307.5 540.5,-250.5 393.5,-250.5"/>
<text text-anchor="middle" x="467" y="-295.5" font-family="Helvetica,sans-Serif" font-size="10.00">ArrayList&lt; pkg_world.Room &gt;</text>
<polyline fill="none" stroke="#bfbfbf" points="393.5,-288.5 540.5,-288.5 "/>
<text text-anchor="middle" x="467" y="-276.5" font-family="Helvetica,sans-Serif" font-size="10.00"> </text>
<polyline fill="none" stroke="#bfbfbf" points="393.5,-269.5 540.5,-269.5 "/>
<text text-anchor="middle" x="467" y="-257.5" font-family="Helvetica,sans-Serif" font-size="10.00"> </text>
</g>
<!-- Node12&#45;&gt;Node3 -->
<g id="edge13" class="edge"><title>Node12&#45;&gt;Node3</title>
<path fill="none" stroke="#404040" d="M467,-250.246C467,-224.009 467,-183.386 467,-147.244"/>
<polygon fill="none" stroke="#404040" points="467,-147.186 463,-141.186 467,-135.186 471,-141.186 467,-147.186"/>
<text text-anchor="middle" x="498" y="-157.5" font-family="Helvetica,sans-Serif" font-size="10.00"> &#45;gameRooms</text>
</g>
<!-- Node13 -->
<g id="node13" class="node"><title>Node13</title>
<polygon fill="white" stroke="#bfbfbf" points="512,-504.5 512,-561.5 654,-561.5 654,-504.5 512,-504.5"/>
<text text-anchor="middle" x="583" y="-549.5" font-family="Helvetica,sans-Serif" font-size="10.00">HashMap&lt; JButton, String &gt;</text>
<polyline fill="none" stroke="#bfbfbf" points="512,-542.5 654,-542.5 "/>
<text text-anchor="middle" x="583" y="-530.5" font-family="Helvetica,sans-Serif" font-size="10.00"> </text>
<polyline fill="none" stroke="#bfbfbf" points="512,-523.5 654,-523.5 "/>
<text text-anchor="middle" x="583" y="-511.5" font-family="Helvetica,sans-Serif" font-size="10.00"> </text>
</g>
<!-- Node13&#45;&gt;Node1 -->
<g id="edge14" class="edge"><title>Node13&#45;&gt;Node1</title>
<path fill="none" stroke="#404040" d="M587.212,-504.069C591.539,-475.371 598.545,-428.91 605.059,-385.716"/>
<polygon fill="none" stroke="#404040" points="605.091,-385.503 602.03,-378.973 606.88,-373.637 609.941,-380.166 605.091,-385.503"/>
<text text-anchor="middle" x="623.5" y="-400.5" font-family="Helvetica,sans-Serif" font-size="10.00"> &#45;buttons</text>
</g>
</g>
</svg>
