<?xml version="1.0" encoding="UTF-8" standalone="no"?>
<!DOCTYPE svg PUBLIC "-//W3C//DTD SVG 1.1//EN"
 "http://www.w3.org/Graphics/SVG/1.1/DTD/svg11.dtd">
<!-- Generated by graphviz version 2.36.0 (20140111.2315)
 -->
<!-- Title: pkg_commands.Command.getMessage Pages: 1 -->
<svg width="868pt" height="159pt"
 viewBox="0.00 0.00 868.00 159.00" xmlns="http://www.w3.org/2000/svg" xmlns:xlink="http://www.w3.org/1999/xlink">
<g id="graph0" class="graph" transform="scale(1 1) rotate(0) translate(4 155)">
<title>pkg_commands.Command.getMessage</title>
<polygon fill="white" stroke="none" points="-4,4 -4,-155 864,-155 864,4 -4,4"/>
<!-- Node1 -->
<g id="node1" class="node"><title>Node1</title>
<polygon fill="#bfbfbf" stroke="black" points="0,-88 0,-118 150,-118 150,-88 0,-88"/>
<text text-anchor="start" x="8" y="-106" font-family="Helvetica,sans-Serif" font-size="10.00">pkg_commands.Command.get</text>
<text text-anchor="middle" x="75" y="-95" font-family="Helvetica,sans-Serif" font-size="10.00">Message</text>
</g>
<!-- Node2 -->
<g id="node2" class="node"><title>Node2</title>
<g id="a_node2"><a xlink:href="classpkg__commands_1_1TestCommand.html#a1ff07c27a46910d20c2e4569888892ca" target="_top" xlink:title="Test series of Commands stored in a .test file and store the messages in the message field...">
<polygon fill="white" stroke="black" points="186.5,-131.5 186.5,-150.5 377.5,-150.5 377.5,-131.5 186.5,-131.5"/>
<text text-anchor="middle" x="282" y="-138.5" font-family="Helvetica,sans-Serif" font-size="10.00">pkg_commands.TestCommand.execute</text>
</a>
</g>
</g>
<!-- Node1&#45;&gt;Node2 -->
<g id="edge1" class="edge"><title>Node1&#45;&gt;Node2</title>
<path fill="none" stroke="midnightblue" d="M160.014,-118.573C183.587,-122.943 208.509,-127.563 229.567,-131.466"/>
<polygon fill="midnightblue" stroke="midnightblue" points="160.48,-115.1 150.01,-116.719 159.204,-121.983 160.48,-115.1"/>
</g>
<!-- Node3 -->
<g id="node3" class="node"><title>Node3</title>
<g id="a_node3"><a xlink:href="classpkg__commands_1_1HelpCommand.html#a332d3e57539dfc82f8c539f8b3e24dd6" target="_top" xlink:title="Saves user&#39;s help in the parameter field. ">
<polygon fill="white" stroke="black" points="186.5,-93.5 186.5,-112.5 377.5,-112.5 377.5,-93.5 186.5,-93.5"/>
<text text-anchor="middle" x="282" y="-100.5" font-family="Helvetica,sans-Serif" font-size="10.00">pkg_commands.HelpCommand.execute</text>
</a>
</g>
</g>
<!-- Node1&#45;&gt;Node3 -->
<g id="edge2" class="edge"><title>Node1&#45;&gt;Node3</title>
<path fill="none" stroke="midnightblue" d="M160.091,-103C168.764,-103 177.618,-103 186.395,-103"/>
<polygon fill="midnightblue" stroke="midnightblue" points="160.01,-99.5001 150.01,-103 160.01,-106.5 160.01,-99.5001"/>
</g>
<!-- Node4 -->
<g id="node4" class="node"><title>Node4</title>
<g id="a_node4"><a xlink:href="classpkg__commands_1_1GoCommand.html#a210afbc5f3ef34d3ad5759d853c8f8c2" target="_top" xlink:title="Go to the Room without checking. ">
<polygon fill="white" stroke="black" points="202,-44 202,-74 362,-74 362,-44 202,-44"/>
<text text-anchor="start" x="210" y="-62" font-family="Helvetica,sans-Serif" font-size="10.00">pkg_commands.GoCommand.go</text>
<text text-anchor="middle" x="282" y="-51" font-family="Helvetica,sans-Serif" font-size="10.00">RoomNoCheck</text>
</a>
</g>
</g>
<!-- Node1&#45;&gt;Node4 -->
<g id="edge3" class="edge"><title>Node1&#45;&gt;Node4</title>
<path fill="none" stroke="midnightblue" d="M155.95,-85.8399C174.116,-81.941 193.276,-77.8286 210.992,-74.0262"/>
<polygon fill="midnightblue" stroke="midnightblue" points="155.019,-82.4601 145.976,-87.9808 156.488,-89.3042 155.019,-82.4601"/>
</g>
<!-- Node5 -->
<g id="node5" class="node"><title>Node5</title>
<g id="a_node5"><a xlink:href="classpkg__commands_1_1BeamerCommand.html#a2b6c04242d443d4ff36f255b06ce14be" target="_top" xlink:title="Teleport the player to the remembered room. ">
<polygon fill="white" stroke="black" points="414.5,-87.5 414.5,-106.5 617.5,-106.5 617.5,-87.5 414.5,-87.5"/>
<text text-anchor="middle" x="516" y="-94.5" font-family="Helvetica,sans-Serif" font-size="10.00">pkg_commands.BeamerCommand.teleport</text>
</a>
</g>
</g>
<!-- Node4&#45;&gt;Node5 -->
<g id="edge4" class="edge"><title>Node4&#45;&gt;Node5</title>
<path fill="none" stroke="midnightblue" d="M372.113,-73.5961C400.46,-78.2392 431.075,-83.2537 456.667,-87.4455"/>
<polygon fill="midnightblue" stroke="midnightblue" points="372.627,-70.1337 362.192,-71.9712 371.495,-77.0416 372.627,-70.1337"/>
</g>
<!-- Node7 -->
<g id="node7" class="node"><title>Node7</title>
<g id="a_node7"><a xlink:href="classpkg__commands_1_1GoCommand.html#a82e9a64a0fac612f788060a90c83f9b1" target="_top" xlink:title="Make the player go to the Room through it&#39;s direction in the parameter field. ">
<polygon fill="white" stroke="black" points="665,-27.5 665,-46.5 849,-46.5 849,-27.5 665,-27.5"/>
<text text-anchor="middle" x="757" y="-34.5" font-family="Helvetica,sans-Serif" font-size="10.00">pkg_commands.GoCommand.execute</text>
</a>
</g>
</g>
<!-- Node4&#45;&gt;Node7 -->
<g id="edge6" class="edge"><title>Node4&#45;&gt;Node7</title>
<path fill="none" stroke="midnightblue" d="M372.168,-54.8526C455.867,-50.9597 580.484,-45.1635 664.828,-41.2405"/>
<polygon fill="midnightblue" stroke="midnightblue" points="371.996,-51.3568 362.17,-55.3177 372.321,-58.3492 371.996,-51.3568"/>
</g>
<!-- Node8 -->
<g id="node8" class="node"><title>Node8</title>
<g id="a_node8"><a xlink:href="classpkg__commands_1_1GoCommand.html#acbf1aa81fa5b1aef7cafb8b4e3ace3a9" target="_top" xlink:title="Check if the wanted Room is connected to the current Room and go to this room. ">
<polygon fill="white" stroke="black" points="436,-0 436,-30 596,-30 596,-0 436,-0"/>
<text text-anchor="start" x="444" y="-18" font-family="Helvetica,sans-Serif" font-size="10.00">pkg_commands.GoCommand.go</text>
<text text-anchor="middle" x="516" y="-7" font-family="Helvetica,sans-Serif" font-size="10.00">RoomCheck</text>
</a>
</g>
</g>
<!-- Node4&#45;&gt;Node8 -->
<g id="edge7" class="edge"><title>Node4&#45;&gt;Node8</title>
<path fill="none" stroke="midnightblue" d="M372.055,-42.1103C393.034,-38.1315 415.258,-33.9166 435.771,-30.0262"/>
<polygon fill="midnightblue" stroke="midnightblue" points="371.365,-38.6786 362.192,-43.9808 372.669,-45.556 371.365,-38.6786"/>
</g>
<!-- Node6 -->
<g id="node6" class="node"><title>Node6</title>
<g id="a_node6"><a xlink:href="classpkg__commands_1_1BeamerCommand.html#a139dc852e180cabd8af15cfed37dcf0e" target="_top" xlink:title="Teleport to the remembered room or remember a room. ">
<polygon fill="white" stroke="black" points="654.5,-87.5 654.5,-106.5 859.5,-106.5 859.5,-87.5 654.5,-87.5"/>
<text text-anchor="middle" x="757" y="-94.5" font-family="Helvetica,sans-Serif" font-size="10.00">pkg_commands.BeamerCommand.execute</text>
</a>
</g>
</g>
<!-- Node5&#45;&gt;Node6 -->
<g id="edge5" class="edge"><title>Node5&#45;&gt;Node6</title>
<path fill="none" stroke="midnightblue" d="M627.942,-97C636.731,-97 645.581,-97 654.303,-97"/>
<polygon fill="midnightblue" stroke="midnightblue" points="627.665,-93.5001 617.665,-97 627.665,-100.5 627.665,-93.5001"/>
</g>
<!-- Node8&#45;&gt;Node7 -->
<g id="edge8" class="edge"><title>Node8&#45;&gt;Node7</title>
<path fill="none" stroke="midnightblue" d="M606.443,-23.2333C625.566,-24.9935 645.787,-26.8549 664.969,-28.6206"/>
<polygon fill="midnightblue" stroke="midnightblue" points="606.53,-19.7266 596.252,-22.2951 605.889,-26.6971 606.53,-19.7266"/>
</g>
</g>
</svg>
