<?xml version="1.0" encoding="UTF-8" standalone="no"?>
<!DOCTYPE svg PUBLIC "-//W3C//DTD SVG 1.1//EN"
 "http://www.w3.org/Graphics/SVG/1.1/DTD/svg11.dtd">
<!-- Generated by graphviz version 2.36.0 (20140111.2315)
 -->
<!-- Title: Command.hasParameter Pages: 1 -->
<svg width="304pt" height="256pt"
 viewBox="0.00 0.00 304.00 256.00" xmlns="http://www.w3.org/2000/svg" xmlns:xlink="http://www.w3.org/1999/xlink">
<g id="graph0" class="graph" transform="scale(1 1) rotate(0) translate(4 252)">
<title>Command.hasParameter</title>
<polygon fill="white" stroke="none" points="-4,4 -4,-252 300,-252 300,4 -4,4"/>
<!-- Node1 -->
<g id="node1" class="node"><title>Node1</title>
<polygon fill="#bfbfbf" stroke="black" points="0.5,-114.5 0.5,-133.5 125.5,-133.5 125.5,-114.5 0.5,-114.5"/>
<text text-anchor="middle" x="63" y="-121.5" font-family="Helvetica,sans-Serif" font-size="10.00">Command.hasParameter</text>
</g>
<!-- Node2 -->
<g id="node2" class="node"><title>Node2</title>
<g id="a_node2"><a xlink:href="classLookCommand.html#a3b67eafb4956b1369904b273303ee7df" target="_top" xlink:title="Saves the information about the current Room or a given Item in the message field. ">
<polygon fill="white" stroke="black" points="169,-228.5 169,-247.5 289,-247.5 289,-228.5 169,-228.5"/>
<text text-anchor="middle" x="229" y="-235.5" font-family="Helvetica,sans-Serif" font-size="10.00">LookCommand.execute</text>
</a>
</g>
</g>
<!-- Node1&#45;&gt;Node2 -->
<g id="edge1" class="edge"><title>Node1&#45;&gt;Node2</title>
<path fill="none" stroke="midnightblue" d="M77.524,-141.602C94.8468,-162.963 126.859,-198.642 162,-219 168.603,-222.825 176.03,-225.926 183.455,-228.424"/>
<polygon fill="midnightblue" stroke="midnightblue" points="80.1864,-139.327 71.2307,-133.666 74.7016,-143.676 80.1864,-139.327"/>
</g>
<!-- Node3 -->
<g id="node3" class="node"><title>Node3</title>
<g id="a_node3"><a xlink:href="classDropCommand.html#a52432de0841ff8eb85d4f115965aecd1" target="_top" xlink:title="Drop the Item through it&#39;s name in the parameter field. ">
<polygon fill="white" stroke="black" points="169,-190.5 169,-209.5 289,-209.5 289,-190.5 169,-190.5"/>
<text text-anchor="middle" x="229" y="-197.5" font-family="Helvetica,sans-Serif" font-size="10.00">DropCommand.execute</text>
</a>
</g>
</g>
<!-- Node1&#45;&gt;Node3 -->
<g id="edge2" class="edge"><title>Node1&#45;&gt;Node3</title>
<path fill="none" stroke="midnightblue" d="M86.4445,-139.209C105.788,-151.78 134.81,-169.39 162,-181 170.444,-184.605 179.779,-187.761 188.706,-190.411"/>
<polygon fill="midnightblue" stroke="midnightblue" points="88.3035,-136.242 78.0284,-133.659 84.4498,-142.086 88.3035,-136.242"/>
</g>
<!-- Node4 -->
<g id="node4" class="node"><title>Node4</title>
<g id="a_node4"><a xlink:href="classGoCommand.html#a77a61c2a3b89dca45b51e06f3bcb3ba7" target="_top" xlink:title="Make the player go to the Room through it&#39;s direction in the parameter field. ">
<polygon fill="white" stroke="black" points="173,-152.5 173,-171.5 285,-171.5 285,-152.5 173,-152.5"/>
<text text-anchor="middle" x="229" y="-159.5" font-family="Helvetica,sans-Serif" font-size="10.00">GoCommand.execute</text>
</a>
</g>
</g>
<!-- Node1&#45;&gt;Node4 -->
<g id="edge3" class="edge"><title>Node1&#45;&gt;Node4</title>
<path fill="none" stroke="midnightblue" d="M115.341,-135.896C138.393,-141.237 165.221,-147.454 186.913,-152.48"/>
<polygon fill="midnightblue" stroke="midnightblue" points="115.916,-132.437 105.384,-133.589 114.336,-139.256 115.916,-132.437"/>
</g>
<!-- Node5 -->
<g id="node5" class="node"><title>Node5</title>
<g id="a_node5"><a xlink:href="classTakeCommand.html#af316002e14bb3253d24bcb03282213ee" target="_top" xlink:title="Make the player take an Item. ">
<polygon fill="white" stroke="black" points="168.5,-114.5 168.5,-133.5 289.5,-133.5 289.5,-114.5 168.5,-114.5"/>
<text text-anchor="middle" x="229" y="-121.5" font-family="Helvetica,sans-Serif" font-size="10.00">TakeCommand.execute</text>
</a>
</g>
</g>
<!-- Node1&#45;&gt;Node5 -->
<g id="edge4" class="edge"><title>Node1&#45;&gt;Node5</title>
<path fill="none" stroke="midnightblue" d="M135.828,-124C146.668,-124 157.749,-124 168.297,-124"/>
<polygon fill="midnightblue" stroke="midnightblue" points="135.534,-120.5 125.534,-124 135.534,-127.5 135.534,-120.5"/>
</g>
<!-- Node6 -->
<g id="node6" class="node"><title>Node6</title>
<g id="a_node6"><a xlink:href="classEatCommand.html#ab78ece6b005359a83696998a37f0ae71" target="_top" xlink:title="Make the player eat an object. ">
<polygon fill="white" stroke="black" points="172,-76.5 172,-95.5 286,-95.5 286,-76.5 172,-76.5"/>
<text text-anchor="middle" x="229" y="-83.5" font-family="Helvetica,sans-Serif" font-size="10.00">EatCommand.execute</text>
</a>
</g>
</g>
<!-- Node1&#45;&gt;Node6 -->
<g id="edge5" class="edge"><title>Node1&#45;&gt;Node6</title>
<path fill="none" stroke="midnightblue" d="M115.341,-112.104C138.393,-106.763 165.221,-100.546 186.913,-95.5201"/>
<polygon fill="midnightblue" stroke="midnightblue" points="114.336,-108.744 105.384,-114.411 115.916,-115.563 114.336,-108.744"/>
</g>
<!-- Node7 -->
<g id="node7" class="node"><title>Node7</title>
<g id="a_node7"><a xlink:href="classBeamerCommand.html#ab28a7d743569841e463b2c0c65cf6eb1" target="_top" xlink:title="Teleport to the remembered room or remember a room. ">
<polygon fill="white" stroke="black" points="162.5,-38.5 162.5,-57.5 295.5,-57.5 295.5,-38.5 162.5,-38.5"/>
<text text-anchor="middle" x="229" y="-45.5" font-family="Helvetica,sans-Serif" font-size="10.00">BeamerCommand.execute</text>
</a>
</g>
</g>
<!-- Node1&#45;&gt;Node7 -->
<g id="edge6" class="edge"><title>Node1&#45;&gt;Node7</title>
<path fill="none" stroke="midnightblue" d="M86.4445,-108.791C105.788,-96.2198 134.81,-78.6099 162,-67 170.444,-63.3946 179.779,-60.2392 188.706,-57.5892"/>
<polygon fill="midnightblue" stroke="midnightblue" points="84.4498,-105.914 78.0284,-114.341 88.3035,-111.758 84.4498,-105.914"/>
</g>
<!-- Node8 -->
<g id="node8" class="node"><title>Node8</title>
<g id="a_node8"><a xlink:href="classTestCommand.html#a2c5d98451d5cedb9297caae17378de63" target="_top" xlink:title="Test series of Commands stored in a .test file and store the messages in the message field...">
<polygon fill="white" stroke="black" points="169.5,-0.5 169.5,-19.5 288.5,-19.5 288.5,-0.5 169.5,-0.5"/>
<text text-anchor="middle" x="229" y="-7.5" font-family="Helvetica,sans-Serif" font-size="10.00">TestCommand.execute</text>
</a>
</g>
</g>
<!-- Node1&#45;&gt;Node8 -->
<g id="edge7" class="edge"><title>Node1&#45;&gt;Node8</title>
<path fill="none" stroke="midnightblue" d="M77.524,-106.398C94.8468,-85.0366 126.859,-49.3578 162,-29 168.603,-25.1747 176.03,-22.0745 183.455,-19.576"/>
<polygon fill="midnightblue" stroke="midnightblue" points="74.7016,-104.324 71.2307,-114.334 80.1864,-108.673 74.7016,-104.324"/>
</g>
</g>
</svg>
