<?xml version="1.0" encoding="UTF-8" standalone="no"?>
<!DOCTYPE svg PUBLIC "-//W3C//DTD SVG 1.1//EN"
 "http://www.w3.org/Graphics/SVG/1.1/DTD/svg11.dtd">
<!-- Generated by graphviz version 2.36.0 (20140111.2315)
 -->
<!-- Title: pkg_world.Room Pages: 1 -->
<svg width="240pt" height="458pt"
 viewBox="0.00 0.00 240.00 458.00" xmlns="http://www.w3.org/2000/svg" xmlns:xlink="http://www.w3.org/1999/xlink">
<g id="graph0" class="graph" transform="scale(1 1) rotate(0) translate(4 454)">
<title>pkg_world.Room</title>
<polygon fill="white" stroke="none" points="-4,4 -4,-454 236,-454 236,4 -4,4"/>
<!-- Node1 -->
<g id="node1" class="node"><title>Node1</title>
<polygon fill="#bfbfbf" stroke="black" points="67,-1 67,-223 185,-223 185,-1 67,-1"/>
<text text-anchor="middle" x="126" y="-211" font-family="Helvetica,sans-Serif" font-size="10.00">pkg_world.Room</text>
<polyline fill="none" stroke="black" points="67,-204 185,-204 "/>
<text text-anchor="start" x="75" y="-192" font-family="Helvetica,sans-Serif" font-size="10.00">&#45; description</text>
<text text-anchor="start" x="75" y="-181" font-family="Helvetica,sans-Serif" font-size="10.00">&#45; imageName</text>
<polyline fill="none" stroke="black" points="67,-174 185,-174 "/>
<text text-anchor="start" x="75" y="-162" font-family="Helvetica,sans-Serif" font-size="10.00">+ Room()</text>
<text text-anchor="start" x="75" y="-151" font-family="Helvetica,sans-Serif" font-size="10.00">+ Room()</text>
<text text-anchor="start" x="75" y="-140" font-family="Helvetica,sans-Serif" font-size="10.00">+ setExit()</text>
<text text-anchor="start" x="75" y="-129" font-family="Helvetica,sans-Serif" font-size="10.00">+ getContainedItems()</text>
<text text-anchor="start" x="75" y="-118" font-family="Helvetica,sans-Serif" font-size="10.00">+ getItem()</text>
<text text-anchor="start" x="75" y="-107" font-family="Helvetica,sans-Serif" font-size="10.00">+ hasItem()</text>
<text text-anchor="start" x="75" y="-96" font-family="Helvetica,sans-Serif" font-size="10.00">+ addItem()</text>
<text text-anchor="start" x="75" y="-85" font-family="Helvetica,sans-Serif" font-size="10.00">+ removeItem()</text>
<text text-anchor="start" x="75" y="-74" font-family="Helvetica,sans-Serif" font-size="10.00">+ getShortDescription()</text>
<text text-anchor="start" x="75" y="-63" font-family="Helvetica,sans-Serif" font-size="10.00">+ getLongDescription()</text>
<text text-anchor="start" x="75" y="-52" font-family="Helvetica,sans-Serif" font-size="10.00">+ getHumanItemsList()</text>
<text text-anchor="start" x="75" y="-41" font-family="Helvetica,sans-Serif" font-size="10.00">+ getExit()</text>
<text text-anchor="start" x="75" y="-30" font-family="Helvetica,sans-Serif" font-size="10.00">+ isExit()</text>
<text text-anchor="start" x="75" y="-19" font-family="Helvetica,sans-Serif" font-size="10.00">+ getImageName()</text>
<text text-anchor="start" x="75" y="-8" font-family="Helvetica,sans-Serif" font-size="10.00">&#45; getExitString()</text>
</g>
<!-- Node2 -->
<g id="node2" class="node"><title>Node2</title>
<g id="a_node2"><a xlink:href="classpkg__world_1_1ItemList.html" target="_top" xlink:title="class ItemList used to handle a list of Item (inventory). ">
<polygon fill="white" stroke="black" points="0.5,-278.5 0.5,-335.5 99.5,-335.5 99.5,-278.5 0.5,-278.5"/>
<text text-anchor="middle" x="50" y="-323.5" font-family="Helvetica,sans-Serif" font-size="10.00">pkg_world.ItemList</text>
<polyline fill="none" stroke="black" points="0.5,-316.5 99.5,-316.5 "/>
<text text-anchor="middle" x="50" y="-304.5" font-family="Helvetica,sans-Serif" font-size="10.00"> </text>
<polyline fill="none" stroke="black" points="0.5,-297.5 99.5,-297.5 "/>
<text text-anchor="start" x="8.5" y="-285.5" font-family="Helvetica,sans-Serif" font-size="10.00">+ transfer()</text>
</a>
</g>
</g>
<!-- Node2&#45;&gt;Node1 -->
<g id="edge1" class="edge"><title>Node2&#45;&gt;Node1</title>
<path fill="none" stroke="#404040" d="M60.8889,-278.348C65.6911,-266.153 71.6986,-250.897 78.1098,-234.616"/>
<polygon fill="none" stroke="#404040" points="78.2061,-234.371 76.6827,-227.323 82.6029,-223.206 84.1264,-230.254 78.2061,-234.371"/>
<text text-anchor="middle" x="111.5" y="-245.5" font-family="Helvetica,sans-Serif" font-size="10.00"> &#45;containedItems</text>
</g>
<!-- Node3 -->
<g id="node3" class="node"><title>Node3</title>
<polygon fill="white" stroke="#bfbfbf" points="-0.5,-381 -0.5,-449 100.5,-449 100.5,-381 -0.5,-381"/>
<text text-anchor="start" x="7.5" y="-437" font-family="Helvetica,sans-Serif" font-size="10.00">java::util::HashMap</text>
<text text-anchor="middle" x="50" y="-426" font-family="Helvetica,sans-Serif" font-size="10.00">&lt; String, Item &gt;</text>
<polyline fill="none" stroke="#bfbfbf" points="-0.5,-419 100.5,-419 "/>
<text text-anchor="middle" x="50" y="-407" font-family="Helvetica,sans-Serif" font-size="10.00"> </text>
<polyline fill="none" stroke="#bfbfbf" points="-0.5,-400 100.5,-400 "/>
<text text-anchor="middle" x="50" y="-388" font-family="Helvetica,sans-Serif" font-size="10.00"> </text>
</g>
<!-- Node3&#45;&gt;Node2 -->
<g id="edge2" class="edge"><title>Node3&#45;&gt;Node2</title>
<path fill="none" stroke="midnightblue" d="M50,-370.639C50,-358.87 50,-346.444 50,-335.791"/>
<polygon fill="none" stroke="midnightblue" points="46.5001,-370.752 50,-380.752 53.5001,-370.752 46.5001,-370.752"/>
</g>
<!-- Node4 -->
<g id="node4" class="node"><title>Node4</title>
<polygon fill="white" stroke="#bfbfbf" points="117.5,-273 117.5,-341 232.5,-341 232.5,-273 117.5,-273"/>
<text text-anchor="start" x="125.5" y="-329" font-family="Helvetica,sans-Serif" font-size="10.00">HashMap&lt; String, pkg</text>
<text text-anchor="middle" x="175" y="-318" font-family="Helvetica,sans-Serif" font-size="10.00">_world.Room &gt;</text>
<polyline fill="none" stroke="#bfbfbf" points="117.5,-311 232.5,-311 "/>
<text text-anchor="middle" x="175" y="-299" font-family="Helvetica,sans-Serif" font-size="10.00"> </text>
<polyline fill="none" stroke="#bfbfbf" points="117.5,-292 232.5,-292 "/>
<text text-anchor="middle" x="175" y="-280" font-family="Helvetica,sans-Serif" font-size="10.00"> </text>
</g>
<!-- Node4&#45;&gt;Node1 -->
<g id="edge3" class="edge"><title>Node4&#45;&gt;Node1</title>
<path fill="none" stroke="#404040" d="M166.577,-272.822C163.776,-261.792 160.474,-248.785 156.983,-235.034"/>
<polygon fill="none" stroke="#404040" points="156.965,-234.965 151.612,-230.134 154.012,-223.334 159.366,-228.165 156.965,-234.965"/>
<text text-anchor="middle" x="174" y="-245.5" font-family="Helvetica,sans-Serif" font-size="10.00"> &#45;exits</text>
</g>
</g>
</svg>
