<?xml version="1.0" encoding="UTF-8" standalone="no"?>
<!DOCTYPE svg PUBLIC "-//W3C//DTD SVG 1.1//EN"
 "http://www.w3.org/Graphics/SVG/1.1/DTD/svg11.dtd">
<!-- Generated by graphviz version 2.36.0 (20140111.2315)
 -->
<!-- Title: pkg_world.Player Pages: 1 -->
<svg width="635pt" height="696pt"
 viewBox="0.00 0.00 635.00 696.00" xmlns="http://www.w3.org/2000/svg" xmlns:xlink="http://www.w3.org/1999/xlink">
<g id="graph0" class="graph" transform="scale(1 1) rotate(0) translate(4 692)">
<title>pkg_world.Player</title>
<polygon fill="white" stroke="none" points="-4,4 -4,-692 631,-692 631,4 -4,4"/>
<!-- Node1 -->
<g id="node1" class="node"><title>Node1</title>
<polygon fill="#bfbfbf" stroke="black" points="365,-1 365,-201 487,-201 487,-1 365,-1"/>
<text text-anchor="middle" x="426" y="-189" font-family="Helvetica,sans-Serif" font-size="10.00">pkg_world.Player</text>
<polyline fill="none" stroke="black" points="365,-182 487,-182 "/>
<text text-anchor="start" x="373" y="-170" font-family="Helvetica,sans-Serif" font-size="10.00">&#45; name</text>
<text text-anchor="start" x="373" y="-159" font-family="Helvetica,sans-Serif" font-size="10.00">&#45; backpackWeight</text>
<text text-anchor="start" x="373" y="-148" font-family="Helvetica,sans-Serif" font-size="10.00">&#45; maxWeight</text>
<text text-anchor="start" x="373" y="-137" font-family="Helvetica,sans-Serif" font-size="10.00">&#45; threwSnowball</text>
<polyline fill="none" stroke="black" points="365,-130 487,-130 "/>
<text text-anchor="start" x="373" y="-118" font-family="Helvetica,sans-Serif" font-size="10.00">+ Player()</text>
<text text-anchor="start" x="373" y="-107" font-family="Helvetica,sans-Serif" font-size="10.00">+ getName()</text>
<text text-anchor="start" x="373" y="-96" font-family="Helvetica,sans-Serif" font-size="10.00">+ getMaxWeight()</text>
<text text-anchor="start" x="373" y="-85" font-family="Helvetica,sans-Serif" font-size="10.00">+ setMaxWeight()</text>
<text text-anchor="start" x="373" y="-74" font-family="Helvetica,sans-Serif" font-size="10.00">+ getCurrentRoom()</text>
<text text-anchor="start" x="373" y="-63" font-family="Helvetica,sans-Serif" font-size="10.00">+ goRoom()</text>
<text text-anchor="start" x="373" y="-52" font-family="Helvetica,sans-Serif" font-size="10.00">+ getPreviousRoom()</text>
<text text-anchor="start" x="373" y="-41" font-family="Helvetica,sans-Serif" font-size="10.00">+ pushPreviousRooms()</text>
<text text-anchor="start" x="373" y="-30" font-family="Helvetica,sans-Serif" font-size="10.00">+ pushForward()</text>
<text text-anchor="start" x="373" y="-19" font-family="Helvetica,sans-Serif" font-size="10.00">+ popPreviousRooms()</text>
<text text-anchor="start" x="373" y="-8" font-family="Helvetica,sans-Serif" font-size="10.00">and 12 more...</text>
</g>
<!-- Node2 -->
<g id="node2" class="node"><title>Node2</title>
<g id="a_node2"><a xlink:href="classpkg__world_1_1Room.html" target="_top" xlink:title="Class used to handle a game&#39;s room. ">
<polygon fill="white" stroke="black" points="193,-261 193,-461 307,-461 307,-261 193,-261"/>
<text text-anchor="middle" x="250" y="-449" font-family="Helvetica,sans-Serif" font-size="10.00">pkg_world.Room</text>
<polyline fill="none" stroke="black" points="193,-442 307,-442 "/>
<text text-anchor="start" x="201" y="-430" font-family="Helvetica,sans-Serif" font-size="10.00">&#45; description</text>
<text text-anchor="start" x="201" y="-419" font-family="Helvetica,sans-Serif" font-size="10.00">&#45; imageName</text>
<polyline fill="none" stroke="black" points="193,-412 307,-412 "/>
<text text-anchor="start" x="201" y="-400" font-family="Helvetica,sans-Serif" font-size="10.00">+ Room()</text>
<text text-anchor="start" x="201" y="-389" font-family="Helvetica,sans-Serif" font-size="10.00">+ Room()</text>
<text text-anchor="start" x="201" y="-378" font-family="Helvetica,sans-Serif" font-size="10.00">+ setExit()</text>
<text text-anchor="start" x="201" y="-367" font-family="Helvetica,sans-Serif" font-size="10.00">+ getContainedItems()</text>
<text text-anchor="start" x="201" y="-356" font-family="Helvetica,sans-Serif" font-size="10.00">+ getItem()</text>
<text text-anchor="start" x="201" y="-345" font-family="Helvetica,sans-Serif" font-size="10.00">+ getCharacter()</text>
<text text-anchor="start" x="201" y="-334" font-family="Helvetica,sans-Serif" font-size="10.00">+ hasItem()</text>
<text text-anchor="start" x="201" y="-323" font-family="Helvetica,sans-Serif" font-size="10.00">+ hasCharacter()</text>
<text text-anchor="start" x="201" y="-312" font-family="Helvetica,sans-Serif" font-size="10.00">+ addItem()</text>
<text text-anchor="start" x="201" y="-301" font-family="Helvetica,sans-Serif" font-size="10.00">+ addCharacter()</text>
<text text-anchor="start" x="201" y="-290" font-family="Helvetica,sans-Serif" font-size="10.00">and 10 more...</text>
<text text-anchor="start" x="201" y="-279" font-family="Helvetica,sans-Serif" font-size="10.00">&#45; getHumanList()</text>
<text text-anchor="start" x="201" y="-268" font-family="Helvetica,sans-Serif" font-size="10.00">&#45; getExitString()</text>
</a>
</g>
</g>
<!-- Node2&#45;&gt;Node1 -->
<g id="edge1" class="edge"><title>Node2&#45;&gt;Node1</title>
<path fill="none" stroke="#404040" d="M307.142,-276.235C323.374,-252.44 341.21,-226.294 358.018,-201.656"/>
<polygon fill="none" stroke="#404040" points="358.137,-201.481 358.214,-194.271 364.899,-191.568 364.822,-198.779 358.137,-201.481"/>
<text text-anchor="middle" x="376.5" y="-234" font-family="Helvetica,sans-Serif" font-size="10.00"> &#45;beamerRoom</text>
<text text-anchor="middle" x="376.5" y="-223" font-family="Helvetica,sans-Serif" font-size="10.00">&#45;currentRoom</text>
</g>
<!-- Node3 -->
<g id="node3" class="node"><title>Node3</title>
<polygon fill="white" stroke="#bfbfbf" points="-0.5,-511 -0.5,-579 114.5,-579 114.5,-511 -0.5,-511"/>
<text text-anchor="start" x="7.5" y="-567" font-family="Helvetica,sans-Serif" font-size="10.00">HashMap&lt; String, pkg</text>
<text text-anchor="middle" x="57" y="-556" font-family="Helvetica,sans-Serif" font-size="10.00">_world.Room &gt;</text>
<polyline fill="none" stroke="#bfbfbf" points="-0.5,-549 114.5,-549 "/>
<text text-anchor="middle" x="57" y="-537" font-family="Helvetica,sans-Serif" font-size="10.00"> </text>
<polyline fill="none" stroke="#bfbfbf" points="-0.5,-530 114.5,-530 "/>
<text text-anchor="middle" x="57" y="-518" font-family="Helvetica,sans-Serif" font-size="10.00"> </text>
</g>
<!-- Node3&#45;&gt;Node2 -->
<g id="edge2" class="edge"><title>Node3&#45;&gt;Node2</title>
<path fill="none" stroke="#404040" d="M92.3992,-510.618C117.953,-486.521 153.218,-453.266 183.911,-424.323"/>
<polygon fill="none" stroke="#404040" points="184.122,-424.123 185.743,-417.097 192.853,-415.89 191.232,-422.917 184.122,-424.123"/>
<text text-anchor="middle" x="134" y="-483.5" font-family="Helvetica,sans-Serif" font-size="10.00"> &#45;exits</text>
</g>
<!-- Node4 -->
<g id="node4" class="node"><title>Node4</title>
<g id="a_node4"><a xlink:href="classpkg__world_1_1pkg__items_1_1ItemList.html" target="_top" xlink:title="class ItemList used to handle a list of Item (inventory). ">
<polygon fill="white" stroke="black" points="336.5,-516.5 336.5,-573.5 483.5,-573.5 483.5,-516.5 336.5,-516.5"/>
<text text-anchor="middle" x="410" y="-561.5" font-family="Helvetica,sans-Serif" font-size="10.00">pkg_world.pkg_items.ItemList</text>
<polyline fill="none" stroke="black" points="336.5,-554.5 483.5,-554.5 "/>
<text text-anchor="middle" x="410" y="-542.5" font-family="Helvetica,sans-Serif" font-size="10.00"> </text>
<polyline fill="none" stroke="black" points="336.5,-535.5 483.5,-535.5 "/>
<text text-anchor="start" x="344.5" y="-523.5" font-family="Helvetica,sans-Serif" font-size="10.00">+ transfer()</text>
</a>
</g>
</g>
<!-- Node4&#45;&gt;Node1 -->
<g id="edge6" class="edge"><title>Node4&#45;&gt;Node1</title>
<path fill="none" stroke="#404040" d="M411.072,-516.474C411.376,-508.572 411.705,-499.945 412,-492 415.489,-398.17 419.303,-291.636 422.068,-213.651"/>
<polygon fill="none" stroke="#404040" points="422.077,-213.379 418.292,-207.241 422.502,-201.386 426.287,-207.524 422.077,-213.379"/>
<text text-anchor="middle" x="445.5" y="-358.5" font-family="Helvetica,sans-Serif" font-size="10.00"> &#45;backpack</text>
</g>
<!-- Node4&#45;&gt;Node2 -->
<g id="edge3" class="edge"><title>Node4&#45;&gt;Node2</title>
<path fill="none" stroke="#404040" d="M367.155,-516.233C357.374,-508.94 347.398,-500.67 339,-492 330.491,-483.216 322.24,-473.535 314.415,-463.538"/>
<polygon fill="none" stroke="#404040" points="314.325,-463.419 307.506,-461.072 307.05,-453.876 313.869,-456.223 314.325,-463.419"/>
<text text-anchor="middle" x="375.5" y="-483.5" font-family="Helvetica,sans-Serif" font-size="10.00"> &#45;containedItems</text>
</g>
<!-- Node5 -->
<g id="node5" class="node"><title>Node5</title>
<polygon fill="white" stroke="#bfbfbf" points="359.5,-619 359.5,-687 460.5,-687 460.5,-619 359.5,-619"/>
<text text-anchor="start" x="367.5" y="-675" font-family="Helvetica,sans-Serif" font-size="10.00">java::util::HashMap</text>
<text text-anchor="middle" x="410" y="-664" font-family="Helvetica,sans-Serif" font-size="10.00">&lt; String, Item &gt;</text>
<polyline fill="none" stroke="#bfbfbf" points="359.5,-657 460.5,-657 "/>
<text text-anchor="middle" x="410" y="-645" font-family="Helvetica,sans-Serif" font-size="10.00"> </text>
<polyline fill="none" stroke="#bfbfbf" points="359.5,-638 460.5,-638 "/>
<text text-anchor="middle" x="410" y="-626" font-family="Helvetica,sans-Serif" font-size="10.00"> </text>
</g>
<!-- Node5&#45;&gt;Node4 -->
<g id="edge4" class="edge"><title>Node5&#45;&gt;Node4</title>
<path fill="none" stroke="midnightblue" d="M410,-608.639C410,-596.87 410,-584.444 410,-573.791"/>
<polygon fill="none" stroke="midnightblue" points="406.5,-608.752 410,-618.752 413.5,-608.752 406.5,-608.752"/>
</g>
<!-- Node6 -->
<g id="node6" class="node"><title>Node6</title>
<polygon fill="white" stroke="#bfbfbf" points="133,-511 133,-579 303,-579 303,-511 133,-511"/>
<text text-anchor="start" x="141" y="-567" font-family="Helvetica,sans-Serif" font-size="10.00">HashMap&lt; String, pkg</text>
<text text-anchor="middle" x="218" y="-556" font-family="Helvetica,sans-Serif" font-size="10.00">_world.pkg_characters.Character &gt;</text>
<polyline fill="none" stroke="#bfbfbf" points="133,-549 303,-549 "/>
<text text-anchor="middle" x="218" y="-537" font-family="Helvetica,sans-Serif" font-size="10.00"> </text>
<polyline fill="none" stroke="#bfbfbf" points="133,-530 303,-530 "/>
<text text-anchor="middle" x="218" y="-518" font-family="Helvetica,sans-Serif" font-size="10.00"> </text>
</g>
<!-- Node6&#45;&gt;Node2 -->
<g id="edge5" class="edge"><title>Node6&#45;&gt;Node2</title>
<path fill="none" stroke="#404040" d="M216.999,-510.997C217.103,-501.002 217.626,-490.019 219,-480 219.318,-477.679 219.667,-475.337 220.043,-472.983"/>
<polygon fill="none" stroke="#404040" points="220.05,-472.94 217.153,-466.337 222.133,-461.122 225.031,-467.726 220.05,-472.94"/>
<text text-anchor="middle" x="267.5" y="-483.5" font-family="Helvetica,sans-Serif" font-size="10.00"> &#45;containedCharacters</text>
</g>
<!-- Node7 -->
<g id="node7" class="node"><title>Node7</title>
<polygon fill="white" stroke="#bfbfbf" points="493,-332.5 493,-389.5 627,-389.5 627,-332.5 493,-332.5"/>
<text text-anchor="middle" x="560" y="-377.5" font-family="Helvetica,sans-Serif" font-size="10.00">Stack&lt; pkg_world.Room &gt;</text>
<polyline fill="none" stroke="#bfbfbf" points="493,-370.5 627,-370.5 "/>
<text text-anchor="middle" x="560" y="-358.5" font-family="Helvetica,sans-Serif" font-size="10.00"> </text>
<polyline fill="none" stroke="#bfbfbf" points="493,-351.5 627,-351.5 "/>
<text text-anchor="middle" x="560" y="-339.5" font-family="Helvetica,sans-Serif" font-size="10.00"> </text>
</g>
<!-- Node7&#45;&gt;Node1 -->
<g id="edge7" class="edge"><title>Node7&#45;&gt;Node1</title>
<path fill="none" stroke="#404040" d="M545.66,-332.389C530.659,-303.507 506.144,-256.307 483.197,-212.126"/>
<polygon fill="none" stroke="#404040" points="483.09,-211.92 476.775,-208.439 477.559,-201.271 483.875,-204.752 483.09,-211.92"/>
<text text-anchor="middle" x="535.5" y="-228.5" font-family="Helvetica,sans-Serif" font-size="10.00"> &#45;previousRooms</text>
</g>
</g>
</svg>
