<?xml version="1.0" encoding="UTF-8" standalone="no"?>
<!DOCTYPE svg PUBLIC "-//W3C//DTD SVG 1.1//EN"
 "http://www.w3.org/Graphics/SVG/1.1/DTD/svg11.dtd">
<!-- Generated by graphviz version 2.36.0 (20140111.2315)
 -->
<!-- Title: Room.getLongDescription Pages: 1 -->
<svg width="306pt" height="66pt"
 viewBox="0.00 0.00 306.00 66.00" xmlns="http://www.w3.org/2000/svg" xmlns:xlink="http://www.w3.org/1999/xlink">
<g id="graph0" class="graph" transform="scale(1 1) rotate(0) translate(4 62)">
<title>Room.getLongDescription</title>
<polygon fill="white" stroke="none" points="-4,4 -4,-62 302,-62 302,4 -4,4"/>
<!-- Node1 -->
<g id="node1" class="node"><title>Node1</title>
<polygon fill="#bfbfbf" stroke="black" points="0,-19.5 0,-38.5 130,-38.5 130,-19.5 0,-19.5"/>
<text text-anchor="middle" x="65" y="-26.5" font-family="Helvetica,sans-Serif" font-size="10.00">Room.getLongDescription</text>
</g>
<!-- Node2 -->
<g id="node2" class="node"><title>Node2</title>
<g id="a_node2"><a xlink:href="classRoom.html#a2ccc382c07890a9827be232767eb98a0" target="_top" xlink:title="Room.getExitString">
<polygon fill="white" stroke="black" points="181,-38.5 181,-57.5 283,-57.5 283,-38.5 181,-38.5"/>
<text text-anchor="middle" x="232" y="-45.5" font-family="Helvetica,sans-Serif" font-size="10.00">Room.getExitString</text>
</a>
</g>
</g>
<!-- Node1&#45;&gt;Node2 -->
<g id="edge1" class="edge"><title>Node1&#45;&gt;Node2</title>
<path fill="none" stroke="midnightblue" d="M130.266,-36.4003C143.678,-37.9447 157.766,-39.567 171.016,-41.0927"/>
<polygon fill="midnightblue" stroke="midnightblue" points="170.624,-44.5707 180.959,-42.2377 171.425,-37.6167 170.624,-44.5707"/>
</g>
<!-- Node3 -->
<g id="node3" class="node"><title>Node3</title>
<g id="a_node3"><a xlink:href="classRoom.html#ab8a87ad306f77a936873094b479bcde8" target="_top" xlink:title="Room.getHumanItemsList">
<polygon fill="white" stroke="black" points="166.5,-0.5 166.5,-19.5 297.5,-19.5 297.5,-0.5 166.5,-0.5"/>
<text text-anchor="middle" x="232" y="-7.5" font-family="Helvetica,sans-Serif" font-size="10.00">Room.getHumanItemsList</text>
</a>
</g>
</g>
<!-- Node1&#45;&gt;Node3 -->
<g id="edge2" class="edge"><title>Node1&#45;&gt;Node3</title>
<path fill="none" stroke="midnightblue" d="M130.266,-21.5997C138.786,-20.6186 147.579,-19.6061 156.256,-18.6069"/>
<polygon fill="midnightblue" stroke="midnightblue" points="156.833,-22.0637 166.367,-17.4426 156.032,-15.1097 156.833,-22.0637"/>
</g>
</g>
</svg>
