<?xml version="1.0" encoding="UTF-8" standalone="no"?>
<!DOCTYPE svg PUBLIC "-//W3C//DTD SVG 1.1//EN"
 "http://www.w3.org/Graphics/SVG/1.1/DTD/svg11.dtd">
<!-- Generated by graphviz version 2.36.0 (20140111.2315)
 -->
<!-- Title: UserInterface Pages: 1 -->
<svg width="530pt" height="588pt"
 viewBox="0.00 0.00 530.00 588.00" xmlns="http://www.w3.org/2000/svg" xmlns:xlink="http://www.w3.org/1999/xlink">
<g id="graph0" class="graph" transform="scale(1 1) rotate(0) translate(4 584)">
<title>UserInterface</title>
<polygon fill="white" stroke="none" points="-4,4 -4,-584 526,-584 526,4 -4,4"/>
<!-- Node1 -->
<g id="node1" class="node"><title>Node1</title>
<polygon fill="#bfbfbf" stroke="black" points="414,-267.5 414,-434.5 522,-434.5 522,-267.5 414,-267.5"/>
<text text-anchor="middle" x="468" y="-422.5" font-family="Helvetica,sans-Serif" font-size="10.00">UserInterface</text>
<polyline fill="none" stroke="black" points="414,-415.5 522,-415.5 "/>
<text text-anchor="start" x="422" y="-403.5" font-family="Helvetica,sans-Serif" font-size="10.00">&#45; myFrame</text>
<text text-anchor="start" x="422" y="-392.5" font-family="Helvetica,sans-Serif" font-size="10.00">&#45; entryField</text>
<text text-anchor="start" x="422" y="-381.5" font-family="Helvetica,sans-Serif" font-size="10.00">&#45; log</text>
<text text-anchor="start" x="422" y="-370.5" font-family="Helvetica,sans-Serif" font-size="10.00">&#45; image</text>
<polyline fill="none" stroke="black" points="414,-363.5 522,-363.5 "/>
<text text-anchor="start" x="422" y="-351.5" font-family="Helvetica,sans-Serif" font-size="10.00">+ UserInterface()</text>
<text text-anchor="start" x="422" y="-340.5" font-family="Helvetica,sans-Serif" font-size="10.00">+ print()</text>
<text text-anchor="start" x="422" y="-329.5" font-family="Helvetica,sans-Serif" font-size="10.00">+ println()</text>
<text text-anchor="start" x="422" y="-318.5" font-family="Helvetica,sans-Serif" font-size="10.00">+ showImage()</text>
<text text-anchor="start" x="422" y="-307.5" font-family="Helvetica,sans-Serif" font-size="10.00">+ enable()</text>
<text text-anchor="start" x="422" y="-296.5" font-family="Helvetica,sans-Serif" font-size="10.00">+ actionPerformed()</text>
<text text-anchor="start" x="422" y="-285.5" font-family="Helvetica,sans-Serif" font-size="10.00">&#45; createGUI()</text>
<text text-anchor="start" x="422" y="-274.5" font-family="Helvetica,sans-Serif" font-size="10.00">&#45; processCommand()</text>
</g>
<!-- Node3 -->
<g id="node3" class="node"><title>Node3</title>
<g id="a_node3"><a xlink:href="classGameEngine.html" target="_top" xlink:title="{GameEngine\n|&#45; helpCount\l|+ GameEngine()\l+ setGUI()\l+ processCommand()\l&#45; printWelcome()\l&#45; createRooms()\l&#45; printHelp()\l&#45; printCredits()\l&#45; goRoom()\l&#45; goRoom()\l&#45; goRoom()\l&#45; goBack()\l&#45; lookAround()\l&#45; endGame()\l&#45; test()\l}">
<polygon fill="white" stroke="black" points="287.5,-1 287.5,-201 398.5,-201 398.5,-1 287.5,-1"/>
<text text-anchor="middle" x="343" y="-189" font-family="Helvetica,sans-Serif" font-size="10.00">GameEngine</text>
<polyline fill="none" stroke="black" points="287.5,-182 398.5,-182 "/>
<text text-anchor="start" x="295.5" y="-170" font-family="Helvetica,sans-Serif" font-size="10.00">&#45; helpCount</text>
<polyline fill="none" stroke="black" points="287.5,-163 398.5,-163 "/>
<text text-anchor="start" x="295.5" y="-151" font-family="Helvetica,sans-Serif" font-size="10.00">+ GameEngine()</text>
<text text-anchor="start" x="295.5" y="-140" font-family="Helvetica,sans-Serif" font-size="10.00">+ setGUI()</text>
<text text-anchor="start" x="295.5" y="-129" font-family="Helvetica,sans-Serif" font-size="10.00">+ processCommand()</text>
<text text-anchor="start" x="295.5" y="-118" font-family="Helvetica,sans-Serif" font-size="10.00">&#45; printWelcome()</text>
<text text-anchor="start" x="295.5" y="-107" font-family="Helvetica,sans-Serif" font-size="10.00">&#45; createRooms()</text>
<text text-anchor="start" x="295.5" y="-96" font-family="Helvetica,sans-Serif" font-size="10.00">&#45; printHelp()</text>
<text text-anchor="start" x="295.5" y="-85" font-family="Helvetica,sans-Serif" font-size="10.00">&#45; printCredits()</text>
<text text-anchor="start" x="295.5" y="-74" font-family="Helvetica,sans-Serif" font-size="10.00">&#45; goRoom()</text>
<text text-anchor="start" x="295.5" y="-63" font-family="Helvetica,sans-Serif" font-size="10.00">&#45; goRoom()</text>
<text text-anchor="start" x="295.5" y="-52" font-family="Helvetica,sans-Serif" font-size="10.00">&#45; goRoom()</text>
<text text-anchor="start" x="295.5" y="-41" font-family="Helvetica,sans-Serif" font-size="10.00">&#45; goBack()</text>
<text text-anchor="start" x="295.5" y="-30" font-family="Helvetica,sans-Serif" font-size="10.00">&#45; lookAround()</text>
<text text-anchor="start" x="295.5" y="-19" font-family="Helvetica,sans-Serif" font-size="10.00">&#45; endGame()</text>
<text text-anchor="start" x="295.5" y="-8" font-family="Helvetica,sans-Serif" font-size="10.00">&#45; test()</text>
</a>
</g>
</g>
<!-- Node1&#45;&gt;Node3 -->
<g id="edge7" class="edge"><title>Node1&#45;&gt;Node3</title>
<path fill="none" stroke="#404040" d="M426.377,-267.42C417.412,-249.634 407.8,-230.563 398.405,-211.923"/>
<polygon fill="none" stroke="#404040" points="398.305,-211.726 392.033,-208.168 392.904,-201.01 399.177,-204.568 398.305,-211.726"/>
<text text-anchor="middle" x="415.5" y="-223.5" font-family="Helvetica,sans-Serif" font-size="10.00"> &#45;gui</text>
</g>
<!-- Node2 -->
<g id="node2" class="node"><title>Node2</title>
<polygon fill="white" stroke="#bfbfbf" points="428.5,-511.5 428.5,-568.5 507.5,-568.5 507.5,-511.5 428.5,-511.5"/>
<text text-anchor="middle" x="468" y="-556.5" font-family="Helvetica,sans-Serif" font-size="10.00">ActionListener</text>
<polyline fill="none" stroke="#bfbfbf" points="428.5,-549.5 507.5,-549.5 "/>
<text text-anchor="middle" x="468" y="-537.5" font-family="Helvetica,sans-Serif" font-size="10.00"> </text>
<polyline fill="none" stroke="#bfbfbf" points="428.5,-530.5 507.5,-530.5 "/>
<text text-anchor="middle" x="468" y="-518.5" font-family="Helvetica,sans-Serif" font-size="10.00"> </text>
</g>
<!-- Node2&#45;&gt;Node1 -->
<g id="edge1" class="edge"><title>Node2&#45;&gt;Node1</title>
<path fill="none" stroke="midnightblue" d="M468,-501.301C468,-482.129 468,-458.02 468,-434.804"/>
<polygon fill="none" stroke="midnightblue" points="464.5,-501.407 468,-511.408 471.5,-501.408 464.5,-501.407"/>
</g>
<!-- Node3&#45;&gt;Node1 -->
<g id="edge2" class="edge"><title>Node3&#45;&gt;Node1</title>
<path fill="none" stroke="#404040" d="M398.539,-162.332C412.428,-179.914 426.154,-199.844 436,-220 441.451,-231.158 446.02,-243.32 449.838,-255.582"/>
<polygon fill="none" stroke="#404040" points="449.908,-255.821 455.43,-260.458 453.273,-267.339 447.751,-262.702 449.908,-255.821"/>
<text text-anchor="middle" x="458.5" y="-223.5" font-family="Helvetica,sans-Serif" font-size="10.00"> &#45;engine</text>
</g>
<!-- Node4 -->
<g id="node4" class="node"><title>Node4</title>
<polygon fill="white" stroke="#bfbfbf" points="50,-322.5 50,-379.5 136,-379.5 136,-322.5 50,-322.5"/>
<text text-anchor="middle" x="93" y="-367.5" font-family="Helvetica,sans-Serif" font-size="10.00">Stack&lt; Room &gt;</text>
<polyline fill="none" stroke="#bfbfbf" points="50,-360.5 136,-360.5 "/>
<text text-anchor="middle" x="93" y="-348.5" font-family="Helvetica,sans-Serif" font-size="10.00"> </text>
<polyline fill="none" stroke="#bfbfbf" points="50,-341.5 136,-341.5 "/>
<text text-anchor="middle" x="93" y="-329.5" font-family="Helvetica,sans-Serif" font-size="10.00"> </text>
</g>
<!-- Node4&#45;&gt;Node3 -->
<g id="edge3" class="edge"><title>Node4&#45;&gt;Node3</title>
<path fill="none" stroke="#404040" d="M103.49,-322.099C112.387,-300.834 126.63,-271.624 145,-250 182.398,-205.978 235.203,-167.335 276.876,-140.584"/>
<polygon fill="none" stroke="#404040" points="277.074,-140.459 280.006,-133.871 287.215,-134.043 284.283,-140.631 277.074,-140.459"/>
<text text-anchor="middle" x="210.5" y="-223.5" font-family="Helvetica,sans-Serif" font-size="10.00"> &#45;previousRooms</text>
</g>
<!-- Node5 -->
<g id="node5" class="node"><title>Node5</title>
<g id="a_node5"><a xlink:href="classRoom.html" target="_top" xlink:title="{Room\n|&#45; description\l&#45; imageName\l|+ Room()\l+ Room()\l+ setExit()\l+ addItem()\l+ getContainedItems()\l+ getItem()\l+ hasItem()\l+ getShortDescription()\l+ getLongDescription()\l+ getHumanItemsList()\l+ getExit()\l+ getImageName()\l&#45; getExitString()\l}">
<polygon fill="white" stroke="black" points="154,-251 154,-451 272,-451 272,-251 154,-251"/>
<text text-anchor="middle" x="213" y="-439" font-family="Helvetica,sans-Serif" font-size="10.00">Room</text>
<polyline fill="none" stroke="black" points="154,-432 272,-432 "/>
<text text-anchor="start" x="162" y="-420" font-family="Helvetica,sans-Serif" font-size="10.00">&#45; description</text>
<text text-anchor="start" x="162" y="-409" font-family="Helvetica,sans-Serif" font-size="10.00">&#45; imageName</text>
<polyline fill="none" stroke="black" points="154,-402 272,-402 "/>
<text text-anchor="start" x="162" y="-390" font-family="Helvetica,sans-Serif" font-size="10.00">+ Room()</text>
<text text-anchor="start" x="162" y="-379" font-family="Helvetica,sans-Serif" font-size="10.00">+ Room()</text>
<text text-anchor="start" x="162" y="-368" font-family="Helvetica,sans-Serif" font-size="10.00">+ setExit()</text>
<text text-anchor="start" x="162" y="-357" font-family="Helvetica,sans-Serif" font-size="10.00">+ addItem()</text>
<text text-anchor="start" x="162" y="-346" font-family="Helvetica,sans-Serif" font-size="10.00">+ getContainedItems()</text>
<text text-anchor="start" x="162" y="-335" font-family="Helvetica,sans-Serif" font-size="10.00">+ getItem()</text>
<text text-anchor="start" x="162" y="-324" font-family="Helvetica,sans-Serif" font-size="10.00">+ hasItem()</text>
<text text-anchor="start" x="162" y="-313" font-family="Helvetica,sans-Serif" font-size="10.00">+ getShortDescription()</text>
<text text-anchor="start" x="162" y="-302" font-family="Helvetica,sans-Serif" font-size="10.00">+ getLongDescription()</text>
<text text-anchor="start" x="162" y="-291" font-family="Helvetica,sans-Serif" font-size="10.00">+ getHumanItemsList()</text>
<text text-anchor="start" x="162" y="-280" font-family="Helvetica,sans-Serif" font-size="10.00">+ getExit()</text>
<text text-anchor="start" x="162" y="-269" font-family="Helvetica,sans-Serif" font-size="10.00">+ getImageName()</text>
<text text-anchor="start" x="162" y="-258" font-family="Helvetica,sans-Serif" font-size="10.00">&#45; getExitString()</text>
</a>
</g>
</g>
<!-- Node5&#45;&gt;Node3 -->
<g id="edge4" class="edge"><title>Node5&#45;&gt;Node3</title>
<path fill="none" stroke="#404040" d="M260.145,-250.999C265.399,-240.486 270.75,-229.991 276,-220 277.836,-216.507 279.718,-212.966 281.633,-209.398"/>
<polygon fill="none" stroke="#404040" points="281.747,-209.187 281.087,-202.006 287.461,-198.635 288.121,-205.816 281.747,-209.187"/>
<text text-anchor="middle" x="307.5" y="-223.5" font-family="Helvetica,sans-Serif" font-size="10.00"> &#45;currentRoom</text>
</g>
<!-- Node6 -->
<g id="node6" class="node"><title>Node6</title>
<polygon fill="white" stroke="#bfbfbf" points="0,-511.5 0,-568.5 128,-568.5 128,-511.5 0,-511.5"/>
<text text-anchor="middle" x="64" y="-556.5" font-family="Helvetica,sans-Serif" font-size="10.00">HashMap&lt; String, Item &gt;</text>
<polyline fill="none" stroke="#bfbfbf" points="0,-549.5 128,-549.5 "/>
<text text-anchor="middle" x="64" y="-537.5" font-family="Helvetica,sans-Serif" font-size="10.00"> </text>
<polyline fill="none" stroke="#bfbfbf" points="0,-530.5 128,-530.5 "/>
<text text-anchor="middle" x="64" y="-518.5" font-family="Helvetica,sans-Serif" font-size="10.00"> </text>
</g>
<!-- Node6&#45;&gt;Node5 -->
<g id="edge5" class="edge"><title>Node6&#45;&gt;Node5</title>
<path fill="none" stroke="#404040" d="M91.7666,-511.374C107.959,-494.738 128.397,-472.81 145,-452 145.46,-451.423 145.921,-450.843 146.381,-450.26"/>
<polygon fill="none" stroke="#404040" points="146.504,-450.102 147.004,-442.908 153.837,-440.602 153.337,-447.796 146.504,-450.102"/>
<text text-anchor="middle" x="165.5" y="-473.5" font-family="Helvetica,sans-Serif" font-size="10.00"> &#45;containedItems</text>
</g>
<!-- Node7 -->
<g id="node7" class="node"><title>Node7</title>
<polygon fill="white" stroke="#bfbfbf" points="146,-511.5 146,-568.5 280,-568.5 280,-511.5 146,-511.5"/>
<text text-anchor="middle" x="213" y="-556.5" font-family="Helvetica,sans-Serif" font-size="10.00">HashMap&lt; String, Room &gt;</text>
<polyline fill="none" stroke="#bfbfbf" points="146,-549.5 280,-549.5 "/>
<text text-anchor="middle" x="213" y="-537.5" font-family="Helvetica,sans-Serif" font-size="10.00"> </text>
<polyline fill="none" stroke="#bfbfbf" points="146,-530.5 280,-530.5 "/>
<text text-anchor="middle" x="213" y="-518.5" font-family="Helvetica,sans-Serif" font-size="10.00"> </text>
</g>
<!-- Node7&#45;&gt;Node5 -->
<g id="edge6" class="edge"><title>Node7&#45;&gt;Node5</title>
<path fill="none" stroke="#404040" d="M213,-511.408C213,-498.137 213,-481.261 213,-463.485"/>
<polygon fill="none" stroke="#404040" points="213,-463.386 209,-457.386 213,-451.386 217,-457.386 213,-463.386"/>
<text text-anchor="middle" x="227" y="-473.5" font-family="Helvetica,sans-Serif" font-size="10.00"> &#45;exits</text>
</g>
<!-- Node8 -->
<g id="node8" class="node"><title>Node8</title>
<g id="a_node8"><a xlink:href="classParser.html" target="_top" xlink:title="{Parser\n||+ Parser()\l+ getCommand()\l+ showCommands()\l}">
<polygon fill="white" stroke="black" points="290.5,-311.5 290.5,-390.5 395.5,-390.5 395.5,-311.5 290.5,-311.5"/>
<text text-anchor="middle" x="343" y="-378.5" font-family="Helvetica,sans-Serif" font-size="10.00">Parser</text>
<polyline fill="none" stroke="black" points="290.5,-371.5 395.5,-371.5 "/>
<text text-anchor="middle" x="343" y="-359.5" font-family="Helvetica,sans-Serif" font-size="10.00"> </text>
<polyline fill="none" stroke="black" points="290.5,-352.5 395.5,-352.5 "/>
<text text-anchor="start" x="298.5" y="-340.5" font-family="Helvetica,sans-Serif" font-size="10.00">+ Parser()</text>
<text text-anchor="start" x="298.5" y="-329.5" font-family="Helvetica,sans-Serif" font-size="10.00">+ getCommand()</text>
<text text-anchor="start" x="298.5" y="-318.5" font-family="Helvetica,sans-Serif" font-size="10.00">+ showCommands()</text>
</a>
</g>
</g>
<!-- Node8&#45;&gt;Node3 -->
<g id="edge8" class="edge"><title>Node8&#45;&gt;Node3</title>
<path fill="none" stroke="#404040" d="M343,-311.25C343,-284.867 343,-248.504 343,-213.486"/>
<polygon fill="none" stroke="#404040" points="343,-213.175 339,-207.175 343,-201.175 347,-207.174 343,-213.175"/>
<text text-anchor="middle" x="360" y="-223.5" font-family="Helvetica,sans-Serif" font-size="10.00"> &#45;parser</text>
</g>
<!-- Node9 -->
<g id="node9" class="node"><title>Node9</title>
<g id="a_node9"><a xlink:href="classCommandWords.html" target="_top" xlink:title="{CommandWords\n|&#45; knownCommands\l|+ CommandWords()\l+ isCommand()\l+ getCommandList()\l}">
<polygon fill="white" stroke="black" points="298,-500.5 298,-579.5 404,-579.5 404,-500.5 298,-500.5"/>
<text text-anchor="middle" x="351" y="-567.5" font-family="Helvetica,sans-Serif" font-size="10.00">CommandWords</text>
<polyline fill="none" stroke="black" points="298,-560.5 404,-560.5 "/>
<text text-anchor="start" x="306" y="-548.5" font-family="Helvetica,sans-Serif" font-size="10.00">&#45; knownCommands</text>
<polyline fill="none" stroke="black" points="298,-541.5 404,-541.5 "/>
<text text-anchor="start" x="306" y="-529.5" font-family="Helvetica,sans-Serif" font-size="10.00">+ CommandWords()</text>
<text text-anchor="start" x="306" y="-518.5" font-family="Helvetica,sans-Serif" font-size="10.00">+ isCommand()</text>
<text text-anchor="start" x="306" y="-507.5" font-family="Helvetica,sans-Serif" font-size="10.00">+ getCommandList()</text>
</a>
</g>
</g>
<!-- Node9&#45;&gt;Node8 -->
<g id="edge9" class="edge"><title>Node9&#45;&gt;Node8</title>
<path fill="none" stroke="#404040" d="M349.342,-500.253C348.136,-472.046 346.49,-433.573 345.177,-402.889"/>
<polygon fill="none" stroke="#404040" points="345.168,-402.686 340.916,-396.862 344.655,-390.697 348.908,-396.52 345.168,-402.686"/>
<text text-anchor="middle" x="376.5" y="-473.5" font-family="Helvetica,sans-Serif" font-size="10.00"> &#45;commands</text>
</g>
</g>
</svg>
