<?xml version="1.0" encoding="UTF-8" standalone="no"?>
<!DOCTYPE svg PUBLIC "-//W3C//DTD SVG 1.1//EN"
 "http://www.w3.org/Graphics/SVG/1.1/DTD/svg11.dtd">
<!-- Generated by graphviz version 2.36.0 (20140111.2315)
 -->
<!-- Title: Parser Pages: 1 -->
<svg width="160pt" height="324pt"
 viewBox="0.00 0.00 160.00 324.00" xmlns="http://www.w3.org/2000/svg" xmlns:xlink="http://www.w3.org/1999/xlink">
<g id="graph0" class="graph" transform="scale(1 1) rotate(0) translate(4 320)">
<title>Parser</title>
<polygon fill="white" stroke="none" points="-4,4 -4,-320 156,-320 156,4 -4,4"/>
<!-- Node1 -->
<g id="node1" class="node"><title>Node1</title>
<polygon fill="#bfbfbf" stroke="black" points="23.5,-1 23.5,-69 128.5,-69 128.5,-1 23.5,-1"/>
<text text-anchor="middle" x="76" y="-57" font-family="Helvetica,sans-Serif" font-size="10.00">Parser</text>
<polyline fill="none" stroke="black" points="23.5,-50 128.5,-50 "/>
<text text-anchor="middle" x="76" y="-38" font-family="Helvetica,sans-Serif" font-size="10.00"> </text>
<polyline fill="none" stroke="black" points="23.5,-31 128.5,-31 "/>
<text text-anchor="start" x="31.5" y="-19" font-family="Helvetica,sans-Serif" font-size="10.00">+ getCommand()</text>
<text text-anchor="start" x="31.5" y="-8" font-family="Helvetica,sans-Serif" font-size="10.00">+ showCommands()</text>
</g>
<!-- Node2 -->
<g id="node2" class="node"><title>Node2</title>
<g id="a_node2"><a xlink:href="classCommandWords.html" target="_top" xlink:title="Class used to verify the commands given by the user. ">
<polygon fill="white" stroke="black" points="23,-119 23,-209 129,-209 129,-119 23,-119"/>
<text text-anchor="middle" x="76" y="-197" font-family="Helvetica,sans-Serif" font-size="10.00">CommandWords</text>
<polyline fill="none" stroke="black" points="23,-190 129,-190 "/>
<text text-anchor="middle" x="76" y="-178" font-family="Helvetica,sans-Serif" font-size="10.00"> </text>
<polyline fill="none" stroke="black" points="23,-171 129,-171 "/>
<text text-anchor="start" x="31" y="-159" font-family="Helvetica,sans-Serif" font-size="10.00">+ CommandWords()</text>
<text text-anchor="start" x="31" y="-148" font-family="Helvetica,sans-Serif" font-size="10.00">+ isCommand()</text>
<text text-anchor="start" x="31" y="-137" font-family="Helvetica,sans-Serif" font-size="10.00">+ getCommandList()</text>
<text text-anchor="start" x="31" y="-126" font-family="Helvetica,sans-Serif" font-size="10.00">+ getCommand()</text>
</a>
</g>
</g>
<!-- Node2&#45;&gt;Node1 -->
<g id="edge1" class="edge"><title>Node2&#45;&gt;Node1</title>
<path fill="none" stroke="#404040" d="M76,-118.938C76,-106.815 76,-93.6456 76,-81.446"/>
<polygon fill="none" stroke="#404040" points="76.0001,-81.1682 72,-75.1682 76,-69.1682 80,-75.1682 76.0001,-81.1682"/>
<text text-anchor="middle" x="103.5" y="-91.5" font-family="Helvetica,sans-Serif" font-size="10.00"> &#45;commands</text>
</g>
<!-- Node3 -->
<g id="node3" class="node"><title>Node3</title>
<polygon fill="white" stroke="#bfbfbf" points="-0.5,-258.5 -0.5,-315.5 152.5,-315.5 152.5,-258.5 -0.5,-258.5"/>
<text text-anchor="middle" x="76" y="-303.5" font-family="Helvetica,sans-Serif" font-size="10.00">HashMap&lt; String, Command &gt;</text>
<polyline fill="none" stroke="#bfbfbf" points="-0.5,-296.5 152.5,-296.5 "/>
<text text-anchor="middle" x="76" y="-284.5" font-family="Helvetica,sans-Serif" font-size="10.00"> </text>
<polyline fill="none" stroke="#bfbfbf" points="-0.5,-277.5 152.5,-277.5 "/>
<text text-anchor="middle" x="76" y="-265.5" font-family="Helvetica,sans-Serif" font-size="10.00"> </text>
</g>
<!-- Node3&#45;&gt;Node2 -->
<g id="edge2" class="edge"><title>Node3&#45;&gt;Node2</title>
<path fill="none" stroke="#404040" d="M76,-258.24C76,-247.242 76,-234.179 76,-221.364"/>
<polygon fill="none" stroke="#404040" points="76.0001,-221.23 72,-215.23 76,-209.23 80,-215.23 76.0001,-221.23"/>
<text text-anchor="middle" x="103.5" y="-231.5" font-family="Helvetica,sans-Serif" font-size="10.00"> &#45;commands</text>
</g>
</g>
</svg>
