<?xml version="1.0" encoding="UTF-8" standalone="no"?>
<!DOCTYPE svg PUBLIC "-//W3C//DTD SVG 1.1//EN"
 "http://www.w3.org/Graphics/SVG/1.1/DTD/svg11.dtd">
<!-- Generated by graphviz version 2.36.0 (20140111.2315)
 -->
<!-- Title: pkg_world.Player Pages: 1 -->
<svg width="405pt" height="706pt"
 viewBox="0.00 0.00 405.00 706.00" xmlns="http://www.w3.org/2000/svg" xmlns:xlink="http://www.w3.org/1999/xlink">
<g id="graph0" class="graph" transform="scale(1 1) rotate(0) translate(4 702)">
<title>pkg_world.Player</title>
<polygon fill="white" stroke="none" points="-4,4 -4,-702 401,-702 401,4 -4,4"/>
<!-- Node1 -->
<g id="node1" class="node"><title>Node1</title>
<polygon fill="#bfbfbf" stroke="black" points="135,-0.5 135,-189.5 257,-189.5 257,-0.5 135,-0.5"/>
<text text-anchor="middle" x="196" y="-177.5" font-family="Helvetica,sans-Serif" font-size="10.00">pkg_world.Player</text>
<polyline fill="none" stroke="black" points="135,-170.5 257,-170.5 "/>
<text text-anchor="start" x="143" y="-158.5" font-family="Helvetica,sans-Serif" font-size="10.00">&#45; name</text>
<text text-anchor="start" x="143" y="-147.5" font-family="Helvetica,sans-Serif" font-size="10.00">&#45; backpackWeight</text>
<text text-anchor="start" x="143" y="-136.5" font-family="Helvetica,sans-Serif" font-size="10.00">&#45; maxWeight</text>
<polyline fill="none" stroke="black" points="135,-129.5 257,-129.5 "/>
<text text-anchor="start" x="143" y="-117.5" font-family="Helvetica,sans-Serif" font-size="10.00">+ Player()</text>
<text text-anchor="start" x="143" y="-106.5" font-family="Helvetica,sans-Serif" font-size="10.00">+ getName()</text>
<text text-anchor="start" x="143" y="-95.5" font-family="Helvetica,sans-Serif" font-size="10.00">+ getMaxWeight()</text>
<text text-anchor="start" x="143" y="-84.5" font-family="Helvetica,sans-Serif" font-size="10.00">+ setMaxWeight()</text>
<text text-anchor="start" x="143" y="-73.5" font-family="Helvetica,sans-Serif" font-size="10.00">+ getCurrentRoom()</text>
<text text-anchor="start" x="143" y="-62.5" font-family="Helvetica,sans-Serif" font-size="10.00">+ goRoom()</text>
<text text-anchor="start" x="143" y="-51.5" font-family="Helvetica,sans-Serif" font-size="10.00">+ getPreviousRoom()</text>
<text text-anchor="start" x="143" y="-40.5" font-family="Helvetica,sans-Serif" font-size="10.00">+ pushPreviousRooms()</text>
<text text-anchor="start" x="143" y="-29.5" font-family="Helvetica,sans-Serif" font-size="10.00">+ pushForward()</text>
<text text-anchor="start" x="143" y="-18.5" font-family="Helvetica,sans-Serif" font-size="10.00">+ popPreviousRooms()</text>
<text text-anchor="start" x="143" y="-7.5" font-family="Helvetica,sans-Serif" font-size="10.00">and 10 more...</text>
</g>
<!-- Node2 -->
<g id="node2" class="node"><title>Node2</title>
<g id="a_node2"><a xlink:href="classpkg__world_1_1ItemList.html" target="_top" xlink:title="class ItemList used to handle a list of Item (inventory). ">
<polygon fill="white" stroke="black" points="139.5,-526.5 139.5,-583.5 238.5,-583.5 238.5,-526.5 139.5,-526.5"/>
<text text-anchor="middle" x="189" y="-571.5" font-family="Helvetica,sans-Serif" font-size="10.00">pkg_world.ItemList</text>
<polyline fill="none" stroke="black" points="139.5,-564.5 238.5,-564.5 "/>
<text text-anchor="middle" x="189" y="-552.5" font-family="Helvetica,sans-Serif" font-size="10.00"> </text>
<polyline fill="none" stroke="black" points="139.5,-545.5 238.5,-545.5 "/>
<text text-anchor="start" x="147.5" y="-533.5" font-family="Helvetica,sans-Serif" font-size="10.00">+ transfer()</text>
</a>
</g>
</g>
<!-- Node2&#45;&gt;Node1 -->
<g id="edge1" class="edge"><title>Node2&#45;&gt;Node1</title>
<path fill="none" stroke="#404040" d="M189.422,-526.381C190.381,-463.625 192.767,-307.543 194.385,-201.638"/>
<polygon fill="none" stroke="#404040" points="194.386,-201.624 190.478,-195.563 194.569,-189.625 198.477,-195.686 194.386,-201.624"/>
<text text-anchor="middle" x="218.5" y="-357.5" font-family="Helvetica,sans-Serif" font-size="10.00"> &#45;backpack</text>
</g>
<!-- Node4 -->
<g id="node4" class="node"><title>Node4</title>
<g id="a_node4"><a xlink:href="classpkg__world_1_1Room.html" target="_top" xlink:title="Class used to handle a game&#39;s room. ">
<polygon fill="white" stroke="black" points="42,-249 42,-471 160,-471 160,-249 42,-249"/>
<text text-anchor="middle" x="101" y="-459" font-family="Helvetica,sans-Serif" font-size="10.00">pkg_world.Room</text>
<polyline fill="none" stroke="black" points="42,-452 160,-452 "/>
<text text-anchor="start" x="50" y="-440" font-family="Helvetica,sans-Serif" font-size="10.00">&#45; description</text>
<text text-anchor="start" x="50" y="-429" font-family="Helvetica,sans-Serif" font-size="10.00">&#45; imageName</text>
<polyline fill="none" stroke="black" points="42,-422 160,-422 "/>
<text text-anchor="start" x="50" y="-410" font-family="Helvetica,sans-Serif" font-size="10.00">+ Room()</text>
<text text-anchor="start" x="50" y="-399" font-family="Helvetica,sans-Serif" font-size="10.00">+ Room()</text>
<text text-anchor="start" x="50" y="-388" font-family="Helvetica,sans-Serif" font-size="10.00">+ setExit()</text>
<text text-anchor="start" x="50" y="-377" font-family="Helvetica,sans-Serif" font-size="10.00">+ getContainedItems()</text>
<text text-anchor="start" x="50" y="-366" font-family="Helvetica,sans-Serif" font-size="10.00">+ getItem()</text>
<text text-anchor="start" x="50" y="-355" font-family="Helvetica,sans-Serif" font-size="10.00">+ hasItem()</text>
<text text-anchor="start" x="50" y="-344" font-family="Helvetica,sans-Serif" font-size="10.00">+ addItem()</text>
<text text-anchor="start" x="50" y="-333" font-family="Helvetica,sans-Serif" font-size="10.00">+ removeItem()</text>
<text text-anchor="start" x="50" y="-322" font-family="Helvetica,sans-Serif" font-size="10.00">+ getShortDescription()</text>
<text text-anchor="start" x="50" y="-311" font-family="Helvetica,sans-Serif" font-size="10.00">+ getLongDescription()</text>
<text text-anchor="start" x="50" y="-300" font-family="Helvetica,sans-Serif" font-size="10.00">+ getHumanItemsList()</text>
<text text-anchor="start" x="50" y="-289" font-family="Helvetica,sans-Serif" font-size="10.00">+ getExit()</text>
<text text-anchor="start" x="50" y="-278" font-family="Helvetica,sans-Serif" font-size="10.00">+ isExit()</text>
<text text-anchor="start" x="50" y="-267" font-family="Helvetica,sans-Serif" font-size="10.00">+ getImageName()</text>
<text text-anchor="start" x="50" y="-256" font-family="Helvetica,sans-Serif" font-size="10.00">&#45; getExitString()</text>
</a>
</g>
</g>
<!-- Node2&#45;&gt;Node4 -->
<g id="edge4" class="edge"><title>Node2&#45;&gt;Node4</title>
<path fill="none" stroke="#404040" d="M139.474,-531.966C127.52,-524.236 116.147,-514.323 109,-502 105.454,-495.886 102.605,-489.36 100.341,-482.594"/>
<polygon fill="none" stroke="#404040" points="100.331,-482.557 94.8486,-477.872 97.0643,-471.01 102.547,-475.694 100.331,-482.557"/>
<text text-anchor="middle" x="145.5" y="-493.5" font-family="Helvetica,sans-Serif" font-size="10.00"> &#45;containedItems</text>
</g>
<!-- Node3 -->
<g id="node3" class="node"><title>Node3</title>
<polygon fill="white" stroke="#bfbfbf" points="138.5,-629 138.5,-697 239.5,-697 239.5,-629 138.5,-629"/>
<text text-anchor="start" x="146.5" y="-685" font-family="Helvetica,sans-Serif" font-size="10.00">java::util::HashMap</text>
<text text-anchor="middle" x="189" y="-674" font-family="Helvetica,sans-Serif" font-size="10.00">&lt; String, Item &gt;</text>
<polyline fill="none" stroke="#bfbfbf" points="138.5,-667 239.5,-667 "/>
<text text-anchor="middle" x="189" y="-655" font-family="Helvetica,sans-Serif" font-size="10.00"> </text>
<polyline fill="none" stroke="#bfbfbf" points="138.5,-648 239.5,-648 "/>
<text text-anchor="middle" x="189" y="-636" font-family="Helvetica,sans-Serif" font-size="10.00"> </text>
</g>
<!-- Node3&#45;&gt;Node2 -->
<g id="edge2" class="edge"><title>Node3&#45;&gt;Node2</title>
<path fill="none" stroke="midnightblue" d="M189,-618.639C189,-606.87 189,-594.444 189,-583.791"/>
<polygon fill="none" stroke="midnightblue" points="185.5,-618.752 189,-628.752 192.5,-618.752 185.5,-618.752"/>
</g>
<!-- Node4&#45;&gt;Node1 -->
<g id="edge3" class="edge"><title>Node4&#45;&gt;Node1</title>
<path fill="none" stroke="#404040" d="M106.09,-248.601C108.645,-234.678 112.172,-220.83 117,-208 120.241,-199.388 124.306,-190.822 128.871,-182.484"/>
<polygon fill="none" stroke="#404040" points="128.892,-182.449 128.432,-175.252 134.897,-172.06 135.358,-179.256 128.892,-182.449"/>
<text text-anchor="middle" x="149.5" y="-222" font-family="Helvetica,sans-Serif" font-size="10.00"> &#45;beamerRoom</text>
<text text-anchor="middle" x="149.5" y="-211" font-family="Helvetica,sans-Serif" font-size="10.00">&#45;currentRoom</text>
</g>
<!-- Node5 -->
<g id="node5" class="node"><title>Node5</title>
<polygon fill="white" stroke="#bfbfbf" points="-0.5,-521 -0.5,-589 114.5,-589 114.5,-521 -0.5,-521"/>
<text text-anchor="start" x="7.5" y="-577" font-family="Helvetica,sans-Serif" font-size="10.00">HashMap&lt; String, pkg</text>
<text text-anchor="middle" x="57" y="-566" font-family="Helvetica,sans-Serif" font-size="10.00">_world.Room &gt;</text>
<polyline fill="none" stroke="#bfbfbf" points="-0.5,-559 114.5,-559 "/>
<text text-anchor="middle" x="57" y="-547" font-family="Helvetica,sans-Serif" font-size="10.00"> </text>
<polyline fill="none" stroke="#bfbfbf" points="-0.5,-540 114.5,-540 "/>
<text text-anchor="middle" x="57" y="-528" font-family="Helvetica,sans-Serif" font-size="10.00"> </text>
</g>
<!-- Node5&#45;&gt;Node4 -->
<g id="edge5" class="edge"><title>Node5&#45;&gt;Node4</title>
<path fill="none" stroke="#404040" d="M55.5949,-520.935C55.6851,-510.937 56.3023,-499.969 58,-490 58.3939,-487.687 58.8219,-485.36 59.281,-483.022"/>
<polygon fill="none" stroke="#404040" points="59.2858,-483 56.6427,-476.29 61.8192,-471.27 64.4623,-477.979 59.2858,-483"/>
<text text-anchor="middle" x="72" y="-493.5" font-family="Helvetica,sans-Serif" font-size="10.00"> &#45;exits</text>
</g>
<!-- Node6 -->
<g id="node6" class="node"><title>Node6</title>
<polygon fill="white" stroke="#bfbfbf" points="263,-331.5 263,-388.5 397,-388.5 397,-331.5 263,-331.5"/>
<text text-anchor="middle" x="330" y="-376.5" font-family="Helvetica,sans-Serif" font-size="10.00">Stack&lt; pkg_world.Room &gt;</text>
<polyline fill="none" stroke="#bfbfbf" points="263,-369.5 397,-369.5 "/>
<text text-anchor="middle" x="330" y="-357.5" font-family="Helvetica,sans-Serif" font-size="10.00"> </text>
<polyline fill="none" stroke="#bfbfbf" points="263,-350.5 397,-350.5 "/>
<text text-anchor="middle" x="330" y="-338.5" font-family="Helvetica,sans-Serif" font-size="10.00"> </text>
</g>
<!-- Node6&#45;&gt;Node1 -->
<g id="edge6" class="edge"><title>Node6&#45;&gt;Node1</title>
<path fill="none" stroke="#404040" d="M315.913,-331.351C300.079,-300.274 273.419,-247.95 249.253,-200.519"/>
<polygon fill="none" stroke="#404040" points="249.105,-200.229 242.817,-196.699 243.658,-189.537 249.946,-193.067 249.105,-200.229"/>
<text text-anchor="middle" x="300.5" y="-216.5" font-family="Helvetica,sans-Serif" font-size="10.00"> &#45;previousRooms</text>
</g>
</g>
</svg>
