<?xml version="1.0" encoding="UTF-8" standalone="no"?>
<!DOCTYPE svg PUBLIC "-//W3C//DTD SVG 1.1//EN"
 "http://www.w3.org/Graphics/SVG/1.1/DTD/svg11.dtd">
<!-- Generated by graphviz version 2.36.0 (20140111.2315)
 -->
<!-- Title: GameEngine Pages: 1 -->
<svg width="434pt" height="1104pt"
 viewBox="0.00 0.00 434.00 1104.00" xmlns="http://www.w3.org/2000/svg" xmlns:xlink="http://www.w3.org/1999/xlink">
<g id="graph0" class="graph" transform="scale(1 1) rotate(0) translate(4 1100)">
<title>GameEngine</title>
<polygon fill="white" stroke="none" points="-4,4 -4,-1100 430,-1100 430,4 -4,4"/>
<!-- Node1 -->
<g id="node1" class="node"><title>Node1</title>
<polygon fill="#bfbfbf" stroke="black" points="96.5,-238.5 96.5,-361.5 213.5,-361.5 213.5,-238.5 96.5,-238.5"/>
<text text-anchor="middle" x="155" y="-349.5" font-family="Helvetica,sans-Serif" font-size="10.00">GameEngine</text>
<polyline fill="none" stroke="black" points="96.5,-342.5 213.5,-342.5 "/>
<text text-anchor="start" x="104.5" y="-330.5" font-family="Helvetica,sans-Serif" font-size="10.00">&#45; helpCount</text>
<text text-anchor="start" x="104.5" y="-319.5" font-family="Helvetica,sans-Serif" font-size="10.00">&#45; commandCountDown</text>
<polyline fill="none" stroke="black" points="96.5,-312.5 213.5,-312.5 "/>
<text text-anchor="start" x="104.5" y="-300.5" font-family="Helvetica,sans-Serif" font-size="10.00">+ GameEngine()</text>
<text text-anchor="start" x="104.5" y="-289.5" font-family="Helvetica,sans-Serif" font-size="10.00">+ setGUI()</text>
<text text-anchor="start" x="104.5" y="-278.5" font-family="Helvetica,sans-Serif" font-size="10.00">+ processCommand()</text>
<text text-anchor="start" x="104.5" y="-267.5" font-family="Helvetica,sans-Serif" font-size="10.00">&#45; printWelcome()</text>
<text text-anchor="start" x="104.5" y="-256.5" font-family="Helvetica,sans-Serif" font-size="10.00">&#45; createRooms()</text>
<text text-anchor="start" x="104.5" y="-245.5" font-family="Helvetica,sans-Serif" font-size="10.00">&#45; endGame()</text>
</g>
<!-- Node3 -->
<g id="node3" class="node"><title>Node3</title>
<g id="a_node3"><a xlink:href="classUserInterface.html" target="_top" xlink:title="Class handling the game&#39;s user interface. ">
<polygon fill="white" stroke="black" points="41,-0.5 41,-189.5 153,-189.5 153,-0.5 41,-0.5"/>
<text text-anchor="middle" x="97" y="-177.5" font-family="Helvetica,sans-Serif" font-size="10.00">UserInterface</text>
<polyline fill="none" stroke="black" points="41,-170.5 153,-170.5 "/>
<text text-anchor="start" x="49" y="-158.5" font-family="Helvetica,sans-Serif" font-size="10.00">&#45; myFrame</text>
<text text-anchor="start" x="49" y="-147.5" font-family="Helvetica,sans-Serif" font-size="10.00">&#45; entryField</text>
<text text-anchor="start" x="49" y="-136.5" font-family="Helvetica,sans-Serif" font-size="10.00">&#45; log</text>
<text text-anchor="start" x="49" y="-125.5" font-family="Helvetica,sans-Serif" font-size="10.00">&#45; image</text>
<text text-anchor="start" x="49" y="-114.5" font-family="Helvetica,sans-Serif" font-size="10.00">&#45; commandsLeftLabel</text>
<polyline fill="none" stroke="black" points="41,-107.5 153,-107.5 "/>
<text text-anchor="start" x="49" y="-95.5" font-family="Helvetica,sans-Serif" font-size="10.00">+ UserInterface()</text>
<text text-anchor="start" x="49" y="-84.5" font-family="Helvetica,sans-Serif" font-size="10.00">+ setCommandsLeft()</text>
<text text-anchor="start" x="49" y="-73.5" font-family="Helvetica,sans-Serif" font-size="10.00">+ print()</text>
<text text-anchor="start" x="49" y="-62.5" font-family="Helvetica,sans-Serif" font-size="10.00">+ println()</text>
<text text-anchor="start" x="49" y="-51.5" font-family="Helvetica,sans-Serif" font-size="10.00">+ showImage()</text>
<text text-anchor="start" x="49" y="-40.5" font-family="Helvetica,sans-Serif" font-size="10.00">+ enable()</text>
<text text-anchor="start" x="49" y="-29.5" font-family="Helvetica,sans-Serif" font-size="10.00">+ actionPerformed()</text>
<text text-anchor="start" x="49" y="-18.5" font-family="Helvetica,sans-Serif" font-size="10.00">&#45; createGUI()</text>
<text text-anchor="start" x="49" y="-7.5" font-family="Helvetica,sans-Serif" font-size="10.00">&#45; processCommand()</text>
</a>
</g>
</g>
<!-- Node1&#45;&gt;Node3 -->
<g id="edge4" class="edge"><title>Node1&#45;&gt;Node3</title>
<path fill="none" stroke="#404040" d="M102.258,-238.263C98.9649,-232.355 96.126,-226.232 94,-220 91.9875,-214.101 90.4684,-207.95 89.357,-201.681"/>
<polygon fill="none" stroke="#404040" points="89.3191,-201.402 84.5459,-195.997 87.6994,-189.512 92.4727,-194.917 89.3191,-201.402"/>
<text text-anchor="middle" x="111.5" y="-211.5" font-family="Helvetica,sans-Serif" font-size="10.00"> &#45;engine</text>
</g>
<!-- Node2 -->
<g id="node2" class="node"><title>Node2</title>
<polygon fill="white" stroke="#bfbfbf" points="51,-476.5 51,-533.5 151,-533.5 151,-476.5 51,-476.5"/>
<text text-anchor="middle" x="101" y="-521.5" font-family="Helvetica,sans-Serif" font-size="10.00">ArrayList&lt; Room &gt;</text>
<polyline fill="none" stroke="#bfbfbf" points="51,-514.5 151,-514.5 "/>
<text text-anchor="middle" x="101" y="-502.5" font-family="Helvetica,sans-Serif" font-size="10.00"> </text>
<polyline fill="none" stroke="#bfbfbf" points="51,-495.5 151,-495.5 "/>
<text text-anchor="middle" x="101" y="-483.5" font-family="Helvetica,sans-Serif" font-size="10.00"> </text>
</g>
<!-- Node2&#45;&gt;Node1 -->
<g id="edge1" class="edge"><title>Node2&#45;&gt;Node1</title>
<path fill="none" stroke="#404040" d="M103.893,-476.014C106.951,-450.611 112.652,-412.299 122,-380 122.651,-377.751 123.347,-375.48 124.079,-373.198"/>
<polygon fill="none" stroke="#404040" points="124.114,-373.097 122.28,-366.123 128.012,-361.747 129.846,-368.721 124.114,-373.097"/>
<text text-anchor="middle" x="154.5" y="-383.5" font-family="Helvetica,sans-Serif" font-size="10.00"> ~gameRooms</text>
</g>
<!-- Node3&#45;&gt;Node1 -->
<g id="edge2" class="edge"><title>Node3&#45;&gt;Node1</title>
<path fill="none" stroke="#404040" d="M127.664,-189.65C129.518,-195.845 131.314,-202.003 133,-208 134.662,-213.912 136.313,-220.06 137.919,-226.248"/>
<polygon fill="none" stroke="#404040" points="137.987,-226.511 143.343,-231.34 140.946,-238.141 135.59,-233.312 137.987,-226.511"/>
<text text-anchor="middle" x="145.5" y="-211.5" font-family="Helvetica,sans-Serif" font-size="10.00"> &#45;gui</text>
</g>
<!-- Node4 -->
<g id="node4" class="node"><title>Node4</title>
<polygon fill="white" stroke="#bfbfbf" points="-0.5,-271.5 -0.5,-328.5 78.5,-328.5 78.5,-271.5 -0.5,-271.5"/>
<text text-anchor="middle" x="39" y="-316.5" font-family="Helvetica,sans-Serif" font-size="10.00">ActionListener</text>
<polyline fill="none" stroke="#bfbfbf" points="-0.5,-309.5 78.5,-309.5 "/>
<text text-anchor="middle" x="39" y="-297.5" font-family="Helvetica,sans-Serif" font-size="10.00"> </text>
<polyline fill="none" stroke="#bfbfbf" points="-0.5,-290.5 78.5,-290.5 "/>
<text text-anchor="middle" x="39" y="-278.5" font-family="Helvetica,sans-Serif" font-size="10.00"> </text>
</g>
<!-- Node4&#45;&gt;Node3 -->
<g id="edge3" class="edge"><title>Node4&#45;&gt;Node3</title>
<path fill="none" stroke="midnightblue" d="M49.7387,-261.414C55.5508,-241.072 63.0129,-214.955 70.2826,-189.511"/>
<polygon fill="none" stroke="midnightblue" points="46.325,-260.623 46.943,-271.199 53.0557,-262.546 46.325,-260.623"/>
</g>
<!-- Node5 -->
<g id="node5" class="node"><title>Node5</title>
<g id="a_node5"><a xlink:href="classPlayer.html" target="_top" xlink:title="class Player used to handle the user&#39;s player. ">
<polygon fill="white" stroke="black" points="169,-410.5 169,-599.5 291,-599.5 291,-410.5 169,-410.5"/>
<text text-anchor="middle" x="230" y="-587.5" font-family="Helvetica,sans-Serif" font-size="10.00">Player</text>
<polyline fill="none" stroke="black" points="169,-580.5 291,-580.5 "/>
<text text-anchor="start" x="177" y="-568.5" font-family="Helvetica,sans-Serif" font-size="10.00">&#45; name</text>
<text text-anchor="start" x="177" y="-557.5" font-family="Helvetica,sans-Serif" font-size="10.00">&#45; backpackWeight</text>
<text text-anchor="start" x="177" y="-546.5" font-family="Helvetica,sans-Serif" font-size="10.00">&#45; maxWeight</text>
<polyline fill="none" stroke="black" points="169,-539.5 291,-539.5 "/>
<text text-anchor="start" x="177" y="-527.5" font-family="Helvetica,sans-Serif" font-size="10.00">+ Player()</text>
<text text-anchor="start" x="177" y="-516.5" font-family="Helvetica,sans-Serif" font-size="10.00">+ getName()</text>
<text text-anchor="start" x="177" y="-505.5" font-family="Helvetica,sans-Serif" font-size="10.00">+ getMaxWeight()</text>
<text text-anchor="start" x="177" y="-494.5" font-family="Helvetica,sans-Serif" font-size="10.00">+ setMaxWeight()</text>
<text text-anchor="start" x="177" y="-483.5" font-family="Helvetica,sans-Serif" font-size="10.00">+ getCurrentRoom()</text>
<text text-anchor="start" x="177" y="-472.5" font-family="Helvetica,sans-Serif" font-size="10.00">+ goRoom()</text>
<text text-anchor="start" x="177" y="-461.5" font-family="Helvetica,sans-Serif" font-size="10.00">+ getPreviousRoom()</text>
<text text-anchor="start" x="177" y="-450.5" font-family="Helvetica,sans-Serif" font-size="10.00">+ pushPreviousRooms()</text>
<text text-anchor="start" x="177" y="-439.5" font-family="Helvetica,sans-Serif" font-size="10.00">+ pushForward()</text>
<text text-anchor="start" x="177" y="-428.5" font-family="Helvetica,sans-Serif" font-size="10.00">+ popPreviousRooms()</text>
<text text-anchor="start" x="177" y="-417.5" font-family="Helvetica,sans-Serif" font-size="10.00">and 10 more...</text>
</a>
</g>
</g>
<!-- Node5&#45;&gt;Node1 -->
<g id="edge5" class="edge"><title>Node5&#45;&gt;Node1</title>
<path fill="none" stroke="#404040" d="M198.107,-410.38C194.435,-400.101 190.686,-389.812 187,-380 186.126,-377.673 185.229,-375.312 184.315,-372.93"/>
<polygon fill="none" stroke="#404040" points="184.295,-372.876 178.393,-368.733 179.948,-361.691 185.85,-365.835 184.295,-372.876"/>
<text text-anchor="middle" x="207.5" y="-383.5" font-family="Helvetica,sans-Serif" font-size="10.00"> &#45;player</text>
</g>
<!-- Node6 -->
<g id="node6" class="node"><title>Node6</title>
<polygon fill="white" stroke="#bfbfbf" points="97,-741.5 97,-798.5 183,-798.5 183,-741.5 97,-741.5"/>
<text text-anchor="middle" x="140" y="-786.5" font-family="Helvetica,sans-Serif" font-size="10.00">Stack&lt; Room &gt;</text>
<polyline fill="none" stroke="#bfbfbf" points="97,-779.5 183,-779.5 "/>
<text text-anchor="middle" x="140" y="-767.5" font-family="Helvetica,sans-Serif" font-size="10.00"> </text>
<polyline fill="none" stroke="#bfbfbf" points="97,-760.5 183,-760.5 "/>
<text text-anchor="middle" x="140" y="-748.5" font-family="Helvetica,sans-Serif" font-size="10.00"> </text>
</g>
<!-- Node6&#45;&gt;Node5 -->
<g id="edge6" class="edge"><title>Node6&#45;&gt;Node5</title>
<path fill="none" stroke="#404040" d="M133.908,-741.218C128.425,-709.871 123.62,-658.04 141,-618 145.632,-607.33 152.275,-608.697 160,-600 160.279,-599.686 160.557,-599.371 160.836,-599.056"/>
<polygon fill="none" stroke="#404040" points="161.096,-598.753 161.97,-591.595 168.913,-589.648 168.04,-596.806 161.096,-598.753"/>
<text text-anchor="middle" x="178.5" y="-626.5" font-family="Helvetica,sans-Serif" font-size="10.00"> &#45;previousRooms</text>
</g>
<!-- Node7 -->
<g id="node7" class="node"><title>Node7</title>
<g id="a_node7"><a xlink:href="classRoom.html" target="_top" xlink:title="Class used to handle a game&#39;s room. ">
<polygon fill="white" stroke="black" points="297,-659 297,-881 415,-881 415,-659 297,-659"/>
<text text-anchor="middle" x="356" y="-869" font-family="Helvetica,sans-Serif" font-size="10.00">Room</text>
<polyline fill="none" stroke="black" points="297,-862 415,-862 "/>
<text text-anchor="start" x="305" y="-850" font-family="Helvetica,sans-Serif" font-size="10.00">&#45; description</text>
<text text-anchor="start" x="305" y="-839" font-family="Helvetica,sans-Serif" font-size="10.00">&#45; imageName</text>
<polyline fill="none" stroke="black" points="297,-832 415,-832 "/>
<text text-anchor="start" x="305" y="-820" font-family="Helvetica,sans-Serif" font-size="10.00">+ Room()</text>
<text text-anchor="start" x="305" y="-809" font-family="Helvetica,sans-Serif" font-size="10.00">+ Room()</text>
<text text-anchor="start" x="305" y="-798" font-family="Helvetica,sans-Serif" font-size="10.00">+ setExit()</text>
<text text-anchor="start" x="305" y="-787" font-family="Helvetica,sans-Serif" font-size="10.00">+ getContainedItems()</text>
<text text-anchor="start" x="305" y="-776" font-family="Helvetica,sans-Serif" font-size="10.00">+ getItem()</text>
<text text-anchor="start" x="305" y="-765" font-family="Helvetica,sans-Serif" font-size="10.00">+ hasItem()</text>
<text text-anchor="start" x="305" y="-754" font-family="Helvetica,sans-Serif" font-size="10.00">+ addItem()</text>
<text text-anchor="start" x="305" y="-743" font-family="Helvetica,sans-Serif" font-size="10.00">+ removeItem()</text>
<text text-anchor="start" x="305" y="-732" font-family="Helvetica,sans-Serif" font-size="10.00">+ getShortDescription()</text>
<text text-anchor="start" x="305" y="-721" font-family="Helvetica,sans-Serif" font-size="10.00">+ getLongDescription()</text>
<text text-anchor="start" x="305" y="-710" font-family="Helvetica,sans-Serif" font-size="10.00">+ getHumanItemsList()</text>
<text text-anchor="start" x="305" y="-699" font-family="Helvetica,sans-Serif" font-size="10.00">+ getExit()</text>
<text text-anchor="start" x="305" y="-688" font-family="Helvetica,sans-Serif" font-size="10.00">+ isExit()</text>
<text text-anchor="start" x="305" y="-677" font-family="Helvetica,sans-Serif" font-size="10.00">+ getImageName()</text>
<text text-anchor="start" x="305" y="-666" font-family="Helvetica,sans-Serif" font-size="10.00">&#45; getExitString()</text>
</a>
</g>
</g>
<!-- Node7&#45;&gt;Node5 -->
<g id="edge7" class="edge"><title>Node7&#45;&gt;Node5</title>
<path fill="none" stroke="#404040" d="M303.295,-658.988C295.624,-642.977 287.744,-626.529 280.126,-610.628"/>
<polygon fill="none" stroke="#404040" points="280.085,-610.541 273.885,-606.859 274.9,-599.719 281.1,-603.402 280.085,-610.541"/>
<text text-anchor="middle" x="325.5" y="-632" font-family="Helvetica,sans-Serif" font-size="10.00"> &#45;beamerRoom</text>
<text text-anchor="middle" x="325.5" y="-621" font-family="Helvetica,sans-Serif" font-size="10.00">&#45;currentRoom</text>
</g>
<!-- Node8 -->
<g id="node8" class="node"><title>Node8</title>
<g id="a_node8"><a xlink:href="classItemList.html" target="_top" xlink:title="class ItemList used to handle a list of Item (inventory). ">
<polygon fill="white" stroke="black" points="202.5,-930.5 202.5,-987.5 267.5,-987.5 267.5,-930.5 202.5,-930.5"/>
<text text-anchor="middle" x="235" y="-975.5" font-family="Helvetica,sans-Serif" font-size="10.00">ItemList</text>
<polyline fill="none" stroke="black" points="202.5,-968.5 267.5,-968.5 "/>
<text text-anchor="middle" x="235" y="-956.5" font-family="Helvetica,sans-Serif" font-size="10.00"> </text>
<polyline fill="none" stroke="black" points="202.5,-949.5 267.5,-949.5 "/>
<text text-anchor="start" x="210.5" y="-937.5" font-family="Helvetica,sans-Serif" font-size="10.00">+ transfer()</text>
</a>
</g>
</g>
<!-- Node8&#45;&gt;Node5 -->
<g id="edge11" class="edge"><title>Node8&#45;&gt;Node5</title>
<path fill="none" stroke="#404040" d="M234.695,-930.406C234.01,-868.549 232.324,-716.055 231.17,-611.76"/>
<polygon fill="none" stroke="#404040" points="231.168,-611.606 227.102,-605.65 231.035,-599.606 235.102,-605.562 231.168,-611.606"/>
<text text-anchor="middle" x="258.5" y="-767.5" font-family="Helvetica,sans-Serif" font-size="10.00"> &#45;backpack</text>
</g>
<!-- Node8&#45;&gt;Node7 -->
<g id="edge8" class="edge"><title>Node8&#45;&gt;Node7</title>
<path fill="none" stroke="#404040" d="M252.854,-930.408C263.012,-914.708 276.435,-893.965 290.225,-872.652"/>
<polygon fill="none" stroke="#404040" points="290.274,-872.576 290.175,-865.366 296.793,-862.501 296.892,-869.712 290.274,-872.576"/>
<text text-anchor="middle" x="306.5" y="-903.5" font-family="Helvetica,sans-Serif" font-size="10.00"> &#45;containedItems</text>
</g>
<!-- Node9 -->
<g id="node9" class="node"><title>Node9</title>
<polygon fill="white" stroke="#bfbfbf" points="184.5,-1027 184.5,-1095 285.5,-1095 285.5,-1027 184.5,-1027"/>
<text text-anchor="start" x="192.5" y="-1083" font-family="Helvetica,sans-Serif" font-size="10.00">java::util::HashMap</text>
<text text-anchor="middle" x="235" y="-1072" font-family="Helvetica,sans-Serif" font-size="10.00">&lt; String, Item &gt;</text>
<polyline fill="none" stroke="#bfbfbf" points="184.5,-1065 285.5,-1065 "/>
<text text-anchor="middle" x="235" y="-1053" font-family="Helvetica,sans-Serif" font-size="10.00"> </text>
<polyline fill="none" stroke="#bfbfbf" points="184.5,-1046 285.5,-1046 "/>
<text text-anchor="middle" x="235" y="-1034" font-family="Helvetica,sans-Serif" font-size="10.00"> </text>
</g>
<!-- Node9&#45;&gt;Node8 -->
<g id="edge9" class="edge"><title>Node9&#45;&gt;Node8</title>
<path fill="none" stroke="midnightblue" d="M235,-1016.86C235,-1006.95 235,-996.682 235,-987.64"/>
<polygon fill="none" stroke="midnightblue" points="231.5,-1016.98 235,-1026.98 238.5,-1016.98 231.5,-1016.98"/>
</g>
<!-- Node10 -->
<g id="node10" class="node"><title>Node10</title>
<polygon fill="white" stroke="#bfbfbf" points="292,-930.5 292,-987.5 426,-987.5 426,-930.5 292,-930.5"/>
<text text-anchor="middle" x="359" y="-975.5" font-family="Helvetica,sans-Serif" font-size="10.00">HashMap&lt; String, Room &gt;</text>
<polyline fill="none" stroke="#bfbfbf" points="292,-968.5 426,-968.5 "/>
<text text-anchor="middle" x="359" y="-956.5" font-family="Helvetica,sans-Serif" font-size="10.00"> </text>
<polyline fill="none" stroke="#bfbfbf" points="292,-949.5 426,-949.5 "/>
<text text-anchor="middle" x="359" y="-937.5" font-family="Helvetica,sans-Serif" font-size="10.00"> </text>
</g>
<!-- Node10&#45;&gt;Node7 -->
<g id="edge10" class="edge"><title>Node10&#45;&gt;Node7</title>
<path fill="none" stroke="#404040" d="M358.557,-930.408C358.388,-919.878 358.183,-907.08 357.963,-893.362"/>
<polygon fill="none" stroke="#404040" points="357.959,-893.104 353.863,-887.169 357.766,-881.105 361.862,-887.04 357.959,-893.104"/>
<text text-anchor="middle" x="372" y="-903.5" font-family="Helvetica,sans-Serif" font-size="10.00"> &#45;exits</text>
</g>
</g>
</svg>
