<?xml version="1.0" encoding="UTF-8" standalone="no"?>
<!DOCTYPE svg PUBLIC "-//W3C//DTD SVG 1.1//EN"
 "http://www.w3.org/Graphics/SVG/1.1/DTD/svg11.dtd">
<!-- Generated by graphviz version 2.36.0 (20140111.2315)
 -->
<!-- Title: Room Pages: 1 -->
<svg width="243pt" height="446pt"
 viewBox="0.00 0.00 243.00 446.00" xmlns="http://www.w3.org/2000/svg" xmlns:xlink="http://www.w3.org/1999/xlink">
<g id="graph0" class="graph" transform="scale(1 1) rotate(0) translate(4 442)">
<title>Room</title>
<polygon fill="white" stroke="none" points="-4,4 -4,-442 239,-442 239,4 -4,4"/>
<!-- Node1 -->
<g id="node1" class="node"><title>Node1</title>
<polygon fill="#bfbfbf" stroke="black" points="61,-1 61,-223 179,-223 179,-1 61,-1"/>
<text text-anchor="middle" x="120" y="-211" font-family="Helvetica,sans-Serif" font-size="10.00">Room</text>
<polyline fill="none" stroke="black" points="61,-204 179,-204 "/>
<text text-anchor="start" x="69" y="-192" font-family="Helvetica,sans-Serif" font-size="10.00">&#45; description</text>
<text text-anchor="start" x="69" y="-181" font-family="Helvetica,sans-Serif" font-size="10.00">&#45; imageName</text>
<polyline fill="none" stroke="black" points="61,-174 179,-174 "/>
<text text-anchor="start" x="69" y="-162" font-family="Helvetica,sans-Serif" font-size="10.00">+ Room()</text>
<text text-anchor="start" x="69" y="-151" font-family="Helvetica,sans-Serif" font-size="10.00">+ Room()</text>
<text text-anchor="start" x="69" y="-140" font-family="Helvetica,sans-Serif" font-size="10.00">+ setExit()</text>
<text text-anchor="start" x="69" y="-129" font-family="Helvetica,sans-Serif" font-size="10.00">+ getContainedItems()</text>
<text text-anchor="start" x="69" y="-118" font-family="Helvetica,sans-Serif" font-size="10.00">+ getItem()</text>
<text text-anchor="start" x="69" y="-107" font-family="Helvetica,sans-Serif" font-size="10.00">+ hasItem()</text>
<text text-anchor="start" x="69" y="-96" font-family="Helvetica,sans-Serif" font-size="10.00">+ addItem()</text>
<text text-anchor="start" x="69" y="-85" font-family="Helvetica,sans-Serif" font-size="10.00">+ removeItem()</text>
<text text-anchor="start" x="69" y="-74" font-family="Helvetica,sans-Serif" font-size="10.00">+ getShortDescription()</text>
<text text-anchor="start" x="69" y="-63" font-family="Helvetica,sans-Serif" font-size="10.00">+ getLongDescription()</text>
<text text-anchor="start" x="69" y="-52" font-family="Helvetica,sans-Serif" font-size="10.00">+ getHumanItemsList()</text>
<text text-anchor="start" x="69" y="-41" font-family="Helvetica,sans-Serif" font-size="10.00">+ getExit()</text>
<text text-anchor="start" x="69" y="-30" font-family="Helvetica,sans-Serif" font-size="10.00">+ isExit()</text>
<text text-anchor="start" x="69" y="-19" font-family="Helvetica,sans-Serif" font-size="10.00">+ getImageName()</text>
<text text-anchor="start" x="69" y="-8" font-family="Helvetica,sans-Serif" font-size="10.00">&#45; getExitString()</text>
</g>
<!-- Node2 -->
<g id="node2" class="node"><title>Node2</title>
<g id="a_node2"><a xlink:href="classItemList.html" target="_top" xlink:title="class ItemList used to handle a list of Item (inventory). ">
<polygon fill="white" stroke="black" points="17.5,-272.5 17.5,-329.5 82.5,-329.5 82.5,-272.5 17.5,-272.5"/>
<text text-anchor="middle" x="50" y="-317.5" font-family="Helvetica,sans-Serif" font-size="10.00">ItemList</text>
<polyline fill="none" stroke="black" points="17.5,-310.5 82.5,-310.5 "/>
<text text-anchor="middle" x="50" y="-298.5" font-family="Helvetica,sans-Serif" font-size="10.00"> </text>
<polyline fill="none" stroke="black" points="17.5,-291.5 82.5,-291.5 "/>
<text text-anchor="start" x="25.5" y="-279.5" font-family="Helvetica,sans-Serif" font-size="10.00">+ transfer()</text>
</a>
</g>
</g>
<!-- Node2&#45;&gt;Node1 -->
<g id="edge1" class="edge"><title>Node2&#45;&gt;Node1</title>
<path fill="none" stroke="#404040" d="M60.3287,-272.408C64.3499,-261.665 69.255,-248.562 74.5075,-234.53"/>
<polygon fill="none" stroke="#404040" points="74.5772,-234.344 72.9346,-227.322 78.7842,-223.105 80.4269,-230.127 74.5772,-234.344"/>
<text text-anchor="middle" x="107.5" y="-245.5" font-family="Helvetica,sans-Serif" font-size="10.00"> &#45;containedItems</text>
</g>
<!-- Node3 -->
<g id="node3" class="node"><title>Node3</title>
<polygon fill="white" stroke="#bfbfbf" points="-0.5,-369 -0.5,-437 100.5,-437 100.5,-369 -0.5,-369"/>
<text text-anchor="start" x="7.5" y="-425" font-family="Helvetica,sans-Serif" font-size="10.00">java::util::HashMap</text>
<text text-anchor="middle" x="50" y="-414" font-family="Helvetica,sans-Serif" font-size="10.00">&lt; String, Item &gt;</text>
<polyline fill="none" stroke="#bfbfbf" points="-0.5,-407 100.5,-407 "/>
<text text-anchor="middle" x="50" y="-395" font-family="Helvetica,sans-Serif" font-size="10.00"> </text>
<polyline fill="none" stroke="#bfbfbf" points="-0.5,-388 100.5,-388 "/>
<text text-anchor="middle" x="50" y="-376" font-family="Helvetica,sans-Serif" font-size="10.00"> </text>
</g>
<!-- Node3&#45;&gt;Node2 -->
<g id="edge2" class="edge"><title>Node3&#45;&gt;Node2</title>
<path fill="none" stroke="midnightblue" d="M50,-358.857C50,-348.952 50,-338.682 50,-329.64"/>
<polygon fill="none" stroke="midnightblue" points="46.5001,-358.979 50,-368.979 53.5001,-358.979 46.5001,-358.979"/>
</g>
<!-- Node4 -->
<g id="node4" class="node"><title>Node4</title>
<polygon fill="white" stroke="#bfbfbf" points="101,-272.5 101,-329.5 235,-329.5 235,-272.5 101,-272.5"/>
<text text-anchor="middle" x="168" y="-317.5" font-family="Helvetica,sans-Serif" font-size="10.00">HashMap&lt; String, Room &gt;</text>
<polyline fill="none" stroke="#bfbfbf" points="101,-310.5 235,-310.5 "/>
<text text-anchor="middle" x="168" y="-298.5" font-family="Helvetica,sans-Serif" font-size="10.00"> </text>
<polyline fill="none" stroke="#bfbfbf" points="101,-291.5 235,-291.5 "/>
<text text-anchor="middle" x="168" y="-279.5" font-family="Helvetica,sans-Serif" font-size="10.00"> </text>
</g>
<!-- Node4&#45;&gt;Node1 -->
<g id="edge3" class="edge"><title>Node4&#45;&gt;Node1</title>
<path fill="none" stroke="#404040" d="M160.917,-272.408C158.187,-261.772 154.863,-248.821 151.302,-234.946"/>
<polygon fill="none" stroke="#404040" points="151.246,-234.728 145.88,-229.911 148.262,-223.105 153.628,-227.922 151.246,-234.728"/>
<text text-anchor="middle" x="170" y="-245.5" font-family="Helvetica,sans-Serif" font-size="10.00"> &#45;exits</text>
</g>
</g>
</svg>
