<?xml version="1.0" encoding="UTF-8" standalone="no"?>
<!DOCTYPE svg PUBLIC "-//W3C//DTD SVG 1.1//EN"
 "http://www.w3.org/Graphics/SVG/1.1/DTD/svg11.dtd">
<!-- Generated by graphviz version 2.36.0 (20140111.2315)
 -->
<!-- Title: pkg_world.Room Pages: 1 -->
<svg width="476pt" height="436pt"
 viewBox="0.00 0.00 476.00 436.00" xmlns="http://www.w3.org/2000/svg" xmlns:xlink="http://www.w3.org/1999/xlink">
<g id="graph0" class="graph" transform="scale(1 1) rotate(0) translate(4 432)">
<title>pkg_world.Room</title>
<polygon fill="white" stroke="none" points="-4,4 -4,-432 472,-432 472,4 -4,4"/>
<!-- Node1 -->
<g id="node1" class="node"><title>Node1</title>
<polygon fill="#bfbfbf" stroke="black" points="149,-1 149,-201 263,-201 263,-1 149,-1"/>
<text text-anchor="middle" x="206" y="-189" font-family="Helvetica,sans-Serif" font-size="10.00">pkg_world.Room</text>
<polyline fill="none" stroke="black" points="149,-182 263,-182 "/>
<text text-anchor="start" x="157" y="-170" font-family="Helvetica,sans-Serif" font-size="10.00">&#45; description</text>
<text text-anchor="start" x="157" y="-159" font-family="Helvetica,sans-Serif" font-size="10.00">&#45; imageName</text>
<polyline fill="none" stroke="black" points="149,-152 263,-152 "/>
<text text-anchor="start" x="157" y="-140" font-family="Helvetica,sans-Serif" font-size="10.00">+ Room()</text>
<text text-anchor="start" x="157" y="-129" font-family="Helvetica,sans-Serif" font-size="10.00">+ Room()</text>
<text text-anchor="start" x="157" y="-118" font-family="Helvetica,sans-Serif" font-size="10.00">+ setExit()</text>
<text text-anchor="start" x="157" y="-107" font-family="Helvetica,sans-Serif" font-size="10.00">+ getContainedItems()</text>
<text text-anchor="start" x="157" y="-96" font-family="Helvetica,sans-Serif" font-size="10.00">+ getItem()</text>
<text text-anchor="start" x="157" y="-85" font-family="Helvetica,sans-Serif" font-size="10.00">+ getCharacter()</text>
<text text-anchor="start" x="157" y="-74" font-family="Helvetica,sans-Serif" font-size="10.00">+ hasItem()</text>
<text text-anchor="start" x="157" y="-63" font-family="Helvetica,sans-Serif" font-size="10.00">+ hasCharacter()</text>
<text text-anchor="start" x="157" y="-52" font-family="Helvetica,sans-Serif" font-size="10.00">+ addItem()</text>
<text text-anchor="start" x="157" y="-41" font-family="Helvetica,sans-Serif" font-size="10.00">+ addCharacter()</text>
<text text-anchor="start" x="157" y="-30" font-family="Helvetica,sans-Serif" font-size="10.00">and 10 more...</text>
<text text-anchor="start" x="157" y="-19" font-family="Helvetica,sans-Serif" font-size="10.00">&#45; getHumanList()</text>
<text text-anchor="start" x="157" y="-8" font-family="Helvetica,sans-Serif" font-size="10.00">&#45; getExitString()</text>
</g>
<!-- Node2 -->
<g id="node2" class="node"><title>Node2</title>
<polygon fill="white" stroke="#bfbfbf" points="-0.5,-251 -0.5,-319 114.5,-319 114.5,-251 -0.5,-251"/>
<text text-anchor="start" x="7.5" y="-307" font-family="Helvetica,sans-Serif" font-size="10.00">HashMap&lt; String, pkg</text>
<text text-anchor="middle" x="57" y="-296" font-family="Helvetica,sans-Serif" font-size="10.00">_world.Room &gt;</text>
<polyline fill="none" stroke="#bfbfbf" points="-0.5,-289 114.5,-289 "/>
<text text-anchor="middle" x="57" y="-277" font-family="Helvetica,sans-Serif" font-size="10.00"> </text>
<polyline fill="none" stroke="#bfbfbf" points="-0.5,-270 114.5,-270 "/>
<text text-anchor="middle" x="57" y="-258" font-family="Helvetica,sans-Serif" font-size="10.00"> </text>
</g>
<!-- Node2&#45;&gt;Node1 -->
<g id="edge1" class="edge"><title>Node2&#45;&gt;Node1</title>
<path fill="none" stroke="#404040" d="M84.3289,-250.618C100.346,-231.054 121.304,-205.454 141.303,-181.026"/>
<polygon fill="none" stroke="#404040" points="141.307,-181.021 142.013,-173.844 148.909,-171.736 148.203,-178.912 141.307,-181.021"/>
<text text-anchor="middle" x="120" y="-223.5" font-family="Helvetica,sans-Serif" font-size="10.00"> &#45;exits</text>
</g>
<!-- Node3 -->
<g id="node3" class="node"><title>Node3</title>
<g id="a_node3"><a xlink:href="classpkg__world_1_1pkg__items_1_1ItemList.html" target="_top" xlink:title="class ItemList used to handle a list of Item (inventory). ">
<polygon fill="white" stroke="black" points="132.5,-256.5 132.5,-313.5 279.5,-313.5 279.5,-256.5 132.5,-256.5"/>
<text text-anchor="middle" x="206" y="-301.5" font-family="Helvetica,sans-Serif" font-size="10.00">pkg_world.pkg_items.ItemList</text>
<polyline fill="none" stroke="black" points="132.5,-294.5 279.5,-294.5 "/>
<text text-anchor="middle" x="206" y="-282.5" font-family="Helvetica,sans-Serif" font-size="10.00"> </text>
<polyline fill="none" stroke="black" points="132.5,-275.5 279.5,-275.5 "/>
<text text-anchor="start" x="140.5" y="-263.5" font-family="Helvetica,sans-Serif" font-size="10.00">+ transfer()</text>
</a>
</g>
</g>
<!-- Node3&#45;&gt;Node1 -->
<g id="edge2" class="edge"><title>Node3&#45;&gt;Node1</title>
<path fill="none" stroke="#404040" d="M206,-256.358C206,-244.313 206,-229.329 206,-213.469"/>
<polygon fill="none" stroke="#404040" points="206,-213.205 202,-207.205 206,-201.205 210,-207.205 206,-213.205"/>
<text text-anchor="middle" x="242.5" y="-223.5" font-family="Helvetica,sans-Serif" font-size="10.00"> &#45;containedItems</text>
</g>
<!-- Node4 -->
<g id="node4" class="node"><title>Node4</title>
<polygon fill="white" stroke="#bfbfbf" points="155.5,-359 155.5,-427 256.5,-427 256.5,-359 155.5,-359"/>
<text text-anchor="start" x="163.5" y="-415" font-family="Helvetica,sans-Serif" font-size="10.00">java::util::HashMap</text>
<text text-anchor="middle" x="206" y="-404" font-family="Helvetica,sans-Serif" font-size="10.00">&lt; String, Item &gt;</text>
<polyline fill="none" stroke="#bfbfbf" points="155.5,-397 256.5,-397 "/>
<text text-anchor="middle" x="206" y="-385" font-family="Helvetica,sans-Serif" font-size="10.00"> </text>
<polyline fill="none" stroke="#bfbfbf" points="155.5,-378 256.5,-378 "/>
<text text-anchor="middle" x="206" y="-366" font-family="Helvetica,sans-Serif" font-size="10.00"> </text>
</g>
<!-- Node4&#45;&gt;Node3 -->
<g id="edge3" class="edge"><title>Node4&#45;&gt;Node3</title>
<path fill="none" stroke="midnightblue" d="M206,-348.639C206,-336.87 206,-324.444 206,-313.791"/>
<polygon fill="none" stroke="midnightblue" points="202.5,-348.752 206,-358.752 209.5,-348.752 202.5,-348.752"/>
</g>
<!-- Node5 -->
<g id="node5" class="node"><title>Node5</title>
<polygon fill="white" stroke="#bfbfbf" points="298,-251 298,-319 468,-319 468,-251 298,-251"/>
<text text-anchor="start" x="306" y="-307" font-family="Helvetica,sans-Serif" font-size="10.00">HashMap&lt; String, pkg</text>
<text text-anchor="middle" x="383" y="-296" font-family="Helvetica,sans-Serif" font-size="10.00">_world.pkg_characters.Character &gt;</text>
<polyline fill="none" stroke="#bfbfbf" points="298,-289 468,-289 "/>
<text text-anchor="middle" x="383" y="-277" font-family="Helvetica,sans-Serif" font-size="10.00"> </text>
<polyline fill="none" stroke="#bfbfbf" points="298,-270 468,-270 "/>
<text text-anchor="middle" x="383" y="-258" font-family="Helvetica,sans-Serif" font-size="10.00"> </text>
</g>
<!-- Node5&#45;&gt;Node1 -->
<g id="edge4" class="edge"><title>Node5&#45;&gt;Node1</title>
<path fill="none" stroke="#404040" d="M350.535,-250.618C328.562,-228.024 298.759,-197.38 271.924,-169.786"/>
<polygon fill="none" stroke="#404040" points="271.696,-169.551 264.645,-168.039 263.329,-160.949 270.38,-162.461 271.696,-169.551"/>
<text text-anchor="middle" x="379.5" y="-223.5" font-family="Helvetica,sans-Serif" font-size="10.00"> &#45;containedCharacters</text>
</g>
</g>
</svg>
