<?xml version="1.0" encoding="UTF-8" standalone="no"?>
<!DOCTYPE svg PUBLIC "-//W3C//DTD SVG 1.1//EN"
 "http://www.w3.org/Graphics/SVG/1.1/DTD/svg11.dtd">
<!-- Generated by graphviz version 2.36.0 (20140111.2315)
 -->
<!-- Title: pkg_world.pkg_characters.Character Pages: 1 -->
<svg width="255pt" height="360pt"
 viewBox="0.00 0.00 255.00 360.00" xmlns="http://www.w3.org/2000/svg" xmlns:xlink="http://www.w3.org/1999/xlink">
<g id="graph0" class="graph" transform="scale(1 1) rotate(0) translate(4 356)">
<title>pkg_world.pkg_characters.Character</title>
<polygon fill="white" stroke="none" points="-4,4 -4,-356 251,-356 251,4 -4,4"/>
<!-- Node1 -->
<g id="node1" class="node"><title>Node1</title>
<polygon fill="#bfbfbf" stroke="black" points="48,-0.5 48,-189.5 182,-189.5 182,-0.5 48,-0.5"/>
<text text-anchor="start" x="56" y="-177.5" font-family="Helvetica,sans-Serif" font-size="10.00">pkg_world.pkg_characters.</text>
<text text-anchor="middle" x="115" y="-166.5" font-family="Helvetica,sans-Serif" font-size="10.00">Character</text>
<polyline fill="none" stroke="black" points="48,-159.5 182,-159.5 "/>
<text text-anchor="start" x="56" y="-147.5" font-family="Helvetica,sans-Serif" font-size="10.00">&#45; name</text>
<text text-anchor="start" x="56" y="-136.5" font-family="Helvetica,sans-Serif" font-size="10.00">&#45; successAction</text>
<text text-anchor="start" x="56" y="-125.5" font-family="Helvetica,sans-Serif" font-size="10.00">&#45; failureAction</text>
<text text-anchor="start" x="56" y="-114.5" font-family="Helvetica,sans-Serif" font-size="10.00">&#45; satisfied</text>
<polyline fill="none" stroke="black" points="48,-107.5 182,-107.5 "/>
<text text-anchor="start" x="56" y="-95.5" font-family="Helvetica,sans-Serif" font-size="10.00">+ Character()</text>
<text text-anchor="start" x="56" y="-84.5" font-family="Helvetica,sans-Serif" font-size="10.00">+ Character()</text>
<text text-anchor="start" x="56" y="-73.5" font-family="Helvetica,sans-Serif" font-size="10.00">+ Character()</text>
<text text-anchor="start" x="56" y="-62.5" font-family="Helvetica,sans-Serif" font-size="10.00">+ addDialog()</text>
<text text-anchor="start" x="56" y="-51.5" font-family="Helvetica,sans-Serif" font-size="10.00">+ talk()</text>
<text text-anchor="start" x="56" y="-40.5" font-family="Helvetica,sans-Serif" font-size="10.00">+ takeItem()</text>
<text text-anchor="start" x="56" y="-29.5" font-family="Helvetica,sans-Serif" font-size="10.00">+ wantsItem()</text>
<text text-anchor="start" x="56" y="-18.5" font-family="Helvetica,sans-Serif" font-size="10.00">+ getName()</text>
<text text-anchor="start" x="56" y="-7.5" font-family="Helvetica,sans-Serif" font-size="10.00">+ isSatisfied()</text>
</g>
<!-- Node2 -->
<g id="node2" class="node"><title>Node2</title>
<polygon fill="white" stroke="#bfbfbf" points="-0.5,-266.5 -0.5,-323.5 98.5,-323.5 98.5,-266.5 -0.5,-266.5"/>
<text text-anchor="middle" x="49" y="-311.5" font-family="Helvetica,sans-Serif" font-size="10.00">ArrayList&lt; String &gt;</text>
<polyline fill="none" stroke="#bfbfbf" points="-0.5,-304.5 98.5,-304.5 "/>
<text text-anchor="middle" x="49" y="-292.5" font-family="Helvetica,sans-Serif" font-size="10.00"> </text>
<polyline fill="none" stroke="#bfbfbf" points="-0.5,-285.5 98.5,-285.5 "/>
<text text-anchor="middle" x="49" y="-273.5" font-family="Helvetica,sans-Serif" font-size="10.00"> </text>
</g>
<!-- Node2&#45;&gt;Node1 -->
<g id="edge1" class="edge"><title>Node2&#45;&gt;Node1</title>
<path fill="none" stroke="#404040" d="M58.177,-266.469C63.9867,-249.04 71.9058,-225.283 79.9864,-201.041"/>
<polygon fill="none" stroke="#404040" points="80.0352,-200.894 78.1379,-193.937 83.83,-189.51 85.7274,-196.467 80.0352,-200.894"/>
<text text-anchor="middle" x="95.5" y="-211.5" font-family="Helvetica,sans-Serif" font-size="10.00"> &#45;dialogs</text>
</g>
<!-- Node3 -->
<g id="node3" class="node"><title>Node3</title>
<g id="a_node3"><a xlink:href="classpkg__world_1_1pkg__items_1_1Item.html" target="_top" xlink:title="Class used to handle an item contained in a Room. ">
<polygon fill="white" stroke="black" points="116.5,-239 116.5,-351 247.5,-351 247.5,-239 116.5,-239"/>
<text text-anchor="middle" x="182" y="-339" font-family="Helvetica,sans-Serif" font-size="10.00">pkg_world.pkg_items.Item</text>
<polyline fill="none" stroke="black" points="116.5,-332 247.5,-332 "/>
<text text-anchor="start" x="124.5" y="-320" font-family="Helvetica,sans-Serif" font-size="10.00">&#45; name</text>
<text text-anchor="start" x="124.5" y="-309" font-family="Helvetica,sans-Serif" font-size="10.00">&#45; weight</text>
<text text-anchor="start" x="124.5" y="-298" font-family="Helvetica,sans-Serif" font-size="10.00">&#45; description</text>
<polyline fill="none" stroke="black" points="116.5,-291 247.5,-291 "/>
<text text-anchor="start" x="124.5" y="-279" font-family="Helvetica,sans-Serif" font-size="10.00">+ Item()</text>
<text text-anchor="start" x="124.5" y="-268" font-family="Helvetica,sans-Serif" font-size="10.00">+ getName()</text>
<text text-anchor="start" x="124.5" y="-257" font-family="Helvetica,sans-Serif" font-size="10.00">+ getWeight()</text>
<text text-anchor="start" x="124.5" y="-246" font-family="Helvetica,sans-Serif" font-size="10.00">+ getDescription()</text>
</a>
</g>
</g>
<!-- Node3&#45;&gt;Node1 -->
<g id="edge2" class="edge"><title>Node3&#45;&gt;Node1</title>
<path fill="none" stroke="#404040" d="M163.337,-238.846C159.324,-226.987 154.955,-214.075 150.538,-201.024"/>
<polygon fill="none" stroke="#404040" points="150.499,-200.908 144.787,-196.507 146.653,-189.542 152.365,-193.943 150.499,-200.908"/>
<text text-anchor="middle" x="185" y="-211.5" font-family="Helvetica,sans-Serif" font-size="10.00"> &#45;wantedItem</text>
</g>
</g>
</svg>
