<?xml version="1.0" encoding="UTF-8" standalone="no"?>
<!DOCTYPE svg PUBLIC "-//W3C//DTD SVG 1.1//EN"
 "http://www.w3.org/Graphics/SVG/1.1/DTD/svg11.dtd">
<!-- Generated by graphviz version 2.36.0 (20140111.2315)
 -->
<!-- Title: pkg_commands.LookCommand.execute Pages: 1 -->
<svg width="436pt" height="175pt"
 viewBox="0.00 0.00 436.00 175.00" xmlns="http://www.w3.org/2000/svg" xmlns:xlink="http://www.w3.org/1999/xlink">
<g id="graph0" class="graph" transform="scale(1 1) rotate(0) translate(4 171)">
<title>pkg_commands.LookCommand.execute</title>
<polygon fill="white" stroke="none" points="-4,4 -4,-171 432,-171 432,4 -4,4"/>
<!-- Node1 -->
<g id="node1" class="node"><title>Node1</title>
<polygon fill="#bfbfbf" stroke="black" points="0,-68.5 0,-87.5 192,-87.5 192,-68.5 0,-68.5"/>
<text text-anchor="middle" x="96" y="-75.5" font-family="Helvetica,sans-Serif" font-size="10.00">pkg_commands.LookCommand.execute</text>
</g>
<!-- Node2 -->
<g id="node2" class="node"><title>Node2</title>
<g id="a_node2"><a xlink:href="classpkg__commands_1_1Command.html#a41c92d445be73ea9d62320c65efb8434" target="_top" xlink:title="Parameter field getter. ">
<polygon fill="white" stroke="black" points="253,-137 253,-167 403,-167 403,-137 253,-137"/>
<text text-anchor="start" x="261" y="-155" font-family="Helvetica,sans-Serif" font-size="10.00">pkg_commands.Command.get</text>
<text text-anchor="middle" x="328" y="-144" font-family="Helvetica,sans-Serif" font-size="10.00">Parameter</text>
</a>
</g>
</g>
<!-- Node1&#45;&gt;Node2 -->
<g id="edge1" class="edge"><title>Node1&#45;&gt;Node2</title>
<path fill="none" stroke="midnightblue" d="M120.393,-87.6462C146.391,-98.1549 189.756,-115.059 228,-127 236.176,-129.553 244.792,-132.032 253.391,-134.376"/>
<polygon fill="midnightblue" stroke="midnightblue" points="252.504,-137.761 263.068,-136.96 254.31,-130.998 252.504,-137.761"/>
</g>
<!-- Node3 -->
<g id="node3" class="node"><title>Node3</title>
<g id="a_node3"><a xlink:href="classpkg__commands_1_1Command.html#a02af95ab3f1898a66259ab7c177b6998" target="_top" xlink:title="Return true if the parameter is null. ">
<polygon fill="white" stroke="black" points="252,-88 252,-118 404,-118 404,-88 252,-88"/>
<text text-anchor="start" x="260" y="-106" font-family="Helvetica,sans-Serif" font-size="10.00">pkg_commands.Command.has</text>
<text text-anchor="middle" x="328" y="-95" font-family="Helvetica,sans-Serif" font-size="10.00">Parameter</text>
</a>
</g>
</g>
<!-- Node1&#45;&gt;Node3 -->
<g id="edge2" class="edge"><title>Node1&#45;&gt;Node3</title>
<path fill="none" stroke="midnightblue" d="M184.609,-87.5227C203.247,-89.5486 222.904,-91.6852 241.463,-93.7025"/>
<polygon fill="midnightblue" stroke="midnightblue" points="241.327,-97.2083 251.647,-94.8095 242.084,-90.2493 241.327,-97.2083"/>
</g>
<!-- Node4 -->
<g id="node4" class="node"><title>Node4</title>
<g id="a_node4"><a xlink:href="classpkg__commands_1_1Command.html#ae210ff216fe908b111ba1c988a963d13" target="_top" xlink:title="Message field setter. ">
<polygon fill="white" stroke="black" points="253,-39 253,-69 403,-69 403,-39 253,-39"/>
<text text-anchor="start" x="261" y="-57" font-family="Helvetica,sans-Serif" font-size="10.00">pkg_commands.Command.set</text>
<text text-anchor="middle" x="328" y="-46" font-family="Helvetica,sans-Serif" font-size="10.00">Message</text>
</a>
</g>
</g>
<!-- Node1&#45;&gt;Node4 -->
<g id="edge3" class="edge"><title>Node1&#45;&gt;Node4</title>
<path fill="none" stroke="midnightblue" d="M188.232,-68.4801C206.161,-66.6093 224.894,-64.6545 242.587,-62.8083"/>
<polygon fill="midnightblue" stroke="midnightblue" points="243.287,-66.2544 252.869,-61.7354 242.56,-59.2922 243.287,-66.2544"/>
</g>
<!-- Node5 -->
<g id="node5" class="node"><title>Node5</title>
<g id="a_node5"><a xlink:href="classpkg__commands_1_1LookCommand.html#a17808882dffb0a9edce192235c029ddf" target="_top" xlink:title="Return a given Item&#39;s description. ">
<polygon fill="white" stroke="black" points="228,-0.5 228,-19.5 428,-19.5 428,-0.5 228,-0.5"/>
<text text-anchor="middle" x="328" y="-7.5" font-family="Helvetica,sans-Serif" font-size="10.00">pkg_commands.LookCommand.showItem</text>
</a>
</g>
</g>
<!-- Node1&#45;&gt;Node5 -->
<g id="edge4" class="edge"><title>Node1&#45;&gt;Node5</title>
<path fill="none" stroke="midnightblue" d="M119.842,-68.4259C145.711,-57.8672 189.306,-40.9292 228,-30 238.963,-26.9035 250.738,-24.0905 262.206,-21.6166"/>
<polygon fill="midnightblue" stroke="midnightblue" points="263.106,-25.0043 272.178,-19.5313 261.673,-18.1525 263.106,-25.0043"/>
</g>
</g>
</svg>
