<?xml version="1.0" encoding="UTF-8" standalone="no"?>
<!DOCTYPE svg PUBLIC "-//W3C//DTD SVG 1.1//EN"
 "http://www.w3.org/Graphics/SVG/1.1/DTD/svg11.dtd">
<!-- Generated by graphviz version 2.36.0 (20140111.2315)
 -->
<!-- Title: pkg_world.pkg_characters.MovingCharacter Pages: 1 -->
<!--zoomable 630 -->
<svg id="main" version="1.1" xmlns="http://www.w3.org/2000/svg" xmlns:xlink="http://www.w3.org/1999/xlink" xml:space="preserve" onload="init(evt)">
<style type="text/css"><![CDATA[
.edge:hover path { stroke: red; }
.edge:hover polygon { stroke: red; fill: red; }
]]></style>
<script type="text/javascript"><![CDATA[
var edges = document.getElementsByTagName('g');
if (edges && edges.length) {
  for (var i=0;i<edges.length;i++) {
    if (edges[i].id.substr(0,4)=='edge') {
      edges[i].setAttribute('class','edge');
    }
  }
}
]]></script>
        <defs>
                <circle id="rim" cx="0" cy="0" r="7"/>
                <circle id="rim2" cx="0" cy="0" r="3.5"/>
                <g id="zoomPlus">
                        <use xlink:href="#rim" fill="#404040">
                                <set attributeName="fill" to="#808080" begin="zoomplus.mouseover" end="zoomplus.mouseout"/>
                        </use>
                        <path d="M-4,0h8M0,-4v8" fill="none" stroke="white" stroke-width="1.5" pointer-events="none"/>
                </g>
                <g id="zoomMin">
                        <use xlink:href="#rim" fill="#404040">
                                <set attributeName="fill" to="#808080" begin="zoomminus.mouseover" end="zoomminus.mouseout"/>
                        </use>
                        <path d="M-4,0h8" fill="none" stroke="white" stroke-width="1.5" pointer-events="none"/>
                </g>
                <g id="dirArrow">
                        <path fill="none" stroke="white" stroke-width="1.5" d="M0,-3.0v7 M-2.5,-0.5L0,-3.0L2.5,-0.5"/>
                </g>
               <g id="resetDef">
                       <use xlink:href="#rim2" fill="#404040">
                               <set attributeName="fill" to="#808080" begin="reset.mouseover" end="reset.mouseout"/>
                       </use>
               </g>
        </defs>

<script type="text/javascript">
var viewWidth = 742;
var viewHeight = 630;
var sectionId = 'dynsection-1';
</script>
<script xlink:href="svgpan.js"/>
<svg id="graph" class="graph">
<g id="viewport">
<title>pkg_world.pkg_characters.MovingCharacter</title>
<polygon fill="white" stroke="none" points="-4,4 -4,-626 738,-626 738,4 -4,4"/>
<!-- Node1 -->
<g id="node1" class="node"><title>Node1</title>
<polygon fill="#bfbfbf" stroke="black" points="230,-0.5 230,-101.5 364,-101.5 364,-0.5 230,-0.5"/>
<text text-anchor="start" x="238" y="-89.5" font-family="Helvetica,sans-Serif" font-size="10.00">pkg_world.pkg_characters.</text>
<text text-anchor="middle" x="297" y="-78.5" font-family="Helvetica,sans-Serif" font-size="10.00">MovingCharacter</text>
<polyline fill="none" stroke="black" points="230,-71.5 364,-71.5 "/>
<text text-anchor="middle" x="297" y="-59.5" font-family="Helvetica,sans-Serif" font-size="10.00"> </text>
<polyline fill="none" stroke="black" points="230,-52.5 364,-52.5 "/>
<text text-anchor="start" x="238" y="-40.5" font-family="Helvetica,sans-Serif" font-size="10.00">+ MovingCharacter()</text>
<text text-anchor="start" x="238" y="-29.5" font-family="Helvetica,sans-Serif" font-size="10.00">+ MovingCharacter()</text>
<text text-anchor="start" x="238" y="-18.5" font-family="Helvetica,sans-Serif" font-size="10.00">+ MovingCharacter()</text>
<text text-anchor="start" x="238" y="-7.5" font-family="Helvetica,sans-Serif" font-size="10.00">+ move()</text>
</g>
<!-- Node2 -->
<g id="node2" class="node"><title>Node2</title>
<g id="a_node2"><a xlink:href="classpkg__world_1_1pkg__characters_1_1Character.html" target="_top" xlink:title="class Character ">
<polygon fill="white" stroke="black" points="115,-156.5 115,-345.5 249,-345.5 249,-156.5 115,-156.5"/>
<text text-anchor="start" x="123" y="-333.5" font-family="Helvetica,sans-Serif" font-size="10.00">pkg_world.pkg_characters.</text>
<text text-anchor="middle" x="182" y="-322.5" font-family="Helvetica,sans-Serif" font-size="10.00">Character</text>
<polyline fill="none" stroke="black" points="115,-315.5 249,-315.5 "/>
<text text-anchor="start" x="123" y="-303.5" font-family="Helvetica,sans-Serif" font-size="10.00">&#45; name</text>
<text text-anchor="start" x="123" y="-292.5" font-family="Helvetica,sans-Serif" font-size="10.00">&#45; successAction</text>
<text text-anchor="start" x="123" y="-281.5" font-family="Helvetica,sans-Serif" font-size="10.00">&#45; failureAction</text>
<text text-anchor="start" x="123" y="-270.5" font-family="Helvetica,sans-Serif" font-size="10.00">&#45; satisfied</text>
<polyline fill="none" stroke="black" points="115,-263.5 249,-263.5 "/>
<text text-anchor="start" x="123" y="-251.5" font-family="Helvetica,sans-Serif" font-size="10.00">+ Character()</text>
<text text-anchor="start" x="123" y="-240.5" font-family="Helvetica,sans-Serif" font-size="10.00">+ Character()</text>
<text text-anchor="start" x="123" y="-229.5" font-family="Helvetica,sans-Serif" font-size="10.00">+ Character()</text>
<text text-anchor="start" x="123" y="-218.5" font-family="Helvetica,sans-Serif" font-size="10.00">+ addDialog()</text>
<text text-anchor="start" x="123" y="-207.5" font-family="Helvetica,sans-Serif" font-size="10.00">+ talk()</text>
<text text-anchor="start" x="123" y="-196.5" font-family="Helvetica,sans-Serif" font-size="10.00">+ takeItem()</text>
<text text-anchor="start" x="123" y="-185.5" font-family="Helvetica,sans-Serif" font-size="10.00">+ wantsItem()</text>
<text text-anchor="start" x="123" y="-174.5" font-family="Helvetica,sans-Serif" font-size="10.00">+ getName()</text>
<text text-anchor="start" x="123" y="-163.5" font-family="Helvetica,sans-Serif" font-size="10.00">+ isSatisfied()</text>
</a>
</g>
</g>
<!-- Node2&#45;&gt;Node1 -->
<g id="edge1" class="edge"><title>Node2&#45;&gt;Node1</title>
<path fill="none" stroke="midnightblue" d="M241.617,-147.355C250.881,-131.405 260.071,-115.582 268.225,-101.544"/>
<polygon fill="none" stroke="midnightblue" points="238.465,-145.813 236.469,-156.219 244.518,-149.329 238.465,-145.813"/>
</g>
<!-- Node3 -->
<g id="node3" class="node"><title>Node3</title>
<polygon fill="white" stroke="#bfbfbf" points="-0.5,-428.5 -0.5,-485.5 98.5,-485.5 98.5,-428.5 -0.5,-428.5"/>
<text text-anchor="middle" x="49" y="-473.5" font-family="Helvetica,sans-Serif" font-size="10.00">ArrayList&lt; String &gt;</text>
<polyline fill="none" stroke="#bfbfbf" points="-0.5,-466.5 98.5,-466.5 "/>
<text text-anchor="middle" x="49" y="-454.5" font-family="Helvetica,sans-Serif" font-size="10.00"> </text>
<polyline fill="none" stroke="#bfbfbf" points="-0.5,-447.5 98.5,-447.5 "/>
<text text-anchor="middle" x="49" y="-435.5" font-family="Helvetica,sans-Serif" font-size="10.00"> </text>
</g>
<!-- Node3&#45;&gt;Node2 -->
<g id="edge2" class="edge"><title>Node3&#45;&gt;Node2</title>
<path fill="none" stroke="#404040" d="M66.937,-428.488C79.3229,-409.49 96.6509,-382.911 114.107,-356.137"/>
<polygon fill="none" stroke="#404040" points="114.24,-355.933 114.166,-348.722 120.793,-345.881 120.867,-353.092 114.24,-355.933"/>
<text text-anchor="middle" x="122.5" y="-373.5" font-family="Helvetica,sans-Serif" font-size="10.00"> &#45;dialogs</text>
</g>
<!-- Node4 -->
<g id="node4" class="node"><title>Node4</title>
<g id="a_node4"><a xlink:href="classpkg__world_1_1pkg__items_1_1Item.html" target="_top" xlink:title="Class used to handle an item contained in a Room. ">
<polygon fill="white" stroke="black" points="116.5,-401 116.5,-513 247.5,-513 247.5,-401 116.5,-401"/>
<text text-anchor="middle" x="182" y="-501" font-family="Helvetica,sans-Serif" font-size="10.00">pkg_world.pkg_items.Item</text>
<polyline fill="none" stroke="black" points="116.5,-494 247.5,-494 "/>
<text text-anchor="start" x="124.5" y="-482" font-family="Helvetica,sans-Serif" font-size="10.00">&#45; name</text>
<text text-anchor="start" x="124.5" y="-471" font-family="Helvetica,sans-Serif" font-size="10.00">&#45; weight</text>
<text text-anchor="start" x="124.5" y="-460" font-family="Helvetica,sans-Serif" font-size="10.00">&#45; description</text>
<polyline fill="none" stroke="black" points="116.5,-453 247.5,-453 "/>
<text text-anchor="start" x="124.5" y="-441" font-family="Helvetica,sans-Serif" font-size="10.00">+ Item()</text>
<text text-anchor="start" x="124.5" y="-430" font-family="Helvetica,sans-Serif" font-size="10.00">+ getName()</text>
<text text-anchor="start" x="124.5" y="-419" font-family="Helvetica,sans-Serif" font-size="10.00">+ getWeight()</text>
<text text-anchor="start" x="124.5" y="-408" font-family="Helvetica,sans-Serif" font-size="10.00">+ getDescription()</text>
</a>
</g>
</g>
<!-- Node4&#45;&gt;Node2 -->
<g id="edge3" class="edge"><title>Node4&#45;&gt;Node2</title>
<path fill="none" stroke="#404040" d="M182,-400.795C182,-387.52 182,-372.895 182,-358.154"/>
<polygon fill="none" stroke="#404040" points="182,-357.772 178,-351.772 182,-345.772 186,-351.771 182,-357.772"/>
<text text-anchor="middle" x="211" y="-373.5" font-family="Helvetica,sans-Serif" font-size="10.00"> &#45;wantedItem</text>
</g>
<!-- Node5 -->
<g id="node5" class="node"><title>Node5</title>
<g id="a_node5"><a xlink:href="classpkg__world_1_1Room.html" target="_top" xlink:title="Class used to handle a game&#39;s room. ">
<polygon fill="white" stroke="black" points="316,-151 316,-351 430,-351 430,-151 316,-151"/>
<text text-anchor="middle" x="373" y="-339" font-family="Helvetica,sans-Serif" font-size="10.00">pkg_world.Room</text>
<polyline fill="none" stroke="black" points="316,-332 430,-332 "/>
<text text-anchor="start" x="324" y="-320" font-family="Helvetica,sans-Serif" font-size="10.00">&#45; description</text>
<text text-anchor="start" x="324" y="-309" font-family="Helvetica,sans-Serif" font-size="10.00">&#45; imageName</text>
<polyline fill="none" stroke="black" points="316,-302 430,-302 "/>
<text text-anchor="start" x="324" y="-290" font-family="Helvetica,sans-Serif" font-size="10.00">+ Room()</text>
<text text-anchor="start" x="324" y="-279" font-family="Helvetica,sans-Serif" font-size="10.00">+ Room()</text>
<text text-anchor="start" x="324" y="-268" font-family="Helvetica,sans-Serif" font-size="10.00">+ setExit()</text>
<text text-anchor="start" x="324" y="-257" font-family="Helvetica,sans-Serif" font-size="10.00">+ getContainedItems()</text>
<text text-anchor="start" x="324" y="-246" font-family="Helvetica,sans-Serif" font-size="10.00">+ getItem()</text>
<text text-anchor="start" x="324" y="-235" font-family="Helvetica,sans-Serif" font-size="10.00">+ getCharacter()</text>
<text text-anchor="start" x="324" y="-224" font-family="Helvetica,sans-Serif" font-size="10.00">+ hasItem()</text>
<text text-anchor="start" x="324" y="-213" font-family="Helvetica,sans-Serif" font-size="10.00">+ hasCharacter()</text>
<text text-anchor="start" x="324" y="-202" font-family="Helvetica,sans-Serif" font-size="10.00">+ addItem()</text>
<text text-anchor="start" x="324" y="-191" font-family="Helvetica,sans-Serif" font-size="10.00">+ addCharacter()</text>
<text text-anchor="start" x="324" y="-180" font-family="Helvetica,sans-Serif" font-size="10.00">and 10 more...</text>
<text text-anchor="start" x="324" y="-169" font-family="Helvetica,sans-Serif" font-size="10.00">&#45; getHumanList()</text>
<text text-anchor="start" x="324" y="-158" font-family="Helvetica,sans-Serif" font-size="10.00">&#45; getExitString()</text>
</a>
</g>
</g>
<!-- Node5&#45;&gt;Node1 -->
<g id="edge4" class="edge"><title>Node5&#45;&gt;Node1</title>
<path fill="none" stroke="#404040" d="M334.889,-150.71C329.921,-137.767 324.956,-124.831 320.332,-112.787"/>
<polygon fill="none" stroke="#404040" points="320.316,-112.744 314.432,-108.576 316.016,-101.541 321.9,-105.709 320.316,-112.744"/>
<text text-anchor="middle" x="357.5" y="-123.5" font-family="Helvetica,sans-Serif" font-size="10.00"> &#45;currentRoom</text>
</g>
<!-- Node6 -->
<g id="node6" class="node"><title>Node6</title>
<polygon fill="white" stroke="#bfbfbf" points="265.5,-423 265.5,-491 380.5,-491 380.5,-423 265.5,-423"/>
<text text-anchor="start" x="273.5" y="-479" font-family="Helvetica,sans-Serif" font-size="10.00">HashMap&lt; String, pkg</text>
<text text-anchor="middle" x="323" y="-468" font-family="Helvetica,sans-Serif" font-size="10.00">_world.Room &gt;</text>
<polyline fill="none" stroke="#bfbfbf" points="265.5,-461 380.5,-461 "/>
<text text-anchor="middle" x="323" y="-449" font-family="Helvetica,sans-Serif" font-size="10.00"> </text>
<polyline fill="none" stroke="#bfbfbf" points="265.5,-442 380.5,-442 "/>
<text text-anchor="middle" x="323" y="-430" font-family="Helvetica,sans-Serif" font-size="10.00"> </text>
</g>
<!-- Node6&#45;&gt;Node5 -->
<g id="edge5" class="edge"><title>Node6&#45;&gt;Node5</title>
<path fill="none" stroke="#404040" d="M331.145,-422.77C335.226,-406.118 340.429,-384.888 345.769,-363.101"/>
<polygon fill="none" stroke="#404040" points="345.8,-362.978 343.343,-356.198 348.656,-351.322 351.113,-358.102 345.8,-362.978"/>
<text text-anchor="middle" x="358" y="-373.5" font-family="Helvetica,sans-Serif" font-size="10.00"> &#45;exits</text>
</g>
<!-- Node7 -->
<g id="node7" class="node"><title>Node7</title>
<g id="a_node7"><a xlink:href="classpkg__world_1_1pkg__items_1_1ItemList.html" target="_top" xlink:title="class ItemList used to handle a list of Item (inventory). ">
<polygon fill="white" stroke="black" points="398.5,-428.5 398.5,-485.5 545.5,-485.5 545.5,-428.5 398.5,-428.5"/>
<text text-anchor="middle" x="472" y="-473.5" font-family="Helvetica,sans-Serif" font-size="10.00">pkg_world.pkg_items.ItemList</text>
<polyline fill="none" stroke="black" points="398.5,-466.5 545.5,-466.5 "/>
<text text-anchor="middle" x="472" y="-454.5" font-family="Helvetica,sans-Serif" font-size="10.00"> </text>
<polyline fill="none" stroke="black" points="398.5,-447.5 545.5,-447.5 "/>
<text text-anchor="start" x="406.5" y="-435.5" font-family="Helvetica,sans-Serif" font-size="10.00">+ transfer()</text>
</a>
</g>
</g>
<!-- Node7&#45;&gt;Node5 -->
<g id="edge6" class="edge"><title>Node7&#45;&gt;Node5</title>
<path fill="none" stroke="#404040" d="M458.648,-428.488C450.143,-410.961 438.507,-386.984 426.553,-362.352"/>
<polygon fill="none" stroke="#404040" points="426.474,-362.188 420.256,-358.537 421.235,-351.393 427.453,-355.044 426.474,-362.188"/>
<text text-anchor="middle" x="471.5" y="-373.5" font-family="Helvetica,sans-Serif" font-size="10.00"> &#45;containedItems</text>
</g>
<!-- Node8 -->
<g id="node8" class="node"><title>Node8</title>
<polygon fill="white" stroke="#bfbfbf" points="421.5,-553 421.5,-621 522.5,-621 522.5,-553 421.5,-553"/>
<text text-anchor="start" x="429.5" y="-609" font-family="Helvetica,sans-Serif" font-size="10.00">java::util::HashMap</text>
<text text-anchor="middle" x="472" y="-598" font-family="Helvetica,sans-Serif" font-size="10.00">&lt; String, Item &gt;</text>
<polyline fill="none" stroke="#bfbfbf" points="421.5,-591 522.5,-591 "/>
<text text-anchor="middle" x="472" y="-579" font-family="Helvetica,sans-Serif" font-size="10.00"> </text>
<polyline fill="none" stroke="#bfbfbf" points="421.5,-572 522.5,-572 "/>
<text text-anchor="middle" x="472" y="-560" font-family="Helvetica,sans-Serif" font-size="10.00"> </text>
</g>
<!-- Node8&#45;&gt;Node7 -->
<g id="edge7" class="edge"><title>Node8&#45;&gt;Node7</title>
<path fill="none" stroke="midnightblue" d="M472,-542.541C472,-523.669 472,-502.13 472,-485.517"/>
<polygon fill="none" stroke="midnightblue" points="468.5,-542.704 472,-552.704 475.5,-542.704 468.5,-542.704"/>
</g>
<!-- Node9 -->
<g id="node9" class="node"><title>Node9</title>
<polygon fill="white" stroke="#bfbfbf" points="564,-423 564,-491 734,-491 734,-423 564,-423"/>
<text text-anchor="start" x="572" y="-479" font-family="Helvetica,sans-Serif" font-size="10.00">HashMap&lt; String, pkg</text>
<text text-anchor="middle" x="649" y="-468" font-family="Helvetica,sans-Serif" font-size="10.00">_world.pkg_characters.Character &gt;</text>
<polyline fill="none" stroke="#bfbfbf" points="564,-461 734,-461 "/>
<text text-anchor="middle" x="649" y="-449" font-family="Helvetica,sans-Serif" font-size="10.00"> </text>
<polyline fill="none" stroke="#bfbfbf" points="564,-442 734,-442 "/>
<text text-anchor="middle" x="649" y="-430" font-family="Helvetica,sans-Serif" font-size="10.00"> </text>
</g>
<!-- Node9&#45;&gt;Node5 -->
<g id="edge8" class="edge"><title>Node9&#45;&gt;Node5</title>
<path fill="none" stroke="#404040" d="M604.349,-422.997C559.866,-390.119 491.023,-339.235 439.989,-301.514"/>
<polygon fill="none" stroke="#404040" points="439.683,-301.287 432.48,-300.937 430.032,-294.154 437.235,-294.504 439.683,-301.287"/>
<text text-anchor="middle" x="592.5" y="-373.5" font-family="Helvetica,sans-Serif" font-size="10.00"> &#45;containedCharacters</text>
</g>
</g>
</svg>
        <g id="navigator" transform="translate(0 0)" fill="#404254">
                <rect fill="#f2f5e9" fill-opacity="0.5" stroke="#606060" stroke-width=".5" x="0" y="0" width="60" height="60"/>
                <use id="zoomplus" xlink:href="#zoomPlus" x="17" y="9" onmousedown="handleZoom(evt,'in')"/>
                <use id="zoomminus" xlink:href="#zoomMin" x="42" y="9" onmousedown="handleZoom(evt,'out')"/>
                <use id="reset" xlink:href="#resetDef" x="30" y="36" onmousedown="handleReset()"/>
                <g id="arrowUp" xlink:href="#dirArrow" transform="translate(30 24)" onmousedown="handlePan(0,-1)">
                  <use xlink:href="#rim" fill="#404040">
                        <set attributeName="fill" to="#808080" begin="arrowUp.mouseover" end="arrowUp.mouseout"/>
                  </use>
                  <path fill="none" stroke="white" stroke-width="1.5" d="M0,-3.0v7 M-2.5,-0.5L0,-3.0L2.5,-0.5"/>
                </g>
                <g id="arrowRight" xlink:href="#dirArrow" transform="rotate(90) translate(36 -43)" onmousedown="handlePan(1,0)">
                  <use xlink:href="#rim" fill="#404040">
                        <set attributeName="fill" to="#808080" begin="arrowRight.mouseover" end="arrowRight.mouseout"/>
                  </use>
                  <path fill="none" stroke="white" stroke-width="1.5" d="M0,-3.0v7 M-2.5,-0.5L0,-3.0L2.5,-0.5"/>
                </g>
                <g id="arrowDown" xlink:href="#dirArrow" transform="rotate(180) translate(-30 -48)" onmousedown="handlePan(0,1)">
                  <use xlink:href="#rim" fill="#404040">
                        <set attributeName="fill" to="#808080" begin="arrowDown.mouseover" end="arrowDown.mouseout"/>
                  </use>
                  <path fill="none" stroke="white" stroke-width="1.5" d="M0,-3.0v7 M-2.5,-0.5L0,-3.0L2.5,-0.5"/>
                </g>
                <g id="arrowLeft" xlink:href="#dirArrow" transform="rotate(270) translate(-36 17)" onmousedown="handlePan(-1,0)">
                  <use xlink:href="#rim" fill="#404040">
                        <set attributeName="fill" to="#808080" begin="arrowLeft.mouseover" end="arrowLeft.mouseout"/>
                  </use>
                  <path fill="none" stroke="white" stroke-width="1.5" d="M0,-3.0v7 M-2.5,-0.5L0,-3.0L2.5,-0.5"/>
                </g>
        </g>
        <svg viewBox="0 0 15 15" width="100%" height="30px" preserveAspectRatio="xMaxYMin meet">
         <g id="arrow_out" transform="scale(0.3 0.3)">
          <a xlink:href="classpkg__world_1_1pkg__characters_1_1MovingCharacter__coll__graph_org.svg" target="_base">
           <rect id="button" ry="5" rx="5" y="6" x="6" height="38" width="38"
                fill="#f2f5e9" fill-opacity="0.5" stroke="#606060" stroke-width="1.0"/>
           <path id="arrow"
             d="M 11.500037,31.436501 C 11.940474,20.09759 22.043105,11.32322 32.158766,21.979434 L 37.068811,17.246167 C 37.068811,17.246167 37.088388,32 37.088388,32 L 22.160133,31.978069 C 22.160133,31.978069 26.997745,27.140456 26.997745,27.140456 C 18.528582,18.264221 13.291696,25.230495 11.500037,31.436501 z"
             style="fill:#404040;"/>
          </a>
         </g>
        </svg>
</svg>
