<?xml version="1.0" encoding="UTF-8" standalone="no"?>
<!DOCTYPE svg PUBLIC "-//W3C//DTD SVG 1.1//EN"
 "http://www.w3.org/Graphics/SVG/1.1/DTD/svg11.dtd">
<!-- Generated by graphviz version 2.36.0 (20140111.2315)
 -->
<!-- Title: GameEngine Pages: 1 -->
<svg width="405pt" height="1116pt"
 viewBox="0.00 0.00 405.00 1116.00" xmlns="http://www.w3.org/2000/svg" xmlns:xlink="http://www.w3.org/1999/xlink">
<g id="graph0" class="graph" transform="scale(1 1) rotate(0) translate(4 1112)">
<title>GameEngine</title>
<polygon fill="white" stroke="none" points="-4,4 -4,-1112 401,-1112 401,4 -4,4"/>
<!-- Node1 -->
<g id="node1" class="node"><title>Node1</title>
<polygon fill="#bfbfbf" stroke="black" points="220.5,-238.5 220.5,-361.5 337.5,-361.5 337.5,-238.5 220.5,-238.5"/>
<text text-anchor="middle" x="279" y="-349.5" font-family="Helvetica,sans-Serif" font-size="10.00">GameEngine</text>
<polyline fill="none" stroke="black" points="220.5,-342.5 337.5,-342.5 "/>
<text text-anchor="start" x="228.5" y="-330.5" font-family="Helvetica,sans-Serif" font-size="10.00">&#45; helpCount</text>
<text text-anchor="start" x="228.5" y="-319.5" font-family="Helvetica,sans-Serif" font-size="10.00">&#45; commandCountDown</text>
<polyline fill="none" stroke="black" points="220.5,-312.5 337.5,-312.5 "/>
<text text-anchor="start" x="228.5" y="-300.5" font-family="Helvetica,sans-Serif" font-size="10.00">+ GameEngine()</text>
<text text-anchor="start" x="228.5" y="-289.5" font-family="Helvetica,sans-Serif" font-size="10.00">+ setGUI()</text>
<text text-anchor="start" x="228.5" y="-278.5" font-family="Helvetica,sans-Serif" font-size="10.00">+ processCommand()</text>
<text text-anchor="start" x="228.5" y="-267.5" font-family="Helvetica,sans-Serif" font-size="10.00">&#45; printWelcome()</text>
<text text-anchor="start" x="228.5" y="-256.5" font-family="Helvetica,sans-Serif" font-size="10.00">&#45; createRooms()</text>
<text text-anchor="start" x="228.5" y="-245.5" font-family="Helvetica,sans-Serif" font-size="10.00">&#45; endGame()</text>
</g>
<!-- Node9 -->
<g id="node9" class="node"><title>Node9</title>
<g id="a_node9"><a xlink:href="classUserInterface.html" target="_top" xlink:title="Class handling the game&#39;s user interface. ">
<polygon fill="white" stroke="black" points="165,-0.5 165,-189.5 277,-189.5 277,-0.5 165,-0.5"/>
<text text-anchor="middle" x="221" y="-177.5" font-family="Helvetica,sans-Serif" font-size="10.00">UserInterface</text>
<polyline fill="none" stroke="black" points="165,-170.5 277,-170.5 "/>
<text text-anchor="start" x="173" y="-158.5" font-family="Helvetica,sans-Serif" font-size="10.00">&#45; myFrame</text>
<text text-anchor="start" x="173" y="-147.5" font-family="Helvetica,sans-Serif" font-size="10.00">&#45; entryField</text>
<text text-anchor="start" x="173" y="-136.5" font-family="Helvetica,sans-Serif" font-size="10.00">&#45; log</text>
<text text-anchor="start" x="173" y="-125.5" font-family="Helvetica,sans-Serif" font-size="10.00">&#45; image</text>
<text text-anchor="start" x="173" y="-114.5" font-family="Helvetica,sans-Serif" font-size="10.00">&#45; commandsLeftLabel</text>
<polyline fill="none" stroke="black" points="165,-107.5 277,-107.5 "/>
<text text-anchor="start" x="173" y="-95.5" font-family="Helvetica,sans-Serif" font-size="10.00">+ UserInterface()</text>
<text text-anchor="start" x="173" y="-84.5" font-family="Helvetica,sans-Serif" font-size="10.00">+ setCommandsLeft()</text>
<text text-anchor="start" x="173" y="-73.5" font-family="Helvetica,sans-Serif" font-size="10.00">+ print()</text>
<text text-anchor="start" x="173" y="-62.5" font-family="Helvetica,sans-Serif" font-size="10.00">+ println()</text>
<text text-anchor="start" x="173" y="-51.5" font-family="Helvetica,sans-Serif" font-size="10.00">+ showImage()</text>
<text text-anchor="start" x="173" y="-40.5" font-family="Helvetica,sans-Serif" font-size="10.00">+ enable()</text>
<text text-anchor="start" x="173" y="-29.5" font-family="Helvetica,sans-Serif" font-size="10.00">+ actionPerformed()</text>
<text text-anchor="start" x="173" y="-18.5" font-family="Helvetica,sans-Serif" font-size="10.00">&#45; createGUI()</text>
<text text-anchor="start" x="173" y="-7.5" font-family="Helvetica,sans-Serif" font-size="10.00">&#45; processCommand()</text>
</a>
</g>
</g>
<!-- Node1&#45;&gt;Node9 -->
<g id="edge11" class="edge"><title>Node1&#45;&gt;Node9</title>
<path fill="none" stroke="#404040" d="M226.258,-238.263C222.965,-232.355 220.126,-226.232 218,-220 215.987,-214.101 214.468,-207.95 213.357,-201.681"/>
<polygon fill="none" stroke="#404040" points="213.319,-201.402 208.546,-195.997 211.699,-189.512 216.473,-194.917 213.319,-201.402"/>
<text text-anchor="middle" x="235.5" y="-211.5" font-family="Helvetica,sans-Serif" font-size="10.00"> &#45;engine</text>
</g>
<!-- Node2 -->
<g id="node2" class="node"><title>Node2</title>
<g id="a_node2"><a xlink:href="classpkg__world_1_1Player.html" target="_top" xlink:title="class Player used to handle the user&#39;s player. ">
<polygon fill="white" stroke="black" points="135,-410.5 135,-599.5 257,-599.5 257,-410.5 135,-410.5"/>
<text text-anchor="middle" x="196" y="-587.5" font-family="Helvetica,sans-Serif" font-size="10.00">pkg_world.Player</text>
<polyline fill="none" stroke="black" points="135,-580.5 257,-580.5 "/>
<text text-anchor="start" x="143" y="-568.5" font-family="Helvetica,sans-Serif" font-size="10.00">&#45; name</text>
<text text-anchor="start" x="143" y="-557.5" font-family="Helvetica,sans-Serif" font-size="10.00">&#45; backpackWeight</text>
<text text-anchor="start" x="143" y="-546.5" font-family="Helvetica,sans-Serif" font-size="10.00">&#45; maxWeight</text>
<polyline fill="none" stroke="black" points="135,-539.5 257,-539.5 "/>
<text text-anchor="start" x="143" y="-527.5" font-family="Helvetica,sans-Serif" font-size="10.00">+ Player()</text>
<text text-anchor="start" x="143" y="-516.5" font-family="Helvetica,sans-Serif" font-size="10.00">+ getName()</text>
<text text-anchor="start" x="143" y="-505.5" font-family="Helvetica,sans-Serif" font-size="10.00">+ getMaxWeight()</text>
<text text-anchor="start" x="143" y="-494.5" font-family="Helvetica,sans-Serif" font-size="10.00">+ setMaxWeight()</text>
<text text-anchor="start" x="143" y="-483.5" font-family="Helvetica,sans-Serif" font-size="10.00">+ getCurrentRoom()</text>
<text text-anchor="start" x="143" y="-472.5" font-family="Helvetica,sans-Serif" font-size="10.00">+ goRoom()</text>
<text text-anchor="start" x="143" y="-461.5" font-family="Helvetica,sans-Serif" font-size="10.00">+ getPreviousRoom()</text>
<text text-anchor="start" x="143" y="-450.5" font-family="Helvetica,sans-Serif" font-size="10.00">+ pushPreviousRooms()</text>
<text text-anchor="start" x="143" y="-439.5" font-family="Helvetica,sans-Serif" font-size="10.00">+ pushForward()</text>
<text text-anchor="start" x="143" y="-428.5" font-family="Helvetica,sans-Serif" font-size="10.00">+ popPreviousRooms()</text>
<text text-anchor="start" x="143" y="-417.5" font-family="Helvetica,sans-Serif" font-size="10.00">and 10 more...</text>
</a>
</g>
</g>
<!-- Node2&#45;&gt;Node1 -->
<g id="edge1" class="edge"><title>Node2&#45;&gt;Node1</title>
<path fill="none" stroke="#404040" d="M234.342,-410.225C239.46,-397.707 244.642,-385.032 249.575,-372.967"/>
<polygon fill="none" stroke="#404040" points="249.677,-372.719 248.245,-365.651 254.218,-361.611 255.65,-368.679 249.677,-372.719"/>
<text text-anchor="middle" x="261.5" y="-383.5" font-family="Helvetica,sans-Serif" font-size="10.00"> &#45;player</text>
</g>
<!-- Node3 -->
<g id="node3" class="node"><title>Node3</title>
<g id="a_node3"><a xlink:href="classpkg__world_1_1ItemList.html" target="_top" xlink:title="class ItemList used to handle a list of Item (inventory). ">
<polygon fill="white" stroke="black" points="139.5,-936.5 139.5,-993.5 238.5,-993.5 238.5,-936.5 139.5,-936.5"/>
<text text-anchor="middle" x="189" y="-981.5" font-family="Helvetica,sans-Serif" font-size="10.00">pkg_world.ItemList</text>
<polyline fill="none" stroke="black" points="139.5,-974.5 238.5,-974.5 "/>
<text text-anchor="middle" x="189" y="-962.5" font-family="Helvetica,sans-Serif" font-size="10.00"> </text>
<polyline fill="none" stroke="black" points="139.5,-955.5 238.5,-955.5 "/>
<text text-anchor="start" x="147.5" y="-943.5" font-family="Helvetica,sans-Serif" font-size="10.00">+ transfer()</text>
</a>
</g>
</g>
<!-- Node3&#45;&gt;Node2 -->
<g id="edge2" class="edge"><title>Node3&#45;&gt;Node2</title>
<path fill="none" stroke="#404040" d="M189.422,-936.381C190.381,-873.625 192.767,-717.543 194.385,-611.638"/>
<polygon fill="none" stroke="#404040" points="194.386,-611.624 190.478,-605.563 194.569,-599.625 198.477,-605.686 194.386,-611.624"/>
<text text-anchor="middle" x="218.5" y="-767.5" font-family="Helvetica,sans-Serif" font-size="10.00"> &#45;backpack</text>
</g>
<!-- Node5 -->
<g id="node5" class="node"><title>Node5</title>
<g id="a_node5"><a xlink:href="classpkg__world_1_1Room.html" target="_top" xlink:title="Class used to handle a game&#39;s room. ">
<polygon fill="white" stroke="black" points="42,-659 42,-881 160,-881 160,-659 42,-659"/>
<text text-anchor="middle" x="101" y="-869" font-family="Helvetica,sans-Serif" font-size="10.00">pkg_world.Room</text>
<polyline fill="none" stroke="black" points="42,-862 160,-862 "/>
<text text-anchor="start" x="50" y="-850" font-family="Helvetica,sans-Serif" font-size="10.00">&#45; description</text>
<text text-anchor="start" x="50" y="-839" font-family="Helvetica,sans-Serif" font-size="10.00">&#45; imageName</text>
<polyline fill="none" stroke="black" points="42,-832 160,-832 "/>
<text text-anchor="start" x="50" y="-820" font-family="Helvetica,sans-Serif" font-size="10.00">+ Room()</text>
<text text-anchor="start" x="50" y="-809" font-family="Helvetica,sans-Serif" font-size="10.00">+ Room()</text>
<text text-anchor="start" x="50" y="-798" font-family="Helvetica,sans-Serif" font-size="10.00">+ setExit()</text>
<text text-anchor="start" x="50" y="-787" font-family="Helvetica,sans-Serif" font-size="10.00">+ getContainedItems()</text>
<text text-anchor="start" x="50" y="-776" font-family="Helvetica,sans-Serif" font-size="10.00">+ getItem()</text>
<text text-anchor="start" x="50" y="-765" font-family="Helvetica,sans-Serif" font-size="10.00">+ hasItem()</text>
<text text-anchor="start" x="50" y="-754" font-family="Helvetica,sans-Serif" font-size="10.00">+ addItem()</text>
<text text-anchor="start" x="50" y="-743" font-family="Helvetica,sans-Serif" font-size="10.00">+ removeItem()</text>
<text text-anchor="start" x="50" y="-732" font-family="Helvetica,sans-Serif" font-size="10.00">+ getShortDescription()</text>
<text text-anchor="start" x="50" y="-721" font-family="Helvetica,sans-Serif" font-size="10.00">+ getLongDescription()</text>
<text text-anchor="start" x="50" y="-710" font-family="Helvetica,sans-Serif" font-size="10.00">+ getHumanItemsList()</text>
<text text-anchor="start" x="50" y="-699" font-family="Helvetica,sans-Serif" font-size="10.00">+ getExit()</text>
<text text-anchor="start" x="50" y="-688" font-family="Helvetica,sans-Serif" font-size="10.00">+ isExit()</text>
<text text-anchor="start" x="50" y="-677" font-family="Helvetica,sans-Serif" font-size="10.00">+ getImageName()</text>
<text text-anchor="start" x="50" y="-666" font-family="Helvetica,sans-Serif" font-size="10.00">&#45; getExitString()</text>
</a>
</g>
</g>
<!-- Node3&#45;&gt;Node5 -->
<g id="edge5" class="edge"><title>Node3&#45;&gt;Node5</title>
<path fill="none" stroke="#404040" d="M139.474,-941.966C127.52,-934.236 116.147,-924.323 109,-912 105.454,-905.886 102.605,-899.36 100.341,-892.594"/>
<polygon fill="none" stroke="#404040" points="100.331,-892.557 94.8486,-887.872 97.0643,-881.01 102.547,-885.694 100.331,-892.557"/>
<text text-anchor="middle" x="145.5" y="-903.5" font-family="Helvetica,sans-Serif" font-size="10.00"> &#45;containedItems</text>
</g>
<!-- Node4 -->
<g id="node4" class="node"><title>Node4</title>
<polygon fill="white" stroke="#bfbfbf" points="138.5,-1039 138.5,-1107 239.5,-1107 239.5,-1039 138.5,-1039"/>
<text text-anchor="start" x="146.5" y="-1095" font-family="Helvetica,sans-Serif" font-size="10.00">java::util::HashMap</text>
<text text-anchor="middle" x="189" y="-1084" font-family="Helvetica,sans-Serif" font-size="10.00">&lt; String, Item &gt;</text>
<polyline fill="none" stroke="#bfbfbf" points="138.5,-1077 239.5,-1077 "/>
<text text-anchor="middle" x="189" y="-1065" font-family="Helvetica,sans-Serif" font-size="10.00"> </text>
<polyline fill="none" stroke="#bfbfbf" points="138.5,-1058 239.5,-1058 "/>
<text text-anchor="middle" x="189" y="-1046" font-family="Helvetica,sans-Serif" font-size="10.00"> </text>
</g>
<!-- Node4&#45;&gt;Node3 -->
<g id="edge3" class="edge"><title>Node4&#45;&gt;Node3</title>
<path fill="none" stroke="midnightblue" d="M189,-1028.64C189,-1016.87 189,-1004.44 189,-993.791"/>
<polygon fill="none" stroke="midnightblue" points="185.5,-1028.75 189,-1038.75 192.5,-1028.75 185.5,-1028.75"/>
</g>
<!-- Node5&#45;&gt;Node2 -->
<g id="edge4" class="edge"><title>Node5&#45;&gt;Node2</title>
<path fill="none" stroke="#404040" d="M106.09,-658.601C108.645,-644.678 112.172,-630.83 117,-618 120.241,-609.388 124.306,-600.822 128.871,-592.484"/>
<polygon fill="none" stroke="#404040" points="128.892,-592.449 128.432,-585.252 134.897,-582.06 135.358,-589.256 128.892,-592.449"/>
<text text-anchor="middle" x="149.5" y="-632" font-family="Helvetica,sans-Serif" font-size="10.00"> &#45;beamerRoom</text>
<text text-anchor="middle" x="149.5" y="-621" font-family="Helvetica,sans-Serif" font-size="10.00">&#45;currentRoom</text>
</g>
<!-- Node6 -->
<g id="node6" class="node"><title>Node6</title>
<polygon fill="white" stroke="#bfbfbf" points="-0.5,-931 -0.5,-999 114.5,-999 114.5,-931 -0.5,-931"/>
<text text-anchor="start" x="7.5" y="-987" font-family="Helvetica,sans-Serif" font-size="10.00">HashMap&lt; String, pkg</text>
<text text-anchor="middle" x="57" y="-976" font-family="Helvetica,sans-Serif" font-size="10.00">_world.Room &gt;</text>
<polyline fill="none" stroke="#bfbfbf" points="-0.5,-969 114.5,-969 "/>
<text text-anchor="middle" x="57" y="-957" font-family="Helvetica,sans-Serif" font-size="10.00"> </text>
<polyline fill="none" stroke="#bfbfbf" points="-0.5,-950 114.5,-950 "/>
<text text-anchor="middle" x="57" y="-938" font-family="Helvetica,sans-Serif" font-size="10.00"> </text>
</g>
<!-- Node6&#45;&gt;Node5 -->
<g id="edge6" class="edge"><title>Node6&#45;&gt;Node5</title>
<path fill="none" stroke="#404040" d="M55.5949,-930.935C55.6851,-920.937 56.3023,-909.969 58,-900 58.3939,-897.687 58.8219,-895.36 59.281,-893.022"/>
<polygon fill="none" stroke="#404040" points="59.2858,-893 56.6427,-886.29 61.8192,-881.27 64.4623,-887.979 59.2858,-893"/>
<text text-anchor="middle" x="72" y="-903.5" font-family="Helvetica,sans-Serif" font-size="10.00"> &#45;exits</text>
</g>
<!-- Node7 -->
<g id="node7" class="node"><title>Node7</title>
<polygon fill="white" stroke="#bfbfbf" points="263,-741.5 263,-798.5 397,-798.5 397,-741.5 263,-741.5"/>
<text text-anchor="middle" x="330" y="-786.5" font-family="Helvetica,sans-Serif" font-size="10.00">Stack&lt; pkg_world.Room &gt;</text>
<polyline fill="none" stroke="#bfbfbf" points="263,-779.5 397,-779.5 "/>
<text text-anchor="middle" x="330" y="-767.5" font-family="Helvetica,sans-Serif" font-size="10.00"> </text>
<polyline fill="none" stroke="#bfbfbf" points="263,-760.5 397,-760.5 "/>
<text text-anchor="middle" x="330" y="-748.5" font-family="Helvetica,sans-Serif" font-size="10.00"> </text>
</g>
<!-- Node7&#45;&gt;Node2 -->
<g id="edge7" class="edge"><title>Node7&#45;&gt;Node2</title>
<path fill="none" stroke="#404040" d="M315.913,-741.351C300.079,-710.274 273.419,-657.95 249.253,-610.519"/>
<polygon fill="none" stroke="#404040" points="249.105,-610.229 242.817,-606.699 243.658,-599.537 249.946,-603.067 249.105,-610.229"/>
<text text-anchor="middle" x="300.5" y="-626.5" font-family="Helvetica,sans-Serif" font-size="10.00"> &#45;previousRooms</text>
</g>
<!-- Node8 -->
<g id="node8" class="node"><title>Node8</title>
<polygon fill="white" stroke="#bfbfbf" points="275,-476.5 275,-533.5 375,-533.5 375,-476.5 275,-476.5"/>
<text text-anchor="middle" x="325" y="-521.5" font-family="Helvetica,sans-Serif" font-size="10.00">ArrayList&lt; Room &gt;</text>
<polyline fill="none" stroke="#bfbfbf" points="275,-514.5 375,-514.5 "/>
<text text-anchor="middle" x="325" y="-502.5" font-family="Helvetica,sans-Serif" font-size="10.00"> </text>
<polyline fill="none" stroke="#bfbfbf" points="275,-495.5 375,-495.5 "/>
<text text-anchor="middle" x="325" y="-483.5" font-family="Helvetica,sans-Serif" font-size="10.00"> </text>
</g>
<!-- Node8&#45;&gt;Node1 -->
<g id="edge8" class="edge"><title>Node8&#45;&gt;Node1</title>
<path fill="none" stroke="#404040" d="M318.7,-476.199C312.731,-449.859 303.507,-409.15 295.451,-373.601"/>
<polygon fill="none" stroke="#404040" points="295.423,-373.475 290.196,-368.507 292.771,-361.771 297.998,-366.739 295.423,-373.475"/>
<text text-anchor="middle" x="332.5" y="-383.5" font-family="Helvetica,sans-Serif" font-size="10.00"> ~gameRooms</text>
</g>
<!-- Node9&#45;&gt;Node1 -->
<g id="edge9" class="edge"><title>Node9&#45;&gt;Node1</title>
<path fill="none" stroke="#404040" d="M251.664,-189.65C253.518,-195.845 255.314,-202.003 257,-208 258.662,-213.912 260.313,-220.06 261.919,-226.248"/>
<polygon fill="none" stroke="#404040" points="261.987,-226.511 267.343,-231.34 264.946,-238.141 259.59,-233.312 261.987,-226.511"/>
<text text-anchor="middle" x="269.5" y="-211.5" font-family="Helvetica,sans-Serif" font-size="10.00"> &#45;gui</text>
</g>
<!-- Node10 -->
<g id="node10" class="node"><title>Node10</title>
<polygon fill="white" stroke="#bfbfbf" points="123.5,-271.5 123.5,-328.5 202.5,-328.5 202.5,-271.5 123.5,-271.5"/>
<text text-anchor="middle" x="163" y="-316.5" font-family="Helvetica,sans-Serif" font-size="10.00">ActionListener</text>
<polyline fill="none" stroke="#bfbfbf" points="123.5,-309.5 202.5,-309.5 "/>
<text text-anchor="middle" x="163" y="-297.5" font-family="Helvetica,sans-Serif" font-size="10.00"> </text>
<polyline fill="none" stroke="#bfbfbf" points="123.5,-290.5 202.5,-290.5 "/>
<text text-anchor="middle" x="163" y="-278.5" font-family="Helvetica,sans-Serif" font-size="10.00"> </text>
</g>
<!-- Node10&#45;&gt;Node9 -->
<g id="edge10" class="edge"><title>Node10&#45;&gt;Node9</title>
<path fill="none" stroke="midnightblue" d="M173.739,-261.414C179.551,-241.072 187.013,-214.955 194.283,-189.511"/>
<polygon fill="none" stroke="midnightblue" points="170.325,-260.623 170.943,-271.199 177.056,-262.546 170.325,-260.623"/>
</g>
</g>
</svg>
