<?xml version="1.0" encoding="UTF-8" standalone="no"?>
<!DOCTYPE svg PUBLIC "-//W3C//DTD SVG 1.1//EN"
 "http://www.w3.org/Graphics/SVG/1.1/DTD/svg11.dtd">
<!-- Generated by graphviz version 2.36.0 (20140111.2315)
 -->
<!-- Title: Player Pages: 1 -->
<svg width="337pt" height="694pt"
 viewBox="0.00 0.00 337.00 694.00" xmlns="http://www.w3.org/2000/svg" xmlns:xlink="http://www.w3.org/1999/xlink">
<g id="graph0" class="graph" transform="scale(1 1) rotate(0) translate(4 690)">
<title>Player</title>
<polygon fill="white" stroke="none" points="-4,4 -4,-690 333,-690 333,4 -4,4"/>
<!-- Node1 -->
<g id="node1" class="node"><title>Node1</title>
<polygon fill="#bfbfbf" stroke="black" points="72,-0.5 72,-189.5 194,-189.5 194,-0.5 72,-0.5"/>
<text text-anchor="middle" x="133" y="-177.5" font-family="Helvetica,sans-Serif" font-size="10.00">Player</text>
<polyline fill="none" stroke="black" points="72,-170.5 194,-170.5 "/>
<text text-anchor="start" x="80" y="-158.5" font-family="Helvetica,sans-Serif" font-size="10.00">&#45; name</text>
<text text-anchor="start" x="80" y="-147.5" font-family="Helvetica,sans-Serif" font-size="10.00">&#45; backpackWeight</text>
<text text-anchor="start" x="80" y="-136.5" font-family="Helvetica,sans-Serif" font-size="10.00">&#45; maxWeight</text>
<polyline fill="none" stroke="black" points="72,-129.5 194,-129.5 "/>
<text text-anchor="start" x="80" y="-117.5" font-family="Helvetica,sans-Serif" font-size="10.00">+ Player()</text>
<text text-anchor="start" x="80" y="-106.5" font-family="Helvetica,sans-Serif" font-size="10.00">+ getName()</text>
<text text-anchor="start" x="80" y="-95.5" font-family="Helvetica,sans-Serif" font-size="10.00">+ getMaxWeight()</text>
<text text-anchor="start" x="80" y="-84.5" font-family="Helvetica,sans-Serif" font-size="10.00">+ setMaxWeight()</text>
<text text-anchor="start" x="80" y="-73.5" font-family="Helvetica,sans-Serif" font-size="10.00">+ getCurrentRoom()</text>
<text text-anchor="start" x="80" y="-62.5" font-family="Helvetica,sans-Serif" font-size="10.00">+ goRoom()</text>
<text text-anchor="start" x="80" y="-51.5" font-family="Helvetica,sans-Serif" font-size="10.00">+ getPreviousRoom()</text>
<text text-anchor="start" x="80" y="-40.5" font-family="Helvetica,sans-Serif" font-size="10.00">+ pushPreviousRooms()</text>
<text text-anchor="start" x="80" y="-29.5" font-family="Helvetica,sans-Serif" font-size="10.00">+ pushForward()</text>
<text text-anchor="start" x="80" y="-18.5" font-family="Helvetica,sans-Serif" font-size="10.00">+ popPreviousRooms()</text>
<text text-anchor="start" x="80" y="-7.5" font-family="Helvetica,sans-Serif" font-size="10.00">and 10 more...</text>
</g>
<!-- Node2 -->
<g id="node2" class="node"><title>Node2</title>
<polygon fill="white" stroke="#bfbfbf" points="0,-331.5 0,-388.5 86,-388.5 86,-331.5 0,-331.5"/>
<text text-anchor="middle" x="43" y="-376.5" font-family="Helvetica,sans-Serif" font-size="10.00">Stack&lt; Room &gt;</text>
<polyline fill="none" stroke="#bfbfbf" points="0,-369.5 86,-369.5 "/>
<text text-anchor="middle" x="43" y="-357.5" font-family="Helvetica,sans-Serif" font-size="10.00"> </text>
<polyline fill="none" stroke="#bfbfbf" points="0,-350.5 86,-350.5 "/>
<text text-anchor="middle" x="43" y="-338.5" font-family="Helvetica,sans-Serif" font-size="10.00"> </text>
</g>
<!-- Node2&#45;&gt;Node1 -->
<g id="edge1" class="edge"><title>Node2&#45;&gt;Node1</title>
<path fill="none" stroke="#404040" d="M37.9172,-331.351C33.4028,-300.348 29.5264,-249.041 44,-208 48.9209,-194.046 56.3713,-180.522 64.9074,-167.982"/>
<polygon fill="none" stroke="#404040" points="64.9663,-167.9 65.2114,-160.693 71.9583,-158.147 71.7131,-165.354 64.9663,-167.9"/>
<text text-anchor="middle" x="81.5" y="-216.5" font-family="Helvetica,sans-Serif" font-size="10.00"> &#45;previousRooms</text>
</g>
<!-- Node3 -->
<g id="node3" class="node"><title>Node3</title>
<g id="a_node3"><a xlink:href="classRoom.html" target="_top" xlink:title="Class used to handle a game&#39;s room. ">
<polygon fill="white" stroke="black" points="200,-249 200,-471 318,-471 318,-249 200,-249"/>
<text text-anchor="middle" x="259" y="-459" font-family="Helvetica,sans-Serif" font-size="10.00">Room</text>
<polyline fill="none" stroke="black" points="200,-452 318,-452 "/>
<text text-anchor="start" x="208" y="-440" font-family="Helvetica,sans-Serif" font-size="10.00">&#45; description</text>
<text text-anchor="start" x="208" y="-429" font-family="Helvetica,sans-Serif" font-size="10.00">&#45; imageName</text>
<polyline fill="none" stroke="black" points="200,-422 318,-422 "/>
<text text-anchor="start" x="208" y="-410" font-family="Helvetica,sans-Serif" font-size="10.00">+ Room()</text>
<text text-anchor="start" x="208" y="-399" font-family="Helvetica,sans-Serif" font-size="10.00">+ Room()</text>
<text text-anchor="start" x="208" y="-388" font-family="Helvetica,sans-Serif" font-size="10.00">+ setExit()</text>
<text text-anchor="start" x="208" y="-377" font-family="Helvetica,sans-Serif" font-size="10.00">+ getContainedItems()</text>
<text text-anchor="start" x="208" y="-366" font-family="Helvetica,sans-Serif" font-size="10.00">+ getItem()</text>
<text text-anchor="start" x="208" y="-355" font-family="Helvetica,sans-Serif" font-size="10.00">+ hasItem()</text>
<text text-anchor="start" x="208" y="-344" font-family="Helvetica,sans-Serif" font-size="10.00">+ addItem()</text>
<text text-anchor="start" x="208" y="-333" font-family="Helvetica,sans-Serif" font-size="10.00">+ removeItem()</text>
<text text-anchor="start" x="208" y="-322" font-family="Helvetica,sans-Serif" font-size="10.00">+ getShortDescription()</text>
<text text-anchor="start" x="208" y="-311" font-family="Helvetica,sans-Serif" font-size="10.00">+ getLongDescription()</text>
<text text-anchor="start" x="208" y="-300" font-family="Helvetica,sans-Serif" font-size="10.00">+ getHumanItemsList()</text>
<text text-anchor="start" x="208" y="-289" font-family="Helvetica,sans-Serif" font-size="10.00">+ getExit()</text>
<text text-anchor="start" x="208" y="-278" font-family="Helvetica,sans-Serif" font-size="10.00">+ isExit()</text>
<text text-anchor="start" x="208" y="-267" font-family="Helvetica,sans-Serif" font-size="10.00">+ getImageName()</text>
<text text-anchor="start" x="208" y="-256" font-family="Helvetica,sans-Serif" font-size="10.00">&#45; getExitString()</text>
</a>
</g>
</g>
<!-- Node3&#45;&gt;Node1 -->
<g id="edge2" class="edge"><title>Node3&#45;&gt;Node1</title>
<path fill="none" stroke="#404040" d="M206.295,-248.988C198.624,-232.977 190.744,-216.529 183.126,-200.628"/>
<polygon fill="none" stroke="#404040" points="183.085,-200.541 176.885,-196.859 177.9,-189.719 184.1,-193.402 183.085,-200.541"/>
<text text-anchor="middle" x="228.5" y="-222" font-family="Helvetica,sans-Serif" font-size="10.00"> &#45;beamerRoom</text>
<text text-anchor="middle" x="228.5" y="-211" font-family="Helvetica,sans-Serif" font-size="10.00">&#45;currentRoom</text>
</g>
<!-- Node4 -->
<g id="node4" class="node"><title>Node4</title>
<g id="a_node4"><a xlink:href="classItemList.html" target="_top" xlink:title="class ItemList used to handle a list of Item (inventory). ">
<polygon fill="white" stroke="black" points="105.5,-520.5 105.5,-577.5 170.5,-577.5 170.5,-520.5 105.5,-520.5"/>
<text text-anchor="middle" x="138" y="-565.5" font-family="Helvetica,sans-Serif" font-size="10.00">ItemList</text>
<polyline fill="none" stroke="black" points="105.5,-558.5 170.5,-558.5 "/>
<text text-anchor="middle" x="138" y="-546.5" font-family="Helvetica,sans-Serif" font-size="10.00"> </text>
<polyline fill="none" stroke="black" points="105.5,-539.5 170.5,-539.5 "/>
<text text-anchor="start" x="113.5" y="-527.5" font-family="Helvetica,sans-Serif" font-size="10.00">+ transfer()</text>
</a>
</g>
</g>
<!-- Node4&#45;&gt;Node1 -->
<g id="edge6" class="edge"><title>Node4&#45;&gt;Node1</title>
<path fill="none" stroke="#404040" d="M137.695,-520.406C137.01,-458.549 135.324,-306.055 134.17,-201.76"/>
<polygon fill="none" stroke="#404040" points="134.168,-201.606 130.102,-195.65 134.035,-189.606 138.102,-195.562 134.168,-201.606"/>
<text text-anchor="middle" x="162.5" y="-357.5" font-family="Helvetica,sans-Serif" font-size="10.00"> &#45;backpack</text>
</g>
<!-- Node4&#45;&gt;Node3 -->
<g id="edge3" class="edge"><title>Node4&#45;&gt;Node3</title>
<path fill="none" stroke="#404040" d="M155.854,-520.408C166.012,-504.708 179.435,-483.965 193.225,-462.652"/>
<polygon fill="none" stroke="#404040" points="193.274,-462.576 193.175,-455.366 199.793,-452.501 199.892,-459.712 193.274,-462.576"/>
<text text-anchor="middle" x="210.5" y="-493.5" font-family="Helvetica,sans-Serif" font-size="10.00"> &#45;containedItems</text>
</g>
<!-- Node5 -->
<g id="node5" class="node"><title>Node5</title>
<polygon fill="white" stroke="#bfbfbf" points="87.5,-617 87.5,-685 188.5,-685 188.5,-617 87.5,-617"/>
<text text-anchor="start" x="95.5" y="-673" font-family="Helvetica,sans-Serif" font-size="10.00">java::util::HashMap</text>
<text text-anchor="middle" x="138" y="-662" font-family="Helvetica,sans-Serif" font-size="10.00">&lt; String, Item &gt;</text>
<polyline fill="none" stroke="#bfbfbf" points="87.5,-655 188.5,-655 "/>
<text text-anchor="middle" x="138" y="-643" font-family="Helvetica,sans-Serif" font-size="10.00"> </text>
<polyline fill="none" stroke="#bfbfbf" points="87.5,-636 188.5,-636 "/>
<text text-anchor="middle" x="138" y="-624" font-family="Helvetica,sans-Serif" font-size="10.00"> </text>
</g>
<!-- Node5&#45;&gt;Node4 -->
<g id="edge4" class="edge"><title>Node5&#45;&gt;Node4</title>
<path fill="none" stroke="midnightblue" d="M138,-606.857C138,-596.952 138,-586.682 138,-577.64"/>
<polygon fill="none" stroke="midnightblue" points="134.5,-606.979 138,-616.979 141.5,-606.979 134.5,-606.979"/>
</g>
<!-- Node6 -->
<g id="node6" class="node"><title>Node6</title>
<polygon fill="white" stroke="#bfbfbf" points="195,-520.5 195,-577.5 329,-577.5 329,-520.5 195,-520.5"/>
<text text-anchor="middle" x="262" y="-565.5" font-family="Helvetica,sans-Serif" font-size="10.00">HashMap&lt; String, Room &gt;</text>
<polyline fill="none" stroke="#bfbfbf" points="195,-558.5 329,-558.5 "/>
<text text-anchor="middle" x="262" y="-546.5" font-family="Helvetica,sans-Serif" font-size="10.00"> </text>
<polyline fill="none" stroke="#bfbfbf" points="195,-539.5 329,-539.5 "/>
<text text-anchor="middle" x="262" y="-527.5" font-family="Helvetica,sans-Serif" font-size="10.00"> </text>
</g>
<!-- Node6&#45;&gt;Node3 -->
<g id="edge5" class="edge"><title>Node6&#45;&gt;Node3</title>
<path fill="none" stroke="#404040" d="M261.557,-520.408C261.388,-509.878 261.183,-497.08 260.963,-483.362"/>
<polygon fill="none" stroke="#404040" points="260.959,-483.104 256.863,-477.169 260.766,-471.105 264.862,-477.04 260.959,-483.104"/>
<text text-anchor="middle" x="275" y="-493.5" font-family="Helvetica,sans-Serif" font-size="10.00"> &#45;exits</text>
</g>
</g>
</svg>
