<?xml version="1.0" encoding="UTF-8" standalone="no"?>
<!DOCTYPE svg PUBLIC "-//W3C//DTD SVG 1.1//EN"
 "http://www.w3.org/Graphics/SVG/1.1/DTD/svg11.dtd">
<!-- Generated by graphviz version 2.36.0 (20140111.2315)
 -->
<!-- Title: pkg_game.GameEngine Pages: 1 -->
<svg width="660pt" height="1106pt"
 viewBox="0.00 0.00 660.00 1106.00" xmlns="http://www.w3.org/2000/svg" xmlns:xlink="http://www.w3.org/1999/xlink">
<g id="graph0" class="graph" transform="scale(1 1) rotate(0) translate(4 1102)">
<title>pkg_game.GameEngine</title>
<polygon fill="white" stroke="none" points="-4,4 -4,-1102 656,-1102 656,4 -4,4"/>
<!-- Node1 -->
<g id="node1" class="node"><title>Node1</title>
<polygon fill="#bfbfbf" stroke="black" points="365.5,-239 365.5,-373 486.5,-373 486.5,-239 365.5,-239"/>
<text text-anchor="middle" x="426" y="-361" font-family="Helvetica,sans-Serif" font-size="10.00">pkg_game.GameEngine</text>
<polyline fill="none" stroke="black" points="365.5,-354 486.5,-354 "/>
<text text-anchor="start" x="373.5" y="-342" font-family="Helvetica,sans-Serif" font-size="10.00">&#45; helpCount</text>
<text text-anchor="start" x="373.5" y="-331" font-family="Helvetica,sans-Serif" font-size="10.00">&#45; commandCountDown</text>
<polyline fill="none" stroke="black" points="365.5,-324 486.5,-324 "/>
<text text-anchor="start" x="373.5" y="-312" font-family="Helvetica,sans-Serif" font-size="10.00">+ GameEngine()</text>
<text text-anchor="start" x="373.5" y="-301" font-family="Helvetica,sans-Serif" font-size="10.00">+ setGUI()</text>
<text text-anchor="start" x="373.5" y="-290" font-family="Helvetica,sans-Serif" font-size="10.00">+ processCommand()</text>
<text text-anchor="start" x="373.5" y="-279" font-family="Helvetica,sans-Serif" font-size="10.00">+ getRooms()</text>
<text text-anchor="start" x="373.5" y="-268" font-family="Helvetica,sans-Serif" font-size="10.00">&#45; printWelcome()</text>
<text text-anchor="start" x="373.5" y="-257" font-family="Helvetica,sans-Serif" font-size="10.00">&#45; createRooms()</text>
<text text-anchor="start" x="373.5" y="-246" font-family="Helvetica,sans-Serif" font-size="10.00">&#45; endGame()</text>
</g>
<!-- Node2 -->
<g id="node2" class="node"><title>Node2</title>
<g id="a_node2"><a xlink:href="classpkg__game_1_1UserInterface.html" target="_top" xlink:title="Class handling the game&#39;s user interface. ">
<polygon fill="white" stroke="black" points="252,-0.5 252,-189.5 376,-189.5 376,-0.5 252,-0.5"/>
<text text-anchor="middle" x="314" y="-177.5" font-family="Helvetica,sans-Serif" font-size="10.00">pkg_game.UserInterface</text>
<polyline fill="none" stroke="black" points="252,-170.5 376,-170.5 "/>
<text text-anchor="start" x="260" y="-158.5" font-family="Helvetica,sans-Serif" font-size="10.00">&#45; myFrame</text>
<text text-anchor="start" x="260" y="-147.5" font-family="Helvetica,sans-Serif" font-size="10.00">&#45; entryField</text>
<text text-anchor="start" x="260" y="-136.5" font-family="Helvetica,sans-Serif" font-size="10.00">&#45; log</text>
<text text-anchor="start" x="260" y="-125.5" font-family="Helvetica,sans-Serif" font-size="10.00">&#45; image</text>
<text text-anchor="start" x="260" y="-114.5" font-family="Helvetica,sans-Serif" font-size="10.00">&#45; commandsLeftLabel</text>
<polyline fill="none" stroke="black" points="252,-107.5 376,-107.5 "/>
<text text-anchor="start" x="260" y="-95.5" font-family="Helvetica,sans-Serif" font-size="10.00">+ UserInterface()</text>
<text text-anchor="start" x="260" y="-84.5" font-family="Helvetica,sans-Serif" font-size="10.00">+ setCommandsLeft()</text>
<text text-anchor="start" x="260" y="-73.5" font-family="Helvetica,sans-Serif" font-size="10.00">+ print()</text>
<text text-anchor="start" x="260" y="-62.5" font-family="Helvetica,sans-Serif" font-size="10.00">+ println()</text>
<text text-anchor="start" x="260" y="-51.5" font-family="Helvetica,sans-Serif" font-size="10.00">+ showImage()</text>
<text text-anchor="start" x="260" y="-40.5" font-family="Helvetica,sans-Serif" font-size="10.00">+ enable()</text>
<text text-anchor="start" x="260" y="-29.5" font-family="Helvetica,sans-Serif" font-size="10.00">+ actionPerformed()</text>
<text text-anchor="start" x="260" y="-18.5" font-family="Helvetica,sans-Serif" font-size="10.00">&#45; createGUI()</text>
<text text-anchor="start" x="260" y="-7.5" font-family="Helvetica,sans-Serif" font-size="10.00">&#45; processCommand()</text>
</a>
</g>
</g>
<!-- Node1&#45;&gt;Node2 -->
<g id="edge3" class="edge"><title>Node1&#45;&gt;Node2</title>
<path fill="none" stroke="#404040" d="M365.158,-239.119C360.723,-232.877 356.59,-226.461 353,-220 349.63,-213.934 346.506,-207.536 343.619,-200.974"/>
<polygon fill="none" stroke="#404040" points="343.583,-200.887 337.588,-196.879 338.981,-189.804 344.976,-193.811 343.583,-200.887"/>
<text text-anchor="middle" x="370.5" y="-211.5" font-family="Helvetica,sans-Serif" font-size="10.00"> &#45;engine</text>
</g>
<!-- Node2&#45;&gt;Node1 -->
<g id="edge1" class="edge"><title>Node2&#45;&gt;Node1</title>
<path fill="none" stroke="#404040" d="M376.113,-180.114C381.833,-189.317 387.253,-198.718 392,-208 395.175,-214.209 398.173,-220.782 400.974,-227.464"/>
<polygon fill="none" stroke="#404040" points="401.039,-227.627 406.982,-231.71 405.499,-238.767 399.555,-234.683 401.039,-227.627"/>
<text text-anchor="middle" x="406.5" y="-211.5" font-family="Helvetica,sans-Serif" font-size="10.00"> &#45;gui</text>
</g>
<!-- Node3 -->
<g id="node3" class="node"><title>Node3</title>
<polygon fill="white" stroke="#bfbfbf" points="107.5,-277.5 107.5,-334.5 186.5,-334.5 186.5,-277.5 107.5,-277.5"/>
<text text-anchor="middle" x="147" y="-322.5" font-family="Helvetica,sans-Serif" font-size="10.00">ActionListener</text>
<polyline fill="none" stroke="#bfbfbf" points="107.5,-315.5 186.5,-315.5 "/>
<text text-anchor="middle" x="147" y="-303.5" font-family="Helvetica,sans-Serif" font-size="10.00"> </text>
<polyline fill="none" stroke="#bfbfbf" points="107.5,-296.5 186.5,-296.5 "/>
<text text-anchor="middle" x="147" y="-284.5" font-family="Helvetica,sans-Serif" font-size="10.00"> </text>
</g>
<!-- Node3&#45;&gt;Node2 -->
<g id="edge2" class="edge"><title>Node3&#45;&gt;Node2</title>
<path fill="none" stroke="midnightblue" d="M172.661,-269.054C180.067,-258.916 188.245,-247.943 196,-238 213.742,-215.253 233.594,-190.949 251.879,-168.994"/>
<polygon fill="none" stroke="midnightblue" points="169.693,-267.184 166.648,-277.332 175.356,-271.298 169.693,-267.184"/>
</g>
<!-- Node4 -->
<g id="node4" class="node"><title>Node4</title>
<polygon fill="white" stroke="#bfbfbf" points="205,-277.5 205,-334.5 347,-334.5 347,-277.5 205,-277.5"/>
<text text-anchor="middle" x="276" y="-322.5" font-family="Helvetica,sans-Serif" font-size="10.00">HashMap&lt; JButton, String &gt;</text>
<polyline fill="none" stroke="#bfbfbf" points="205,-315.5 347,-315.5 "/>
<text text-anchor="middle" x="276" y="-303.5" font-family="Helvetica,sans-Serif" font-size="10.00"> </text>
<polyline fill="none" stroke="#bfbfbf" points="205,-296.5 347,-296.5 "/>
<text text-anchor="middle" x="276" y="-284.5" font-family="Helvetica,sans-Serif" font-size="10.00"> </text>
</g>
<!-- Node4&#45;&gt;Node2 -->
<g id="edge4" class="edge"><title>Node4&#45;&gt;Node2</title>
<path fill="none" stroke="#404040" d="M280.329,-277.366C283.428,-257.937 287.783,-231.346 292,-208 292.369,-205.956 292.745,-203.891 293.127,-201.81"/>
<polygon fill="none" stroke="#404040" points="293.173,-201.563 290.335,-194.934 295.363,-189.765 298.201,-196.394 293.173,-201.563"/>
<text text-anchor="middle" x="311.5" y="-211.5" font-family="Helvetica,sans-Serif" font-size="10.00"> &#45;buttons</text>
</g>
<!-- Node5 -->
<g id="node5" class="node"><title>Node5</title>
<polygon fill="white" stroke="#bfbfbf" points="193,-483 193,-551 347,-551 347,-483 193,-483"/>
<text text-anchor="start" x="201" y="-539" font-family="Helvetica,sans-Serif" font-size="10.00">HashSet&lt; pkg_world.pkg</text>
<text text-anchor="middle" x="270" y="-528" font-family="Helvetica,sans-Serif" font-size="10.00">_characters.MovingCharacter &gt;</text>
<polyline fill="none" stroke="#bfbfbf" points="193,-521 347,-521 "/>
<text text-anchor="middle" x="270" y="-509" font-family="Helvetica,sans-Serif" font-size="10.00"> </text>
<polyline fill="none" stroke="#bfbfbf" points="193,-502 347,-502 "/>
<text text-anchor="middle" x="270" y="-490" font-family="Helvetica,sans-Serif" font-size="10.00"> </text>
</g>
<!-- Node5&#45;&gt;Node1 -->
<g id="edge5" class="edge"><title>Node5&#45;&gt;Node1</title>
<path fill="none" stroke="#404040" d="M283.818,-482.797C295.561,-456.687 313.995,-420.146 336,-392 343.366,-382.579 347.235,-382.135 356,-374 356.193,-373.821 356.386,-373.642 356.579,-373.463"/>
<polygon fill="none" stroke="#404040" points="356.633,-373.412 358.287,-366.393 365.402,-365.219 363.748,-372.238 356.633,-373.412"/>
<text text-anchor="middle" x="379" y="-395.5" font-family="Helvetica,sans-Serif" font-size="10.00"> &#45;movingCharacters</text>
</g>
<!-- Node6 -->
<g id="node6" class="node"><title>Node6</title>
<g id="a_node6"><a xlink:href="classpkg__world_1_1Player.html" target="_top" xlink:title="class Player used to handle the user&#39;s player. ">
<polygon fill="white" stroke="black" points="365,-422.5 365,-611.5 487,-611.5 487,-422.5 365,-422.5"/>
<text text-anchor="middle" x="426" y="-599.5" font-family="Helvetica,sans-Serif" font-size="10.00">pkg_world.Player</text>
<polyline fill="none" stroke="black" points="365,-592.5 487,-592.5 "/>
<text text-anchor="start" x="373" y="-580.5" font-family="Helvetica,sans-Serif" font-size="10.00">&#45; name</text>
<text text-anchor="start" x="373" y="-569.5" font-family="Helvetica,sans-Serif" font-size="10.00">&#45; backpackWeight</text>
<text text-anchor="start" x="373" y="-558.5" font-family="Helvetica,sans-Serif" font-size="10.00">&#45; maxWeight</text>
<polyline fill="none" stroke="black" points="365,-551.5 487,-551.5 "/>
<text text-anchor="start" x="373" y="-539.5" font-family="Helvetica,sans-Serif" font-size="10.00">+ Player()</text>
<text text-anchor="start" x="373" y="-528.5" font-family="Helvetica,sans-Serif" font-size="10.00">+ getName()</text>
<text text-anchor="start" x="373" y="-517.5" font-family="Helvetica,sans-Serif" font-size="10.00">+ getMaxWeight()</text>
<text text-anchor="start" x="373" y="-506.5" font-family="Helvetica,sans-Serif" font-size="10.00">+ setMaxWeight()</text>
<text text-anchor="start" x="373" y="-495.5" font-family="Helvetica,sans-Serif" font-size="10.00">+ getCurrentRoom()</text>
<text text-anchor="start" x="373" y="-484.5" font-family="Helvetica,sans-Serif" font-size="10.00">+ goRoom()</text>
<text text-anchor="start" x="373" y="-473.5" font-family="Helvetica,sans-Serif" font-size="10.00">+ getPreviousRoom()</text>
<text text-anchor="start" x="373" y="-462.5" font-family="Helvetica,sans-Serif" font-size="10.00">+ pushPreviousRooms()</text>
<text text-anchor="start" x="373" y="-451.5" font-family="Helvetica,sans-Serif" font-size="10.00">+ pushForward()</text>
<text text-anchor="start" x="373" y="-440.5" font-family="Helvetica,sans-Serif" font-size="10.00">+ popPreviousRooms()</text>
<text text-anchor="start" x="373" y="-429.5" font-family="Helvetica,sans-Serif" font-size="10.00">and 10 more...</text>
</a>
</g>
</g>
<!-- Node6&#45;&gt;Node1 -->
<g id="edge6" class="edge"><title>Node6&#45;&gt;Node1</title>
<path fill="none" stroke="#404040" d="M426,-422.199C426,-409.957 426,-397.516 426,-385.56"/>
<polygon fill="none" stroke="#404040" points="426,-385.304 422,-379.304 426,-373.304 430,-379.304 426,-385.304"/>
<text text-anchor="middle" x="442.5" y="-395.5" font-family="Helvetica,sans-Serif" font-size="10.00"> &#45;player</text>
</g>
<!-- Node7 -->
<g id="node7" class="node"><title>Node7</title>
<g id="a_node7"><a xlink:href="classpkg__world_1_1Room.html" target="_top" xlink:title="Class used to handle a game&#39;s room. ">
<polygon fill="white" stroke="black" points="193,-671 193,-871 307,-871 307,-671 193,-671"/>
<text text-anchor="middle" x="250" y="-859" font-family="Helvetica,sans-Serif" font-size="10.00">pkg_world.Room</text>
<polyline fill="none" stroke="black" points="193,-852 307,-852 "/>
<text text-anchor="start" x="201" y="-840" font-family="Helvetica,sans-Serif" font-size="10.00">&#45; description</text>
<text text-anchor="start" x="201" y="-829" font-family="Helvetica,sans-Serif" font-size="10.00">&#45; imageName</text>
<polyline fill="none" stroke="black" points="193,-822 307,-822 "/>
<text text-anchor="start" x="201" y="-810" font-family="Helvetica,sans-Serif" font-size="10.00">+ Room()</text>
<text text-anchor="start" x="201" y="-799" font-family="Helvetica,sans-Serif" font-size="10.00">+ Room()</text>
<text text-anchor="start" x="201" y="-788" font-family="Helvetica,sans-Serif" font-size="10.00">+ setExit()</text>
<text text-anchor="start" x="201" y="-777" font-family="Helvetica,sans-Serif" font-size="10.00">+ getContainedItems()</text>
<text text-anchor="start" x="201" y="-766" font-family="Helvetica,sans-Serif" font-size="10.00">+ getItem()</text>
<text text-anchor="start" x="201" y="-755" font-family="Helvetica,sans-Serif" font-size="10.00">+ getCharacter()</text>
<text text-anchor="start" x="201" y="-744" font-family="Helvetica,sans-Serif" font-size="10.00">+ hasItem()</text>
<text text-anchor="start" x="201" y="-733" font-family="Helvetica,sans-Serif" font-size="10.00">+ hasCharacter()</text>
<text text-anchor="start" x="201" y="-722" font-family="Helvetica,sans-Serif" font-size="10.00">+ addItem()</text>
<text text-anchor="start" x="201" y="-711" font-family="Helvetica,sans-Serif" font-size="10.00">+ addCharacter()</text>
<text text-anchor="start" x="201" y="-700" font-family="Helvetica,sans-Serif" font-size="10.00">and 10 more...</text>
<text text-anchor="start" x="201" y="-689" font-family="Helvetica,sans-Serif" font-size="10.00">&#45; getHumanList()</text>
<text text-anchor="start" x="201" y="-678" font-family="Helvetica,sans-Serif" font-size="10.00">&#45; getExitString()</text>
</a>
</g>
</g>
<!-- Node7&#45;&gt;Node6 -->
<g id="edge7" class="edge"><title>Node7&#45;&gt;Node6</title>
<path fill="none" stroke="#404040" d="M307.075,-687.378C320.163,-668.501 334.039,-648.54 347,-630 350.531,-624.949 354.156,-619.774 357.82,-614.552"/>
<polygon fill="none" stroke="#404040" points="358.003,-614.291 358.178,-607.082 364.899,-604.47 364.725,-611.679 358.003,-614.291"/>
<text text-anchor="middle" x="379.5" y="-644" font-family="Helvetica,sans-Serif" font-size="10.00"> &#45;beamerRoom</text>
<text text-anchor="middle" x="379.5" y="-633" font-family="Helvetica,sans-Serif" font-size="10.00">&#45;currentRoom</text>
</g>
<!-- Node8 -->
<g id="node8" class="node"><title>Node8</title>
<polygon fill="white" stroke="#bfbfbf" points="-0.5,-921 -0.5,-989 114.5,-989 114.5,-921 -0.5,-921"/>
<text text-anchor="start" x="7.5" y="-977" font-family="Helvetica,sans-Serif" font-size="10.00">HashMap&lt; String, pkg</text>
<text text-anchor="middle" x="57" y="-966" font-family="Helvetica,sans-Serif" font-size="10.00">_world.Room &gt;</text>
<polyline fill="none" stroke="#bfbfbf" points="-0.5,-959 114.5,-959 "/>
<text text-anchor="middle" x="57" y="-947" font-family="Helvetica,sans-Serif" font-size="10.00"> </text>
<polyline fill="none" stroke="#bfbfbf" points="-0.5,-940 114.5,-940 "/>
<text text-anchor="middle" x="57" y="-928" font-family="Helvetica,sans-Serif" font-size="10.00"> </text>
</g>
<!-- Node8&#45;&gt;Node7 -->
<g id="edge8" class="edge"><title>Node8&#45;&gt;Node7</title>
<path fill="none" stroke="#404040" d="M92.3992,-920.618C117.953,-896.521 153.218,-863.266 183.911,-834.323"/>
<polygon fill="none" stroke="#404040" points="184.122,-834.123 185.743,-827.097 192.853,-825.89 191.232,-832.917 184.122,-834.123"/>
<text text-anchor="middle" x="134" y="-893.5" font-family="Helvetica,sans-Serif" font-size="10.00"> &#45;exits</text>
</g>
<!-- Node9 -->
<g id="node9" class="node"><title>Node9</title>
<g id="a_node9"><a xlink:href="classpkg__world_1_1pkg__items_1_1ItemList.html" target="_top" xlink:title="class ItemList used to handle a list of Item (inventory). ">
<polygon fill="white" stroke="black" points="336.5,-926.5 336.5,-983.5 483.5,-983.5 483.5,-926.5 336.5,-926.5"/>
<text text-anchor="middle" x="410" y="-971.5" font-family="Helvetica,sans-Serif" font-size="10.00">pkg_world.pkg_items.ItemList</text>
<polyline fill="none" stroke="black" points="336.5,-964.5 483.5,-964.5 "/>
<text text-anchor="middle" x="410" y="-952.5" font-family="Helvetica,sans-Serif" font-size="10.00"> </text>
<polyline fill="none" stroke="black" points="336.5,-945.5 483.5,-945.5 "/>
<text text-anchor="start" x="344.5" y="-933.5" font-family="Helvetica,sans-Serif" font-size="10.00">+ transfer()</text>
</a>
</g>
</g>
<!-- Node9&#45;&gt;Node6 -->
<g id="edge12" class="edge"><title>Node9&#45;&gt;Node6</title>
<path fill="none" stroke="#404040" d="M411.069,-926.474C411.373,-918.572 411.702,-909.945 412,-902 415.526,-807.873 419.421,-700.762 422.206,-623.624"/>
<polygon fill="none" stroke="#404040" points="422.21,-623.5 418.429,-617.359 422.643,-611.508 426.424,-617.648 422.21,-623.5"/>
<text text-anchor="middle" x="445.5" y="-768.5" font-family="Helvetica,sans-Serif" font-size="10.00"> &#45;backpack</text>
</g>
<!-- Node9&#45;&gt;Node7 -->
<g id="edge9" class="edge"><title>Node9&#45;&gt;Node7</title>
<path fill="none" stroke="#404040" d="M367.155,-926.233C357.374,-918.94 347.398,-910.67 339,-902 330.491,-893.216 322.24,-883.535 314.415,-873.538"/>
<polygon fill="none" stroke="#404040" points="314.325,-873.419 307.506,-871.072 307.05,-863.876 313.869,-866.223 314.325,-873.419"/>
<text text-anchor="middle" x="375.5" y="-893.5" font-family="Helvetica,sans-Serif" font-size="10.00"> &#45;containedItems</text>
</g>
<!-- Node10 -->
<g id="node10" class="node"><title>Node10</title>
<polygon fill="white" stroke="#bfbfbf" points="359.5,-1029 359.5,-1097 460.5,-1097 460.5,-1029 359.5,-1029"/>
<text text-anchor="start" x="367.5" y="-1085" font-family="Helvetica,sans-Serif" font-size="10.00">java::util::HashMap</text>
<text text-anchor="middle" x="410" y="-1074" font-family="Helvetica,sans-Serif" font-size="10.00">&lt; String, Item &gt;</text>
<polyline fill="none" stroke="#bfbfbf" points="359.5,-1067 460.5,-1067 "/>
<text text-anchor="middle" x="410" y="-1055" font-family="Helvetica,sans-Serif" font-size="10.00"> </text>
<polyline fill="none" stroke="#bfbfbf" points="359.5,-1048 460.5,-1048 "/>
<text text-anchor="middle" x="410" y="-1036" font-family="Helvetica,sans-Serif" font-size="10.00"> </text>
</g>
<!-- Node10&#45;&gt;Node9 -->
<g id="edge10" class="edge"><title>Node10&#45;&gt;Node9</title>
<path fill="none" stroke="midnightblue" d="M410,-1018.64C410,-1006.87 410,-994.444 410,-983.791"/>
<polygon fill="none" stroke="midnightblue" points="406.5,-1018.75 410,-1028.75 413.5,-1018.75 406.5,-1018.75"/>
</g>
<!-- Node11 -->
<g id="node11" class="node"><title>Node11</title>
<polygon fill="white" stroke="#bfbfbf" points="133,-921 133,-989 303,-989 303,-921 133,-921"/>
<text text-anchor="start" x="141" y="-977" font-family="Helvetica,sans-Serif" font-size="10.00">HashMap&lt; String, pkg</text>
<text text-anchor="middle" x="218" y="-966" font-family="Helvetica,sans-Serif" font-size="10.00">_world.pkg_characters.Character &gt;</text>
<polyline fill="none" stroke="#bfbfbf" points="133,-959 303,-959 "/>
<text text-anchor="middle" x="218" y="-947" font-family="Helvetica,sans-Serif" font-size="10.00"> </text>
<polyline fill="none" stroke="#bfbfbf" points="133,-940 303,-940 "/>
<text text-anchor="middle" x="218" y="-928" font-family="Helvetica,sans-Serif" font-size="10.00"> </text>
</g>
<!-- Node11&#45;&gt;Node7 -->
<g id="edge11" class="edge"><title>Node11&#45;&gt;Node7</title>
<path fill="none" stroke="#404040" d="M216.999,-920.997C217.103,-911.002 217.626,-900.019 219,-890 219.318,-887.679 219.667,-885.337 220.043,-882.983"/>
<polygon fill="none" stroke="#404040" points="220.05,-882.94 217.153,-876.337 222.133,-871.122 225.031,-877.726 220.05,-882.94"/>
<text text-anchor="middle" x="267.5" y="-893.5" font-family="Helvetica,sans-Serif" font-size="10.00"> &#45;containedCharacters</text>
</g>
<!-- Node12 -->
<g id="node12" class="node"><title>Node12</title>
<polygon fill="white" stroke="#bfbfbf" points="493,-742.5 493,-799.5 627,-799.5 627,-742.5 493,-742.5"/>
<text text-anchor="middle" x="560" y="-787.5" font-family="Helvetica,sans-Serif" font-size="10.00">Stack&lt; pkg_world.Room &gt;</text>
<polyline fill="none" stroke="#bfbfbf" points="493,-780.5 627,-780.5 "/>
<text text-anchor="middle" x="560" y="-768.5" font-family="Helvetica,sans-Serif" font-size="10.00"> </text>
<polyline fill="none" stroke="#bfbfbf" points="493,-761.5 627,-761.5 "/>
<text text-anchor="middle" x="560" y="-749.5" font-family="Helvetica,sans-Serif" font-size="10.00"> </text>
</g>
<!-- Node12&#45;&gt;Node6 -->
<g id="edge13" class="edge"><title>Node12&#45;&gt;Node6</title>
<path fill="none" stroke="#404040" d="M545.148,-742.069C529.725,-713.064 504.653,-665.915 481.478,-622.332"/>
<polygon fill="none" stroke="#404040" points="481.425,-622.232 475.076,-618.812 475.791,-611.637 482.14,-615.056 481.425,-622.232"/>
<text text-anchor="middle" x="534.5" y="-638.5" font-family="Helvetica,sans-Serif" font-size="10.00"> &#45;previousRooms</text>
</g>
<!-- Node13 -->
<g id="node13" class="node"><title>Node13</title>
<polygon fill="white" stroke="#bfbfbf" points="505.5,-488.5 505.5,-545.5 652.5,-545.5 652.5,-488.5 505.5,-488.5"/>
<text text-anchor="middle" x="579" y="-533.5" font-family="Helvetica,sans-Serif" font-size="10.00">ArrayList&lt; pkg_world.Room &gt;</text>
<polyline fill="none" stroke="#bfbfbf" points="505.5,-526.5 652.5,-526.5 "/>
<text text-anchor="middle" x="579" y="-514.5" font-family="Helvetica,sans-Serif" font-size="10.00"> </text>
<polyline fill="none" stroke="#bfbfbf" points="505.5,-507.5 652.5,-507.5 "/>
<text text-anchor="middle" x="579" y="-495.5" font-family="Helvetica,sans-Serif" font-size="10.00"> </text>
</g>
<!-- Node13&#45;&gt;Node1 -->
<g id="edge14" class="edge"><title>Node13&#45;&gt;Node1</title>
<path fill="none" stroke="#404040" d="M558.683,-488.246C539.058,-461.439 508.439,-419.613 481.558,-382.893"/>
<polygon fill="none" stroke="#404040" points="481.54,-382.869 474.769,-380.39 474.452,-373.186 481.224,-375.665 481.54,-382.869"/>
<text text-anchor="middle" x="524" y="-395.5" font-family="Helvetica,sans-Serif" font-size="10.00"> &#45;gameRooms</text>
</g>
</g>
</svg>
