<?xml version="1.0" encoding="UTF-8" standalone="no"?>
<!DOCTYPE svg PUBLIC "-//W3C//DTD SVG 1.1//EN"
 "http://www.w3.org/Graphics/SVG/1.1/DTD/svg11.dtd">
<!-- Generated by graphviz version 2.36.0 (20140111.2315)
 -->
<!-- Title: pkg_parsing.CommandWords Pages: 1 -->
<svg width="154pt" height="218pt"
 viewBox="0.00 0.00 154.00 218.00" xmlns="http://www.w3.org/2000/svg" xmlns:xlink="http://www.w3.org/1999/xlink">
<g id="graph0" class="graph" transform="scale(1 1) rotate(0) translate(4 214)">
<title>pkg_parsing.CommandWords</title>
<polygon fill="white" stroke="none" points="-4,4 -4,-214 150,-214 150,4 -4,4"/>
<!-- Node1 -->
<g id="node1" class="node"><title>Node1</title>
<polygon fill="#bfbfbf" stroke="black" points="0,-1 0,-91 146,-91 146,-1 0,-1"/>
<text text-anchor="middle" x="73" y="-79" font-family="Helvetica,sans-Serif" font-size="10.00">pkg_parsing.CommandWords</text>
<polyline fill="none" stroke="black" points="0,-72 146,-72 "/>
<text text-anchor="middle" x="73" y="-60" font-family="Helvetica,sans-Serif" font-size="10.00"> </text>
<polyline fill="none" stroke="black" points="0,-53 146,-53 "/>
<text text-anchor="start" x="8" y="-41" font-family="Helvetica,sans-Serif" font-size="10.00">+ CommandWords()</text>
<text text-anchor="start" x="8" y="-30" font-family="Helvetica,sans-Serif" font-size="10.00">+ isCommand()</text>
<text text-anchor="start" x="8" y="-19" font-family="Helvetica,sans-Serif" font-size="10.00">+ getCommandList()</text>
<text text-anchor="start" x="8" y="-8" font-family="Helvetica,sans-Serif" font-size="10.00">+ getCommand()</text>
</g>
<!-- Node2 -->
<g id="node2" class="node"><title>Node2</title>
<polygon fill="white" stroke="#bfbfbf" points="9.5,-141 9.5,-209 136.5,-209 136.5,-141 9.5,-141"/>
<text text-anchor="start" x="17.5" y="-197" font-family="Helvetica,sans-Serif" font-size="10.00">HashMap&lt; String, pkg</text>
<text text-anchor="middle" x="73" y="-186" font-family="Helvetica,sans-Serif" font-size="10.00">_commands.Command &gt;</text>
<polyline fill="none" stroke="#bfbfbf" points="9.5,-179 136.5,-179 "/>
<text text-anchor="middle" x="73" y="-167" font-family="Helvetica,sans-Serif" font-size="10.00"> </text>
<polyline fill="none" stroke="#bfbfbf" points="9.5,-160 136.5,-160 "/>
<text text-anchor="middle" x="73" y="-148" font-family="Helvetica,sans-Serif" font-size="10.00"> </text>
</g>
<!-- Node2&#45;&gt;Node1 -->
<g id="edge1" class="edge"><title>Node2&#45;&gt;Node1</title>
<path fill="none" stroke="#404040" d="M73,-140.964C73,-129.49 73,-116.278 73,-103.454"/>
<polygon fill="none" stroke="#404040" points="73.0001,-103.347 69,-97.3474 73,-91.3474 77,-97.3474 73.0001,-103.347"/>
<text text-anchor="middle" x="100.5" y="-113.5" font-family="Helvetica,sans-Serif" font-size="10.00"> &#45;commands</text>
</g>
</g>
</svg>
