<?xml version="1.0" encoding="UTF-8" standalone="no"?>
<!DOCTYPE svg PUBLIC "-//W3C//DTD SVG 1.1//EN"
 "http://www.w3.org/Graphics/SVG/1.1/DTD/svg11.dtd">
<!-- Generated by graphviz version 2.36.0 (20140111.2315)
 -->
<!-- Title: Command.getParameter Pages: 1 -->
<svg width="302pt" height="256pt"
 viewBox="0.00 0.00 302.00 256.00" xmlns="http://www.w3.org/2000/svg" xmlns:xlink="http://www.w3.org/1999/xlink">
<g id="graph0" class="graph" transform="scale(1 1) rotate(0) translate(4 252)">
<title>Command.getParameter</title>
<polygon fill="white" stroke="none" points="-4,4 -4,-252 298,-252 298,4 -4,4"/>
<!-- Node1 -->
<g id="node1" class="node"><title>Node1</title>
<polygon fill="#bfbfbf" stroke="black" points="0.5,-114.5 0.5,-133.5 123.5,-133.5 123.5,-114.5 0.5,-114.5"/>
<text text-anchor="middle" x="62" y="-121.5" font-family="Helvetica,sans-Serif" font-size="10.00">Command.getParameter</text>
</g>
<!-- Node2 -->
<g id="node2" class="node"><title>Node2</title>
<g id="a_node2"><a xlink:href="classLookCommand.html#a3b67eafb4956b1369904b273303ee7df" target="_top" xlink:title="Saves the information about the current Room or a given Item in the message field. ">
<polygon fill="white" stroke="black" points="167,-228.5 167,-247.5 287,-247.5 287,-228.5 167,-228.5"/>
<text text-anchor="middle" x="227" y="-235.5" font-family="Helvetica,sans-Serif" font-size="10.00">LookCommand.execute</text>
</a>
</g>
</g>
<!-- Node1&#45;&gt;Node2 -->
<g id="edge1" class="edge"><title>Node1&#45;&gt;Node2</title>
<path fill="none" stroke="midnightblue" d="M76.346,-141.608C93.4513,-162.975 125.096,-198.66 160,-219 166.593,-222.842 174.015,-225.951 181.439,-228.453"/>
<polygon fill="midnightblue" stroke="midnightblue" points="79.0525,-139.387 70.1332,-133.669 73.5399,-143.701 79.0525,-139.387"/>
</g>
<!-- Node3 -->
<g id="node3" class="node"><title>Node3</title>
<g id="a_node3"><a xlink:href="classDropCommand.html#a52432de0841ff8eb85d4f115965aecd1" target="_top" xlink:title="Drop the Item through it&#39;s name in the parameter field. ">
<polygon fill="white" stroke="black" points="167,-190.5 167,-209.5 287,-209.5 287,-190.5 167,-190.5"/>
<text text-anchor="middle" x="227" y="-197.5" font-family="Helvetica,sans-Serif" font-size="10.00">DropCommand.execute</text>
</a>
</g>
</g>
<!-- Node1&#45;&gt;Node3 -->
<g id="edge2" class="edge"><title>Node1&#45;&gt;Node3</title>
<path fill="none" stroke="midnightblue" d="M85.1926,-139.223C104.324,-151.803 133.043,-169.418 160,-181 168.436,-184.624 177.768,-187.787 186.694,-190.438"/>
<polygon fill="midnightblue" stroke="midnightblue" points="87.1302,-136.308 76.8694,-133.669 83.2446,-142.131 87.1302,-136.308"/>
</g>
<!-- Node4 -->
<g id="node4" class="node"><title>Node4</title>
<g id="a_node4"><a xlink:href="classGoCommand.html#a77a61c2a3b89dca45b51e06f3bcb3ba7" target="_top" xlink:title="Make the player go to the Room through it&#39;s direction in the parameter field. ">
<polygon fill="white" stroke="black" points="171,-152.5 171,-171.5 283,-171.5 283,-152.5 171,-152.5"/>
<text text-anchor="middle" x="227" y="-159.5" font-family="Helvetica,sans-Serif" font-size="10.00">GoCommand.execute</text>
</a>
</g>
</g>
<!-- Node1&#45;&gt;Node4 -->
<g id="edge3" class="edge"><title>Node1&#45;&gt;Node4</title>
<path fill="none" stroke="midnightblue" d="M114.028,-135.896C136.939,-141.237 163.604,-147.454 185.164,-152.48"/>
<polygon fill="midnightblue" stroke="midnightblue" points="114.665,-132.451 104.132,-133.589 113.076,-139.268 114.665,-132.451"/>
</g>
<!-- Node5 -->
<g id="node5" class="node"><title>Node5</title>
<g id="a_node5"><a xlink:href="classTakeCommand.html#af316002e14bb3253d24bcb03282213ee" target="_top" xlink:title="Make the player take an Item. ">
<polygon fill="white" stroke="black" points="166.5,-114.5 166.5,-133.5 287.5,-133.5 287.5,-114.5 166.5,-114.5"/>
<text text-anchor="middle" x="227" y="-121.5" font-family="Helvetica,sans-Serif" font-size="10.00">TakeCommand.execute</text>
</a>
</g>
</g>
<!-- Node1&#45;&gt;Node5 -->
<g id="edge4" class="edge"><title>Node1&#45;&gt;Node5</title>
<path fill="none" stroke="midnightblue" d="M133.951,-124C144.754,-124 155.809,-124 166.339,-124"/>
<polygon fill="midnightblue" stroke="midnightblue" points="133.695,-120.5 123.695,-124 133.695,-127.5 133.695,-120.5"/>
</g>
<!-- Node6 -->
<g id="node6" class="node"><title>Node6</title>
<g id="a_node6"><a xlink:href="classEatCommand.html#ab78ece6b005359a83696998a37f0ae71" target="_top" xlink:title="Make the player eat an object. ">
<polygon fill="white" stroke="black" points="170,-76.5 170,-95.5 284,-95.5 284,-76.5 170,-76.5"/>
<text text-anchor="middle" x="227" y="-83.5" font-family="Helvetica,sans-Serif" font-size="10.00">EatCommand.execute</text>
</a>
</g>
</g>
<!-- Node1&#45;&gt;Node6 -->
<g id="edge5" class="edge"><title>Node1&#45;&gt;Node6</title>
<path fill="none" stroke="midnightblue" d="M114.028,-112.104C136.939,-106.763 163.604,-100.546 185.164,-95.5201"/>
<polygon fill="midnightblue" stroke="midnightblue" points="113.076,-108.732 104.132,-114.411 114.665,-115.549 113.076,-108.732"/>
</g>
<!-- Node7 -->
<g id="node7" class="node"><title>Node7</title>
<g id="a_node7"><a xlink:href="classBeamerCommand.html#ab28a7d743569841e463b2c0c65cf6eb1" target="_top" xlink:title="Teleport to the remembered room or remember a room. ">
<polygon fill="white" stroke="black" points="160.5,-38.5 160.5,-57.5 293.5,-57.5 293.5,-38.5 160.5,-38.5"/>
<text text-anchor="middle" x="227" y="-45.5" font-family="Helvetica,sans-Serif" font-size="10.00">BeamerCommand.execute</text>
</a>
</g>
</g>
<!-- Node1&#45;&gt;Node7 -->
<g id="edge6" class="edge"><title>Node1&#45;&gt;Node7</title>
<path fill="none" stroke="midnightblue" d="M85.1926,-108.777C104.324,-96.1965 133.043,-78.5818 160,-67 168.436,-63.3758 177.768,-60.2128 186.694,-57.5616"/>
<polygon fill="midnightblue" stroke="midnightblue" points="83.2446,-105.869 76.8694,-114.331 87.1302,-111.692 83.2446,-105.869"/>
</g>
<!-- Node8 -->
<g id="node8" class="node"><title>Node8</title>
<g id="a_node8"><a xlink:href="classTestCommand.html#a2c5d98451d5cedb9297caae17378de63" target="_top" xlink:title="Test series of Commands stored in a .test file and store the messages in the message field...">
<polygon fill="white" stroke="black" points="167.5,-0.5 167.5,-19.5 286.5,-19.5 286.5,-0.5 167.5,-0.5"/>
<text text-anchor="middle" x="227" y="-7.5" font-family="Helvetica,sans-Serif" font-size="10.00">TestCommand.execute</text>
</a>
</g>
</g>
<!-- Node1&#45;&gt;Node8 -->
<g id="edge7" class="edge"><title>Node1&#45;&gt;Node8</title>
<path fill="none" stroke="midnightblue" d="M76.346,-106.392C93.4513,-85.0251 125.096,-49.3405 160,-29 166.593,-25.1577 174.015,-22.0491 181.439,-19.5474"/>
<polygon fill="midnightblue" stroke="midnightblue" points="73.5399,-104.299 70.1332,-114.331 79.0525,-108.613 73.5399,-104.299"/>
</g>
</g>
</svg>
