<?xml version="1.0" encoding="UTF-8" standalone="no"?>
<!DOCTYPE svg PUBLIC "-//W3C//DTD SVG 1.1//EN"
 "http://www.w3.org/Graphics/SVG/1.1/DTD/svg11.dtd">
<!-- Generated by graphviz version 2.36.0 (20140111.2315)
 -->
<!-- Title: pkg_game.GameEngine.processCommand Pages: 1 -->
<svg width="370pt" height="104pt"
 viewBox="0.00 0.00 370.00 104.00" xmlns="http://www.w3.org/2000/svg" xmlns:xlink="http://www.w3.org/1999/xlink">
<g id="graph0" class="graph" transform="scale(1 1) rotate(0) translate(4 100)">
<title>pkg_game.GameEngine.processCommand</title>
<polygon fill="white" stroke="none" points="-4,4 -4,-100 366,-100 366,4 -4,4"/>
<!-- Node1 -->
<g id="node1" class="node"><title>Node1</title>
<polygon fill="#bfbfbf" stroke="black" points="0,-33 0,-63 158,-63 158,-33 0,-33"/>
<text text-anchor="start" x="8" y="-51" font-family="Helvetica,sans-Serif" font-size="10.00">pkg_game.GameEngine.process</text>
<text text-anchor="middle" x="79" y="-40" font-family="Helvetica,sans-Serif" font-size="10.00">Command</text>
</g>
<!-- Node2 -->
<g id="node2" class="node"><title>Node2</title>
<g id="a_node2"><a xlink:href="classpkg__game_1_1GameEngine.html#a6d7340637e1eb46994a494c149442a22" target="_top" xlink:title="Print goodbye message and disable gui. ">
<polygon fill="white" stroke="black" points="195,-76.5 195,-95.5 361,-95.5 361,-76.5 195,-76.5"/>
<text text-anchor="middle" x="278" y="-83.5" font-family="Helvetica,sans-Serif" font-size="10.00">pkg_game.GameEngine.endGame</text>
</a>
</g>
</g>
<!-- Node1&#45;&gt;Node2 -->
<g id="edge1" class="edge"><title>Node1&#45;&gt;Node2</title>
<path fill="none" stroke="midnightblue" d="M157.86,-63.0186C177.825,-66.8697 198.974,-70.9493 217.825,-74.5855"/>
<polygon fill="midnightblue" stroke="midnightblue" points="217.263,-78.0416 227.745,-76.4991 218.589,-71.1683 217.263,-78.0416"/>
</g>
<!-- Node3 -->
<g id="node3" class="node"><title>Node3</title>
<g id="a_node3"><a xlink:href="classpkg__world_1_1Player.html#a5ff0ede152d97c0c9cf6603c9a422a77" target="_top" xlink:title="currentRoom field getter. ">
<polygon fill="white" stroke="black" points="194.5,-38.5 194.5,-57.5 361.5,-57.5 361.5,-38.5 194.5,-38.5"/>
<text text-anchor="middle" x="278" y="-45.5" font-family="Helvetica,sans-Serif" font-size="10.00">pkg_world.Player.getCurrentRoom</text>
</a>
</g>
</g>
<!-- Node1&#45;&gt;Node3 -->
<g id="edge2" class="edge"><title>Node1&#45;&gt;Node3</title>
<path fill="none" stroke="midnightblue" d="M158.143,-48C166.713,-48 175.498,-48 184.224,-48"/>
<polygon fill="midnightblue" stroke="midnightblue" points="184.423,-51.5001 194.423,-48 184.422,-44.5001 184.423,-51.5001"/>
</g>
<!-- Node4 -->
<g id="node4" class="node"><title>Node4</title>
<g id="a_node4"><a xlink:href="classpkg__game_1_1UserInterface.html#ac4d82f989416d7cc64a6e2fba2f4ed75" target="_top" xlink:title="Print the given text plus a newline in the text area. ">
<polygon fill="white" stroke="black" points="201.5,-0.5 201.5,-19.5 354.5,-19.5 354.5,-0.5 201.5,-0.5"/>
<text text-anchor="middle" x="278" y="-7.5" font-family="Helvetica,sans-Serif" font-size="10.00">pkg_game.UserInterface.println</text>
</a>
</g>
</g>
<!-- Node1&#45;&gt;Node4 -->
<g id="edge3" class="edge"><title>Node1&#45;&gt;Node4</title>
<path fill="none" stroke="midnightblue" d="M157.86,-32.9814C177.825,-29.1303 198.974,-25.0507 217.825,-21.4145"/>
<polygon fill="midnightblue" stroke="midnightblue" points="218.589,-24.8317 227.745,-19.5009 217.263,-17.9584 218.589,-24.8317"/>
</g>
</g>
</svg>
