<?xml version="1.0" encoding="UTF-8" standalone="no"?>
<!DOCTYPE svg PUBLIC "-//W3C//DTD SVG 1.1//EN"
 "http://www.w3.org/Graphics/SVG/1.1/DTD/svg11.dtd">
<!-- Generated by graphviz version 2.36.0 (20140111.2315)
 -->
<!-- Title: GoCommand.goRoomNoCheck Pages: 1 -->
<svg width="514pt" height="66pt"
 viewBox="0.00 0.00 514.00 66.00" xmlns="http://www.w3.org/2000/svg" xmlns:xlink="http://www.w3.org/1999/xlink">
<g id="graph0" class="graph" transform="scale(1 1) rotate(0) translate(4 62)">
<title>GoCommand.goRoomNoCheck</title>
<polygon fill="white" stroke="none" points="-4,4 -4,-62 510,-62 510,4 -4,4"/>
<!-- Node1 -->
<g id="node1" class="node"><title>Node1</title>
<polygon fill="#bfbfbf" stroke="black" points="0.5,-19.5 0.5,-38.5 155.5,-38.5 155.5,-19.5 0.5,-19.5"/>
<text text-anchor="middle" x="78" y="-26.5" font-family="Helvetica,sans-Serif" font-size="10.00">GoCommand.goRoomNoCheck</text>
</g>
<!-- Node2 -->
<g id="node2" class="node"><title>Node2</title>
<g id="a_node2"><a xlink:href="classGoCommand.html#a1fce2ad8ed1faf41fa300064585b3616" target="_top" xlink:title="Check if the wanted Room is connected to the current Room and go to this room. ">
<polygon fill="white" stroke="black" points="192.5,-38.5 192.5,-57.5 335.5,-57.5 335.5,-38.5 192.5,-38.5"/>
<text text-anchor="middle" x="264" y="-45.5" font-family="Helvetica,sans-Serif" font-size="10.00">GoCommand.goRoomCheck</text>
</a>
</g>
</g>
<!-- Node1&#45;&gt;Node2 -->
<g id="edge1" class="edge"><title>Node1&#45;&gt;Node2</title>
<path fill="none" stroke="midnightblue" d="M165.714,-37.9541C174.623,-38.8742 183.6,-39.801 192.306,-40.7001"/>
<polygon fill="midnightblue" stroke="midnightblue" points="166.007,-34.4659 155.7,-36.9201 165.288,-41.4289 166.007,-34.4659"/>
</g>
<!-- Node4 -->
<g id="node4" class="node"><title>Node4</title>
<g id="a_node4"><a xlink:href="classBeamerCommand.html#a1f19366fb8b873959f72f38d49d5b178" target="_top" xlink:title="Teleport the player to the remembered room. ">
<polygon fill="white" stroke="black" points="198.5,-0.5 198.5,-19.5 329.5,-19.5 329.5,-0.5 198.5,-0.5"/>
<text text-anchor="middle" x="264" y="-7.5" font-family="Helvetica,sans-Serif" font-size="10.00">BeamerCommand.teleport</text>
</a>
</g>
</g>
<!-- Node1&#45;&gt;Node4 -->
<g id="edge3" class="edge"><title>Node1&#45;&gt;Node4</title>
<path fill="none" stroke="midnightblue" d="M165.749,-20.0423C176.741,-18.9072 187.833,-17.7618 198.395,-16.6711"/>
<polygon fill="midnightblue" stroke="midnightblue" points="165.288,-16.5711 155.7,-21.0799 166.007,-23.5341 165.288,-16.5711"/>
</g>
<!-- Node3 -->
<g id="node3" class="node"><title>Node3</title>
<g id="a_node3"><a xlink:href="classGoCommand.html#a77a61c2a3b89dca45b51e06f3bcb3ba7" target="_top" xlink:title="Make the player go to the Room through it&#39;s direction in the parameter field. ">
<polygon fill="white" stroke="black" points="383,-38.5 383,-57.5 495,-57.5 495,-38.5 383,-38.5"/>
<text text-anchor="middle" x="439" y="-45.5" font-family="Helvetica,sans-Serif" font-size="10.00">GoCommand.execute</text>
</a>
</g>
</g>
<!-- Node2&#45;&gt;Node3 -->
<g id="edge2" class="edge"><title>Node2&#45;&gt;Node3</title>
<path fill="none" stroke="midnightblue" d="M346.232,-48C358.641,-48 371.195,-48 382.868,-48"/>
<polygon fill="midnightblue" stroke="midnightblue" points="345.865,-44.5001 335.865,-48 345.865,-51.5001 345.865,-44.5001"/>
</g>
<!-- Node5 -->
<g id="node5" class="node"><title>Node5</title>
<g id="a_node5"><a xlink:href="classBeamerCommand.html#ab28a7d743569841e463b2c0c65cf6eb1" target="_top" xlink:title="Teleport to the remembered room or remember a room. ">
<polygon fill="white" stroke="black" points="372.5,-0.5 372.5,-19.5 505.5,-19.5 505.5,-0.5 372.5,-0.5"/>
<text text-anchor="middle" x="439" y="-7.5" font-family="Helvetica,sans-Serif" font-size="10.00">BeamerCommand.execute</text>
</a>
</g>
</g>
<!-- Node4&#45;&gt;Node5 -->
<g id="edge4" class="edge"><title>Node4&#45;&gt;Node5</title>
<path fill="none" stroke="midnightblue" d="M340.13,-10C350.887,-10 361.883,-10 372.437,-10"/>
<polygon fill="midnightblue" stroke="midnightblue" points="339.911,-6.5001 329.911,-10 339.911,-13.5001 339.911,-6.5001"/>
</g>
</g>
</svg>
