<?xml version="1.0" encoding="UTF-8" standalone="no"?>
<!DOCTYPE svg PUBLIC "-//W3C//DTD SVG 1.1//EN"
 "http://www.w3.org/Graphics/SVG/1.1/DTD/svg11.dtd">
<!-- Generated by graphviz version 2.36.0 (20140111.2315)
 -->
<!-- Title: pkg_commands.Command Pages: 1 -->
<!--zoomable 454 -->
<svg id="main" version="1.1" xmlns="http://www.w3.org/2000/svg" xmlns:xlink="http://www.w3.org/1999/xlink" xml:space="preserve" onload="init(evt)">
<style type="text/css"><![CDATA[
.edge:hover path { stroke: red; }
.edge:hover polygon { stroke: red; fill: red; }
]]></style>
<script type="text/javascript"><![CDATA[
var edges = document.getElementsByTagName('g');
if (edges && edges.length) {
  for (var i=0;i<edges.length;i++) {
    if (edges[i].id.substr(0,4)=='edge') {
      edges[i].setAttribute('class','edge');
    }
  }
}
]]></script>
        <defs>
                <circle id="rim" cx="0" cy="0" r="7"/>
                <circle id="rim2" cx="0" cy="0" r="3.5"/>
                <g id="zoomPlus">
                        <use xlink:href="#rim" fill="#404040">
                                <set attributeName="fill" to="#808080" begin="zoomplus.mouseover" end="zoomplus.mouseout"/>
                        </use>
                        <path d="M-4,0h8M0,-4v8" fill="none" stroke="white" stroke-width="1.5" pointer-events="none"/>
                </g>
                <g id="zoomMin">
                        <use xlink:href="#rim" fill="#404040">
                                <set attributeName="fill" to="#808080" begin="zoomminus.mouseover" end="zoomminus.mouseout"/>
                        </use>
                        <path d="M-4,0h8" fill="none" stroke="white" stroke-width="1.5" pointer-events="none"/>
                </g>
                <g id="dirArrow">
                        <path fill="none" stroke="white" stroke-width="1.5" d="M0,-3.0v7 M-2.5,-0.5L0,-3.0L2.5,-0.5"/>
                </g>
               <g id="resetDef">
                       <use xlink:href="#rim2" fill="#404040">
                               <set attributeName="fill" to="#808080" begin="reset.mouseover" end="reset.mouseout"/>
                       </use>
               </g>
        </defs>

<script type="text/javascript">
var viewWidth = 2251;
var viewHeight = 454;
var sectionId = 'dynsection-0';
</script>
<script xlink:href="svgpan.js"/>
<svg id="graph" class="graph">
<g id="viewport">
<title>pkg_commands.Command</title>
<polygon fill="white" stroke="none" points="-4,4 -4,-450 2247,-450 2247,4 -4,4"/>
<!-- Node1 -->
<g id="node1" class="node"><title>Node1</title>
<polygon fill="#bfbfbf" stroke="black" points="1051,-267 1051,-445 1185,-445 1185,-267 1051,-267"/>
<text text-anchor="middle" x="1118" y="-433" font-family="Helvetica,sans-Serif" font-size="10.00">pkg_commands.Command</text>
<polyline fill="none" stroke="black" points="1051,-426 1185,-426 "/>
<text text-anchor="start" x="1059" y="-414" font-family="Helvetica,sans-Serif" font-size="10.00">&#45; parameter</text>
<text text-anchor="start" x="1059" y="-403" font-family="Helvetica,sans-Serif" font-size="10.00">&#45; secondParameter</text>
<text text-anchor="start" x="1059" y="-392" font-family="Helvetica,sans-Serif" font-size="10.00">&#45; message</text>
<polyline fill="none" stroke="black" points="1051,-385 1185,-385 "/>
<text text-anchor="start" x="1059" y="-373" font-family="Helvetica,sans-Serif" font-size="10.00">+ getParameter()</text>
<text text-anchor="start" x="1059" y="-362" font-family="Helvetica,sans-Serif" font-size="10.00">+ getSecondParameter()</text>
<text text-anchor="start" x="1059" y="-351" font-family="Helvetica,sans-Serif" font-size="10.00">+ setParameter()</text>
<text text-anchor="start" x="1059" y="-340" font-family="Helvetica,sans-Serif" font-size="10.00">+ setSecondParameter()</text>
<text text-anchor="start" x="1059" y="-329" font-family="Helvetica,sans-Serif" font-size="10.00">+ hasParameter()</text>
<text text-anchor="start" x="1059" y="-318" font-family="Helvetica,sans-Serif" font-size="10.00">+ hasSecondParameter()</text>
<text text-anchor="start" x="1059" y="-307" font-family="Helvetica,sans-Serif" font-size="10.00">+ getMessage()</text>
<text text-anchor="start" x="1059" y="-296" font-family="Helvetica,sans-Serif" font-size="10.00">+ hasMessage()</text>
<text text-anchor="start" x="1059" y="-285" font-family="Helvetica,sans-Serif" font-size="10.00">+ execute()</text>
<text text-anchor="start" x="1059" y="-274" font-family="Helvetica,sans-Serif" font-size="10.00"># setMessage()</text>
</g>
<!-- Node2 -->
<g id="node2" class="node"><title>Node2</title>
<g id="a_node2"><a xlink:href="classpkg__commands_1_1CreditsCommand.html" target="_top" xlink:title="class CreditsCommand used to print the credits of the game ">
<polygon fill="white" stroke="black" points="-0.5,-145 -0.5,-213 164.5,-213 164.5,-145 -0.5,-145"/>
<text text-anchor="middle" x="82" y="-201" font-family="Helvetica,sans-Serif" font-size="10.00">pkg_commands.CreditsCommand</text>
<polyline fill="none" stroke="black" points="-0.5,-194 164.5,-194 "/>
<text text-anchor="middle" x="82" y="-182" font-family="Helvetica,sans-Serif" font-size="10.00"> </text>
<polyline fill="none" stroke="black" points="-0.5,-175 164.5,-175 "/>
<text text-anchor="start" x="7.5" y="-163" font-family="Helvetica,sans-Serif" font-size="10.00">+ CreditsCommand()</text>
<text text-anchor="start" x="7.5" y="-152" font-family="Helvetica,sans-Serif" font-size="10.00">+ execute()</text>
</a>
</g>
</g>
<!-- Node1&#45;&gt;Node2 -->
<g id="edge1" class="edge"><title>Node1&#45;&gt;Node2</title>
<path fill="none" stroke="midnightblue" d="M1040.46,-354.217C876.44,-350.528 483.95,-330.906 174,-230 160.863,-225.723 147.418,-219.579 135.005,-213.053"/>
<polygon fill="none" stroke="midnightblue" points="1040.86,-357.726 1050.93,-354.437 1041.01,-350.727 1040.86,-357.726"/>
</g>
<!-- Node3 -->
<g id="node3" class="node"><title>Node3</title>
<g id="a_node3"><a xlink:href="classpkg__commands_1_1DropCommand.html" target="_top" xlink:title="class DropCommand used to make the player drop an Item ">
<polygon fill="white" stroke="black" points="182.5,-145 182.5,-213 337.5,-213 337.5,-145 182.5,-145"/>
<text text-anchor="middle" x="260" y="-201" font-family="Helvetica,sans-Serif" font-size="10.00">pkg_commands.DropCommand</text>
<polyline fill="none" stroke="black" points="182.5,-194 337.5,-194 "/>
<text text-anchor="middle" x="260" y="-182" font-family="Helvetica,sans-Serif" font-size="10.00"> </text>
<polyline fill="none" stroke="black" points="182.5,-175 337.5,-175 "/>
<text text-anchor="start" x="190.5" y="-163" font-family="Helvetica,sans-Serif" font-size="10.00">+ DropCommand()</text>
<text text-anchor="start" x="190.5" y="-152" font-family="Helvetica,sans-Serif" font-size="10.00">+ execute()</text>
</a>
</g>
</g>
<!-- Node1&#45;&gt;Node3 -->
<g id="edge2" class="edge"><title>Node1&#45;&gt;Node3</title>
<path fill="none" stroke="midnightblue" d="M1040.45,-351.627C898.847,-343.477 590.567,-316.48 347,-230 334.687,-225.628 322.122,-219.527 310.509,-213.084"/>
<polygon fill="none" stroke="midnightblue" points="1040.59,-355.139 1050.77,-352.204 1040.98,-348.15 1040.59,-355.139"/>
</g>
<!-- Node4 -->
<g id="node4" class="node"><title>Node4</title>
<g id="a_node4"><a xlink:href="classpkg__commands_1_1EatCommand.html" target="_top" xlink:title="class EatCommand used to make the player eat an object. ">
<polygon fill="white" stroke="black" points="355.5,-145 355.5,-213 504.5,-213 504.5,-145 355.5,-145"/>
<text text-anchor="middle" x="430" y="-201" font-family="Helvetica,sans-Serif" font-size="10.00">pkg_commands.EatCommand</text>
<polyline fill="none" stroke="black" points="355.5,-194 504.5,-194 "/>
<text text-anchor="middle" x="430" y="-182" font-family="Helvetica,sans-Serif" font-size="10.00"> </text>
<polyline fill="none" stroke="black" points="355.5,-175 504.5,-175 "/>
<text text-anchor="start" x="363.5" y="-163" font-family="Helvetica,sans-Serif" font-size="10.00">+ EatCommand()</text>
<text text-anchor="start" x="363.5" y="-152" font-family="Helvetica,sans-Serif" font-size="10.00">+ execute()</text>
</a>
</g>
</g>
<!-- Node1&#45;&gt;Node4 -->
<g id="edge3" class="edge"><title>Node1&#45;&gt;Node4</title>
<path fill="none" stroke="midnightblue" d="M1040.74,-347.327C923.564,-333.866 695.372,-300.45 514,-230 502.452,-225.514 490.659,-219.521 479.7,-213.245"/>
<polygon fill="none" stroke="midnightblue" points="1040.37,-350.808 1050.7,-348.454 1041.15,-343.852 1040.37,-350.808"/>
</g>
<!-- Node5 -->
<g id="node5" class="node"><title>Node5</title>
<g id="a_node5"><a xlink:href="classpkg__commands_1_1GiveCommand.html" target="_top" xlink:title="class GiveCommand used to make the Player give an Item ">
<polygon fill="white" stroke="black" points="523,-145 523,-213 677,-213 677,-145 523,-145"/>
<text text-anchor="middle" x="600" y="-201" font-family="Helvetica,sans-Serif" font-size="10.00">pkg_commands.GiveCommand</text>
<polyline fill="none" stroke="black" points="523,-194 677,-194 "/>
<text text-anchor="middle" x="600" y="-182" font-family="Helvetica,sans-Serif" font-size="10.00"> </text>
<polyline fill="none" stroke="black" points="523,-175 677,-175 "/>
<text text-anchor="start" x="531" y="-163" font-family="Helvetica,sans-Serif" font-size="10.00">+ GiveCommand()</text>
<text text-anchor="start" x="531" y="-152" font-family="Helvetica,sans-Serif" font-size="10.00">+ execute()</text>
</a>
</g>
</g>
<!-- Node1&#45;&gt;Node5 -->
<g id="edge4" class="edge"><title>Node1&#45;&gt;Node5</title>
<path fill="none" stroke="midnightblue" d="M1040.85,-338.707C952.879,-318.764 805.755,-281.218 686,-230 674.726,-225.178 663.09,-219.185 652.161,-213.041"/>
<polygon fill="none" stroke="midnightblue" points="1040.23,-342.155 1050.75,-340.935 1041.76,-335.326 1040.23,-342.155"/>
</g>
<!-- Node6 -->
<g id="node6" class="node"><title>Node6</title>
<g id="a_node6"><a xlink:href="classpkg__commands_1_1GoCommand.html" target="_top" xlink:title="class GoCommand used to make the player go to a given Room. ">
<polygon fill="white" stroke="black" points="695,-128.5 695,-229.5 841,-229.5 841,-128.5 695,-128.5"/>
<text text-anchor="middle" x="768" y="-217.5" font-family="Helvetica,sans-Serif" font-size="10.00">pkg_commands.GoCommand</text>
<polyline fill="none" stroke="black" points="695,-210.5 841,-210.5 "/>
<text text-anchor="middle" x="768" y="-198.5" font-family="Helvetica,sans-Serif" font-size="10.00"> </text>
<polyline fill="none" stroke="black" points="695,-191.5 841,-191.5 "/>
<text text-anchor="start" x="703" y="-179.5" font-family="Helvetica,sans-Serif" font-size="10.00">+ GoCommand()</text>
<text text-anchor="start" x="703" y="-168.5" font-family="Helvetica,sans-Serif" font-size="10.00">+ execute()</text>
<text text-anchor="start" x="703" y="-157.5" font-family="Helvetica,sans-Serif" font-size="10.00"># goRoomCheck()</text>
<text text-anchor="start" x="703" y="-146.5" font-family="Helvetica,sans-Serif" font-size="10.00"># goRoomNoCheck()</text>
<text text-anchor="start" x="703" y="-135.5" font-family="Helvetica,sans-Serif" font-size="10.00"># getRandomRoom()</text>
</a>
</g>
</g>
<!-- Node1&#45;&gt;Node6 -->
<g id="edge5" class="edge"><title>Node1&#45;&gt;Node6</title>
<path fill="none" stroke="midnightblue" d="M1041.7,-322.129C987.464,-298.108 913.308,-263.93 850,-230 847.061,-228.425 844.08,-226.79 841.083,-225.116"/>
<polygon fill="none" stroke="midnightblue" points="1040.35,-325.357 1050.91,-326.194 1043.17,-318.953 1040.35,-325.357"/>
</g>
<!-- Node9 -->
<g id="node9" class="node"><title>Node9</title>
<g id="a_node9"><a xlink:href="classpkg__commands_1_1HelpCommand.html" target="_top" xlink:title="class HelpCommand used to print the help ">
<polygon fill="white" stroke="black" points="859,-145 859,-213 1013,-213 1013,-145 859,-145"/>
<text text-anchor="middle" x="936" y="-201" font-family="Helvetica,sans-Serif" font-size="10.00">pkg_commands.HelpCommand</text>
<polyline fill="none" stroke="black" points="859,-194 1013,-194 "/>
<text text-anchor="start" x="867" y="-182" font-family="Helvetica,sans-Serif" font-size="10.00">&#45; helpCount</text>
<polyline fill="none" stroke="black" points="859,-175 1013,-175 "/>
<text text-anchor="start" x="867" y="-163" font-family="Helvetica,sans-Serif" font-size="10.00">+ HelpCommand()</text>
<text text-anchor="start" x="867" y="-152" font-family="Helvetica,sans-Serif" font-size="10.00">+ execute()</text>
</a>
</g>
</g>
<!-- Node1&#45;&gt;Node9 -->
<g id="edge8" class="edge"><title>Node1&#45;&gt;Node9</title>
<path fill="none" stroke="midnightblue" d="M1043.31,-283.184C1018,-258.85 990.957,-232.844 970.348,-213.027"/>
<polygon fill="none" stroke="midnightblue" points="1041.11,-285.925 1050.75,-290.334 1045.96,-280.88 1041.11,-285.925"/>
</g>
<!-- Node10 -->
<g id="node10" class="node"><title>Node10</title>
<g id="a_node10"><a xlink:href="classpkg__commands_1_1InventoryCommand.html" target="_top" xlink:title="class InventoryCommand used to print the player&#39;s inventory ">
<polygon fill="white" stroke="black" points="1031,-145 1031,-213 1205,-213 1205,-145 1031,-145"/>
<text text-anchor="middle" x="1118" y="-201" font-family="Helvetica,sans-Serif" font-size="10.00">pkg_commands.InventoryCommand</text>
<polyline fill="none" stroke="black" points="1031,-194 1205,-194 "/>
<text text-anchor="middle" x="1118" y="-182" font-family="Helvetica,sans-Serif" font-size="10.00"> </text>
<polyline fill="none" stroke="black" points="1031,-175 1205,-175 "/>
<text text-anchor="start" x="1039" y="-163" font-family="Helvetica,sans-Serif" font-size="10.00">+ InventoryCommand()</text>
<text text-anchor="start" x="1039" y="-152" font-family="Helvetica,sans-Serif" font-size="10.00">+ execute()</text>
</a>
</g>
</g>
<!-- Node1&#45;&gt;Node10 -->
<g id="edge9" class="edge"><title>Node1&#45;&gt;Node10</title>
<path fill="none" stroke="midnightblue" d="M1118,-256.643C1118,-240.972 1118,-225.772 1118,-213.098"/>
<polygon fill="none" stroke="midnightblue" points="1114.5,-256.987 1118,-266.987 1121.5,-256.987 1114.5,-256.987"/>
</g>
<!-- Node11 -->
<g id="node11" class="node"><title>Node11</title>
<g id="a_node11"><a xlink:href="classpkg__commands_1_1LookCommand.html" target="_top" xlink:title="class LookCommand used to show information about the current Room or a given Item ...">
<polygon fill="white" stroke="black" points="1223.5,-139.5 1223.5,-218.5 1378.5,-218.5 1378.5,-139.5 1223.5,-139.5"/>
<text text-anchor="middle" x="1301" y="-206.5" font-family="Helvetica,sans-Serif" font-size="10.00">pkg_commands.LookCommand</text>
<polyline fill="none" stroke="black" points="1223.5,-199.5 1378.5,-199.5 "/>
<text text-anchor="middle" x="1301" y="-187.5" font-family="Helvetica,sans-Serif" font-size="10.00"> </text>
<polyline fill="none" stroke="black" points="1223.5,-180.5 1378.5,-180.5 "/>
<text text-anchor="start" x="1231.5" y="-168.5" font-family="Helvetica,sans-Serif" font-size="10.00">+ LookCommand()</text>
<text text-anchor="start" x="1231.5" y="-157.5" font-family="Helvetica,sans-Serif" font-size="10.00">+ execute()</text>
<text text-anchor="start" x="1231.5" y="-146.5" font-family="Helvetica,sans-Serif" font-size="10.00">&#45; showItem()</text>
</a>
</g>
</g>
<!-- Node1&#45;&gt;Node11 -->
<g id="edge10" class="edge"><title>Node1&#45;&gt;Node11</title>
<path fill="none" stroke="midnightblue" d="M1192.58,-283.677C1215.81,-261.465 1240.54,-237.812 1260.51,-218.716"/>
<polygon fill="none" stroke="midnightblue" points="1189.91,-281.389 1185.1,-290.83 1194.75,-286.448 1189.91,-281.389"/>
</g>
<!-- Node12 -->
<g id="node12" class="node"><title>Node12</title>
<g id="a_node12"><a xlink:href="classpkg__commands_1_1QuitCommand.html" target="_top" xlink:title="class QuitCommand used to quit the game ">
<polygon fill="white" stroke="black" points="1397,-145 1397,-213 1549,-213 1549,-145 1397,-145"/>
<text text-anchor="middle" x="1473" y="-201" font-family="Helvetica,sans-Serif" font-size="10.00">pkg_commands.QuitCommand</text>
<polyline fill="none" stroke="black" points="1397,-194 1549,-194 "/>
<text text-anchor="middle" x="1473" y="-182" font-family="Helvetica,sans-Serif" font-size="10.00"> </text>
<polyline fill="none" stroke="black" points="1397,-175 1549,-175 "/>
<text text-anchor="start" x="1405" y="-163" font-family="Helvetica,sans-Serif" font-size="10.00">+ QuitCommand()</text>
<text text-anchor="start" x="1405" y="-152" font-family="Helvetica,sans-Serif" font-size="10.00">+ execute()</text>
</a>
</g>
</g>
<!-- Node1&#45;&gt;Node12 -->
<g id="edge11" class="edge"><title>Node1&#45;&gt;Node12</title>
<path fill="none" stroke="midnightblue" d="M1194.38,-321.754C1248.72,-297.557 1323.12,-263.322 1387,-230 1397.11,-224.728 1407.72,-218.851 1417.9,-213.032"/>
<polygon fill="none" stroke="midnightblue" points="1192.87,-318.593 1185.15,-325.85 1195.71,-324.99 1192.87,-318.593"/>
</g>
<!-- Node13 -->
<g id="node13" class="node"><title>Node13</title>
<g id="a_node13"><a xlink:href="classpkg__commands_1_1TakeCommand.html" target="_top" xlink:title="class TakeCommand used to make the Player take an Item ">
<polygon fill="white" stroke="black" points="1567.5,-145 1567.5,-213 1722.5,-213 1722.5,-145 1567.5,-145"/>
<text text-anchor="middle" x="1645" y="-201" font-family="Helvetica,sans-Serif" font-size="10.00">pkg_commands.TakeCommand</text>
<polyline fill="none" stroke="black" points="1567.5,-194 1722.5,-194 "/>
<text text-anchor="middle" x="1645" y="-182" font-family="Helvetica,sans-Serif" font-size="10.00"> </text>
<polyline fill="none" stroke="black" points="1567.5,-175 1722.5,-175 "/>
<text text-anchor="start" x="1575.5" y="-163" font-family="Helvetica,sans-Serif" font-size="10.00">+ TakeCommand()</text>
<text text-anchor="start" x="1575.5" y="-152" font-family="Helvetica,sans-Serif" font-size="10.00">+ execute()</text>
</a>
</g>
</g>
<!-- Node1&#45;&gt;Node13 -->
<g id="edge12" class="edge"><title>Node1&#45;&gt;Node13</title>
<path fill="none" stroke="midnightblue" d="M1195.12,-339.124C1284.52,-319.355 1435.29,-281.767 1558,-230 1569.4,-225.192 1581.16,-219.205 1592.22,-213.063"/>
<polygon fill="none" stroke="midnightblue" points="1194.34,-335.71 1185.33,-341.272 1195.84,-342.548 1194.34,-335.71"/>
</g>
<!-- Node14 -->
<g id="node14" class="node"><title>Node14</title>
<g id="a_node14"><a xlink:href="classpkg__commands_1_1TalkCommand.html" target="_top" xlink:title="class TalkCommand used to talk to a Character ">
<polygon fill="white" stroke="black" points="1741,-145 1741,-213 1893,-213 1893,-145 1741,-145"/>
<text text-anchor="middle" x="1817" y="-201" font-family="Helvetica,sans-Serif" font-size="10.00">pkg_commands.TalkCommand</text>
<polyline fill="none" stroke="black" points="1741,-194 1893,-194 "/>
<text text-anchor="middle" x="1817" y="-182" font-family="Helvetica,sans-Serif" font-size="10.00"> </text>
<polyline fill="none" stroke="black" points="1741,-175 1893,-175 "/>
<text text-anchor="start" x="1749" y="-163" font-family="Helvetica,sans-Serif" font-size="10.00">+ TalkCommand()</text>
<text text-anchor="start" x="1749" y="-152" font-family="Helvetica,sans-Serif" font-size="10.00">+ execute()</text>
</a>
</g>
</g>
<!-- Node1&#45;&gt;Node14 -->
<g id="edge13" class="edge"><title>Node1&#45;&gt;Node14</title>
<path fill="none" stroke="midnightblue" d="M1195.37,-347.383C1313.89,-333.923 1546.07,-300.429 1731,-230 1742.78,-225.513 1754.84,-219.519 1766.05,-213.243"/>
<polygon fill="none" stroke="midnightblue" points="1194.85,-343.919 1185.3,-348.509 1195.63,-350.876 1194.85,-343.919"/>
</g>
<!-- Node15 -->
<g id="node15" class="node"><title>Node15</title>
<g id="a_node15"><a xlink:href="classpkg__commands_1_1TestCommand.html" target="_top" xlink:title="class TestCommand used to test series of commands ">
<polygon fill="white" stroke="black" points="1911.5,-145 1911.5,-213 2064.5,-213 2064.5,-145 1911.5,-145"/>
<text text-anchor="middle" x="1988" y="-201" font-family="Helvetica,sans-Serif" font-size="10.00">pkg_commands.TestCommand</text>
<polyline fill="none" stroke="black" points="1911.5,-194 2064.5,-194 "/>
<text text-anchor="middle" x="1988" y="-182" font-family="Helvetica,sans-Serif" font-size="10.00"> </text>
<polyline fill="none" stroke="black" points="1911.5,-175 2064.5,-175 "/>
<text text-anchor="start" x="1919.5" y="-163" font-family="Helvetica,sans-Serif" font-size="10.00">+ TestCommand()</text>
<text text-anchor="start" x="1919.5" y="-152" font-family="Helvetica,sans-Serif" font-size="10.00">+ execute()</text>
</a>
</g>
</g>
<!-- Node1&#45;&gt;Node15 -->
<g id="edge14" class="edge"><title>Node1&#45;&gt;Node15</title>
<path fill="none" stroke="midnightblue" d="M1195.09,-352.058C1338.32,-344.573 1653.5,-318.568 1902,-230 1914.2,-225.651 1926.63,-219.559 1938.12,-213.119"/>
<polygon fill="none" stroke="midnightblue" points="1194.89,-348.563 1185.08,-352.565 1195.24,-355.554 1194.89,-348.563"/>
</g>
<!-- Node16 -->
<g id="node16" class="node"><title>Node16</title>
<g id="a_node16"><a xlink:href="classpkg__commands_1_1ThrowCommand.html" target="_top" xlink:title="class ThrowCommand used to make the player throw an Item ">
<polygon fill="white" stroke="black" points="2082.5,-145 2082.5,-213 2243.5,-213 2243.5,-145 2082.5,-145"/>
<text text-anchor="middle" x="2163" y="-201" font-family="Helvetica,sans-Serif" font-size="10.00">pkg_commands.ThrowCommand</text>
<polyline fill="none" stroke="black" points="2082.5,-194 2243.5,-194 "/>
<text text-anchor="middle" x="2163" y="-182" font-family="Helvetica,sans-Serif" font-size="10.00"> </text>
<polyline fill="none" stroke="black" points="2082.5,-175 2243.5,-175 "/>
<text text-anchor="start" x="2090.5" y="-163" font-family="Helvetica,sans-Serif" font-size="10.00">+ ThrowCommand()</text>
<text text-anchor="start" x="2090.5" y="-152" font-family="Helvetica,sans-Serif" font-size="10.00">+ execute()</text>
</a>
</g>
</g>
<!-- Node1&#45;&gt;Node16 -->
<g id="edge15" class="edge"><title>Node1&#45;&gt;Node16</title>
<path fill="none" stroke="midnightblue" d="M1195.09,-354.618C1360.31,-351.723 1759,-333.576 2073,-230 2085.9,-225.745 2099.07,-219.609 2111.22,-213.085"/>
<polygon fill="none" stroke="midnightblue" points="1194.97,-351.12 1185.03,-354.781 1195.08,-358.119 1194.97,-351.12"/>
</g>
<!-- Node7 -->
<g id="node7" class="node"><title>Node7</title>
<g id="a_node7"><a xlink:href="classpkg__commands_1_1BackCommand.html" target="_top" xlink:title="class BackCommand used to go back in a previous Room. ">
<polygon fill="white" stroke="black" points="600,-12 600,-80 756,-80 756,-12 600,-12"/>
<text text-anchor="middle" x="678" y="-68" font-family="Helvetica,sans-Serif" font-size="10.00">pkg_commands.BackCommand</text>
<polyline fill="none" stroke="black" points="600,-61 756,-61 "/>
<text text-anchor="middle" x="678" y="-49" font-family="Helvetica,sans-Serif" font-size="10.00"> </text>
<polyline fill="none" stroke="black" points="600,-42 756,-42 "/>
<text text-anchor="start" x="608" y="-30" font-family="Helvetica,sans-Serif" font-size="10.00">+ BackCommand()</text>
<text text-anchor="start" x="608" y="-19" font-family="Helvetica,sans-Serif" font-size="10.00">+ execute()</text>
</a>
</g>
</g>
<!-- Node6&#45;&gt;Node7 -->
<g id="edge6" class="edge"><title>Node6&#45;&gt;Node7</title>
<path fill="none" stroke="midnightblue" d="M728.208,-120.081C718.86,-106.474 709.208,-92.4244 700.894,-80.3242"/>
<polygon fill="none" stroke="midnightblue" points="725.427,-122.214 733.975,-128.475 731.197,-118.25 725.427,-122.214"/>
</g>
<!-- Node8 -->
<g id="node8" class="node"><title>Node8</title>
<g id="a_node8"><a xlink:href="classpkg__commands_1_1BeamerCommand.html" target="_top" xlink:title="class BeamerCommand used to teleport into a remembered room ">
<polygon fill="white" stroke="black" points="774.5,-1 774.5,-91 941.5,-91 941.5,-1 774.5,-1"/>
<text text-anchor="middle" x="858" y="-79" font-family="Helvetica,sans-Serif" font-size="10.00">pkg_commands.BeamerCommand</text>
<polyline fill="none" stroke="black" points="774.5,-72 941.5,-72 "/>
<text text-anchor="middle" x="858" y="-60" font-family="Helvetica,sans-Serif" font-size="10.00"> </text>
<polyline fill="none" stroke="black" points="774.5,-53 941.5,-53 "/>
<text text-anchor="start" x="782.5" y="-41" font-family="Helvetica,sans-Serif" font-size="10.00">+ BeamerCommand()</text>
<text text-anchor="start" x="782.5" y="-30" font-family="Helvetica,sans-Serif" font-size="10.00">+ execute()</text>
<text text-anchor="start" x="782.5" y="-19" font-family="Helvetica,sans-Serif" font-size="10.00">+ charge()</text>
<text text-anchor="start" x="782.5" y="-8" font-family="Helvetica,sans-Serif" font-size="10.00">&#45; teleport()</text>
</a>
</g>
</g>
<!-- Node6&#45;&gt;Node8 -->
<g id="edge7" class="edge"><title>Node6&#45;&gt;Node8</title>
<path fill="none" stroke="midnightblue" d="M807.847,-120.001C814.533,-110.268 821.374,-100.311 827.767,-91.0055"/>
<polygon fill="none" stroke="midnightblue" points="804.803,-118.25 802.025,-128.475 810.573,-122.214 804.803,-118.25"/>
</g>
</g>
</svg>
        <g id="navigator" transform="translate(0 0)" fill="#404254">
                <rect fill="#f2f5e9" fill-opacity="0.5" stroke="#606060" stroke-width=".5" x="0" y="0" width="60" height="60"/>
                <use id="zoomplus" xlink:href="#zoomPlus" x="17" y="9" onmousedown="handleZoom(evt,'in')"/>
                <use id="zoomminus" xlink:href="#zoomMin" x="42" y="9" onmousedown="handleZoom(evt,'out')"/>
                <use id="reset" xlink:href="#resetDef" x="30" y="36" onmousedown="handleReset()"/>
                <g id="arrowUp" xlink:href="#dirArrow" transform="translate(30 24)" onmousedown="handlePan(0,-1)">
                  <use xlink:href="#rim" fill="#404040">
                        <set attributeName="fill" to="#808080" begin="arrowUp.mouseover" end="arrowUp.mouseout"/>
                  </use>
                  <path fill="none" stroke="white" stroke-width="1.5" d="M0,-3.0v7 M-2.5,-0.5L0,-3.0L2.5,-0.5"/>
                </g>
                <g id="arrowRight" xlink:href="#dirArrow" transform="rotate(90) translate(36 -43)" onmousedown="handlePan(1,0)">
                  <use xlink:href="#rim" fill="#404040">
                        <set attributeName="fill" to="#808080" begin="arrowRight.mouseover" end="arrowRight.mouseout"/>
                  </use>
                  <path fill="none" stroke="white" stroke-width="1.5" d="M0,-3.0v7 M-2.5,-0.5L0,-3.0L2.5,-0.5"/>
                </g>
                <g id="arrowDown" xlink:href="#dirArrow" transform="rotate(180) translate(-30 -48)" onmousedown="handlePan(0,1)">
                  <use xlink:href="#rim" fill="#404040">
                        <set attributeName="fill" to="#808080" begin="arrowDown.mouseover" end="arrowDown.mouseout"/>
                  </use>
                  <path fill="none" stroke="white" stroke-width="1.5" d="M0,-3.0v7 M-2.5,-0.5L0,-3.0L2.5,-0.5"/>
                </g>
                <g id="arrowLeft" xlink:href="#dirArrow" transform="rotate(270) translate(-36 17)" onmousedown="handlePan(-1,0)">
                  <use xlink:href="#rim" fill="#404040">
                        <set attributeName="fill" to="#808080" begin="arrowLeft.mouseover" end="arrowLeft.mouseout"/>
                  </use>
                  <path fill="none" stroke="white" stroke-width="1.5" d="M0,-3.0v7 M-2.5,-0.5L0,-3.0L2.5,-0.5"/>
                </g>
        </g>
        <svg viewBox="0 0 15 15" width="100%" height="30px" preserveAspectRatio="xMaxYMin meet">
         <g id="arrow_out" transform="scale(0.3 0.3)">
          <a xlink:href="classpkg__commands_1_1Command__inherit__graph_org.svg" target="_base">
           <rect id="button" ry="5" rx="5" y="6" x="6" height="38" width="38"
                fill="#f2f5e9" fill-opacity="0.5" stroke="#606060" stroke-width="1.0"/>
           <path id="arrow"
             d="M 11.500037,31.436501 C 11.940474,20.09759 22.043105,11.32322 32.158766,21.979434 L 37.068811,17.246167 C 37.068811,17.246167 37.088388,32 37.088388,32 L 22.160133,31.978069 C 22.160133,31.978069 26.997745,27.140456 26.997745,27.140456 C 18.528582,18.264221 13.291696,25.230495 11.500037,31.436501 z"
             style="fill:#404040;"/>
          </a>
         </g>
        </svg>
</svg>
