<?xml version="1.0" encoding="UTF-8" standalone="no"?>
<!DOCTYPE svg PUBLIC "-//W3C//DTD SVG 1.1//EN"
 "http://www.w3.org/Graphics/SVG/1.1/DTD/svg11.dtd">
<!-- Generated by graphviz version 2.36.0 (20140111.2315)
 -->
<!-- Title: Command.getMessage Pages: 1 -->
<svg width="668pt" height="123pt"
 viewBox="0.00 0.00 668.00 123.00" xmlns="http://www.w3.org/2000/svg" xmlns:xlink="http://www.w3.org/1999/xlink">
<g id="graph0" class="graph" transform="scale(1 1) rotate(0) translate(4 119)">
<title>Command.getMessage</title>
<polygon fill="white" stroke="none" points="-4,4 -4,-119 664,-119 664,4 -4,4"/>
<!-- Node1 -->
<g id="node1" class="node"><title>Node1</title>
<polygon fill="#bfbfbf" stroke="black" points="0,-57.5 0,-76.5 118,-76.5 118,-57.5 0,-57.5"/>
<text text-anchor="middle" x="59" y="-64.5" font-family="Helvetica,sans-Serif" font-size="10.00">Command.getMessage</text>
</g>
<!-- Node2 -->
<g id="node2" class="node"><title>Node2</title>
<g id="a_node2"><a xlink:href="classTestCommand.html#a2c5d98451d5cedb9297caae17378de63" target="_top" xlink:title="Test series of Commands stored in a .test file and store the messages in the message field...">
<polygon fill="white" stroke="black" points="172.5,-95.5 172.5,-114.5 291.5,-114.5 291.5,-95.5 172.5,-95.5"/>
<text text-anchor="middle" x="232" y="-102.5" font-family="Helvetica,sans-Serif" font-size="10.00">TestCommand.execute</text>
</a>
</g>
</g>
<!-- Node1&#45;&gt;Node2 -->
<g id="edge1" class="edge"><title>Node1&#45;&gt;Node2</title>
<path fill="none" stroke="midnightblue" d="M113.209,-78.8243C137.317,-84.1816 165.44,-90.4311 188.16,-95.4799"/>
<polygon fill="midnightblue" stroke="midnightblue" points="113.672,-75.3417 103.151,-76.589 112.153,-82.175 113.672,-75.3417"/>
</g>
<!-- Node3 -->
<g id="node3" class="node"><title>Node3</title>
<g id="a_node3"><a xlink:href="classHelpCommand.html#ac93c4d17e1bed11f86d0f3c21ba00e34" target="_top" xlink:title="Saves user&#39;s help in the parameter field. ">
<polygon fill="white" stroke="black" points="172.5,-57.5 172.5,-76.5 291.5,-76.5 291.5,-57.5 172.5,-57.5"/>
<text text-anchor="middle" x="232" y="-64.5" font-family="Helvetica,sans-Serif" font-size="10.00">HelpCommand.execute</text>
</a>
</g>
</g>
<!-- Node1&#45;&gt;Node3 -->
<g id="edge2" class="edge"><title>Node1&#45;&gt;Node3</title>
<path fill="none" stroke="midnightblue" d="M128.742,-67C143.18,-67 158.282,-67 172.312,-67"/>
<polygon fill="midnightblue" stroke="midnightblue" points="128.37,-63.5001 118.37,-67 128.37,-70.5001 128.37,-63.5001"/>
</g>
<!-- Node4 -->
<g id="node4" class="node"><title>Node4</title>
<g id="a_node4"><a xlink:href="classGoCommand.html#a3149bf695c19b78c39cfc4dadece7846" target="_top" xlink:title="Go to the Room without checking. ">
<polygon fill="white" stroke="black" points="154.5,-19.5 154.5,-38.5 309.5,-38.5 309.5,-19.5 154.5,-19.5"/>
<text text-anchor="middle" x="232" y="-26.5" font-family="Helvetica,sans-Serif" font-size="10.00">GoCommand.goRoomNoCheck</text>
</a>
</g>
</g>
<!-- Node1&#45;&gt;Node4 -->
<g id="edge3" class="edge"><title>Node1&#45;&gt;Node4</title>
<path fill="none" stroke="midnightblue" d="M113.209,-55.1757C137.317,-49.8184 165.44,-43.5689 188.16,-38.5201"/>
<polygon fill="midnightblue" stroke="midnightblue" points="112.153,-51.825 103.151,-57.411 113.672,-58.6583 112.153,-51.825"/>
</g>
<!-- Node5 -->
<g id="node5" class="node"><title>Node5</title>
<g id="a_node5"><a xlink:href="classBeamerCommand.html#a1f19366fb8b873959f72f38d49d5b178" target="_top" xlink:title="Teleport the player to the remembered room. ">
<polygon fill="white" stroke="black" points="352.5,-38.5 352.5,-57.5 483.5,-57.5 483.5,-38.5 352.5,-38.5"/>
<text text-anchor="middle" x="418" y="-45.5" font-family="Helvetica,sans-Serif" font-size="10.00">BeamerCommand.teleport</text>
</a>
</g>
</g>
<!-- Node4&#45;&gt;Node5 -->
<g id="edge4" class="edge"><title>Node4&#45;&gt;Node5</title>
<path fill="none" stroke="midnightblue" d="M319.749,-37.9577C330.741,-39.0928 341.833,-40.2382 352.395,-41.3289"/>
<polygon fill="midnightblue" stroke="midnightblue" points="320.007,-34.4659 309.7,-36.9201 319.288,-41.4289 320.007,-34.4659"/>
</g>
<!-- Node7 -->
<g id="node7" class="node"><title>Node7</title>
<g id="a_node7"><a xlink:href="classGoCommand.html#a1fce2ad8ed1faf41fa300064585b3616" target="_top" xlink:title="Check if the wanted Room is connected to the current Room and go to this room. ">
<polygon fill="white" stroke="black" points="346.5,-0.5 346.5,-19.5 489.5,-19.5 489.5,-0.5 346.5,-0.5"/>
<text text-anchor="middle" x="418" y="-7.5" font-family="Helvetica,sans-Serif" font-size="10.00">GoCommand.goRoomCheck</text>
</a>
</g>
</g>
<!-- Node4&#45;&gt;Node7 -->
<g id="edge6" class="edge"><title>Node4&#45;&gt;Node7</title>
<path fill="none" stroke="midnightblue" d="M319.714,-20.0459C328.623,-19.1258 337.6,-18.199 346.306,-17.2999"/>
<polygon fill="midnightblue" stroke="midnightblue" points="319.288,-16.5711 309.7,-21.0799 320.007,-23.5341 319.288,-16.5711"/>
</g>
<!-- Node6 -->
<g id="node6" class="node"><title>Node6</title>
<g id="a_node6"><a xlink:href="classBeamerCommand.html#ab28a7d743569841e463b2c0c65cf6eb1" target="_top" xlink:title="Teleport to the remembered room or remember a room. ">
<polygon fill="white" stroke="black" points="526.5,-38.5 526.5,-57.5 659.5,-57.5 659.5,-38.5 526.5,-38.5"/>
<text text-anchor="middle" x="593" y="-45.5" font-family="Helvetica,sans-Serif" font-size="10.00">BeamerCommand.execute</text>
</a>
</g>
</g>
<!-- Node5&#45;&gt;Node6 -->
<g id="edge5" class="edge"><title>Node5&#45;&gt;Node6</title>
<path fill="none" stroke="midnightblue" d="M494.13,-48C504.887,-48 515.883,-48 526.437,-48"/>
<polygon fill="midnightblue" stroke="midnightblue" points="493.911,-44.5001 483.911,-48 493.911,-51.5001 493.911,-44.5001"/>
</g>
<!-- Node8 -->
<g id="node8" class="node"><title>Node8</title>
<g id="a_node8"><a xlink:href="classGoCommand.html#a77a61c2a3b89dca45b51e06f3bcb3ba7" target="_top" xlink:title="Make the player go to the Room through it&#39;s direction in the parameter field. ">
<polygon fill="white" stroke="black" points="537,-0.5 537,-19.5 649,-19.5 649,-0.5 537,-0.5"/>
<text text-anchor="middle" x="593" y="-7.5" font-family="Helvetica,sans-Serif" font-size="10.00">GoCommand.execute</text>
</a>
</g>
</g>
<!-- Node7&#45;&gt;Node8 -->
<g id="edge7" class="edge"><title>Node7&#45;&gt;Node8</title>
<path fill="none" stroke="midnightblue" d="M500.232,-10C512.641,-10 525.195,-10 536.868,-10"/>
<polygon fill="midnightblue" stroke="midnightblue" points="499.865,-6.5001 489.865,-10 499.865,-13.5001 499.865,-6.5001"/>
</g>
</g>
</svg>
