<?xml version="1.0" encoding="UTF-8" standalone="no"?>
<!DOCTYPE svg PUBLIC "-//W3C//DTD SVG 1.1//EN"
 "http://www.w3.org/Graphics/SVG/1.1/DTD/svg11.dtd">
<!-- Generated by graphviz version 2.36.0 (20140111.2315)
 -->
<!-- Title: pkg_commands.Command Pages: 1 -->
<svg width="2072pt" height="454pt"
 viewBox="0.00 0.00 2072.00 454.00" xmlns="http://www.w3.org/2000/svg" xmlns:xlink="http://www.w3.org/1999/xlink">
<g id="graph0" class="graph" transform="scale(1 1) rotate(0) translate(4 450)">
<title>pkg_commands.Command</title>
<polygon fill="white" stroke="none" points="-4,4 -4,-450 2068,-450 2068,4 -4,4"/>
<!-- Node1 -->
<g id="node1" class="node"><title>Node1</title>
<polygon fill="#bfbfbf" stroke="black" points="960,-267 960,-445 1094,-445 1094,-267 960,-267"/>
<text text-anchor="middle" x="1027" y="-433" font-family="Helvetica,sans-Serif" font-size="10.00">pkg_commands.Command</text>
<polyline fill="none" stroke="black" points="960,-426 1094,-426 "/>
<text text-anchor="start" x="968" y="-414" font-family="Helvetica,sans-Serif" font-size="10.00">&#45; parameter</text>
<text text-anchor="start" x="968" y="-403" font-family="Helvetica,sans-Serif" font-size="10.00">&#45; secondParameter</text>
<text text-anchor="start" x="968" y="-392" font-family="Helvetica,sans-Serif" font-size="10.00">&#45; message</text>
<polyline fill="none" stroke="black" points="960,-385 1094,-385 "/>
<text text-anchor="start" x="968" y="-373" font-family="Helvetica,sans-Serif" font-size="10.00">+ getParameter()</text>
<text text-anchor="start" x="968" y="-362" font-family="Helvetica,sans-Serif" font-size="10.00">+ getSecondParameter()</text>
<text text-anchor="start" x="968" y="-351" font-family="Helvetica,sans-Serif" font-size="10.00">+ setParameter()</text>
<text text-anchor="start" x="968" y="-340" font-family="Helvetica,sans-Serif" font-size="10.00">+ setSecondParameter()</text>
<text text-anchor="start" x="968" y="-329" font-family="Helvetica,sans-Serif" font-size="10.00">+ hasParameter()</text>
<text text-anchor="start" x="968" y="-318" font-family="Helvetica,sans-Serif" font-size="10.00">+ hasSecondParameter()</text>
<text text-anchor="start" x="968" y="-307" font-family="Helvetica,sans-Serif" font-size="10.00">+ getMessage()</text>
<text text-anchor="start" x="968" y="-296" font-family="Helvetica,sans-Serif" font-size="10.00">+ hasMessage()</text>
<text text-anchor="start" x="968" y="-285" font-family="Helvetica,sans-Serif" font-size="10.00">+ execute()</text>
<text text-anchor="start" x="968" y="-274" font-family="Helvetica,sans-Serif" font-size="10.00"># setMessage()</text>
</g>
<!-- Node2 -->
<g id="node2" class="node"><title>Node2</title>
<g id="a_node2"><a xlink:href="classpkg__commands_1_1CreditsCommand.html" target="_top" xlink:title="class CreditsCommand used to print the credits of the game ">
<polygon fill="white" stroke="black" points="-0.5,-145 -0.5,-213 164.5,-213 164.5,-145 -0.5,-145"/>
<text text-anchor="middle" x="82" y="-201" font-family="Helvetica,sans-Serif" font-size="10.00">pkg_commands.CreditsCommand</text>
<polyline fill="none" stroke="black" points="-0.5,-194 164.5,-194 "/>
<text text-anchor="middle" x="82" y="-182" font-family="Helvetica,sans-Serif" font-size="10.00"> </text>
<polyline fill="none" stroke="black" points="-0.5,-175 164.5,-175 "/>
<text text-anchor="start" x="7.5" y="-163" font-family="Helvetica,sans-Serif" font-size="10.00">+ CreditsCommand()</text>
<text text-anchor="start" x="7.5" y="-152" font-family="Helvetica,sans-Serif" font-size="10.00">+ execute()</text>
</a>
</g>
</g>
<!-- Node1&#45;&gt;Node2 -->
<g id="edge1" class="edge"><title>Node1&#45;&gt;Node2</title>
<path fill="none" stroke="midnightblue" d="M949.708,-352.713C797.441,-346.26 449.53,-321.817 174,-230 161.065,-225.69 147.813,-219.613 135.54,-213.176"/>
<polygon fill="none" stroke="midnightblue" points="949.756,-356.218 959.891,-353.13 950.042,-349.224 949.756,-356.218"/>
</g>
<!-- Node3 -->
<g id="node3" class="node"><title>Node3</title>
<g id="a_node3"><a xlink:href="classpkg__commands_1_1DropCommand.html" target="_top" xlink:title="class DropCommand used to make the player drop an Item ">
<polygon fill="white" stroke="black" points="182.5,-145 182.5,-213 337.5,-213 337.5,-145 182.5,-145"/>
<text text-anchor="middle" x="260" y="-201" font-family="Helvetica,sans-Serif" font-size="10.00">pkg_commands.DropCommand</text>
<polyline fill="none" stroke="black" points="182.5,-194 337.5,-194 "/>
<text text-anchor="middle" x="260" y="-182" font-family="Helvetica,sans-Serif" font-size="10.00"> </text>
<polyline fill="none" stroke="black" points="182.5,-175 337.5,-175 "/>
<text text-anchor="start" x="190.5" y="-163" font-family="Helvetica,sans-Serif" font-size="10.00">+ DropCommand()</text>
<text text-anchor="start" x="190.5" y="-152" font-family="Helvetica,sans-Serif" font-size="10.00">+ execute()</text>
</a>
</g>
</g>
<!-- Node1&#45;&gt;Node3 -->
<g id="edge2" class="edge"><title>Node1&#45;&gt;Node3</title>
<path fill="none" stroke="midnightblue" d="M949.72,-349.363C821.178,-338.118 556.829,-307 347,-230 334.898,-225.559 322.523,-219.507 311.044,-213.148"/>
<polygon fill="none" stroke="midnightblue" points="949.598,-352.865 959.861,-350.233 950.197,-345.891 949.598,-352.865"/>
</g>
<!-- Node4 -->
<g id="node4" class="node"><title>Node4</title>
<g id="a_node4"><a xlink:href="classpkg__commands_1_1EatCommand.html" target="_top" xlink:title="class EatCommand used to make the player eat an object. ">
<polygon fill="white" stroke="black" points="355.5,-145 355.5,-213 504.5,-213 504.5,-145 355.5,-145"/>
<text text-anchor="middle" x="430" y="-201" font-family="Helvetica,sans-Serif" font-size="10.00">pkg_commands.EatCommand</text>
<polyline fill="none" stroke="black" points="355.5,-194 504.5,-194 "/>
<text text-anchor="middle" x="430" y="-182" font-family="Helvetica,sans-Serif" font-size="10.00"> </text>
<polyline fill="none" stroke="black" points="355.5,-175 504.5,-175 "/>
<text text-anchor="start" x="363.5" y="-163" font-family="Helvetica,sans-Serif" font-size="10.00">+ EatCommand()</text>
<text text-anchor="start" x="363.5" y="-152" font-family="Helvetica,sans-Serif" font-size="10.00">+ execute()</text>
</a>
</g>
</g>
<!-- Node1&#45;&gt;Node4 -->
<g id="edge3" class="edge"><title>Node1&#45;&gt;Node4</title>
<path fill="none" stroke="midnightblue" d="M949.894,-343.582C847.538,-326.785 662.434,-290.661 514,-230 502.689,-225.377 491.096,-219.4 480.274,-213.195"/>
<polygon fill="none" stroke="midnightblue" points="949.408,-347.049 959.84,-345.196 950.53,-340.139 949.408,-347.049"/>
</g>
<!-- Node5 -->
<g id="node5" class="node"><title>Node5</title>
<g id="a_node5"><a xlink:href="classpkg__commands_1_1GiveCommand.html" target="_top" xlink:title="class GiveCommand used to make the Player give an Item ">
<polygon fill="white" stroke="black" points="523,-145 523,-213 677,-213 677,-145 523,-145"/>
<text text-anchor="middle" x="600" y="-201" font-family="Helvetica,sans-Serif" font-size="10.00">pkg_commands.GiveCommand</text>
<polyline fill="none" stroke="black" points="523,-194 677,-194 "/>
<text text-anchor="middle" x="600" y="-182" font-family="Helvetica,sans-Serif" font-size="10.00"> </text>
<polyline fill="none" stroke="black" points="523,-175 677,-175 "/>
<text text-anchor="start" x="531" y="-163" font-family="Helvetica,sans-Serif" font-size="10.00">+ GiveCommand()</text>
<text text-anchor="start" x="531" y="-152" font-family="Helvetica,sans-Serif" font-size="10.00">+ execute()</text>
</a>
</g>
</g>
<!-- Node1&#45;&gt;Node5 -->
<g id="edge4" class="edge"><title>Node1&#45;&gt;Node5</title>
<path fill="none" stroke="midnightblue" d="M950.256,-331.151C880.105,-308.354 774.171,-271.401 686,-230 675.37,-225.008 664.319,-219.141 653.821,-213.215"/>
<polygon fill="none" stroke="midnightblue" points="949.319,-334.527 959.911,-334.273 951.473,-327.867 949.319,-334.527"/>
</g>
<!-- Node6 -->
<g id="node6" class="node"><title>Node6</title>
<g id="a_node6"><a xlink:href="classpkg__commands_1_1GoCommand.html" target="_top" xlink:title="class GoCommand used to make the player go to a given Room. ">
<polygon fill="white" stroke="black" points="695,-128.5 695,-229.5 841,-229.5 841,-128.5 695,-128.5"/>
<text text-anchor="middle" x="768" y="-217.5" font-family="Helvetica,sans-Serif" font-size="10.00">pkg_commands.GoCommand</text>
<polyline fill="none" stroke="black" points="695,-210.5 841,-210.5 "/>
<text text-anchor="middle" x="768" y="-198.5" font-family="Helvetica,sans-Serif" font-size="10.00"> </text>
<polyline fill="none" stroke="black" points="695,-191.5 841,-191.5 "/>
<text text-anchor="start" x="703" y="-179.5" font-family="Helvetica,sans-Serif" font-size="10.00">+ GoCommand()</text>
<text text-anchor="start" x="703" y="-168.5" font-family="Helvetica,sans-Serif" font-size="10.00">+ execute()</text>
<text text-anchor="start" x="703" y="-157.5" font-family="Helvetica,sans-Serif" font-size="10.00"># goRoomCheck()</text>
<text text-anchor="start" x="703" y="-146.5" font-family="Helvetica,sans-Serif" font-size="10.00"># goRoomNoCheck()</text>
<text text-anchor="start" x="703" y="-135.5" font-family="Helvetica,sans-Serif" font-size="10.00"># getRandomRoom()</text>
</a>
</g>
</g>
<!-- Node1&#45;&gt;Node6 -->
<g id="edge5" class="edge"><title>Node1&#45;&gt;Node6</title>
<path fill="none" stroke="midnightblue" d="M951.277,-303.836C916.544,-280.368 875.536,-252.659 841.126,-229.409"/>
<polygon fill="none" stroke="midnightblue" points="949.719,-307.007 959.964,-309.706 953.638,-301.207 949.719,-307.007"/>
</g>
<!-- Node9 -->
<g id="node9" class="node"><title>Node9</title>
<g id="a_node9"><a xlink:href="classpkg__commands_1_1HelpCommand.html" target="_top" xlink:title="class HelpCommand used to print the help ">
<polygon fill="white" stroke="black" points="859,-145 859,-213 1013,-213 1013,-145 859,-145"/>
<text text-anchor="middle" x="936" y="-201" font-family="Helvetica,sans-Serif" font-size="10.00">pkg_commands.HelpCommand</text>
<polyline fill="none" stroke="black" points="859,-194 1013,-194 "/>
<text text-anchor="start" x="867" y="-182" font-family="Helvetica,sans-Serif" font-size="10.00">&#45; helpCount</text>
<polyline fill="none" stroke="black" points="859,-175 1013,-175 "/>
<text text-anchor="start" x="867" y="-163" font-family="Helvetica,sans-Serif" font-size="10.00">+ HelpCommand()</text>
<text text-anchor="start" x="867" y="-152" font-family="Helvetica,sans-Serif" font-size="10.00">+ execute()</text>
</a>
</g>
</g>
<!-- Node1&#45;&gt;Node9 -->
<g id="edge8" class="edge"><title>Node1&#45;&gt;Node9</title>
<path fill="none" stroke="midnightblue" d="M976.553,-257.987C968.158,-241.842 959.99,-226.135 953.211,-213.098"/>
<polygon fill="none" stroke="midnightblue" points="973.515,-259.73 981.233,-266.987 979.725,-256.5 973.515,-259.73"/>
</g>
<!-- Node10 -->
<g id="node10" class="node"><title>Node10</title>
<g id="a_node10"><a xlink:href="classpkg__commands_1_1InventoryCommand.html" target="_top" xlink:title="class InventoryCommand used to print the player&#39;s inventory ">
<polygon fill="white" stroke="black" points="1031,-145 1031,-213 1205,-213 1205,-145 1031,-145"/>
<text text-anchor="middle" x="1118" y="-201" font-family="Helvetica,sans-Serif" font-size="10.00">pkg_commands.InventoryCommand</text>
<polyline fill="none" stroke="black" points="1031,-194 1205,-194 "/>
<text text-anchor="middle" x="1118" y="-182" font-family="Helvetica,sans-Serif" font-size="10.00"> </text>
<polyline fill="none" stroke="black" points="1031,-175 1205,-175 "/>
<text text-anchor="start" x="1039" y="-163" font-family="Helvetica,sans-Serif" font-size="10.00">+ InventoryCommand()</text>
<text text-anchor="start" x="1039" y="-152" font-family="Helvetica,sans-Serif" font-size="10.00">+ execute()</text>
</a>
</g>
</g>
<!-- Node1&#45;&gt;Node10 -->
<g id="edge9" class="edge"><title>Node1&#45;&gt;Node10</title>
<path fill="none" stroke="midnightblue" d="M1077.45,-257.987C1085.84,-241.842 1094.01,-226.135 1100.79,-213.098"/>
<polygon fill="none" stroke="midnightblue" points="1074.27,-256.5 1072.77,-266.987 1080.49,-259.73 1074.27,-256.5"/>
</g>
<!-- Node11 -->
<g id="node11" class="node"><title>Node11</title>
<g id="a_node11"><a xlink:href="classpkg__commands_1_1LookCommand.html" target="_top" xlink:title="class LookCommand used to show information about the current Room or a given Item ...">
<polygon fill="white" stroke="black" points="1223.5,-139.5 1223.5,-218.5 1378.5,-218.5 1378.5,-139.5 1223.5,-139.5"/>
<text text-anchor="middle" x="1301" y="-206.5" font-family="Helvetica,sans-Serif" font-size="10.00">pkg_commands.LookCommand</text>
<polyline fill="none" stroke="black" points="1223.5,-199.5 1378.5,-199.5 "/>
<text text-anchor="middle" x="1301" y="-187.5" font-family="Helvetica,sans-Serif" font-size="10.00"> </text>
<polyline fill="none" stroke="black" points="1223.5,-180.5 1378.5,-180.5 "/>
<text text-anchor="start" x="1231.5" y="-168.5" font-family="Helvetica,sans-Serif" font-size="10.00">+ LookCommand()</text>
<text text-anchor="start" x="1231.5" y="-157.5" font-family="Helvetica,sans-Serif" font-size="10.00">+ execute()</text>
<text text-anchor="start" x="1231.5" y="-146.5" font-family="Helvetica,sans-Serif" font-size="10.00">&#45; showItem()</text>
</a>
</g>
</g>
<!-- Node1&#45;&gt;Node11 -->
<g id="edge10" class="edge"><title>Node1&#45;&gt;Node11</title>
<path fill="none" stroke="midnightblue" d="M1102.56,-306.743C1145.93,-279.042 1199.66,-244.723 1240.27,-218.786"/>
<polygon fill="none" stroke="midnightblue" points="1100.57,-303.858 1094.03,-312.19 1104.34,-309.757 1100.57,-303.858"/>
</g>
<!-- Node12 -->
<g id="node12" class="node"><title>Node12</title>
<g id="a_node12"><a xlink:href="classpkg__commands_1_1QuitCommand.html" target="_top" xlink:title="class QuitCommand used to quit the game ">
<polygon fill="white" stroke="black" points="1397,-145 1397,-213 1549,-213 1549,-145 1397,-145"/>
<text text-anchor="middle" x="1473" y="-201" font-family="Helvetica,sans-Serif" font-size="10.00">pkg_commands.QuitCommand</text>
<polyline fill="none" stroke="black" points="1397,-194 1549,-194 "/>
<text text-anchor="middle" x="1473" y="-182" font-family="Helvetica,sans-Serif" font-size="10.00"> </text>
<polyline fill="none" stroke="black" points="1397,-175 1549,-175 "/>
<text text-anchor="start" x="1405" y="-163" font-family="Helvetica,sans-Serif" font-size="10.00">+ QuitCommand()</text>
<text text-anchor="start" x="1405" y="-152" font-family="Helvetica,sans-Serif" font-size="10.00">+ execute()</text>
</a>
</g>
</g>
<!-- Node1&#45;&gt;Node12 -->
<g id="edge11" class="edge"><title>Node1&#45;&gt;Node12</title>
<path fill="none" stroke="midnightblue" d="M1103.91,-333.005C1177.96,-310.74 1292.34,-273.459 1387,-230 1397.83,-225.028 1409.07,-219.104 1419.71,-213.102"/>
<polygon fill="none" stroke="midnightblue" points="1102.77,-329.695 1094.19,-335.912 1104.77,-336.401 1102.77,-329.695"/>
</g>
<!-- Node13 -->
<g id="node13" class="node"><title>Node13</title>
<g id="a_node13"><a xlink:href="classpkg__commands_1_1TakeCommand.html" target="_top" xlink:title="class TakeCommand used to make the Player take an Item ">
<polygon fill="white" stroke="black" points="1567.5,-145 1567.5,-213 1722.5,-213 1722.5,-145 1567.5,-145"/>
<text text-anchor="middle" x="1645" y="-201" font-family="Helvetica,sans-Serif" font-size="10.00">pkg_commands.TakeCommand</text>
<polyline fill="none" stroke="black" points="1567.5,-194 1722.5,-194 "/>
<text text-anchor="middle" x="1645" y="-182" font-family="Helvetica,sans-Serif" font-size="10.00"> </text>
<polyline fill="none" stroke="black" points="1567.5,-175 1722.5,-175 "/>
<text text-anchor="start" x="1575.5" y="-163" font-family="Helvetica,sans-Serif" font-size="10.00">+ TakeCommand()</text>
<text text-anchor="start" x="1575.5" y="-152" font-family="Helvetica,sans-Serif" font-size="10.00">+ execute()</text>
</a>
</g>
</g>
<!-- Node1&#45;&gt;Node13 -->
<g id="edge12" class="edge"><title>Node1&#45;&gt;Node13</title>
<path fill="none" stroke="midnightblue" d="M1104.18,-344.047C1209.45,-327.504 1402.71,-291.379 1558,-230 1569.66,-225.389 1581.65,-219.417 1592.85,-213.214"/>
<polygon fill="none" stroke="midnightblue" points="1103.62,-340.592 1094.27,-345.587 1104.69,-347.509 1103.62,-340.592"/>
</g>
<!-- Node14 -->
<g id="node14" class="node"><title>Node14</title>
<g id="a_node14"><a xlink:href="classpkg__commands_1_1TalkCommand.html" target="_top" xlink:title="class TalkCommand used to talk to a Character ">
<polygon fill="white" stroke="black" points="1741,-145 1741,-213 1893,-213 1893,-145 1741,-145"/>
<text text-anchor="middle" x="1817" y="-201" font-family="Helvetica,sans-Serif" font-size="10.00">pkg_commands.TalkCommand</text>
<polyline fill="none" stroke="black" points="1741,-194 1893,-194 "/>
<text text-anchor="middle" x="1817" y="-182" font-family="Helvetica,sans-Serif" font-size="10.00"> </text>
<polyline fill="none" stroke="black" points="1741,-175 1893,-175 "/>
<text text-anchor="start" x="1749" y="-163" font-family="Helvetica,sans-Serif" font-size="10.00">+ TalkCommand()</text>
<text text-anchor="start" x="1749" y="-152" font-family="Helvetica,sans-Serif" font-size="10.00">+ execute()</text>
</a>
</g>
</g>
<!-- Node1&#45;&gt;Node14 -->
<g id="edge13" class="edge"><title>Node1&#45;&gt;Node14</title>
<path fill="none" stroke="midnightblue" d="M1104.06,-350.157C1236.06,-339.939 1512.32,-310.115 1731,-230 1743,-225.604 1755.25,-219.571 1766.6,-213.215"/>
<polygon fill="none" stroke="midnightblue" points="1103.75,-346.67 1094.04,-350.916 1104.28,-353.65 1103.75,-346.67"/>
</g>
<!-- Node15 -->
<g id="node15" class="node"><title>Node15</title>
<g id="a_node15"><a xlink:href="classpkg__commands_1_1TestCommand.html" target="_top" xlink:title="class TestCommand used to test series of commands ">
<polygon fill="white" stroke="black" points="1911.5,-145 1911.5,-213 2064.5,-213 2064.5,-145 1911.5,-145"/>
<text text-anchor="middle" x="1988" y="-201" font-family="Helvetica,sans-Serif" font-size="10.00">pkg_commands.TestCommand</text>
<polyline fill="none" stroke="black" points="1911.5,-194 2064.5,-194 "/>
<text text-anchor="middle" x="1988" y="-182" font-family="Helvetica,sans-Serif" font-size="10.00"> </text>
<polyline fill="none" stroke="black" points="1911.5,-175 2064.5,-175 "/>
<text text-anchor="start" x="1919.5" y="-163" font-family="Helvetica,sans-Serif" font-size="10.00">+ TestCommand()</text>
<text text-anchor="start" x="1919.5" y="-152" font-family="Helvetica,sans-Serif" font-size="10.00">+ execute()</text>
</a>
</g>
</g>
<!-- Node1&#45;&gt;Node15 -->
<g id="edge14" class="edge"><title>Node1&#45;&gt;Node15</title>
<path fill="none" stroke="midnightblue" d="M1104.46,-353.805C1259.98,-349.288 1619.48,-328.118 1902,-230 1914.4,-225.694 1927.02,-219.538 1938.63,-213.01"/>
<polygon fill="none" stroke="midnightblue" points="1103.97,-350.317 1094.07,-354.091 1104.16,-357.314 1103.97,-350.317"/>
</g>
<!-- Node7 -->
<g id="node7" class="node"><title>Node7</title>
<g id="a_node7"><a xlink:href="classpkg__commands_1_1BackCommand.html" target="_top" xlink:title="class BackCommand used to go back in a previous Room. ">
<polygon fill="white" stroke="black" points="600,-12 600,-80 756,-80 756,-12 600,-12"/>
<text text-anchor="middle" x="678" y="-68" font-family="Helvetica,sans-Serif" font-size="10.00">pkg_commands.BackCommand</text>
<polyline fill="none" stroke="black" points="600,-61 756,-61 "/>
<text text-anchor="middle" x="678" y="-49" font-family="Helvetica,sans-Serif" font-size="10.00"> </text>
<polyline fill="none" stroke="black" points="600,-42 756,-42 "/>
<text text-anchor="start" x="608" y="-30" font-family="Helvetica,sans-Serif" font-size="10.00">+ BackCommand()</text>
<text text-anchor="start" x="608" y="-19" font-family="Helvetica,sans-Serif" font-size="10.00">+ execute()</text>
</a>
</g>
</g>
<!-- Node6&#45;&gt;Node7 -->
<g id="edge6" class="edge"><title>Node6&#45;&gt;Node7</title>
<path fill="none" stroke="midnightblue" d="M728.208,-120.081C718.86,-106.474 709.208,-92.4244 700.894,-80.3242"/>
<polygon fill="none" stroke="midnightblue" points="725.427,-122.214 733.975,-128.475 731.197,-118.25 725.427,-122.214"/>
</g>
<!-- Node8 -->
<g id="node8" class="node"><title>Node8</title>
<g id="a_node8"><a xlink:href="classpkg__commands_1_1BeamerCommand.html" target="_top" xlink:title="class BeamerCommand used to teleport into a remembered room ">
<polygon fill="white" stroke="black" points="774.5,-1 774.5,-91 941.5,-91 941.5,-1 774.5,-1"/>
<text text-anchor="middle" x="858" y="-79" font-family="Helvetica,sans-Serif" font-size="10.00">pkg_commands.BeamerCommand</text>
<polyline fill="none" stroke="black" points="774.5,-72 941.5,-72 "/>
<text text-anchor="middle" x="858" y="-60" font-family="Helvetica,sans-Serif" font-size="10.00"> </text>
<polyline fill="none" stroke="black" points="774.5,-53 941.5,-53 "/>
<text text-anchor="start" x="782.5" y="-41" font-family="Helvetica,sans-Serif" font-size="10.00">+ BeamerCommand()</text>
<text text-anchor="start" x="782.5" y="-30" font-family="Helvetica,sans-Serif" font-size="10.00">+ execute()</text>
<text text-anchor="start" x="782.5" y="-19" font-family="Helvetica,sans-Serif" font-size="10.00">+ charge()</text>
<text text-anchor="start" x="782.5" y="-8" font-family="Helvetica,sans-Serif" font-size="10.00">&#45; teleport()</text>
</a>
</g>
</g>
<!-- Node6&#45;&gt;Node8 -->
<g id="edge7" class="edge"><title>Node6&#45;&gt;Node8</title>
<path fill="none" stroke="midnightblue" d="M807.847,-120.001C814.533,-110.268 821.374,-100.311 827.767,-91.0055"/>
<polygon fill="none" stroke="midnightblue" points="804.803,-118.25 802.025,-128.475 810.573,-122.214 804.803,-118.25"/>
</g>
</g>
</svg>
