<?xml version="1.0" encoding="UTF-8" standalone="no"?>
<!DOCTYPE svg PUBLIC "-//W3C//DTD SVG 1.1//EN"
 "http://www.w3.org/Graphics/SVG/1.1/DTD/svg11.dtd">
<!-- Generated by graphviz version 2.36.0 (20140111.2315)
 -->
<!-- Title: UserInterface.println Pages: 1 -->
<svg width="596pt" height="47pt"
 viewBox="0.00 0.00 596.00 47.00" xmlns="http://www.w3.org/2000/svg" xmlns:xlink="http://www.w3.org/1999/xlink">
<g id="graph0" class="graph" transform="scale(1 1) rotate(0) translate(4 43)">
<title>UserInterface.println</title>
<polygon fill="white" stroke="none" points="-4,4 -4,-43 592,-43 592,4 -4,4"/>
<!-- Node1 -->
<g id="node1" class="node"><title>Node1</title>
<polygon fill="#bfbfbf" stroke="black" points="0.5,-0.5 0.5,-19.5 105.5,-19.5 105.5,-0.5 0.5,-0.5"/>
<text text-anchor="middle" x="53" y="-7.5" font-family="Helvetica,sans-Serif" font-size="10.00">UserInterface.println</text>
</g>
<!-- Node2 -->
<g id="node2" class="node"><title>Node2</title>
<g id="a_node2"><a xlink:href="classGameEngine.html#ab620e2e6c8627aba28cc2c33fefe50e3" target="_top" xlink:title="GameEngine.lookAround">
<polygon fill="white" stroke="black" points="142.5,-19.5 142.5,-38.5 267.5,-38.5 267.5,-19.5 142.5,-19.5"/>
<text text-anchor="middle" x="205" y="-26.5" font-family="Helvetica,sans-Serif" font-size="10.00">GameEngine.lookAround</text>
</a>
</g>
</g>
<!-- Node1&#45;&gt;Node2 -->
<g id="edge1" class="edge"><title>Node1&#45;&gt;Node2</title>
<path fill="none" stroke="midnightblue" d="M115.808,-17.829C124.608,-18.9437 133.659,-20.0902 142.455,-21.2043"/>
<polygon fill="midnightblue" stroke="midnightblue" points="115.982,-14.3232 105.621,-16.5387 115.102,-21.2677 115.982,-14.3232"/>
</g>
<!-- Node3 -->
<g id="node3" class="node"><title>Node3</title>
<g id="a_node3"><a xlink:href="classGameEngine.html#ad7133885f313fa99bca3bb7cb8272f64" target="_top" xlink:title="GameEngine.processCommand">
<polygon fill="white" stroke="black" points="304.5,-0.5 304.5,-19.5 459.5,-19.5 459.5,-0.5 304.5,-0.5"/>
<text text-anchor="middle" x="382" y="-7.5" font-family="Helvetica,sans-Serif" font-size="10.00">GameEngine.processCommand</text>
</a>
</g>
</g>
<!-- Node1&#45;&gt;Node3 -->
<g id="edge4" class="edge"><title>Node1&#45;&gt;Node3</title>
<path fill="none" stroke="midnightblue" d="M115.853,-10C169.392,-10 247.034,-10 304.473,-10"/>
<polygon fill="midnightblue" stroke="midnightblue" points="115.814,-6.5001 105.814,-10 115.814,-13.5001 115.814,-6.5001"/>
</g>
<!-- Node2&#45;&gt;Node3 -->
<g id="edge2" class="edge"><title>Node2&#45;&gt;Node3</title>
<path fill="none" stroke="midnightblue" d="M277.804,-21.2042C286.514,-20.2584 295.44,-19.2894 304.219,-18.3363"/>
<polygon fill="midnightblue" stroke="midnightblue" points="277.262,-17.7423 267.698,-22.3013 278.018,-24.7014 277.262,-17.7423"/>
</g>
<!-- Node4 -->
<g id="node4" class="node"><title>Node4</title>
<g id="a_node4"><a xlink:href="classGameEngine.html#a0cfc6fc69e60ffe8a436d04de0938349" target="_top" xlink:title="GameEngine.test">
<polygon fill="white" stroke="black" points="496,-0.5 496,-19.5 588,-19.5 588,-0.5 496,-0.5"/>
<text text-anchor="middle" x="542" y="-7.5" font-family="Helvetica,sans-Serif" font-size="10.00">GameEngine.test</text>
</a>
</g>
</g>
<!-- Node3&#45;&gt;Node4 -->
<g id="edge3" class="edge"><title>Node3&#45;&gt;Node4</title>
<path fill="none" stroke="midnightblue" d="M469.868,-10C478.858,-10 487.71,-10 495.953,-10"/>
<polygon fill="midnightblue" stroke="midnightblue" points="469.686,-6.5001 459.686,-10 469.686,-13.5001 469.686,-6.5001"/>
</g>
</g>
</svg>
