<?xml version="1.0" encoding="UTF-8" standalone="no"?>
<!DOCTYPE svg PUBLIC "-//W3C//DTD SVG 1.1//EN"
 "http://www.w3.org/Graphics/SVG/1.1/DTD/svg11.dtd">
<!-- Generated by graphviz version 2.36.0 (20140111.2315)
 -->
<!-- Title: GoCommand.goRoomNoCheck Pages: 1 -->
<svg width="320pt" height="104pt"
 viewBox="0.00 0.00 320.00 104.00" xmlns="http://www.w3.org/2000/svg" xmlns:xlink="http://www.w3.org/1999/xlink">
<g id="graph0" class="graph" transform="scale(1 1) rotate(0) translate(4 100)">
<title>GoCommand.goRoomNoCheck</title>
<polygon fill="white" stroke="none" points="-4,4 -4,-100 316,-100 316,4 -4,4"/>
<!-- Node1 -->
<g id="node1" class="node"><title>Node1</title>
<polygon fill="#bfbfbf" stroke="black" points="0.5,-38.5 0.5,-57.5 155.5,-57.5 155.5,-38.5 0.5,-38.5"/>
<text text-anchor="middle" x="78" y="-45.5" font-family="Helvetica,sans-Serif" font-size="10.00">GoCommand.goRoomNoCheck</text>
</g>
<!-- Node2 -->
<g id="node2" class="node"><title>Node2</title>
<g id="a_node2"><a xlink:href="classCommand.html#ac3d4abebefb2aea0ce9757bf9c356882" target="_top" xlink:title="Message field getter. ">
<polygon fill="white" stroke="black" points="193,-76.5 193,-95.5 311,-95.5 311,-76.5 193,-76.5"/>
<text text-anchor="middle" x="252" y="-83.5" font-family="Helvetica,sans-Serif" font-size="10.00">Command.getMessage</text>
</a>
</g>
</g>
<!-- Node1&#45;&gt;Node2 -->
<g id="edge1" class="edge"><title>Node1&#45;&gt;Node2</title>
<path fill="none" stroke="midnightblue" d="M122.403,-57.589C145.407,-62.6713 173.851,-68.9554 198.134,-74.3203"/>
<polygon fill="midnightblue" stroke="midnightblue" points="197.39,-77.7402 207.909,-76.4799 198.9,-70.905 197.39,-77.7402"/>
</g>
<!-- Node3 -->
<g id="node3" class="node"><title>Node3</title>
<g id="a_node3"><a xlink:href="classCommand.html#a3d232d33894a20dc81b7627d84f14183" target="_top" xlink:title="Return true if the message is equal to null or &quot;&quot;. ">
<polygon fill="white" stroke="black" points="192,-38.5 192,-57.5 312,-57.5 312,-38.5 192,-38.5"/>
<text text-anchor="middle" x="252" y="-45.5" font-family="Helvetica,sans-Serif" font-size="10.00">Command.hasMessage</text>
</a>
</g>
</g>
<!-- Node1&#45;&gt;Node3 -->
<g id="edge2" class="edge"><title>Node1&#45;&gt;Node3</title>
<path fill="none" stroke="midnightblue" d="M155.694,-48C164.292,-48 173.015,-48 181.515,-48"/>
<polygon fill="midnightblue" stroke="midnightblue" points="181.749,-51.5001 191.749,-48 181.749,-44.5001 181.749,-51.5001"/>
</g>
<!-- Node4 -->
<g id="node4" class="node"><title>Node4</title>
<g id="a_node4"><a xlink:href="classCommand.html#a715709d8f0ab65879d79ad1725c96f17" target="_top" xlink:title="Message field setter. ">
<polygon fill="white" stroke="black" points="193,-0.5 193,-19.5 311,-19.5 311,-0.5 193,-0.5"/>
<text text-anchor="middle" x="252" y="-7.5" font-family="Helvetica,sans-Serif" font-size="10.00">Command.setMessage</text>
</a>
</g>
</g>
<!-- Node1&#45;&gt;Node4 -->
<g id="edge3" class="edge"><title>Node1&#45;&gt;Node4</title>
<path fill="none" stroke="midnightblue" d="M122.403,-38.411C145.407,-33.3287 173.851,-27.0446 198.134,-21.6797"/>
<polygon fill="midnightblue" stroke="midnightblue" points="198.9,-25.095 207.909,-19.5201 197.39,-18.2598 198.9,-25.095"/>
</g>
</g>
</svg>
