<?xml version="1.0" encoding="UTF-8" standalone="no"?>
<!DOCTYPE svg PUBLIC "-//W3C//DTD SVG 1.1//EN"
 "http://www.w3.org/Graphics/SVG/1.1/DTD/svg11.dtd">
<!-- Generated by graphviz version 2.36.0 (20140111.2315)
 -->
<!-- Title: BeamerCommand Pages: 1 -->
<svg width="118pt" height="400pt"
 viewBox="0.00 0.00 118.00 400.00" xmlns="http://www.w3.org/2000/svg" xmlns:xlink="http://www.w3.org/1999/xlink">
<g id="graph0" class="graph" transform="scale(1 1) rotate(0) translate(4 396)">
<title>BeamerCommand</title>
<polygon fill="white" stroke="none" points="-4,4 -4,-396 114,-396 114,4 -4,4"/>
<!-- Node1 -->
<g id="node1" class="node"><title>Node1</title>
<polygon fill="#bfbfbf" stroke="black" points="0,-1 0,-91 110,-91 110,-1 0,-1"/>
<text text-anchor="middle" x="55" y="-79" font-family="Helvetica,sans-Serif" font-size="10.00">BeamerCommand</text>
<polyline fill="none" stroke="black" points="0,-72 110,-72 "/>
<text text-anchor="middle" x="55" y="-60" font-family="Helvetica,sans-Serif" font-size="10.00"> </text>
<polyline fill="none" stroke="black" points="0,-53 110,-53 "/>
<text text-anchor="start" x="8" y="-41" font-family="Helvetica,sans-Serif" font-size="10.00">+ BeamerCommand()</text>
<text text-anchor="start" x="8" y="-30" font-family="Helvetica,sans-Serif" font-size="10.00">+ execute()</text>
<text text-anchor="start" x="8" y="-19" font-family="Helvetica,sans-Serif" font-size="10.00">+ charge()</text>
<text text-anchor="start" x="8" y="-8" font-family="Helvetica,sans-Serif" font-size="10.00">&#45; teleport()</text>
</g>
<!-- Node2 -->
<g id="node2" class="node"><title>Node2</title>
<g id="a_node2"><a xlink:href="classGoCommand.html" target="_top" xlink:title="class GoCommand used to make the player go to a given Room. ">
<polygon fill="white" stroke="black" points="0.5,-129 0.5,-219 109.5,-219 109.5,-129 0.5,-129"/>
<text text-anchor="middle" x="55" y="-207" font-family="Helvetica,sans-Serif" font-size="10.00">GoCommand</text>
<polyline fill="none" stroke="black" points="0.5,-200 109.5,-200 "/>
<text text-anchor="middle" x="55" y="-188" font-family="Helvetica,sans-Serif" font-size="10.00"> </text>
<polyline fill="none" stroke="black" points="0.5,-181 109.5,-181 "/>
<text text-anchor="start" x="8.5" y="-169" font-family="Helvetica,sans-Serif" font-size="10.00">+ GoCommand()</text>
<text text-anchor="start" x="8.5" y="-158" font-family="Helvetica,sans-Serif" font-size="10.00">+ execute()</text>
<text text-anchor="start" x="8.5" y="-147" font-family="Helvetica,sans-Serif" font-size="10.00"># goRoomCheck()</text>
<text text-anchor="start" x="8.5" y="-136" font-family="Helvetica,sans-Serif" font-size="10.00"># goRoomNoCheck()</text>
</a>
</g>
</g>
<!-- Node2&#45;&gt;Node1 -->
<g id="edge1" class="edge"><title>Node2&#45;&gt;Node1</title>
<path fill="none" stroke="midnightblue" d="M55,-118.726C55,-109.556 55,-100.133 55,-91.2568"/>
<polygon fill="none" stroke="midnightblue" points="51.5001,-118.931 55,-128.931 58.5001,-118.931 51.5001,-118.931"/>
</g>
<!-- Node3 -->
<g id="node3" class="node"><title>Node3</title>
<g id="a_node3"><a xlink:href="classCommand.html" target="_top" xlink:title="Class used to handle a command of one or two words. ">
<polygon fill="white" stroke="black" points="9,-257 9,-391 101,-391 101,-257 9,-257"/>
<text text-anchor="middle" x="55" y="-379" font-family="Helvetica,sans-Serif" font-size="10.00">Command</text>
<polyline fill="none" stroke="black" points="9,-372 101,-372 "/>
<text text-anchor="start" x="17" y="-360" font-family="Helvetica,sans-Serif" font-size="10.00">&#45; parameter</text>
<text text-anchor="start" x="17" y="-349" font-family="Helvetica,sans-Serif" font-size="10.00">&#45; message</text>
<polyline fill="none" stroke="black" points="9,-342 101,-342 "/>
<text text-anchor="start" x="17" y="-330" font-family="Helvetica,sans-Serif" font-size="10.00">+ getParameter()</text>
<text text-anchor="start" x="17" y="-319" font-family="Helvetica,sans-Serif" font-size="10.00">+ setParameter()</text>
<text text-anchor="start" x="17" y="-308" font-family="Helvetica,sans-Serif" font-size="10.00">+ hasParameter()</text>
<text text-anchor="start" x="17" y="-297" font-family="Helvetica,sans-Serif" font-size="10.00">+ getMessage()</text>
<text text-anchor="start" x="17" y="-286" font-family="Helvetica,sans-Serif" font-size="10.00">+ hasMessage()</text>
<text text-anchor="start" x="17" y="-275" font-family="Helvetica,sans-Serif" font-size="10.00">+ execute()</text>
<text text-anchor="start" x="17" y="-264" font-family="Helvetica,sans-Serif" font-size="10.00"># setMessage()</text>
</a>
</g>
</g>
<!-- Node3&#45;&gt;Node2 -->
<g id="edge2" class="edge"><title>Node3&#45;&gt;Node2</title>
<path fill="none" stroke="midnightblue" d="M55,-246.574C55,-237.149 55,-227.777 55,-219.07"/>
<polygon fill="none" stroke="midnightblue" points="51.5001,-246.792 55,-256.792 58.5001,-246.792 51.5001,-246.792"/>
</g>
</g>
</svg>
