<?xml version="1.0" encoding="UTF-8" standalone="no"?>
<!DOCTYPE svg PUBLIC "-//W3C//DTD SVG 1.1//EN"
 "http://www.w3.org/Graphics/SVG/1.1/DTD/svg11.dtd">
<!-- Generated by graphviz version 2.36.0 (20140111.2315)
 -->
<!-- Title: CreditsCommand Pages: 1 -->
<svg width="116pt" height="250pt"
 viewBox="0.00 0.00 116.00 250.00" xmlns="http://www.w3.org/2000/svg" xmlns:xlink="http://www.w3.org/1999/xlink">
<g id="graph0" class="graph" transform="scale(1 1) rotate(0) translate(4 246)">
<title>CreditsCommand</title>
<polygon fill="white" stroke="none" points="-4,4 -4,-246 112,-246 112,4 -4,4"/>
<!-- Node1 -->
<g id="node1" class="node"><title>Node1</title>
<polygon fill="#bfbfbf" stroke="black" points="0,-1 0,-69 108,-69 108,-1 0,-1"/>
<text text-anchor="middle" x="54" y="-57" font-family="Helvetica,sans-Serif" font-size="10.00">CreditsCommand</text>
<polyline fill="none" stroke="black" points="0,-50 108,-50 "/>
<text text-anchor="middle" x="54" y="-38" font-family="Helvetica,sans-Serif" font-size="10.00"> </text>
<polyline fill="none" stroke="black" points="0,-31 108,-31 "/>
<text text-anchor="start" x="8" y="-19" font-family="Helvetica,sans-Serif" font-size="10.00">+ CreditsCommand()</text>
<text text-anchor="start" x="8" y="-8" font-family="Helvetica,sans-Serif" font-size="10.00">+ execute()</text>
</g>
<!-- Node2 -->
<g id="node2" class="node"><title>Node2</title>
<g id="a_node2"><a xlink:href="classCommand.html" target="_top" xlink:title="Class used to handle a command of one or two words. ">
<polygon fill="white" stroke="black" points="8,-107 8,-241 100,-241 100,-107 8,-107"/>
<text text-anchor="middle" x="54" y="-229" font-family="Helvetica,sans-Serif" font-size="10.00">Command</text>
<polyline fill="none" stroke="black" points="8,-222 100,-222 "/>
<text text-anchor="start" x="16" y="-210" font-family="Helvetica,sans-Serif" font-size="10.00">&#45; parameter</text>
<text text-anchor="start" x="16" y="-199" font-family="Helvetica,sans-Serif" font-size="10.00">&#45; message</text>
<polyline fill="none" stroke="black" points="8,-192 100,-192 "/>
<text text-anchor="start" x="16" y="-180" font-family="Helvetica,sans-Serif" font-size="10.00">+ getParameter()</text>
<text text-anchor="start" x="16" y="-169" font-family="Helvetica,sans-Serif" font-size="10.00">+ setParameter()</text>
<text text-anchor="start" x="16" y="-158" font-family="Helvetica,sans-Serif" font-size="10.00">+ hasParameter()</text>
<text text-anchor="start" x="16" y="-147" font-family="Helvetica,sans-Serif" font-size="10.00">+ getMessage()</text>
<text text-anchor="start" x="16" y="-136" font-family="Helvetica,sans-Serif" font-size="10.00">+ hasMessage()</text>
<text text-anchor="start" x="16" y="-125" font-family="Helvetica,sans-Serif" font-size="10.00">+ execute()</text>
<text text-anchor="start" x="16" y="-114" font-family="Helvetica,sans-Serif" font-size="10.00"># setMessage()</text>
</a>
</g>
</g>
<!-- Node2&#45;&gt;Node1 -->
<g id="edge1" class="edge"><title>Node2&#45;&gt;Node1</title>
<path fill="none" stroke="midnightblue" d="M54,-96.7563C54,-87.056 54,-77.5656 54,-69.0765"/>
<polygon fill="none" stroke="midnightblue" points="50.5001,-96.9077 54,-106.908 57.5001,-96.9078 50.5001,-96.9077"/>
</g>
</g>
</svg>
