<?xml version="1.0" encoding="UTF-8" standalone="no"?>
<!DOCTYPE svg PUBLIC "-//W3C//DTD SVG 1.1//EN"
 "http://www.w3.org/Graphics/SVG/1.1/DTD/svg11.dtd">
<!-- Generated by graphviz version 2.36.0 (20140111.2315)
 -->
<!-- Title: Parser Pages: 1 -->
<svg width="115pt" height="216pt"
 viewBox="0.00 0.00 115.00 216.00" xmlns="http://www.w3.org/2000/svg" xmlns:xlink="http://www.w3.org/1999/xlink">
<g id="graph0" class="graph" transform="scale(1 1) rotate(0) translate(4 212)">
<title>Parser</title>
<polygon fill="white" stroke="none" points="-4,4 -4,-212 111,-212 111,4 -4,4"/>
<!-- Node1 -->
<g id="node1" class="node"><title>Node1</title>
<polygon fill="#bfbfbf" stroke="black" points="-0.5,-0.5 -0.5,-79.5 104.5,-79.5 104.5,-0.5 -0.5,-0.5"/>
<text text-anchor="middle" x="52" y="-67.5" font-family="Helvetica,sans-Serif" font-size="10.00">Parser</text>
<polyline fill="none" stroke="black" points="-0.5,-60.5 104.5,-60.5 "/>
<text text-anchor="middle" x="52" y="-48.5" font-family="Helvetica,sans-Serif" font-size="10.00"> </text>
<polyline fill="none" stroke="black" points="-0.5,-41.5 104.5,-41.5 "/>
<text text-anchor="start" x="7.5" y="-29.5" font-family="Helvetica,sans-Serif" font-size="10.00">+ Parser()</text>
<text text-anchor="start" x="7.5" y="-18.5" font-family="Helvetica,sans-Serif" font-size="10.00">+ getCommand()</text>
<text text-anchor="start" x="7.5" y="-7.5" font-family="Helvetica,sans-Serif" font-size="10.00">+ showCommands()</text>
</g>
<!-- Node2 -->
<g id="node2" class="node"><title>Node2</title>
<g id="a_node2"><a xlink:href="classCommandWords.html" target="_top" xlink:title="{CommandWords\n|&#45; knownCommands\l|+ CommandWords()\l+ isCommand()\l+ getCommandList()\l}">
<polygon fill="white" stroke="black" points="-1,-128.5 -1,-207.5 105,-207.5 105,-128.5 -1,-128.5"/>
<text text-anchor="middle" x="52" y="-195.5" font-family="Helvetica,sans-Serif" font-size="10.00">CommandWords</text>
<polyline fill="none" stroke="black" points="-1,-188.5 105,-188.5 "/>
<text text-anchor="start" x="7" y="-176.5" font-family="Helvetica,sans-Serif" font-size="10.00">&#45; knownCommands</text>
<polyline fill="none" stroke="black" points="-1,-169.5 105,-169.5 "/>
<text text-anchor="start" x="7" y="-157.5" font-family="Helvetica,sans-Serif" font-size="10.00">+ CommandWords()</text>
<text text-anchor="start" x="7" y="-146.5" font-family="Helvetica,sans-Serif" font-size="10.00">+ isCommand()</text>
<text text-anchor="start" x="7" y="-135.5" font-family="Helvetica,sans-Serif" font-size="10.00">+ getCommandList()</text>
</a>
</g>
</g>
<!-- Node2&#45;&gt;Node1 -->
<g id="edge1" class="edge"><title>Node2&#45;&gt;Node1</title>
<path fill="none" stroke="#404040" d="M52,-128.168C52,-116.79 52,-104.174 52,-92.1539"/>
<polygon fill="none" stroke="#404040" points="52.0001,-91.9209 48,-85.921 52,-79.9209 56,-85.9209 52.0001,-91.9209"/>
<text text-anchor="middle" x="79.5" y="-101.5" font-family="Helvetica,sans-Serif" font-size="10.00"> &#45;commands</text>
</g>
</g>
</svg>
