<?xml version="1.0" encoding="UTF-8" standalone="no"?>
<!DOCTYPE svg PUBLIC "-//W3C//DTD SVG 1.1//EN"
 "http://www.w3.org/Graphics/SVG/1.1/DTD/svg11.dtd">
<!-- Generated by graphviz version 2.36.0 (20140111.2315)
 -->
<!-- Title: LookCommand.execute Pages: 1 -->
<svg width="292pt" height="142pt"
 viewBox="0.00 0.00 292.00 142.00" xmlns="http://www.w3.org/2000/svg" xmlns:xlink="http://www.w3.org/1999/xlink">
<g id="graph0" class="graph" transform="scale(1 1) rotate(0) translate(4 138)">
<title>LookCommand.execute</title>
<polygon fill="white" stroke="none" points="-4,4 -4,-138 288,-138 288,4 -4,4"/>
<!-- Node1 -->
<g id="node1" class="node"><title>Node1</title>
<polygon fill="#bfbfbf" stroke="black" points="0,-57.5 0,-76.5 120,-76.5 120,-57.5 0,-57.5"/>
<text text-anchor="middle" x="60" y="-64.5" font-family="Helvetica,sans-Serif" font-size="10.00">LookCommand.execute</text>
</g>
<!-- Node2 -->
<g id="node2" class="node"><title>Node2</title>
<g id="a_node2"><a xlink:href="classCommand.html#a1ced3739d546770ba1389e6ce228255e" target="_top" xlink:title="Parameter field getter. ">
<polygon fill="white" stroke="black" points="158.5,-114.5 158.5,-133.5 281.5,-133.5 281.5,-114.5 158.5,-114.5"/>
<text text-anchor="middle" x="220" y="-121.5" font-family="Helvetica,sans-Serif" font-size="10.00">Command.getParameter</text>
</a>
</g>
</g>
<!-- Node1&#45;&gt;Node2 -->
<g id="edge1" class="edge"><title>Node1&#45;&gt;Node2</title>
<path fill="none" stroke="midnightblue" d="M83.4392,-76.6219C102.558,-84.6636 130.851,-96.1968 156,-105 162.375,-107.232 169.166,-109.446 175.841,-111.532"/>
<polygon fill="midnightblue" stroke="midnightblue" points="174.888,-114.9 185.474,-114.483 176.938,-108.207 174.888,-114.9"/>
</g>
<!-- Node3 -->
<g id="node3" class="node"><title>Node3</title>
<g id="a_node3"><a xlink:href="classCommand.html#a9b042558156d6749566e0fd9d48d3bfe" target="_top" xlink:title="Return true if the parameter is null. ">
<polygon fill="white" stroke="black" points="157.5,-76.5 157.5,-95.5 282.5,-95.5 282.5,-76.5 157.5,-76.5"/>
<text text-anchor="middle" x="220" y="-83.5" font-family="Helvetica,sans-Serif" font-size="10.00">Command.hasParameter</text>
</a>
</g>
</g>
<!-- Node1&#45;&gt;Node3 -->
<g id="edge2" class="edge"><title>Node1&#45;&gt;Node3</title>
<path fill="none" stroke="midnightblue" d="M120.283,-74.129C129.063,-75.1847 138.189,-76.2823 147.191,-77.3647"/>
<polygon fill="midnightblue" stroke="midnightblue" points="146.929,-80.8583 157.275,-78.5774 147.764,-73.9084 146.929,-80.8583"/>
</g>
<!-- Node4 -->
<g id="node4" class="node"><title>Node4</title>
<g id="a_node4"><a xlink:href="classCommand.html#a715709d8f0ab65879d79ad1725c96f17" target="_top" xlink:title="Message field setter. ">
<polygon fill="white" stroke="black" points="161,-38.5 161,-57.5 279,-57.5 279,-38.5 161,-38.5"/>
<text text-anchor="middle" x="220" y="-45.5" font-family="Helvetica,sans-Serif" font-size="10.00">Command.setMessage</text>
</a>
</g>
</g>
<!-- Node1&#45;&gt;Node4 -->
<g id="edge3" class="edge"><title>Node1&#45;&gt;Node4</title>
<path fill="none" stroke="midnightblue" d="M120.283,-59.871C130.265,-58.6706 140.696,-57.4163 150.881,-56.1915"/>
<polygon fill="midnightblue" stroke="midnightblue" points="151.448,-59.6486 160.959,-54.9796 150.612,-52.6987 151.448,-59.6486"/>
</g>
<!-- Node5 -->
<g id="node5" class="node"><title>Node5</title>
<g id="a_node5"><a xlink:href="classLookCommand.html#ad96c354dee73acf189f99e988a796bc7" target="_top" xlink:title="Return a given Item&#39;s description. ">
<polygon fill="white" stroke="black" points="156,-0.5 156,-19.5 284,-19.5 284,-0.5 156,-0.5"/>
<text text-anchor="middle" x="220" y="-7.5" font-family="Helvetica,sans-Serif" font-size="10.00">LookCommand.showItem</text>
</a>
</g>
</g>
<!-- Node1&#45;&gt;Node5 -->
<g id="edge4" class="edge"><title>Node1&#45;&gt;Node5</title>
<path fill="none" stroke="midnightblue" d="M83.4392,-57.3781C102.558,-49.3364 130.851,-37.8032 156,-29 162.375,-26.7684 169.166,-24.5542 175.841,-22.4683"/>
<polygon fill="midnightblue" stroke="midnightblue" points="176.938,-25.7927 185.474,-19.5169 174.888,-19.0997 176.938,-25.7927"/>
</g>
</g>
</svg>
