<?xml version="1.0" encoding="UTF-8" standalone="no"?>
<!DOCTYPE svg PUBLIC "-//W3C//DTD SVG 1.1//EN"
 "http://www.w3.org/Graphics/SVG/1.1/DTD/svg11.dtd">
<!-- Generated by graphviz version 2.36.0 (20140111.2315)
 -->
<!-- Title: pkg_commands.GoCommand.goRoomCheck Pages: 1 -->
<svg width="552pt" height="136pt"
 viewBox="0.00 0.00 552.00 136.00" xmlns="http://www.w3.org/2000/svg" xmlns:xlink="http://www.w3.org/1999/xlink">
<g id="graph0" class="graph" transform="scale(1 1) rotate(0) translate(4 132)">
<title>pkg_commands.GoCommand.goRoomCheck</title>
<polygon fill="white" stroke="none" points="-4,4 -4,-132 548,-132 548,4 -4,4"/>
<!-- Node1 -->
<g id="node1" class="node"><title>Node1</title>
<polygon fill="#bfbfbf" stroke="black" points="0,-49 0,-79 160,-79 160,-49 0,-49"/>
<text text-anchor="start" x="8" y="-67" font-family="Helvetica,sans-Serif" font-size="10.00">pkg_commands.GoCommand.go</text>
<text text-anchor="middle" x="80" y="-56" font-family="Helvetica,sans-Serif" font-size="10.00">RoomCheck</text>
</g>
<!-- Node2 -->
<g id="node2" class="node"><title>Node2</title>
<g id="a_node2"><a xlink:href="classpkg__commands_1_1GoCommand.html#a210afbc5f3ef34d3ad5759d853c8f8c2" target="_top" xlink:title="Go to the Room without checking. ">
<polygon fill="white" stroke="black" points="196,-49 196,-79 356,-79 356,-49 196,-49"/>
<text text-anchor="start" x="204" y="-67" font-family="Helvetica,sans-Serif" font-size="10.00">pkg_commands.GoCommand.go</text>
<text text-anchor="middle" x="276" y="-56" font-family="Helvetica,sans-Serif" font-size="10.00">RoomNoCheck</text>
</a>
</g>
</g>
<!-- Node1&#45;&gt;Node2 -->
<g id="edge1" class="edge"><title>Node1&#45;&gt;Node2</title>
<path fill="none" stroke="midnightblue" d="M160.187,-64C168.529,-64 177.054,-64 185.502,-64"/>
<polygon fill="midnightblue" stroke="midnightblue" points="185.752,-67.5001 195.752,-64 185.752,-60.5001 185.752,-67.5001"/>
</g>
<!-- Node3 -->
<g id="node3" class="node"><title>Node3</title>
<g id="a_node3"><a xlink:href="classpkg__commands_1_1Command.html#ae210ff216fe908b111ba1c988a963d13" target="_top" xlink:title="Message field setter. ">
<polygon fill="white" stroke="black" points="393,-98 393,-128 543,-128 543,-98 393,-98"/>
<text text-anchor="start" x="401" y="-116" font-family="Helvetica,sans-Serif" font-size="10.00">pkg_commands.Command.set</text>
<text text-anchor="middle" x="468" y="-105" font-family="Helvetica,sans-Serif" font-size="10.00">Message</text>
</a>
</g>
</g>
<!-- Node2&#45;&gt;Node3 -->
<g id="edge2" class="edge"><title>Node2&#45;&gt;Node3</title>
<path fill="none" stroke="midnightblue" d="M335.297,-79.0346C355.45,-84.2318 378.206,-90.1006 399.064,-95.4796"/>
<polygon fill="midnightblue" stroke="midnightblue" points="398.256,-98.8856 408.813,-97.9938 400.004,-92.1074 398.256,-98.8856"/>
</g>
<!-- Node4 -->
<g id="node4" class="node"><title>Node4</title>
<g id="a_node4"><a xlink:href="classpkg__commands_1_1Command.html#ae46bb048d0fa705a5037a5204b530da2" target="_top" xlink:title="Return true if the message is equal to null or &quot;&quot;. ">
<polygon fill="white" stroke="black" points="392,-49 392,-79 544,-79 544,-49 392,-49"/>
<text text-anchor="start" x="400" y="-67" font-family="Helvetica,sans-Serif" font-size="10.00">pkg_commands.Command.has</text>
<text text-anchor="middle" x="468" y="-56" font-family="Helvetica,sans-Serif" font-size="10.00">Message</text>
</a>
</g>
</g>
<!-- Node2&#45;&gt;Node4 -->
<g id="edge3" class="edge"><title>Node2&#45;&gt;Node4</title>
<path fill="none" stroke="midnightblue" d="M356.201,-64C364.599,-64 373.165,-64 381.629,-64"/>
<polygon fill="midnightblue" stroke="midnightblue" points="381.884,-67.5001 391.884,-64 381.883,-60.5001 381.884,-67.5001"/>
</g>
<!-- Node5 -->
<g id="node5" class="node"><title>Node5</title>
<g id="a_node5"><a xlink:href="classpkg__commands_1_1Command.html#ac2a42e2bab264821892daefaf9a18b6c" target="_top" xlink:title="Message field getter. ">
<polygon fill="white" stroke="black" points="393,-0 393,-30 543,-30 543,-0 393,-0"/>
<text text-anchor="start" x="401" y="-18" font-family="Helvetica,sans-Serif" font-size="10.00">pkg_commands.Command.get</text>
<text text-anchor="middle" x="468" y="-7" font-family="Helvetica,sans-Serif" font-size="10.00">Message</text>
</a>
</g>
</g>
<!-- Node2&#45;&gt;Node5 -->
<g id="edge4" class="edge"><title>Node2&#45;&gt;Node5</title>
<path fill="none" stroke="midnightblue" d="M335.297,-48.9654C355.45,-43.7682 378.206,-37.8994 399.064,-32.5204"/>
<polygon fill="midnightblue" stroke="midnightblue" points="400.004,-35.8926 408.813,-30.0062 398.256,-29.1144 400.004,-35.8926"/>
</g>
</g>
</svg>
