<?xml version="1.0" encoding="UTF-8" standalone="no"?>
<!DOCTYPE svg PUBLIC "-//W3C//DTD SVG 1.1//EN"
 "http://www.w3.org/Graphics/SVG/1.1/DTD/svg11.dtd">
<!-- Generated by graphviz version 2.36.0 (20140111.2315)
 -->
<!-- Title: Command.setMessage Pages: 1 -->
<svg width="668pt" height="456pt"
 viewBox="0.00 0.00 668.00 456.14" xmlns="http://www.w3.org/2000/svg" xmlns:xlink="http://www.w3.org/1999/xlink">
<g id="graph0" class="graph" transform="scale(1 1) rotate(0) translate(4 452.143)">
<title>Command.setMessage</title>
<polygon fill="white" stroke="none" points="-4,4 -4,-452.143 664,-452.143 664,4 -4,4"/>
<!-- Node1 -->
<g id="node1" class="node"><title>Node1</title>
<polygon fill="#bfbfbf" stroke="black" points="0,-226.507 0,-245.507 118,-245.507 118,-226.507 0,-226.507"/>
<text text-anchor="middle" x="59" y="-233.507" font-family="Helvetica,sans-Serif" font-size="10.00">Command.setMessage</text>
</g>
<!-- Node2 -->
<g id="node2" class="node"><title>Node2</title>
<g id="a_node2"><a xlink:href="classBeamerCommand.html#a130a572b2ec0532c92ea5033a098b1ac" target="_top" xlink:title="Remember the current room. ">
<polygon fill="white" stroke="black" points="354,-340.507 354,-359.507 482,-359.507 482,-340.507 354,-340.507"/>
<text text-anchor="middle" x="418" y="-347.507" font-family="Helvetica,sans-Serif" font-size="10.00">BeamerCommand.charge</text>
</a>
</g>
</g>
<!-- Node1&#45;&gt;Node2 -->
<g id="edge1" class="edge"><title>Node1&#45;&gt;Node2</title>
<path fill="none" stroke="midnightblue" d="M62.9144,-255.83C70.0541,-296.308 92.5569,-387.854 154,-426.007 212.901,-462.582 243.946,-447.078 310,-426.007 351.462,-412.781 390.617,-376.985 407.827,-359.66"/>
<polygon fill="midnightblue" stroke="midnightblue" points="66.3516,-255.161 61.2884,-245.854 59.4428,-256.287 66.3516,-255.161"/>
</g>
<!-- Node4 -->
<g id="node4" class="node"><title>Node4</title>
<g id="a_node4"><a xlink:href="classInventoryCommand.html#a103714a9704895e9d8ddd5bcd758e5f8" target="_top" xlink:title="Save the inventory into the message field. ">
<polygon fill="white" stroke="black" points="162,-397.507 162,-416.507 302,-416.507 302,-397.507 162,-397.507"/>
<text text-anchor="middle" x="232" y="-404.507" font-family="Helvetica,sans-Serif" font-size="10.00">InventoryCommand.execute</text>
</a>
</g>
</g>
<!-- Node1&#45;&gt;Node4 -->
<g id="edge3" class="edge"><title>Node1&#45;&gt;Node4</title>
<path fill="none" stroke="midnightblue" d="M66.4356,-255.333C78.3241,-287.949 106.904,-353.709 154,-388.007 159.343,-391.898 165.389,-394.997 171.687,-397.466"/>
<polygon fill="midnightblue" stroke="midnightblue" points="69.6486,-253.918 63.0412,-245.636 63.0417,-256.231 69.6486,-253.918"/>
</g>
<!-- Node5 -->
<g id="node5" class="node"><title>Node5</title>
<g id="a_node5"><a xlink:href="classCreditsCommand.html#a9b62dcc70ff908b31d84c0c203185889" target="_top" xlink:title="Save the credits into the message field. ">
<polygon fill="white" stroke="black" points="166.5,-359.507 166.5,-378.507 297.5,-378.507 297.5,-359.507 166.5,-359.507"/>
<text text-anchor="middle" x="232" y="-366.507" font-family="Helvetica,sans-Serif" font-size="10.00">CreditsCommand.execute</text>
</a>
</g>
</g>
<!-- Node1&#45;&gt;Node5 -->
<g id="edge4" class="edge"><title>Node1&#45;&gt;Node5</title>
<path fill="none" stroke="midnightblue" d="M70.0403,-254.436C84.9252,-279.957 115.302,-325.66 154,-350.007 160.177,-353.893 167.096,-356.985 174.186,-359.444"/>
<polygon fill="midnightblue" stroke="midnightblue" points="73.0828,-252.706 65.109,-245.73 66.992,-256.156 73.0828,-252.706"/>
</g>
<!-- Node6 -->
<g id="node6" class="node"><title>Node6</title>
<g id="a_node6"><a xlink:href="classLookCommand.html#a3b67eafb4956b1369904b273303ee7df" target="_top" xlink:title="Saves the information about the current Room or a given Item in the message field. ">
<polygon fill="white" stroke="black" points="172,-321.507 172,-340.507 292,-340.507 292,-321.507 172,-321.507"/>
<text text-anchor="middle" x="232" y="-328.507" font-family="Helvetica,sans-Serif" font-size="10.00">LookCommand.execute</text>
</a>
</g>
</g>
<!-- Node1&#45;&gt;Node6 -->
<g id="edge5" class="edge"><title>Node1&#45;&gt;Node6</title>
<path fill="none" stroke="midnightblue" d="M76.0629,-252.776C93.6198,-270.131 123.356,-296.79 154,-312.007 161.769,-315.865 170.378,-318.975 178.942,-321.471"/>
<polygon fill="midnightblue" stroke="midnightblue" points="78.4155,-250.177 68.8938,-245.531 73.4397,-255.101 78.4155,-250.177"/>
</g>
<!-- Node7 -->
<g id="node7" class="node"><title>Node7</title>
<g id="a_node7"><a xlink:href="classDropCommand.html#a52432de0841ff8eb85d4f115965aecd1" target="_top" xlink:title="Drop the Item through it&#39;s name in the parameter field. ">
<polygon fill="white" stroke="black" points="172,-283.507 172,-302.507 292,-302.507 292,-283.507 172,-283.507"/>
<text text-anchor="middle" x="232" y="-290.507" font-family="Helvetica,sans-Serif" font-size="10.00">DropCommand.execute</text>
</a>
</g>
</g>
<!-- Node1&#45;&gt;Node7 -->
<g id="edge6" class="edge"><title>Node1&#45;&gt;Node7</title>
<path fill="none" stroke="midnightblue" d="M90.5648,-249.65C108.754,-257.443 132.423,-267.023 154,-274.007 164.742,-277.484 176.502,-280.683 187.527,-283.425"/>
<polygon fill="midnightblue" stroke="midnightblue" points="91.8997,-246.414 81.3327,-245.646 89.1148,-252.836 91.8997,-246.414"/>
</g>
<!-- Node8 -->
<g id="node8" class="node"><title>Node8</title>
<g id="a_node8"><a xlink:href="classTakeCommand.html#af316002e14bb3253d24bcb03282213ee" target="_top" xlink:title="Make the player take an Item. ">
<polygon fill="white" stroke="black" points="171.5,-245.507 171.5,-264.507 292.5,-264.507 292.5,-245.507 171.5,-245.507"/>
<text text-anchor="middle" x="232" y="-252.507" font-family="Helvetica,sans-Serif" font-size="10.00">TakeCommand.execute</text>
</a>
</g>
</g>
<!-- Node1&#45;&gt;Node8 -->
<g id="edge7" class="edge"><title>Node1&#45;&gt;Node8</title>
<path fill="none" stroke="midnightblue" d="M128.566,-243.625C142.759,-245.202 157.6,-246.851 171.439,-248.389"/>
<polygon fill="midnightblue" stroke="midnightblue" points="128.696,-240.118 118.37,-242.493 127.923,-247.076 128.696,-240.118"/>
</g>
<!-- Node9 -->
<g id="node9" class="node"><title>Node9</title>
<g id="a_node9"><a xlink:href="classGoCommand.html#a77a61c2a3b89dca45b51e06f3bcb3ba7" target="_top" xlink:title="Make the player go to the Room through it&#39;s direction in the parameter field. ">
<polygon fill="white" stroke="black" points="537,-36.5069 537,-55.5069 649,-55.5069 649,-36.5069 537,-36.5069"/>
<text text-anchor="middle" x="593" y="-43.5069" font-family="Helvetica,sans-Serif" font-size="10.00">GoCommand.execute</text>
</a>
</g>
</g>
<!-- Node1&#45;&gt;Node9 -->
<g id="edge8" class="edge"><title>Node1&#45;&gt;Node9</title>
<path fill="none" stroke="midnightblue" d="M62.9144,-216.183C70.0541,-175.705 92.5569,-84.1602 154,-46.0069 286.915,36.5273 489.106,-13.6058 563.361,-36.4669"/>
<polygon fill="midnightblue" stroke="midnightblue" points="59.4428,-215.727 61.2884,-226.159 66.3516,-216.853 59.4428,-215.727"/>
</g>
<!-- Node10 -->
<g id="node10" class="node"><title>Node10</title>
<g id="a_node10"><a xlink:href="classEatCommand.html#ab78ece6b005359a83696998a37f0ae71" target="_top" xlink:title="Make the player eat an object. ">
<polygon fill="white" stroke="black" points="175,-169.507 175,-188.507 289,-188.507 289,-169.507 175,-169.507"/>
<text text-anchor="middle" x="232" y="-176.507" font-family="Helvetica,sans-Serif" font-size="10.00">EatCommand.execute</text>
</a>
</g>
</g>
<!-- Node1&#45;&gt;Node10 -->
<g id="edge9" class="edge"><title>Node1&#45;&gt;Node10</title>
<path fill="none" stroke="midnightblue" d="M96.4144,-222.885C113.798,-216.708 134.922,-209.327 154,-203.007 168.887,-198.075 185.486,-192.865 199.45,-188.564"/>
<polygon fill="midnightblue" stroke="midnightblue" points="94.8984,-219.71 86.6555,-226.366 97.2501,-226.303 94.8984,-219.71"/>
</g>
<!-- Node11 -->
<g id="node11" class="node"><title>Node11</title>
<g id="a_node11"><a xlink:href="classTestCommand.html#a2c5d98451d5cedb9297caae17378de63" target="_top" xlink:title="Test series of Commands stored in a .test file and store the messages in the message field...">
<polygon fill="white" stroke="black" points="172.5,-131.507 172.5,-150.507 291.5,-150.507 291.5,-131.507 172.5,-131.507"/>
<text text-anchor="middle" x="232" y="-138.507" font-family="Helvetica,sans-Serif" font-size="10.00">TestCommand.execute</text>
</a>
</g>
</g>
<!-- Node1&#45;&gt;Node11 -->
<g id="edge10" class="edge"><title>Node1&#45;&gt;Node11</title>
<path fill="none" stroke="midnightblue" d="M76.0629,-219.238C93.6198,-201.883 123.356,-175.224 154,-160.007 161.769,-156.149 170.378,-153.039 178.942,-150.543"/>
<polygon fill="midnightblue" stroke="midnightblue" points="73.4397,-216.913 68.8938,-226.483 78.4155,-221.837 73.4397,-216.913"/>
</g>
<!-- Node12 -->
<g id="node12" class="node"><title>Node12</title>
<g id="a_node12"><a xlink:href="classHelpCommand.html#ac93c4d17e1bed11f86d0f3c21ba00e34" target="_top" xlink:title="Saves user&#39;s help in the parameter field. ">
<polygon fill="white" stroke="black" points="172.5,-93.5069 172.5,-112.507 291.5,-112.507 291.5,-93.5069 172.5,-93.5069"/>
<text text-anchor="middle" x="232" y="-100.507" font-family="Helvetica,sans-Serif" font-size="10.00">HelpCommand.execute</text>
</a>
</g>
</g>
<!-- Node1&#45;&gt;Node12 -->
<g id="edge11" class="edge"><title>Node1&#45;&gt;Node12</title>
<path fill="none" stroke="midnightblue" d="M70.0403,-217.578C84.9252,-192.057 115.302,-146.354 154,-122.007 160.177,-118.121 167.096,-115.029 174.186,-112.57"/>
<polygon fill="midnightblue" stroke="midnightblue" points="66.992,-215.858 65.109,-226.284 73.0828,-219.308 66.992,-215.858"/>
</g>
<!-- Node13 -->
<g id="node13" class="node"><title>Node13</title>
<g id="a_node13"><a xlink:href="classGoCommand.html#a3149bf695c19b78c39cfc4dadece7846" target="_top" xlink:title="Go to the Room without checking. ">
<polygon fill="white" stroke="black" points="154.5,-55.5069 154.5,-74.5069 309.5,-74.5069 309.5,-55.5069 154.5,-55.5069"/>
<text text-anchor="middle" x="232" y="-62.5069" font-family="Helvetica,sans-Serif" font-size="10.00">GoCommand.goRoomNoCheck</text>
</a>
</g>
</g>
<!-- Node1&#45;&gt;Node13 -->
<g id="edge12" class="edge"><title>Node1&#45;&gt;Node13</title>
<path fill="none" stroke="midnightblue" d="M66.4356,-216.681C78.3241,-184.065 106.904,-118.304 154,-84.0069 159.343,-80.1162 165.389,-77.0166 171.687,-74.5481"/>
<polygon fill="midnightblue" stroke="midnightblue" points="63.0417,-215.783 63.0412,-226.378 69.6486,-218.096 63.0417,-215.783"/>
</g>
<!-- Node14 -->
<g id="node14" class="node"><title>Node14</title>
<g id="a_node14"><a xlink:href="classBeamerCommand.html#a1f19366fb8b873959f72f38d49d5b178" target="_top" xlink:title="Teleport the player to the remembered room. ">
<polygon fill="white" stroke="black" points="352.5,-207.507 352.5,-226.507 483.5,-226.507 483.5,-207.507 352.5,-207.507"/>
<text text-anchor="middle" x="418" y="-214.507" font-family="Helvetica,sans-Serif" font-size="10.00">BeamerCommand.teleport</text>
</a>
</g>
</g>
<!-- Node1&#45;&gt;Node14 -->
<g id="edge17" class="edge"><title>Node1&#45;&gt;Node14</title>
<path fill="none" stroke="midnightblue" d="M128.226,-232.376C192.744,-228.942 288.862,-223.827 352.222,-220.454"/>
<polygon fill="midnightblue" stroke="midnightblue" points="127.953,-228.885 118.153,-232.912 128.325,-235.875 127.953,-228.885"/>
</g>
<!-- Node3 -->
<g id="node3" class="node"><title>Node3</title>
<g id="a_node3"><a xlink:href="classBeamerCommand.html#ab28a7d743569841e463b2c0c65cf6eb1" target="_top" xlink:title="Teleport to the remembered room or remember a room. ">
<polygon fill="white" stroke="black" points="526.5,-273.507 526.5,-292.507 659.5,-292.507 659.5,-273.507 526.5,-273.507"/>
<text text-anchor="middle" x="593" y="-280.507" font-family="Helvetica,sans-Serif" font-size="10.00">BeamerCommand.execute</text>
</a>
</g>
</g>
<!-- Node2&#45;&gt;Node3 -->
<g id="edge2" class="edge"><title>Node2&#45;&gt;Node3</title>
<path fill="none" stroke="midnightblue" d="M453.216,-336.756C486.845,-323.732 537.348,-304.173 567.259,-292.589"/>
<polygon fill="midnightblue" stroke="midnightblue" points="451.848,-333.532 443.787,-340.407 454.376,-340.06 451.848,-333.532"/>
</g>
<!-- Node13&#45;&gt;Node14 -->
<g id="edge13" class="edge"><title>Node13&#45;&gt;Node14</title>
<path fill="none" stroke="midnightblue" d="M299.846,-78.5087C303.381,-80.1371 306.793,-81.962 310,-84.0069 361.225,-116.669 399.024,-182.307 412.051,-207.163"/>
<polygon fill="midnightblue" stroke="midnightblue" points="300.842,-75.1363 290.259,-74.6405 298.223,-81.6278 300.842,-75.1363"/>
</g>
<!-- Node15 -->
<g id="node15" class="node"><title>Node15</title>
<g id="a_node15"><a xlink:href="classGoCommand.html#a1fce2ad8ed1faf41fa300064585b3616" target="_top" xlink:title="Check if the wanted Room is connected to the current Room and go to this room. ">
<polygon fill="white" stroke="black" points="346.5,-55.5069 346.5,-74.5069 489.5,-74.5069 489.5,-55.5069 346.5,-55.5069"/>
<text text-anchor="middle" x="418" y="-62.5069" font-family="Helvetica,sans-Serif" font-size="10.00">GoCommand.goRoomCheck</text>
</a>
</g>
</g>
<!-- Node13&#45;&gt;Node15 -->
<g id="edge15" class="edge"><title>Node13&#45;&gt;Node15</title>
<path fill="none" stroke="midnightblue" d="M319.714,-65.0069C328.623,-65.0069 337.6,-65.0069 346.306,-65.0069"/>
<polygon fill="midnightblue" stroke="midnightblue" points="319.7,-61.507 309.7,-65.0069 319.7,-68.507 319.7,-61.507"/>
</g>
<!-- Node14&#45;&gt;Node3 -->
<g id="edge14" class="edge"><title>Node14&#45;&gt;Node3</title>
<path fill="none" stroke="midnightblue" d="M453.576,-230.198C487.143,-243.004 537.27,-262.127 567.095,-273.505"/>
<polygon fill="midnightblue" stroke="midnightblue" points="454.746,-226.898 444.156,-226.604 452.251,-233.439 454.746,-226.898"/>
</g>
<!-- Node15&#45;&gt;Node9 -->
<g id="edge16" class="edge"><title>Node15&#45;&gt;Node9</title>
<path fill="none" stroke="midnightblue" d="M499.86,-56.1264C512.39,-54.7503 525.078,-53.3567 536.868,-52.0619"/>
<polygon fill="midnightblue" stroke="midnightblue" points="499.423,-52.6532 489.865,-57.2241 500.187,-59.6114 499.423,-52.6532"/>
</g>
</g>
</svg>
