<?xml version="1.0" encoding="UTF-8" standalone="no"?>
<!DOCTYPE svg PUBLIC "-//W3C//DTD SVG 1.1//EN"
 "http://www.w3.org/Graphics/SVG/1.1/DTD/svg11.dtd">
<!-- Generated by graphviz version 2.36.0 (20140111.2315)
 -->
<!-- Title: GameEngine.processCommand Pages: 1 -->
<svg width="660pt" height="256pt"
 viewBox="0.00 0.00 660.00 256.00" xmlns="http://www.w3.org/2000/svg" xmlns:xlink="http://www.w3.org/1999/xlink">
<g id="graph0" class="graph" transform="scale(1 1) rotate(0) translate(4 252)">
<title>GameEngine.processCommand</title>
<polygon fill="white" stroke="none" points="-4,4 -4,-252 656,-252 656,4 -4,4"/>
<!-- Node1 -->
<g id="node1" class="node"><title>Node1</title>
<polygon fill="#bfbfbf" stroke="black" points="0.5,-114.5 0.5,-133.5 155.5,-133.5 155.5,-114.5 0.5,-114.5"/>
<text text-anchor="middle" x="78" y="-121.5" font-family="Helvetica,sans-Serif" font-size="10.00">GameEngine.processCommand</text>
</g>
<!-- Node2 -->
<g id="node2" class="node"><title>Node2</title>
<g id="a_node2"><a xlink:href="classGameEngine.html#abebbf1bda82aa3ca162f7187a64e41ed" target="_top" xlink:title="GameEngine.endGame">
<polygon fill="white" stroke="black" points="196,-228.5 196,-247.5 314,-247.5 314,-228.5 196,-228.5"/>
<text text-anchor="middle" x="255" y="-235.5" font-family="Helvetica,sans-Serif" font-size="10.00">GameEngine.endGame</text>
</a>
</g>
</g>
<!-- Node1&#45;&gt;Node2 -->
<g id="edge1" class="edge"><title>Node1&#45;&gt;Node2</title>
<path fill="none" stroke="midnightblue" d="M87.712,-133.543C105.513,-152.498 148.097,-195.117 192,-219 196.002,-221.177 200.288,-223.141 204.669,-224.904"/>
<polygon fill="midnightblue" stroke="midnightblue" points="203.741,-228.292 214.335,-228.449 206.151,-221.72 203.741,-228.292"/>
</g>
<!-- Node3 -->
<g id="node3" class="node"><title>Node3</title>
<g id="a_node3"><a xlink:href="classGameEngine.html#ac22dcdb540cb27f39597ee4f03ad167a" target="_top" xlink:title="GameEngine.goBack">
<polygon fill="white" stroke="black" points="200.5,-190.5 200.5,-209.5 309.5,-209.5 309.5,-190.5 200.5,-190.5"/>
<text text-anchor="middle" x="255" y="-197.5" font-family="Helvetica,sans-Serif" font-size="10.00">GameEngine.goBack</text>
</a>
</g>
</g>
<!-- Node1&#45;&gt;Node3 -->
<g id="edge2" class="edge"><title>Node1&#45;&gt;Node3</title>
<path fill="none" stroke="midnightblue" d="M98.8376,-133.582C121.273,-144.313 158.986,-162.03 192,-176 200.573,-179.628 209.897,-183.351 218.649,-186.751"/>
<polygon fill="midnightblue" stroke="midnightblue" points="217.626,-190.107 228.216,-190.429 220.138,-183.574 217.626,-190.107"/>
</g>
<!-- Node4 -->
<g id="node4" class="node"><title>Node4</title>
<g id="a_node4"><a xlink:href="classGameEngine.html#a2ec577574f345764435837fc0204b2e0" target="_top" xlink:title="GameEngine.goRoom">
<polygon fill="white" stroke="black" points="362.5,-190.5 362.5,-209.5 475.5,-209.5 475.5,-190.5 362.5,-190.5"/>
<text text-anchor="middle" x="419" y="-197.5" font-family="Helvetica,sans-Serif" font-size="10.00">GameEngine.goRoom</text>
</a>
</g>
</g>
<!-- Node1&#45;&gt;Node4 -->
<g id="edge4" class="edge"><title>Node1&#45;&gt;Node4</title>
<path fill="none" stroke="midnightblue" d="M121.591,-133.548C183.583,-147.446 298.568,-173.225 365.645,-188.263"/>
<polygon fill="midnightblue" stroke="midnightblue" points="365.059,-191.718 375.583,-190.491 366.591,-184.888 365.059,-191.718"/>
</g>
<!-- Node5 -->
<g id="node5" class="node"><title>Node5</title>
<g id="a_node5"><a xlink:href="classGameEngine.html#ab620e2e6c8627aba28cc2c33fefe50e3" target="_top" xlink:title="GameEngine.lookAround">
<polygon fill="white" stroke="black" points="192.5,-114.5 192.5,-133.5 317.5,-133.5 317.5,-114.5 192.5,-114.5"/>
<text text-anchor="middle" x="255" y="-121.5" font-family="Helvetica,sans-Serif" font-size="10.00">GameEngine.lookAround</text>
</a>
</g>
</g>
<!-- Node1&#45;&gt;Node5 -->
<g id="edge5" class="edge"><title>Node1&#45;&gt;Node5</title>
<path fill="none" stroke="midnightblue" d="M155.503,-124C164.361,-124 173.372,-124 182.165,-124"/>
<polygon fill="midnightblue" stroke="midnightblue" points="182.364,-127.5 192.364,-124 182.364,-120.5 182.364,-127.5"/>
</g>
<!-- Node10 -->
<g id="node10" class="node"><title>Node10</title>
<g id="a_node10"><a xlink:href="classUserInterface.html#a79f606b4b1f5d1523e50eea00039ed94" target="_top" xlink:title="UserInterface.println">
<polygon fill="white" stroke="black" points="366.5,-76.5 366.5,-95.5 471.5,-95.5 471.5,-76.5 366.5,-76.5"/>
<text text-anchor="middle" x="419" y="-83.5" font-family="Helvetica,sans-Serif" font-size="10.00">UserInterface.println</text>
</a>
</g>
</g>
<!-- Node1&#45;&gt;Node10 -->
<g id="edge13" class="edge"><title>Node1&#45;&gt;Node10</title>
<path fill="none" stroke="midnightblue" d="M130.057,-114.495C149.407,-111.135 171.67,-107.559 192,-105 247.387,-98.0275 310.743,-92.9504 356.253,-89.8079"/>
<polygon fill="midnightblue" stroke="midnightblue" points="356.521,-93.2978 366.261,-89.1281 356.047,-86.3139 356.521,-93.2978"/>
</g>
<!-- Node11 -->
<g id="node11" class="node"><title>Node11</title>
<g id="a_node11"><a xlink:href="classGameEngine.html#a0cc83a912708431a667e73c9a8aa3698" target="_top" xlink:title="GameEngine.printCredits">
<polygon fill="white" stroke="black" points="192,-38.5 192,-57.5 318,-57.5 318,-38.5 192,-38.5"/>
<text text-anchor="middle" x="255" y="-45.5" font-family="Helvetica,sans-Serif" font-size="10.00">GameEngine.printCredits</text>
</a>
</g>
</g>
<!-- Node1&#45;&gt;Node11 -->
<g id="edge11" class="edge"><title>Node1&#45;&gt;Node11</title>
<path fill="none" stroke="midnightblue" d="M98.8376,-114.418C121.273,-103.687 158.986,-85.9703 192,-72 200.573,-68.3724 209.897,-64.6485 218.649,-61.2491"/>
<polygon fill="midnightblue" stroke="midnightblue" points="220.138,-64.4264 228.216,-57.5712 217.626,-57.8926 220.138,-64.4264"/>
</g>
<!-- Node12 -->
<g id="node12" class="node"><title>Node12</title>
<g id="a_node12"><a xlink:href="classGameEngine.html#a8959e384cc77e69ab0ce9da8ba5057cd" target="_top" xlink:title="GameEngine.printHelp">
<polygon fill="white" stroke="black" points="197.5,-0.5 197.5,-19.5 312.5,-19.5 312.5,-0.5 197.5,-0.5"/>
<text text-anchor="middle" x="255" y="-7.5" font-family="Helvetica,sans-Serif" font-size="10.00">GameEngine.printHelp</text>
</a>
</g>
</g>
<!-- Node1&#45;&gt;Node12 -->
<g id="edge12" class="edge"><title>Node1&#45;&gt;Node12</title>
<path fill="none" stroke="midnightblue" d="M87.712,-114.457C105.513,-95.5021 148.097,-52.8827 192,-29 196.002,-26.8229 200.288,-24.8593 204.669,-23.0961"/>
<polygon fill="midnightblue" stroke="midnightblue" points="206.151,-26.2803 214.335,-19.5512 203.741,-19.7083 206.151,-26.2803"/>
</g>
<!-- Node3&#45;&gt;Node4 -->
<g id="edge3" class="edge"><title>Node3&#45;&gt;Node4</title>
<path fill="none" stroke="midnightblue" d="M309.944,-200C323.498,-200 338.194,-200 352.253,-200"/>
<polygon fill="midnightblue" stroke="midnightblue" points="352.353,-203.5 362.353,-200 352.353,-196.5 352.353,-203.5"/>
</g>
<!-- Node6 -->
<g id="node6" class="node"><title>Node6</title>
<g id="a_node6"><a xlink:href="classRoom.html#a23a25854d7544fb0b41190a4d6bd1322" target="_top" xlink:title="Room.getLongDescription">
<polygon fill="white" stroke="black" points="354,-152.5 354,-171.5 484,-171.5 484,-152.5 354,-152.5"/>
<text text-anchor="middle" x="419" y="-159.5" font-family="Helvetica,sans-Serif" font-size="10.00">Room.getLongDescription</text>
</a>
</g>
</g>
<!-- Node5&#45;&gt;Node6 -->
<g id="edge6" class="edge"><title>Node5&#45;&gt;Node6</title>
<path fill="none" stroke="midnightblue" d="M296.879,-133.589C318.353,-138.626 344.86,-144.844 367.597,-150.177"/>
<polygon fill="midnightblue" stroke="midnightblue" points="366.879,-153.604 377.415,-152.48 368.478,-146.789 366.879,-153.604"/>
</g>
<!-- Node9 -->
<g id="node9" class="node"><title>Node9</title>
<g id="a_node9"><a xlink:href="classRoom.html#ad779b367b26018c9f343ca3044c4b54f" target="_top" xlink:title="Room.hasItem">
<polygon fill="white" stroke="black" points="378.5,-114.5 378.5,-133.5 459.5,-133.5 459.5,-114.5 378.5,-114.5"/>
<text text-anchor="middle" x="419" y="-121.5" font-family="Helvetica,sans-Serif" font-size="10.00">Room.hasItem</text>
</a>
</g>
</g>
<!-- Node5&#45;&gt;Node9 -->
<g id="edge9" class="edge"><title>Node5&#45;&gt;Node9</title>
<path fill="none" stroke="midnightblue" d="M317.707,-124C334.431,-124 352.32,-124 368.291,-124"/>
<polygon fill="midnightblue" stroke="midnightblue" points="368.477,-127.5 378.477,-124 368.477,-120.5 368.477,-127.5"/>
</g>
<!-- Node5&#45;&gt;Node10 -->
<g id="edge10" class="edge"><title>Node5&#45;&gt;Node10</title>
<path fill="none" stroke="midnightblue" d="M296.879,-114.411C318.353,-109.374 344.86,-103.156 367.597,-97.8229"/>
<polygon fill="midnightblue" stroke="midnightblue" points="368.478,-101.211 377.415,-95.5201 366.879,-94.3963 368.478,-101.211"/>
</g>
<!-- Node7 -->
<g id="node7" class="node"><title>Node7</title>
<g id="a_node7"><a xlink:href="classRoom.html#ab8a87ad306f77a936873094b479bcde8" target="_top" xlink:title="Room.getHumanItemsList">
<polygon fill="white" stroke="black" points="520.5,-171.5 520.5,-190.5 651.5,-190.5 651.5,-171.5 520.5,-171.5"/>
<text text-anchor="middle" x="586" y="-178.5" font-family="Helvetica,sans-Serif" font-size="10.00">Room.getHumanItemsList</text>
</a>
</g>
</g>
<!-- Node6&#45;&gt;Node7 -->
<g id="edge7" class="edge"><title>Node6&#45;&gt;Node7</title>
<path fill="none" stroke="midnightblue" d="M484.266,-169.4C492.786,-170.381 501.579,-171.394 510.256,-172.393"/>
<polygon fill="midnightblue" stroke="midnightblue" points="510.032,-175.89 520.367,-173.557 510.833,-168.936 510.032,-175.89"/>
</g>
<!-- Node8 -->
<g id="node8" class="node"><title>Node8</title>
<g id="a_node8"><a xlink:href="classRoom.html#a2ccc382c07890a9827be232767eb98a0" target="_top" xlink:title="Room.getExitString">
<polygon fill="white" stroke="black" points="535,-133.5 535,-152.5 637,-152.5 637,-133.5 535,-133.5"/>
<text text-anchor="middle" x="586" y="-140.5" font-family="Helvetica,sans-Serif" font-size="10.00">Room.getExitString</text>
</a>
</g>
</g>
<!-- Node6&#45;&gt;Node8 -->
<g id="edge8" class="edge"><title>Node6&#45;&gt;Node8</title>
<path fill="none" stroke="midnightblue" d="M484.266,-154.6C497.678,-153.055 511.766,-151.433 525.016,-149.907"/>
<polygon fill="midnightblue" stroke="midnightblue" points="525.425,-153.383 534.959,-148.762 524.624,-146.429 525.425,-153.383"/>
</g>
</g>
</svg>
