<?xml version="1.0" encoding="UTF-8" standalone="no"?>
<!DOCTYPE svg PUBLIC "-//W3C//DTD SVG 1.1//EN"
 "http://www.w3.org/Graphics/SVG/1.1/DTD/svg11.dtd">
<!-- Generated by graphviz version 2.36.0 (20140111.2315)
 -->
<!-- Title: HelpCommand Pages: 1 -->
<svg width="104pt" height="250pt"
 viewBox="0.00 0.00 104.00 250.00" xmlns="http://www.w3.org/2000/svg" xmlns:xlink="http://www.w3.org/1999/xlink">
<g id="graph0" class="graph" transform="scale(1 1) rotate(0) translate(4 246)">
<title>HelpCommand</title>
<polygon fill="white" stroke="none" points="-4,4 -4,-246 100,-246 100,4 -4,4"/>
<!-- Node1 -->
<g id="node1" class="node"><title>Node1</title>
<polygon fill="#bfbfbf" stroke="black" points="-0.5,-1 -0.5,-69 96.5,-69 96.5,-1 -0.5,-1"/>
<text text-anchor="middle" x="48" y="-57" font-family="Helvetica,sans-Serif" font-size="10.00">HelpCommand</text>
<polyline fill="none" stroke="black" points="-0.5,-50 96.5,-50 "/>
<text text-anchor="start" x="7.5" y="-38" font-family="Helvetica,sans-Serif" font-size="10.00">&#45; helpCount</text>
<polyline fill="none" stroke="black" points="-0.5,-31 96.5,-31 "/>
<text text-anchor="start" x="7.5" y="-19" font-family="Helvetica,sans-Serif" font-size="10.00">+ HelpCommand()</text>
<text text-anchor="start" x="7.5" y="-8" font-family="Helvetica,sans-Serif" font-size="10.00">+ execute()</text>
</g>
<!-- Node2 -->
<g id="node2" class="node"><title>Node2</title>
<g id="a_node2"><a xlink:href="classCommand.html" target="_top" xlink:title="Class used to handle a command of one or two words. ">
<polygon fill="white" stroke="black" points="2,-107 2,-241 94,-241 94,-107 2,-107"/>
<text text-anchor="middle" x="48" y="-229" font-family="Helvetica,sans-Serif" font-size="10.00">Command</text>
<polyline fill="none" stroke="black" points="2,-222 94,-222 "/>
<text text-anchor="start" x="10" y="-210" font-family="Helvetica,sans-Serif" font-size="10.00">&#45; parameter</text>
<text text-anchor="start" x="10" y="-199" font-family="Helvetica,sans-Serif" font-size="10.00">&#45; message</text>
<polyline fill="none" stroke="black" points="2,-192 94,-192 "/>
<text text-anchor="start" x="10" y="-180" font-family="Helvetica,sans-Serif" font-size="10.00">+ getParameter()</text>
<text text-anchor="start" x="10" y="-169" font-family="Helvetica,sans-Serif" font-size="10.00">+ setParameter()</text>
<text text-anchor="start" x="10" y="-158" font-family="Helvetica,sans-Serif" font-size="10.00">+ hasParameter()</text>
<text text-anchor="start" x="10" y="-147" font-family="Helvetica,sans-Serif" font-size="10.00">+ getMessage()</text>
<text text-anchor="start" x="10" y="-136" font-family="Helvetica,sans-Serif" font-size="10.00">+ hasMessage()</text>
<text text-anchor="start" x="10" y="-125" font-family="Helvetica,sans-Serif" font-size="10.00">+ execute()</text>
<text text-anchor="start" x="10" y="-114" font-family="Helvetica,sans-Serif" font-size="10.00"># setMessage()</text>
</a>
</g>
</g>
<!-- Node2&#45;&gt;Node1 -->
<g id="edge1" class="edge"><title>Node2&#45;&gt;Node1</title>
<path fill="none" stroke="midnightblue" d="M48,-96.7563C48,-87.056 48,-77.5656 48,-69.0765"/>
<polygon fill="none" stroke="midnightblue" points="44.5001,-96.9077 48,-106.908 51.5001,-96.9078 44.5001,-96.9077"/>
</g>
</g>
</svg>
