<?xml version="1.0" encoding="UTF-8" standalone="no"?>
<!DOCTYPE svg PUBLIC "-//W3C//DTD SVG 1.1//EN"
 "http://www.w3.org/Graphics/SVG/1.1/DTD/svg11.dtd">
<!-- Generated by graphviz version 2.36.0 (20140111.2315)
 -->
<!-- Title: pkg_world.Room.getLongDescription Pages: 1 -->
<svg width="402pt" height="66pt"
 viewBox="0.00 0.00 402.00 66.00" xmlns="http://www.w3.org/2000/svg" xmlns:xlink="http://www.w3.org/1999/xlink">
<g id="graph0" class="graph" transform="scale(1 1) rotate(0) translate(4 62)">
<title>pkg_world.Room.getLongDescription</title>
<polygon fill="white" stroke="none" points="-4,4 -4,-62 398,-62 398,4 -4,4"/>
<!-- Node1 -->
<g id="node1" class="node"><title>Node1</title>
<polygon fill="#bfbfbf" stroke="black" points="0.5,-19.5 0.5,-38.5 177.5,-38.5 177.5,-19.5 0.5,-19.5"/>
<text text-anchor="middle" x="89" y="-26.5" font-family="Helvetica,sans-Serif" font-size="10.00">pkg_world.Room.getLongDescription</text>
</g>
<!-- Node2 -->
<g id="node2" class="node"><title>Node2</title>
<g id="a_node2"><a xlink:href="classpkg__world_1_1Room.html#ac712fe83b1f0d11c82ebea83f893d0f2" target="_top" xlink:title="Return the available exits in a human readable format. ">
<polygon fill="white" stroke="black" points="229.5,-38.5 229.5,-57.5 378.5,-57.5 378.5,-38.5 229.5,-38.5"/>
<text text-anchor="middle" x="304" y="-45.5" font-family="Helvetica,sans-Serif" font-size="10.00">pkg_world.Room.getExitString</text>
</a>
</g>
</g>
<!-- Node1&#45;&gt;Node2 -->
<g id="edge1" class="edge"><title>Node1&#45;&gt;Node2</title>
<path fill="none" stroke="midnightblue" d="M177.557,-36.8103C191.273,-38.0337 205.421,-39.2958 219.053,-40.5118"/>
<polygon fill="midnightblue" stroke="midnightblue" points="219.089,-44.0288 229.361,-41.4312 219.711,-37.0565 219.089,-44.0288"/>
</g>
<!-- Node3 -->
<g id="node3" class="node"><title>Node3</title>
<g id="a_node3"><a xlink:href="classpkg__world_1_1Room.html#a3ea436ad00d00484b429992ef94535ac" target="_top" xlink:title="Return a human readable list of the items in the room. ">
<polygon fill="white" stroke="black" points="214.5,-0.5 214.5,-19.5 393.5,-19.5 393.5,-0.5 214.5,-0.5"/>
<text text-anchor="middle" x="304" y="-7.5" font-family="Helvetica,sans-Serif" font-size="10.00">pkg_world.Room.getHumanItemsList</text>
</a>
</g>
</g>
<!-- Node1&#45;&gt;Node3 -->
<g id="edge2" class="edge"><title>Node1&#45;&gt;Node3</title>
<path fill="none" stroke="midnightblue" d="M177.557,-21.1897C186.394,-20.4014 195.411,-19.5971 204.354,-18.7994"/>
<polygon fill="midnightblue" stroke="midnightblue" points="204.756,-22.2776 214.405,-17.9028 204.134,-15.3053 204.756,-22.2776"/>
</g>
</g>
</svg>
