<?xml version="1.0" encoding="UTF-8" standalone="no"?>
<!DOCTYPE svg PUBLIC "-//W3C//DTD SVG 1.1//EN"
 "http://www.w3.org/Graphics/SVG/1.1/DTD/svg11.dtd">
<!-- Generated by graphviz version 2.36.0 (20140111.2315)
 -->
<!-- Title: GameEngine.processCommand Pages: 1 -->
<svg width="368pt" height="104pt"
 viewBox="0.00 0.00 368.00 104.00" xmlns="http://www.w3.org/2000/svg" xmlns:xlink="http://www.w3.org/1999/xlink">
<g id="graph0" class="graph" transform="scale(1 1) rotate(0) translate(4 100)">
<title>GameEngine.processCommand</title>
<polygon fill="white" stroke="none" points="-4,4 -4,-100 364,-100 364,4 -4,4"/>
<!-- Node1 -->
<g id="node1" class="node"><title>Node1</title>
<polygon fill="#bfbfbf" stroke="black" points="0.5,-38.5 0.5,-57.5 155.5,-57.5 155.5,-38.5 0.5,-38.5"/>
<text text-anchor="middle" x="78" y="-45.5" font-family="Helvetica,sans-Serif" font-size="10.00">GameEngine.processCommand</text>
</g>
<!-- Node2 -->
<g id="node2" class="node"><title>Node2</title>
<g id="a_node2"><a xlink:href="classGameEngine.html#a1f5fa36c5dfc36c9a963fe439afc057b" target="_top" xlink:title="Print goodbye message and disable gui. ">
<polygon fill="white" stroke="black" points="217,-76.5 217,-95.5 335,-95.5 335,-76.5 217,-76.5"/>
<text text-anchor="middle" x="276" y="-83.5" font-family="Helvetica,sans-Serif" font-size="10.00">GameEngine.endGame</text>
</a>
</g>
</g>
<!-- Node1&#45;&gt;Node2 -->
<g id="edge1" class="edge"><title>Node1&#45;&gt;Node2</title>
<path fill="none" stroke="midnightblue" d="M128.206,-57.54C154.767,-62.6896 187.749,-69.084 215.718,-74.5065"/>
<polygon fill="midnightblue" stroke="midnightblue" points="215.29,-77.9887 225.774,-76.4561 216.623,-71.1167 215.29,-77.9887"/>
</g>
<!-- Node3 -->
<g id="node3" class="node"><title>Node3</title>
<g id="a_node3"><a xlink:href="classpkg__world_1_1Player.html#a5ff0ede152d97c0c9cf6603c9a422a77" target="_top" xlink:title="currentRoom field getter. ">
<polygon fill="white" stroke="black" points="192.5,-38.5 192.5,-57.5 359.5,-57.5 359.5,-38.5 192.5,-38.5"/>
<text text-anchor="middle" x="276" y="-45.5" font-family="Helvetica,sans-Serif" font-size="10.00">pkg_world.Player.getCurrentRoom</text>
</a>
</g>
</g>
<!-- Node1&#45;&gt;Node3 -->
<g id="edge2" class="edge"><title>Node1&#45;&gt;Node3</title>
<path fill="none" stroke="midnightblue" d="M155.621,-48C164.358,-48 173.333,-48 182.25,-48"/>
<polygon fill="midnightblue" stroke="midnightblue" points="182.278,-51.5001 192.278,-48 182.278,-44.5001 182.278,-51.5001"/>
</g>
<!-- Node4 -->
<g id="node4" class="node"><title>Node4</title>
<g id="a_node4"><a xlink:href="classUserInterface.html#a79f606b4b1f5d1523e50eea00039ed94" target="_top" xlink:title="Print the given text plus a newline in the text area. ">
<polygon fill="white" stroke="black" points="223.5,-0.5 223.5,-19.5 328.5,-19.5 328.5,-0.5 223.5,-0.5"/>
<text text-anchor="middle" x="276" y="-7.5" font-family="Helvetica,sans-Serif" font-size="10.00">UserInterface.println</text>
</a>
</g>
</g>
<!-- Node1&#45;&gt;Node4 -->
<g id="edge3" class="edge"><title>Node1&#45;&gt;Node4</title>
<path fill="none" stroke="midnightblue" d="M128.206,-38.46C154.767,-33.3104 187.749,-26.916 215.718,-21.4935"/>
<polygon fill="midnightblue" stroke="midnightblue" points="216.623,-24.8833 225.774,-19.5439 215.29,-18.0113 216.623,-24.8833"/>
</g>
</g>
</svg>
