<?xml version="1.0" encoding="UTF-8" standalone="no"?>
<!DOCTYPE svg PUBLIC "-//W3C//DTD SVG 1.1//EN"
 "http://www.w3.org/Graphics/SVG/1.1/DTD/svg11.dtd">
<!-- Generated by graphviz version 2.36.0 (20140111.2315)
 -->
<!-- Title: pkg_game.GameEngine.GameEngine Pages: 1 -->
<svg width="346pt" height="38pt"
 viewBox="0.00 0.00 346.00 38.00" xmlns="http://www.w3.org/2000/svg" xmlns:xlink="http://www.w3.org/1999/xlink">
<g id="graph0" class="graph" transform="scale(1 1) rotate(0) translate(4 34)">
<title>pkg_game.GameEngine.GameEngine</title>
<polygon fill="white" stroke="none" points="-4,4 -4,-34 342,-34 342,4 -4,4"/>
<!-- Node1 -->
<g id="node1" class="node"><title>Node1</title>
<polygon fill="#bfbfbf" stroke="black" points="0,-0 0,-30 150,-30 150,-0 0,-0"/>
<text text-anchor="start" x="8" y="-18" font-family="Helvetica,sans-Serif" font-size="10.00">pkg_game.GameEngine.Game</text>
<text text-anchor="middle" x="75" y="-7" font-family="Helvetica,sans-Serif" font-size="10.00">Engine</text>
</g>
<!-- Node2 -->
<g id="node2" class="node"><title>Node2</title>
<g id="a_node2"><a xlink:href="classpkg__game_1_1GameEngine.html#a986180eff9d235e3b619c7403accfc31" target="_top" xlink:title="Create the rooms, link them and return the first Room. ">
<polygon fill="white" stroke="black" points="186.5,-0 186.5,-30 337.5,-30 337.5,-0 186.5,-0"/>
<text text-anchor="start" x="194.5" y="-18" font-family="Helvetica,sans-Serif" font-size="10.00">pkg_game.GameEngine.create</text>
<text text-anchor="middle" x="262" y="-7" font-family="Helvetica,sans-Serif" font-size="10.00">Rooms</text>
</a>
</g>
</g>
<!-- Node1&#45;&gt;Node2 -->
<g id="edge1" class="edge"><title>Node1&#45;&gt;Node2</title>
<path fill="none" stroke="midnightblue" d="M150.181,-15C158.706,-15 167.448,-15 176.101,-15"/>
<polygon fill="midnightblue" stroke="midnightblue" points="176.199,-18.5001 186.199,-15 176.199,-11.5001 176.199,-18.5001"/>
</g>
</g>
</svg>
