<?xml version="1.0" encoding="UTF-8" standalone="no"?>
<!DOCTYPE svg PUBLIC "-//W3C//DTD SVG 1.1//EN"
 "http://www.w3.org/Graphics/SVG/1.1/DTD/svg11.dtd">
<!-- Generated by graphviz version 2.36.0 (20140111.2315)
 -->
<!-- Title: pkg_commands.Command.setMessage Pages: 1 -->
<svg width="888pt" height="488pt"
 viewBox="0.00 0.00 888.00 487.91" xmlns="http://www.w3.org/2000/svg" xmlns:xlink="http://www.w3.org/1999/xlink">
<g id="graph0" class="graph" transform="scale(1 1) rotate(0) translate(4 483.912)">
<title>pkg_commands.Command.setMessage</title>
<polygon fill="white" stroke="none" points="-4,4 -4,-483.912 884,-483.912 884,4 -4,4"/>
<!-- Node1 -->
<g id="node1" class="node"><title>Node1</title>
<polygon fill="#bfbfbf" stroke="black" points="0,-246.12 0,-276.12 150,-276.12 150,-246.12 0,-246.12"/>
<text text-anchor="start" x="8" y="-264.12" font-family="Helvetica,sans-Serif" font-size="10.00">pkg_commands.Command.set</text>
<text text-anchor="middle" x="75" y="-253.12" font-family="Helvetica,sans-Serif" font-size="10.00">Message</text>
</g>
<!-- Node2 -->
<g id="node2" class="node"><title>Node2</title>
<g id="a_node2"><a xlink:href="classpkg__commands_1_1BeamerCommand.html#ae71665296a18d581ad1f714c1078e37b" target="_top" xlink:title="Remember the current room. ">
<polygon fill="white" stroke="black" points="436,-346.62 436,-365.62 636,-365.62 636,-346.62 436,-346.62"/>
<text text-anchor="middle" x="536" y="-353.62" font-family="Helvetica,sans-Serif" font-size="10.00">pkg_commands.BeamerCommand.charge</text>
</a>
</g>
</g>
<!-- Node1&#45;&gt;Node2 -->
<g id="edge1" class="edge"><title>Node1&#45;&gt;Node2</title>
<path fill="none" stroke="midnightblue" d="M81.9233,-286.281C93.5291,-329.16 123.749,-415.229 186,-451.12 267.627,-498.182 308.074,-479.248 398,-451.12 452.695,-434.012 504.738,-386.538 525.512,-365.905"/>
<polygon fill="midnightblue" stroke="midnightblue" points="85.2528,-285.176 79.3656,-276.367 78.4748,-286.925 85.2528,-285.176"/>
</g>
<!-- Node4 -->
<g id="node4" class="node"><title>Node4</title>
<g id="a_node4"><a xlink:href="classpkg__commands_1_1InventoryCommand.html#a16ce9e3db461ecb7c4a50d2bdef65022" target="_top" xlink:title="Save the inventory into the message field. ">
<polygon fill="white" stroke="black" points="186,-422.62 186,-441.62 398,-441.62 398,-422.62 186,-422.62"/>
<text text-anchor="middle" x="292" y="-429.62" font-family="Helvetica,sans-Serif" font-size="10.00">pkg_commands.InventoryCommand.execute</text>
</a>
</g>
</g>
<!-- Node1&#45;&gt;Node4 -->
<g id="edge3" class="edge"><title>Node1&#45;&gt;Node4</title>
<path fill="none" stroke="midnightblue" d="M86.3937,-285.5C102.419,-319.916 136.568,-382.012 186,-413.12 192.115,-416.968 198.803,-420.084 205.749,-422.603"/>
<polygon fill="midnightblue" stroke="midnightblue" points="89.4872,-283.845 82.1806,-276.173 83.1079,-286.727 89.4872,-283.845"/>
</g>
<!-- Node5 -->
<g id="node5" class="node"><title>Node5</title>
<g id="a_node5"><a xlink:href="classpkg__commands_1_1CreditsCommand.html#aad2b955c6c8a4c3536e6b937165b7790" target="_top" xlink:title="Save the credits into the message field. ">
<polygon fill="white" stroke="black" points="190.5,-384.62 190.5,-403.62 393.5,-403.62 393.5,-384.62 190.5,-384.62"/>
<text text-anchor="middle" x="292" y="-391.62" font-family="Helvetica,sans-Serif" font-size="10.00">pkg_commands.CreditsCommand.execute</text>
</a>
</g>
</g>
<!-- Node1&#45;&gt;Node5 -->
<g id="edge4" class="edge"><title>Node1&#45;&gt;Node5</title>
<path fill="none" stroke="midnightblue" d="M91.6121,-284.542C110.613,-311.039 145.255,-353.327 186,-375.12 193.269,-379.008 201.184,-382.118 209.3,-384.604"/>
<polygon fill="midnightblue" stroke="midnightblue" points="94.3842,-282.399 85.7819,-276.214 88.6498,-286.414 94.3842,-282.399"/>
</g>
<!-- Node6 -->
<g id="node6" class="node"><title>Node6</title>
<g id="a_node6"><a xlink:href="classpkg__commands_1_1LookCommand.html#af336146fae1e14bf434d85a5acbcdcd7" target="_top" xlink:title="Saves the information about the current Room or a given Item in the message field. ">
<polygon fill="white" stroke="black" points="196,-346.62 196,-365.62 388,-365.62 388,-346.62 196,-346.62"/>
<text text-anchor="middle" x="292" y="-353.62" font-family="Helvetica,sans-Serif" font-size="10.00">pkg_commands.LookCommand.execute</text>
</a>
</g>
</g>
<!-- Node1&#45;&gt;Node6 -->
<g id="edge5" class="edge"><title>Node1&#45;&gt;Node6</title>
<path fill="none" stroke="midnightblue" d="M100.75,-282.862C121.932,-300.272 153.993,-323.896 186,-337.12 195.417,-341.011 205.634,-344.107 215.873,-346.57"/>
<polygon fill="midnightblue" stroke="midnightblue" points="102.829,-280.037 92.9161,-276.296 98.3322,-285.402 102.829,-280.037"/>
</g>
<!-- Node7 -->
<g id="node7" class="node"><title>Node7</title>
<g id="a_node7"><a xlink:href="classpkg__commands_1_1DropCommand.html#a742e37b2d2dd4e111130811ee2f4dd0b" target="_top" xlink:title="Drop the Item through it&#39;s name in the parameter field. ">
<polygon fill="white" stroke="black" points="196,-308.62 196,-327.62 388,-327.62 388,-308.62 196,-308.62"/>
<text text-anchor="middle" x="292" y="-315.62" font-family="Helvetica,sans-Serif" font-size="10.00">pkg_commands.DropCommand.execute</text>
</a>
</g>
</g>
<!-- Node1&#45;&gt;Node7 -->
<g id="edge6" class="edge"><title>Node1&#45;&gt;Node7</title>
<path fill="none" stroke="midnightblue" d="M124.383,-279.633C143.391,-286.431 165.526,-293.765 186,-299.12 199.89,-302.753 214.993,-305.927 229.302,-308.588"/>
<polygon fill="midnightblue" stroke="midnightblue" points="125.347,-276.26 114.753,-276.141 122.96,-282.84 125.347,-276.26"/>
</g>
<!-- Node8 -->
<g id="node8" class="node"><title>Node8</title>
<g id="a_node8"><a xlink:href="classpkg__commands_1_1TakeCommand.html#a17789062aaf2ab5747c7eeac118875cd" target="_top" xlink:title="Make the player take an Item. ">
<polygon fill="white" stroke="black" points="195.5,-270.62 195.5,-289.62 388.5,-289.62 388.5,-270.62 195.5,-270.62"/>
<text text-anchor="middle" x="292" y="-277.62" font-family="Helvetica,sans-Serif" font-size="10.00">pkg_commands.TakeCommand.execute</text>
</a>
</g>
</g>
<!-- Node1&#45;&gt;Node8 -->
<g id="edge7" class="edge"><title>Node1&#45;&gt;Node8</title>
<path fill="none" stroke="midnightblue" d="M160.316,-268.571C171.849,-269.59 183.756,-270.642 195.47,-271.678"/>
<polygon fill="midnightblue" stroke="midnightblue" points="160.561,-265.079 150.292,-267.685 159.945,-272.052 160.561,-265.079"/>
</g>
<!-- Node9 -->
<g id="node9" class="node"><title>Node9</title>
<g id="a_node9"><a xlink:href="classpkg__commands_1_1EatCommand.html#a2a600f09891aa076b3f630293de965f4" target="_top" xlink:title="Make the player eat an object. ">
<polygon fill="white" stroke="black" points="199,-232.62 199,-251.62 385,-251.62 385,-232.62 199,-232.62"/>
<text text-anchor="middle" x="292" y="-239.62" font-family="Helvetica,sans-Serif" font-size="10.00">pkg_commands.EatCommand.execute</text>
</a>
</g>
</g>
<!-- Node1&#45;&gt;Node9 -->
<g id="edge8" class="edge"><title>Node1&#45;&gt;Node9</title>
<path fill="none" stroke="midnightblue" d="M160.325,-253.668C172.973,-252.55 186.071,-251.393 198.872,-250.261"/>
<polygon fill="midnightblue" stroke="midnightblue" points="159.945,-250.188 150.292,-254.555 160.561,-257.161 159.945,-250.188"/>
</g>
<!-- Node10 -->
<g id="node10" class="node"><title>Node10</title>
<g id="a_node10"><a xlink:href="classpkg__commands_1_1GoCommand.html#a82e9a64a0fac612f788060a90c83f9b1" target="_top" xlink:title="Make the player go to the Room through it&#39;s direction in the parameter field. ">
<polygon fill="white" stroke="black" points="685,-52.6199 685,-71.6199 869,-71.6199 869,-52.6199 685,-52.6199"/>
<text text-anchor="middle" x="777" y="-59.6199" font-family="Helvetica,sans-Serif" font-size="10.00">pkg_commands.GoCommand.execute</text>
</a>
</g>
</g>
<!-- Node1&#45;&gt;Node10 -->
<g id="edge9" class="edge"><title>Node1&#45;&gt;Node10</title>
<path fill="none" stroke="midnightblue" d="M80.963,-236.322C91.4173,-191.517 120.369,-98.1114 186,-59.1199 373.794,52.4491 658.123,-23.9393 747.847,-52.5631"/>
<polygon fill="midnightblue" stroke="midnightblue" points="77.541,-235.587 78.796,-246.108 84.3754,-237.101 77.541,-235.587"/>
</g>
<!-- Node11 -->
<g id="node11" class="node"><title>Node11</title>
<g id="a_node11"><a xlink:href="classpkg__commands_1_1TestCommand.html#a1ff07c27a46910d20c2e4569888892ca" target="_top" xlink:title="Test series of Commands stored in a .test file and store the messages in the message field...">
<polygon fill="white" stroke="black" points="196.5,-156.62 196.5,-175.62 387.5,-175.62 387.5,-156.62 196.5,-156.62"/>
<text text-anchor="middle" x="292" y="-163.62" font-family="Helvetica,sans-Serif" font-size="10.00">pkg_commands.TestCommand.execute</text>
</a>
</g>
</g>
<!-- Node1&#45;&gt;Node11 -->
<g id="edge10" class="edge"><title>Node1&#45;&gt;Node11</title>
<path fill="none" stroke="midnightblue" d="M102.97,-239.878C124.365,-224.006 155.626,-202.924 186,-190.12 200.646,-183.946 217.142,-179.226 232.645,-175.675"/>
<polygon fill="midnightblue" stroke="midnightblue" points="100.59,-237.289 94.7161,-246.106 104.807,-242.876 100.59,-237.289"/>
</g>
<!-- Node12 -->
<g id="node12" class="node"><title>Node12</title>
<g id="a_node12"><a xlink:href="classpkg__commands_1_1HelpCommand.html#a332d3e57539dfc82f8c539f8b3e24dd6" target="_top" xlink:title="Saves user&#39;s help in the parameter field. ">
<polygon fill="white" stroke="black" points="196.5,-118.62 196.5,-137.62 387.5,-137.62 387.5,-118.62 196.5,-118.62"/>
<text text-anchor="middle" x="292" y="-125.62" font-family="Helvetica,sans-Serif" font-size="10.00">pkg_commands.HelpCommand.execute</text>
</a>
</g>
</g>
<!-- Node1&#45;&gt;Node12 -->
<g id="edge11" class="edge"><title>Node1&#45;&gt;Node12</title>
<path fill="none" stroke="midnightblue" d="M91.6121,-237.698C110.613,-211.201 145.255,-168.912 186,-147.12 193.269,-143.232 201.184,-140.122 209.3,-137.636"/>
<polygon fill="midnightblue" stroke="midnightblue" points="88.6498,-235.826 85.7819,-246.025 94.3842,-239.841 88.6498,-235.826"/>
</g>
<!-- Node13 -->
<g id="node13" class="node"><title>Node13</title>
<g id="a_node13"><a xlink:href="classpkg__commands_1_1GoCommand.html#a210afbc5f3ef34d3ad5759d853c8f8c2" target="_top" xlink:title="Go to the Room without checking. ">
<polygon fill="white" stroke="black" points="212,-69.1199 212,-99.1199 372,-99.1199 372,-69.1199 212,-69.1199"/>
<text text-anchor="start" x="220" y="-87.1199" font-family="Helvetica,sans-Serif" font-size="10.00">pkg_commands.GoCommand.go</text>
<text text-anchor="middle" x="292" y="-76.1199" font-family="Helvetica,sans-Serif" font-size="10.00">RoomNoCheck</text>
</a>
</g>
</g>
<!-- Node1&#45;&gt;Node13 -->
<g id="edge12" class="edge"><title>Node1&#45;&gt;Node13</title>
<path fill="none" stroke="midnightblue" d="M86.8777,-236.582C103.291,-202.503 137.684,-141.404 186,-109.12 193.868,-103.863 202.718,-99.7065 211.856,-96.4219"/>
<polygon fill="midnightblue" stroke="midnightblue" points="83.6181,-235.29 82.5468,-245.83 89.9574,-238.258 83.6181,-235.29"/>
</g>
<!-- Node14 -->
<g id="node14" class="node"><title>Node14</title>
<g id="a_node14"><a xlink:href="classpkg__commands_1_1BeamerCommand.html#a2b6c04242d443d4ff36f255b06ce14be" target="_top" xlink:title="Teleport the player to the remembered room. ">
<polygon fill="white" stroke="black" points="434.5,-194.62 434.5,-213.62 637.5,-213.62 637.5,-194.62 434.5,-194.62"/>
<text text-anchor="middle" x="536" y="-201.62" font-family="Helvetica,sans-Serif" font-size="10.00">pkg_commands.BeamerCommand.teleport</text>
</a>
</g>
</g>
<!-- Node1&#45;&gt;Node14 -->
<g id="edge17" class="edge"><title>Node1&#45;&gt;Node14</title>
<path fill="none" stroke="midnightblue" d="M121.054,-242.38C140.662,-235.06 164.119,-227.408 186,-223.12 268.622,-206.93 364.204,-202.708 434.426,-202.237"/>
<polygon fill="midnightblue" stroke="midnightblue" points="119.562,-239.203 111.471,-246.043 122.061,-245.741 119.562,-239.203"/>
</g>
<!-- Node3 -->
<g id="node3" class="node"><title>Node3</title>
<g id="a_node3"><a xlink:href="classpkg__commands_1_1BeamerCommand.html#a139dc852e180cabd8af15cfed37dcf0e" target="_top" xlink:title="Teleport to the remembered room or remember a room. ">
<polygon fill="white" stroke="black" points="674.5,-270.62 674.5,-289.62 879.5,-289.62 879.5,-270.62 674.5,-270.62"/>
<text text-anchor="middle" x="777" y="-277.62" font-family="Helvetica,sans-Serif" font-size="10.00">pkg_commands.BeamerCommand.execute</text>
</a>
</g>
</g>
<!-- Node2&#45;&gt;Node3 -->
<g id="edge2" class="edge"><title>Node2&#45;&gt;Node3</title>
<path fill="none" stroke="midnightblue" d="M576.946,-343.418C624.603,-328.263 703.193,-303.272 745.976,-289.667"/>
<polygon fill="midnightblue" stroke="midnightblue" points="575.739,-340.129 567.27,-346.494 577.86,-346.799 575.739,-340.129"/>
</g>
<!-- Node13&#45;&gt;Node14 -->
<g id="edge13" class="edge"><title>Node13&#45;&gt;Node14</title>
<path fill="none" stroke="midnightblue" d="M380.285,-102.214C386.368,-104.292 392.33,-106.588 398,-109.12 449.534,-132.135 502.049,-175.209 524.149,-194.429"/>
<polygon fill="midnightblue" stroke="midnightblue" points="381.242,-98.8454 370.651,-99.1254 379.105,-105.511 381.242,-98.8454"/>
</g>
<!-- Node15 -->
<g id="node15" class="node"><title>Node15</title>
<g id="a_node15"><a xlink:href="classpkg__commands_1_1GoCommand.html#acbf1aa81fa5b1aef7cafb8b4e3ace3a9" target="_top" xlink:title="Check if the wanted Room is connected to the current Room and go to this room. ">
<polygon fill="white" stroke="black" points="456,-69.1199 456,-99.1199 616,-99.1199 616,-69.1199 456,-69.1199"/>
<text text-anchor="start" x="464" y="-87.1199" font-family="Helvetica,sans-Serif" font-size="10.00">pkg_commands.GoCommand.go</text>
<text text-anchor="middle" x="536" y="-76.1199" font-family="Helvetica,sans-Serif" font-size="10.00">RoomCheck</text>
</a>
</g>
</g>
<!-- Node13&#45;&gt;Node15 -->
<g id="edge15" class="edge"><title>Node13&#45;&gt;Node15</title>
<path fill="none" stroke="midnightblue" d="M382.455,-84.1199C406.574,-84.1199 432.492,-84.1199 455.996,-84.1199"/>
<polygon fill="midnightblue" stroke="midnightblue" points="382.24,-80.62 372.24,-84.1199 382.24,-87.62 382.24,-80.62"/>
</g>
<!-- Node14&#45;&gt;Node3 -->
<g id="edge14" class="edge"><title>Node14&#45;&gt;Node3</title>
<path fill="none" stroke="midnightblue" d="M576.946,-216.822C624.603,-231.977 703.193,-256.968 745.976,-270.573"/>
<polygon fill="midnightblue" stroke="midnightblue" points="577.86,-213.44 567.27,-213.745 575.739,-220.111 577.86,-213.44"/>
</g>
<!-- Node15&#45;&gt;Node10 -->
<g id="edge16" class="edge"><title>Node15&#45;&gt;Node10</title>
<path fill="none" stroke="midnightblue" d="M626.443,-75.8866C645.566,-74.1264 665.787,-72.265 684.969,-70.4993"/>
<polygon fill="midnightblue" stroke="midnightblue" points="625.889,-72.4228 616.252,-76.8248 626.53,-79.3933 625.889,-72.4228"/>
</g>
</g>
</svg>
