<?xml version="1.0" encoding="UTF-8" standalone="no"?>
<!DOCTYPE svg PUBLIC "-//W3C//DTD SVG 1.1//EN"
 "http://www.w3.org/Graphics/SVG/1.1/DTD/svg11.dtd">
<!-- Generated by graphviz version 2.36.0 (20140111.2315)
 -->
<!-- Title: GameEngine.processCommand Pages: 1 -->
<svg width="320pt" height="104pt"
 viewBox="0.00 0.00 320.00 104.00" xmlns="http://www.w3.org/2000/svg" xmlns:xlink="http://www.w3.org/1999/xlink">
<g id="graph0" class="graph" transform="scale(1 1) rotate(0) translate(4 100)">
<title>GameEngine.processCommand</title>
<polygon fill="white" stroke="none" points="-4,4 -4,-100 316,-100 316,4 -4,4"/>
<!-- Node1 -->
<g id="node1" class="node"><title>Node1</title>
<polygon fill="#bfbfbf" stroke="black" points="0.5,-38.5 0.5,-57.5 155.5,-57.5 155.5,-38.5 0.5,-38.5"/>
<text text-anchor="middle" x="78" y="-45.5" font-family="Helvetica,sans-Serif" font-size="10.00">GameEngine.processCommand</text>
</g>
<!-- Node2 -->
<g id="node2" class="node"><title>Node2</title>
<g id="a_node2"><a xlink:href="classGameEngine.html#a1f5fa36c5dfc36c9a963fe439afc057b" target="_top" xlink:title="Print goodbye message and disable gui. ">
<polygon fill="white" stroke="black" points="193,-76.5 193,-95.5 311,-95.5 311,-76.5 193,-76.5"/>
<text text-anchor="middle" x="252" y="-83.5" font-family="Helvetica,sans-Serif" font-size="10.00">GameEngine.endGame</text>
</a>
</g>
</g>
<!-- Node1&#45;&gt;Node2 -->
<g id="edge1" class="edge"><title>Node1&#45;&gt;Node2</title>
<path fill="none" stroke="midnightblue" d="M122.403,-57.589C145.407,-62.6713 173.851,-68.9554 198.134,-74.3203"/>
<polygon fill="midnightblue" stroke="midnightblue" points="197.39,-77.7402 207.909,-76.4799 198.9,-70.905 197.39,-77.7402"/>
</g>
<!-- Node3 -->
<g id="node3" class="node"><title>Node3</title>
<g id="a_node3"><a xlink:href="classPlayer.html#a3a3107df50fc4e35e8c0f46c3f776ce6" target="_top" xlink:title="currentRoom field getter. ">
<polygon fill="white" stroke="black" points="192.5,-38.5 192.5,-57.5 311.5,-57.5 311.5,-38.5 192.5,-38.5"/>
<text text-anchor="middle" x="252" y="-45.5" font-family="Helvetica,sans-Serif" font-size="10.00">Player.getCurrentRoom</text>
</a>
</g>
</g>
<!-- Node1&#45;&gt;Node3 -->
<g id="edge2" class="edge"><title>Node1&#45;&gt;Node3</title>
<path fill="none" stroke="midnightblue" d="M155.694,-48C164.515,-48 173.468,-48 182.177,-48"/>
<polygon fill="midnightblue" stroke="midnightblue" points="182.265,-51.5001 192.264,-48 182.264,-44.5001 182.265,-51.5001"/>
</g>
<!-- Node4 -->
<g id="node4" class="node"><title>Node4</title>
<g id="a_node4"><a xlink:href="classUserInterface.html#a79f606b4b1f5d1523e50eea00039ed94" target="_top" xlink:title="Print the given text plus a newline in the text area. ">
<polygon fill="white" stroke="black" points="199.5,-0.5 199.5,-19.5 304.5,-19.5 304.5,-0.5 199.5,-0.5"/>
<text text-anchor="middle" x="252" y="-7.5" font-family="Helvetica,sans-Serif" font-size="10.00">UserInterface.println</text>
</a>
</g>
</g>
<!-- Node1&#45;&gt;Node4 -->
<g id="edge3" class="edge"><title>Node1&#45;&gt;Node4</title>
<path fill="none" stroke="midnightblue" d="M122.403,-38.411C145.407,-33.3287 173.851,-27.0446 198.134,-21.6797"/>
<polygon fill="midnightblue" stroke="midnightblue" points="198.9,-25.095 207.909,-19.5201 197.39,-18.2598 198.9,-25.095"/>
</g>
</g>
</svg>
