<?xml version="1.0" encoding="UTF-8" standalone="no"?>
<!DOCTYPE svg PUBLIC "-//W3C//DTD SVG 1.1//EN"
 "http://www.w3.org/Graphics/SVG/1.1/DTD/svg11.dtd">
<!-- Generated by graphviz version 2.36.0 (20140111.2315)
 -->
<!-- Title: pkg_game.GameEngine Pages: 1 -->
<svg width="660pt" height="1118pt"
 viewBox="0.00 0.00 660.00 1118.00" xmlns="http://www.w3.org/2000/svg" xmlns:xlink="http://www.w3.org/1999/xlink">
<g id="graph0" class="graph" transform="scale(1 1) rotate(0) translate(4 1114)">
<title>pkg_game.GameEngine</title>
<polygon fill="white" stroke="none" points="-4,4 -4,-1114 656,-1114 656,4 -4,4"/>
<!-- Node1 -->
<g id="node1" class="node"><title>Node1</title>
<polygon fill="#bfbfbf" stroke="black" points="365.5,-239 365.5,-373 486.5,-373 486.5,-239 365.5,-239"/>
<text text-anchor="middle" x="426" y="-361" font-family="Helvetica,sans-Serif" font-size="10.00">pkg_game.GameEngine</text>
<polyline fill="none" stroke="black" points="365.5,-354 486.5,-354 "/>
<text text-anchor="start" x="373.5" y="-342" font-family="Helvetica,sans-Serif" font-size="10.00">&#45; helpCount</text>
<text text-anchor="start" x="373.5" y="-331" font-family="Helvetica,sans-Serif" font-size="10.00">&#45; commandCountDown</text>
<polyline fill="none" stroke="black" points="365.5,-324 486.5,-324 "/>
<text text-anchor="start" x="373.5" y="-312" font-family="Helvetica,sans-Serif" font-size="10.00">+ GameEngine()</text>
<text text-anchor="start" x="373.5" y="-301" font-family="Helvetica,sans-Serif" font-size="10.00">+ setGUI()</text>
<text text-anchor="start" x="373.5" y="-290" font-family="Helvetica,sans-Serif" font-size="10.00">+ processCommand()</text>
<text text-anchor="start" x="373.5" y="-279" font-family="Helvetica,sans-Serif" font-size="10.00">+ getRooms()</text>
<text text-anchor="start" x="373.5" y="-268" font-family="Helvetica,sans-Serif" font-size="10.00">&#45; printWelcome()</text>
<text text-anchor="start" x="373.5" y="-257" font-family="Helvetica,sans-Serif" font-size="10.00">&#45; createRooms()</text>
<text text-anchor="start" x="373.5" y="-246" font-family="Helvetica,sans-Serif" font-size="10.00">&#45; endGame()</text>
</g>
<!-- Node2 -->
<g id="node2" class="node"><title>Node2</title>
<g id="a_node2"><a xlink:href="classpkg__game_1_1UserInterface.html" target="_top" xlink:title="Class handling the game&#39;s user interface. ">
<polygon fill="white" stroke="black" points="252,-0.5 252,-189.5 376,-189.5 376,-0.5 252,-0.5"/>
<text text-anchor="middle" x="314" y="-177.5" font-family="Helvetica,sans-Serif" font-size="10.00">pkg_game.UserInterface</text>
<polyline fill="none" stroke="black" points="252,-170.5 376,-170.5 "/>
<text text-anchor="start" x="260" y="-158.5" font-family="Helvetica,sans-Serif" font-size="10.00">&#45; myFrame</text>
<text text-anchor="start" x="260" y="-147.5" font-family="Helvetica,sans-Serif" font-size="10.00">&#45; entryField</text>
<text text-anchor="start" x="260" y="-136.5" font-family="Helvetica,sans-Serif" font-size="10.00">&#45; log</text>
<text text-anchor="start" x="260" y="-125.5" font-family="Helvetica,sans-Serif" font-size="10.00">&#45; image</text>
<text text-anchor="start" x="260" y="-114.5" font-family="Helvetica,sans-Serif" font-size="10.00">&#45; commandsLeftLabel</text>
<polyline fill="none" stroke="black" points="252,-107.5 376,-107.5 "/>
<text text-anchor="start" x="260" y="-95.5" font-family="Helvetica,sans-Serif" font-size="10.00">+ UserInterface()</text>
<text text-anchor="start" x="260" y="-84.5" font-family="Helvetica,sans-Serif" font-size="10.00">+ setCommandsLeft()</text>
<text text-anchor="start" x="260" y="-73.5" font-family="Helvetica,sans-Serif" font-size="10.00">+ print()</text>
<text text-anchor="start" x="260" y="-62.5" font-family="Helvetica,sans-Serif" font-size="10.00">+ println()</text>
<text text-anchor="start" x="260" y="-51.5" font-family="Helvetica,sans-Serif" font-size="10.00">+ showImage()</text>
<text text-anchor="start" x="260" y="-40.5" font-family="Helvetica,sans-Serif" font-size="10.00">+ enable()</text>
<text text-anchor="start" x="260" y="-29.5" font-family="Helvetica,sans-Serif" font-size="10.00">+ actionPerformed()</text>
<text text-anchor="start" x="260" y="-18.5" font-family="Helvetica,sans-Serif" font-size="10.00">&#45; createGUI()</text>
<text text-anchor="start" x="260" y="-7.5" font-family="Helvetica,sans-Serif" font-size="10.00">&#45; processCommand()</text>
</a>
</g>
</g>
<!-- Node1&#45;&gt;Node2 -->
<g id="edge3" class="edge"><title>Node1&#45;&gt;Node2</title>
<path fill="none" stroke="#404040" d="M365.158,-239.119C360.723,-232.877 356.59,-226.461 353,-220 349.63,-213.934 346.506,-207.536 343.619,-200.974"/>
<polygon fill="none" stroke="#404040" points="343.583,-200.887 337.588,-196.879 338.981,-189.804 344.976,-193.811 343.583,-200.887"/>
<text text-anchor="middle" x="370.5" y="-211.5" font-family="Helvetica,sans-Serif" font-size="10.00"> &#45;engine</text>
</g>
<!-- Node2&#45;&gt;Node1 -->
<g id="edge1" class="edge"><title>Node2&#45;&gt;Node1</title>
<path fill="none" stroke="#404040" d="M376.113,-180.114C381.833,-189.317 387.253,-198.718 392,-208 395.175,-214.209 398.173,-220.782 400.974,-227.464"/>
<polygon fill="none" stroke="#404040" points="401.039,-227.627 406.982,-231.71 405.499,-238.767 399.555,-234.683 401.039,-227.627"/>
<text text-anchor="middle" x="406.5" y="-211.5" font-family="Helvetica,sans-Serif" font-size="10.00"> &#45;gui</text>
</g>
<!-- Node3 -->
<g id="node3" class="node"><title>Node3</title>
<polygon fill="white" stroke="#bfbfbf" points="107.5,-277.5 107.5,-334.5 186.5,-334.5 186.5,-277.5 107.5,-277.5"/>
<text text-anchor="middle" x="147" y="-322.5" font-family="Helvetica,sans-Serif" font-size="10.00">ActionListener</text>
<polyline fill="none" stroke="#bfbfbf" points="107.5,-315.5 186.5,-315.5 "/>
<text text-anchor="middle" x="147" y="-303.5" font-family="Helvetica,sans-Serif" font-size="10.00"> </text>
<polyline fill="none" stroke="#bfbfbf" points="107.5,-296.5 186.5,-296.5 "/>
<text text-anchor="middle" x="147" y="-284.5" font-family="Helvetica,sans-Serif" font-size="10.00"> </text>
</g>
<!-- Node3&#45;&gt;Node2 -->
<g id="edge2" class="edge"><title>Node3&#45;&gt;Node2</title>
<path fill="none" stroke="midnightblue" d="M172.661,-269.054C180.067,-258.916 188.245,-247.943 196,-238 213.742,-215.253 233.594,-190.949 251.879,-168.994"/>
<polygon fill="none" stroke="midnightblue" points="169.693,-267.184 166.648,-277.332 175.356,-271.298 169.693,-267.184"/>
</g>
<!-- Node4 -->
<g id="node4" class="node"><title>Node4</title>
<polygon fill="white" stroke="#bfbfbf" points="205,-277.5 205,-334.5 347,-334.5 347,-277.5 205,-277.5"/>
<text text-anchor="middle" x="276" y="-322.5" font-family="Helvetica,sans-Serif" font-size="10.00">HashMap&lt; JButton, String &gt;</text>
<polyline fill="none" stroke="#bfbfbf" points="205,-315.5 347,-315.5 "/>
<text text-anchor="middle" x="276" y="-303.5" font-family="Helvetica,sans-Serif" font-size="10.00"> </text>
<polyline fill="none" stroke="#bfbfbf" points="205,-296.5 347,-296.5 "/>
<text text-anchor="middle" x="276" y="-284.5" font-family="Helvetica,sans-Serif" font-size="10.00"> </text>
</g>
<!-- Node4&#45;&gt;Node2 -->
<g id="edge4" class="edge"><title>Node4&#45;&gt;Node2</title>
<path fill="none" stroke="#404040" d="M280.329,-277.366C283.428,-257.937 287.783,-231.346 292,-208 292.369,-205.956 292.745,-203.891 293.127,-201.81"/>
<polygon fill="none" stroke="#404040" points="293.173,-201.563 290.335,-194.934 295.363,-189.765 298.201,-196.394 293.173,-201.563"/>
<text text-anchor="middle" x="311.5" y="-211.5" font-family="Helvetica,sans-Serif" font-size="10.00"> &#45;buttons</text>
</g>
<!-- Node5 -->
<g id="node5" class="node"><title>Node5</title>
<polygon fill="white" stroke="#bfbfbf" points="193,-489 193,-557 347,-557 347,-489 193,-489"/>
<text text-anchor="start" x="201" y="-545" font-family="Helvetica,sans-Serif" font-size="10.00">HashSet&lt; pkg_world.pkg</text>
<text text-anchor="middle" x="270" y="-534" font-family="Helvetica,sans-Serif" font-size="10.00">_characters.MovingCharacter &gt;</text>
<polyline fill="none" stroke="#bfbfbf" points="193,-527 347,-527 "/>
<text text-anchor="middle" x="270" y="-515" font-family="Helvetica,sans-Serif" font-size="10.00"> </text>
<polyline fill="none" stroke="#bfbfbf" points="193,-508 347,-508 "/>
<text text-anchor="middle" x="270" y="-496" font-family="Helvetica,sans-Serif" font-size="10.00"> </text>
</g>
<!-- Node5&#45;&gt;Node1 -->
<g id="edge5" class="edge"><title>Node5&#45;&gt;Node1</title>
<path fill="none" stroke="#404040" d="M282.813,-488.817C294.34,-461.325 312.983,-422.035 336,-392 343.274,-382.508 347.235,-382.135 356,-374 356.193,-373.821 356.386,-373.642 356.579,-373.463"/>
<polygon fill="none" stroke="#404040" points="356.633,-373.412 358.287,-366.393 365.402,-365.219 363.748,-372.238 356.633,-373.412"/>
<text text-anchor="middle" x="379" y="-395.5" font-family="Helvetica,sans-Serif" font-size="10.00"> &#45;movingCharacters</text>
</g>
<!-- Node6 -->
<g id="node6" class="node"><title>Node6</title>
<g id="a_node6"><a xlink:href="classpkg__world_1_1Player.html" target="_top" xlink:title="class Player used to handle the user&#39;s player. ">
<polygon fill="white" stroke="black" points="365,-423 365,-623 487,-623 487,-423 365,-423"/>
<text text-anchor="middle" x="426" y="-611" font-family="Helvetica,sans-Serif" font-size="10.00">pkg_world.Player</text>
<polyline fill="none" stroke="black" points="365,-604 487,-604 "/>
<text text-anchor="start" x="373" y="-592" font-family="Helvetica,sans-Serif" font-size="10.00">&#45; name</text>
<text text-anchor="start" x="373" y="-581" font-family="Helvetica,sans-Serif" font-size="10.00">&#45; backpackWeight</text>
<text text-anchor="start" x="373" y="-570" font-family="Helvetica,sans-Serif" font-size="10.00">&#45; maxWeight</text>
<text text-anchor="start" x="373" y="-559" font-family="Helvetica,sans-Serif" font-size="10.00">&#45; threwSnowball</text>
<polyline fill="none" stroke="black" points="365,-552 487,-552 "/>
<text text-anchor="start" x="373" y="-540" font-family="Helvetica,sans-Serif" font-size="10.00">+ Player()</text>
<text text-anchor="start" x="373" y="-529" font-family="Helvetica,sans-Serif" font-size="10.00">+ getName()</text>
<text text-anchor="start" x="373" y="-518" font-family="Helvetica,sans-Serif" font-size="10.00">+ getMaxWeight()</text>
<text text-anchor="start" x="373" y="-507" font-family="Helvetica,sans-Serif" font-size="10.00">+ setMaxWeight()</text>
<text text-anchor="start" x="373" y="-496" font-family="Helvetica,sans-Serif" font-size="10.00">+ getCurrentRoom()</text>
<text text-anchor="start" x="373" y="-485" font-family="Helvetica,sans-Serif" font-size="10.00">+ goRoom()</text>
<text text-anchor="start" x="373" y="-474" font-family="Helvetica,sans-Serif" font-size="10.00">+ getPreviousRoom()</text>
<text text-anchor="start" x="373" y="-463" font-family="Helvetica,sans-Serif" font-size="10.00">+ pushPreviousRooms()</text>
<text text-anchor="start" x="373" y="-452" font-family="Helvetica,sans-Serif" font-size="10.00">+ pushForward()</text>
<text text-anchor="start" x="373" y="-441" font-family="Helvetica,sans-Serif" font-size="10.00">+ popPreviousRooms()</text>
<text text-anchor="start" x="373" y="-430" font-family="Helvetica,sans-Serif" font-size="10.00">and 12 more...</text>
</a>
</g>
</g>
<!-- Node6&#45;&gt;Node1 -->
<g id="edge6" class="edge"><title>Node6&#45;&gt;Node1</title>
<path fill="none" stroke="#404040" d="M426,-422.996C426,-410.349 426,-397.545 426,-385.289"/>
<polygon fill="none" stroke="#404040" points="426,-385.241 422,-379.241 426,-373.241 430,-379.241 426,-385.241"/>
<text text-anchor="middle" x="442.5" y="-395.5" font-family="Helvetica,sans-Serif" font-size="10.00"> &#45;player</text>
</g>
<!-- Node7 -->
<g id="node7" class="node"><title>Node7</title>
<g id="a_node7"><a xlink:href="classpkg__world_1_1Room.html" target="_top" xlink:title="Class used to handle a game&#39;s room. ">
<polygon fill="white" stroke="black" points="193,-683 193,-883 307,-883 307,-683 193,-683"/>
<text text-anchor="middle" x="250" y="-871" font-family="Helvetica,sans-Serif" font-size="10.00">pkg_world.Room</text>
<polyline fill="none" stroke="black" points="193,-864 307,-864 "/>
<text text-anchor="start" x="201" y="-852" font-family="Helvetica,sans-Serif" font-size="10.00">&#45; description</text>
<text text-anchor="start" x="201" y="-841" font-family="Helvetica,sans-Serif" font-size="10.00">&#45; imageName</text>
<polyline fill="none" stroke="black" points="193,-834 307,-834 "/>
<text text-anchor="start" x="201" y="-822" font-family="Helvetica,sans-Serif" font-size="10.00">+ Room()</text>
<text text-anchor="start" x="201" y="-811" font-family="Helvetica,sans-Serif" font-size="10.00">+ Room()</text>
<text text-anchor="start" x="201" y="-800" font-family="Helvetica,sans-Serif" font-size="10.00">+ setExit()</text>
<text text-anchor="start" x="201" y="-789" font-family="Helvetica,sans-Serif" font-size="10.00">+ getContainedItems()</text>
<text text-anchor="start" x="201" y="-778" font-family="Helvetica,sans-Serif" font-size="10.00">+ getItem()</text>
<text text-anchor="start" x="201" y="-767" font-family="Helvetica,sans-Serif" font-size="10.00">+ getCharacter()</text>
<text text-anchor="start" x="201" y="-756" font-family="Helvetica,sans-Serif" font-size="10.00">+ hasItem()</text>
<text text-anchor="start" x="201" y="-745" font-family="Helvetica,sans-Serif" font-size="10.00">+ hasCharacter()</text>
<text text-anchor="start" x="201" y="-734" font-family="Helvetica,sans-Serif" font-size="10.00">+ addItem()</text>
<text text-anchor="start" x="201" y="-723" font-family="Helvetica,sans-Serif" font-size="10.00">+ addCharacter()</text>
<text text-anchor="start" x="201" y="-712" font-family="Helvetica,sans-Serif" font-size="10.00">and 10 more...</text>
<text text-anchor="start" x="201" y="-701" font-family="Helvetica,sans-Serif" font-size="10.00">&#45; getHumanList()</text>
<text text-anchor="start" x="201" y="-690" font-family="Helvetica,sans-Serif" font-size="10.00">&#45; getExitString()</text>
</a>
</g>
</g>
<!-- Node7&#45;&gt;Node6 -->
<g id="edge7" class="edge"><title>Node7&#45;&gt;Node6</title>
<path fill="none" stroke="#404040" d="M307.142,-698.235C323.374,-674.44 341.21,-648.294 358.018,-623.656"/>
<polygon fill="none" stroke="#404040" points="358.137,-623.481 358.214,-616.271 364.899,-613.568 364.822,-620.779 358.137,-623.481"/>
<text text-anchor="middle" x="376.5" y="-656" font-family="Helvetica,sans-Serif" font-size="10.00"> &#45;beamerRoom</text>
<text text-anchor="middle" x="376.5" y="-645" font-family="Helvetica,sans-Serif" font-size="10.00">&#45;currentRoom</text>
</g>
<!-- Node8 -->
<g id="node8" class="node"><title>Node8</title>
<polygon fill="white" stroke="#bfbfbf" points="-0.5,-933 -0.5,-1001 114.5,-1001 114.5,-933 -0.5,-933"/>
<text text-anchor="start" x="7.5" y="-989" font-family="Helvetica,sans-Serif" font-size="10.00">HashMap&lt; String, pkg</text>
<text text-anchor="middle" x="57" y="-978" font-family="Helvetica,sans-Serif" font-size="10.00">_world.Room &gt;</text>
<polyline fill="none" stroke="#bfbfbf" points="-0.5,-971 114.5,-971 "/>
<text text-anchor="middle" x="57" y="-959" font-family="Helvetica,sans-Serif" font-size="10.00"> </text>
<polyline fill="none" stroke="#bfbfbf" points="-0.5,-952 114.5,-952 "/>
<text text-anchor="middle" x="57" y="-940" font-family="Helvetica,sans-Serif" font-size="10.00"> </text>
</g>
<!-- Node8&#45;&gt;Node7 -->
<g id="edge8" class="edge"><title>Node8&#45;&gt;Node7</title>
<path fill="none" stroke="#404040" d="M92.3992,-932.618C117.953,-908.521 153.218,-875.266 183.911,-846.323"/>
<polygon fill="none" stroke="#404040" points="184.122,-846.123 185.743,-839.097 192.853,-837.89 191.232,-844.917 184.122,-846.123"/>
<text text-anchor="middle" x="134" y="-905.5" font-family="Helvetica,sans-Serif" font-size="10.00"> &#45;exits</text>
</g>
<!-- Node9 -->
<g id="node9" class="node"><title>Node9</title>
<g id="a_node9"><a xlink:href="classpkg__world_1_1pkg__items_1_1ItemList.html" target="_top" xlink:title="class ItemList used to handle a list of Item (inventory). ">
<polygon fill="white" stroke="black" points="336.5,-938.5 336.5,-995.5 483.5,-995.5 483.5,-938.5 336.5,-938.5"/>
<text text-anchor="middle" x="410" y="-983.5" font-family="Helvetica,sans-Serif" font-size="10.00">pkg_world.pkg_items.ItemList</text>
<polyline fill="none" stroke="black" points="336.5,-976.5 483.5,-976.5 "/>
<text text-anchor="middle" x="410" y="-964.5" font-family="Helvetica,sans-Serif" font-size="10.00"> </text>
<polyline fill="none" stroke="black" points="336.5,-957.5 483.5,-957.5 "/>
<text text-anchor="start" x="344.5" y="-945.5" font-family="Helvetica,sans-Serif" font-size="10.00">+ transfer()</text>
</a>
</g>
</g>
<!-- Node9&#45;&gt;Node6 -->
<g id="edge12" class="edge"><title>Node9&#45;&gt;Node6</title>
<path fill="none" stroke="#404040" d="M411.072,-938.474C411.376,-930.572 411.705,-921.945 412,-914 415.489,-820.17 419.303,-713.636 422.068,-635.651"/>
<polygon fill="none" stroke="#404040" points="422.077,-635.379 418.292,-629.241 422.502,-623.386 426.287,-629.524 422.077,-635.379"/>
<text text-anchor="middle" x="445.5" y="-780.5" font-family="Helvetica,sans-Serif" font-size="10.00"> &#45;backpack</text>
</g>
<!-- Node9&#45;&gt;Node7 -->
<g id="edge9" class="edge"><title>Node9&#45;&gt;Node7</title>
<path fill="none" stroke="#404040" d="M367.155,-938.233C357.374,-930.94 347.398,-922.67 339,-914 330.491,-905.216 322.24,-895.535 314.415,-885.538"/>
<polygon fill="none" stroke="#404040" points="314.325,-885.419 307.506,-883.072 307.05,-875.876 313.869,-878.223 314.325,-885.419"/>
<text text-anchor="middle" x="375.5" y="-905.5" font-family="Helvetica,sans-Serif" font-size="10.00"> &#45;containedItems</text>
</g>
<!-- Node10 -->
<g id="node10" class="node"><title>Node10</title>
<polygon fill="white" stroke="#bfbfbf" points="359.5,-1041 359.5,-1109 460.5,-1109 460.5,-1041 359.5,-1041"/>
<text text-anchor="start" x="367.5" y="-1097" font-family="Helvetica,sans-Serif" font-size="10.00">java::util::HashMap</text>
<text text-anchor="middle" x="410" y="-1086" font-family="Helvetica,sans-Serif" font-size="10.00">&lt; String, Item &gt;</text>
<polyline fill="none" stroke="#bfbfbf" points="359.5,-1079 460.5,-1079 "/>
<text text-anchor="middle" x="410" y="-1067" font-family="Helvetica,sans-Serif" font-size="10.00"> </text>
<polyline fill="none" stroke="#bfbfbf" points="359.5,-1060 460.5,-1060 "/>
<text text-anchor="middle" x="410" y="-1048" font-family="Helvetica,sans-Serif" font-size="10.00"> </text>
</g>
<!-- Node10&#45;&gt;Node9 -->
<g id="edge10" class="edge"><title>Node10&#45;&gt;Node9</title>
<path fill="none" stroke="midnightblue" d="M410,-1030.64C410,-1018.87 410,-1006.44 410,-995.791"/>
<polygon fill="none" stroke="midnightblue" points="406.5,-1030.75 410,-1040.75 413.5,-1030.75 406.5,-1030.75"/>
</g>
<!-- Node11 -->
<g id="node11" class="node"><title>Node11</title>
<polygon fill="white" stroke="#bfbfbf" points="133,-933 133,-1001 303,-1001 303,-933 133,-933"/>
<text text-anchor="start" x="141" y="-989" font-family="Helvetica,sans-Serif" font-size="10.00">HashMap&lt; String, pkg</text>
<text text-anchor="middle" x="218" y="-978" font-family="Helvetica,sans-Serif" font-size="10.00">_world.pkg_characters.Character &gt;</text>
<polyline fill="none" stroke="#bfbfbf" points="133,-971 303,-971 "/>
<text text-anchor="middle" x="218" y="-959" font-family="Helvetica,sans-Serif" font-size="10.00"> </text>
<polyline fill="none" stroke="#bfbfbf" points="133,-952 303,-952 "/>
<text text-anchor="middle" x="218" y="-940" font-family="Helvetica,sans-Serif" font-size="10.00"> </text>
</g>
<!-- Node11&#45;&gt;Node7 -->
<g id="edge11" class="edge"><title>Node11&#45;&gt;Node7</title>
<path fill="none" stroke="#404040" d="M216.999,-932.997C217.103,-923.002 217.626,-912.019 219,-902 219.318,-899.679 219.667,-897.337 220.043,-894.983"/>
<polygon fill="none" stroke="#404040" points="220.05,-894.94 217.153,-888.337 222.133,-883.122 225.031,-889.726 220.05,-894.94"/>
<text text-anchor="middle" x="267.5" y="-905.5" font-family="Helvetica,sans-Serif" font-size="10.00"> &#45;containedCharacters</text>
</g>
<!-- Node12 -->
<g id="node12" class="node"><title>Node12</title>
<polygon fill="white" stroke="#bfbfbf" points="493,-754.5 493,-811.5 627,-811.5 627,-754.5 493,-754.5"/>
<text text-anchor="middle" x="560" y="-799.5" font-family="Helvetica,sans-Serif" font-size="10.00">Stack&lt; pkg_world.Room &gt;</text>
<polyline fill="none" stroke="#bfbfbf" points="493,-792.5 627,-792.5 "/>
<text text-anchor="middle" x="560" y="-780.5" font-family="Helvetica,sans-Serif" font-size="10.00"> </text>
<polyline fill="none" stroke="#bfbfbf" points="493,-773.5 627,-773.5 "/>
<text text-anchor="middle" x="560" y="-761.5" font-family="Helvetica,sans-Serif" font-size="10.00"> </text>
</g>
<!-- Node12&#45;&gt;Node6 -->
<g id="edge13" class="edge"><title>Node12&#45;&gt;Node6</title>
<path fill="none" stroke="#404040" d="M545.66,-754.389C530.659,-725.507 506.144,-678.307 483.197,-634.126"/>
<polygon fill="none" stroke="#404040" points="483.09,-633.92 476.775,-630.439 477.559,-623.271 483.875,-626.752 483.09,-633.92"/>
<text text-anchor="middle" x="534.5" y="-650.5" font-family="Helvetica,sans-Serif" font-size="10.00"> &#45;previousRooms</text>
</g>
<!-- Node13 -->
<g id="node13" class="node"><title>Node13</title>
<polygon fill="white" stroke="#bfbfbf" points="505.5,-494.5 505.5,-551.5 652.5,-551.5 652.5,-494.5 505.5,-494.5"/>
<text text-anchor="middle" x="579" y="-539.5" font-family="Helvetica,sans-Serif" font-size="10.00">ArrayList&lt; pkg_world.Room &gt;</text>
<polyline fill="none" stroke="#bfbfbf" points="505.5,-532.5 652.5,-532.5 "/>
<text text-anchor="middle" x="579" y="-520.5" font-family="Helvetica,sans-Serif" font-size="10.00"> </text>
<polyline fill="none" stroke="#bfbfbf" points="505.5,-513.5 652.5,-513.5 "/>
<text text-anchor="middle" x="579" y="-501.5" font-family="Helvetica,sans-Serif" font-size="10.00"> </text>
</g>
<!-- Node13&#45;&gt;Node1 -->
<g id="edge14" class="edge"><title>Node13&#45;&gt;Node1</title>
<path fill="none" stroke="#404040" d="M559.311,-494.333C539.456,-466.431 507.902,-422.092 480.477,-383.553"/>
<polygon fill="none" stroke="#404040" points="480.193,-383.153 473.455,-380.584 473.235,-373.376 479.973,-375.945 480.193,-383.153"/>
<text text-anchor="middle" x="524" y="-395.5" font-family="Helvetica,sans-Serif" font-size="10.00"> &#45;gameRooms</text>
</g>
</g>
</svg>
