<?xml version="1.0" encoding="UTF-8" standalone="no"?>
<!DOCTYPE svg PUBLIC "-//W3C//DTD SVG 1.1//EN"
 "http://www.w3.org/Graphics/SVG/1.1/DTD/svg11.dtd">
<!-- Generated by graphviz version 2.36.0 (20140111.2315)
 -->
<!-- Title: TestCommand.execute Pages: 1 -->
<svg width="290pt" height="142pt"
 viewBox="0.00 0.00 290.00 142.00" xmlns="http://www.w3.org/2000/svg" xmlns:xlink="http://www.w3.org/1999/xlink">
<g id="graph0" class="graph" transform="scale(1 1) rotate(0) translate(4 138)">
<title>TestCommand.execute</title>
<polygon fill="white" stroke="none" points="-4,4 -4,-138 286,-138 286,4 -4,4"/>
<!-- Node1 -->
<g id="node1" class="node"><title>Node1</title>
<polygon fill="#bfbfbf" stroke="black" points="0.5,-57.5 0.5,-76.5 119.5,-76.5 119.5,-57.5 0.5,-57.5"/>
<text text-anchor="middle" x="60" y="-64.5" font-family="Helvetica,sans-Serif" font-size="10.00">TestCommand.execute</text>
</g>
<!-- Node2 -->
<g id="node2" class="node"><title>Node2</title>
<g id="a_node2"><a xlink:href="classCommand.html#ac3d4abebefb2aea0ce9757bf9c356882" target="_top" xlink:title="Message field getter. ">
<polygon fill="white" stroke="black" points="160,-114.5 160,-133.5 278,-133.5 278,-114.5 160,-114.5"/>
<text text-anchor="middle" x="219" y="-121.5" font-family="Helvetica,sans-Serif" font-size="10.00">Command.getMessage</text>
</a>
</g>
</g>
<!-- Node1&#45;&gt;Node2 -->
<g id="edge1" class="edge"><title>Node1&#45;&gt;Node2</title>
<path fill="none" stroke="midnightblue" d="M83.4493,-76.5932C102.574,-84.6173 130.871,-96.1409 156,-105 162.132,-107.162 168.652,-109.315 175.074,-111.354"/>
<polygon fill="midnightblue" stroke="midnightblue" points="174.425,-114.817 185.013,-114.448 176.505,-108.134 174.425,-114.817"/>
</g>
<!-- Node3 -->
<g id="node3" class="node"><title>Node3</title>
<g id="a_node3"><a xlink:href="classCommand.html#a1ced3739d546770ba1389e6ce228255e" target="_top" xlink:title="Parameter field getter. ">
<polygon fill="white" stroke="black" points="157.5,-76.5 157.5,-95.5 280.5,-95.5 280.5,-76.5 157.5,-76.5"/>
<text text-anchor="middle" x="219" y="-83.5" font-family="Helvetica,sans-Serif" font-size="10.00">Command.getParameter</text>
</a>
</g>
</g>
<!-- Node1&#45;&gt;Node3 -->
<g id="edge2" class="edge"><title>Node1&#45;&gt;Node3</title>
<path fill="none" stroke="midnightblue" d="M119.908,-74.129C128.917,-75.2193 138.295,-76.3542 147.523,-77.4709"/>
<polygon fill="midnightblue" stroke="midnightblue" points="147.105,-80.9458 157.453,-78.6727 147.946,-73.9965 147.105,-80.9458"/>
</g>
<!-- Node4 -->
<g id="node4" class="node"><title>Node4</title>
<g id="a_node4"><a xlink:href="classCommand.html#a9b042558156d6749566e0fd9d48d3bfe" target="_top" xlink:title="Return true if the parameter is null. ">
<polygon fill="white" stroke="black" points="156.5,-38.5 156.5,-57.5 281.5,-57.5 281.5,-38.5 156.5,-38.5"/>
<text text-anchor="middle" x="219" y="-45.5" font-family="Helvetica,sans-Serif" font-size="10.00">Command.hasParameter</text>
</a>
</g>
</g>
<!-- Node1&#45;&gt;Node4 -->
<g id="edge3" class="edge"><title>Node1&#45;&gt;Node4</title>
<path fill="none" stroke="midnightblue" d="M119.908,-59.871C128.569,-58.8229 137.569,-57.7336 146.451,-56.6588"/>
<polygon fill="midnightblue" stroke="midnightblue" points="146.896,-60.1306 156.403,-55.4545 146.055,-53.1813 146.896,-60.1306"/>
</g>
<!-- Node5 -->
<g id="node5" class="node"><title>Node5</title>
<g id="a_node5"><a xlink:href="classCommand.html#a715709d8f0ab65879d79ad1725c96f17" target="_top" xlink:title="Message field setter. ">
<polygon fill="white" stroke="black" points="160,-0.5 160,-19.5 278,-19.5 278,-0.5 160,-0.5"/>
<text text-anchor="middle" x="219" y="-7.5" font-family="Helvetica,sans-Serif" font-size="10.00">Command.setMessage</text>
</a>
</g>
</g>
<!-- Node1&#45;&gt;Node5 -->
<g id="edge4" class="edge"><title>Node1&#45;&gt;Node5</title>
<path fill="none" stroke="midnightblue" d="M83.4493,-57.4068C102.574,-49.3827 130.871,-37.8591 156,-29 162.132,-26.8384 168.652,-24.6851 175.074,-22.6464"/>
<polygon fill="midnightblue" stroke="midnightblue" points="176.505,-25.8664 185.013,-19.5524 174.425,-19.1827 176.505,-25.8664"/>
</g>
</g>
</svg>
