<?xml version="1.0" encoding="UTF-8" standalone="no"?>
<!DOCTYPE svg PUBLIC "-//W3C//DTD SVG 1.1//EN"
 "http://www.w3.org/Graphics/SVG/1.1/DTD/svg11.dtd">
<!-- Generated by graphviz version 2.36.0 (20140111.2315)
 -->
<!-- Title: pkg_commands.BeamerCommand.execute Pages: 1 -->
<svg width="846pt" height="219pt"
 viewBox="0.00 0.00 846.00 219.00" xmlns="http://www.w3.org/2000/svg" xmlns:xlink="http://www.w3.org/1999/xlink">
<g id="graph0" class="graph" transform="scale(1 1) rotate(0) translate(4 215)">
<title>pkg_commands.BeamerCommand.execute</title>
<polygon fill="white" stroke="none" points="-4,4 -4,-215 842,-215 842,4 -4,4"/>
<!-- Node1 -->
<g id="node1" class="node"><title>Node1</title>
<polygon fill="#bfbfbf" stroke="black" points="0.5,-122.5 0.5,-141.5 205.5,-141.5 205.5,-122.5 0.5,-122.5"/>
<text text-anchor="middle" x="103" y="-129.5" font-family="Helvetica,sans-Serif" font-size="10.00">pkg_commands.BeamerCommand.execute</text>
</g>
<!-- Node2 -->
<g id="node2" class="node"><title>Node2</title>
<g id="a_node2"><a xlink:href="classpkg__commands_1_1BeamerCommand.html#ae71665296a18d581ad1f714c1078e37b" target="_top" xlink:title="Remember the current room. ">
<polygon fill="white" stroke="black" points="244,-191.5 244,-210.5 444,-210.5 444,-191.5 244,-191.5"/>
<text text-anchor="middle" x="344" y="-198.5" font-family="Helvetica,sans-Serif" font-size="10.00">pkg_commands.BeamerCommand.charge</text>
</a>
</g>
</g>
<!-- Node1&#45;&gt;Node2 -->
<g id="edge1" class="edge"><title>Node1&#45;&gt;Node2</title>
<path fill="none" stroke="midnightblue" d="M127.597,-141.568C154.809,-152.321 201.062,-169.743 242,-181 253.378,-184.129 265.604,-186.974 277.485,-189.473"/>
<polygon fill="midnightblue" stroke="midnightblue" points="276.858,-192.918 287.357,-191.49 278.26,-186.059 276.858,-192.918"/>
</g>
<!-- Node5 -->
<g id="node5" class="node"><title>Node5</title>
<g id="a_node5"><a xlink:href="classpkg__commands_1_1Command.html#a41c92d445be73ea9d62320c65efb8434" target="_top" xlink:title="Parameter field getter. ">
<polygon fill="white" stroke="black" points="269,-142 269,-172 419,-172 419,-142 269,-142"/>
<text text-anchor="start" x="277" y="-160" font-family="Helvetica,sans-Serif" font-size="10.00">pkg_commands.Command.get</text>
<text text-anchor="middle" x="344" y="-149" font-family="Helvetica,sans-Serif" font-size="10.00">Parameter</text>
</a>
</g>
</g>
<!-- Node1&#45;&gt;Node5 -->
<g id="edge4" class="edge"><title>Node1&#45;&gt;Node5</title>
<path fill="none" stroke="midnightblue" d="M195.037,-141.523C216.01,-143.717 238.225,-146.04 258.888,-148.202"/>
<polygon fill="midnightblue" stroke="midnightblue" points="258.585,-151.689 268.894,-149.248 259.313,-144.727 258.585,-151.689"/>
</g>
<!-- Node6 -->
<g id="node6" class="node"><title>Node6</title>
<g id="a_node6"><a xlink:href="classpkg__commands_1_1Command.html#a02af95ab3f1898a66259ab7c177b6998" target="_top" xlink:title="Return true if the parameter is null. ">
<polygon fill="white" stroke="black" points="268,-93 268,-123 420,-123 420,-93 268,-93"/>
<text text-anchor="start" x="276" y="-111" font-family="Helvetica,sans-Serif" font-size="10.00">pkg_commands.Command.has</text>
<text text-anchor="middle" x="344" y="-100" font-family="Helvetica,sans-Serif" font-size="10.00">Parameter</text>
</a>
</g>
</g>
<!-- Node1&#45;&gt;Node6 -->
<g id="edge5" class="edge"><title>Node1&#45;&gt;Node6</title>
<path fill="none" stroke="midnightblue" d="M198.802,-122.48C218.246,-120.528 238.601,-118.484 257.686,-116.567"/>
<polygon fill="midnightblue" stroke="midnightblue" points="258.24,-120.029 267.84,-115.547 257.54,-113.064 258.24,-120.029"/>
</g>
<!-- Node7 -->
<g id="node7" class="node"><title>Node7</title>
<g id="a_node7"><a xlink:href="classpkg__commands_1_1BeamerCommand.html#a2b6c04242d443d4ff36f255b06ce14be" target="_top" xlink:title="Teleport the player to the remembered room. ">
<polygon fill="white" stroke="black" points="242.5,-54.5 242.5,-73.5 445.5,-73.5 445.5,-54.5 242.5,-54.5"/>
<text text-anchor="middle" x="344" y="-61.5" font-family="Helvetica,sans-Serif" font-size="10.00">pkg_commands.BeamerCommand.teleport</text>
</a>
</g>
</g>
<!-- Node1&#45;&gt;Node7 -->
<g id="edge6" class="edge"><title>Node1&#45;&gt;Node7</title>
<path fill="none" stroke="midnightblue" d="M127.577,-122.362C154.772,-111.543 201.008,-94.0613 242,-83 252.287,-80.2241 263.271,-77.7093 274.067,-75.4849"/>
<polygon fill="midnightblue" stroke="midnightblue" points="274.78,-78.9117 283.903,-73.5246 273.412,-72.0467 274.78,-78.9117"/>
</g>
<!-- Node3 -->
<g id="node3" class="node"><title>Node3</title>
<g id="a_node3"><a xlink:href="classpkg__world_1_1Player.html#a81893b37cd26426863087f353f8be3ab" target="_top" xlink:title="beamerRoom field getter. ">
<polygon fill="white" stroke="black" points="482,-191.5 482,-210.5 650,-210.5 650,-191.5 482,-191.5"/>
<text text-anchor="middle" x="566" y="-198.5" font-family="Helvetica,sans-Serif" font-size="10.00">pkg_world.Player.getBeamerRoom</text>
</a>
</g>
</g>
<!-- Node2&#45;&gt;Node3 -->
<g id="edge2" class="edge"><title>Node2&#45;&gt;Node3</title>
<path fill="none" stroke="midnightblue" d="M444.059,-201C453.257,-201 462.558,-201 471.701,-201"/>
<polygon fill="midnightblue" stroke="midnightblue" points="471.944,-204.5 481.944,-201 471.944,-197.5 471.944,-204.5"/>
</g>
<!-- Node4 -->
<g id="node4" class="node"><title>Node4</title>
<g id="a_node4"><a xlink:href="classpkg__commands_1_1Command.html#ae210ff216fe908b111ba1c988a963d13" target="_top" xlink:title="Message field setter. ">
<polygon fill="white" stroke="black" points="687,-98 687,-128 837,-128 837,-98 687,-98"/>
<text text-anchor="start" x="695" y="-116" font-family="Helvetica,sans-Serif" font-size="10.00">pkg_commands.Command.set</text>
<text text-anchor="middle" x="762" y="-105" font-family="Helvetica,sans-Serif" font-size="10.00">Message</text>
</a>
</g>
</g>
<!-- Node2&#45;&gt;Node4 -->
<g id="edge3" class="edge"><title>Node2&#45;&gt;Node4</title>
<path fill="none" stroke="midnightblue" d="M394.094,-191.454C410.6,-188.197 429.108,-184.495 446,-181 526.867,-164.266 619.201,-144.223 682.895,-130.25"/>
<polygon fill="midnightblue" stroke="midnightblue" points="683.848,-133.624 692.865,-128.061 682.347,-126.787 683.848,-133.624"/>
</g>
<!-- Node7&#45;&gt;Node4 -->
<g id="edge7" class="edge"><title>Node7&#45;&gt;Node4</title>
<path fill="none" stroke="midnightblue" d="M393.669,-73.5518C419.779,-78.4163 452.555,-84.1087 482,-88 547.131,-96.6075 621.215,-103.092 676.667,-107.298"/>
<polygon fill="midnightblue" stroke="midnightblue" points="676.564,-110.8 686.798,-108.057 677.087,-103.819 676.564,-110.8"/>
</g>
<!-- Node8 -->
<g id="node8" class="node"><title>Node8</title>
<g id="a_node8"><a xlink:href="classpkg__commands_1_1GoCommand.html#a210afbc5f3ef34d3ad5759d853c8f8c2" target="_top" xlink:title="Go to the Room without checking. ">
<polygon fill="white" stroke="black" points="486,-49 486,-79 646,-79 646,-49 486,-49"/>
<text text-anchor="start" x="494" y="-67" font-family="Helvetica,sans-Serif" font-size="10.00">pkg_commands.GoCommand.go</text>
<text text-anchor="middle" x="566" y="-56" font-family="Helvetica,sans-Serif" font-size="10.00">RoomNoCheck</text>
</a>
</g>
</g>
<!-- Node7&#45;&gt;Node8 -->
<g id="edge8" class="edge"><title>Node7&#45;&gt;Node8</title>
<path fill="none" stroke="midnightblue" d="M445.664,-64C455.657,-64 465.753,-64 475.62,-64"/>
<polygon fill="midnightblue" stroke="midnightblue" points="475.805,-67.5001 485.805,-64 475.805,-60.5001 475.805,-67.5001"/>
</g>
<!-- Node8&#45;&gt;Node4 -->
<g id="edge9" class="edge"><title>Node8&#45;&gt;Node4</title>
<path fill="none" stroke="midnightblue" d="M626.525,-79.0346C647.102,-84.2318 670.337,-90.1006 691.634,-95.4796"/>
<polygon fill="midnightblue" stroke="midnightblue" points="691.035,-98.9383 701.588,-97.9938 692.749,-92.1514 691.035,-98.9383"/>
</g>
<!-- Node9 -->
<g id="node9" class="node"><title>Node9</title>
<g id="a_node9"><a xlink:href="classpkg__commands_1_1Command.html#ae46bb048d0fa705a5037a5204b530da2" target="_top" xlink:title="Return true if the message is equal to null or &quot;&quot;. ">
<polygon fill="white" stroke="black" points="686,-49 686,-79 838,-79 838,-49 686,-49"/>
<text text-anchor="start" x="694" y="-67" font-family="Helvetica,sans-Serif" font-size="10.00">pkg_commands.Command.has</text>
<text text-anchor="middle" x="762" y="-56" font-family="Helvetica,sans-Serif" font-size="10.00">Message</text>
</a>
</g>
</g>
<!-- Node8&#45;&gt;Node9 -->
<g id="edge10" class="edge"><title>Node8&#45;&gt;Node9</title>
<path fill="none" stroke="midnightblue" d="M646.187,-64C655.907,-64 665.874,-64 675.68,-64"/>
<polygon fill="midnightblue" stroke="midnightblue" points="675.823,-67.5001 685.823,-64 675.823,-60.5001 675.823,-67.5001"/>
</g>
<!-- Node10 -->
<g id="node10" class="node"><title>Node10</title>
<g id="a_node10"><a xlink:href="classpkg__commands_1_1Command.html#ac2a42e2bab264821892daefaf9a18b6c" target="_top" xlink:title="Message field getter. ">
<polygon fill="white" stroke="black" points="687,-0 687,-30 837,-30 837,-0 687,-0"/>
<text text-anchor="start" x="695" y="-18" font-family="Helvetica,sans-Serif" font-size="10.00">pkg_commands.Command.get</text>
<text text-anchor="middle" x="762" y="-7" font-family="Helvetica,sans-Serif" font-size="10.00">Message</text>
</a>
</g>
</g>
<!-- Node8&#45;&gt;Node10 -->
<g id="edge11" class="edge"><title>Node8&#45;&gt;Node10</title>
<path fill="none" stroke="midnightblue" d="M626.525,-48.9654C647.102,-43.7682 670.337,-37.8994 691.634,-32.5204"/>
<polygon fill="midnightblue" stroke="midnightblue" points="692.749,-35.8486 701.588,-30.0062 691.035,-29.0617 692.749,-35.8486"/>
</g>
</g>
</svg>
