<?xml version="1.0" encoding="UTF-8" standalone="no"?>
<!DOCTYPE svg PUBLIC "-//W3C//DTD SVG 1.1//EN"
 "http://www.w3.org/Graphics/SVG/1.1/DTD/svg11.dtd">
<!-- Generated by graphviz version 2.36.0 (20140111.2315)
 -->
<!-- Title: pkg_commands.Command.hasParameter Pages: 1 -->
<svg width="402pt" height="370pt"
 viewBox="0.00 0.00 402.00 370.00" xmlns="http://www.w3.org/2000/svg" xmlns:xlink="http://www.w3.org/1999/xlink">
<g id="graph0" class="graph" transform="scale(1 1) rotate(0) translate(4 366)">
<title>pkg_commands.Command.hasParameter</title>
<polygon fill="white" stroke="none" points="-4,4 -4,-366 398,-366 398,4 -4,4"/>
<!-- Node1 -->
<g id="node1" class="node"><title>Node1</title>
<polygon fill="#bfbfbf" stroke="black" points="0,-166 0,-196 152,-196 152,-166 0,-166"/>
<text text-anchor="start" x="8" y="-184" font-family="Helvetica,sans-Serif" font-size="10.00">pkg_commands.Command.has</text>
<text text-anchor="middle" x="76" y="-173" font-family="Helvetica,sans-Serif" font-size="10.00">Parameter</text>
</g>
<!-- Node2 -->
<g id="node2" class="node"><title>Node2</title>
<g id="a_node2"><a xlink:href="classpkg__commands_1_1LookCommand.html#af336146fae1e14bf434d85a5acbcdcd7" target="_top" xlink:title="Saves the information about the current Room or a given Item in the message field. ">
<polygon fill="white" stroke="black" points="195,-342.5 195,-361.5 387,-361.5 387,-342.5 195,-342.5"/>
<text text-anchor="middle" x="291" y="-349.5" font-family="Helvetica,sans-Serif" font-size="10.00">pkg_commands.LookCommand.execute</text>
</a>
</g>
</g>
<!-- Node1&#45;&gt;Node2 -->
<g id="edge1" class="edge"><title>Node1&#45;&gt;Node2</title>
<path fill="none" stroke="midnightblue" d="M87.5711,-205.348C103.843,-239.725 138.426,-301.774 188,-333 194.097,-336.84 200.778,-339.944 207.713,-342.448"/>
<polygon fill="midnightblue" stroke="midnightblue" points="90.6464,-203.658 83.2907,-196.032 84.2857,-206.58 90.6464,-203.658"/>
</g>
<!-- Node3 -->
<g id="node3" class="node"><title>Node3</title>
<g id="a_node3"><a xlink:href="classpkg__commands_1_1TalkCommand.html#a413573388e24a2d442f9814695f7e47c" target="_top" xlink:title="Make the player talk to a Character. ">
<polygon fill="white" stroke="black" points="196,-304.5 196,-323.5 386,-323.5 386,-304.5 196,-304.5"/>
<text text-anchor="middle" x="291" y="-311.5" font-family="Helvetica,sans-Serif" font-size="10.00">pkg_commands.TalkCommand.execute</text>
</a>
</g>
</g>
<!-- Node1&#45;&gt;Node3 -->
<g id="edge2" class="edge"><title>Node1&#45;&gt;Node3</title>
<path fill="none" stroke="midnightblue" d="M92.8243,-204.384C112.064,-230.844 147.082,-273.099 188,-295 195.226,-298.868 203.105,-301.961 211.178,-304.432"/>
<polygon fill="midnightblue" stroke="midnightblue" points="95.5626,-202.195 86.9189,-196.068 89.8553,-206.248 95.5626,-202.195"/>
</g>
<!-- Node4 -->
<g id="node4" class="node"><title>Node4</title>
<g id="a_node4"><a xlink:href="classpkg__commands_1_1DropCommand.html#a742e37b2d2dd4e111130811ee2f4dd0b" target="_top" xlink:title="Drop the Item through it&#39;s name in the parameter field. ">
<polygon fill="white" stroke="black" points="195,-266.5 195,-285.5 387,-285.5 387,-266.5 195,-266.5"/>
<text text-anchor="middle" x="291" y="-273.5" font-family="Helvetica,sans-Serif" font-size="10.00">pkg_commands.DropCommand.execute</text>
</a>
</g>
</g>
<!-- Node1&#45;&gt;Node4 -->
<g id="edge3" class="edge"><title>Node1&#45;&gt;Node4</title>
<path fill="none" stroke="midnightblue" d="M102.028,-202.692C123.433,-220.072 155.802,-243.679 188,-257 197.404,-260.891 207.626,-263.989 217.846,-266.456"/>
<polygon fill="midnightblue" stroke="midnightblue" points="104.045,-199.818 94.1091,-196.139 99.5815,-205.211 104.045,-199.818"/>
</g>
<!-- Node5 -->
<g id="node5" class="node"><title>Node5</title>
<g id="a_node5"><a xlink:href="classpkg__commands_1_1TakeCommand.html#a17789062aaf2ab5747c7eeac118875cd" target="_top" xlink:title="Make the player take an Item. ">
<polygon fill="white" stroke="black" points="194.5,-228.5 194.5,-247.5 387.5,-247.5 387.5,-228.5 194.5,-228.5"/>
<text text-anchor="middle" x="291" y="-235.5" font-family="Helvetica,sans-Serif" font-size="10.00">pkg_commands.TakeCommand.execute</text>
</a>
</g>
</g>
<!-- Node1&#45;&gt;Node5 -->
<g id="edge4" class="edge"><title>Node1&#45;&gt;Node5</title>
<path fill="none" stroke="midnightblue" d="M125.821,-199.432C145.013,-206.223 167.356,-213.574 188,-219 201.763,-222.617 216.745,-225.811 230.883,-228.499"/>
<polygon fill="midnightblue" stroke="midnightblue" points="126.981,-196.13 116.387,-196.05 124.619,-202.719 126.981,-196.13"/>
</g>
<!-- Node6 -->
<g id="node6" class="node"><title>Node6</title>
<g id="a_node6"><a xlink:href="classpkg__commands_1_1ThrowCommand.html#a38d936bcebcf45936324caf0f417b012" target="_top" xlink:title="Throw the Item through it&#39;s name in the parameter field. ">
<polygon fill="white" stroke="black" points="192,-190.5 192,-209.5 390,-209.5 390,-190.5 192,-190.5"/>
<text text-anchor="middle" x="291" y="-197.5" font-family="Helvetica,sans-Serif" font-size="10.00">pkg_commands.ThrowCommand.execute</text>
</a>
</g>
</g>
<!-- Node1&#45;&gt;Node6 -->
<g id="edge5" class="edge"><title>Node1&#45;&gt;Node6</title>
<path fill="none" stroke="midnightblue" d="M162.127,-188.593C171.852,-189.461 181.825,-190.351 191.704,-191.232"/>
<polygon fill="midnightblue" stroke="midnightblue" points="162.367,-185.101 152.096,-187.699 161.745,-192.073 162.367,-185.101"/>
</g>
<!-- Node7 -->
<g id="node7" class="node"><title>Node7</title>
<g id="a_node7"><a xlink:href="classpkg__commands_1_1EatCommand.html#a2a600f09891aa076b3f630293de965f4" target="_top" xlink:title="Make the player eat an object. ">
<polygon fill="white" stroke="black" points="198,-152.5 198,-171.5 384,-171.5 384,-152.5 198,-152.5"/>
<text text-anchor="middle" x="291" y="-159.5" font-family="Helvetica,sans-Serif" font-size="10.00">pkg_commands.EatCommand.execute</text>
</a>
</g>
</g>
<!-- Node1&#45;&gt;Node7 -->
<g id="edge6" class="edge"><title>Node1&#45;&gt;Node7</title>
<path fill="none" stroke="midnightblue" d="M162.23,-173.397C173.882,-172.358 185.889,-171.287 197.66,-170.237"/>
<polygon fill="midnightblue" stroke="midnightblue" points="161.745,-169.927 152.096,-174.301 162.367,-176.899 161.745,-169.927"/>
</g>
<!-- Node8 -->
<g id="node8" class="node"><title>Node8</title>
<g id="a_node8"><a xlink:href="classpkg__commands_1_1GiveCommand.html#a3a3cca7fae9b86d8ff85cc166564843d" target="_top" xlink:title="Make the player give an Item to a Character. ">
<polygon fill="white" stroke="black" points="195.5,-114.5 195.5,-133.5 386.5,-133.5 386.5,-114.5 195.5,-114.5"/>
<text text-anchor="middle" x="291" y="-121.5" font-family="Helvetica,sans-Serif" font-size="10.00">pkg_commands.GiveCommand.execute</text>
</a>
</g>
</g>
<!-- Node1&#45;&gt;Node8 -->
<g id="edge7" class="edge"><title>Node1&#45;&gt;Node8</title>
<path fill="none" stroke="midnightblue" d="M125.821,-162.568C145.013,-155.777 167.356,-148.426 188,-143 201.763,-139.383 216.745,-136.189 230.883,-133.501"/>
<polygon fill="midnightblue" stroke="midnightblue" points="124.619,-159.281 116.387,-165.95 126.981,-165.87 124.619,-159.281"/>
</g>
<!-- Node9 -->
<g id="node9" class="node"><title>Node9</title>
<g id="a_node9"><a xlink:href="classpkg__commands_1_1BeamerCommand.html#a139dc852e180cabd8af15cfed37dcf0e" target="_top" xlink:title="Teleport to the remembered room or remember a room. ">
<polygon fill="white" stroke="black" points="188.5,-76.5 188.5,-95.5 393.5,-95.5 393.5,-76.5 188.5,-76.5"/>
<text text-anchor="middle" x="291" y="-83.5" font-family="Helvetica,sans-Serif" font-size="10.00">pkg_commands.BeamerCommand.execute</text>
</a>
</g>
</g>
<!-- Node1&#45;&gt;Node9 -->
<g id="edge8" class="edge"><title>Node1&#45;&gt;Node9</title>
<path fill="none" stroke="midnightblue" d="M102.028,-159.308C123.433,-141.928 155.802,-118.321 188,-105 197.404,-101.109 207.626,-98.0106 217.846,-95.5437"/>
<polygon fill="midnightblue" stroke="midnightblue" points="99.5815,-156.789 94.1091,-165.861 104.045,-162.182 99.5815,-156.789"/>
</g>
<!-- Node10 -->
<g id="node10" class="node"><title>Node10</title>
<g id="a_node10"><a xlink:href="classpkg__commands_1_1TestCommand.html#a1ff07c27a46910d20c2e4569888892ca" target="_top" xlink:title="Test series of Commands stored in a .test file and store the messages in the message field...">
<polygon fill="white" stroke="black" points="195.5,-38.5 195.5,-57.5 386.5,-57.5 386.5,-38.5 195.5,-38.5"/>
<text text-anchor="middle" x="291" y="-45.5" font-family="Helvetica,sans-Serif" font-size="10.00">pkg_commands.TestCommand.execute</text>
</a>
</g>
</g>
<!-- Node1&#45;&gt;Node10 -->
<g id="edge9" class="edge"><title>Node1&#45;&gt;Node10</title>
<path fill="none" stroke="midnightblue" d="M92.8243,-157.616C112.064,-131.156 147.082,-88.9011 188,-67 195.226,-63.1323 203.105,-60.0393 211.178,-57.5677"/>
<polygon fill="midnightblue" stroke="midnightblue" points="89.8553,-155.752 86.9189,-165.932 95.5626,-159.805 89.8553,-155.752"/>
</g>
<!-- Node11 -->
<g id="node11" class="node"><title>Node11</title>
<g id="a_node11"><a xlink:href="classpkg__commands_1_1GoCommand.html#a82e9a64a0fac612f788060a90c83f9b1" target="_top" xlink:title="Make the player go to the Room through it&#39;s direction in the parameter field. ">
<polygon fill="white" stroke="black" points="199,-0.5 199,-19.5 383,-19.5 383,-0.5 199,-0.5"/>
<text text-anchor="middle" x="291" y="-7.5" font-family="Helvetica,sans-Serif" font-size="10.00">pkg_commands.GoCommand.execute</text>
</a>
</g>
</g>
<!-- Node1&#45;&gt;Node11 -->
<g id="edge10" class="edge"><title>Node1&#45;&gt;Node11</title>
<path fill="none" stroke="midnightblue" d="M87.5711,-156.652C103.843,-122.275 138.426,-60.226 188,-29 194.097,-25.1599 200.778,-22.0559 207.713,-19.5518"/>
<polygon fill="midnightblue" stroke="midnightblue" points="84.2857,-155.42 83.2907,-165.968 90.6464,-158.342 84.2857,-155.42"/>
</g>
</g>
</svg>
