<?xml version="1.0" encoding="UTF-8" standalone="no"?>
<!DOCTYPE svg PUBLIC "-//W3C//DTD SVG 1.1//EN"
 "http://www.w3.org/Graphics/SVG/1.1/DTD/svg11.dtd">
<!-- Generated by graphviz version 2.36.0 (20140111.2315)
 -->
<!-- Title: BeamerCommand.execute Pages: 1 -->
<svg width="658pt" height="180pt"
 viewBox="0.00 0.00 658.00 180.00" xmlns="http://www.w3.org/2000/svg" xmlns:xlink="http://www.w3.org/1999/xlink">
<g id="graph0" class="graph" transform="scale(1 1) rotate(0) translate(4 176)">
<title>BeamerCommand.execute</title>
<polygon fill="white" stroke="none" points="-4,4 -4,-176 654,-176 654,4 -4,4"/>
<!-- Node1 -->
<g id="node1" class="node"><title>Node1</title>
<polygon fill="#bfbfbf" stroke="black" points="0.5,-95.5 0.5,-114.5 133.5,-114.5 133.5,-95.5 0.5,-95.5"/>
<text text-anchor="middle" x="67" y="-102.5" font-family="Helvetica,sans-Serif" font-size="10.00">BeamerCommand.execute</text>
</g>
<!-- Node2 -->
<g id="node2" class="node"><title>Node2</title>
<g id="a_node2"><a xlink:href="classBeamerCommand.html#a130a572b2ec0532c92ea5033a098b1ac" target="_top" xlink:title="Remember the current room. ">
<polygon fill="white" stroke="black" points="172,-152.5 172,-171.5 300,-171.5 300,-152.5 172,-152.5"/>
<text text-anchor="middle" x="236" y="-159.5" font-family="Helvetica,sans-Serif" font-size="10.00">BeamerCommand.charge</text>
</a>
</g>
</g>
<!-- Node1&#45;&gt;Node2 -->
<g id="edge1" class="edge"><title>Node1&#45;&gt;Node2</title>
<path fill="none" stroke="midnightblue" d="M92.1439,-114.557C112.702,-122.558 143.097,-134.07 170,-143 176.597,-145.19 183.614,-147.382 190.505,-149.458"/>
<polygon fill="midnightblue" stroke="midnightblue" points="189.866,-152.919 200.448,-152.403 191.854,-146.207 189.866,-152.919"/>
</g>
<!-- Node5 -->
<g id="node5" class="node"><title>Node5</title>
<g id="a_node5"><a xlink:href="classCommand.html#a1ced3739d546770ba1389e6ce228255e" target="_top" xlink:title="Parameter field getter. ">
<polygon fill="white" stroke="black" points="174.5,-114.5 174.5,-133.5 297.5,-133.5 297.5,-114.5 174.5,-114.5"/>
<text text-anchor="middle" x="236" y="-121.5" font-family="Helvetica,sans-Serif" font-size="10.00">Command.getParameter</text>
</a>
</g>
</g>
<!-- Node1&#45;&gt;Node5 -->
<g id="edge4" class="edge"><title>Node1&#45;&gt;Node5</title>
<path fill="none" stroke="midnightblue" d="M133.524,-112.455C143.598,-113.601 154.039,-114.789 164.222,-115.947"/>
<polygon fill="midnightblue" stroke="midnightblue" points="163.963,-119.44 174.295,-117.093 164.755,-112.485 163.963,-119.44"/>
</g>
<!-- Node6 -->
<g id="node6" class="node"><title>Node6</title>
<g id="a_node6"><a xlink:href="classCommand.html#a9b042558156d6749566e0fd9d48d3bfe" target="_top" xlink:title="Return true if the parameter is null. ">
<polygon fill="white" stroke="black" points="173.5,-76.5 173.5,-95.5 298.5,-95.5 298.5,-76.5 173.5,-76.5"/>
<text text-anchor="middle" x="236" y="-83.5" font-family="Helvetica,sans-Serif" font-size="10.00">Command.hasParameter</text>
</a>
</g>
</g>
<!-- Node1&#45;&gt;Node6 -->
<g id="edge5" class="edge"><title>Node1&#45;&gt;Node6</title>
<path fill="none" stroke="midnightblue" d="M133.524,-97.5452C143.29,-96.4341 153.4,-95.2838 163.286,-94.1591"/>
<polygon fill="midnightblue" stroke="midnightblue" points="163.942,-97.6071 173.482,-92.999 163.151,-90.652 163.942,-97.6071"/>
</g>
<!-- Node7 -->
<g id="node7" class="node"><title>Node7</title>
<g id="a_node7"><a xlink:href="classBeamerCommand.html#a1f19366fb8b873959f72f38d49d5b178" target="_top" xlink:title="Teleport the player to the remembered room. ">
<polygon fill="white" stroke="black" points="170.5,-38.5 170.5,-57.5 301.5,-57.5 301.5,-38.5 170.5,-38.5"/>
<text text-anchor="middle" x="236" y="-45.5" font-family="Helvetica,sans-Serif" font-size="10.00">BeamerCommand.teleport</text>
</a>
</g>
</g>
<!-- Node1&#45;&gt;Node7 -->
<g id="edge6" class="edge"><title>Node1&#45;&gt;Node7</title>
<path fill="none" stroke="midnightblue" d="M92.1439,-95.4434C112.702,-87.4416 143.097,-75.9302 170,-67 176.597,-64.81 183.614,-62.6182 190.505,-60.5421"/>
<polygon fill="midnightblue" stroke="midnightblue" points="191.854,-63.7931 200.448,-57.5969 189.866,-57.0814 191.854,-63.7931"/>
</g>
<!-- Node3 -->
<g id="node3" class="node"><title>Node3</title>
<g id="a_node3"><a xlink:href="classPlayer.html#a9114998742351bf793e093cb198993ca" target="_top" xlink:title="beamerRoom field getter. ">
<polygon fill="white" stroke="black" points="355.5,-152.5 355.5,-171.5 476.5,-171.5 476.5,-152.5 355.5,-152.5"/>
<text text-anchor="middle" x="416" y="-159.5" font-family="Helvetica,sans-Serif" font-size="10.00">Player.getBeamerRoom</text>
</a>
</g>
</g>
<!-- Node2&#45;&gt;Node3 -->
<g id="edge2" class="edge"><title>Node2&#45;&gt;Node3</title>
<path fill="none" stroke="midnightblue" d="M300.007,-162C314.633,-162 330.286,-162 345.186,-162"/>
<polygon fill="midnightblue" stroke="midnightblue" points="345.359,-165.5 355.359,-162 345.359,-158.5 345.359,-165.5"/>
</g>
<!-- Node4 -->
<g id="node4" class="node"><title>Node4</title>
<g id="a_node4"><a xlink:href="classCommand.html#a715709d8f0ab65879d79ad1725c96f17" target="_top" xlink:title="Message field setter. ">
<polygon fill="white" stroke="black" points="531,-76.5 531,-95.5 649,-95.5 649,-76.5 531,-76.5"/>
<text text-anchor="middle" x="590" y="-83.5" font-family="Helvetica,sans-Serif" font-size="10.00">Command.setMessage</text>
</a>
</g>
</g>
<!-- Node2&#45;&gt;Node4 -->
<g id="edge3" class="edge"><title>Node2&#45;&gt;Node4</title>
<path fill="none" stroke="midnightblue" d="M281.225,-152.452C345.726,-138.525 465.479,-112.669 535.066,-97.6449"/>
<polygon fill="midnightblue" stroke="midnightblue" points="535.92,-101.041 544.956,-95.5094 534.443,-94.1988 535.92,-101.041"/>
</g>
<!-- Node7&#45;&gt;Node4 -->
<g id="edge7" class="edge"><title>Node7&#45;&gt;Node4</title>
<path fill="none" stroke="midnightblue" d="M282.079,-57.5819C299.484,-60.9914 319.602,-64.5807 338,-67 399.614,-75.1022 470.225,-80.0658 520.827,-82.8776"/>
<polygon fill="midnightblue" stroke="midnightblue" points="520.816,-86.3821 530.991,-83.4285 521.195,-79.3923 520.816,-86.3821"/>
</g>
<!-- Node8 -->
<g id="node8" class="node"><title>Node8</title>
<g id="a_node8"><a xlink:href="classGoCommand.html#a3149bf695c19b78c39cfc4dadece7846" target="_top" xlink:title="Go to the Room without checking. ">
<polygon fill="white" stroke="black" points="338.5,-38.5 338.5,-57.5 493.5,-57.5 493.5,-38.5 338.5,-38.5"/>
<text text-anchor="middle" x="416" y="-45.5" font-family="Helvetica,sans-Serif" font-size="10.00">GoCommand.goRoomNoCheck</text>
</a>
</g>
</g>
<!-- Node7&#45;&gt;Node8 -->
<g id="edge8" class="edge"><title>Node7&#45;&gt;Node8</title>
<path fill="none" stroke="midnightblue" d="M301.514,-48C310.188,-48 319.199,-48 328.181,-48"/>
<polygon fill="midnightblue" stroke="midnightblue" points="328.289,-51.5001 338.289,-48 328.289,-44.5001 328.289,-51.5001"/>
</g>
<!-- Node8&#45;&gt;Node4 -->
<g id="edge9" class="edge"><title>Node8&#45;&gt;Node4</title>
<path fill="none" stroke="midnightblue" d="M460.403,-57.589C483.407,-62.6713 511.851,-68.9554 536.134,-74.3203"/>
<polygon fill="midnightblue" stroke="midnightblue" points="535.39,-77.7402 545.909,-76.4799 536.9,-70.905 535.39,-77.7402"/>
</g>
<!-- Node9 -->
<g id="node9" class="node"><title>Node9</title>
<g id="a_node9"><a xlink:href="classCommand.html#a3d232d33894a20dc81b7627d84f14183" target="_top" xlink:title="Return true if the message is equal to null or &quot;&quot;. ">
<polygon fill="white" stroke="black" points="530,-38.5 530,-57.5 650,-57.5 650,-38.5 530,-38.5"/>
<text text-anchor="middle" x="590" y="-45.5" font-family="Helvetica,sans-Serif" font-size="10.00">Command.hasMessage</text>
</a>
</g>
</g>
<!-- Node8&#45;&gt;Node9 -->
<g id="edge10" class="edge"><title>Node8&#45;&gt;Node9</title>
<path fill="none" stroke="midnightblue" d="M493.694,-48C502.292,-48 511.015,-48 519.515,-48"/>
<polygon fill="midnightblue" stroke="midnightblue" points="519.749,-51.5001 529.749,-48 519.749,-44.5001 519.749,-51.5001"/>
</g>
<!-- Node10 -->
<g id="node10" class="node"><title>Node10</title>
<g id="a_node10"><a xlink:href="classCommand.html#ac3d4abebefb2aea0ce9757bf9c356882" target="_top" xlink:title="Message field getter. ">
<polygon fill="white" stroke="black" points="531,-0.5 531,-19.5 649,-19.5 649,-0.5 531,-0.5"/>
<text text-anchor="middle" x="590" y="-7.5" font-family="Helvetica,sans-Serif" font-size="10.00">Command.getMessage</text>
</a>
</g>
</g>
<!-- Node8&#45;&gt;Node10 -->
<g id="edge11" class="edge"><title>Node8&#45;&gt;Node10</title>
<path fill="none" stroke="midnightblue" d="M460.403,-38.411C483.407,-33.3287 511.851,-27.0446 536.134,-21.6797"/>
<polygon fill="midnightblue" stroke="midnightblue" points="536.9,-25.095 545.909,-19.5201 535.39,-18.2598 536.9,-25.095"/>
</g>
</g>
</svg>
