<?xml version="1.0" encoding="UTF-8" standalone="no"?>
<!DOCTYPE svg PUBLIC "-//W3C//DTD SVG 1.1//EN"
 "http://www.w3.org/Graphics/SVG/1.1/DTD/svg11.dtd">
<!-- Generated by graphviz version 2.36.0 (20140111.2315)
 -->
<!-- Title: Command.hasMessage Pages: 1 -->
<svg width="670pt" height="66pt"
 viewBox="0.00 0.00 670.00 66.00" xmlns="http://www.w3.org/2000/svg" xmlns:xlink="http://www.w3.org/1999/xlink">
<g id="graph0" class="graph" transform="scale(1 1) rotate(0) translate(4 62)">
<title>Command.hasMessage</title>
<polygon fill="white" stroke="none" points="-4,4 -4,-62 666,-62 666,4 -4,4"/>
<!-- Node1 -->
<g id="node1" class="node"><title>Node1</title>
<polygon fill="#bfbfbf" stroke="black" points="0,-19.5 0,-38.5 120,-38.5 120,-19.5 0,-19.5"/>
<text text-anchor="middle" x="60" y="-26.5" font-family="Helvetica,sans-Serif" font-size="10.00">Command.hasMessage</text>
</g>
<!-- Node2 -->
<g id="node2" class="node"><title>Node2</title>
<g id="a_node2"><a xlink:href="classGoCommand.html#a3149bf695c19b78c39cfc4dadece7846" target="_top" xlink:title="Go to the Room without checking. ">
<polygon fill="white" stroke="black" points="156.5,-19.5 156.5,-38.5 311.5,-38.5 311.5,-19.5 156.5,-19.5"/>
<text text-anchor="middle" x="234" y="-26.5" font-family="Helvetica,sans-Serif" font-size="10.00">GoCommand.goRoomNoCheck</text>
</a>
</g>
</g>
<!-- Node1&#45;&gt;Node2 -->
<g id="edge1" class="edge"><title>Node1&#45;&gt;Node2</title>
<path fill="none" stroke="midnightblue" d="M130.464,-29C138.996,-29 147.754,-29 156.384,-29"/>
<polygon fill="midnightblue" stroke="midnightblue" points="130.193,-25.5001 120.193,-29 130.193,-32.5001 130.193,-25.5001"/>
</g>
<!-- Node3 -->
<g id="node3" class="node"><title>Node3</title>
<g id="a_node3"><a xlink:href="classBeamerCommand.html#a1f19366fb8b873959f72f38d49d5b178" target="_top" xlink:title="Teleport the player to the remembered room. ">
<polygon fill="white" stroke="black" points="354.5,-38.5 354.5,-57.5 485.5,-57.5 485.5,-38.5 354.5,-38.5"/>
<text text-anchor="middle" x="420" y="-45.5" font-family="Helvetica,sans-Serif" font-size="10.00">BeamerCommand.teleport</text>
</a>
</g>
</g>
<!-- Node2&#45;&gt;Node3 -->
<g id="edge2" class="edge"><title>Node2&#45;&gt;Node3</title>
<path fill="none" stroke="midnightblue" d="M321.749,-37.9577C332.741,-39.0928 343.833,-40.2382 354.395,-41.3289"/>
<polygon fill="midnightblue" stroke="midnightblue" points="322.007,-34.4659 311.7,-36.9201 321.288,-41.4289 322.007,-34.4659"/>
</g>
<!-- Node5 -->
<g id="node5" class="node"><title>Node5</title>
<g id="a_node5"><a xlink:href="classGoCommand.html#a1fce2ad8ed1faf41fa300064585b3616" target="_top" xlink:title="Check if the wanted Room is connected to the current Room and go to this room. ">
<polygon fill="white" stroke="black" points="348.5,-0.5 348.5,-19.5 491.5,-19.5 491.5,-0.5 348.5,-0.5"/>
<text text-anchor="middle" x="420" y="-7.5" font-family="Helvetica,sans-Serif" font-size="10.00">GoCommand.goRoomCheck</text>
</a>
</g>
</g>
<!-- Node2&#45;&gt;Node5 -->
<g id="edge4" class="edge"><title>Node2&#45;&gt;Node5</title>
<path fill="none" stroke="midnightblue" d="M321.714,-20.0459C330.623,-19.1258 339.6,-18.199 348.306,-17.2999"/>
<polygon fill="midnightblue" stroke="midnightblue" points="321.288,-16.5711 311.7,-21.0799 322.007,-23.5341 321.288,-16.5711"/>
</g>
<!-- Node4 -->
<g id="node4" class="node"><title>Node4</title>
<g id="a_node4"><a xlink:href="classBeamerCommand.html#ab28a7d743569841e463b2c0c65cf6eb1" target="_top" xlink:title="Teleport to the remembered room or remember a room. ">
<polygon fill="white" stroke="black" points="528.5,-38.5 528.5,-57.5 661.5,-57.5 661.5,-38.5 528.5,-38.5"/>
<text text-anchor="middle" x="595" y="-45.5" font-family="Helvetica,sans-Serif" font-size="10.00">BeamerCommand.execute</text>
</a>
</g>
</g>
<!-- Node3&#45;&gt;Node4 -->
<g id="edge3" class="edge"><title>Node3&#45;&gt;Node4</title>
<path fill="none" stroke="midnightblue" d="M496.13,-48C506.887,-48 517.883,-48 528.437,-48"/>
<polygon fill="midnightblue" stroke="midnightblue" points="495.911,-44.5001 485.911,-48 495.911,-51.5001 495.911,-44.5001"/>
</g>
<!-- Node6 -->
<g id="node6" class="node"><title>Node6</title>
<g id="a_node6"><a xlink:href="classGoCommand.html#a77a61c2a3b89dca45b51e06f3bcb3ba7" target="_top" xlink:title="Make the player go to the Room through it&#39;s direction in the parameter field. ">
<polygon fill="white" stroke="black" points="539,-0.5 539,-19.5 651,-19.5 651,-0.5 539,-0.5"/>
<text text-anchor="middle" x="595" y="-7.5" font-family="Helvetica,sans-Serif" font-size="10.00">GoCommand.execute</text>
</a>
</g>
</g>
<!-- Node5&#45;&gt;Node6 -->
<g id="edge5" class="edge"><title>Node5&#45;&gt;Node6</title>
<path fill="none" stroke="midnightblue" d="M502.232,-10C514.641,-10 527.195,-10 538.868,-10"/>
<polygon fill="midnightblue" stroke="midnightblue" points="501.865,-6.5001 491.865,-10 501.865,-13.5001 501.865,-6.5001"/>
</g>
</g>
</svg>
