<?xml version="1.0" encoding="UTF-8" standalone="no"?>
<!DOCTYPE svg PUBLIC "-//W3C//DTD SVG 1.1//EN"
 "http://www.w3.org/Graphics/SVG/1.1/DTD/svg11.dtd">
<!-- Generated by graphviz version 2.36.0 (20140111.2315)
 -->
<!-- Title: pkg_commands.Command Pages: 1 -->
<svg width="1729pt" height="400pt"
 viewBox="0.00 0.00 1729.00 400.00" xmlns="http://www.w3.org/2000/svg" xmlns:xlink="http://www.w3.org/1999/xlink">
<g id="graph0" class="graph" transform="scale(1 1) rotate(0) translate(4 396)">
<title>pkg_commands.Command</title>
<polygon fill="white" stroke="none" points="-4,4 -4,-396 1725,-396 1725,4 -4,4"/>
<!-- Node1 -->
<g id="node1" class="node"><title>Node1</title>
<polygon fill="#bfbfbf" stroke="black" points="788,-257 788,-391 922,-391 922,-257 788,-257"/>
<text text-anchor="middle" x="855" y="-379" font-family="Helvetica,sans-Serif" font-size="10.00">pkg_commands.Command</text>
<polyline fill="none" stroke="black" points="788,-372 922,-372 "/>
<text text-anchor="start" x="796" y="-360" font-family="Helvetica,sans-Serif" font-size="10.00">&#45; parameter</text>
<text text-anchor="start" x="796" y="-349" font-family="Helvetica,sans-Serif" font-size="10.00">&#45; message</text>
<polyline fill="none" stroke="black" points="788,-342 922,-342 "/>
<text text-anchor="start" x="796" y="-330" font-family="Helvetica,sans-Serif" font-size="10.00">+ getParameter()</text>
<text text-anchor="start" x="796" y="-319" font-family="Helvetica,sans-Serif" font-size="10.00">+ setParameter()</text>
<text text-anchor="start" x="796" y="-308" font-family="Helvetica,sans-Serif" font-size="10.00">+ hasParameter()</text>
<text text-anchor="start" x="796" y="-297" font-family="Helvetica,sans-Serif" font-size="10.00">+ getMessage()</text>
<text text-anchor="start" x="796" y="-286" font-family="Helvetica,sans-Serif" font-size="10.00">+ hasMessage()</text>
<text text-anchor="start" x="796" y="-275" font-family="Helvetica,sans-Serif" font-size="10.00">+ execute()</text>
<text text-anchor="start" x="796" y="-264" font-family="Helvetica,sans-Serif" font-size="10.00"># setMessage()</text>
</g>
<!-- Node2 -->
<g id="node2" class="node"><title>Node2</title>
<g id="a_node2"><a xlink:href="classpkg__commands_1_1CreditsCommand.html" target="_top" xlink:title="class CreditsCommand used to print the credits of the game ">
<polygon fill="white" stroke="black" points="-0.5,-140 -0.5,-208 164.5,-208 164.5,-140 -0.5,-140"/>
<text text-anchor="middle" x="82" y="-196" font-family="Helvetica,sans-Serif" font-size="10.00">pkg_commands.CreditsCommand</text>
<polyline fill="none" stroke="black" points="-0.5,-189 164.5,-189 "/>
<text text-anchor="middle" x="82" y="-177" font-family="Helvetica,sans-Serif" font-size="10.00"> </text>
<polyline fill="none" stroke="black" points="-0.5,-170 164.5,-170 "/>
<text text-anchor="start" x="7.5" y="-158" font-family="Helvetica,sans-Serif" font-size="10.00">+ CreditsCommand()</text>
<text text-anchor="start" x="7.5" y="-147" font-family="Helvetica,sans-Serif" font-size="10.00">+ execute()</text>
</a>
</g>
</g>
<!-- Node1&#45;&gt;Node2 -->
<g id="edge1" class="edge"><title>Node1&#45;&gt;Node2</title>
<path fill="none" stroke="midnightblue" d="M777.641,-318.966C649.499,-310.599 386.267,-286.247 174,-220 163.731,-216.795 153.178,-212.592 143.048,-208.041"/>
<polygon fill="none" stroke="midnightblue" points="777.548,-322.467 787.751,-319.611 777.994,-315.481 777.548,-322.467"/>
</g>
<!-- Node3 -->
<g id="node3" class="node"><title>Node3</title>
<g id="a_node3"><a xlink:href="classpkg__commands_1_1DropCommand.html" target="_top" xlink:title="class DropCommand used to make the player drop an Item ">
<polygon fill="white" stroke="black" points="182.5,-140 182.5,-208 337.5,-208 337.5,-140 182.5,-140"/>
<text text-anchor="middle" x="260" y="-196" font-family="Helvetica,sans-Serif" font-size="10.00">pkg_commands.DropCommand</text>
<polyline fill="none" stroke="black" points="182.5,-189 337.5,-189 "/>
<text text-anchor="middle" x="260" y="-177" font-family="Helvetica,sans-Serif" font-size="10.00"> </text>
<polyline fill="none" stroke="black" points="182.5,-170 337.5,-170 "/>
<text text-anchor="start" x="190.5" y="-158" font-family="Helvetica,sans-Serif" font-size="10.00">+ DropCommand()</text>
<text text-anchor="start" x="190.5" y="-147" font-family="Helvetica,sans-Serif" font-size="10.00">+ execute()</text>
</a>
</g>
</g>
<!-- Node1&#45;&gt;Node3 -->
<g id="edge2" class="edge"><title>Node1&#45;&gt;Node3</title>
<path fill="none" stroke="midnightblue" d="M777.526,-314.085C676.343,-300.92 494.705,-272.032 347,-220 337.537,-216.666 327.815,-212.479 318.455,-208.009"/>
<polygon fill="none" stroke="midnightblue" points="777.297,-317.584 787.661,-315.386 778.188,-310.641 777.297,-317.584"/>
</g>
<!-- Node4 -->
<g id="node4" class="node"><title>Node4</title>
<g id="a_node4"><a xlink:href="classpkg__commands_1_1EatCommand.html" target="_top" xlink:title="class EatCommand used to make the player eat an object. ">
<polygon fill="white" stroke="black" points="355.5,-140 355.5,-208 504.5,-208 504.5,-140 355.5,-140"/>
<text text-anchor="middle" x="430" y="-196" font-family="Helvetica,sans-Serif" font-size="10.00">pkg_commands.EatCommand</text>
<polyline fill="none" stroke="black" points="355.5,-189 504.5,-189 "/>
<text text-anchor="middle" x="430" y="-177" font-family="Helvetica,sans-Serif" font-size="10.00"> </text>
<polyline fill="none" stroke="black" points="355.5,-170 504.5,-170 "/>
<text text-anchor="start" x="363.5" y="-158" font-family="Helvetica,sans-Serif" font-size="10.00">+ EatCommand()</text>
<text text-anchor="start" x="363.5" y="-147" font-family="Helvetica,sans-Serif" font-size="10.00">+ execute()</text>
</a>
</g>
</g>
<!-- Node1&#45;&gt;Node4 -->
<g id="edge3" class="edge"><title>Node1&#45;&gt;Node4</title>
<path fill="none" stroke="midnightblue" d="M777.872,-304.387C707.75,-286.373 602.089,-256.475 514,-220 505.593,-216.519 496.921,-212.456 488.486,-208.223"/>
<polygon fill="none" stroke="midnightblue" points="777.398,-307.878 787.953,-306.958 779.128,-301.095 777.398,-307.878"/>
</g>
<!-- Node5 -->
<g id="node5" class="node"><title>Node5</title>
<g id="a_node5"><a xlink:href="classpkg__commands_1_1GoCommand.html" target="_top" xlink:title="class GoCommand used to make the player go to a given Room. ">
<polygon fill="white" stroke="black" points="523,-129 523,-219 669,-219 669,-129 523,-129"/>
<text text-anchor="middle" x="596" y="-207" font-family="Helvetica,sans-Serif" font-size="10.00">pkg_commands.GoCommand</text>
<polyline fill="none" stroke="black" points="523,-200 669,-200 "/>
<text text-anchor="middle" x="596" y="-188" font-family="Helvetica,sans-Serif" font-size="10.00"> </text>
<polyline fill="none" stroke="black" points="523,-181 669,-181 "/>
<text text-anchor="start" x="531" y="-169" font-family="Helvetica,sans-Serif" font-size="10.00">+ GoCommand()</text>
<text text-anchor="start" x="531" y="-158" font-family="Helvetica,sans-Serif" font-size="10.00">+ execute()</text>
<text text-anchor="start" x="531" y="-147" font-family="Helvetica,sans-Serif" font-size="10.00"># goRoomCheck()</text>
<text text-anchor="start" x="531" y="-136" font-family="Helvetica,sans-Serif" font-size="10.00"># goRoomNoCheck()</text>
</a>
</g>
</g>
<!-- Node1&#45;&gt;Node5 -->
<g id="edge4" class="edge"><title>Node1&#45;&gt;Node5</title>
<path fill="none" stroke="midnightblue" d="M779.277,-279.73C744.544,-259.883 703.536,-236.449 669.126,-216.786"/>
<polygon fill="none" stroke="midnightblue" points="777.545,-282.771 787.964,-284.694 781.018,-276.694 777.545,-282.771"/>
</g>
<!-- Node8 -->
<g id="node8" class="node"><title>Node8</title>
<g id="a_node8"><a xlink:href="classpkg__commands_1_1HelpCommand.html" target="_top" xlink:title="class HelpCommand used to print the help ">
<polygon fill="white" stroke="black" points="687,-140 687,-208 841,-208 841,-140 687,-140"/>
<text text-anchor="middle" x="764" y="-196" font-family="Helvetica,sans-Serif" font-size="10.00">pkg_commands.HelpCommand</text>
<polyline fill="none" stroke="black" points="687,-189 841,-189 "/>
<text text-anchor="start" x="695" y="-177" font-family="Helvetica,sans-Serif" font-size="10.00">&#45; helpCount</text>
<polyline fill="none" stroke="black" points="687,-170 841,-170 "/>
<text text-anchor="start" x="695" y="-158" font-family="Helvetica,sans-Serif" font-size="10.00">+ HelpCommand()</text>
<text text-anchor="start" x="695" y="-147" font-family="Helvetica,sans-Serif" font-size="10.00">+ execute()</text>
</a>
</g>
</g>
<!-- Node1&#45;&gt;Node8 -->
<g id="edge7" class="edge"><title>Node1&#45;&gt;Node8</title>
<path fill="none" stroke="midnightblue" d="M808.953,-248.11C800.368,-234.148 791.809,-220.227 784.498,-208.338"/>
<polygon fill="none" stroke="midnightblue" points="806.072,-250.106 814.291,-256.792 812.035,-246.44 806.072,-250.106"/>
</g>
<!-- Node9 -->
<g id="node9" class="node"><title>Node9</title>
<g id="a_node9"><a xlink:href="classpkg__commands_1_1InventoryCommand.html" target="_top" xlink:title="class InventoryCommand used to print the player&#39;s inventory ">
<polygon fill="white" stroke="black" points="859,-140 859,-208 1033,-208 1033,-140 859,-140"/>
<text text-anchor="middle" x="946" y="-196" font-family="Helvetica,sans-Serif" font-size="10.00">pkg_commands.InventoryCommand</text>
<polyline fill="none" stroke="black" points="859,-189 1033,-189 "/>
<text text-anchor="middle" x="946" y="-177" font-family="Helvetica,sans-Serif" font-size="10.00"> </text>
<polyline fill="none" stroke="black" points="859,-170 1033,-170 "/>
<text text-anchor="start" x="867" y="-158" font-family="Helvetica,sans-Serif" font-size="10.00">+ InventoryCommand()</text>
<text text-anchor="start" x="867" y="-147" font-family="Helvetica,sans-Serif" font-size="10.00">+ execute()</text>
</a>
</g>
</g>
<!-- Node1&#45;&gt;Node9 -->
<g id="edge8" class="edge"><title>Node1&#45;&gt;Node9</title>
<path fill="none" stroke="midnightblue" d="M901.047,-248.11C909.632,-234.148 918.191,-220.227 925.502,-208.338"/>
<polygon fill="none" stroke="midnightblue" points="897.965,-246.44 895.709,-256.792 903.928,-250.106 897.965,-246.44"/>
</g>
<!-- Node10 -->
<g id="node10" class="node"><title>Node10</title>
<g id="a_node10"><a xlink:href="classpkg__commands_1_1LookCommand.html" target="_top" xlink:title="class LookCommand used to show information about the current Room or a given Item ...">
<polygon fill="white" stroke="black" points="1051.5,-134.5 1051.5,-213.5 1206.5,-213.5 1206.5,-134.5 1051.5,-134.5"/>
<text text-anchor="middle" x="1129" y="-201.5" font-family="Helvetica,sans-Serif" font-size="10.00">pkg_commands.LookCommand</text>
<polyline fill="none" stroke="black" points="1051.5,-194.5 1206.5,-194.5 "/>
<text text-anchor="middle" x="1129" y="-182.5" font-family="Helvetica,sans-Serif" font-size="10.00"> </text>
<polyline fill="none" stroke="black" points="1051.5,-175.5 1206.5,-175.5 "/>
<text text-anchor="start" x="1059.5" y="-163.5" font-family="Helvetica,sans-Serif" font-size="10.00">+ LookCommand()</text>
<text text-anchor="start" x="1059.5" y="-152.5" font-family="Helvetica,sans-Serif" font-size="10.00">+ execute()</text>
<text text-anchor="start" x="1059.5" y="-141.5" font-family="Helvetica,sans-Serif" font-size="10.00">&#45; showItem()</text>
</a>
</g>
</g>
<!-- Node1&#45;&gt;Node10 -->
<g id="edge9" class="edge"><title>Node1&#45;&gt;Node10</title>
<path fill="none" stroke="midnightblue" d="M930.846,-282.032C970.39,-260.673 1018.49,-234.694 1057.39,-213.679"/>
<polygon fill="none" stroke="midnightblue" points="929.163,-278.963 922.028,-286.795 932.49,-285.122 929.163,-278.963"/>
</g>
<!-- Node11 -->
<g id="node11" class="node"><title>Node11</title>
<g id="a_node11"><a xlink:href="classpkg__commands_1_1QuitCommand.html" target="_top" xlink:title="class QuitCommand used to quit the game ">
<polygon fill="white" stroke="black" points="1225,-140 1225,-208 1377,-208 1377,-140 1225,-140"/>
<text text-anchor="middle" x="1301" y="-196" font-family="Helvetica,sans-Serif" font-size="10.00">pkg_commands.QuitCommand</text>
<polyline fill="none" stroke="black" points="1225,-189 1377,-189 "/>
<text text-anchor="middle" x="1301" y="-177" font-family="Helvetica,sans-Serif" font-size="10.00"> </text>
<polyline fill="none" stroke="black" points="1225,-170 1377,-170 "/>
<text text-anchor="start" x="1233" y="-158" font-family="Helvetica,sans-Serif" font-size="10.00">+ QuitCommand()</text>
<text text-anchor="start" x="1233" y="-147" font-family="Helvetica,sans-Serif" font-size="10.00">+ execute()</text>
</a>
</g>
</g>
<!-- Node1&#45;&gt;Node11 -->
<g id="edge10" class="edge"><title>Node1&#45;&gt;Node11</title>
<path fill="none" stroke="midnightblue" d="M932.201,-305.74C1006.14,-288.089 1120.17,-257.919 1215,-220 1223.76,-216.497 1232.81,-212.372 1241.59,-208.067"/>
<polygon fill="none" stroke="midnightblue" points="930.964,-302.436 922.04,-308.147 932.577,-309.248 930.964,-302.436"/>
</g>
<!-- Node12 -->
<g id="node12" class="node"><title>Node12</title>
<g id="a_node12"><a xlink:href="classpkg__commands_1_1TakeCommand.html" target="_top" xlink:title="class TakeCommand used to make the Player take an Item ">
<polygon fill="white" stroke="black" points="1395.5,-140 1395.5,-208 1550.5,-208 1550.5,-140 1395.5,-140"/>
<text text-anchor="middle" x="1473" y="-196" font-family="Helvetica,sans-Serif" font-size="10.00">pkg_commands.TakeCommand</text>
<polyline fill="none" stroke="black" points="1395.5,-189 1550.5,-189 "/>
<text text-anchor="middle" x="1473" y="-177" font-family="Helvetica,sans-Serif" font-size="10.00"> </text>
<polyline fill="none" stroke="black" points="1395.5,-170 1550.5,-170 "/>
<text text-anchor="start" x="1403.5" y="-158" font-family="Helvetica,sans-Serif" font-size="10.00">+ TakeCommand()</text>
<text text-anchor="start" x="1403.5" y="-147" font-family="Helvetica,sans-Serif" font-size="10.00">+ execute()</text>
</a>
</g>
</g>
<!-- Node1&#45;&gt;Node12 -->
<g id="edge11" class="edge"><title>Node1&#45;&gt;Node12</title>
<path fill="none" stroke="midnightblue" d="M932.612,-314.983C1037.68,-302.558 1229.98,-274.221 1386,-220 1395.48,-216.706 1405.21,-212.541 1414.57,-208.08"/>
<polygon fill="none" stroke="midnightblue" points="931.938,-311.538 922.41,-316.172 932.748,-318.491 931.938,-311.538"/>
</g>
<!-- Node13 -->
<g id="node13" class="node"><title>Node13</title>
<g id="a_node13"><a xlink:href="classpkg__commands_1_1TestCommand.html" target="_top" xlink:title="class TestCommand used to test series of commands ">
<polygon fill="white" stroke="black" points="1568.5,-140 1568.5,-208 1721.5,-208 1721.5,-140 1568.5,-140"/>
<text text-anchor="middle" x="1645" y="-196" font-family="Helvetica,sans-Serif" font-size="10.00">pkg_commands.TestCommand</text>
<polyline fill="none" stroke="black" points="1568.5,-189 1721.5,-189 "/>
<text text-anchor="middle" x="1645" y="-177" font-family="Helvetica,sans-Serif" font-size="10.00"> </text>
<polyline fill="none" stroke="black" points="1568.5,-170 1721.5,-170 "/>
<text text-anchor="start" x="1576.5" y="-158" font-family="Helvetica,sans-Serif" font-size="10.00">+ TestCommand()</text>
<text text-anchor="start" x="1576.5" y="-147" font-family="Helvetica,sans-Serif" font-size="10.00">+ execute()</text>
</a>
</g>
</g>
<!-- Node1&#45;&gt;Node13 -->
<g id="edge12" class="edge"><title>Node1&#45;&gt;Node13</title>
<path fill="none" stroke="midnightblue" d="M932.197,-320.159C1063.83,-313.467 1338.85,-291.414 1559,-220 1568.78,-216.828 1578.78,-212.613 1588.34,-208.032"/>
<polygon fill="none" stroke="midnightblue" points="932.02,-316.663 922.204,-320.651 932.364,-323.655 932.02,-316.663"/>
</g>
<!-- Node6 -->
<g id="node6" class="node"><title>Node6</title>
<g id="a_node6"><a xlink:href="classpkg__commands_1_1BackCommand.html" target="_top" xlink:title="class BackCommand used to go back in a previous Room. ">
<polygon fill="white" stroke="black" points="428,-12 428,-80 584,-80 584,-12 428,-12"/>
<text text-anchor="middle" x="506" y="-68" font-family="Helvetica,sans-Serif" font-size="10.00">pkg_commands.BackCommand</text>
<polyline fill="none" stroke="black" points="428,-61 584,-61 "/>
<text text-anchor="middle" x="506" y="-49" font-family="Helvetica,sans-Serif" font-size="10.00"> </text>
<polyline fill="none" stroke="black" points="428,-42 584,-42 "/>
<text text-anchor="start" x="436" y="-30" font-family="Helvetica,sans-Serif" font-size="10.00">+ BackCommand()</text>
<text text-anchor="start" x="436" y="-19" font-family="Helvetica,sans-Serif" font-size="10.00">+ execute()</text>
</a>
</g>
</g>
<!-- Node5&#45;&gt;Node6 -->
<g id="edge5" class="edge"><title>Node5&#45;&gt;Node6</title>
<path fill="none" stroke="midnightblue" d="M558.518,-120.526C548.747,-106.845 538.489,-92.484 529.657,-80.1205"/>
<polygon fill="none" stroke="midnightblue" points="555.862,-122.828 564.522,-128.931 561.558,-118.76 555.862,-122.828"/>
</g>
<!-- Node7 -->
<g id="node7" class="node"><title>Node7</title>
<g id="a_node7"><a xlink:href="classpkg__commands_1_1BeamerCommand.html" target="_top" xlink:title="class BeamerCommand used to teleport into a remembered room ">
<polygon fill="white" stroke="black" points="602.5,-1 602.5,-91 769.5,-91 769.5,-1 602.5,-1"/>
<text text-anchor="middle" x="686" y="-79" font-family="Helvetica,sans-Serif" font-size="10.00">pkg_commands.BeamerCommand</text>
<polyline fill="none" stroke="black" points="602.5,-72 769.5,-72 "/>
<text text-anchor="middle" x="686" y="-60" font-family="Helvetica,sans-Serif" font-size="10.00"> </text>
<polyline fill="none" stroke="black" points="602.5,-53 769.5,-53 "/>
<text text-anchor="start" x="610.5" y="-41" font-family="Helvetica,sans-Serif" font-size="10.00">+ BeamerCommand()</text>
<text text-anchor="start" x="610.5" y="-30" font-family="Helvetica,sans-Serif" font-size="10.00">+ execute()</text>
<text text-anchor="start" x="610.5" y="-19" font-family="Helvetica,sans-Serif" font-size="10.00">+ charge()</text>
<text text-anchor="start" x="610.5" y="-8" font-family="Helvetica,sans-Serif" font-size="10.00">&#45; teleport()</text>
</a>
</g>
</g>
<!-- Node5&#45;&gt;Node7 -->
<g id="edge6" class="edge"><title>Node5&#45;&gt;Node7</title>
<path fill="none" stroke="midnightblue" d="M633.291,-120.793C640.302,-110.977 647.571,-100.801 654.388,-91.2568"/>
<polygon fill="none" stroke="midnightblue" points="630.442,-118.76 627.478,-128.931 636.138,-122.828 630.442,-118.76"/>
</g>
</g>
</svg>
