<?xml version="1.0" encoding="UTF-8" standalone="no"?>
<!DOCTYPE svg PUBLIC "-//W3C//DTD SVG 1.1//EN"
 "http://www.w3.org/Graphics/SVG/1.1/DTD/svg11.dtd">
<!-- Generated by graphviz version 2.36.0 (20140111.2315)
 -->
<!-- Title: UserInterface Pages: 1 -->
<svg width="423pt" height="866pt"
 viewBox="0.00 0.00 423.00 866.00" xmlns="http://www.w3.org/2000/svg" xmlns:xlink="http://www.w3.org/1999/xlink">
<g id="graph0" class="graph" transform="scale(1 1) rotate(0) translate(4 862)">
<title>UserInterface</title>
<polygon fill="white" stroke="none" points="-4,4 -4,-862 419,-862 419,4 -4,4"/>
<!-- Node1 -->
<g id="node1" class="node"><title>Node1</title>
<polygon fill="#bfbfbf" stroke="black" points="278,-172.5 278,-361.5 390,-361.5 390,-172.5 278,-172.5"/>
<text text-anchor="middle" x="334" y="-349.5" font-family="Helvetica,sans-Serif" font-size="10.00">UserInterface</text>
<polyline fill="none" stroke="black" points="278,-342.5 390,-342.5 "/>
<text text-anchor="start" x="286" y="-330.5" font-family="Helvetica,sans-Serif" font-size="10.00">&#45; myFrame</text>
<text text-anchor="start" x="286" y="-319.5" font-family="Helvetica,sans-Serif" font-size="10.00">&#45; entryField</text>
<text text-anchor="start" x="286" y="-308.5" font-family="Helvetica,sans-Serif" font-size="10.00">&#45; log</text>
<text text-anchor="start" x="286" y="-297.5" font-family="Helvetica,sans-Serif" font-size="10.00">&#45; image</text>
<text text-anchor="start" x="286" y="-286.5" font-family="Helvetica,sans-Serif" font-size="10.00">&#45; commandsLeftLabel</text>
<polyline fill="none" stroke="black" points="278,-279.5 390,-279.5 "/>
<text text-anchor="start" x="286" y="-267.5" font-family="Helvetica,sans-Serif" font-size="10.00">+ UserInterface()</text>
<text text-anchor="start" x="286" y="-256.5" font-family="Helvetica,sans-Serif" font-size="10.00">+ setCommandsLeft()</text>
<text text-anchor="start" x="286" y="-245.5" font-family="Helvetica,sans-Serif" font-size="10.00">+ print()</text>
<text text-anchor="start" x="286" y="-234.5" font-family="Helvetica,sans-Serif" font-size="10.00">+ println()</text>
<text text-anchor="start" x="286" y="-223.5" font-family="Helvetica,sans-Serif" font-size="10.00">+ showImage()</text>
<text text-anchor="start" x="286" y="-212.5" font-family="Helvetica,sans-Serif" font-size="10.00">+ enable()</text>
<text text-anchor="start" x="286" y="-201.5" font-family="Helvetica,sans-Serif" font-size="10.00">+ actionPerformed()</text>
<text text-anchor="start" x="286" y="-190.5" font-family="Helvetica,sans-Serif" font-size="10.00">&#45; createGUI()</text>
<text text-anchor="start" x="286" y="-179.5" font-family="Helvetica,sans-Serif" font-size="10.00">&#45; processCommand()</text>
</g>
<!-- Node3 -->
<g id="node3" class="node"><title>Node3</title>
<g id="a_node3"><a xlink:href="classGameEngine.html" target="_top" xlink:title="Class handling the gameplay for the game. ">
<polygon fill="white" stroke="black" points="182.5,-0.5 182.5,-123.5 299.5,-123.5 299.5,-0.5 182.5,-0.5"/>
<text text-anchor="middle" x="241" y="-111.5" font-family="Helvetica,sans-Serif" font-size="10.00">GameEngine</text>
<polyline fill="none" stroke="black" points="182.5,-104.5 299.5,-104.5 "/>
<text text-anchor="start" x="190.5" y="-92.5" font-family="Helvetica,sans-Serif" font-size="10.00">&#45; helpCount</text>
<text text-anchor="start" x="190.5" y="-81.5" font-family="Helvetica,sans-Serif" font-size="10.00">&#45; commandCountDown</text>
<polyline fill="none" stroke="black" points="182.5,-74.5 299.5,-74.5 "/>
<text text-anchor="start" x="190.5" y="-62.5" font-family="Helvetica,sans-Serif" font-size="10.00">+ GameEngine()</text>
<text text-anchor="start" x="190.5" y="-51.5" font-family="Helvetica,sans-Serif" font-size="10.00">+ setGUI()</text>
<text text-anchor="start" x="190.5" y="-40.5" font-family="Helvetica,sans-Serif" font-size="10.00">+ processCommand()</text>
<text text-anchor="start" x="190.5" y="-29.5" font-family="Helvetica,sans-Serif" font-size="10.00">&#45; printWelcome()</text>
<text text-anchor="start" x="190.5" y="-18.5" font-family="Helvetica,sans-Serif" font-size="10.00">&#45; createRooms()</text>
<text text-anchor="start" x="190.5" y="-7.5" font-family="Helvetica,sans-Serif" font-size="10.00">&#45; endGame()</text>
</a>
</g>
</g>
<!-- Node1&#45;&gt;Node3 -->
<g id="edge4" class="edge"><title>Node1&#45;&gt;Node3</title>
<path fill="none" stroke="#404040" d="M286.558,-172.452C283.61,-166.232 280.733,-160.041 278,-154 275.276,-147.979 272.528,-141.696 269.827,-135.368"/>
<polygon fill="none" stroke="#404040" points="269.687,-135.035 263.673,-131.058 265.031,-123.976 271.046,-127.953 269.687,-135.035"/>
<text text-anchor="middle" x="287.5" y="-145.5" font-family="Helvetica,sans-Serif" font-size="10.00"> &#45;gui</text>
</g>
<!-- Node2 -->
<g id="node2" class="node"><title>Node2</title>
<polygon fill="white" stroke="#bfbfbf" points="336.5,-503.5 336.5,-560.5 415.5,-560.5 415.5,-503.5 336.5,-503.5"/>
<text text-anchor="middle" x="376" y="-548.5" font-family="Helvetica,sans-Serif" font-size="10.00">ActionListener</text>
<polyline fill="none" stroke="#bfbfbf" points="336.5,-541.5 415.5,-541.5 "/>
<text text-anchor="middle" x="376" y="-529.5" font-family="Helvetica,sans-Serif" font-size="10.00"> </text>
<polyline fill="none" stroke="#bfbfbf" points="336.5,-522.5 415.5,-522.5 "/>
<text text-anchor="middle" x="376" y="-510.5" font-family="Helvetica,sans-Serif" font-size="10.00"> </text>
</g>
<!-- Node2&#45;&gt;Node1 -->
<g id="edge1" class="edge"><title>Node2&#45;&gt;Node1</title>
<path fill="none" stroke="midnightblue" d="M369.98,-493.306C364.504,-459.014 356.193,-406.969 348.937,-361.537"/>
<polygon fill="none" stroke="midnightblue" points="366.551,-494.029 371.585,-503.351 373.464,-492.925 366.551,-494.029"/>
</g>
<!-- Node3&#45;&gt;Node1 -->
<g id="edge2" class="edge"><title>Node3&#45;&gt;Node1</title>
<path fill="none" stroke="#404040" d="M290.6,-123.599C294.428,-129.628 297.974,-135.811 301,-142 303.936,-148.004 306.637,-154.303 309.118,-160.747"/>
<polygon fill="none" stroke="#404040" points="309.274,-161.18 315.074,-165.466 313.349,-172.468 307.549,-168.182 309.274,-161.18"/>
<text text-anchor="middle" x="323.5" y="-145.5" font-family="Helvetica,sans-Serif" font-size="10.00"> &#45;engine</text>
</g>
<!-- Node4 -->
<g id="node4" class="node"><title>Node4</title>
<polygon fill="white" stroke="#bfbfbf" points="20,-238.5 20,-295.5 120,-295.5 120,-238.5 20,-238.5"/>
<text text-anchor="middle" x="70" y="-283.5" font-family="Helvetica,sans-Serif" font-size="10.00">ArrayList&lt; Room &gt;</text>
<polyline fill="none" stroke="#bfbfbf" points="20,-276.5 120,-276.5 "/>
<text text-anchor="middle" x="70" y="-264.5" font-family="Helvetica,sans-Serif" font-size="10.00"> </text>
<polyline fill="none" stroke="#bfbfbf" points="20,-257.5 120,-257.5 "/>
<text text-anchor="middle" x="70" y="-245.5" font-family="Helvetica,sans-Serif" font-size="10.00"> </text>
</g>
<!-- Node4&#45;&gt;Node3 -->
<g id="edge3" class="edge"><title>Node4&#45;&gt;Node3</title>
<path fill="none" stroke="#404040" d="M86.3787,-238.414C97.8675,-219.445 113.827,-193.835 129,-172 138.587,-158.203 140.554,-154.299 152,-142 158.532,-134.981 165.62,-127.911 172.848,-121.039"/>
<polygon fill="none" stroke="#404040" points="173.272,-120.644 174.932,-113.626 182.048,-112.459 180.388,-119.477 173.272,-120.644"/>
<text text-anchor="middle" x="184.5" y="-145.5" font-family="Helvetica,sans-Serif" font-size="10.00"> ~gameRooms</text>
</g>
<!-- Node5 -->
<g id="node5" class="node"><title>Node5</title>
<g id="a_node5"><a xlink:href="classPlayer.html" target="_top" xlink:title="class Player used to handle the user&#39;s player. ">
<polygon fill="white" stroke="black" points="138,-172.5 138,-361.5 260,-361.5 260,-172.5 138,-172.5"/>
<text text-anchor="middle" x="199" y="-349.5" font-family="Helvetica,sans-Serif" font-size="10.00">Player</text>
<polyline fill="none" stroke="black" points="138,-342.5 260,-342.5 "/>
<text text-anchor="start" x="146" y="-330.5" font-family="Helvetica,sans-Serif" font-size="10.00">&#45; name</text>
<text text-anchor="start" x="146" y="-319.5" font-family="Helvetica,sans-Serif" font-size="10.00">&#45; backpackWeight</text>
<text text-anchor="start" x="146" y="-308.5" font-family="Helvetica,sans-Serif" font-size="10.00">&#45; maxWeight</text>
<polyline fill="none" stroke="black" points="138,-301.5 260,-301.5 "/>
<text text-anchor="start" x="146" y="-289.5" font-family="Helvetica,sans-Serif" font-size="10.00">+ Player()</text>
<text text-anchor="start" x="146" y="-278.5" font-family="Helvetica,sans-Serif" font-size="10.00">+ getName()</text>
<text text-anchor="start" x="146" y="-267.5" font-family="Helvetica,sans-Serif" font-size="10.00">+ getMaxWeight()</text>
<text text-anchor="start" x="146" y="-256.5" font-family="Helvetica,sans-Serif" font-size="10.00">+ setMaxWeight()</text>
<text text-anchor="start" x="146" y="-245.5" font-family="Helvetica,sans-Serif" font-size="10.00">+ getCurrentRoom()</text>
<text text-anchor="start" x="146" y="-234.5" font-family="Helvetica,sans-Serif" font-size="10.00">+ goRoom()</text>
<text text-anchor="start" x="146" y="-223.5" font-family="Helvetica,sans-Serif" font-size="10.00">+ getPreviousRoom()</text>
<text text-anchor="start" x="146" y="-212.5" font-family="Helvetica,sans-Serif" font-size="10.00">+ pushPreviousRooms()</text>
<text text-anchor="start" x="146" y="-201.5" font-family="Helvetica,sans-Serif" font-size="10.00">+ pushForward()</text>
<text text-anchor="start" x="146" y="-190.5" font-family="Helvetica,sans-Serif" font-size="10.00">+ popPreviousRooms()</text>
<text text-anchor="start" x="146" y="-179.5" font-family="Helvetica,sans-Serif" font-size="10.00">and 10 more...</text>
</a>
</g>
</g>
<!-- Node5&#45;&gt;Node3 -->
<g id="edge5" class="edge"><title>Node5&#45;&gt;Node3</title>
<path fill="none" stroke="#404040" d="M216.757,-172.497C218.814,-162.197 220.921,-151.87 223,-142 223.448,-139.873 223.908,-137.715 224.376,-135.537"/>
<polygon fill="none" stroke="#404040" points="224.385,-135.494 221.755,-128.78 226.942,-123.77 229.572,-130.484 224.385,-135.494"/>
<text text-anchor="middle" x="239.5" y="-145.5" font-family="Helvetica,sans-Serif" font-size="10.00"> &#45;player</text>
</g>
<!-- Node6 -->
<g id="node6" class="node"><title>Node6</title>
<polygon fill="white" stroke="#bfbfbf" points="0,-503.5 0,-560.5 86,-560.5 86,-503.5 0,-503.5"/>
<text text-anchor="middle" x="43" y="-548.5" font-family="Helvetica,sans-Serif" font-size="10.00">Stack&lt; Room &gt;</text>
<polyline fill="none" stroke="#bfbfbf" points="0,-541.5 86,-541.5 "/>
<text text-anchor="middle" x="43" y="-529.5" font-family="Helvetica,sans-Serif" font-size="10.00"> </text>
<polyline fill="none" stroke="#bfbfbf" points="0,-522.5 86,-522.5 "/>
<text text-anchor="middle" x="43" y="-510.5" font-family="Helvetica,sans-Serif" font-size="10.00"> </text>
</g>
<!-- Node6&#45;&gt;Node5 -->
<g id="edge6" class="edge"><title>Node6&#45;&gt;Node5</title>
<path fill="none" stroke="#404040" d="M33.8042,-503.31C24.6814,-470.114 15.7426,-414.633 44,-380 66.2188,-352.768 91.4687,-377.45 127.118,-361.537"/>
<polygon fill="none" stroke="#404040" points="127.476,-361.34 130.801,-354.941 137.986,-355.549 134.662,-361.948 127.476,-361.34"/>
<text text-anchor="middle" x="81.5" y="-388.5" font-family="Helvetica,sans-Serif" font-size="10.00"> &#45;previousRooms</text>
</g>
<!-- Node7 -->
<g id="node7" class="node"><title>Node7</title>
<g id="a_node7"><a xlink:href="classRoom.html" target="_top" xlink:title="Class used to handle a game&#39;s room. ">
<polygon fill="white" stroke="black" points="200,-421 200,-643 318,-643 318,-421 200,-421"/>
<text text-anchor="middle" x="259" y="-631" font-family="Helvetica,sans-Serif" font-size="10.00">Room</text>
<polyline fill="none" stroke="black" points="200,-624 318,-624 "/>
<text text-anchor="start" x="208" y="-612" font-family="Helvetica,sans-Serif" font-size="10.00">&#45; description</text>
<text text-anchor="start" x="208" y="-601" font-family="Helvetica,sans-Serif" font-size="10.00">&#45; imageName</text>
<polyline fill="none" stroke="black" points="200,-594 318,-594 "/>
<text text-anchor="start" x="208" y="-582" font-family="Helvetica,sans-Serif" font-size="10.00">+ Room()</text>
<text text-anchor="start" x="208" y="-571" font-family="Helvetica,sans-Serif" font-size="10.00">+ Room()</text>
<text text-anchor="start" x="208" y="-560" font-family="Helvetica,sans-Serif" font-size="10.00">+ setExit()</text>
<text text-anchor="start" x="208" y="-549" font-family="Helvetica,sans-Serif" font-size="10.00">+ getContainedItems()</text>
<text text-anchor="start" x="208" y="-538" font-family="Helvetica,sans-Serif" font-size="10.00">+ getItem()</text>
<text text-anchor="start" x="208" y="-527" font-family="Helvetica,sans-Serif" font-size="10.00">+ hasItem()</text>
<text text-anchor="start" x="208" y="-516" font-family="Helvetica,sans-Serif" font-size="10.00">+ addItem()</text>
<text text-anchor="start" x="208" y="-505" font-family="Helvetica,sans-Serif" font-size="10.00">+ removeItem()</text>
<text text-anchor="start" x="208" y="-494" font-family="Helvetica,sans-Serif" font-size="10.00">+ getShortDescription()</text>
<text text-anchor="start" x="208" y="-483" font-family="Helvetica,sans-Serif" font-size="10.00">+ getLongDescription()</text>
<text text-anchor="start" x="208" y="-472" font-family="Helvetica,sans-Serif" font-size="10.00">+ getHumanItemsList()</text>
<text text-anchor="start" x="208" y="-461" font-family="Helvetica,sans-Serif" font-size="10.00">+ getExit()</text>
<text text-anchor="start" x="208" y="-450" font-family="Helvetica,sans-Serif" font-size="10.00">+ isExit()</text>
<text text-anchor="start" x="208" y="-439" font-family="Helvetica,sans-Serif" font-size="10.00">+ getImageName()</text>
<text text-anchor="start" x="208" y="-428" font-family="Helvetica,sans-Serif" font-size="10.00">&#45; getExitString()</text>
</a>
</g>
</g>
<!-- Node7&#45;&gt;Node5 -->
<g id="edge7" class="edge"><title>Node7&#45;&gt;Node5</title>
<path fill="none" stroke="#404040" d="M233.902,-420.988C230.32,-405.285 226.641,-389.161 223.079,-373.546"/>
<polygon fill="none" stroke="#404040" points="223.05,-373.419 217.816,-368.459 220.381,-361.719 225.615,-366.679 223.05,-373.419"/>
<text text-anchor="middle" x="261.5" y="-394" font-family="Helvetica,sans-Serif" font-size="10.00"> &#45;beamerRoom</text>
<text text-anchor="middle" x="261.5" y="-383" font-family="Helvetica,sans-Serif" font-size="10.00">&#45;currentRoom</text>
</g>
<!-- Node8 -->
<g id="node8" class="node"><title>Node8</title>
<g id="a_node8"><a xlink:href="classItemList.html" target="_top" xlink:title="class ItemList used to handle a list of Item (inventory). ">
<polygon fill="white" stroke="black" points="106.5,-692.5 106.5,-749.5 171.5,-749.5 171.5,-692.5 106.5,-692.5"/>
<text text-anchor="middle" x="139" y="-737.5" font-family="Helvetica,sans-Serif" font-size="10.00">ItemList</text>
<polyline fill="none" stroke="black" points="106.5,-730.5 171.5,-730.5 "/>
<text text-anchor="middle" x="139" y="-718.5" font-family="Helvetica,sans-Serif" font-size="10.00"> </text>
<polyline fill="none" stroke="black" points="106.5,-711.5 171.5,-711.5 "/>
<text text-anchor="start" x="114.5" y="-699.5" font-family="Helvetica,sans-Serif" font-size="10.00">+ transfer()</text>
</a>
</g>
</g>
<!-- Node8&#45;&gt;Node5 -->
<g id="edge11" class="edge"><title>Node8&#45;&gt;Node5</title>
<path fill="none" stroke="#404040" d="M136.107,-692.391C131.224,-639.151 123.569,-518.822 142,-420 144.862,-404.656 149.153,-388.837 154.121,-373.466"/>
<polygon fill="none" stroke="#404040" points="154.215,-373.189 152.336,-366.227 158.04,-361.815 159.919,-368.778 154.215,-373.189"/>
<text text-anchor="middle" x="166.5" y="-529.5" font-family="Helvetica,sans-Serif" font-size="10.00"> &#45;backpack</text>
</g>
<!-- Node8&#45;&gt;Node7 -->
<g id="edge8" class="edge"><title>Node8&#45;&gt;Node7</title>
<path fill="none" stroke="#404040" d="M156.706,-692.408C166.623,-676.954 179.676,-656.613 193.127,-635.652"/>
<polygon fill="none" stroke="#404040" points="193.269,-635.431 193.143,-628.221 199.75,-625.332 199.876,-632.542 193.269,-635.431"/>
<text text-anchor="middle" x="211.5" y="-665.5" font-family="Helvetica,sans-Serif" font-size="10.00"> &#45;containedItems</text>
</g>
<!-- Node9 -->
<g id="node9" class="node"><title>Node9</title>
<polygon fill="white" stroke="#bfbfbf" points="88.5,-789 88.5,-857 189.5,-857 189.5,-789 88.5,-789"/>
<text text-anchor="start" x="96.5" y="-845" font-family="Helvetica,sans-Serif" font-size="10.00">java::util::HashMap</text>
<text text-anchor="middle" x="139" y="-834" font-family="Helvetica,sans-Serif" font-size="10.00">&lt; String, Item &gt;</text>
<polyline fill="none" stroke="#bfbfbf" points="88.5,-827 189.5,-827 "/>
<text text-anchor="middle" x="139" y="-815" font-family="Helvetica,sans-Serif" font-size="10.00"> </text>
<polyline fill="none" stroke="#bfbfbf" points="88.5,-808 189.5,-808 "/>
<text text-anchor="middle" x="139" y="-796" font-family="Helvetica,sans-Serif" font-size="10.00"> </text>
</g>
<!-- Node9&#45;&gt;Node8 -->
<g id="edge9" class="edge"><title>Node9&#45;&gt;Node8</title>
<path fill="none" stroke="midnightblue" d="M139,-778.857C139,-768.952 139,-758.682 139,-749.64"/>
<polygon fill="none" stroke="midnightblue" points="135.5,-778.979 139,-788.979 142.5,-778.979 135.5,-778.979"/>
</g>
<!-- Node10 -->
<g id="node10" class="node"><title>Node10</title>
<polygon fill="white" stroke="#bfbfbf" points="195,-692.5 195,-749.5 329,-749.5 329,-692.5 195,-692.5"/>
<text text-anchor="middle" x="262" y="-737.5" font-family="Helvetica,sans-Serif" font-size="10.00">HashMap&lt; String, Room &gt;</text>
<polyline fill="none" stroke="#bfbfbf" points="195,-730.5 329,-730.5 "/>
<text text-anchor="middle" x="262" y="-718.5" font-family="Helvetica,sans-Serif" font-size="10.00"> </text>
<polyline fill="none" stroke="#bfbfbf" points="195,-711.5 329,-711.5 "/>
<text text-anchor="middle" x="262" y="-699.5" font-family="Helvetica,sans-Serif" font-size="10.00"> </text>
</g>
<!-- Node10&#45;&gt;Node7 -->
<g id="edge10" class="edge"><title>Node10&#45;&gt;Node7</title>
<path fill="none" stroke="#404040" d="M261.557,-692.408C261.388,-681.878 261.183,-669.08 260.963,-655.362"/>
<polygon fill="none" stroke="#404040" points="260.959,-655.104 256.863,-649.169 260.766,-643.105 264.862,-649.04 260.959,-655.104"/>
<text text-anchor="middle" x="276" y="-665.5" font-family="Helvetica,sans-Serif" font-size="10.00"> &#45;exits</text>
</g>
</g>
</svg>
