<?xml version="1.0" encoding="UTF-8" standalone="no"?>
<!DOCTYPE svg PUBLIC "-//W3C//DTD SVG 1.1//EN"
 "http://www.w3.org/Graphics/SVG/1.1/DTD/svg11.dtd">
<!-- Generated by graphviz version 2.36.0 (20140111.2315)
 -->
<!-- Title: pkg_world.Player Pages: 1 -->
<svg width="635pt" height="684pt"
 viewBox="0.00 0.00 635.00 684.00" xmlns="http://www.w3.org/2000/svg" xmlns:xlink="http://www.w3.org/1999/xlink">
<g id="graph0" class="graph" transform="scale(1 1) rotate(0) translate(4 680)">
<title>pkg_world.Player</title>
<polygon fill="white" stroke="none" points="-4,4 -4,-680 631,-680 631,4 -4,4"/>
<!-- Node1 -->
<g id="node1" class="node"><title>Node1</title>
<polygon fill="#bfbfbf" stroke="black" points="365,-0.5 365,-189.5 487,-189.5 487,-0.5 365,-0.5"/>
<text text-anchor="middle" x="426" y="-177.5" font-family="Helvetica,sans-Serif" font-size="10.00">pkg_world.Player</text>
<polyline fill="none" stroke="black" points="365,-170.5 487,-170.5 "/>
<text text-anchor="start" x="373" y="-158.5" font-family="Helvetica,sans-Serif" font-size="10.00">&#45; name</text>
<text text-anchor="start" x="373" y="-147.5" font-family="Helvetica,sans-Serif" font-size="10.00">&#45; backpackWeight</text>
<text text-anchor="start" x="373" y="-136.5" font-family="Helvetica,sans-Serif" font-size="10.00">&#45; maxWeight</text>
<polyline fill="none" stroke="black" points="365,-129.5 487,-129.5 "/>
<text text-anchor="start" x="373" y="-117.5" font-family="Helvetica,sans-Serif" font-size="10.00">+ Player()</text>
<text text-anchor="start" x="373" y="-106.5" font-family="Helvetica,sans-Serif" font-size="10.00">+ getName()</text>
<text text-anchor="start" x="373" y="-95.5" font-family="Helvetica,sans-Serif" font-size="10.00">+ getMaxWeight()</text>
<text text-anchor="start" x="373" y="-84.5" font-family="Helvetica,sans-Serif" font-size="10.00">+ setMaxWeight()</text>
<text text-anchor="start" x="373" y="-73.5" font-family="Helvetica,sans-Serif" font-size="10.00">+ getCurrentRoom()</text>
<text text-anchor="start" x="373" y="-62.5" font-family="Helvetica,sans-Serif" font-size="10.00">+ goRoom()</text>
<text text-anchor="start" x="373" y="-51.5" font-family="Helvetica,sans-Serif" font-size="10.00">+ getPreviousRoom()</text>
<text text-anchor="start" x="373" y="-40.5" font-family="Helvetica,sans-Serif" font-size="10.00">+ pushPreviousRooms()</text>
<text text-anchor="start" x="373" y="-29.5" font-family="Helvetica,sans-Serif" font-size="10.00">+ pushForward()</text>
<text text-anchor="start" x="373" y="-18.5" font-family="Helvetica,sans-Serif" font-size="10.00">+ popPreviousRooms()</text>
<text text-anchor="start" x="373" y="-7.5" font-family="Helvetica,sans-Serif" font-size="10.00">and 10 more...</text>
</g>
<!-- Node2 -->
<g id="node2" class="node"><title>Node2</title>
<g id="a_node2"><a xlink:href="classpkg__world_1_1Room.html" target="_top" xlink:title="Class used to handle a game&#39;s room. ">
<polygon fill="white" stroke="black" points="193,-249 193,-449 307,-449 307,-249 193,-249"/>
<text text-anchor="middle" x="250" y="-437" font-family="Helvetica,sans-Serif" font-size="10.00">pkg_world.Room</text>
<polyline fill="none" stroke="black" points="193,-430 307,-430 "/>
<text text-anchor="start" x="201" y="-418" font-family="Helvetica,sans-Serif" font-size="10.00">&#45; description</text>
<text text-anchor="start" x="201" y="-407" font-family="Helvetica,sans-Serif" font-size="10.00">&#45; imageName</text>
<polyline fill="none" stroke="black" points="193,-400 307,-400 "/>
<text text-anchor="start" x="201" y="-388" font-family="Helvetica,sans-Serif" font-size="10.00">+ Room()</text>
<text text-anchor="start" x="201" y="-377" font-family="Helvetica,sans-Serif" font-size="10.00">+ Room()</text>
<text text-anchor="start" x="201" y="-366" font-family="Helvetica,sans-Serif" font-size="10.00">+ setExit()</text>
<text text-anchor="start" x="201" y="-355" font-family="Helvetica,sans-Serif" font-size="10.00">+ getContainedItems()</text>
<text text-anchor="start" x="201" y="-344" font-family="Helvetica,sans-Serif" font-size="10.00">+ getItem()</text>
<text text-anchor="start" x="201" y="-333" font-family="Helvetica,sans-Serif" font-size="10.00">+ getCharacter()</text>
<text text-anchor="start" x="201" y="-322" font-family="Helvetica,sans-Serif" font-size="10.00">+ hasItem()</text>
<text text-anchor="start" x="201" y="-311" font-family="Helvetica,sans-Serif" font-size="10.00">+ hasCharacter()</text>
<text text-anchor="start" x="201" y="-300" font-family="Helvetica,sans-Serif" font-size="10.00">+ addItem()</text>
<text text-anchor="start" x="201" y="-289" font-family="Helvetica,sans-Serif" font-size="10.00">+ addCharacter()</text>
<text text-anchor="start" x="201" y="-278" font-family="Helvetica,sans-Serif" font-size="10.00">and 10 more...</text>
<text text-anchor="start" x="201" y="-267" font-family="Helvetica,sans-Serif" font-size="10.00">&#45; getHumanList()</text>
<text text-anchor="start" x="201" y="-256" font-family="Helvetica,sans-Serif" font-size="10.00">&#45; getExitString()</text>
</a>
</g>
</g>
<!-- Node2&#45;&gt;Node1 -->
<g id="edge1" class="edge"><title>Node2&#45;&gt;Node1</title>
<path fill="none" stroke="#404040" d="M307.075,-265.378C320.163,-246.501 334.039,-226.54 347,-208 350.531,-202.949 354.156,-197.774 357.82,-192.552"/>
<polygon fill="none" stroke="#404040" points="358.003,-192.291 358.178,-185.082 364.899,-182.47 364.725,-189.679 358.003,-192.291"/>
<text text-anchor="middle" x="379.5" y="-222" font-family="Helvetica,sans-Serif" font-size="10.00"> &#45;beamerRoom</text>
<text text-anchor="middle" x="379.5" y="-211" font-family="Helvetica,sans-Serif" font-size="10.00">&#45;currentRoom</text>
</g>
<!-- Node3 -->
<g id="node3" class="node"><title>Node3</title>
<polygon fill="white" stroke="#bfbfbf" points="-0.5,-499 -0.5,-567 114.5,-567 114.5,-499 -0.5,-499"/>
<text text-anchor="start" x="7.5" y="-555" font-family="Helvetica,sans-Serif" font-size="10.00">HashMap&lt; String, pkg</text>
<text text-anchor="middle" x="57" y="-544" font-family="Helvetica,sans-Serif" font-size="10.00">_world.Room &gt;</text>
<polyline fill="none" stroke="#bfbfbf" points="-0.5,-537 114.5,-537 "/>
<text text-anchor="middle" x="57" y="-525" font-family="Helvetica,sans-Serif" font-size="10.00"> </text>
<polyline fill="none" stroke="#bfbfbf" points="-0.5,-518 114.5,-518 "/>
<text text-anchor="middle" x="57" y="-506" font-family="Helvetica,sans-Serif" font-size="10.00"> </text>
</g>
<!-- Node3&#45;&gt;Node2 -->
<g id="edge2" class="edge"><title>Node3&#45;&gt;Node2</title>
<path fill="none" stroke="#404040" d="M92.3992,-498.618C117.953,-474.521 153.218,-441.266 183.911,-412.323"/>
<polygon fill="none" stroke="#404040" points="184.122,-412.123 185.743,-405.097 192.853,-403.89 191.232,-410.917 184.122,-412.123"/>
<text text-anchor="middle" x="134" y="-471.5" font-family="Helvetica,sans-Serif" font-size="10.00"> &#45;exits</text>
</g>
<!-- Node4 -->
<g id="node4" class="node"><title>Node4</title>
<g id="a_node4"><a xlink:href="classpkg__world_1_1pkg__items_1_1ItemList.html" target="_top" xlink:title="class ItemList used to handle a list of Item (inventory). ">
<polygon fill="white" stroke="black" points="336.5,-504.5 336.5,-561.5 483.5,-561.5 483.5,-504.5 336.5,-504.5"/>
<text text-anchor="middle" x="410" y="-549.5" font-family="Helvetica,sans-Serif" font-size="10.00">pkg_world.pkg_items.ItemList</text>
<polyline fill="none" stroke="black" points="336.5,-542.5 483.5,-542.5 "/>
<text text-anchor="middle" x="410" y="-530.5" font-family="Helvetica,sans-Serif" font-size="10.00"> </text>
<polyline fill="none" stroke="black" points="336.5,-523.5 483.5,-523.5 "/>
<text text-anchor="start" x="344.5" y="-511.5" font-family="Helvetica,sans-Serif" font-size="10.00">+ transfer()</text>
</a>
</g>
</g>
<!-- Node4&#45;&gt;Node1 -->
<g id="edge6" class="edge"><title>Node4&#45;&gt;Node1</title>
<path fill="none" stroke="#404040" d="M411.069,-504.474C411.373,-496.572 411.702,-487.945 412,-480 415.526,-385.873 419.421,-278.762 422.206,-201.624"/>
<polygon fill="none" stroke="#404040" points="422.21,-201.5 418.429,-195.359 422.643,-189.508 426.424,-195.648 422.21,-201.5"/>
<text text-anchor="middle" x="445.5" y="-346.5" font-family="Helvetica,sans-Serif" font-size="10.00"> &#45;backpack</text>
</g>
<!-- Node4&#45;&gt;Node2 -->
<g id="edge3" class="edge"><title>Node4&#45;&gt;Node2</title>
<path fill="none" stroke="#404040" d="M367.155,-504.233C357.374,-496.94 347.398,-488.67 339,-480 330.491,-471.216 322.24,-461.535 314.415,-451.538"/>
<polygon fill="none" stroke="#404040" points="314.325,-451.419 307.506,-449.072 307.05,-441.876 313.869,-444.223 314.325,-451.419"/>
<text text-anchor="middle" x="375.5" y="-471.5" font-family="Helvetica,sans-Serif" font-size="10.00"> &#45;containedItems</text>
</g>
<!-- Node5 -->
<g id="node5" class="node"><title>Node5</title>
<polygon fill="white" stroke="#bfbfbf" points="359.5,-607 359.5,-675 460.5,-675 460.5,-607 359.5,-607"/>
<text text-anchor="start" x="367.5" y="-663" font-family="Helvetica,sans-Serif" font-size="10.00">java::util::HashMap</text>
<text text-anchor="middle" x="410" y="-652" font-family="Helvetica,sans-Serif" font-size="10.00">&lt; String, Item &gt;</text>
<polyline fill="none" stroke="#bfbfbf" points="359.5,-645 460.5,-645 "/>
<text text-anchor="middle" x="410" y="-633" font-family="Helvetica,sans-Serif" font-size="10.00"> </text>
<polyline fill="none" stroke="#bfbfbf" points="359.5,-626 460.5,-626 "/>
<text text-anchor="middle" x="410" y="-614" font-family="Helvetica,sans-Serif" font-size="10.00"> </text>
</g>
<!-- Node5&#45;&gt;Node4 -->
<g id="edge4" class="edge"><title>Node5&#45;&gt;Node4</title>
<path fill="none" stroke="midnightblue" d="M410,-596.639C410,-584.87 410,-572.444 410,-561.791"/>
<polygon fill="none" stroke="midnightblue" points="406.5,-596.752 410,-606.752 413.5,-596.752 406.5,-596.752"/>
</g>
<!-- Node6 -->
<g id="node6" class="node"><title>Node6</title>
<polygon fill="white" stroke="#bfbfbf" points="133,-499 133,-567 303,-567 303,-499 133,-499"/>
<text text-anchor="start" x="141" y="-555" font-family="Helvetica,sans-Serif" font-size="10.00">HashMap&lt; String, pkg</text>
<text text-anchor="middle" x="218" y="-544" font-family="Helvetica,sans-Serif" font-size="10.00">_world.pkg_characters.Character &gt;</text>
<polyline fill="none" stroke="#bfbfbf" points="133,-537 303,-537 "/>
<text text-anchor="middle" x="218" y="-525" font-family="Helvetica,sans-Serif" font-size="10.00"> </text>
<polyline fill="none" stroke="#bfbfbf" points="133,-518 303,-518 "/>
<text text-anchor="middle" x="218" y="-506" font-family="Helvetica,sans-Serif" font-size="10.00"> </text>
</g>
<!-- Node6&#45;&gt;Node2 -->
<g id="edge5" class="edge"><title>Node6&#45;&gt;Node2</title>
<path fill="none" stroke="#404040" d="M216.999,-498.997C217.103,-489.002 217.626,-478.019 219,-468 219.318,-465.679 219.667,-463.337 220.043,-460.983"/>
<polygon fill="none" stroke="#404040" points="220.05,-460.94 217.153,-454.337 222.133,-449.122 225.031,-455.726 220.05,-460.94"/>
<text text-anchor="middle" x="267.5" y="-471.5" font-family="Helvetica,sans-Serif" font-size="10.00"> &#45;containedCharacters</text>
</g>
<!-- Node7 -->
<g id="node7" class="node"><title>Node7</title>
<polygon fill="white" stroke="#bfbfbf" points="493,-320.5 493,-377.5 627,-377.5 627,-320.5 493,-320.5"/>
<text text-anchor="middle" x="560" y="-365.5" font-family="Helvetica,sans-Serif" font-size="10.00">Stack&lt; pkg_world.Room &gt;</text>
<polyline fill="none" stroke="#bfbfbf" points="493,-358.5 627,-358.5 "/>
<text text-anchor="middle" x="560" y="-346.5" font-family="Helvetica,sans-Serif" font-size="10.00"> </text>
<polyline fill="none" stroke="#bfbfbf" points="493,-339.5 627,-339.5 "/>
<text text-anchor="middle" x="560" y="-327.5" font-family="Helvetica,sans-Serif" font-size="10.00"> </text>
</g>
<!-- Node7&#45;&gt;Node1 -->
<g id="edge7" class="edge"><title>Node7&#45;&gt;Node1</title>
<path fill="none" stroke="#404040" d="M545.148,-320.069C529.725,-291.064 504.653,-243.915 481.478,-200.332"/>
<polygon fill="none" stroke="#404040" points="481.425,-200.232 475.076,-196.812 475.791,-189.637 482.14,-193.056 481.425,-200.232"/>
<text text-anchor="middle" x="535.5" y="-216.5" font-family="Helvetica,sans-Serif" font-size="10.00"> &#45;previousRooms</text>
</g>
</g>
</svg>
