<?xml version="1.0" encoding="UTF-8" standalone="no"?>
<!DOCTYPE svg PUBLIC "-//W3C//DTD SVG 1.1//EN"
 "http://www.w3.org/Graphics/SVG/1.1/DTD/svg11.dtd">
<!-- Generated by graphviz version 2.36.0 (20140111.2315)
 -->
<!-- Title: GoCommand.execute Pages: 1 -->
<svg width="648pt" height="142pt"
 viewBox="0.00 0.00 648.00 142.00" xmlns="http://www.w3.org/2000/svg" xmlns:xlink="http://www.w3.org/1999/xlink">
<g id="graph0" class="graph" transform="scale(1 1) rotate(0) translate(4 138)">
<title>GoCommand.execute</title>
<polygon fill="white" stroke="none" points="-4,4 -4,-138 644,-138 644,4 -4,4"/>
<!-- Node1 -->
<g id="node1" class="node"><title>Node1</title>
<polygon fill="#bfbfbf" stroke="black" points="0,-57.5 0,-76.5 112,-76.5 112,-57.5 0,-57.5"/>
<text text-anchor="middle" x="56" y="-64.5" font-family="Helvetica,sans-Serif" font-size="10.00">GoCommand.execute</text>
</g>
<!-- Node2 -->
<g id="node2" class="node"><title>Node2</title>
<g id="a_node2"><a xlink:href="classCommand.html#a1ced3739d546770ba1389e6ce228255e" target="_top" xlink:title="Parameter field getter. ">
<polygon fill="white" stroke="black" points="158.5,-114.5 158.5,-133.5 281.5,-133.5 281.5,-114.5 158.5,-114.5"/>
<text text-anchor="middle" x="220" y="-121.5" font-family="Helvetica,sans-Serif" font-size="10.00">Command.getParameter</text>
</a>
</g>
</g>
<!-- Node1&#45;&gt;Node2 -->
<g id="edge1" class="edge"><title>Node1&#45;&gt;Node2</title>
<path fill="none" stroke="midnightblue" d="M82.8344,-76.5392C101.02,-83.2123 125.954,-92.2776 148,-100 158.516,-103.683 169.941,-107.588 180.49,-111.154"/>
<polygon fill="midnightblue" stroke="midnightblue" points="179.684,-114.575 190.278,-114.45 181.918,-107.941 179.684,-114.575"/>
</g>
<!-- Node3 -->
<g id="node3" class="node"><title>Node3</title>
<g id="a_node3"><a xlink:href="classGoCommand.html#a1fce2ad8ed1faf41fa300064585b3616" target="_top" xlink:title="Check if the wanted Room is connected to the current Room and go to this room. ">
<polygon fill="white" stroke="black" points="148.5,-38.5 148.5,-57.5 291.5,-57.5 291.5,-38.5 148.5,-38.5"/>
<text text-anchor="middle" x="220" y="-45.5" font-family="Helvetica,sans-Serif" font-size="10.00">GoCommand.goRoomCheck</text>
</a>
</g>
</g>
<!-- Node1&#45;&gt;Node3 -->
<g id="edge2" class="edge"><title>Node1&#45;&gt;Node3</title>
<path fill="none" stroke="midnightblue" d="M112.298,-60.5144C120.756,-59.5225 129.631,-58.4816 138.498,-57.4416"/>
<polygon fill="midnightblue" stroke="midnightblue" points="138.959,-60.9116 148.483,-56.2705 138.143,-53.9593 138.959,-60.9116"/>
</g>
<!-- Node5 -->
<g id="node5" class="node"><title>Node5</title>
<g id="a_node5"><a xlink:href="classCommand.html#a715709d8f0ab65879d79ad1725c96f17" target="_top" xlink:title="Message field setter. ">
<polygon fill="white" stroke="black" points="521,-76.5 521,-95.5 639,-95.5 639,-76.5 521,-76.5"/>
<text text-anchor="middle" x="580" y="-83.5" font-family="Helvetica,sans-Serif" font-size="10.00">Command.setMessage</text>
</a>
</g>
</g>
<!-- Node1&#45;&gt;Node5 -->
<g id="edge8" class="edge"><title>Node1&#45;&gt;Node5</title>
<path fill="none" stroke="midnightblue" d="M112.369,-69.0153C208.483,-72.5137 405.913,-79.6999 510.495,-83.5065"/>
<polygon fill="midnightblue" stroke="midnightblue" points="510.505,-87.0091 520.626,-83.8753 510.76,-80.0138 510.505,-87.0091"/>
</g>
<!-- Node8 -->
<g id="node8" class="node"><title>Node8</title>
<g id="a_node8"><a xlink:href="classCommand.html#a9b042558156d6749566e0fd9d48d3bfe" target="_top" xlink:title="Return true if the parameter is null. ">
<polygon fill="white" stroke="black" points="157.5,-0.5 157.5,-19.5 282.5,-19.5 282.5,-0.5 157.5,-0.5"/>
<text text-anchor="middle" x="220" y="-7.5" font-family="Helvetica,sans-Serif" font-size="10.00">Command.hasParameter</text>
</a>
</g>
</g>
<!-- Node1&#45;&gt;Node8 -->
<g id="edge7" class="edge"><title>Node1&#45;&gt;Node8</title>
<path fill="none" stroke="midnightblue" d="M77.6575,-57.4383C95.9056,-49.2186 123.368,-37.3964 148,-29 155.054,-26.5954 162.585,-24.299 170.008,-22.1867"/>
<polygon fill="midnightblue" stroke="midnightblue" points="170.948,-25.5582 179.656,-19.5221 169.085,-18.8108 170.948,-25.5582"/>
</g>
<!-- Node4 -->
<g id="node4" class="node"><title>Node4</title>
<g id="a_node4"><a xlink:href="classGoCommand.html#a3149bf695c19b78c39cfc4dadece7846" target="_top" xlink:title="Go to the Room without checking. ">
<polygon fill="white" stroke="black" points="328.5,-38.5 328.5,-57.5 483.5,-57.5 483.5,-38.5 328.5,-38.5"/>
<text text-anchor="middle" x="406" y="-45.5" font-family="Helvetica,sans-Serif" font-size="10.00">GoCommand.goRoomNoCheck</text>
</a>
</g>
</g>
<!-- Node3&#45;&gt;Node4 -->
<g id="edge3" class="edge"><title>Node3&#45;&gt;Node4</title>
<path fill="none" stroke="midnightblue" d="M291.613,-48C300.375,-48 309.412,-48 318.38,-48"/>
<polygon fill="midnightblue" stroke="midnightblue" points="318.458,-51.5001 328.458,-48 318.458,-44.5001 318.458,-51.5001"/>
</g>
<!-- Node4&#45;&gt;Node5 -->
<g id="edge4" class="edge"><title>Node4&#45;&gt;Node5</title>
<path fill="none" stroke="midnightblue" d="M450.403,-57.589C473.407,-62.6713 501.851,-68.9554 526.134,-74.3203"/>
<polygon fill="midnightblue" stroke="midnightblue" points="525.39,-77.7402 535.909,-76.4799 526.9,-70.905 525.39,-77.7402"/>
</g>
<!-- Node6 -->
<g id="node6" class="node"><title>Node6</title>
<g id="a_node6"><a xlink:href="classCommand.html#a3d232d33894a20dc81b7627d84f14183" target="_top" xlink:title="Return true if the message is equal to null or &quot;&quot;. ">
<polygon fill="white" stroke="black" points="520,-38.5 520,-57.5 640,-57.5 640,-38.5 520,-38.5"/>
<text text-anchor="middle" x="580" y="-45.5" font-family="Helvetica,sans-Serif" font-size="10.00">Command.hasMessage</text>
</a>
</g>
</g>
<!-- Node4&#45;&gt;Node6 -->
<g id="edge5" class="edge"><title>Node4&#45;&gt;Node6</title>
<path fill="none" stroke="midnightblue" d="M483.694,-48C492.292,-48 501.015,-48 509.515,-48"/>
<polygon fill="midnightblue" stroke="midnightblue" points="509.749,-51.5001 519.749,-48 509.749,-44.5001 509.749,-51.5001"/>
</g>
<!-- Node7 -->
<g id="node7" class="node"><title>Node7</title>
<g id="a_node7"><a xlink:href="classCommand.html#ac3d4abebefb2aea0ce9757bf9c356882" target="_top" xlink:title="Message field getter. ">
<polygon fill="white" stroke="black" points="521,-0.5 521,-19.5 639,-19.5 639,-0.5 521,-0.5"/>
<text text-anchor="middle" x="580" y="-7.5" font-family="Helvetica,sans-Serif" font-size="10.00">Command.getMessage</text>
</a>
</g>
</g>
<!-- Node4&#45;&gt;Node7 -->
<g id="edge6" class="edge"><title>Node4&#45;&gt;Node7</title>
<path fill="none" stroke="midnightblue" d="M450.403,-38.411C473.407,-33.3287 501.851,-27.0446 526.134,-21.6797"/>
<polygon fill="midnightblue" stroke="midnightblue" points="526.9,-25.095 535.909,-19.5201 525.39,-18.2598 526.9,-25.095"/>
</g>
</g>
</svg>
