<?xml version="1.0" encoding="UTF-8" standalone="no"?>
<!DOCTYPE svg PUBLIC "-//W3C//DTD SVG 1.1//EN"
 "http://www.w3.org/Graphics/SVG/1.1/DTD/svg11.dtd">
<!-- Generated by graphviz version 2.36.0 (20140111.2315)
 -->
<!-- Title: Game Pages: 1 -->
<!--zoomable 1236 -->
<svg id="main" version="1.1" xmlns="http://www.w3.org/2000/svg" xmlns:xlink="http://www.w3.org/1999/xlink" xml:space="preserve" onload="init(evt)">
<style type="text/css"><![CDATA[
.edge:hover path { stroke: red; }
.edge:hover polygon { stroke: red; fill: red; }
]]></style>
<script type="text/javascript"><![CDATA[
var edges = document.getElementsByTagName('g');
if (edges && edges.length) {
  for (var i=0;i<edges.length;i++) {
    if (edges[i].id.substr(0,4)=='edge') {
      edges[i].setAttribute('class','edge');
    }
  }
}
]]></script>
        <defs>
                <circle id="rim" cx="0" cy="0" r="7"/>
                <circle id="rim2" cx="0" cy="0" r="3.5"/>
                <g id="zoomPlus">
                        <use xlink:href="#rim" fill="#404040">
                                <set attributeName="fill" to="#808080" begin="zoomplus.mouseover" end="zoomplus.mouseout"/>
                        </use>
                        <path d="M-4,0h8M0,-4v8" fill="none" stroke="white" stroke-width="1.5" pointer-events="none"/>
                </g>
                <g id="zoomMin">
                        <use xlink:href="#rim" fill="#404040">
                                <set attributeName="fill" to="#808080" begin="zoomminus.mouseover" end="zoomminus.mouseout"/>
                        </use>
                        <path d="M-4,0h8" fill="none" stroke="white" stroke-width="1.5" pointer-events="none"/>
                </g>
                <g id="dirArrow">
                        <path fill="none" stroke="white" stroke-width="1.5" d="M0,-3.0v7 M-2.5,-0.5L0,-3.0L2.5,-0.5"/>
                </g>
               <g id="resetDef">
                       <use xlink:href="#rim2" fill="#404040">
                               <set attributeName="fill" to="#808080" begin="reset.mouseover" end="reset.mouseout"/>
                       </use>
               </g>
        </defs>

<script type="text/javascript">
var viewWidth = 561;
var viewHeight = 1236;
var sectionId = 'dynsection-0';
</script>
<script xlink:href="svgpan.js"/>
<svg id="graph" class="graph">
<g id="viewport">
<title>Game</title>
<polygon fill="white" stroke="none" points="-4,4 -4,-1232 557,-1232 557,4 -4,4"/>
<!-- Node1 -->
<g id="node1" class="node"><title>Node1</title>
<polygon fill="#bfbfbf" stroke="black" points="236,-1 236,-69 294,-69 294,-1 236,-1"/>
<text text-anchor="middle" x="265" y="-57" font-family="Helvetica,sans-Serif" font-size="10.00">Game</text>
<polyline fill="none" stroke="black" points="236,-50 294,-50 "/>
<text text-anchor="middle" x="265" y="-38" font-family="Helvetica,sans-Serif" font-size="10.00"> </text>
<polyline fill="none" stroke="black" points="236,-31 294,-31 "/>
<text text-anchor="start" x="244" y="-19" font-family="Helvetica,sans-Serif" font-size="10.00">+ Game()</text>
<text text-anchor="start" x="244" y="-8" font-family="Helvetica,sans-Serif" font-size="10.00">+ main()</text>
</g>
<!-- Node2 -->
<g id="node2" class="node"><title>Node2</title>
<g id="a_node2"><a xlink:href="classpkg__game_1_1GameEngine.html" target="_top" xlink:title="Class handling the gameplay for the game. ">
<polygon fill="white" stroke="black" points="174.5,-357 174.5,-491 295.5,-491 295.5,-357 174.5,-357"/>
<text text-anchor="middle" x="235" y="-479" font-family="Helvetica,sans-Serif" font-size="10.00">pkg_game.GameEngine</text>
<polyline fill="none" stroke="black" points="174.5,-472 295.5,-472 "/>
<text text-anchor="start" x="182.5" y="-460" font-family="Helvetica,sans-Serif" font-size="10.00">&#45; helpCount</text>
<text text-anchor="start" x="182.5" y="-449" font-family="Helvetica,sans-Serif" font-size="10.00">&#45; commandCountDown</text>
<polyline fill="none" stroke="black" points="174.5,-442 295.5,-442 "/>
<text text-anchor="start" x="182.5" y="-430" font-family="Helvetica,sans-Serif" font-size="10.00">+ GameEngine()</text>
<text text-anchor="start" x="182.5" y="-419" font-family="Helvetica,sans-Serif" font-size="10.00">+ setGUI()</text>
<text text-anchor="start" x="182.5" y="-408" font-family="Helvetica,sans-Serif" font-size="10.00">+ processCommand()</text>
<text text-anchor="start" x="182.5" y="-397" font-family="Helvetica,sans-Serif" font-size="10.00">+ getRooms()</text>
<text text-anchor="start" x="182.5" y="-386" font-family="Helvetica,sans-Serif" font-size="10.00">&#45; printWelcome()</text>
<text text-anchor="start" x="182.5" y="-375" font-family="Helvetica,sans-Serif" font-size="10.00">&#45; createRooms()</text>
<text text-anchor="start" x="182.5" y="-364" font-family="Helvetica,sans-Serif" font-size="10.00">&#45; endGame()</text>
</a>
</g>
</g>
<!-- Node2&#45;&gt;Node1 -->
<g id="edge1" class="edge"><title>Node2&#45;&gt;Node1</title>
<path fill="none" stroke="#404040" d="M229.343,-356.725C225.471,-294.582 223.226,-199.315 237,-118 239.092,-105.652 242.784,-92.664 246.815,-80.7572"/>
<polygon fill="none" stroke="#404040" points="246.879,-80.577 245.128,-73.5817 250.911,-69.2748 252.663,-76.2701 246.879,-80.577"/>
<text text-anchor="middle" x="254.5" y="-210.5" font-family="Helvetica,sans-Serif" font-size="10.00"> &#45;engine</text>
</g>
<!-- Node3 -->
<g id="node3" class="node"><title>Node3</title>
<g id="a_node3"><a xlink:href="classpkg__game_1_1UserInterface.html" target="_top" xlink:title="Class handling the game&#39;s user interface. ">
<polygon fill="white" stroke="black" points="281,-118.5 281,-307.5 405,-307.5 405,-118.5 281,-118.5"/>
<text text-anchor="middle" x="343" y="-295.5" font-family="Helvetica,sans-Serif" font-size="10.00">pkg_game.UserInterface</text>
<polyline fill="none" stroke="black" points="281,-288.5 405,-288.5 "/>
<text text-anchor="start" x="289" y="-276.5" font-family="Helvetica,sans-Serif" font-size="10.00">&#45; myFrame</text>
<text text-anchor="start" x="289" y="-265.5" font-family="Helvetica,sans-Serif" font-size="10.00">&#45; entryField</text>
<text text-anchor="start" x="289" y="-254.5" font-family="Helvetica,sans-Serif" font-size="10.00">&#45; log</text>
<text text-anchor="start" x="289" y="-243.5" font-family="Helvetica,sans-Serif" font-size="10.00">&#45; image</text>
<text text-anchor="start" x="289" y="-232.5" font-family="Helvetica,sans-Serif" font-size="10.00">&#45; commandsLeftLabel</text>
<polyline fill="none" stroke="black" points="281,-225.5 405,-225.5 "/>
<text text-anchor="start" x="289" y="-213.5" font-family="Helvetica,sans-Serif" font-size="10.00">+ UserInterface()</text>
<text text-anchor="start" x="289" y="-202.5" font-family="Helvetica,sans-Serif" font-size="10.00">+ setCommandsLeft()</text>
<text text-anchor="start" x="289" y="-191.5" font-family="Helvetica,sans-Serif" font-size="10.00">+ print()</text>
<text text-anchor="start" x="289" y="-180.5" font-family="Helvetica,sans-Serif" font-size="10.00">+ println()</text>
<text text-anchor="start" x="289" y="-169.5" font-family="Helvetica,sans-Serif" font-size="10.00">+ showImage()</text>
<text text-anchor="start" x="289" y="-158.5" font-family="Helvetica,sans-Serif" font-size="10.00">+ enable()</text>
<text text-anchor="start" x="289" y="-147.5" font-family="Helvetica,sans-Serif" font-size="10.00">+ actionPerformed()</text>
<text text-anchor="start" x="289" y="-136.5" font-family="Helvetica,sans-Serif" font-size="10.00">&#45; createGUI()</text>
<text text-anchor="start" x="289" y="-125.5" font-family="Helvetica,sans-Serif" font-size="10.00">&#45; processCommand()</text>
</a>
</g>
</g>
<!-- Node2&#45;&gt;Node3 -->
<g id="edge4" class="edge"><title>Node2&#45;&gt;Node3</title>
<path fill="none" stroke="#404040" d="M246.788,-356.774C249.769,-346.224 253.457,-335.626 258,-326 262.591,-316.273 268.12,-306.577 274.127,-297.189"/>
<polygon fill="none" stroke="#404040" points="274.168,-297.128 274.159,-289.917 280.813,-287.135 280.821,-294.346 274.168,-297.128"/>
<text text-anchor="middle" x="275.5" y="-329.5" font-family="Helvetica,sans-Serif" font-size="10.00"> &#45;engine</text>
</g>
<!-- Node3&#45;&gt;Node1 -->
<g id="edge16" class="edge"><title>Node3&#45;&gt;Node1</title>
<path fill="none" stroke="#404040" d="M301.488,-118.332C295.649,-105.156 289.885,-92.1499 284.723,-80.5024"/>
<polygon fill="none" stroke="#404040" points="284.643,-80.3225 278.555,-76.4578 279.781,-69.3516 285.869,-73.2164 284.643,-80.3225"/>
<text text-anchor="middle" x="302.5" y="-91.5" font-family="Helvetica,sans-Serif" font-size="10.00"> &#45;gui</text>
</g>
<!-- Node3&#45;&gt;Node2 -->
<g id="edge2" class="edge"><title>Node3&#45;&gt;Node2</title>
<path fill="none" stroke="#404040" d="M311.43,-307.655C306.987,-318.078 302.159,-328.391 297,-338 295.473,-340.844 293.862,-343.7 292.185,-346.554"/>
<polygon fill="none" stroke="#404040" points="292.142,-346.623 292.408,-353.829 285.858,-356.846 285.592,-349.64 292.142,-346.623"/>
<text text-anchor="middle" x="311.5" y="-329.5" font-family="Helvetica,sans-Serif" font-size="10.00"> &#45;gui</text>
</g>
<!-- Node4 -->
<g id="node4" class="node"><title>Node4</title>
<polygon fill="white" stroke="#bfbfbf" points="313.5,-395.5 313.5,-452.5 392.5,-452.5 392.5,-395.5 313.5,-395.5"/>
<text text-anchor="middle" x="353" y="-440.5" font-family="Helvetica,sans-Serif" font-size="10.00">ActionListener</text>
<polyline fill="none" stroke="#bfbfbf" points="313.5,-433.5 392.5,-433.5 "/>
<text text-anchor="middle" x="353" y="-421.5" font-family="Helvetica,sans-Serif" font-size="10.00"> </text>
<polyline fill="none" stroke="#bfbfbf" points="313.5,-414.5 392.5,-414.5 "/>
<text text-anchor="middle" x="353" y="-402.5" font-family="Helvetica,sans-Serif" font-size="10.00"> </text>
</g>
<!-- Node4&#45;&gt;Node3 -->
<g id="edge3" class="edge"><title>Node4&#45;&gt;Node3</title>
<path fill="none" stroke="midnightblue" d="M351.189,-385.14C350.149,-363.406 348.793,-335.073 347.485,-307.734"/>
<polygon fill="none" stroke="midnightblue" points="347.698,-385.425 351.672,-395.246 354.69,-385.091 347.698,-385.425"/>
</g>
<!-- Node5 -->
<g id="node5" class="node"><title>Node5</title>
<polygon fill="white" stroke="#bfbfbf" points="411,-395.5 411,-452.5 553,-452.5 553,-395.5 411,-395.5"/>
<text text-anchor="middle" x="482" y="-440.5" font-family="Helvetica,sans-Serif" font-size="10.00">HashMap&lt; JButton, String &gt;</text>
<polyline fill="none" stroke="#bfbfbf" points="411,-433.5 553,-433.5 "/>
<text text-anchor="middle" x="482" y="-421.5" font-family="Helvetica,sans-Serif" font-size="10.00"> </text>
<polyline fill="none" stroke="#bfbfbf" points="411,-414.5 553,-414.5 "/>
<text text-anchor="middle" x="482" y="-402.5" font-family="Helvetica,sans-Serif" font-size="10.00"> </text>
</g>
<!-- Node5&#45;&gt;Node3 -->
<g id="edge5" class="edge"><title>Node5&#45;&gt;Node3</title>
<path fill="none" stroke="#404040" d="M463.542,-395.246C450.066,-374.983 430.883,-346.141 411.774,-317.408"/>
<polygon fill="none" stroke="#404040" points="411.672,-317.255 405.019,-314.475 405.027,-307.263 411.68,-310.044 411.672,-317.255"/>
<text text-anchor="middle" x="444.5" y="-329.5" font-family="Helvetica,sans-Serif" font-size="10.00"> &#45;buttons</text>
</g>
<!-- Node6 -->
<g id="node6" class="node"><title>Node6</title>
<polygon fill="white" stroke="#bfbfbf" points="2,-607 2,-675 156,-675 156,-607 2,-607"/>
<text text-anchor="start" x="10" y="-663" font-family="Helvetica,sans-Serif" font-size="10.00">HashSet&lt; pkg_world.pkg</text>
<text text-anchor="middle" x="79" y="-652" font-family="Helvetica,sans-Serif" font-size="10.00">_characters.MovingCharacter &gt;</text>
<polyline fill="none" stroke="#bfbfbf" points="2,-645 156,-645 "/>
<text text-anchor="middle" x="79" y="-633" font-family="Helvetica,sans-Serif" font-size="10.00"> </text>
<polyline fill="none" stroke="#bfbfbf" points="2,-626 156,-626 "/>
<text text-anchor="middle" x="79" y="-614" font-family="Helvetica,sans-Serif" font-size="10.00"> </text>
</g>
<!-- Node6&#45;&gt;Node2 -->
<g id="edge6" class="edge"><title>Node6&#45;&gt;Node2</title>
<path fill="none" stroke="#404040" d="M92.0011,-606.96C103.642,-579.553 122.345,-540.31 145,-510 151.264,-501.62 158.4,-493.353 165.849,-485.46"/>
<polygon fill="none" stroke="#404040" points="165.99,-485.316 167.312,-478.227 174.364,-476.721 173.042,-483.81 165.99,-485.316"/>
<text text-anchor="middle" x="188" y="-513.5" font-family="Helvetica,sans-Serif" font-size="10.00"> &#45;movingCharacters</text>
</g>
<!-- Node7 -->
<g id="node7" class="node"><title>Node7</title>
<g id="a_node7"><a xlink:href="classpkg__world_1_1Player.html" target="_top" xlink:title="class Player used to handle the user&#39;s player. ">
<polygon fill="white" stroke="black" points="174,-541 174,-741 296,-741 296,-541 174,-541"/>
<text text-anchor="middle" x="235" y="-729" font-family="Helvetica,sans-Serif" font-size="10.00">pkg_world.Player</text>
<polyline fill="none" stroke="black" points="174,-722 296,-722 "/>
<text text-anchor="start" x="182" y="-710" font-family="Helvetica,sans-Serif" font-size="10.00">&#45; name</text>
<text text-anchor="start" x="182" y="-699" font-family="Helvetica,sans-Serif" font-size="10.00">&#45; backpackWeight</text>
<text text-anchor="start" x="182" y="-688" font-family="Helvetica,sans-Serif" font-size="10.00">&#45; maxWeight</text>
<text text-anchor="start" x="182" y="-677" font-family="Helvetica,sans-Serif" font-size="10.00">&#45; threwSnowball</text>
<polyline fill="none" stroke="black" points="174,-670 296,-670 "/>
<text text-anchor="start" x="182" y="-658" font-family="Helvetica,sans-Serif" font-size="10.00">+ Player()</text>
<text text-anchor="start" x="182" y="-647" font-family="Helvetica,sans-Serif" font-size="10.00">+ getName()</text>
<text text-anchor="start" x="182" y="-636" font-family="Helvetica,sans-Serif" font-size="10.00">+ getMaxWeight()</text>
<text text-anchor="start" x="182" y="-625" font-family="Helvetica,sans-Serif" font-size="10.00">+ setMaxWeight()</text>
<text text-anchor="start" x="182" y="-614" font-family="Helvetica,sans-Serif" font-size="10.00">+ getCurrentRoom()</text>
<text text-anchor="start" x="182" y="-603" font-family="Helvetica,sans-Serif" font-size="10.00">+ goRoom()</text>
<text text-anchor="start" x="182" y="-592" font-family="Helvetica,sans-Serif" font-size="10.00">+ getPreviousRoom()</text>
<text text-anchor="start" x="182" y="-581" font-family="Helvetica,sans-Serif" font-size="10.00">+ pushPreviousRooms()</text>
<text text-anchor="start" x="182" y="-570" font-family="Helvetica,sans-Serif" font-size="10.00">+ pushForward()</text>
<text text-anchor="start" x="182" y="-559" font-family="Helvetica,sans-Serif" font-size="10.00">+ popPreviousRooms()</text>
<text text-anchor="start" x="182" y="-548" font-family="Helvetica,sans-Serif" font-size="10.00">and 12 more...</text>
</a>
</g>
</g>
<!-- Node7&#45;&gt;Node2 -->
<g id="edge7" class="edge"><title>Node7&#45;&gt;Node2</title>
<path fill="none" stroke="#404040" d="M235,-540.996C235,-528.349 235,-515.545 235,-503.289"/>
<polygon fill="none" stroke="#404040" points="235,-503.241 231,-497.241 235,-491.241 239,-497.241 235,-503.241"/>
<text text-anchor="middle" x="251.5" y="-513.5" font-family="Helvetica,sans-Serif" font-size="10.00"> &#45;player</text>
</g>
<!-- Node8 -->
<g id="node8" class="node"><title>Node8</title>
<g id="a_node8"><a xlink:href="classpkg__world_1_1Room.html" target="_top" xlink:title="Class used to handle a game&#39;s room. ">
<polygon fill="white" stroke="black" points="178,-801 178,-1001 292,-1001 292,-801 178,-801"/>
<text text-anchor="middle" x="235" y="-989" font-family="Helvetica,sans-Serif" font-size="10.00">pkg_world.Room</text>
<polyline fill="none" stroke="black" points="178,-982 292,-982 "/>
<text text-anchor="start" x="186" y="-970" font-family="Helvetica,sans-Serif" font-size="10.00">&#45; description</text>
<text text-anchor="start" x="186" y="-959" font-family="Helvetica,sans-Serif" font-size="10.00">&#45; imageName</text>
<polyline fill="none" stroke="black" points="178,-952 292,-952 "/>
<text text-anchor="start" x="186" y="-940" font-family="Helvetica,sans-Serif" font-size="10.00">+ Room()</text>
<text text-anchor="start" x="186" y="-929" font-family="Helvetica,sans-Serif" font-size="10.00">+ Room()</text>
<text text-anchor="start" x="186" y="-918" font-family="Helvetica,sans-Serif" font-size="10.00">+ setExit()</text>
<text text-anchor="start" x="186" y="-907" font-family="Helvetica,sans-Serif" font-size="10.00">+ getContainedItems()</text>
<text text-anchor="start" x="186" y="-896" font-family="Helvetica,sans-Serif" font-size="10.00">+ getItem()</text>
<text text-anchor="start" x="186" y="-885" font-family="Helvetica,sans-Serif" font-size="10.00">+ getCharacter()</text>
<text text-anchor="start" x="186" y="-874" font-family="Helvetica,sans-Serif" font-size="10.00">+ hasItem()</text>
<text text-anchor="start" x="186" y="-863" font-family="Helvetica,sans-Serif" font-size="10.00">+ hasCharacter()</text>
<text text-anchor="start" x="186" y="-852" font-family="Helvetica,sans-Serif" font-size="10.00">+ addItem()</text>
<text text-anchor="start" x="186" y="-841" font-family="Helvetica,sans-Serif" font-size="10.00">+ addCharacter()</text>
<text text-anchor="start" x="186" y="-830" font-family="Helvetica,sans-Serif" font-size="10.00">and 10 more...</text>
<text text-anchor="start" x="186" y="-819" font-family="Helvetica,sans-Serif" font-size="10.00">&#45; getHumanList()</text>
<text text-anchor="start" x="186" y="-808" font-family="Helvetica,sans-Serif" font-size="10.00">&#45; getExitString()</text>
</a>
</g>
</g>
<!-- Node8&#45;&gt;Node7 -->
<g id="edge8" class="edge"><title>Node8&#45;&gt;Node7</title>
<path fill="none" stroke="#404040" d="M235,-800.988C235,-785.361 235,-769.113 235,-753.23"/>
<polygon fill="none" stroke="#404040" points="235,-753.173 231,-747.173 235,-741.173 239,-747.173 235,-753.173"/>
<text text-anchor="middle" x="267.5" y="-774" font-family="Helvetica,sans-Serif" font-size="10.00"> &#45;beamerRoom</text>
<text text-anchor="middle" x="267.5" y="-763" font-family="Helvetica,sans-Serif" font-size="10.00">&#45;currentRoom</text>
</g>
<!-- Node9 -->
<g id="node9" class="node"><title>Node9</title>
<polygon fill="white" stroke="#bfbfbf" points="353.5,-1051 353.5,-1119 468.5,-1119 468.5,-1051 353.5,-1051"/>
<text text-anchor="start" x="361.5" y="-1107" font-family="Helvetica,sans-Serif" font-size="10.00">HashMap&lt; String, pkg</text>
<text text-anchor="middle" x="411" y="-1096" font-family="Helvetica,sans-Serif" font-size="10.00">_world.Room &gt;</text>
<polyline fill="none" stroke="#bfbfbf" points="353.5,-1089 468.5,-1089 "/>
<text text-anchor="middle" x="411" y="-1077" font-family="Helvetica,sans-Serif" font-size="10.00"> </text>
<polyline fill="none" stroke="#bfbfbf" points="353.5,-1070 468.5,-1070 "/>
<text text-anchor="middle" x="411" y="-1058" font-family="Helvetica,sans-Serif" font-size="10.00"> </text>
</g>
<!-- Node9&#45;&gt;Node8 -->
<g id="edge9" class="edge"><title>Node9&#45;&gt;Node8</title>
<path fill="none" stroke="#404040" d="M383.001,-1050.92C372.54,-1040.02 360.019,-1028.51 347,-1020 331.067,-1009.58 321.01,-1014.08 301.661,-1001.26"/>
<polygon fill="none" stroke="#404040" points="301.651,-1001.25 294.452,-1000.84 292.063,-994.038 299.262,-994.45 301.651,-1001.25"/>
<text text-anchor="middle" x="377" y="-1023.5" font-family="Helvetica,sans-Serif" font-size="10.00"> &#45;exits</text>
</g>
<!-- Node10 -->
<g id="node10" class="node"><title>Node10</title>
<g id="a_node10"><a xlink:href="classpkg__world_1_1pkg__items_1_1ItemList.html" target="_top" xlink:title="class ItemList used to handle a list of Item (inventory). ">
<polygon fill="white" stroke="black" points="-0.5,-1056.5 -0.5,-1113.5 146.5,-1113.5 146.5,-1056.5 -0.5,-1056.5"/>
<text text-anchor="middle" x="73" y="-1101.5" font-family="Helvetica,sans-Serif" font-size="10.00">pkg_world.pkg_items.ItemList</text>
<polyline fill="none" stroke="black" points="-0.5,-1094.5 146.5,-1094.5 "/>
<text text-anchor="middle" x="73" y="-1082.5" font-family="Helvetica,sans-Serif" font-size="10.00"> </text>
<polyline fill="none" stroke="black" points="-0.5,-1075.5 146.5,-1075.5 "/>
<text text-anchor="start" x="7.5" y="-1063.5" font-family="Helvetica,sans-Serif" font-size="10.00">+ transfer()</text>
</a>
</g>
</g>
<!-- Node10&#45;&gt;Node7 -->
<g id="edge13" class="edge"><title>Node10&#45;&gt;Node7</title>
<path fill="none" stroke="#404040" d="M73.1404,-1056.11C74.3536,-1003.71 81.5822,-887.928 120,-800 133.063,-770.103 145.639,-768.261 165,-742 165.554,-741.248 166.11,-740.493 166.667,-739.734"/>
<polygon fill="none" stroke="#404040" points="166.907,-739.406 167.208,-732.201 173.974,-729.708 173.673,-736.913 166.907,-739.406"/>
<text text-anchor="middle" x="144.5" y="-898.5" font-family="Helvetica,sans-Serif" font-size="10.00"> &#45;backpack</text>
</g>
<!-- Node10&#45;&gt;Node8 -->
<g id="edge10" class="edge"><title>Node10&#45;&gt;Node8</title>
<path fill="none" stroke="#404040" d="M97.6043,-1056.36C116.773,-1034.82 144.307,-1003.89 169.7,-975.361"/>
<polygon fill="none" stroke="#404040" points="169.878,-975.162 170.879,-968.021 177.856,-966.198 176.855,-973.34 169.878,-975.162"/>
<text text-anchor="middle" x="162.5" y="-1023.5" font-family="Helvetica,sans-Serif" font-size="10.00"> &#45;containedItems</text>
</g>
<!-- Node11 -->
<g id="node11" class="node"><title>Node11</title>
<polygon fill="white" stroke="#bfbfbf" points="22.5,-1159 22.5,-1227 123.5,-1227 123.5,-1159 22.5,-1159"/>
<text text-anchor="start" x="30.5" y="-1215" font-family="Helvetica,sans-Serif" font-size="10.00">java::util::HashMap</text>
<text text-anchor="middle" x="73" y="-1204" font-family="Helvetica,sans-Serif" font-size="10.00">&lt; String, Item &gt;</text>
<polyline fill="none" stroke="#bfbfbf" points="22.5,-1197 123.5,-1197 "/>
<text text-anchor="middle" x="73" y="-1185" font-family="Helvetica,sans-Serif" font-size="10.00"> </text>
<polyline fill="none" stroke="#bfbfbf" points="22.5,-1178 123.5,-1178 "/>
<text text-anchor="middle" x="73" y="-1166" font-family="Helvetica,sans-Serif" font-size="10.00"> </text>
</g>
<!-- Node11&#45;&gt;Node10 -->
<g id="edge11" class="edge"><title>Node11&#45;&gt;Node10</title>
<path fill="none" stroke="midnightblue" d="M73,-1148.64C73,-1136.87 73,-1124.44 73,-1113.79"/>
<polygon fill="none" stroke="midnightblue" points="69.5001,-1148.75 73,-1158.75 76.5001,-1148.75 69.5001,-1148.75"/>
</g>
<!-- Node12 -->
<g id="node12" class="node"><title>Node12</title>
<polygon fill="white" stroke="#bfbfbf" points="165,-1051 165,-1119 335,-1119 335,-1051 165,-1051"/>
<text text-anchor="start" x="173" y="-1107" font-family="Helvetica,sans-Serif" font-size="10.00">HashMap&lt; String, pkg</text>
<text text-anchor="middle" x="250" y="-1096" font-family="Helvetica,sans-Serif" font-size="10.00">_world.pkg_characters.Character &gt;</text>
<polyline fill="none" stroke="#bfbfbf" points="165,-1089 335,-1089 "/>
<text text-anchor="middle" x="250" y="-1077" font-family="Helvetica,sans-Serif" font-size="10.00"> </text>
<polyline fill="none" stroke="#bfbfbf" points="165,-1070 335,-1070 "/>
<text text-anchor="middle" x="250" y="-1058" font-family="Helvetica,sans-Serif" font-size="10.00"> </text>
</g>
<!-- Node12&#45;&gt;Node8 -->
<g id="edge12" class="edge"><title>Node12&#45;&gt;Node8</title>
<path fill="none" stroke="#404040" d="M247.249,-1050.62C246.346,-1039.67 245.287,-1026.82 244.177,-1013.35"/>
<polygon fill="none" stroke="#404040" points="244.176,-1013.34 239.697,-1007.69 243.191,-1001.38 247.67,-1007.03 244.176,-1013.34"/>
<text text-anchor="middle" x="294.5" y="-1023.5" font-family="Helvetica,sans-Serif" font-size="10.00"> &#45;containedCharacters</text>
</g>
<!-- Node13 -->
<g id="node13" class="node"><title>Node13</title>
<polygon fill="white" stroke="#bfbfbf" points="310,-872.5 310,-929.5 444,-929.5 444,-872.5 310,-872.5"/>
<text text-anchor="middle" x="377" y="-917.5" font-family="Helvetica,sans-Serif" font-size="10.00">Stack&lt; pkg_world.Room &gt;</text>
<polyline fill="none" stroke="#bfbfbf" points="310,-910.5 444,-910.5 "/>
<text text-anchor="middle" x="377" y="-898.5" font-family="Helvetica,sans-Serif" font-size="10.00"> </text>
<polyline fill="none" stroke="#bfbfbf" points="310,-891.5 444,-891.5 "/>
<text text-anchor="middle" x="377" y="-879.5" font-family="Helvetica,sans-Serif" font-size="10.00"> </text>
</g>
<!-- Node13&#45;&gt;Node7 -->
<g id="edge14" class="edge"><title>Node13&#45;&gt;Node7</title>
<path fill="none" stroke="#404040" d="M363.122,-872.428C348.717,-844.041 325.347,-798.626 304,-760 302.518,-757.319 301.011,-754.609 299.484,-751.879"/>
<polygon fill="none" stroke="#404040" points="299.398,-751.727 292.969,-748.462 293.51,-741.271 299.939,-744.536 299.398,-751.727"/>
<text text-anchor="middle" x="352.5" y="-768.5" font-family="Helvetica,sans-Serif" font-size="10.00"> &#45;previousRooms</text>
</g>
<!-- Node14 -->
<g id="node14" class="node"><title>Node14</title>
<polygon fill="white" stroke="#bfbfbf" points="314.5,-612.5 314.5,-669.5 461.5,-669.5 461.5,-612.5 314.5,-612.5"/>
<text text-anchor="middle" x="388" y="-657.5" font-family="Helvetica,sans-Serif" font-size="10.00">ArrayList&lt; pkg_world.Room &gt;</text>
<polyline fill="none" stroke="#bfbfbf" points="314.5,-650.5 461.5,-650.5 "/>
<text text-anchor="middle" x="388" y="-638.5" font-family="Helvetica,sans-Serif" font-size="10.00"> </text>
<polyline fill="none" stroke="#bfbfbf" points="314.5,-631.5 461.5,-631.5 "/>
<text text-anchor="middle" x="388" y="-619.5" font-family="Helvetica,sans-Serif" font-size="10.00"> </text>
</g>
<!-- Node14&#45;&gt;Node2 -->
<g id="edge15" class="edge"><title>Node14&#45;&gt;Node2</title>
<path fill="none" stroke="#404040" d="M368.311,-612.333C348.456,-584.431 316.902,-540.092 289.477,-501.553"/>
<polygon fill="none" stroke="#404040" points="289.193,-501.153 282.455,-498.584 282.235,-491.376 288.973,-493.945 289.193,-501.153"/>
<text text-anchor="middle" x="334" y="-513.5" font-family="Helvetica,sans-Serif" font-size="10.00"> &#45;gameRooms</text>
</g>
</g>
</svg>
        <g id="navigator" transform="translate(0 0)" fill="#404254">
                <rect fill="#f2f5e9" fill-opacity="0.5" stroke="#606060" stroke-width=".5" x="0" y="0" width="60" height="60"/>
                <use id="zoomplus" xlink:href="#zoomPlus" x="17" y="9" onmousedown="handleZoom(evt,'in')"/>
                <use id="zoomminus" xlink:href="#zoomMin" x="42" y="9" onmousedown="handleZoom(evt,'out')"/>
                <use id="reset" xlink:href="#resetDef" x="30" y="36" onmousedown="handleReset()"/>
                <g id="arrowUp" xlink:href="#dirArrow" transform="translate(30 24)" onmousedown="handlePan(0,-1)">
                  <use xlink:href="#rim" fill="#404040">
                        <set attributeName="fill" to="#808080" begin="arrowUp.mouseover" end="arrowUp.mouseout"/>
                  </use>
                  <path fill="none" stroke="white" stroke-width="1.5" d="M0,-3.0v7 M-2.5,-0.5L0,-3.0L2.5,-0.5"/>
                </g>
                <g id="arrowRight" xlink:href="#dirArrow" transform="rotate(90) translate(36 -43)" onmousedown="handlePan(1,0)">
                  <use xlink:href="#rim" fill="#404040">
                        <set attributeName="fill" to="#808080" begin="arrowRight.mouseover" end="arrowRight.mouseout"/>
                  </use>
                  <path fill="none" stroke="white" stroke-width="1.5" d="M0,-3.0v7 M-2.5,-0.5L0,-3.0L2.5,-0.5"/>
                </g>
                <g id="arrowDown" xlink:href="#dirArrow" transform="rotate(180) translate(-30 -48)" onmousedown="handlePan(0,1)">
                  <use xlink:href="#rim" fill="#404040">
                        <set attributeName="fill" to="#808080" begin="arrowDown.mouseover" end="arrowDown.mouseout"/>
                  </use>
                  <path fill="none" stroke="white" stroke-width="1.5" d="M0,-3.0v7 M-2.5,-0.5L0,-3.0L2.5,-0.5"/>
                </g>
                <g id="arrowLeft" xlink:href="#dirArrow" transform="rotate(270) translate(-36 17)" onmousedown="handlePan(-1,0)">
                  <use xlink:href="#rim" fill="#404040">
                        <set attributeName="fill" to="#808080" begin="arrowLeft.mouseover" end="arrowLeft.mouseout"/>
                  </use>
                  <path fill="none" stroke="white" stroke-width="1.5" d="M0,-3.0v7 M-2.5,-0.5L0,-3.0L2.5,-0.5"/>
                </g>
        </g>
        <svg viewBox="0 0 15 15" width="100%" height="30px" preserveAspectRatio="xMaxYMin meet">
         <g id="arrow_out" transform="scale(0.3 0.3)">
          <a xlink:href="classGame__coll__graph_org.svg" target="_base">
           <rect id="button" ry="5" rx="5" y="6" x="6" height="38" width="38"
                fill="#f2f5e9" fill-opacity="0.5" stroke="#606060" stroke-width="1.0"/>
           <path id="arrow"
             d="M 11.500037,31.436501 C 11.940474,20.09759 22.043105,11.32322 32.158766,21.979434 L 37.068811,17.246167 C 37.068811,17.246167 37.088388,32 37.088388,32 L 22.160133,31.978069 C 22.160133,31.978069 26.997745,27.140456 26.997745,27.140456 C 18.528582,18.264221 13.291696,25.230495 11.500037,31.436501 z"
             style="fill:#404040;"/>
          </a>
         </g>
        </svg>
</svg>
