<?xml version="1.0" encoding="UTF-8" standalone="no"?>
<!DOCTYPE svg PUBLIC "-//W3C//DTD SVG 1.1//EN"
 "http://www.w3.org/Graphics/SVG/1.1/DTD/svg11.dtd">
<!-- Generated by graphviz version 2.36.0 (20140111.2315)
 -->
<!-- Title: Player.getBeamerRoom Pages: 1 -->
<svg width="464pt" height="28pt"
 viewBox="0.00 0.00 464.00 28.00" xmlns="http://www.w3.org/2000/svg" xmlns:xlink="http://www.w3.org/1999/xlink">
<g id="graph0" class="graph" transform="scale(1 1) rotate(0) translate(4 24)">
<title>Player.getBeamerRoom</title>
<polygon fill="white" stroke="none" points="-4,4 -4,-24 460,-24 460,4 -4,4"/>
<!-- Node1 -->
<g id="node1" class="node"><title>Node1</title>
<polygon fill="#bfbfbf" stroke="black" points="0.5,-0.5 0.5,-19.5 121.5,-19.5 121.5,-0.5 0.5,-0.5"/>
<text text-anchor="middle" x="61" y="-7.5" font-family="Helvetica,sans-Serif" font-size="10.00">Player.getBeamerRoom</text>
</g>
<!-- Node2 -->
<g id="node2" class="node"><title>Node2</title>
<g id="a_node2"><a xlink:href="classBeamerCommand.html#a130a572b2ec0532c92ea5033a098b1ac" target="_top" xlink:title="Remember the current room. ">
<polygon fill="white" stroke="black" points="158,-0.5 158,-19.5 286,-19.5 286,-0.5 158,-0.5"/>
<text text-anchor="middle" x="222" y="-7.5" font-family="Helvetica,sans-Serif" font-size="10.00">BeamerCommand.charge</text>
</a>
</g>
</g>
<!-- Node1&#45;&gt;Node2 -->
<g id="edge1" class="edge"><title>Node1&#45;&gt;Node2</title>
<path fill="none" stroke="midnightblue" d="M131.744,-10C140.418,-10 149.25,-10 157.818,-10"/>
<polygon fill="midnightblue" stroke="midnightblue" points="131.658,-6.5001 121.658,-10 131.658,-13.5001 131.658,-6.5001"/>
</g>
<!-- Node3 -->
<g id="node3" class="node"><title>Node3</title>
<g id="a_node3"><a xlink:href="classBeamerCommand.html#ab28a7d743569841e463b2c0c65cf6eb1" target="_top" xlink:title="Teleport to the remembered room or remember a room. ">
<polygon fill="white" stroke="black" points="322.5,-0.5 322.5,-19.5 455.5,-19.5 455.5,-0.5 322.5,-0.5"/>
<text text-anchor="middle" x="389" y="-7.5" font-family="Helvetica,sans-Serif" font-size="10.00">BeamerCommand.execute</text>
</a>
</g>
</g>
<!-- Node2&#45;&gt;Node3 -->
<g id="edge2" class="edge"><title>Node2&#45;&gt;Node3</title>
<path fill="none" stroke="midnightblue" d="M296.398,-10C305.055,-10 313.848,-10 322.388,-10"/>
<polygon fill="midnightblue" stroke="midnightblue" points="296.321,-6.5001 286.321,-10 296.321,-13.5001 296.321,-6.5001"/>
</g>
</g>
</svg>
