<?xml version="1.0" encoding="UTF-8" standalone="no"?>
<!DOCTYPE svg PUBLIC "-//W3C//DTD SVG 1.1//EN"
 "http://www.w3.org/Graphics/SVG/1.1/DTD/svg11.dtd">
<!-- Generated by graphviz version 2.36.0 (20140111.2315)
 -->
<!-- Title: Game Pages: 1 -->
<svg width="405pt" height="1234pt"
 viewBox="0.00 0.00 405.00 1234.00" xmlns="http://www.w3.org/2000/svg" xmlns:xlink="http://www.w3.org/1999/xlink">
<g id="graph0" class="graph" transform="scale(1 1) rotate(0) translate(4 1230)">
<title>Game</title>
<polygon fill="white" stroke="none" points="-4,4 -4,-1230 401,-1230 401,4 -4,4"/>
<!-- Node1 -->
<g id="node1" class="node"><title>Node1</title>
<polygon fill="#bfbfbf" stroke="black" points="239,-1 239,-69 297,-69 297,-1 239,-1"/>
<text text-anchor="middle" x="268" y="-57" font-family="Helvetica,sans-Serif" font-size="10.00">Game</text>
<polyline fill="none" stroke="black" points="239,-50 297,-50 "/>
<text text-anchor="middle" x="268" y="-38" font-family="Helvetica,sans-Serif" font-size="10.00"> </text>
<polyline fill="none" stroke="black" points="239,-31 297,-31 "/>
<text text-anchor="start" x="247" y="-19" font-family="Helvetica,sans-Serif" font-size="10.00">+ Game()</text>
<text text-anchor="start" x="247" y="-8" font-family="Helvetica,sans-Serif" font-size="10.00">+ main()</text>
</g>
<!-- Node2 -->
<g id="node2" class="node"><title>Node2</title>
<g id="a_node2"><a xlink:href="classGameEngine.html" target="_top" xlink:title="Class handling the gameplay for the game. ">
<polygon fill="white" stroke="black" points="220.5,-356.5 220.5,-479.5 337.5,-479.5 337.5,-356.5 220.5,-356.5"/>
<text text-anchor="middle" x="279" y="-467.5" font-family="Helvetica,sans-Serif" font-size="10.00">GameEngine</text>
<polyline fill="none" stroke="black" points="220.5,-460.5 337.5,-460.5 "/>
<text text-anchor="start" x="228.5" y="-448.5" font-family="Helvetica,sans-Serif" font-size="10.00">&#45; helpCount</text>
<text text-anchor="start" x="228.5" y="-437.5" font-family="Helvetica,sans-Serif" font-size="10.00">&#45; commandCountDown</text>
<polyline fill="none" stroke="black" points="220.5,-430.5 337.5,-430.5 "/>
<text text-anchor="start" x="228.5" y="-418.5" font-family="Helvetica,sans-Serif" font-size="10.00">+ GameEngine()</text>
<text text-anchor="start" x="228.5" y="-407.5" font-family="Helvetica,sans-Serif" font-size="10.00">+ setGUI()</text>
<text text-anchor="start" x="228.5" y="-396.5" font-family="Helvetica,sans-Serif" font-size="10.00">+ processCommand()</text>
<text text-anchor="start" x="228.5" y="-385.5" font-family="Helvetica,sans-Serif" font-size="10.00">&#45; printWelcome()</text>
<text text-anchor="start" x="228.5" y="-374.5" font-family="Helvetica,sans-Serif" font-size="10.00">&#45; createRooms()</text>
<text text-anchor="start" x="228.5" y="-363.5" font-family="Helvetica,sans-Serif" font-size="10.00">&#45; endGame()</text>
</a>
</g>
</g>
<!-- Node2&#45;&gt;Node1 -->
<g id="edge1" class="edge"><title>Node2&#45;&gt;Node1</title>
<path fill="none" stroke="#404040" d="M279.886,-356.29C280.428,-290.215 280.089,-181.486 274,-88 273.858,-85.8165 273.689,-83.5837 273.501,-81.3302"/>
<polygon fill="none" stroke="#404040" points="273.487,-81.1884 268.93,-75.6 272.335,-69.2438 276.893,-74.8321 273.487,-81.1884"/>
<text text-anchor="middle" x="298.5" y="-210.5" font-family="Helvetica,sans-Serif" font-size="10.00"> &#45;engine</text>
</g>
<!-- Node10 -->
<g id="node10" class="node"><title>Node10</title>
<g id="a_node10"><a xlink:href="classUserInterface.html" target="_top" xlink:title="Class handling the game&#39;s user interface. ">
<polygon fill="white" stroke="black" points="152,-118.5 152,-307.5 264,-307.5 264,-118.5 152,-118.5"/>
<text text-anchor="middle" x="208" y="-295.5" font-family="Helvetica,sans-Serif" font-size="10.00">UserInterface</text>
<polyline fill="none" stroke="black" points="152,-288.5 264,-288.5 "/>
<text text-anchor="start" x="160" y="-276.5" font-family="Helvetica,sans-Serif" font-size="10.00">&#45; myFrame</text>
<text text-anchor="start" x="160" y="-265.5" font-family="Helvetica,sans-Serif" font-size="10.00">&#45; entryField</text>
<text text-anchor="start" x="160" y="-254.5" font-family="Helvetica,sans-Serif" font-size="10.00">&#45; log</text>
<text text-anchor="start" x="160" y="-243.5" font-family="Helvetica,sans-Serif" font-size="10.00">&#45; image</text>
<text text-anchor="start" x="160" y="-232.5" font-family="Helvetica,sans-Serif" font-size="10.00">&#45; commandsLeftLabel</text>
<polyline fill="none" stroke="black" points="152,-225.5 264,-225.5 "/>
<text text-anchor="start" x="160" y="-213.5" font-family="Helvetica,sans-Serif" font-size="10.00">+ UserInterface()</text>
<text text-anchor="start" x="160" y="-202.5" font-family="Helvetica,sans-Serif" font-size="10.00">+ setCommandsLeft()</text>
<text text-anchor="start" x="160" y="-191.5" font-family="Helvetica,sans-Serif" font-size="10.00">+ print()</text>
<text text-anchor="start" x="160" y="-180.5" font-family="Helvetica,sans-Serif" font-size="10.00">+ println()</text>
<text text-anchor="start" x="160" y="-169.5" font-family="Helvetica,sans-Serif" font-size="10.00">+ showImage()</text>
<text text-anchor="start" x="160" y="-158.5" font-family="Helvetica,sans-Serif" font-size="10.00">+ enable()</text>
<text text-anchor="start" x="160" y="-147.5" font-family="Helvetica,sans-Serif" font-size="10.00">+ actionPerformed()</text>
<text text-anchor="start" x="160" y="-136.5" font-family="Helvetica,sans-Serif" font-size="10.00">&#45; createGUI()</text>
<text text-anchor="start" x="160" y="-125.5" font-family="Helvetica,sans-Serif" font-size="10.00">&#45; processCommand()</text>
</a>
</g>
</g>
<!-- Node2&#45;&gt;Node10 -->
<g id="edge12" class="edge"><title>Node2&#45;&gt;Node10</title>
<path fill="none" stroke="#404040" d="M220.438,-359.685C215.854,-352.801 211.89,-345.527 209,-338 206.767,-332.183 205.025,-326.095 203.694,-319.874"/>
<polygon fill="none" stroke="#404040" points="203.648,-319.606 198.69,-314.37 201.616,-307.779 206.574,-313.015 203.648,-319.606"/>
<text text-anchor="middle" x="226.5" y="-329.5" font-family="Helvetica,sans-Serif" font-size="10.00"> &#45;engine</text>
</g>
<!-- Node3 -->
<g id="node3" class="node"><title>Node3</title>
<g id="a_node3"><a xlink:href="classpkg__world_1_1Player.html" target="_top" xlink:title="class Player used to handle the user&#39;s player. ">
<polygon fill="white" stroke="black" points="135,-528.5 135,-717.5 257,-717.5 257,-528.5 135,-528.5"/>
<text text-anchor="middle" x="196" y="-705.5" font-family="Helvetica,sans-Serif" font-size="10.00">pkg_world.Player</text>
<polyline fill="none" stroke="black" points="135,-698.5 257,-698.5 "/>
<text text-anchor="start" x="143" y="-686.5" font-family="Helvetica,sans-Serif" font-size="10.00">&#45; name</text>
<text text-anchor="start" x="143" y="-675.5" font-family="Helvetica,sans-Serif" font-size="10.00">&#45; backpackWeight</text>
<text text-anchor="start" x="143" y="-664.5" font-family="Helvetica,sans-Serif" font-size="10.00">&#45; maxWeight</text>
<polyline fill="none" stroke="black" points="135,-657.5 257,-657.5 "/>
<text text-anchor="start" x="143" y="-645.5" font-family="Helvetica,sans-Serif" font-size="10.00">+ Player()</text>
<text text-anchor="start" x="143" y="-634.5" font-family="Helvetica,sans-Serif" font-size="10.00">+ getName()</text>
<text text-anchor="start" x="143" y="-623.5" font-family="Helvetica,sans-Serif" font-size="10.00">+ getMaxWeight()</text>
<text text-anchor="start" x="143" y="-612.5" font-family="Helvetica,sans-Serif" font-size="10.00">+ setMaxWeight()</text>
<text text-anchor="start" x="143" y="-601.5" font-family="Helvetica,sans-Serif" font-size="10.00">+ getCurrentRoom()</text>
<text text-anchor="start" x="143" y="-590.5" font-family="Helvetica,sans-Serif" font-size="10.00">+ goRoom()</text>
<text text-anchor="start" x="143" y="-579.5" font-family="Helvetica,sans-Serif" font-size="10.00">+ getPreviousRoom()</text>
<text text-anchor="start" x="143" y="-568.5" font-family="Helvetica,sans-Serif" font-size="10.00">+ pushPreviousRooms()</text>
<text text-anchor="start" x="143" y="-557.5" font-family="Helvetica,sans-Serif" font-size="10.00">+ pushForward()</text>
<text text-anchor="start" x="143" y="-546.5" font-family="Helvetica,sans-Serif" font-size="10.00">+ popPreviousRooms()</text>
<text text-anchor="start" x="143" y="-535.5" font-family="Helvetica,sans-Serif" font-size="10.00">and 10 more...</text>
</a>
</g>
</g>
<!-- Node3&#45;&gt;Node2 -->
<g id="edge2" class="edge"><title>Node3&#45;&gt;Node2</title>
<path fill="none" stroke="#404040" d="M234.342,-528.225C239.46,-515.707 244.642,-503.032 249.575,-490.967"/>
<polygon fill="none" stroke="#404040" points="249.677,-490.719 248.245,-483.651 254.218,-479.611 255.65,-486.679 249.677,-490.719"/>
<text text-anchor="middle" x="261.5" y="-501.5" font-family="Helvetica,sans-Serif" font-size="10.00"> &#45;player</text>
</g>
<!-- Node4 -->
<g id="node4" class="node"><title>Node4</title>
<g id="a_node4"><a xlink:href="classpkg__world_1_1ItemList.html" target="_top" xlink:title="class ItemList used to handle a list of Item (inventory). ">
<polygon fill="white" stroke="black" points="139.5,-1054.5 139.5,-1111.5 238.5,-1111.5 238.5,-1054.5 139.5,-1054.5"/>
<text text-anchor="middle" x="189" y="-1099.5" font-family="Helvetica,sans-Serif" font-size="10.00">pkg_world.ItemList</text>
<polyline fill="none" stroke="black" points="139.5,-1092.5 238.5,-1092.5 "/>
<text text-anchor="middle" x="189" y="-1080.5" font-family="Helvetica,sans-Serif" font-size="10.00"> </text>
<polyline fill="none" stroke="black" points="139.5,-1073.5 238.5,-1073.5 "/>
<text text-anchor="start" x="147.5" y="-1061.5" font-family="Helvetica,sans-Serif" font-size="10.00">+ transfer()</text>
</a>
</g>
</g>
<!-- Node4&#45;&gt;Node3 -->
<g id="edge3" class="edge"><title>Node4&#45;&gt;Node3</title>
<path fill="none" stroke="#404040" d="M189.422,-1054.38C190.381,-991.625 192.767,-835.543 194.385,-729.638"/>
<polygon fill="none" stroke="#404040" points="194.386,-729.624 190.478,-723.563 194.569,-717.625 198.477,-723.686 194.386,-729.624"/>
<text text-anchor="middle" x="218.5" y="-885.5" font-family="Helvetica,sans-Serif" font-size="10.00"> &#45;backpack</text>
</g>
<!-- Node6 -->
<g id="node6" class="node"><title>Node6</title>
<g id="a_node6"><a xlink:href="classpkg__world_1_1Room.html" target="_top" xlink:title="Class used to handle a game&#39;s room. ">
<polygon fill="white" stroke="black" points="42,-777 42,-999 160,-999 160,-777 42,-777"/>
<text text-anchor="middle" x="101" y="-987" font-family="Helvetica,sans-Serif" font-size="10.00">pkg_world.Room</text>
<polyline fill="none" stroke="black" points="42,-980 160,-980 "/>
<text text-anchor="start" x="50" y="-968" font-family="Helvetica,sans-Serif" font-size="10.00">&#45; description</text>
<text text-anchor="start" x="50" y="-957" font-family="Helvetica,sans-Serif" font-size="10.00">&#45; imageName</text>
<polyline fill="none" stroke="black" points="42,-950 160,-950 "/>
<text text-anchor="start" x="50" y="-938" font-family="Helvetica,sans-Serif" font-size="10.00">+ Room()</text>
<text text-anchor="start" x="50" y="-927" font-family="Helvetica,sans-Serif" font-size="10.00">+ Room()</text>
<text text-anchor="start" x="50" y="-916" font-family="Helvetica,sans-Serif" font-size="10.00">+ setExit()</text>
<text text-anchor="start" x="50" y="-905" font-family="Helvetica,sans-Serif" font-size="10.00">+ getContainedItems()</text>
<text text-anchor="start" x="50" y="-894" font-family="Helvetica,sans-Serif" font-size="10.00">+ getItem()</text>
<text text-anchor="start" x="50" y="-883" font-family="Helvetica,sans-Serif" font-size="10.00">+ hasItem()</text>
<text text-anchor="start" x="50" y="-872" font-family="Helvetica,sans-Serif" font-size="10.00">+ addItem()</text>
<text text-anchor="start" x="50" y="-861" font-family="Helvetica,sans-Serif" font-size="10.00">+ removeItem()</text>
<text text-anchor="start" x="50" y="-850" font-family="Helvetica,sans-Serif" font-size="10.00">+ getShortDescription()</text>
<text text-anchor="start" x="50" y="-839" font-family="Helvetica,sans-Serif" font-size="10.00">+ getLongDescription()</text>
<text text-anchor="start" x="50" y="-828" font-family="Helvetica,sans-Serif" font-size="10.00">+ getHumanItemsList()</text>
<text text-anchor="start" x="50" y="-817" font-family="Helvetica,sans-Serif" font-size="10.00">+ getExit()</text>
<text text-anchor="start" x="50" y="-806" font-family="Helvetica,sans-Serif" font-size="10.00">+ isExit()</text>
<text text-anchor="start" x="50" y="-795" font-family="Helvetica,sans-Serif" font-size="10.00">+ getImageName()</text>
<text text-anchor="start" x="50" y="-784" font-family="Helvetica,sans-Serif" font-size="10.00">&#45; getExitString()</text>
</a>
</g>
</g>
<!-- Node4&#45;&gt;Node6 -->
<g id="edge6" class="edge"><title>Node4&#45;&gt;Node6</title>
<path fill="none" stroke="#404040" d="M139.474,-1059.97C127.52,-1052.24 116.147,-1042.32 109,-1030 105.454,-1023.89 102.605,-1017.36 100.341,-1010.59"/>
<polygon fill="none" stroke="#404040" points="100.331,-1010.56 94.8486,-1005.87 97.0643,-999.01 102.547,-1003.69 100.331,-1010.56"/>
<text text-anchor="middle" x="145.5" y="-1021.5" font-family="Helvetica,sans-Serif" font-size="10.00"> &#45;containedItems</text>
</g>
<!-- Node5 -->
<g id="node5" class="node"><title>Node5</title>
<polygon fill="white" stroke="#bfbfbf" points="138.5,-1157 138.5,-1225 239.5,-1225 239.5,-1157 138.5,-1157"/>
<text text-anchor="start" x="146.5" y="-1213" font-family="Helvetica,sans-Serif" font-size="10.00">java::util::HashMap</text>
<text text-anchor="middle" x="189" y="-1202" font-family="Helvetica,sans-Serif" font-size="10.00">&lt; String, Item &gt;</text>
<polyline fill="none" stroke="#bfbfbf" points="138.5,-1195 239.5,-1195 "/>
<text text-anchor="middle" x="189" y="-1183" font-family="Helvetica,sans-Serif" font-size="10.00"> </text>
<polyline fill="none" stroke="#bfbfbf" points="138.5,-1176 239.5,-1176 "/>
<text text-anchor="middle" x="189" y="-1164" font-family="Helvetica,sans-Serif" font-size="10.00"> </text>
</g>
<!-- Node5&#45;&gt;Node4 -->
<g id="edge4" class="edge"><title>Node5&#45;&gt;Node4</title>
<path fill="none" stroke="midnightblue" d="M189,-1146.64C189,-1134.87 189,-1122.44 189,-1111.79"/>
<polygon fill="none" stroke="midnightblue" points="185.5,-1146.75 189,-1156.75 192.5,-1146.75 185.5,-1146.75"/>
</g>
<!-- Node6&#45;&gt;Node3 -->
<g id="edge5" class="edge"><title>Node6&#45;&gt;Node3</title>
<path fill="none" stroke="#404040" d="M106.09,-776.601C108.645,-762.678 112.172,-748.83 117,-736 120.241,-727.388 124.306,-718.822 128.871,-710.484"/>
<polygon fill="none" stroke="#404040" points="128.892,-710.449 128.432,-703.252 134.897,-700.06 135.358,-707.256 128.892,-710.449"/>
<text text-anchor="middle" x="149.5" y="-750" font-family="Helvetica,sans-Serif" font-size="10.00"> &#45;beamerRoom</text>
<text text-anchor="middle" x="149.5" y="-739" font-family="Helvetica,sans-Serif" font-size="10.00">&#45;currentRoom</text>
</g>
<!-- Node7 -->
<g id="node7" class="node"><title>Node7</title>
<polygon fill="white" stroke="#bfbfbf" points="-0.5,-1049 -0.5,-1117 114.5,-1117 114.5,-1049 -0.5,-1049"/>
<text text-anchor="start" x="7.5" y="-1105" font-family="Helvetica,sans-Serif" font-size="10.00">HashMap&lt; String, pkg</text>
<text text-anchor="middle" x="57" y="-1094" font-family="Helvetica,sans-Serif" font-size="10.00">_world.Room &gt;</text>
<polyline fill="none" stroke="#bfbfbf" points="-0.5,-1087 114.5,-1087 "/>
<text text-anchor="middle" x="57" y="-1075" font-family="Helvetica,sans-Serif" font-size="10.00"> </text>
<polyline fill="none" stroke="#bfbfbf" points="-0.5,-1068 114.5,-1068 "/>
<text text-anchor="middle" x="57" y="-1056" font-family="Helvetica,sans-Serif" font-size="10.00"> </text>
</g>
<!-- Node7&#45;&gt;Node6 -->
<g id="edge7" class="edge"><title>Node7&#45;&gt;Node6</title>
<path fill="none" stroke="#404040" d="M55.5949,-1048.94C55.6851,-1038.94 56.3023,-1027.97 58,-1018 58.3939,-1015.69 58.8219,-1013.36 59.281,-1011.02"/>
<polygon fill="none" stroke="#404040" points="59.2858,-1011 56.6427,-1004.29 61.8192,-999.27 64.4623,-1005.98 59.2858,-1011"/>
<text text-anchor="middle" x="72" y="-1021.5" font-family="Helvetica,sans-Serif" font-size="10.00"> &#45;exits</text>
</g>
<!-- Node8 -->
<g id="node8" class="node"><title>Node8</title>
<polygon fill="white" stroke="#bfbfbf" points="263,-859.5 263,-916.5 397,-916.5 397,-859.5 263,-859.5"/>
<text text-anchor="middle" x="330" y="-904.5" font-family="Helvetica,sans-Serif" font-size="10.00">Stack&lt; pkg_world.Room &gt;</text>
<polyline fill="none" stroke="#bfbfbf" points="263,-897.5 397,-897.5 "/>
<text text-anchor="middle" x="330" y="-885.5" font-family="Helvetica,sans-Serif" font-size="10.00"> </text>
<polyline fill="none" stroke="#bfbfbf" points="263,-878.5 397,-878.5 "/>
<text text-anchor="middle" x="330" y="-866.5" font-family="Helvetica,sans-Serif" font-size="10.00"> </text>
</g>
<!-- Node8&#45;&gt;Node3 -->
<g id="edge8" class="edge"><title>Node8&#45;&gt;Node3</title>
<path fill="none" stroke="#404040" d="M315.913,-859.351C300.079,-828.274 273.419,-775.95 249.253,-728.519"/>
<polygon fill="none" stroke="#404040" points="249.105,-728.229 242.817,-724.699 243.658,-717.537 249.946,-721.067 249.105,-728.229"/>
<text text-anchor="middle" x="300.5" y="-744.5" font-family="Helvetica,sans-Serif" font-size="10.00"> &#45;previousRooms</text>
</g>
<!-- Node9 -->
<g id="node9" class="node"><title>Node9</title>
<polygon fill="white" stroke="#bfbfbf" points="275,-594.5 275,-651.5 375,-651.5 375,-594.5 275,-594.5"/>
<text text-anchor="middle" x="325" y="-639.5" font-family="Helvetica,sans-Serif" font-size="10.00">ArrayList&lt; Room &gt;</text>
<polyline fill="none" stroke="#bfbfbf" points="275,-632.5 375,-632.5 "/>
<text text-anchor="middle" x="325" y="-620.5" font-family="Helvetica,sans-Serif" font-size="10.00"> </text>
<polyline fill="none" stroke="#bfbfbf" points="275,-613.5 375,-613.5 "/>
<text text-anchor="middle" x="325" y="-601.5" font-family="Helvetica,sans-Serif" font-size="10.00"> </text>
</g>
<!-- Node9&#45;&gt;Node2 -->
<g id="edge9" class="edge"><title>Node9&#45;&gt;Node2</title>
<path fill="none" stroke="#404040" d="M318.7,-594.199C312.731,-567.859 303.507,-527.15 295.451,-491.601"/>
<polygon fill="none" stroke="#404040" points="295.423,-491.475 290.196,-486.507 292.771,-479.771 297.998,-484.739 295.423,-491.475"/>
<text text-anchor="middle" x="332.5" y="-501.5" font-family="Helvetica,sans-Serif" font-size="10.00"> ~gameRooms</text>
</g>
<!-- Node10&#45;&gt;Node1 -->
<g id="edge13" class="edge"><title>Node10&#45;&gt;Node1</title>
<path fill="none" stroke="#404040" d="M239.932,-118.332C244.377,-105.293 248.766,-92.4209 252.704,-80.8668"/>
<polygon fill="none" stroke="#404040" points="252.758,-80.7098 250.908,-73.74 256.63,-69.3516 258.48,-76.3214 252.758,-80.7098"/>
<text text-anchor="middle" x="260.5" y="-91.5" font-family="Helvetica,sans-Serif" font-size="10.00"> &#45;gui</text>
</g>
<!-- Node10&#45;&gt;Node2 -->
<g id="edge10" class="edge"><title>Node10&#45;&gt;Node2</title>
<path fill="none" stroke="#404040" d="M240.79,-307.753C245.168,-320.27 249.602,-332.945 253.822,-345.012"/>
<polygon fill="none" stroke="#404040" points="253.832,-345.041 259.589,-349.384 257.794,-356.368 252.037,-352.025 253.832,-345.041"/>
<text text-anchor="middle" x="259.5" y="-329.5" font-family="Helvetica,sans-Serif" font-size="10.00"> &#45;gui</text>
</g>
<!-- Node11 -->
<g id="node11" class="node"><title>Node11</title>
<polygon fill="white" stroke="#bfbfbf" points="123.5,-389.5 123.5,-446.5 202.5,-446.5 202.5,-389.5 123.5,-389.5"/>
<text text-anchor="middle" x="163" y="-434.5" font-family="Helvetica,sans-Serif" font-size="10.00">ActionListener</text>
<polyline fill="none" stroke="#bfbfbf" points="123.5,-427.5 202.5,-427.5 "/>
<text text-anchor="middle" x="163" y="-415.5" font-family="Helvetica,sans-Serif" font-size="10.00"> </text>
<polyline fill="none" stroke="#bfbfbf" points="123.5,-408.5 202.5,-408.5 "/>
<text text-anchor="middle" x="163" y="-396.5" font-family="Helvetica,sans-Serif" font-size="10.00"> </text>
</g>
<!-- Node11&#45;&gt;Node10 -->
<g id="edge11" class="edge"><title>Node11&#45;&gt;Node10</title>
<path fill="none" stroke="midnightblue" d="M171.332,-379.414C175.841,-359.072 181.631,-332.955 187.271,-307.511"/>
<polygon fill="none" stroke="midnightblue" points="167.91,-378.679 169.163,-389.199 174.744,-380.194 167.91,-378.679"/>
</g>
</g>
</svg>
