<?xml version="1.0" encoding="UTF-8" standalone="no"?>
<!DOCTYPE svg PUBLIC "-//W3C//DTD SVG 1.1//EN"
 "http://www.w3.org/Graphics/SVG/1.1/DTD/svg11.dtd">
<!-- Generated by graphviz version 2.36.0 (20140111.2315)
 -->
<!-- Title: UserInterface Pages: 1 -->
<svg width="518pt" height="878pt"
 viewBox="0.00 0.00 518.00 878.00" xmlns="http://www.w3.org/2000/svg" xmlns:xlink="http://www.w3.org/1999/xlink">
<g id="graph0" class="graph" transform="scale(1 1) rotate(0) translate(4 874)">
<title>UserInterface</title>
<polygon fill="white" stroke="none" points="-4,4 -4,-874 514,-874 514,4 -4,4"/>
<!-- Node1 -->
<g id="node1" class="node"><title>Node1</title>
<polygon fill="#bfbfbf" stroke="black" points="399,-172.5 399,-361.5 511,-361.5 511,-172.5 399,-172.5"/>
<text text-anchor="middle" x="455" y="-349.5" font-family="Helvetica,sans-Serif" font-size="10.00">UserInterface</text>
<polyline fill="none" stroke="black" points="399,-342.5 511,-342.5 "/>
<text text-anchor="start" x="407" y="-330.5" font-family="Helvetica,sans-Serif" font-size="10.00">&#45; myFrame</text>
<text text-anchor="start" x="407" y="-319.5" font-family="Helvetica,sans-Serif" font-size="10.00">&#45; entryField</text>
<text text-anchor="start" x="407" y="-308.5" font-family="Helvetica,sans-Serif" font-size="10.00">&#45; log</text>
<text text-anchor="start" x="407" y="-297.5" font-family="Helvetica,sans-Serif" font-size="10.00">&#45; image</text>
<text text-anchor="start" x="407" y="-286.5" font-family="Helvetica,sans-Serif" font-size="10.00">&#45; commandsLeftLabel</text>
<polyline fill="none" stroke="black" points="399,-279.5 511,-279.5 "/>
<text text-anchor="start" x="407" y="-267.5" font-family="Helvetica,sans-Serif" font-size="10.00">+ UserInterface()</text>
<text text-anchor="start" x="407" y="-256.5" font-family="Helvetica,sans-Serif" font-size="10.00">+ setCommandsLeft()</text>
<text text-anchor="start" x="407" y="-245.5" font-family="Helvetica,sans-Serif" font-size="10.00">+ print()</text>
<text text-anchor="start" x="407" y="-234.5" font-family="Helvetica,sans-Serif" font-size="10.00">+ println()</text>
<text text-anchor="start" x="407" y="-223.5" font-family="Helvetica,sans-Serif" font-size="10.00">+ showImage()</text>
<text text-anchor="start" x="407" y="-212.5" font-family="Helvetica,sans-Serif" font-size="10.00">+ enable()</text>
<text text-anchor="start" x="407" y="-201.5" font-family="Helvetica,sans-Serif" font-size="10.00">+ actionPerformed()</text>
<text text-anchor="start" x="407" y="-190.5" font-family="Helvetica,sans-Serif" font-size="10.00">&#45; createGUI()</text>
<text text-anchor="start" x="407" y="-179.5" font-family="Helvetica,sans-Serif" font-size="10.00">&#45; processCommand()</text>
</g>
<!-- Node3 -->
<g id="node3" class="node"><title>Node3</title>
<g id="a_node3"><a xlink:href="classGameEngine.html" target="_top" xlink:title="Class handling the gameplay for the game. ">
<polygon fill="white" stroke="black" points="310.5,-0.5 310.5,-123.5 427.5,-123.5 427.5,-0.5 310.5,-0.5"/>
<text text-anchor="middle" x="369" y="-111.5" font-family="Helvetica,sans-Serif" font-size="10.00">GameEngine</text>
<polyline fill="none" stroke="black" points="310.5,-104.5 427.5,-104.5 "/>
<text text-anchor="start" x="318.5" y="-92.5" font-family="Helvetica,sans-Serif" font-size="10.00">&#45; helpCount</text>
<text text-anchor="start" x="318.5" y="-81.5" font-family="Helvetica,sans-Serif" font-size="10.00">&#45; commandCountDown</text>
<polyline fill="none" stroke="black" points="310.5,-74.5 427.5,-74.5 "/>
<text text-anchor="start" x="318.5" y="-62.5" font-family="Helvetica,sans-Serif" font-size="10.00">+ GameEngine()</text>
<text text-anchor="start" x="318.5" y="-51.5" font-family="Helvetica,sans-Serif" font-size="10.00">+ setGUI()</text>
<text text-anchor="start" x="318.5" y="-40.5" font-family="Helvetica,sans-Serif" font-size="10.00">+ processCommand()</text>
<text text-anchor="start" x="318.5" y="-29.5" font-family="Helvetica,sans-Serif" font-size="10.00">&#45; printWelcome()</text>
<text text-anchor="start" x="318.5" y="-18.5" font-family="Helvetica,sans-Serif" font-size="10.00">&#45; createRooms()</text>
<text text-anchor="start" x="318.5" y="-7.5" font-family="Helvetica,sans-Serif" font-size="10.00">&#45; endGame()</text>
</a>
</g>
</g>
<!-- Node1&#45;&gt;Node3 -->
<g id="edge11" class="edge"><title>Node1&#45;&gt;Node3</title>
<path fill="none" stroke="#404040" d="M415.273,-172.225C409.97,-159.707 404.6,-147.032 399.489,-134.967"/>
<polygon fill="none" stroke="#404040" points="399.359,-134.661 393.335,-130.696 394.678,-123.611 400.701,-127.576 399.359,-134.661"/>
<text text-anchor="middle" x="416.5" y="-145.5" font-family="Helvetica,sans-Serif" font-size="10.00"> &#45;gui</text>
</g>
<!-- Node2 -->
<g id="node2" class="node"><title>Node2</title>
<polygon fill="white" stroke="#bfbfbf" points="415.5,-503.5 415.5,-560.5 494.5,-560.5 494.5,-503.5 415.5,-503.5"/>
<text text-anchor="middle" x="455" y="-548.5" font-family="Helvetica,sans-Serif" font-size="10.00">ActionListener</text>
<polyline fill="none" stroke="#bfbfbf" points="415.5,-541.5 494.5,-541.5 "/>
<text text-anchor="middle" x="455" y="-529.5" font-family="Helvetica,sans-Serif" font-size="10.00"> </text>
<polyline fill="none" stroke="#bfbfbf" points="415.5,-522.5 494.5,-522.5 "/>
<text text-anchor="middle" x="455" y="-510.5" font-family="Helvetica,sans-Serif" font-size="10.00"> </text>
</g>
<!-- Node2&#45;&gt;Node1 -->
<g id="edge1" class="edge"><title>Node2&#45;&gt;Node1</title>
<path fill="none" stroke="midnightblue" d="M455,-493.306C455,-459.014 455,-406.969 455,-361.537"/>
<polygon fill="none" stroke="midnightblue" points="451.5,-493.351 455,-503.351 458.5,-493.352 451.5,-493.351"/>
</g>
<!-- Node3&#45;&gt;Node1 -->
<g id="edge2" class="edge"><title>Node3&#45;&gt;Node1</title>
<path fill="none" stroke="#404040" d="M422.834,-123.559C426.668,-129.55 430.141,-135.738 433,-142 435.724,-147.967 438.111,-154.238 440.204,-160.661"/>
<polygon fill="none" stroke="#404040" points="440.258,-160.844 445.796,-165.463 443.661,-172.351 438.124,-167.732 440.258,-160.844"/>
<text text-anchor="middle" x="454.5" y="-145.5" font-family="Helvetica,sans-Serif" font-size="10.00"> &#45;engine</text>
</g>
<!-- Node4 -->
<g id="node4" class="node"><title>Node4</title>
<g id="a_node4"><a xlink:href="classpkg__world_1_1Player.html" target="_top" xlink:title="class Player used to handle the user&#39;s player. ">
<polygon fill="white" stroke="black" points="135,-172.5 135,-361.5 257,-361.5 257,-172.5 135,-172.5"/>
<text text-anchor="middle" x="196" y="-349.5" font-family="Helvetica,sans-Serif" font-size="10.00">pkg_world.Player</text>
<polyline fill="none" stroke="black" points="135,-342.5 257,-342.5 "/>
<text text-anchor="start" x="143" y="-330.5" font-family="Helvetica,sans-Serif" font-size="10.00">&#45; name</text>
<text text-anchor="start" x="143" y="-319.5" font-family="Helvetica,sans-Serif" font-size="10.00">&#45; backpackWeight</text>
<text text-anchor="start" x="143" y="-308.5" font-family="Helvetica,sans-Serif" font-size="10.00">&#45; maxWeight</text>
<polyline fill="none" stroke="black" points="135,-301.5 257,-301.5 "/>
<text text-anchor="start" x="143" y="-289.5" font-family="Helvetica,sans-Serif" font-size="10.00">+ Player()</text>
<text text-anchor="start" x="143" y="-278.5" font-family="Helvetica,sans-Serif" font-size="10.00">+ getName()</text>
<text text-anchor="start" x="143" y="-267.5" font-family="Helvetica,sans-Serif" font-size="10.00">+ getMaxWeight()</text>
<text text-anchor="start" x="143" y="-256.5" font-family="Helvetica,sans-Serif" font-size="10.00">+ setMaxWeight()</text>
<text text-anchor="start" x="143" y="-245.5" font-family="Helvetica,sans-Serif" font-size="10.00">+ getCurrentRoom()</text>
<text text-anchor="start" x="143" y="-234.5" font-family="Helvetica,sans-Serif" font-size="10.00">+ goRoom()</text>
<text text-anchor="start" x="143" y="-223.5" font-family="Helvetica,sans-Serif" font-size="10.00">+ getPreviousRoom()</text>
<text text-anchor="start" x="143" y="-212.5" font-family="Helvetica,sans-Serif" font-size="10.00">+ pushPreviousRooms()</text>
<text text-anchor="start" x="143" y="-201.5" font-family="Helvetica,sans-Serif" font-size="10.00">+ pushForward()</text>
<text text-anchor="start" x="143" y="-190.5" font-family="Helvetica,sans-Serif" font-size="10.00">+ popPreviousRooms()</text>
<text text-anchor="start" x="143" y="-179.5" font-family="Helvetica,sans-Serif" font-size="10.00">and 10 more...</text>
</a>
</g>
</g>
<!-- Node4&#45;&gt;Node3 -->
<g id="edge3" class="edge"><title>Node4&#45;&gt;Node3</title>
<path fill="none" stroke="#404040" d="M257.058,-178.804C266.734,-166.179 276.892,-153.558 287,-142 291.669,-136.662 296.639,-131.268 301.735,-125.94"/>
<polygon fill="none" stroke="#404040" points="302.021,-125.646 303.346,-118.558 310.399,-117.055 309.074,-124.143 302.021,-125.646"/>
<text text-anchor="middle" x="303.5" y="-145.5" font-family="Helvetica,sans-Serif" font-size="10.00"> &#45;player</text>
</g>
<!-- Node5 -->
<g id="node5" class="node"><title>Node5</title>
<g id="a_node5"><a xlink:href="classpkg__world_1_1ItemList.html" target="_top" xlink:title="class ItemList used to handle a list of Item (inventory). ">
<polygon fill="white" stroke="black" points="139.5,-698.5 139.5,-755.5 238.5,-755.5 238.5,-698.5 139.5,-698.5"/>
<text text-anchor="middle" x="189" y="-743.5" font-family="Helvetica,sans-Serif" font-size="10.00">pkg_world.ItemList</text>
<polyline fill="none" stroke="black" points="139.5,-736.5 238.5,-736.5 "/>
<text text-anchor="middle" x="189" y="-724.5" font-family="Helvetica,sans-Serif" font-size="10.00"> </text>
<polyline fill="none" stroke="black" points="139.5,-717.5 238.5,-717.5 "/>
<text text-anchor="start" x="147.5" y="-705.5" font-family="Helvetica,sans-Serif" font-size="10.00">+ transfer()</text>
</a>
</g>
</g>
<!-- Node5&#45;&gt;Node4 -->
<g id="edge4" class="edge"><title>Node5&#45;&gt;Node4</title>
<path fill="none" stroke="#404040" d="M189.422,-698.381C190.381,-635.625 192.767,-479.543 194.385,-373.638"/>
<polygon fill="none" stroke="#404040" points="194.386,-373.624 190.478,-367.563 194.569,-361.625 198.477,-367.686 194.386,-373.624"/>
<text text-anchor="middle" x="218.5" y="-529.5" font-family="Helvetica,sans-Serif" font-size="10.00"> &#45;backpack</text>
</g>
<!-- Node7 -->
<g id="node7" class="node"><title>Node7</title>
<g id="a_node7"><a xlink:href="classpkg__world_1_1Room.html" target="_top" xlink:title="Class used to handle a game&#39;s room. ">
<polygon fill="white" stroke="black" points="42,-421 42,-643 160,-643 160,-421 42,-421"/>
<text text-anchor="middle" x="101" y="-631" font-family="Helvetica,sans-Serif" font-size="10.00">pkg_world.Room</text>
<polyline fill="none" stroke="black" points="42,-624 160,-624 "/>
<text text-anchor="start" x="50" y="-612" font-family="Helvetica,sans-Serif" font-size="10.00">&#45; description</text>
<text text-anchor="start" x="50" y="-601" font-family="Helvetica,sans-Serif" font-size="10.00">&#45; imageName</text>
<polyline fill="none" stroke="black" points="42,-594 160,-594 "/>
<text text-anchor="start" x="50" y="-582" font-family="Helvetica,sans-Serif" font-size="10.00">+ Room()</text>
<text text-anchor="start" x="50" y="-571" font-family="Helvetica,sans-Serif" font-size="10.00">+ Room()</text>
<text text-anchor="start" x="50" y="-560" font-family="Helvetica,sans-Serif" font-size="10.00">+ setExit()</text>
<text text-anchor="start" x="50" y="-549" font-family="Helvetica,sans-Serif" font-size="10.00">+ getContainedItems()</text>
<text text-anchor="start" x="50" y="-538" font-family="Helvetica,sans-Serif" font-size="10.00">+ getItem()</text>
<text text-anchor="start" x="50" y="-527" font-family="Helvetica,sans-Serif" font-size="10.00">+ hasItem()</text>
<text text-anchor="start" x="50" y="-516" font-family="Helvetica,sans-Serif" font-size="10.00">+ addItem()</text>
<text text-anchor="start" x="50" y="-505" font-family="Helvetica,sans-Serif" font-size="10.00">+ removeItem()</text>
<text text-anchor="start" x="50" y="-494" font-family="Helvetica,sans-Serif" font-size="10.00">+ getShortDescription()</text>
<text text-anchor="start" x="50" y="-483" font-family="Helvetica,sans-Serif" font-size="10.00">+ getLongDescription()</text>
<text text-anchor="start" x="50" y="-472" font-family="Helvetica,sans-Serif" font-size="10.00">+ getHumanItemsList()</text>
<text text-anchor="start" x="50" y="-461" font-family="Helvetica,sans-Serif" font-size="10.00">+ getExit()</text>
<text text-anchor="start" x="50" y="-450" font-family="Helvetica,sans-Serif" font-size="10.00">+ isExit()</text>
<text text-anchor="start" x="50" y="-439" font-family="Helvetica,sans-Serif" font-size="10.00">+ getImageName()</text>
<text text-anchor="start" x="50" y="-428" font-family="Helvetica,sans-Serif" font-size="10.00">&#45; getExitString()</text>
</a>
</g>
</g>
<!-- Node5&#45;&gt;Node7 -->
<g id="edge7" class="edge"><title>Node5&#45;&gt;Node7</title>
<path fill="none" stroke="#404040" d="M139.474,-703.966C127.52,-696.236 116.147,-686.323 109,-674 105.454,-667.886 102.605,-661.36 100.341,-654.594"/>
<polygon fill="none" stroke="#404040" points="100.331,-654.557 94.8486,-649.872 97.0643,-643.01 102.547,-647.694 100.331,-654.557"/>
<text text-anchor="middle" x="145.5" y="-665.5" font-family="Helvetica,sans-Serif" font-size="10.00"> &#45;containedItems</text>
</g>
<!-- Node6 -->
<g id="node6" class="node"><title>Node6</title>
<polygon fill="white" stroke="#bfbfbf" points="138.5,-801 138.5,-869 239.5,-869 239.5,-801 138.5,-801"/>
<text text-anchor="start" x="146.5" y="-857" font-family="Helvetica,sans-Serif" font-size="10.00">java::util::HashMap</text>
<text text-anchor="middle" x="189" y="-846" font-family="Helvetica,sans-Serif" font-size="10.00">&lt; String, Item &gt;</text>
<polyline fill="none" stroke="#bfbfbf" points="138.5,-839 239.5,-839 "/>
<text text-anchor="middle" x="189" y="-827" font-family="Helvetica,sans-Serif" font-size="10.00"> </text>
<polyline fill="none" stroke="#bfbfbf" points="138.5,-820 239.5,-820 "/>
<text text-anchor="middle" x="189" y="-808" font-family="Helvetica,sans-Serif" font-size="10.00"> </text>
</g>
<!-- Node6&#45;&gt;Node5 -->
<g id="edge5" class="edge"><title>Node6&#45;&gt;Node5</title>
<path fill="none" stroke="midnightblue" d="M189,-790.639C189,-778.87 189,-766.444 189,-755.791"/>
<polygon fill="none" stroke="midnightblue" points="185.5,-790.752 189,-800.752 192.5,-790.752 185.5,-790.752"/>
</g>
<!-- Node7&#45;&gt;Node4 -->
<g id="edge6" class="edge"><title>Node7&#45;&gt;Node4</title>
<path fill="none" stroke="#404040" d="M106.09,-420.601C108.645,-406.678 112.172,-392.83 117,-380 120.241,-371.388 124.306,-362.822 128.871,-354.484"/>
<polygon fill="none" stroke="#404040" points="128.892,-354.449 128.432,-347.252 134.897,-344.06 135.358,-351.256 128.892,-354.449"/>
<text text-anchor="middle" x="149.5" y="-394" font-family="Helvetica,sans-Serif" font-size="10.00"> &#45;beamerRoom</text>
<text text-anchor="middle" x="149.5" y="-383" font-family="Helvetica,sans-Serif" font-size="10.00">&#45;currentRoom</text>
</g>
<!-- Node8 -->
<g id="node8" class="node"><title>Node8</title>
<polygon fill="white" stroke="#bfbfbf" points="-0.5,-693 -0.5,-761 114.5,-761 114.5,-693 -0.5,-693"/>
<text text-anchor="start" x="7.5" y="-749" font-family="Helvetica,sans-Serif" font-size="10.00">HashMap&lt; String, pkg</text>
<text text-anchor="middle" x="57" y="-738" font-family="Helvetica,sans-Serif" font-size="10.00">_world.Room &gt;</text>
<polyline fill="none" stroke="#bfbfbf" points="-0.5,-731 114.5,-731 "/>
<text text-anchor="middle" x="57" y="-719" font-family="Helvetica,sans-Serif" font-size="10.00"> </text>
<polyline fill="none" stroke="#bfbfbf" points="-0.5,-712 114.5,-712 "/>
<text text-anchor="middle" x="57" y="-700" font-family="Helvetica,sans-Serif" font-size="10.00"> </text>
</g>
<!-- Node8&#45;&gt;Node7 -->
<g id="edge8" class="edge"><title>Node8&#45;&gt;Node7</title>
<path fill="none" stroke="#404040" d="M55.5949,-692.935C55.6851,-682.937 56.3023,-671.969 58,-662 58.3939,-659.687 58.8219,-657.36 59.281,-655.022"/>
<polygon fill="none" stroke="#404040" points="59.2858,-655 56.6427,-648.29 61.8192,-643.27 64.4623,-649.979 59.2858,-655"/>
<text text-anchor="middle" x="72" y="-665.5" font-family="Helvetica,sans-Serif" font-size="10.00"> &#45;exits</text>
</g>
<!-- Node9 -->
<g id="node9" class="node"><title>Node9</title>
<polygon fill="white" stroke="#bfbfbf" points="263,-503.5 263,-560.5 397,-560.5 397,-503.5 263,-503.5"/>
<text text-anchor="middle" x="330" y="-548.5" font-family="Helvetica,sans-Serif" font-size="10.00">Stack&lt; pkg_world.Room &gt;</text>
<polyline fill="none" stroke="#bfbfbf" points="263,-541.5 397,-541.5 "/>
<text text-anchor="middle" x="330" y="-529.5" font-family="Helvetica,sans-Serif" font-size="10.00"> </text>
<polyline fill="none" stroke="#bfbfbf" points="263,-522.5 397,-522.5 "/>
<text text-anchor="middle" x="330" y="-510.5" font-family="Helvetica,sans-Serif" font-size="10.00"> </text>
</g>
<!-- Node9&#45;&gt;Node4 -->
<g id="edge9" class="edge"><title>Node9&#45;&gt;Node4</title>
<path fill="none" stroke="#404040" d="M315.913,-503.351C300.079,-472.274 273.419,-419.95 249.253,-372.519"/>
<polygon fill="none" stroke="#404040" points="249.105,-372.229 242.817,-368.699 243.658,-361.537 249.946,-365.067 249.105,-372.229"/>
<text text-anchor="middle" x="300.5" y="-388.5" font-family="Helvetica,sans-Serif" font-size="10.00"> &#45;previousRooms</text>
</g>
<!-- Node10 -->
<g id="node10" class="node"><title>Node10</title>
<polygon fill="white" stroke="#bfbfbf" points="275,-238.5 275,-295.5 375,-295.5 375,-238.5 275,-238.5"/>
<text text-anchor="middle" x="325" y="-283.5" font-family="Helvetica,sans-Serif" font-size="10.00">ArrayList&lt; Room &gt;</text>
<polyline fill="none" stroke="#bfbfbf" points="275,-276.5 375,-276.5 "/>
<text text-anchor="middle" x="325" y="-264.5" font-family="Helvetica,sans-Serif" font-size="10.00"> </text>
<polyline fill="none" stroke="#bfbfbf" points="275,-257.5 375,-257.5 "/>
<text text-anchor="middle" x="325" y="-245.5" font-family="Helvetica,sans-Serif" font-size="10.00"> </text>
</g>
<!-- Node10&#45;&gt;Node3 -->
<g id="edge10" class="edge"><title>Node10&#45;&gt;Node3</title>
<path fill="none" stroke="#404040" d="M321.44,-238.411C319.036,-212.948 317.639,-174.305 326,-142 326.587,-139.732 327.253,-137.459 327.986,-135.189"/>
<polygon fill="none" stroke="#404040" points="327.998,-135.156 326.33,-128.14 332.164,-123.902 333.832,-130.917 327.998,-135.156"/>
<text text-anchor="middle" x="358.5" y="-145.5" font-family="Helvetica,sans-Serif" font-size="10.00"> ~gameRooms</text>
</g>
</g>
</svg>
