<?xml version="1.0" encoding="UTF-8" standalone="no"?>
<!DOCTYPE svg PUBLIC "-//W3C//DTD SVG 1.1//EN"
 "http://www.w3.org/Graphics/SVG/1.1/DTD/svg11.dtd">
<!-- Generated by graphviz version 2.36.0 (20140111.2315)
 -->
<!-- Title: Graphical Class Hierarchy Pages: 1 -->
<svg width="340pt" height="370pt"
 viewBox="0.00 0.00 340.00 370.00" xmlns="http://www.w3.org/2000/svg" xmlns:xlink="http://www.w3.org/1999/xlink">
<g id="graph0" class="graph" transform="scale(1 1) rotate(0) translate(4 366)">
<title>Graphical Class Hierarchy</title>
<polygon fill="white" stroke="none" points="-4,4 -4,-366 336,-366 336,4 -4,4"/>
<!-- Node1 -->
<g id="node1" class="node"><title>Node1</title>
<g id="a_node1"><a xlink:href="classCommand.html" target="_top" xlink:title="Class used to handle a command of one or two words. ">
<polygon fill="white" stroke="black" points="0,-171.5 0,-190.5 62,-190.5 62,-171.5 0,-171.5"/>
<text text-anchor="middle" x="31" y="-178.5" font-family="Helvetica,sans-Serif" font-size="10.00">Command</text>
</a>
</g>
</g>
<!-- Node2 -->
<g id="node2" class="node"><title>Node2</title>
<g id="a_node2"><a xlink:href="classCreditsCommand.html" target="_top" xlink:title="class CreditsCommand used to print the credits of the game ">
<polygon fill="white" stroke="black" points="102.5,-342.5 102.5,-361.5 195.5,-361.5 195.5,-342.5 102.5,-342.5"/>
<text text-anchor="middle" x="149" y="-349.5" font-family="Helvetica,sans-Serif" font-size="10.00">CreditsCommand</text>
</a>
</g>
</g>
<!-- Node1&#45;&gt;Node2 -->
<g id="edge1" class="edge"><title>Node1&#45;&gt;Node2</title>
<path fill="none" stroke="midnightblue" d="M35.4166,-200.559C41.9794,-232.512 59.2798,-296.04 98,-333 102.03,-336.847 106.918,-339.935 112.04,-342.407"/>
<polygon fill="midnightblue" stroke="midnightblue" points="38.8415,-199.834 33.5256,-190.67 31.966,-201.149 38.8415,-199.834"/>
</g>
<!-- Node3 -->
<g id="node3" class="node"><title>Node3</title>
<g id="a_node3"><a xlink:href="classDropCommand.html" target="_top" xlink:title="class DropCommand used to make the player drop an Item ">
<polygon fill="white" stroke="black" points="107.5,-304.5 107.5,-323.5 190.5,-323.5 190.5,-304.5 107.5,-304.5"/>
<text text-anchor="middle" x="149" y="-311.5" font-family="Helvetica,sans-Serif" font-size="10.00">DropCommand</text>
</a>
</g>
</g>
<!-- Node1&#45;&gt;Node3 -->
<g id="edge2" class="edge"><title>Node1&#45;&gt;Node3</title>
<path fill="none" stroke="midnightblue" d="M38.4832,-200.231C47.8627,-225.324 67.5083,-269.078 98,-295 102.528,-298.849 107.917,-301.962 113.454,-304.465"/>
<polygon fill="midnightblue" stroke="midnightblue" points="41.7485,-198.967 35.0904,-190.726 35.1559,-201.32 41.7485,-198.967"/>
</g>
<!-- Node4 -->
<g id="node4" class="node"><title>Node4</title>
<g id="a_node4"><a xlink:href="classEatCommand.html" target="_top" xlink:title="class EatCommand used to make the player eat an object. ">
<polygon fill="white" stroke="black" points="110.5,-266.5 110.5,-285.5 187.5,-285.5 187.5,-266.5 110.5,-266.5"/>
<text text-anchor="middle" x="149" y="-273.5" font-family="Helvetica,sans-Serif" font-size="10.00">EatCommand</text>
</a>
</g>
</g>
<!-- Node1&#45;&gt;Node4 -->
<g id="edge3" class="edge"><title>Node1&#45;&gt;Node4</title>
<path fill="none" stroke="midnightblue" d="M43.7067,-199.008C55.5801,-216.02 75.391,-241.217 98,-257 103.406,-260.774 109.66,-263.916 115.875,-266.486"/>
<polygon fill="midnightblue" stroke="midnightblue" points="46.4612,-196.833 37.9595,-190.511 40.6629,-200.755 46.4612,-196.833"/>
</g>
<!-- Node5 -->
<g id="node5" class="node"><title>Node5</title>
<g id="a_node5"><a xlink:href="classGoCommand.html" target="_top" xlink:title="class GoCommand used to make the player go to a given Room. ">
<polygon fill="white" stroke="black" points="112,-228.5 112,-247.5 186,-247.5 186,-228.5 112,-228.5"/>
<text text-anchor="middle" x="149" y="-235.5" font-family="Helvetica,sans-Serif" font-size="10.00">GoCommand</text>
</a>
</g>
</g>
<!-- Node1&#45;&gt;Node5 -->
<g id="edge4" class="edge"><title>Node1&#45;&gt;Node5</title>
<path fill="none" stroke="midnightblue" d="M55.8506,-195.963C68.1817,-203.38 83.6246,-212.184 98,-219 105.132,-222.382 113.04,-225.613 120.423,-228.42"/>
<polygon fill="midnightblue" stroke="midnightblue" points="57.4555,-192.842 47.0969,-190.617 53.8073,-198.816 57.4555,-192.842"/>
</g>
<!-- Node8 -->
<g id="node8" class="node"><title>Node8</title>
<g id="a_node8"><a xlink:href="classHelpCommand.html" target="_top" xlink:title="class HelpCommand used to print the help ">
<polygon fill="white" stroke="black" points="108,-190.5 108,-209.5 190,-209.5 190,-190.5 108,-190.5"/>
<text text-anchor="middle" x="149" y="-197.5" font-family="Helvetica,sans-Serif" font-size="10.00">HelpCommand</text>
</a>
</g>
</g>
<!-- Node1&#45;&gt;Node8 -->
<g id="edge7" class="edge"><title>Node1&#45;&gt;Node8</title>
<path fill="none" stroke="midnightblue" d="M72.046,-187.559C83.6512,-189.46 96.3203,-191.535 107.927,-193.436"/>
<polygon fill="midnightblue" stroke="midnightblue" points="72.6091,-184.105 62.1748,-185.942 71.4776,-191.013 72.6091,-184.105"/>
</g>
<!-- Node9 -->
<g id="node9" class="node"><title>Node9</title>
<g id="a_node9"><a xlink:href="classInventoryCommand.html" target="_top" xlink:title="class InventoryCommand used to print the player&#39;s inventory ">
<polygon fill="white" stroke="black" points="98,-152.5 98,-171.5 200,-171.5 200,-152.5 98,-152.5"/>
<text text-anchor="middle" x="149" y="-159.5" font-family="Helvetica,sans-Serif" font-size="10.00">InventoryCommand</text>
</a>
</g>
</g>
<!-- Node1&#45;&gt;Node9 -->
<g id="edge8" class="edge"><title>Node1&#45;&gt;Node9</title>
<path fill="none" stroke="midnightblue" d="M72.2558,-174.406C80.4817,-173.059 89.2347,-171.625 97.7598,-170.229"/>
<polygon fill="midnightblue" stroke="midnightblue" points="71.4776,-170.987 62.1748,-176.058 72.6091,-177.895 71.4776,-170.987"/>
</g>
<!-- Node10 -->
<g id="node10" class="node"><title>Node10</title>
<g id="a_node10"><a xlink:href="classLookCommand.html" target="_top" xlink:title="class LookCommand used to show information about the current Room or a given Item ...">
<polygon fill="white" stroke="black" points="107.5,-114.5 107.5,-133.5 190.5,-133.5 190.5,-114.5 107.5,-114.5"/>
<text text-anchor="middle" x="149" y="-121.5" font-family="Helvetica,sans-Serif" font-size="10.00">LookCommand</text>
</a>
</g>
</g>
<!-- Node1&#45;&gt;Node10 -->
<g id="edge9" class="edge"><title>Node1&#45;&gt;Node10</title>
<path fill="none" stroke="midnightblue" d="M55.8506,-166.037C68.1817,-158.62 83.6246,-149.816 98,-143 105.132,-139.618 113.04,-136.387 120.423,-133.58"/>
<polygon fill="midnightblue" stroke="midnightblue" points="53.8073,-163.184 47.0969,-171.383 57.4555,-169.158 53.8073,-163.184"/>
</g>
<!-- Node11 -->
<g id="node11" class="node"><title>Node11</title>
<g id="a_node11"><a xlink:href="classQuitCommand.html" target="_top" xlink:title="class QuitCommand used to quit the game ">
<polygon fill="white" stroke="black" points="109,-76.5 109,-95.5 189,-95.5 189,-76.5 109,-76.5"/>
<text text-anchor="middle" x="149" y="-83.5" font-family="Helvetica,sans-Serif" font-size="10.00">QuitCommand</text>
</a>
</g>
</g>
<!-- Node1&#45;&gt;Node11 -->
<g id="edge10" class="edge"><title>Node1&#45;&gt;Node11</title>
<path fill="none" stroke="midnightblue" d="M43.7067,-162.992C55.5801,-145.98 75.391,-120.783 98,-105 103.406,-101.226 109.66,-98.084 115.875,-95.5137"/>
<polygon fill="midnightblue" stroke="midnightblue" points="40.6629,-161.245 37.9595,-171.489 46.4612,-165.167 40.6629,-161.245"/>
</g>
<!-- Node12 -->
<g id="node12" class="node"><title>Node12</title>
<g id="a_node12"><a xlink:href="classTakeCommand.html" target="_top" xlink:title="class TakeCommand used to make the Player take an Item ">
<polygon fill="white" stroke="black" points="107.5,-38.5 107.5,-57.5 190.5,-57.5 190.5,-38.5 107.5,-38.5"/>
<text text-anchor="middle" x="149" y="-45.5" font-family="Helvetica,sans-Serif" font-size="10.00">TakeCommand</text>
</a>
</g>
</g>
<!-- Node1&#45;&gt;Node12 -->
<g id="edge11" class="edge"><title>Node1&#45;&gt;Node12</title>
<path fill="none" stroke="midnightblue" d="M38.4832,-161.769C47.8627,-136.676 67.5083,-92.9221 98,-67 102.528,-63.1506 107.917,-60.0384 113.454,-57.5353"/>
<polygon fill="midnightblue" stroke="midnightblue" points="35.1559,-160.68 35.0904,-171.274 41.7485,-163.033 35.1559,-160.68"/>
</g>
<!-- Node13 -->
<g id="node13" class="node"><title>Node13</title>
<g id="a_node13"><a xlink:href="classTestCommand.html" target="_top" xlink:title="class TestCommand used to test series of commands ">
<polygon fill="white" stroke="black" points="108.5,-0.5 108.5,-19.5 189.5,-19.5 189.5,-0.5 108.5,-0.5"/>
<text text-anchor="middle" x="149" y="-7.5" font-family="Helvetica,sans-Serif" font-size="10.00">TestCommand</text>
</a>
</g>
</g>
<!-- Node1&#45;&gt;Node13 -->
<g id="edge12" class="edge"><title>Node1&#45;&gt;Node13</title>
<path fill="none" stroke="midnightblue" d="M35.4166,-161.441C41.9794,-129.488 59.2798,-65.9603 98,-29 102.03,-25.1529 106.918,-22.0654 112.04,-19.5928"/>
<polygon fill="midnightblue" stroke="midnightblue" points="31.966,-160.851 33.5256,-171.33 38.8415,-162.166 31.966,-160.851"/>
</g>
<!-- Node6 -->
<g id="node6" class="node"><title>Node6</title>
<g id="a_node6"><a xlink:href="classBackCommand.html" target="_top" xlink:title="class BackCommand used to go back in a previous Room. ">
<polygon fill="white" stroke="black" points="242,-247.5 242,-266.5 326,-266.5 326,-247.5 242,-247.5"/>
<text text-anchor="middle" x="284" y="-254.5" font-family="Helvetica,sans-Serif" font-size="10.00">BackCommand</text>
</a>
</g>
</g>
<!-- Node5&#45;&gt;Node6 -->
<g id="edge5" class="edge"><title>Node5&#45;&gt;Node6</title>
<path fill="none" stroke="midnightblue" d="M196.262,-244.609C210.985,-246.712 227.171,-249.024 241.533,-251.076"/>
<polygon fill="midnightblue" stroke="midnightblue" points="196.737,-241.141 186.343,-243.192 195.747,-248.071 196.737,-241.141"/>
</g>
<!-- Node7 -->
<g id="node7" class="node"><title>Node7</title>
<g id="a_node7"><a xlink:href="classBeamerCommand.html" target="_top" xlink:title="class BeamerCommand used to teleport into a remembered room ">
<polygon fill="white" stroke="black" points="236.5,-209.5 236.5,-228.5 331.5,-228.5 331.5,-209.5 236.5,-209.5"/>
<text text-anchor="middle" x="284" y="-216.5" font-family="Helvetica,sans-Serif" font-size="10.00">BeamerCommand</text>
</a>
</g>
</g>
<!-- Node5&#45;&gt;Node7 -->
<g id="edge6" class="edge"><title>Node5&#45;&gt;Node7</title>
<path fill="none" stroke="midnightblue" d="M196.4,-231.371C209.289,-229.53 223.291,-227.53 236.203,-225.685"/>
<polygon fill="midnightblue" stroke="midnightblue" points="195.747,-227.929 186.343,-232.808 196.737,-234.859 195.747,-227.929"/>
</g>
</g>
</svg>
