<?xml version="1.0" encoding="UTF-8" standalone="no"?>
<!DOCTYPE svg PUBLIC "-//W3C//DTD SVG 1.1//EN"
 "http://www.w3.org/Graphics/SVG/1.1/DTD/svg11.dtd">
<!-- Generated by graphviz version 2.36.0 (20140111.2315)
 -->
<!-- Title: Graphical Class Hierarchy Pages: 1 -->
<svg width="556pt" height="370pt"
 viewBox="0.00 0.00 556.00 370.00" xmlns="http://www.w3.org/2000/svg" xmlns:xlink="http://www.w3.org/1999/xlink">
<g id="graph0" class="graph" transform="scale(1 1) rotate(0) translate(4 366)">
<title>Graphical Class Hierarchy</title>
<polygon fill="white" stroke="none" points="-4,4 -4,-366 552,-366 552,4 -4,4"/>
<!-- Node1 -->
<g id="node1" class="node"><title>Node1</title>
<g id="a_node1"><a xlink:href="classpkg__commands_1_1Command.html" target="_top" xlink:title="Class used to handle a command of one or two words. ">
<polygon fill="white" stroke="black" points="0,-171.5 0,-190.5 134,-190.5 134,-171.5 0,-171.5"/>
<text text-anchor="middle" x="67" y="-178.5" font-family="Helvetica,sans-Serif" font-size="10.00">pkg_commands.Command</text>
</a>
</g>
</g>
<!-- Node2 -->
<g id="node2" class="node"><title>Node2</title>
<g id="a_node2"><a xlink:href="classpkg__commands_1_1CreditsCommand.html" target="_top" xlink:title="class CreditsCommand used to print the credits of the game ">
<polygon fill="white" stroke="black" points="174.5,-342.5 174.5,-361.5 339.5,-361.5 339.5,-342.5 174.5,-342.5"/>
<text text-anchor="middle" x="257" y="-349.5" font-family="Helvetica,sans-Serif" font-size="10.00">pkg_commands.CreditsCommand</text>
</a>
</g>
</g>
<!-- Node1&#45;&gt;Node2 -->
<g id="edge1" class="edge"><title>Node1&#45;&gt;Node2</title>
<path fill="none" stroke="midnightblue" d="M75.1934,-200.043C88.5696,-232.725 120.487,-299.228 170,-333 175.684,-336.877 182.028,-339.978 188.623,-342.457"/>
<polygon fill="midnightblue" stroke="midnightblue" points="78.4335,-198.718 71.5033,-190.704 71.9234,-201.291 78.4335,-198.718"/>
</g>
<!-- Node3 -->
<g id="node3" class="node"><title>Node3</title>
<g id="a_node3"><a xlink:href="classpkg__commands_1_1DropCommand.html" target="_top" xlink:title="class DropCommand used to make the player drop an Item ">
<polygon fill="white" stroke="black" points="179.5,-304.5 179.5,-323.5 334.5,-323.5 334.5,-304.5 179.5,-304.5"/>
<text text-anchor="middle" x="257" y="-311.5" font-family="Helvetica,sans-Serif" font-size="10.00">pkg_commands.DropCommand</text>
</a>
</g>
</g>
<!-- Node1&#45;&gt;Node3 -->
<g id="edge2" class="edge"><title>Node1&#45;&gt;Node3</title>
<path fill="none" stroke="midnightblue" d="M79.2081,-199.554C95.7342,-225.225 129.141,-271.105 170,-295 176.6,-298.859 183.902,-301.936 191.381,-304.389"/>
<polygon fill="midnightblue" stroke="midnightblue" points="81.9951,-197.41 73.7205,-190.793 76.0627,-201.126 81.9951,-197.41"/>
</g>
<!-- Node4 -->
<g id="node4" class="node"><title>Node4</title>
<g id="a_node4"><a xlink:href="classpkg__commands_1_1EatCommand.html" target="_top" xlink:title="class EatCommand used to make the player eat an object. ">
<polygon fill="white" stroke="black" points="182.5,-266.5 182.5,-285.5 331.5,-285.5 331.5,-266.5 182.5,-266.5"/>
<text text-anchor="middle" x="257" y="-273.5" font-family="Helvetica,sans-Serif" font-size="10.00">pkg_commands.EatCommand</text>
</a>
</g>
</g>
<!-- Node1&#45;&gt;Node4 -->
<g id="edge3" class="edge"><title>Node1&#45;&gt;Node4</title>
<path fill="none" stroke="midnightblue" d="M85.1154,-197.397C104.267,-214.82 136.963,-241.893 170,-257 178.482,-260.879 187.805,-263.988 197.087,-266.474"/>
<polygon fill="midnightblue" stroke="midnightblue" points="87.4856,-194.821 77.7751,-190.584 82.7234,-199.952 87.4856,-194.821"/>
</g>
<!-- Node5 -->
<g id="node5" class="node"><title>Node5</title>
<g id="a_node5"><a xlink:href="classpkg__commands_1_1GoCommand.html" target="_top" xlink:title="class GoCommand used to make the player go to a given Room. ">
<polygon fill="white" stroke="black" points="184,-228.5 184,-247.5 330,-247.5 330,-228.5 184,-228.5"/>
<text text-anchor="middle" x="257" y="-235.5" font-family="Helvetica,sans-Serif" font-size="10.00">pkg_commands.GoCommand</text>
</a>
</g>
</g>
<!-- Node1&#45;&gt;Node5 -->
<g id="edge4" class="edge"><title>Node1&#45;&gt;Node5</title>
<path fill="none" stroke="midnightblue" d="M100.277,-194.34C120.15,-202.222 146.278,-211.998 170,-219 181.879,-222.506 194.85,-225.696 207.034,-228.418"/>
<polygon fill="midnightblue" stroke="midnightblue" points="101.366,-191.006 90.7817,-190.529 98.7587,-197.502 101.366,-191.006"/>
</g>
<!-- Node8 -->
<g id="node8" class="node"><title>Node8</title>
<g id="a_node8"><a xlink:href="classpkg__commands_1_1HelpCommand.html" target="_top" xlink:title="class HelpCommand used to print the help ">
<polygon fill="white" stroke="black" points="180,-190.5 180,-209.5 334,-209.5 334,-190.5 180,-190.5"/>
<text text-anchor="middle" x="257" y="-197.5" font-family="Helvetica,sans-Serif" font-size="10.00">pkg_commands.HelpCommand</text>
</a>
</g>
</g>
<!-- Node1&#45;&gt;Node8 -->
<g id="edge7" class="edge"><title>Node1&#45;&gt;Node8</title>
<path fill="none" stroke="midnightblue" d="M144.223,-188.703C155.97,-189.891 168.103,-191.117 179.849,-192.304"/>
<polygon fill="midnightblue" stroke="midnightblue" points="144.319,-185.195 134.017,-187.672 143.615,-192.16 144.319,-185.195"/>
</g>
<!-- Node9 -->
<g id="node9" class="node"><title>Node9</title>
<g id="a_node9"><a xlink:href="classpkg__commands_1_1InventoryCommand.html" target="_top" xlink:title="class InventoryCommand used to print the player&#39;s inventory ">
<polygon fill="white" stroke="black" points="170,-152.5 170,-171.5 344,-171.5 344,-152.5 170,-152.5"/>
<text text-anchor="middle" x="257" y="-159.5" font-family="Helvetica,sans-Serif" font-size="10.00">pkg_commands.InventoryCommand</text>
</a>
</g>
</g>
<!-- Node1&#45;&gt;Node9 -->
<g id="edge8" class="edge"><title>Node1&#45;&gt;Node9</title>
<path fill="none" stroke="midnightblue" d="M144.154,-173.304C152.56,-172.454 161.164,-171.584 169.683,-170.723"/>
<polygon fill="midnightblue" stroke="midnightblue" points="143.615,-169.84 134.017,-174.328 144.319,-176.805 143.615,-169.84"/>
</g>
<!-- Node10 -->
<g id="node10" class="node"><title>Node10</title>
<g id="a_node10"><a xlink:href="classpkg__commands_1_1LookCommand.html" target="_top" xlink:title="class LookCommand used to show information about the current Room or a given Item ...">
<polygon fill="white" stroke="black" points="179.5,-114.5 179.5,-133.5 334.5,-133.5 334.5,-114.5 179.5,-114.5"/>
<text text-anchor="middle" x="257" y="-121.5" font-family="Helvetica,sans-Serif" font-size="10.00">pkg_commands.LookCommand</text>
</a>
</g>
</g>
<!-- Node1&#45;&gt;Node10 -->
<g id="edge9" class="edge"><title>Node1&#45;&gt;Node10</title>
<path fill="none" stroke="midnightblue" d="M100.277,-167.66C120.15,-159.778 146.278,-150.002 170,-143 181.879,-139.494 194.85,-136.304 207.034,-133.582"/>
<polygon fill="midnightblue" stroke="midnightblue" points="98.7587,-164.498 90.7817,-171.471 101.366,-170.994 98.7587,-164.498"/>
</g>
<!-- Node11 -->
<g id="node11" class="node"><title>Node11</title>
<g id="a_node11"><a xlink:href="classpkg__commands_1_1QuitCommand.html" target="_top" xlink:title="class QuitCommand used to quit the game ">
<polygon fill="white" stroke="black" points="181,-76.5 181,-95.5 333,-95.5 333,-76.5 181,-76.5"/>
<text text-anchor="middle" x="257" y="-83.5" font-family="Helvetica,sans-Serif" font-size="10.00">pkg_commands.QuitCommand</text>
</a>
</g>
</g>
<!-- Node1&#45;&gt;Node11 -->
<g id="edge10" class="edge"><title>Node1&#45;&gt;Node11</title>
<path fill="none" stroke="midnightblue" d="M85.1154,-164.603C104.267,-147.18 136.963,-120.107 170,-105 178.482,-101.121 187.805,-98.0119 197.087,-95.526"/>
<polygon fill="midnightblue" stroke="midnightblue" points="82.7234,-162.048 77.7751,-171.416 87.4856,-167.179 82.7234,-162.048"/>
</g>
<!-- Node12 -->
<g id="node12" class="node"><title>Node12</title>
<g id="a_node12"><a xlink:href="classpkg__commands_1_1TakeCommand.html" target="_top" xlink:title="class TakeCommand used to make the Player take an Item ">
<polygon fill="white" stroke="black" points="179.5,-38.5 179.5,-57.5 334.5,-57.5 334.5,-38.5 179.5,-38.5"/>
<text text-anchor="middle" x="257" y="-45.5" font-family="Helvetica,sans-Serif" font-size="10.00">pkg_commands.TakeCommand</text>
</a>
</g>
</g>
<!-- Node1&#45;&gt;Node12 -->
<g id="edge11" class="edge"><title>Node1&#45;&gt;Node12</title>
<path fill="none" stroke="midnightblue" d="M79.2081,-162.446C95.7342,-136.775 129.141,-90.8946 170,-67 176.6,-63.1405 183.902,-60.0639 191.381,-57.6115"/>
<polygon fill="midnightblue" stroke="midnightblue" points="76.0627,-160.874 73.7205,-171.207 81.9951,-164.59 76.0627,-160.874"/>
</g>
<!-- Node13 -->
<g id="node13" class="node"><title>Node13</title>
<g id="a_node13"><a xlink:href="classpkg__commands_1_1TestCommand.html" target="_top" xlink:title="class TestCommand used to test series of commands ">
<polygon fill="white" stroke="black" points="180.5,-0.5 180.5,-19.5 333.5,-19.5 333.5,-0.5 180.5,-0.5"/>
<text text-anchor="middle" x="257" y="-7.5" font-family="Helvetica,sans-Serif" font-size="10.00">pkg_commands.TestCommand</text>
</a>
</g>
</g>
<!-- Node1&#45;&gt;Node13 -->
<g id="edge12" class="edge"><title>Node1&#45;&gt;Node13</title>
<path fill="none" stroke="midnightblue" d="M75.1934,-161.957C88.5696,-129.275 120.487,-62.7718 170,-29 175.684,-25.1228 182.028,-22.0216 188.623,-19.5433"/>
<polygon fill="midnightblue" stroke="midnightblue" points="71.9234,-160.709 71.5033,-171.296 78.4335,-163.282 71.9234,-160.709"/>
</g>
<!-- Node6 -->
<g id="node6" class="node"><title>Node6</title>
<g id="a_node6"><a xlink:href="classpkg__commands_1_1BackCommand.html" target="_top" xlink:title="class BackCommand used to go back in a previous Room. ">
<polygon fill="white" stroke="black" points="386,-247.5 386,-266.5 542,-266.5 542,-247.5 386,-247.5"/>
<text text-anchor="middle" x="464" y="-254.5" font-family="Helvetica,sans-Serif" font-size="10.00">pkg_commands.BackCommand</text>
</a>
</g>
</g>
<!-- Node5&#45;&gt;Node6 -->
<g id="edge5" class="edge"><title>Node5&#45;&gt;Node6</title>
<path fill="none" stroke="midnightblue" d="M340.518,-245.648C355.473,-247.034 371.018,-248.475 385.813,-249.846"/>
<polygon fill="midnightblue" stroke="midnightblue" points="340.556,-242.137 330.275,-244.699 339.91,-249.107 340.556,-242.137"/>
</g>
<!-- Node7 -->
<g id="node7" class="node"><title>Node7</title>
<g id="a_node7"><a xlink:href="classpkg__commands_1_1BeamerCommand.html" target="_top" xlink:title="class BeamerCommand used to teleport into a remembered room ">
<polygon fill="white" stroke="black" points="380.5,-209.5 380.5,-228.5 547.5,-228.5 547.5,-209.5 380.5,-209.5"/>
<text text-anchor="middle" x="464" y="-216.5" font-family="Helvetica,sans-Serif" font-size="10.00">pkg_commands.BeamerCommand</text>
</a>
</g>
</g>
<!-- Node5&#45;&gt;Node7 -->
<g id="edge6" class="edge"><title>Node5&#45;&gt;Node7</title>
<path fill="none" stroke="midnightblue" d="M340.618,-230.343C353.654,-229.135 367.136,-227.885 380.177,-226.676"/>
<polygon fill="midnightblue" stroke="midnightblue" points="339.91,-226.893 330.275,-231.301 340.556,-233.863 339.91,-226.893"/>
</g>
</g>
</svg>
